<?xml version="1.0" encoding="utf-8"?>
<!-- Generator: Adobe Illustrator 24.0.1, SVG Export Plug-In . SVG Version: 6.00 Build 0)  -->
<svg version="1.1" id="Layer_1" xmlns="http://www.w3.org/2000/svg" xmlns:xlink="http://www.w3.org/1999/xlink" x="0px" y="0px"
	 viewBox="0 0 281 575" style="enable-background:new 0 0 281 575;" xml:space="preserve">
<style type="text/css">
	.st0{fill:#FEFEFE;}
	.st1{fill:#1B1A17;}
	.st2{fill:#21211C;}
	.st3{fill:#1B1B17;}
	.st4{fill:#1D1B17;}
	.st5{fill:#E591AB;}
	.st6{fill:#151310;}
	.st7{fill:#22201C;}
	.st8{fill:#FFDCDC;}
	.st9{fill:#1E1D19;}
	.st10{fill:#1F1E19;}
	.st11{fill:#201E1B;}
	.st12{fill:#21211D;}
	.st13{fill:#171614;}
	.st14{fill:#3A3A3A;}
	.st15{fill:#F2BBBB;}
	.st16{fill:#1A1C16;}
	.st17{fill:#201D19;}
	.st18{fill:#1E1C19;}
	.st19{fill:#21201D;}
	.st20{fill:#201F1A;}
	.st21{fill:#090806;}
	.st22{fill:#0B0907;}
</style>
<title>frame8</title>
<path class="st0" d="M230,238.4v3.6c-1.4,4.2-1.8,8.6-3,12.8c-2.5,6.9-2.8,13.4,2.8,19c0.5,0.7,0.7,1.5,0.7,2.4
	c0.2,1.5,0.2,3,0.2,4.5c-0.6,5.5-3.8,8-9.1,6.8c-2.2-0.5-4.2-0.1-6.4-0.1c-4,0.1-7.2-1.1-8.2-5.5c-0.3-1.5-0.4-3-0.2-4.5
	c0.8-6.7-1.8-11.5-7.7-14.6c-4.8-2.6-6.5-7.5-7.9-12.1c-1.5-4.9-2.6-10-2.1-15.2c0.2-1,0.1-2-0.2-2.9c-2.3-4.8-2.3-10-2-15.1
	c0.4-4.7-1.5-9.3-5-12.4c-2.4-2.3-5-4.5-5-8.2c-0.3-7.1-2.7-13.8-4.7-20.6c-0.6-1.7-1-3.5-1.2-5.3c-0.2-1.9-0.1-3.9-0.2-5.8
	c0-3.2,0.1-6.5-0.8-9.6c-0.3-4.1-1.6-8.5,2.3-11.8c4.1-0.5,7.7-5.2,6.5-8.7c11.8-12.6,23.6-7.5,29.7,5.4c3.8,8.2,7.1,16.8,11.1,25
	c6.7,13.6,5.8,27.3,0.2,41c1.6-3,2.6-6.3,3.2-9.6c0.5-3.6,1.6-7.1,1.2-10.9c-0.1-1.3-0.4-3.1,1.1-3.5c1.8-0.6,2.5,1.2,3.1,2.5
	c1.2,2.2,2.4,4.4,1.7,7.1c-1.4,4.8,0.6,9.5,0.5,14.3C230.3,216.9,230.3,227.7,230,238.4z"/>
<path class="st0" d="M152,25c0.8-1.4,2-2.4,3.7-1.4c1.6,0.7,2.5,2.4,2.3,4.1c-0.5,4.1,0.9,5.8,5.5,5.6c3.5-0.1,6.8,1.9,10.7,1.2
	c2.5-0.5,3.1,2.4,2.8,4.8c-4-1.4-8.2-2.4-12.5-1.4c2.3-0.4,4.7-0.5,7.1-0.2c2.3,0,4.2,1.7,4.5,3.9c0.5,2.7,1.2,5.6-0.4,8.2
	c-1.1,1.8-3,0.8-4.6,0.4c-4.1-1.1-8.1-1.7-12.1,0.1c-1.7,1.6-4.3,1.7-5.7,4.4c5.8,0.6,7.2,5.7,9.8,9.6c1.2,2.3,0.4,4.2-1.9,4.5
	c-2.8,0.4-5.7,1.9-8.6,0.3c-2.2-0.5-2.3-2.5-2.8-4.2c-1-2.9-2.3-5.8-6-6.1c-0.4,1.1,0.3,1.8,0.7,2.7c0.7,1.5,1.7,2.9,2.9,4
	c1.5,1.1,2.7,2.5,1.7,4.7c-0.5,1.1-1.1,2.1-2.5,2.2c-2.5,0-3.5-1.8-4.1-3.7c-1-3.3-3.5-6-6.8-7.1c3.7,1.4,5,4.8,7.2,7.6
	c5.7,7.3,6.8,15.5,8.5,24.2c1.3,6.8,0.9,12.1-3.7,16.1c-9.2,8-9,18-8.3,28.6c0,2.5,0.8,5,2.3,7c1.5,3.9,1.3,8,0.7,11.9
	c-2.2,15.5,1.5,30.4,4.5,45.3c1.8,8.6,2.8,17.4,4.4,26c1.4,10-1.2,19.7-2.5,29.4c-0.1,1.3-1.2,2.2-2.4,2.1c-0.1,0-0.3,0-0.4-0.1
	c-4.6-0.5-9.3,0.5-13.8-1.1c-2.1-0.5-4-1.2-6.3-0.6c-4,1-5.4-0.3-4.8-4.2c0.7-4.4,0.6-9,2-13.2c1.7-5.1,2-10.4,3-15.6
	c3.3-11.6,4.7-23.6,4.2-35.6c-0.2-1.5-0.5-2.9-1-4.3c-1.2-6.8-0.3-13.6,0-20.3s-0.3-13.9,2-20.5c0.7-1.4,1-3,0.9-4.6
	c0-0.3,0-0.7,0-1c0,0.4,0,0.8,0,1.2c-0.8,2.8,0,6.2-2.6,8.5c-1.2-0.3-1.7-1.2-2.2-2.1c-1.5-4.1-1.5-8.5-1.6-12.9
	c-1,1.3-0.2,3.7-2.5,3.8c-1.4,0.1-2.4-1.1-3.1-2.2c-1.1-1.7-0.3-3.1,0.7-4.6c0.9-1.4,2.1-2.6,3.4-3.6c1.3-0.9,2.7-2.4,2.4-3.6
	c-1.7-6.7,3-5,7-5.1c-5.8-0.1-10.9,0-15.8,1.7c-2.4,0.9-5.1,0.5-7.1-1c-4.1-2.7-8.5-4.8-11.9-8.7c-2.1-2.4-2.5-4.2-1.5-7
	c1.6-4.9,2.3-10,0.9-15.1c-0.3-1.5-0.2-3,0.1-4.5c0.4-1,0.9-1.9,2.1-1.7c1,0.1,1.3,1,1,1.9c-0.6,2.1,0.7,3.9,1,5.8
	c0.1,1.4,1.3,2.4,2.7,2.4c0,0,0.1,0,0.1,0c2.9-0.6,4.3,1.5,6.4,3c-2.7-3.1-3.4-5.9-0.2-9.1c1.9-1.9,0.9-4.8,0.8-7.2
	c-0.1-2-0.5-3.9-0.1-5.9c-0.8,2.4-0.1,4.9,0.2,7.2c0.7,4.6-1.9,7.6-4.6,10.5c-2,2.1-4,1.4-5.3-1.4c-2-4.2,0.8-8,0.5-11.7
	c0.5-0.9-0.9-0.6-0.3-0.4c0.1,0,0,0.2-0.1,0.5c-0.1,0.7-0.4,1.3-0.8,1.8c-2.6,0.3-5.8,1.9-6-3.1c0-0.7-3-0.7-3.8-2.5
	c-0.1-0.5-0.1-0.9,0-1.4c0.5-1.1,1.3-2,2.4-2.5c3-0.2,1.1-2.7,1.8-4c3.4-3.5,3.4-3.5,8.5-2.3c-1.7-1.9-3-4.1-1.4-6.7
	c1.3-2.2,4.1-3.2,6.5-2.3c3.9,1.2,6.4-0.2,8.9-3.3s5.3-5.9,9-7.5c2.4-1.3,4.1-3.5,5.7-5.7l-0.1,0.1c1.9-2.7,4.3-5,7.2-6.8
	c3.5-3.4,7.6-5.3,12.6-4.9c3,4.3,2.9,7.1-1.4,10s-7.5,7.1-13,7.9c-1.7,0.3-2.7,1.8-3,3.6c-0.2,1-0.5,2.1,0.3,2.8s1.8,0,2.8-0.3
	c5.1-1.8,10.6-2.9,14.2-7.6c0.1,0.2,0,0.4-0.5,0.5c-2.2,0.5-4.8,3.5-6.5,0.7s1.7-4.6,3.7-6.2c6.1-4.8,6.4-5.3,4.3-10.9
	C153.2,26.3,152.3,25.9,152,25z"/>
<path class="st0" d="M113.1,162.3c-1.2-3.2-3.4-6.1-0.5-9.9c1.3-1.7-2.8-4-1.5-6.7c1.9-1.2,1-5.3,4.1-4.9c2.5,0.3,2.2,3.4,3.1,5.3
	c0.8,1.8,1.8,3.5,3.1,5.1c5.5,6.4,4.5,13.5,2.3,20.8c-1.6,14.6-5.7,29-4.3,43.8c0.9,9.4,0.6,18.8,2.5,28.1
	c-0.5,8.9-0.8,17.9-0.6,26.8c0.1,3.4-1.3,6.5-2.5,9.6c-1.3,3.4-6.7,5.1-9.8,3.4c-2.1-1.1-3.1-3.1-1.9-5c4.3-7.1,1.9-14.7,1.2-21.9
	c-0.6-6.6,0-13.3-0.7-19.9c0.5-5.3-1.4-10.5-1-15.8c-1.4-6.1-2-12.3,0.4-18.3v-1.6c-0.6-4.9,1.7-9.6,1.5-14.5
	c1.5-8.3,3.4-16.4,5.8-24.5c0.9-3.5-0.1-7.1,0.3-10.6c-0.5,3.3,0.5,6.7-0.3,10C114.1,162.2,113.6,162.4,113.1,162.3z"/>
<path class="st0" d="M182.9,425.8c0,0.3,0,0.6,0,0.9c-0.1,8.2,2.4,16.1,3.4,24.2c0.3,2.3,0,3.8-1.9,5.1c-4.4,2.4-9.3,0.5-13.8,1.8
	c-4.4-0.3-4.7-3.2-4.4-6.7c0.7-8.5,0.6-17.1-0.1-25.6c0.9-9.4,1.4-18.9-1.9-28c-1.7-4.5-1.8-9.5-3.5-14c-0.4-1.5-0.3-3,0.4-4.4
	c2.8-6,3.8-12.7,6.6-18.8c1.4-3.2,2.3-8.2,5.6-8.1c3.5,0.1,2,5.2,3,8c0.5,1.4,0.8,2.9,0.7,4.4c0.1,7.9-0.3,15.9,0.2,23.8
	c2.1,11.4,3,23,4.8,34.5C182,424.1,182.3,425,182.9,425.8z"/>
<path class="st1" d="M138.1,138c-0.9-9.8-1.8-19.5,6.5-27.2c5.2-4.9,9.3-10.4,4.5-18.1c-0.6-1-0.4-2.6-0.3-3.9
	c0.5-5.8,0-11.3-5.4-15c-0.6-0.5-1.1-1.3-1.2-2.1c-1.4-5.9-5.2-9.3-11.3-10.9c4.7-1.2,9.7,1.1,11.7,5.5c0.6,1.2,0.8,2.5,1.5,3.7
	s1.5,2.5,3,1.1c1-1,2.3-2.2,0.4-3.6c-2.2-1.5-3.8-3.8-4.4-6.4c1.7-0.9,1.7-0.9,4,1.6c-0.9-2.5-3.5-3-5-4.7c0.1-2.2,1.4-1.9,2.6-1.1
	c3.1,2.1,6.2,4.3,6.3,8.7c-0.1,1,0.3,2,1.1,2.6c0.5,1.8-1.6,1-2,1.9c-2.2,2.9-2.2,5.4-0.2,8.9c3.1,5.3,3.2,11.6,3.1,17.8
	c2.5-0.7,2.6-2.6,3.3-4c4.9-9.8,15.9-12.7,24.7-6.2c2.5,1.8,3.2,1.5,3.7-2.5c3.5,8.8,9.3,14.8,12.5,22.2c2,4.4,2.1,9.5,0.4,14
	c-0.5,1.2-0.4,1.7,0.5,2.4c1.2,0.9,2.4,1.8,3.5,2.8c4,3.6,7.1,7.1,8.2,13.2c1.8,10.4,7.5,19.6,11.6,29.3c2.4,5.8,5.2,11.5,8.6,16.8
	c1.3,1.8,1.7,4.1,1,6.2c-0.3,0.3-0.8,0.3-1.1,0c0,0,0,0,0,0c-1.1-3.4-2.8-6.5-5-9.3c1.3,10.5-2.2,19.3-4.8,28.2
	c-0.3,0.9-0.7,1.5-1.8,1.2c-0.6-0.2-0.9-0.9-0.7-1.5c0,0,0-0.1,0.1-0.1c0.3-1.3,0.7-2.6,1.2-3.8c7.6-16.3,4.8-32.1-3.5-47.1
	c-2.9-5.5-5.4-11.3-7.4-17.2c-4.6-13.2-18.2-15.9-28.9-5.5c-1,3.3-3.1,6.2-5.9,8.1c-3,3.1-2.5,6.9-2.2,10.7
	c-0.6,1.8,0.5,4.2-1.8,5.5c-1.3,0-1.7-0.9-2-1.9c-0.6-15.4,7.4-25.1,20.6-31.4c5.7-2.7,5.8-2.5,1.1-6.8c-0.4-0.3-0.7-0.7-0.9-1.2
	c-0.1-0.8,0.4-1.4,1.1-1.7c5.9,0,8-2.9,5.2-8.6c-3.8-7.7-8.1-15.3-15.9-20c-7.4-4.4-15-2.6-18.7,5.3c-3.2,6.7-7.4,12.9-12.4,18.5
	c-3.8,4.4-6.5,9.3-5.9,15.4c0.1,2-0.2,4-0.8,5.9C139.9,135.4,140.7,137.6,138.1,138z"/>
<path class="st2" d="M146.9,531.8c-3.5-0.3-7.7,2.3-10.3-2.3c-0.4-0.8-1.1-0.5-1.7-0.1c-3.7,2.7-8.3,2.9-12.2,4.8
	c-2,1-2.6,0-3.7-0.9c-1.4-1.2-0.8-2,0.3-3.2c2.2-2.1,3.2-5.1,2.9-8.1c-0.6-4.9,4.5-4.6,6.8-6.6c5.9-5.3,12.3-9.8,10.8-19
	c5.8-4,1-10.4,3.8-15.4c3.6,4.3,7,1.6,10.4-0.5c5-3.1,5-3.2,8.8,0.3c2-0.4-1-2.6,1.5-3c1.2,4.2,4.1,7.5,6.7,11
	c0.2,0.3,0.4,0.5,0.6,0.8c1.2,1.5-4.3,4.1,0.5,4.8c2.1,0.3,4.5-0.8,6.8-1.3c0.8,1,3.4-0.7,3,2.1c-0.1,0.1-0.2,0.2-0.4,0.3
	c-6.3,1.9-6.5,1.9-6.8,8.8c-0.1,3.4-2,5-4.6,6.5c-8,4.7-15.8,9.6-25.1,13.9c7.6,0.5,14.1-0.5,20.6-1.3c2.5-0.4,5-0.3,7.4,0.2
	c0.5,0,1,0.1,1.5,0.1c1.2,0.2,3.2,0.2,3.2,1.7c0,1.8-2,1.7-3.4,1.9c-4.4,0.1-8.8,0-13,1.8c-4.7,0.4-9.3,1.4-14.1,1.2
	C147,530.7,147.2,531.3,146.9,531.8z"/>
<path class="st3" d="M122.9,170.6c3-8.2,0.6-15.2-4.8-21.7c-1.7-2.1-1.9-5-2.7-8.4c-1.2,1.8-2.2,3.7-2.9,5.7
	c-0.7,2.1-0.9-0.6-1.5-0.4v-0.4c1.4-3-2-6.5,1-9.3c0.4-1.7,0.8-3.4,1.2-5.1c2.5,0.5,0.8,3.1,2.8,4.2c3.3-3.4,5.2-8.1,8.8-11.3
	c1.1-0.9,0.7-2.5-0.5-3.5c-1.7-1.6-3.5-0.4-5.2,0c-3,0.7,1.1,2.2-0.5,3.5c-6.9-2.2-13.2-6.3-19.5-10c-1.6-0.9-2.9-4-5.3-5.3
	c-0.9-0.5-0.1-1.2,0.5-1.9c4.5-5.5,1.2-10.7-1-15.6c-0.5-1.2-3.6-1.4-5.2,0.5c-1.8,2.2-3.6,4.5-6.7,4.6c-0.6,0.3-1.3,0.1-1.6-0.5
	c-0.1-0.1-0.1-0.2-0.1-0.3c5.5-5.1,10.8-10.4,16.7-15.1c1.2-1.3,3.1-0.3,4.4-1.4c0.5-1.8,1.1-3.6,2-6.8c0.8,4.1,1.8,6.7,0.4,9.7
	c-1.2,2.6-1.1,5.7,0.4,8.1c0.3,0.6,1,0.9,1.7,0.7c0.2-0.1,0.3-0.2,0.4-0.3c2.3-2.1,4.9-4.1,5.1-7.6c0.1-2.8-0.1-5.7,0-8.5
	c0-1.7-0.5-3.7,1.5-5.1c0.2,3.8,0.4,7.4,0.6,11c0.1,1.2,0.5,2.6,0,3.4c-2.9,4.3-2.3,8.3,0.5,12.3c0.4,0.6,0.2,1.3-0.4,1.7
	c0,0,0,0-0.1,0c-0.6,0.4-1.4,0.2-1.7-0.4c0,0,0,0,0,0c-2.1-3-4.9-4.2-8.5-5.2c-3-0.9-2.1-5.4-2-8.4c0-2.1-0.5-2-1.7-0.8
	c-0.5,2.8-4.2,4.7-2.4,8.2c-0.1,0.7,0.5,0.3,0.5,0.1c-0.8-2-0.2-3.1,2.1-3c1.9,4.2,0.4,8.5-0.1,12.7c-0.3,2.3-2.7,5.2-1.3,6.5
	c2.5,2.3,4.3,5.2,7.3,7.1c5.8,3.6,11.1,6.1,18.4,3.1c4.3-1.8,9.7-0.7,14.6,0.6c-3.3,2.9-7.5-0.2-11.1,1.3c2.2,3.1,1.1,5.6-1.5,7.8
	c-0.5,0.4-1.2,0.6-1.7,1c-4.5,3.7-4.6,4.5,0.3,9.1v-8c3.2,0.2,2.6,2.3,2.8,4c0.5,4.4-0.3,9,2,13.1c0.2,1.4-2.6-2.5-1.7,1
	c2.3,9.2,1.9,18.3-3.2,26.7C121.7,173.5,122.7,171.9,122.9,170.6z"/>
<path class="st4" d="M108.9,237c1,10.7-0.1,21.5,2.2,32.2c0.5,2.3-0.7,4.9-1.8,7.1s-2.8,4.7-0.4,6.6c2.1,1.8,8.1-0.9,9.2-3.7
	c1.4-3.7,2.7-7.6,2.2-11.6c-0.8-7.8,1.3-15.6,0.8-23.4c-1.1-1.9,0.3-3.5,0.6-5.3c1-4,1-8.1,2-12.1c0.5-1.9,0.6-3.9,2.6-5
	c2,0.7,1.2,2.2,1,3.5c-1.3,10.5-4.5,20.8-5.1,31.9c3.4-1,6.7-1.4,9.9-0.1c1,2.8-1.1,2.5-2.7,2.7c-5.2-0.3-6.2,0.3-5.9,5.2
	s0.2,9.6-2,14c-0.5,1.1-0.4,2.3,0.3,3.3c3.3,6.1,2.9,14.8-1,20.3c-0.9,1.2-1.3,2.7-1.3,4.2c0,4.5,0,8.9,0,13.4c0,1-0.1,2,1.2,2.4
	c0.7,0.3,1.1,0.9,1.3,1.7c0,4.3-1.4,8.4-3.9,11.8c-1-0.1-1.6-0.4-1.1-1.5c-0.1-10.2-0.2-20.3-0.2-30.5c0-2-0.8-2.4-2.7-2.5
	c-5.8-0.2-8.1-2.4-8-8.2c0-4.2-2.9-8-1.2-12.5c0.8-2.1,2.5-3.8,2.8-6.5c-4.1,2-3.1,7.6-7.3,9.1c-0.5,0.2-0.6,2.3-1.2,0.8
	c-0.6-1.7-1.3-2.4-2.6-1.8c-0.7,0.3-0.8,2.1-0.8,3.2c0,1.6,1,2.3,2.7,2.1c1,0.1,1.9,0.3,2.8,0.5c-4.9,1.5-8.6,2.7-10.4,6.6
	c-1,0-1.2-0.7-1.3-1.5c1.2-3.4,3.4-6.4,3.6-10.3c0.1-2,2-2.9,3.8-3.6c2.7-1,3.5-2.9,2.3-5.5c-0.3-0.6-0.5-1.2-0.6-1.9
	c-1-4.2,0.4-5.9,4.6-4.7c3.8,1.2,3.8-0.5,3.6-3.3s-0.2-5.7-0.2-8.5c0-4.6-0.1-9.3,0-13.9C106.8,240,106.2,237.7,108.9,237z"/>
<path class="st5" d="M138.9,463.8c-3.6,0-6.7-0.1-7.5-5c-0.7-4.4-4.9-1.5-7.3-2.1c0.3-1.9,1.7-1.8,2.7-2.1c3-1.1,4.6-4.4,3.6-7.5
	c-0.1-0.3-0.2-0.6-0.4-0.9c-0.8-1.1-1.4-2.2-1.8-3.5c-2.9-12.2-8.2-23.8-10.4-36.3c-2-11.7-1.2-23.7-4.8-35.2
	c-0.5-1.2,0.1-1.5,1.1-1.6c2.5,1.7,2.5,4.6,3.1,7.1c2.3,9.3,2.9,18.9,4.7,28.4c2.7,13.8,8.7,26.4,12.4,39.8c0.7,2.6,2.1,4.9,4.1,6.7
	c1.2,1.3,3,2.1,2.8,4.3c-1.6,1.2-3.6,1.7-5.5,1.3c2,1,4.8,0.4,7.4,0.7c3.1,0.4,6.7-0.6,9.1,2.5c-1.2,2-3.3,1.7-5.1,1.8
	c-3.7,0-7.5-0.2-11.2-0.8c-0.7,0.1-0.3,0.9-0.3,0.2c0-0.2,0.2-0.2,0.5-0.2C137.7,461.5,139.1,461.7,138.9,463.8z"/>
<path class="st6" d="M207.8,281c0.5,3.3,2.2,4.9,5.7,4.7c2.3,0,4.6,0.2,6.9,0.6c7.3,0.9,9.5-1.2,9.3-8.6c0-0.8,0-1.6,0-2.5
	c-0.3-1-0.8-2.1,1-2.3c0.2,2.1,0.6,4.2,0.7,6.3c0.3,6-3.5,9.9-9.5,9c-4.6-0.7-6.7,0.2-5.1,5.3c0.3,1,0,2.3,0.1,3.4
	c0.5,6.4-0.2,7.1-7,6.6c-0.1-1.5,1.1-2,2-2.7c1.9-1.2,2.9-2.8,2-5s-2.9-0.8-4.2-1.2c-5.2-1.6-10.1,0.4-15.1,1.2
	c-8.1,1.3-16.1,0.4-24-1.5c-4.8-1.1-5.3-0.6-5.4,4.5c-0.1,0.7-0.5,1.4-1.2,1.6c-2.8,0.6-4.6-0.7-3.9-3.3c1.1-4.1-1-6.6-3.4-9.1
	c-0.6-0.6-1.1-1.2-1.6-1.9c-1.3-1.9-2.3-4.5-5.2-1.9c-0.9-0.5-1.5-1.4-1.6-2.4c0.5-4.4-0.2-8.8-0.4-13.3c0.2-1.1,0.6-2,1.9-2
	c1.9,0.8,2.3,2.7,2.9,4.4c0.5,1.9,1.2,3.8,2,5.6c3.5,7.5,8.5,12.2,17.4,13.3c9.1,1.1,18,2.4,27.1,0.2c4-1,6.8-2.6,6.5-7.2
	C206.2,282,206.4,280.9,207.8,281z"/>
<path class="st7" d="M90.1,294.1l0.8,0.9c-0.4,0.7-0.9,1.4-1.5,2c-4.5,4.7-4.5,4.6-8.8,0.2c-1.3,0.9,0.2,1.6,0,3.9
	c-3.5-6.8-9-10.8-11.3-17.2c-1.3-3.6,1.6-5.7,3.3-7.8c3.2-3.6,4.8-7,3.7-12.1c-0.7-3.3-0.5-7.2,2.8-9.8c0.6,0.5,0.9,1.2,1,1.9
	c-0.7,3.9-0.7,7.9-0.1,11.9c0.7,3.8-1.8,6.6-4,9.3c-4,4.9-3.9,6.8,0.1,11.6c2.3,2.8,5.7,4,8.2,6.4C86.2,297,87.8,292.9,90.1,294.1z"
	/>
<path class="st2" d="M167.1,425.4c1.5,8.8,0.8,17.8,0.6,26.6c0,2.2-1.1,4.9,2.8,4.7c0.6-0.3,1.3-0.1,1.6,0.5c0,0.1,0.1,0.2,0.1,0.3
	c-1.3,4.6-5.2,5.7-9.1,7c-0.6,0.4-1.3,0.6-2,0.4l-1.8-1.8c-0.6,0.2-1.3,0.3-1.9,0.3c-1.1,0-2.5,0.3-2.7-1.2s1.2-2,2.5-2.4
	c1-0.2,1.9-0.3,2.9-0.2c5.4-0.2,3.6-3.8,3.1-6.7c-0.7-1.2-3.7-1.4-1.8-3.8c2.2-1.4,2.8-3.5,2.8-6c0.3-7.2,0-14.3,0.2-21.5
	c0-2.1-0.5-4.4,1.8-5.8C168.5,418.8,167.2,422.2,167.1,425.4z"/>
<path class="st8" d="M128,43.9c-4.1,2.7-7.8,6.1-10.8,10c-1.7,2.1-3.1,2.8-5.8,1.9c-1.7-0.6-3.7-1.1-5.7-0.1
	c-3.8,2.1-3.4,4.8,2.4,9.7c-4.4,0.8-9-4.5-12,1c-0.7-0.1-1.2-0.6-1.4-1.3c0.2-2,2.4-2.4,3.2-3.9c0.3-0.3,0.6-0.6,1-0.8
	c0.8,0.1,2.6,1.3,2.2,0.3c-0.8-2,2.5-4.1-0.4-5.5c-0.8-0.4-2,0.2-2.5-1.7c3.6,0,7.1-0.3,10.5,0.1c4.4,0.5,10.2-2,11.7-5.9
	c1.3-3.1-3.3-2.1-3.3-5c3.7,3,7.2,2.6,10.7,0.2c0.3,0.2,0.4,0.4,0.4,0.7C128.2,43.7,128.1,43.9,128,43.9z"/>
<path class="st9" d="M176.1,364c-0.7-3.7-1.4-7.4-2.3-11.9c-5,6.3-6.5,13.4-8.8,20c-0.8,2.3,0.2,5.5-3,6.8c-4.1,0.3-3.4-1.6-2-4
	c3.3-7.9,4.9-16.5,10-23.7c1.2-1.7,1.9-3.9,4.3-4.6c0.9,0.3,1.3,0.8,0.9,1.7c0.9,6.2,2.8,12.2,2.7,18.5
	C175.4,367,177.2,364.6,176.1,364z"/>
<path class="st10" d="M182,494.8l-3-1.8c3.9-1.1,6.7,0.5,7,4.6c0.3,5,0.7,10,3,14.6c2.1,4.1-0.1,8.9,2,13.2c1.1,2.3-1,3.9-3.8,3.6
	c-0.9,0.8-2.1,0.8-3,0c-0.8-0.7-0.1-1.3,0.5-1.8s1.5-0.4,2.2-1.5c-2.5-1-5.1,1-7.5-0.3c-0.7-0.3-1-1.1-0.8-1.8
	c0.4-0.5,0.9-1,1.5-1.2c6.5-3.3,7.3-4.4,4.7-10.9C182.9,506.1,183.5,500.3,182,494.8z"/>
<path class="st11" d="M229.7,191l1.1,0.1c0.1,9.5-1.4,19.4,0.7,28.4c1.6,7.1-1,12.7-1.5,18.9c-2.2-2.4-1-5.3-1-7.9
	c0.3-11.1,1.6-22.1-0.3-33.2C228.3,195.1,228.6,192.9,229.7,191z"/>
<path class="st12" d="M184,455.1c1.7-0.9,2-2,1.6-4c-1.3-6.9-2.3-13.9-3.6-20.8c-0.3-1.5,0.4-2.4,0.9-3.6c1.4,7.4,3.1,14.7,4,22.2
	c0.4,3.6,2.2,5.3,4.9,5.8c3.5,0.6,3.2,1.6,1.8,4.1c-1.1,1.8,0.2,4.3-1.6,6c-0.8-0.5-1.4-1.2-1.7-2.1c-0.2-3.4-2.5-4.9-5.3-5.8
	C184.3,456.4,183.8,455.9,184,455.1z"/>
<path class="st5" d="M182.9,425.8c-0.6-0.2-1.4,0-1.5-0.9c-1.5-11.8-3-23.6-4.6-35.5c0.2-2.5-1.9-5.3,1-7.5
	C179.5,396.6,181.2,411.2,182.9,425.8z"/>
<path class="st11" d="M190.7,315c-1.8,6.2-6.2,11-8.8,16.8c-1,2.2-0.9,5.4-3.7,6.7c-0.5-0.3-0.8-0.7-0.9-1.2c-0.1-0.5-0.2-1-0.1-1.5
	c2-8.9,6.9-16.5,10.3-24.8C190.6,310.6,190.1,313.2,190.7,315z"/>
<path class="st13" d="M158,50c3.9-2.6,8-2,12.3-0.9c1.9,0.5,4.7,2.4,5.5-1.5c1-4.4-0.7-8.3-3.8-9c-3.8-0.9-7.5,0.3-11.2-0.2
	c5.4-1.4,10.9-2.9,16.2,0.9c0.1,3,0.1,6,0.3,9c0.2,3.5-1.3,4.3-4.6,3.5c-4.4-1.1-8.9-2.9-13.5-0.5C158,51.5,157.8,51,158,50z"/>
<path class="st5" d="M99,60.3l-0.1,1.2c-2.4,0.7-4.3-1.6-6.7-1c-2.1,0.5-4.9,1.3-4.5,3.7s3.1,1.5,5,1.2c0.6-0.2,1.3-0.4,1.9-0.5
	l1.7,1.4c0.9,1.4,1.9,2.9,1,4.4s-1.9-0.6-3-0.5c-2.2-1.7-5-1.5-7.5-2c-1.6,0.3-3.1,0.2-3.5-1.7c-0.6-2.5,0.7-4.6,2.2-6.3
	C88.7,56.7,95.1,56.8,99,60.3z"/>
<path class="st5" d="M80.1,95.3l1.4,1c-1.5,1.3-3.9,2.1-4.8,0.3c-1.4-2.9-3.8-6-1.5-9.7c3.6-5.6,7.8-10.6,12.7-15.1
	c0.6,0.4,0.9,1,1,1.7c0.3,3.3-1.9,4.7-4.3,6L83.2,81C76.9,87.8,76.7,89,80.1,95.3z"/>
<path class="st14" d="M230.8,273c-0.3,0.8-0.6,1.5-1,2.3c-3.4-2.5-3.6-7.2-7-9.7c-0.7-0.5-1.2-1.7-0.4-2c4-1.7,2.2-5.8,3.7-8.5
	c1.9,0.2,1.1,1.4,0.9,2.4c0.5,3.1-0.9,6-0.9,9c1.9,0.3,1.4-1.7,3-2.6L230.8,273z"/>
<path class="st5" d="M161.2,464.9l0.9-1.2c3.8,1.5,7.7,0.7,11.6,0.9c3.4,0.1,6.9-0.7,10.1,1c0.4,0.4,0.5,1,0.1,1.5
	c-7.1,1.6-14.3,0.6-21.5,1.8C158.9,469.4,162.9,465.8,161.2,464.9z"/>
<path class="st5" d="M212,302.2l-1.9,1.5c-4.4,0.5-8.7-1-13.1-1c-2.6-1-5,0.7-7.5,0.6c-3.5,0.2-6.9,0.2-10.3,0
	c-1.9-0.1-4,0.1-5.2-1.9c0.3-1.4,1.4-2,2.6-2.4c6.3-1,12.5,0.7,18.8,0.6c4.1,0,8.2,0.8,12.4,0.8C209.2,300.6,210.9,300.7,212,302.2z
	"/>
<path class="st15" d="M186.2,527.7c-0.4,0.3-1.5,0.3-1.1,0.9c0.3,0.4,1.4,0.3,2.2,0.5c-0.2,0.7,0.9,2.5-0.6,2.1
	c-2.6-0.8-5.5,0.6-7.9-1.1c0.3-0.4,0.8-0.6,1.2-0.6c0-0.1-0.1,0-0.2,0c-2.6,0.1-5.1-1-7.7-1.1c-1.3-2,1-1.5,1.6-2.2l4.2-0.7
	l-6.3-0.7c2.2-3,4.7-2.6,7.3-0.7l1.2,1.1C181.8,527,185.2,524.5,186.2,527.7z"/>
<path class="st5" d="M162.2,460.8l-7.1,0.6c1.4,2,3.1,1.3,4.3,1.8c-4.7,1.4-9.6,0.6-14.3,0.7c-1.5-2.1,0.6-2.1,1.6-2.7
	c1.8-0.5,3.8,0.5,5.3-1.2C155.6,458.1,159.1,457,162.2,460.8z"/>
<path class="st5" d="M116.9,334.7l0.9,1.3c0.1,0.1,0.4,0.2,0.4,0.3c-0.2,8.3-0.2,16.7-5.2,23.9c-1.8-0.3-1.3-1.6-1-2.7
	C114,350,114.3,342.1,116.9,334.7z"/>
<path class="st5" d="M107,203c0,1-0.1,2-0.2,3c-1.5,5.2,0.1,10.1,1.3,15.1c-0.4,0.4-0.8,0.6-1.3,0.8c-0.8,0.2-1.6,0.1-2.3-0.3
	c-0.9-0.7-1.1-1.9-0.6-2.8c0.4-4.5,0.9-9,1.3-13.5C105.3,204,105.4,202.8,107,203z"/>
<path class="st15" d="M189.6,302.2c2.4,0.1,5-1,7.3,0.6c-3-0.6-4.5,0.3-4.7,3.7c-0.2,2.9,0.2,6-1.6,8.5c-3.1,0.1-1-3-2.5-3.9
	C187.2,307.8,189.6,305.2,189.6,302.2z"/>
<path class="st5" d="M177.8,382c-1.8,2.3-0.3,5-1,7.5c-1.7-8.4-0.6-17-0.7-25.5l1.7,3L177.8,382z"/>
<path class="st5" d="M158,50l1.2,1.1l-4.5,3.1c5.5,0.7,6.4,5.2,8.5,8.7c0.5,1.1-0.1,1.2-0.9,1.1c-0.5-0.5-0.8-1-1.1-1.6
	c-1.8-5.2-5.4-7.4-11.3-6.4l0.2-1.4L158,50z"/>
<path class="st5" d="M162.1,64.1L163,63c1.1,1.5,3.4,2.7,2.5,4.8s-3.4,1.9-5.5,2.4c-3.5,0.9-6.7,0-10.1-0.1l2-1.9
	c3.2,1.4,6.2,0,9.2-0.5S162.8,65.5,162.1,64.1z"/>
<path class="st5" d="M88,240.9c2.7-6.9,8.6-11.4,13-16.9c0.3-0.3,0.8-0.4,1.2-0.1c0,0,0.1,0.1,0.1,0.1c0.3,0.6,0.5,1.4,0.1,1.9
	c-4.7,5.3-8,11.7-13.4,16.4C88.2,242.2,87.5,242,88,240.9z"/>
<path class="st5" d="M113.1,162.3c0.3-0.1,0.5-0.2,0.8-0.3c0.3-0.5,0.6-0.5,1,0c-1.9,8.3-3.9,16.7-5.8,25c-0.3,0.5-0.6,0.5-0.9,0
	C108.4,178.5,111.7,170.6,113.1,162.3z"/>
<path class="st16" d="M171.9,527.8c3.6-1.1,6.6,1.9,10.1,1.7l-3.2,0.5c-5.1-0.4-10.3,1-15.2-1.1
	C165.8,526.8,169.2,526.3,171.9,527.8z"/>
<path class="st5" d="M158.2,83.9c4.8-2.9,8.9-7.8,15.7-4.9C168,78.6,163.7,83,158.2,83.9z"/>
<path class="st5" d="M227.1,257.4l-0.9-2.4c0.7-3.9,1.5-7.8,2.1-11.7c0.2-1.1,0.8-1.3,1.7-1.3C230.2,247.4,228.4,252.3,227.1,257.4z
	"/>
<path class="st15" d="M143.9,530.3c5.6-2.2,11.2-3,17.1-1.1v0.5l-0.4,0.2c-1.7,1.7-3.8,0.9-5.8,1.1
	C151.1,531,147.5,530.8,143.9,530.3z"/>
<path class="st14" d="M111.9,357.5l1,2.5c1.1,3.3,2.8,6.5,1.1,10l-1.1,1.3C109.8,366.9,109.4,362.3,111.9,357.5z"/>
<path class="st5" d="M153,27c-5.2-0.6-9,2.5-13.1,5c-0.9,0.5-1,0-0.9-0.8c3.5-3.8,8-5.4,13-6.3c0.7,0.3,1.7,0.1,2,1.1
	C153.8,26.5,153.5,26.8,153,27z"/>
<path class="st5" d="M160.5,529.9c0-0.3,0.2-0.5,0.5-0.6c-0.4-1.5,0.2-1.9,1.7-2.1c3.7-0.5,7.3-1.7,11.1-1.1l-1.9,1.8
	c-2.8,0.1-5.6,0.1-8.3,1.1C162.8,530.2,161.7,530.1,160.5,529.9z"/>
<path class="st5" d="M146.7,461.1c-0.3,1-2.2,1.2-1.6,2.7h-6.2c-0.4-1.3-1.5-1.6-3.5-2.7L146.7,461.1z"/>
<path class="st14" d="M108.2,187h0.9c0.6,5-0.8,9.6-2.1,14.4c-1.9-1-0.5-2.8-0.9-4.1c0.5-1.7-0.8-3.7,0.8-5.2
	C108.3,190.6,107.7,188.7,108.2,187z"/>
<path class="st0" d="M112.1,136.1c-0.2,3.1,0.3,6.3-1,9.3c0.2-1.8-1.3-3-1.8-4.4C108.7,138.7,109.3,136.7,112.1,136.1z"/>
<path class="st5" d="M143.9,530.3c3.6,0.3,7.3-1.5,10.8,0.6c-2.4,1.9-5.2,0.7-7.8,0.8L143.9,530.3z"/>
<path class="st0" d="M80.1,252.2c0.5-3.3-0.2-7.5,5.2-7.1c0.6,1.3,0,2.3-0.6,3.3C83.5,250,82.8,252.4,80.1,252.2z"/>
<path class="st14" d="M177.8,336.6c0.1,0.6,0.3,1.2,0.4,1.8c0.5,3.8-1.6,6.8-3,10l-1-1.4C173.5,343.2,174.8,339.2,177.8,336.6z"/>
<path class="st8" d="M102.3,224.1L101,224l2.8-5.4c0.2,0.9,0.2,2,1.3,2.4c0.6,0.6,0.9,1.4,1,2.2c0.1,1.8,0.6,4.2-1.6,4.6
	S102.8,225.6,102.3,224.1z"/>
<path class="st14" d="M80.1,252.2L84,248c1-0.4,1.3,0.2,1.6,1c-1.1,3.3-2.6,6.3-6.3,7.5L79,254C79.4,253.4,79.8,252.8,80.1,252.2z"
	/>
<path class="st5" d="M85.2,249.3L84,248c0.5-1,1.8-1.5,1.4-2.9l2.6-4.2l0.8,1.1C89.7,245.5,88.9,248.1,85.2,249.3z"/>
<path class="st14" d="M139,31.3l0.9,0.8c-2.4,2-3.9,4.9-7,6.1C133.6,34.6,136.6,33.2,139,31.3z"/>
<path class="st17" d="M184,467.1v-1c1.9-1.9,4.4-3,7.1-3.1l0.9,1.7C189.8,466.9,187,467.2,184,467.1z"/>
<path class="st5" d="M88.1,74.2l-0.1-2.3c0.7-1.4,2-0.6,3-0.8s1.5,0.2,1.2,1.3c0,0.2,0,0.5-0.1,0.7C91.1,74.7,90.2,76.6,88.1,74.2z"
	/>
<path class="st5" d="M92.2,72.3L90.9,71c0.3-0.7,2.4-1.6-0.1-2.1c-1.4-0.3-2.9,0.1-4.2-0.7c2.8-0.3,5.6-0.7,7.5,2L92.2,72.3z"/>
<path class="st0" d="M107,192c-0.1,1.8,0.4,3.6-0.8,5.2C105.1,195.3,102.8,193.1,107,192z"/>
<path class="st5" d="M128,43.9l-0.1-1.1c1.6-1.7,2.7-3.9,5.2-4.7C132.8,41.2,130.2,42.3,128,43.9z"/>
<path class="st1" d="M207.8,281c-0.3,0.8-0.7,1.6-1,2.3c-2.9-1.3-2-3.9-2.1-6.1c0-3-0.8-5.5-3.3-7.4c-9.6-7.3-13.9-17.5-14.4-29.2
	c-0.4-8.8-3.2-17.3-2.6-26.2c0.2-2.6-1.9-4.5-3.6-6.3c-6.3-6.6-9.5-15.2-13.9-23c-0.7-1-0.6-2.4,0.2-3.2c0.7-0.3,1.5-0.3,2.2,0.2
	c3.4,2.5,4.7,6.5,6.6,10.1c0.9,1.6,1.2,3.4,2,5.1c0.5,2.6,2,5,4.1,6.6c5.8,4.1,6.7,10,6.2,16.3c-0.3,3.5,0.1,6.9,1.2,10.2
	c2,6.2,0.3,13,2.7,19.2s3.8,13.3,12.5,14c1.7,0.1,3,0.3,0.9,2.5c-1.7,1.8,0.6,3,2.4,3.5c2.3,0.6,3,0.8,0.8,3.1
	C206.7,274.8,208.3,278.3,207.8,281z"/>
<path class="st5" d="M175.2,193c-2.7-3-2.9-7.4-6.1-10c-2.4-3.8-1.6-7.9-0.7-11.9c0.7-2.3,0-5.4,3.5-6.1c0,2,0,4,0,6.1
	c-0.9,5.9,2.6,10.9,3.5,16.5C175.7,189.3,177.7,191.3,175.2,193z"/>
<path class="st8" d="M175.2,193c0.4-5-2.4-9.3-3.3-14c-0.5-2.7-1.7-5.3,0.1-7.9c1.5,7,4.4,13.7,5.6,20.9c0.3,1.8,0.4,3.6,0.3,5.4
	C175.9,196.5,175.8,194.5,175.2,193z"/>
<path class="st8" d="M171.9,165c-2,1.6-1.7,4-2,6.2c-3-3-3.3-6.3-1-11.2l1.9-5.3C172.2,158,172,161.5,171.9,165z"/>
<path class="st5" d="M173,144.1c1.6-3,3.6-5.7,5.9-8.1c3.2,4.1-2.4,5.6-2.8,8.9C175.9,147.1,174,144.8,173,144.1z"/>
<path class="st14" d="M126.1,222l-3.1,18c-3.6-1-2.8-4.3-2.8-6.5c-0.6-16-3-32,1.7-47.9c1.1-3.7-0.5-8,1.9-11.6
	c0.8-6.5,4.3-12.5,3.1-19.3c-0.5-3.2-1.2-6.5-0.5-9.8l2.4,1.5l0.2,1.7c1.5,4.6,1.1,9.5,0.8,14.2c-0.4,7.5-1.2,14.9-0.3,22.4
	c2.8,11.8,0.5,23.3-1.9,34.8C127.3,220.5,126.8,221.3,126.1,222z"/>
<path class="st18" d="M150.1,228c-4.3-26.3-12.3-52.2-9.2-79.3c0.2-1.3,0.4-2.7-0.9-3.6c-1-1.1,0-2.3,0-3.4
	c1.6-4.4,4.7-7.8,7.1-11.7c0.4-0.1,0.9-0.1,1.2,0.1c0.7,0.5,1.4,1,2.2,1.5c1.1,0.9,0.7,2,0.3,3.1c-0.4,0.8-1,1.5-1.8,2.1
	c-2.7,2.4-4.9,5.2-4.7,9.1c0.2,8.1-0.2,16.3-0.4,24.4c-0.2,9.3,2.2,18.1,3.8,27c1.6,9.3,4,18.5,6.2,27.7
	C153.7,227.3,151.5,227.1,150.1,228z"/>
<path class="st14" d="M150.1,228c0.8-1.1,1.4-2.5,3.1-2.4c3.2,3.1,3.2,3.1,0.2,6.3c-0.7,0.7-0.2,1.4-0.2,2.1
	c0.3,7.3,0.6,14.5-1.7,21.6c-0.7,2.2,0.3,4.2,0.1,6.4c-0.1,1.8-0.2,3.7-1.7,5l-1,2.2c-1.5-0.1-1.9-1.3-2-2.4
	c-0.3-4.3-3.1-4.5-6.3-4.1c-3.4,0.4-6.9,1.2-10.2-0.2c-1.5-0.6-4-1.2-1.3-3.5c1.3,0,2.7,0.1,2.8-1.8c4.9,2,10.2-0.3,15.1,1.6
	C148.2,248.4,151.1,238.4,150.1,228z"/>
<path class="st5" d="M153,27l1-1c3,6,2.5,8.6-2.7,11.9c-2.6,1.6-4.7,3.3-5.5,6.8l10.6-3.9c-5,7.4-13.1,8.9-20.3,11.9
	c-2,0.8-2.8,0.6-2.4-2.2c0.6-4.9,2.1-7.4,7.6-8.5c4.2-0.9,7.7-4.9,11.3-7.8C154.8,32.3,154.4,29.6,153,27z"/>
<path class="st19" d="M125,59.3c6.7,5,6.4,12.3,6.6,19.3c0.1,3.5-2.9,3.6-5.5,3.1c-3.4-0.7-5-3.6-6.3-6.5s-2.4-5.3-5.6-6.4
	c3.6-1.7,5.2,0.8,6.5,3.1c1.2,2.1,1.9,4.6,3.9,6.3c1,0.8,1.9,2,3.5,1.3s1.2-2,1.4-3.4C130.1,70.1,128.2,64.7,125,59.3z"/>
<path class="st5" d="M126.1,222c1-5.8,2-11.6,3.1-17.4c1.2-6.6,0.2-13.1,0-19.6c0.3-0.5,0.7-0.5,1-0.1c2.7,3.2,1.9,7.4,1.8,10.8
	c-0.5,10-1.3,20-4.8,29.6C126.8,224.2,127.3,222.9,126.1,222z"/>
<path class="st8" d="M130.2,185l-1,0.1c-0.9-4.5-1.2-9.1-0.8-13.7c0.3-7.7,0.5-15.5,0.7-23.2c2.5-2.6,1-6.1,2-9
	c2.7,0.8,1.1,2.8,1.2,4.4c-1.6,9.7-1.7,19.5-1.9,29.3C130.3,176.8,130.2,180.9,130.2,185z"/>
<path class="st5" d="M88.1,74.2c2,2.1,2.5-1,3.9-1.1c1.6,2.5,4.2,1.8,6.5,1.4c0.1,2.4-2.8,1.2-2.8,3.3l5.1,1.3L97,81
	c-3.4-0.4-6.8-0.3-10,0.5c-1.4-0.4-2.6-1.3-3.4-2.5C84.3,76.7,88.4,77.5,88.1,74.2z"/>
<path class="st5" d="M99,88c-3.9,1.3,0.5,4.6-1.6,6.3C93,88.5,93,88,98.8,82.8C98.9,84.5,99,86.3,99,88z"/>
<path class="st15" d="M142,58c3.9,1,6.5,3.2,7.1,7.6c-3-0.6-2.9-4.6-6.1-4.5C141.7,60.4,141.9,59.2,142,58z"/>
<path class="st5" d="M141,142.1c-0.3,1-0.7,2-1,3c-2-2-2.1-4.5-1.9-7c1.7-1.5,0.4-3.5,1-5.2C143.4,135.2,140.2,139,141,142.1z"/>
<path class="st5" d="M132.2,143.4c-0.4-1.4,0.5-3.2-1.2-4.4c0-1.7-0.3-3.6,1.8-5.5C133.2,137.3,133.5,140.4,132.2,143.4z"/>
<path class="st20" d="M123.8,174c-0.3,14.2-5.4,27.9-3.7,42.3c0.9,7.2,1,14.5,1.5,21.7c0.1,0.9-0.3,2.2,1.4,1.9
	c-1.1,1.2-2.4,2.3-2,4.2c-3-18.3-4.9-36.7-0.9-55.1c1.3-6.1,0.5-12.6,2.8-18.5C123.1,171.7,122.8,173,123.8,174z"/>
<path class="st5" d="M106.7,221.1l1.4-0.1c0.3,5.3,0.6,10.7,0.8,16c-1.9,4.9-0.4,10-0.9,15c-0.2,1.8-0.2,3.6-0.2,5.4
	c-2.2-0.8-2.2-2.8-2.2-4.5c-0.3-10.2,0-20.4,0.2-30.5C105.8,221.8,106.3,221.5,106.7,221.1z"/>
<path class="st21" d="M114.9,162h-0.5h-0.5v-12.2C115.7,153.6,116,157.9,114.9,162z"/>
<path class="st14" d="M161,376.1c-2.3,1.8-0.3,2.2,0.9,2.8c-0.5,5.8,1.9,11.2,3.3,16.6c2.8,9.7,3.5,19.9,1.8,29.8
	c-0.7-3.1,0.7-6.4-1-9.4c-1.6-1.2-1.4-2.9-1.5-4.5c-0.4-4.6-0.6-9.2-4.2-12.9c-1.7-1.8-1.7-4.6-1.8-7.2c-0.1-3.2-1.5-4.9-4.8-5.2
	c-1.7-0.1-3.3-0.6-4.8-1.3c-1.4-0.5-2.1-2.1-1.6-3.5c0-0.1,0.1-0.1,0.1-0.2c0.9-2.5,3.1-3.5,5.4-4
	C155.6,376.5,157.9,372.8,161,376.1z"/>
<path class="st14" d="M184,455.1l1.1,0.9c-2.8,4-7.5,4.7-13.2,1.8l-1.4-1.2C174.8,454.3,179.7,457.4,184,455.1z"/>
<path class="st0" d="M149.9,267c-0.3-11.5,3-22.7,2.2-34.2c-0.1-1.6,0.2-1.8,1.8-1c1.1,0.5,1.1-0.9,0.9-1.6
	c-0.4-1.6-1.1-3.1-1.6-4.6c-4-11.9-5.2-24.5-8.2-36.6c-3.5-14.6-2-29-1.8-43.6c0.3-4.1,4-6.2,5.7-9.4c0.4-0.6,0.7-1.2,1.1-1.9
	c2.5-5.4,6.2-9.6,12.2-11.2c1.4,0,2.9-0.1,3.8,1.3c-0.1,1.7-1.7,1.9-2.7,2.6c1.5,0,2.2-1.2,2.9-2.2c4.3-2.2,9.4-2.9,13.1-6.4
	c3.1-2.6,5.9-2.9,8.5,0.7c1.8,1.1,3.7,2.2,5.6,3.2c1.3,0.7,1.1,1.8,0.8,3s-0.6,1.8-2.1,2c-12.5,1.7-18.5,11.3-23.5,21.1
	c-1.2,2.4-0.1,6.3-0.9,9.5c-0.5,8.2,0.8,16.4,0.2,24.5c-1.3,2.9,1.3,4.4,2.3,6.4c3.5,7.3,7,14.6,13.2,20.3c3.5,3.2,2.4,8,2.9,12.2
	c1.2,10.4,1.5,21,3.9,31.3c0.9,4,3.6,7,5.9,10.3c1.5,2.1,2,4.5,5.4,5.5c2.9,0.8,5.4,4.1,4.5,8.4c-0.6,2.3-0.4,4.7,0.6,6.8
	c1.4,6.3-3.1,7.2-7.5,8.3c-10.3,2.7-20.3,0.8-30.5-0.9c-10.5-1.8-13.4-9.7-16.6-17.7C151.3,271.1,151.3,268.8,149.9,267z"/>
<path class="st0" d="M141,142.1c-2.3-2.8,0.1-6.4-1.9-9.2c0.4-2.1,0.7-4.2,0.8-6.4c-0.3-5.1,1.6-10,5.3-13.5c4-3.7,6-8.9,10.3-12.4
	c1.2-1,1.8-5.1,3-7.7c3.2-6.9,12.2-9.9,18.8-6.2c6.1,3.5,11.2,8.1,14,14.9c1.5,3.5,5.1,5.9,5.1,10.5c0,7.7-0.4,8.3-7.1,5.9
	c-3.6-0.7-7.5-3.4-10.4,1.5c-1.2,0.6-2.3,0.2-3.4-0.2c-3.1-1.8-5.6,0.4-8.3,1.2c-2.8,1.2-5.6,2.6-8.7,3.1c-4.5,0.7-7.1,4.3-10.6,6.6
	L141,142.1z"/>
<path class="st14" d="M168,182.2c-0.5-8.2-2.7-16.3-0.2-24.5l1.1,2.4c-0.5,3.8-0.2,7.6,1,11.2c-1.2,3.8-1.5,7.8-0.8,11.8L168,182.2z
	"/>
<path class="st5" d="M179.3,119c0.2-4.3,3.2-3.6,5.8-3.1c1.5,0.2,2.9,1.3,4.3,2l-1.3,1c-2.7-0.5-5.4-3.2-8.1,0.1
	C179.7,119.4,179.5,119.4,179.3,119z"/>
<path class="st15" d="M199.2,129.1c-1.2-0.8-3.2-0.8-3.1-3.1c0.1-0.9,0.5-1.8,1.5-1.3c1.5,0.6,2.9,1.6,3.3,3.2
	C201.1,128.5,200.3,129.3,199.2,129.1z"/>
<path class="st0" d="M179,524c-2.4,0.5-5-0.5-7.3,0.7c-4.7-1.7-9,0.8-13.6,1.1c-5.1,0.4-10.2,1-15.4,0c1.8-3.5,5.5-3.7,8.1-5.4
	c5.5-3.7,11.2-6.9,17.2-9.6c6.8-2.9,6.4-8.3,4.1-14.2c3.2-1.1,6.3-2.5,9.8-1.7c2.1,2.6,3.6,5.4,2.2,9c-0.5,1.2-0.2,2.7,0.7,3.6
	c2.1,2.7,2.1,6.2,2.7,9.4s-0.6,5.6-4.3,6C181.8,523,180.4,523.5,179,524z"/>
<path class="st14" d="M126.1,525.6c3.5-6.6,8.8-11.6,13.8-16.7c1-1,2-2.1,3.1-3.2c5-4.9,0.9-10.8,1.8-16.1c0.5-3.2,0-5.7,4.5-4.7
	c2.5,0.5,4.3-2.2,6.5-3.1s3.4-0.7,4,1.6c1.3,4.8,3.4,9.3,6.3,13.4c1.2,1.8,2.2,3.9-1.3,5.5c-9.4,4.4-18.3,10-26.4,16.6
	C134.8,521.9,130.6,524.1,126.1,525.6z"/>
<path class="st15" d="M122.8,530.3c4.2-3.1,9.6-3.9,13.6-7.3c7-6,15.2-10.5,22.8-15.7c2.7-1.8,5.9-2.2,8.6-3.7
	c1.5-0.8,1.9,0.3,2.5,1.4c0.7,1.2,0.2,1.8-0.8,2.3c-14.2,7.8-27.9,16.5-42.5,23.4C125.9,531.2,124.4,532.4,122.8,530.3z"/>
<path class="st5" d="M167.3,490.9c-0.8-1.9-1.6-3.8-2.8-6.6C167.8,486.4,168.2,488.6,167.3,490.9z"/>
<path class="st5" d="M87.1,81.1c3.2-2.4,6.5-2.7,9.9-0.2c-5.7,4.6-10.1,10.9-16.9,14.3c-3-1.1-4.5-4.4-3.4-7.3
	c0.1-0.4,0.3-0.7,0.5-1c1.7-2.6,3.3-5.3,5.8-7.2c1.7,1.6,1,3.3,0.1,5c-0.7,1.3-2.1,2.3-1.2,4C82.8,85.6,83.3,82.2,87.1,81.1z"/>
<path class="st5" d="M124.7,154.6c-4.2-4.2-6.9-9.7-7.8-15.5c-0.3-1.3,0.3-2.7,1.5-3.4c1.4-0.5,2.2,1,2.9,2.1
	c0.2,0.3,0.4,0.6,0.5,0.9C123.3,143.9,122.2,149.5,124.7,154.6z"/>
<path class="st0" d="M161,376.1c-4.2,0.5-8.2,2-11.7,4.4c-1.9,1.4-2.1,3.4,0.9,3.4c9-0.2,10.8,5.6,10.5,12.6c-0.1,3.3,3.4,3.1,4,5.7
	c1.1,4.6,1,9.2,1.4,13.8c-1.2,9.3-0.3,18.7-0.3,28c0,4.2-1.2,5.6-4.8,6c-7.5,2.2-15.3,2.4-23.1,2.8c-4.8-2.7-5.5-7.8-6.9-12.2
	c-1.9-6-3.7-12-6.1-17.8c-3.8-9.2-4.9-19.2-6.7-28.9c-1.4-8-1.9-16.1-4.3-23.9c-0.4-3.3-1.9-6.5-1.1-10c2.5-7.8,3.7-15.9,4.9-24
	l3.5-11.5c0.5-5.7,1.6-11.4,3.4-16.9c-2.4,4.5-1.4,10.6-4.5,15.5l-1,2.2l-1-0.1c0-7.2,0-14.3,0-21.4c0-0.6,0.1-1.5,0.5-1.7
	c7-4.4,2.5-11.4,3.6-17.1c0.5-2.5-2.4-1.5-4.1-2.1c3.3-5.9,4.7-12.6,3.9-19.3c-0.5-5,1.7-6.2,7-4.5c-1.1,3.4,1.8,2.6,3.1,2.7
	c3.4,0.2,6.9,0.1,10.3-0.2c4-0.5,5.7,0.9,5.6,4.9c0.1,1,0.4,1.9,0.7,2.8c0.9,4.3,2.1,8.6,0.1,12.9c-5.2,2.5-10.2-0.4-15.3-0.4
	c-1.1,0-2.2-0.6-3.3,0c-0.3,0.4-0.5,0.9-0.5,1.5c2.8,1.8,6.2,1.8,9.3,3.1c-1.8-1.2-4.4-0.4-5.3-2.8c0.5-1.1,1.6-1.3,2.7-1.3
	c4.4,1.4,9.1,0.3,13.5,1.8c3.9-0.1,0.7-3.1,2-4.7c2.4,4.5,5.5,8.6,9.2,12.2c2.2,2.1,0.8,4,0.2,5.9c-0.8,2.5-0.4,3.5,2.3,3
	c3.4,0.2,7-1.9,10.1,0.9c5.2,1.9,10.5,0.8,15.8,1.1c2.5,3.4-1,5.9-1.4,8.8c-3.5,8.5-7,17-10.5,25.5c-1.2,3.5-2.4,6.9-3.6,10.4
	C167.5,355.7,164.7,366.1,161,376.1z"/>
<path class="st0" d="M106.7,221.1l1.2,36.2c0.2,3.1,0.3,6.3,0.7,9.4c0.2,1.4,0.1,2.6-1.1,3.5c-1.5,1.1-1.9-0.6-2.8-1.1
	c-1.5-0.7-3.1-2.1-4.6-1c-1.6,1.2-0.4,3.2,0.2,4.6c1.7,4.4,2.4,7.9-4.1,8c-1.1,0-2,0.9-2,2c0,0.1,0,0.3,0.1,0.4
	c0.6,4.4-2.2,7.4-4.1,10.8c-0.6,0.3-1.2,0.6-1.6,1.1c-2.4,3.4-4.1,3.2-6.8-0.3c-2.5-3.2-7.1-4.4-9.1-8.5c-1.8-3.6-1.7-6.1,1.4-9.1
	s6.3-6.7,4.4-12.2c-0.8-2.9-0.5-6,0.9-8.7l5.9-7.1c1.9-2,3.2-4.5,3.6-7.3l13.5-17.9l2.2,3.7c1.7-2.3,0.2-4.6,0.7-6.7L106.7,221.1z"
	/>
<path class="st5" d="M114.4,300.1c-2.8,0.1-5-0.7-5.8-3.6c-0.9-3.5-2.9-7,0-10.6c0.8-1,11.4-1.4,11.9-0.3c0.4,0.8,0.6,2.4,0.2,2.8
	c-3.9,3.3,1.4,7.8-1.5,10.8C118.2,300.2,116,299.9,114.4,300.1z"/>
<path class="st8" d="M120.2,323c1-6,2-12,4.3-17.7c0.3-0.7,0.3-1.8,1.4-1.6c0.8,0.1,1.2,0.7,0.8,1.4c-3.1,6.1-2.5,13.2-5.4,19.3
	L120.2,323z"/>
<path class="st5" d="M101.1,269.8c5,2.5,5,2.5,2.2,5.6C102.7,273.7,102,272.1,101.1,269.8z"/>
<path class="st5" d="M162.2,460.8c-3.3-1.2-6.8-0.4-10.2-0.9c-5.8-1.4-12,0.7-18.5-2c2.7-2.3,5.2-1.6,7.4-2.2
	c1.5-1.5,3.5-1.2,5.4-1.3c4.8-0.5,9.8,1.4,14.5-0.9c1-0.6,1.9-1.4,2.9-1.9c0.3-0.2,0.7-0.1,0.9,0.3c0,0.1,0.1,0.1,0.1,0.2
	C164.1,455.2,168.5,459.6,162.2,460.8z"/>
<path class="st5" d="M164.8,452.2c-0.3-0.1-0.6-0.2-0.8-0.1c-4.3,2-8.9,0.8-13.4,1.2c-0.7,0.1,0.1-0.2-0.5,0
	c-0.4,0.1-0.3,0.5,0.1,0.7c0.1,0.4,0,0.8-0.2,1.1c-0.9,0.6-2.1,0-3,0.6l-6.1,0.1l-3-3c7.5-3,15.3-2.9,23.1-2.8
	C161.7,451.7,164.5,449.9,164.8,452.2z"/>
<path class="st5" d="M212,302.2l-36-2.1c-3.7,0.7-7.5,0.4-11-1c-3.5-2-0.5-4.4-0.1-6.4s2.2-0.3,3.3-0.1c12.1,2.8,24.1,4.3,36.1-0.5
	c2.5-1,2.8,3.5,5.7,1.8c1.1-0.7,4.1-4.3,5.2,0.2C215.8,297.2,217.5,301.4,212,302.2z"/>
<path class="st5" d="M128.9,281.2c-0.6-0.3-1.3-0.7-1-1.4c0.6-1.4,1.6-0.4,2.5-0.2c6.2,1.3,12.2,3,18.6,2.6l1,1.8
	c-4.6,0.5-9.3,0.2-13.8-1C133.8,282.2,130.9,283.8,128.9,281.2z"/>
<path class="st15" d="M165,299.2l11,1l-2.1,0.9c-3.4,0.5-6.9,0.6-10.1-0.9L165,299.2z"/>
<path class="st5" d="M214.5,288.2c-2.2,2.4-4.2,0.7-6.8,0.4C210.3,285.7,212.5,288.2,214.5,288.2z"/>
<path class="st5" d="M172,457.9c4.4-0.2,9.2,1.7,13.2-1.8c3.9,0.7,7.3,1.7,5.9,6.9c-1.8,2.3-4.6,2.3-7.1,3.1
	c-5.7,0.1-11.5,0.1-17.2,0.4c-2.4,0.1-3.7-0.9-4.7-2.8C165.8,462.6,169.2,460.6,172,457.9z"/>
<path class="st5" d="M94.5,64.9c-1.6,3.6-4.6,1.7-7.1,1.8c-1.1,0-2-1-2-2.1c0-0.1,0-0.2,0-0.3c0.2-2.5,2.2-3.4,4.2-4.4
	c3.5-1.7,6.4-0.5,9.2,1.6C98.8,64.4,95.8,63.5,94.5,64.9z"/>
<path class="st5" d="M186.2,527.7c-1.6-1.8-5.1,0.9-6-2.6c1.9-0.4,3.9-0.9,5.8-1.1c1.3-0.1,3,0,3.2,1.6
	C189.5,527.8,187.8,527.8,186.2,527.7z"/>
<path class="st14" d="M87.1,81.1c-2.7,2.8-4.9,5.8-4,10.3c-3.1-2.2-4.7-4.3-1.1-7.1c1.5-1.1,1-3,1.1-4.6l0.5-0.7
	C85.1,78.9,86.5,79.8,87.1,81.1z"/>
<path class="st5" d="M148,130.1c2-3.9,5-6.6,9.3-7.5c3.3-0.8,6.6-2,9.7-3.4c0.5,0.3,1.2,0.5,1.3,1.2c-0.6,0.8-0.5,1.9,0.2,2.6
	c-0.2,1.2-1,1.4-2,1c-1.4-0.7-3.1-0.7-4.5,0c-3.9,2.4-8.4,4-9.4,9.4c-0.1,0.4-1.7,0.5-2.5,0.8c0-0.7,1-1.5-0.2-2.2
	c-0.3-2,1.8-2.5,2.2-3.5c0.8-0.8-0.3-0.9,0.3-0.6c-1,1.5-2.5,2.4-3.5,3.9L148,130.1z"/>
<path class="st5" d="M148.9,136c0,2.4-1.1,5-3.1,5.5c-2.7,0.6-1.2,3.1-2.6,4C143,141.1,144.7,137.8,148.9,136z"/>
<path class="st15" d="M148.9,131.9c1.5-3.3,4.3-5.9,7.7-7.2l-6.7,7.3L148.9,131.9z"/>
<path class="st5" d="M137.8,48.8c1.4-2.2,3.4-4.1,5.7-5.4C143.8,47.4,143.6,47.6,137.8,48.8z"/>
<path class="st8" d="M150.5,381.9c2.9-1.9,4.9-3,7.2-1.7c0.4,0.6,0.5,1.4,0.3,2.2C155.9,383.6,153.8,382.8,150.5,381.9z"/>
<path class="st14" d="M161.9,124c1.4-1.3,3.4-1.5,5-0.5c0.7,0.4,1.1,0.5,1.2-0.5c0-0.3-0.1-0.7-0.2-1c2-1.4,4.7-1.3,6.5-3.1
	c0.5-0.4,1.1-0.7,1.7-1l3.1,1c0.1-0.2,0.4-0.2,0.6-0.1c0,0,0.1,0.1,0.1,0.1c-3.8,4-8.8,5.4-14,6.1l0.1,0
	C165,123.4,163.3,124.4,161.9,124z"/>
<path class="st14" d="M166,125c0.2,1,2,3-0.3,2.7c-2-0.2-3.1,2.2-5.2,0.9C161.7,126.6,163.7,125.3,166,125L166,125z"/>
<path class="st14" d="M172.1,90.4c-3.3,2.8-8,0.4-11.3,3.3C161.5,89.2,161.6,89.2,172.1,90.4z"/>
<path class="st5" d="M176.1,118c0.1,0.9-0.5,1.1-1.2,1.2c-2.1,1-4.2,1.8-6.6,1l-1.4-1C170,118.1,172.7,115.4,176.1,118z"/>
<path class="st8" d="M134.1,283.7c2.5,0.7,5.1,1.3,7.7,2c0.6,0.2,1.3,0.3,1.2,1.2c0,0.6-0.6,1.1-1.2,1.1c-0.1,0-0.1,0-0.2,0
	c-4.5-1.3-9-2.8-13.7-3.6c-0.8-0.1,0.4-1.2,1-1.6C130.9,281.7,132.5,282.9,134.1,283.7z"/>
<path class="st15" d="M134.1,283.7l-5.2-0.9v-1.7l7.2,1.7L134.1,283.7z"/>
<path class="st15" d="M149.9,454.1l-3.2-0.4c5.7-1.8,11.5-2,17.3-1.6c0,1-0.7,1.8-1.7,1.8c-0.1,0-0.2,0-0.3,0
	c-0.7,0.5-1.6,0.8-2.5,1C156.3,454.8,153,455.6,149.9,454.1z"/>
<path class="st22" d="M160.1,454.1l1.9-0.1c-0.3,2.2-2.2,2.4-3.7,2.4c-3.7,0-7.5-0.4-11.2-0.6c0.8-1,2-0.7,3-1
	C153.4,453.8,156.8,455.1,160.1,454.1z"/>
<path class="st14" d="M160.1,454.1c-3.2,2.1-6.7,0.3-10,0.7c-0.1-0.2-0.1-0.4-0.2-0.7L160.1,454.1z"/>
<path class="st5" d="M168.4,120.2c2.2-0.1,4.1-2.6,6.6-1c-1.5,2.9-4.1,3.3-7,2.9l-1.2-0.5L168.4,120.2z"/>
</svg>
