<?xml version="1.0" encoding="utf-8"?>
<!-- Generator: Adobe Illustrator 24.0.1, SVG Export Plug-In . SVG Version: 6.00 Build 0)  -->
<svg version="1.1" id="Layer_1" xmlns="http://www.w3.org/2000/svg" xmlns:xlink="http://www.w3.org/1999/xlink" x="0px" y="0px"
	 viewBox="0 0 281 575" style="enable-background:new 0 0 281 575;" xml:space="preserve">
<style type="text/css">
	.st0{fill:#0D0E0B;}
	.st1{fill:#F2BBBB;}
	.st2{fill:#1C1B18;}
	.st3{fill:#161512;}
	.st4{fill:#161511;}
	.st5{fill:#0C0C0B;}
	.st6{fill:#0C0C0A;}
	.st7{fill:#0F0E0D;}
	.st8{fill:#E591AB;}
	.st9{fill:#1B1B19;}
	.st10{fill:#3A3A3A;}
	.st11{fill:#FEFEFE;}
	.st12{fill:#080807;}
	.st13{fill:#0E0D0C;}
	.st14{fill:#141513;}
	.st15{fill:#1B1E1A;}
	.st16{fill:#141311;}
	.st17{fill:#FFDCDC;}
	.st18{fill:#141412;}
	.st19{fill:#FFEBF4;}
	.st20{fill:#110F0C;}
	.st21{fill:#151310;}
	.st22{fill:#1C1B19;}
	.st23{fill:#0E0E0D;}
	.st24{fill:#21201E;}
</style>
<title>frame7</title>
<path class="st0" d="M194.8,120.4c10.5,11.8,17.5,24.9,17.7,41.4c0.1,11,2,22.1,1.5,33.2c-0.4,7.1,0.8,14.2,0.4,21
	c-0.5,8.7-1.6,17.4-3.3,26c-0.6,2.4-0.9,4.9-0.9,7.3c0.2,6,0.2,11.8-3.3,17.1c-0.9,1.5-0.9,3.3-0.2,4.8c1.4,3.5,1.5,7.1,1.5,10.8
	c-2.5,1.5-1.6,3.8-1.2,6c0.1,0.7,0.1,1.5,0,2.2c0.3-1.2-0.1-3-0.2-4.8c-0.1-1.3,0.4-2.5,1.3-3.4c2.9,5.4,4,10.9,0,16.3
	c-1.2,0.6-2,1.8-2.2,3.2c0.1,3.4-2.1,4.2-4.8,4.7c-4,0.5-7.8-1-11.8-0.5c-2.5,0.3-3.3,1.2-4.1,3.1c-3,7.1-6.1,14.2-9.2,21.3
	c-1.5,0.2-1.7-1-2-2c0.3-6.1,3-11.4,5.9-16.7c0.7-1.3,2.4-2.9,0.9-4.5c-1.2-1.3-3.1-1-4.7-0.6c-3.7,0.9-7.4,1.6-11.2,2.5
	c-6.1,1.4-11.2,0.5-15-5.6c-2.4-3.9-5.4-7.3-5.7-12.3c-0.1-2.5-3-3.1-5.4-3.5c-6.2-1.1-12.6-0.6-18.5-3.2c-1-0.4-2.1-0.8-3.1-1.1
	c-1.8,2.5-0.4,5.4-0.8,8.1c-0.3,2.4,1,4.9-0.9,7.1c-1.4,1-2.8-0.1-4.4-0.4c-1.3,7.9,0.4,15.5,1.2,23c0.3,1.2,0.4,2.4,0.3,3.7
	c-0.8,4.4,0.7,8.8-0.2,13.2c-0.3,2.5,0.5,5.1-1.2,7.3c-0.5,0.4-1.1,0.4-1.6,0c-2-4-0.1-8.1-0.5-12.2c-0.2-2,0-4.4-0.6-6.3
	c-2-6.9-3.2-13.8-1.9-21c0.4-2.5-0.2-3.6-2.9-1.9c-2.1,1.3-13.7-0.9-15.3-2.7c-0.5-0.7-0.7-1.5-0.4-2.3c0.3-2,0-4.2,0.9-5.9
	c3.1-5.8,1.8-11.5,0.8-17.5c-2.1-12.3,1.9-24,8.8-33.2c9.1-12,9.1-24.9,8-38.2c-0.9-11.3,0.1-22.6,0.7-33.8
	c0.2-4.6-0.5-9.3,0.9-13.9c1.2-0.2,2.3,0.5,2.7,1.6c1,5.8,0.6,11.6,0.2,17.4c-0.8,11.8-0.3,23.6-0.2,35.4c0.2,15.5-0.4,30.9-2,46.3
	c-1,10.3-2.5,20.8,2.7,31.3c-0.4-8,1.5-15.1,3.4-22.2c1.3-4.5,2.3-9,3-13.6c0.2-1.6,0.3-3.4,2-4.4c3.4,1.8,4.5,4.5,2.6,8.5
	c-1.1,2.4-1.6,5.1-1.6,7.7c-0.4,2.3-1.6,4.3-2.1,6.6c-0.2,0.8-0.8,1.4-1,2.1c1-0.7,2-1.2,3-0.1c0.4-0.7,0-1.3-0.1-2
	c-0.1-2.1,0-4.3,0.2-6.4c0.2-2.2-0.5-4.6,1.3-6.5c5.3,0.8,10.8,0.7,16,2.5c2.5,0.9,4.2,0.1,5.7-1.9c4.7,1.1,3.6,4,2,6.9
	c-2.5,1.5-5.1,1-7.6,0.2c-1.7-0.5-3.5-1.3-5.3-1.1c-2.4,0.3-6-2-6.6,2.7c-0.6,4.9,1.2,7.3,6,7.4c3.7,0.1,7.1,1.4,10.8,1.4
	c2.5-1.1,1-3.5,1.7-5.2c0.5-1.3,0.2-3.6,2.8-2c1.4,3.9,0.6,7.9,0.8,11.8c0.3,9.2,3.4,10.7,10.3,9.5c8.8-1.6,17.8,0.1,26.6,1.6
	c5.2,0.8,10.5,1.2,15.8,1.2c2.9-1.7,0.4-3.9,0.5-5.9c-0.3-1.2-0.7-2.4-2.3-2.5c-12.8,1.4-14.9,0-20.1-12c-3.7-8.5-7.2-17-11.7-25.1
	c-2.7-4.9-4.9-10.2-5-16c0.3-1,1.3-1.7,2.3-1.6c1.1,0.7,1.4,2,1.9,3.1c0.8,2,1.9,3.8,2.3,5.9c0.5,3.5,1.8,6.4,4.8,8.4
	c1.3,1,2.6,2,3.9,3.1c1.2,1,2.3,2.3,1.3,3.9c-2.5,4.3,0.6,6.1,3.4,7.9c1.5,1,3.4,1.4,4.7,2.8c1.5,1.6,2.1,3.2-0.9,3.9
	c-2.3-0.5-3.2,0.5-2.3,2.6c1.2,3,2.4,6.1,5.5,7.9c3.4,1.2,6.9,0.6,10.4,0.3c1.9-0.2,3.7-0.8,3.8-3.2s-0.8-4.2-3.4-4.8
	c-1.5-0.4-3.8-0.3-3.7-2.5c0.2-1.9,1.6-3.5,3.4-3.9c5.1-1.5,6.1-5.6,6.3-9.7c0.5-14.6,3.8-28.9,3.5-43.6c-0.1-3.9-1.5-7.5-2.1-11.2
	c-1.9-10.6-2.6-21.5-6.9-31.6c-1-2.5-2-5.5,0.7-7.9c0.5-0.2,1-0.3,1.5-0.1c4.1,6.8,5.6,14.4,7.1,22c0.4,1.9,0.4,3.9,0.8,6.2
	c-0.9-7.5-1.3-14.8-1.8-22c-0.8-12-6.5-22.6-10-33.8c-0.9-3.3-3.6-5.8-6.9-6.5c-1.8-3.4-4.9-2.3-7.7-2.4c-2.5,0-5,0.3-7.4-0.1
	c-7.7-1.3-11.5,3.1-14.5,9.2c-0.8,1.6-1.2,3.4-2.6,4.8c-3.4,0.6-3.2-1.5-2.5-3.5c0.5-1.7,1.8-3.2,2-5.1c2.2-3.3-1.6-2.9-2.6-4.2
	c-0.7-1.6,0.6-2.9,0.7-4.4c2.2-3.3,6.2-3.6,9.2-5.7s6.2-3.8,10.2-3.2c3.6,0.5,6.6,2.9,10.5,3.6c-0.8-5.5-1.4-10.6-3.7-15.3
	c-1.5-3.2-3.1-6.3-7.2-6.7c-1.5-0.2-2.6-1.4-3.7-2.4c-4.3-4.3-10.6-6-20.3-5.5c0,0.3,0.2,0.6,0.5,0.8c9,5.5,6,10.9,0.5,14.7
	c-4,2.8-6.8,6.5-10.7,9.2c-1-0.1-1.7-1-1.7-2c0.9-3.2,3.1-5.5,5-7.9c2-1.7,3-4.3,5.4-5.6c1.1-0.7,2-1.5,0.6-2.6c-1.3-1-2,0-2.8,1
	c-1.6,2.3-2.3,5-3.8,7.4c-1.4,2-2.7,4.1-4.1,6.2c-0.7,1-0.9,2.9-2.8,2c-1.6-0.7-1.8-2.3-1.3-3.8c0.9-3,2-6.2,3.9-8.6
	c4.9-6.3,3.8-12.6,1-19.2c0-2.3-0.6-4.6-1.9-6.6c-1.5-2.7-1-5.1,1.6-7c4.4,3.8,8.8,7.5,8.5,14.1c0,1,2.6,1.9-0.2,3.1
	c-0.6,0.3,0.7,1,1.5,1l8.9-0.1c0.8-0.3,1.7-0.4,2.6-0.1c2.3,0.3,4.6,0.8,7,0.1l0.6,0.2c6.5,5.1,12.8,10.4,17.9,17
	C190.7,106.2,192,113.5,194.8,120.4z"/>
<path class="st1" d="M83.2,77.1c-2.2-1.6-6.3,0-7.2-4c3.8-0.3,5.3-2.8,6.4-6c1.5-4.3,5-5.9,9.3-6.4c-1.3-1.6-4.3-1.2-4.1-4
	c3.2-3.4,7.1-1.1,10.6-1.2c2,0.2,4,0.9,5.9,0c0.6-0.3,1.2-0.7,1.7-1c2.9-2.1,5.6-4.4,8.2-6.9c0.5-0.5,1-1,1.5-1.4
	c2.7-1.7,5.7-3,6.9-6.3c0.9-1.3,2.2-1.8,3.6-2.4c1-0.2,2-0.3,2.9-0.1c2.8,0.8,5.7,1.5,7.2,4.5c-1.4,3-4.7,3-7,4.6
	c-0.9,0.3-1.3-0.8-2.1-0.6c-0.2,0-0.2,0.6-0.1,0.9c0.3,1.2,1.1,0.8,1.9,0.5s1.1-0.7,1.6-1c3.7-1.2,7.2-3.3,11.2-1.5
	c1.4,1.7-0.1,2.8-0.8,4.1c-0.7,1-1.8,1.4-2.7,2.6c1.8,0.8,3.5,0.5,5.2,0.5c5.8,0,10.1,2.6,13.4,7.2c1.1,1.5,1.5,3.4,1,5.2
	c-0.9,3.2-2.3,3.6-5,1.6c-5.5-4-12.1-5.8-17.7-9.8c-1.3-1-3.1-0.8-4.1,0.4c-1.5,0.9-1.4,1.9-0.2,3s2.3,2.3,2.1,4.1
	c-0.6,2.9-2.4,4.3-5.3,4.5c-3.5,0.3-7-0.8-10.4,1.2c-2.6,1.6-3.4,3.3-1.8,5.9c0.2,0.4,0.4,0.9,0.5,1.3c0.5,1.4,0.6,2.9,0.4,4.4
	c-0.3,1.5-0.4,3.1-1.9,3.9c-2,1-2.9-0.8-4.1-1.9c-0.8-0.9-1.5-1.9-2-3c-0.5-1-0.8-2.2-1.2-3.2c-2-4.7-2.2-4.8-6.6-1.9
	c-2.5,2.1-3.7,5.3-6.7,7.1c-2.2,1.3-1.2,3.8-0.9,5.9c-0.4,4.1-3.1,6-6.6,5.7c-4-0.3-4.3-3.8-4.2-7.1c0.1-3.5,1.7-6.6,3-9.7
	c0.4-0.3,0.7-0.6,1-1c0.2-0.4,0.3-0.9,0.2-1.4c0-0.2-0.1-0.1,0,0.4c0,0.3,0,0.6-0.1,1C85.2,76.5,84.5,77.5,83.2,77.1z"/>
<path class="st2" d="M163.8,478.8c1.8-2.8,5-2.9,7.6-4.1c2.1-1,4.5-1.1,6.6-2c6.7-2.7,7.2-2.9,11.5,3.2c4.2,5.9,7.2,12.5,12.6,17.5
	c1.9,1.8,0.3,3.3-0.7,4.2c-2.8,2.8-5.9,5.2-9.3,7.3c-8.9,5.2-17.7,10.5-26,16.5c-1.3,0.9-2.2,1.7-2.1,3.6c0.2,4.6-2.8,5.1-6.6,5.2
	c-11.9,0.3-23.7-1.8-35.5-2.2c-5-0.2-9.9,0-14.9,0.1c-1.8,0.2-3.7-0.2-5.3-1c-1.6-1-2.8-2.3-2.4-4.4c0.3-1.8,1.4-2.6,3.2-3
	c7.2-1.7,14.1-4.2,21.2-6.4c9.4-2.8,12.8-9.8,14.4-18.3c0.5-3,1.9-2.7,3.9-2.8c3.9-0.1,7.9,0.4,11.7,0c5.3-0.5,7,2,7.6,6.5
	c5.3-5.7,6.6-11.8,3.7-17.8C164.2,480.5,163.3,480,163.8,478.8z"/>
<path class="st3" d="M175.4,455.2c-6.7,1.9-13.5,3.1-20.4,3.4c-1.4,0.1-3.8-0.1-4.2-0.9c-3-6.7-8.5-3.7-12.8-2.9
	c-9.6,1.7-12.9-0.4-15.2-12.8c-2-10.5-2.9-21.2-6.2-31.5c-3.2-10-4.9-20.5-8.8-30.5c-1.5-3.8-0.5-9.3-0.2-14
	c0.1-2.3,0.4-4.6,0.6-6.9c1.8-0.2,0.6-2,1.4-2.7c2.4-3.9,1.6-8.4,2.3-12.6c0.9-5.8,0.7-11.5,0.6-17.3c0.3-2.5,0.8-5,1.4-7.4
	c1.3-3.1,1.3-6.5,2.3-9.7c0.5-1.5,0.5-3.8,2.7-3.5c2.3,0.3,2.2,2.7,2.1,4.5c-0.5,5.6-1.6,11.2-2.3,16.8c-1.3,10.4-2.3,20.8-3.2,31.2
	c-1,11.8,4.1,22.2,10.2,31.7c6.5,10.2,12.1,20.6,15,32.4c0.9,3.6,2.8,6.7,4.4,10c1.1,2.2,2.3,4.5,1.8,7.1c-0.3,1.3-1.1,2.4-2.1,3.2
	c-3.5,2.1-7.4,2.3-11.4,2.5c-1.7,0.1-4.1-0.3-4,2.4s2,4.2,4.7,3.7c3.6-0.6,7.2-0.5,10.7-1.5c1.1-0.4,1.9-1.3,3.2-1.2
	c0.4,0.1,0.9,0.3,1.3,0.6c1.7,0.7,3.9,0.8,4,3.6c0.1,2,2.1,1.7,3.5,1.8c3.5,0.1,6.9-0.3,10.3-1.1c1.9-0.4,3.9-0.9,5.9-0.2
	C174.1,453.5,175,454.2,175.4,455.2z"/>
<path class="st4" d="M175.4,455.2c-1,0-1.9-0.5-2.5-1.2c-0.3-0.9,0.2-1.2,0.9-1.5c2.3-0.1,4.5-0.4,5.2-3.1c0.5-1.5,1.9-3.3,0.4-4.6
	c-1.8-1.5-3.3,0.5-4.8,1.4c-2.5,1.4-4.2,3.7-6.3,5.5c-1.2,1.1-2.5,2.4-4.3,1.8c-2.6-0.8,0.1-2.5-0.5-3.6s-1.5-1.8-0.7-3.1
	c0.5-0.4,1.2-0.2,1.5-0.3c-5-1.2-9.6,2.4-14.8,1.9c-1.8-1.1-3-2.3-1-4.2c5-1.9,10.3-2.7,15.6-2.4c7.8,0.2,10.1-3,8.4-10.4
	c-3.2-13.7-6.5-27.4-9.6-41.1c-0.3-1.5-0.7-2.9-1.1-4.3c-1.1-3.4-3-5.5-6.9-4.7c-1.8,0.3-3.7,0.2-5.4-0.2c-2.4-1.7-6.3,0.2-8-3.2
	c1.9-4.5,5.5-6.6,10.7-5.4c4.3,1.1,6.1-0.5,7-4.5c2.1-8.9,4.6-17.7,7.7-26.3c1.5-4.1,3.9-7.7,5.5-11.7c0.3-1.2,1.3-2,2.5-2.1
	c0.1,0.8,0.2,1.7,1,2.2c-3.1,9.6-8.1,18.5-10.4,28.4c-1,4.5-3.5,8.7-1.9,13.5c0.1,0.3,0.1,0.8,0,0.9c-5.6,3.7-0.5,5.3,1.4,7.6
	c0.4,0.7,0.7,1.5,0.7,2.3c1.1,10.6,5,20.5,7.1,30.8c1.2,6.1,4.4,11.8,4.2,18.3c0,2.3,1.1,4.4,3,5.7c5.5,4.3,5.6,11.8,0.5,16.6
	C178.9,455.6,177.2,455.1,175.4,455.2z"/>
<path class="st5" d="M99.9,74c5.5-4.5,5.5-4.5,7.9,1.9c0.5,1.4,0.9,2.8,1.3,4.1c0.9,3.3,2.9,6.3,3.2,9.9c-2.9,3.1-4,0.1-4.9-1.8
	c-1.7-3.4-2.4-7.2-3.8-11.7c-2.8,6.2-6.3,11.3-6.6,17.6c-0.2,1.8-0.8,3.6-1.6,5.2c-3.7,8.7,4.7,19.5,14.1,18.3
	c8.6-1,15.3,3.6,22.2,7.7c0.1,0.8,0,1.6-0.4,2.3c-2.9,3.7-6.8,2.8-10.7,2.5c-2.3-1.9-2.3-1.9-4.7,0.3c-2.3,1.7-2.3,4.3-2.5,6.7
	c-0.2,4.8-1.2,9.5-1.2,14.3c0,2.1-0.4,4.3-2.4,5.7l-1.7-1c0.2-8.4,1-16.8,2.2-25.2c0.2-1.5,1.1-2.8,2.5-3.5c1.1-0.5,2.3-1.2,1.9-2.5
	c-0.3-1.5-1.5-2.7-3-2.9c-1.6-0.2-3.6-1.1-4.8-0.5c-4.9,2.2-7.4-0.9-10-4c-2.1-2.4-4-4.9-5.7-7.5c-2.4-3.8-4.9-7.8-0.8-12.1
	c0.7-0.8,0.9-1.9,0.3-2.8c-0.8-1.2-1.7,0-2.6,0.2c-4.5,0.6-7.1-1.7-7.3-6.4c-0.2-4.1,1.8-7.7,2.4-11.6c0.8-0.8,2-1.2,3.1-1L86.2,76
	c-1.3,3.4-2.9,6.8-3.1,10.4c-0.2,2.6-0.2,6.2,3.1,6.4c3.1,0.2,6.1-1.6,5.8-5.8C92.8,81.6,98.2,79,99.9,74z"/>
<path class="st6" d="M128.9,38.2l-2.5,0c-1,0.3-2.2,0.8-2.3-1c4.3-2.4,8.9-1.2,13.4-0.9c2.4,0.1,4.7,1.6,7.3,1
	c1.2-0.3,3,0.5,2.9,1.3c-0.8,4.6,2,2.9,4.1,2.5c5-0.7,3.7,3.2,4.1,5.8c-0.9,1.9-5.3,2.9-1.8,6.1c4.6,3.3,5.6,7.8,4.2,13.1
	c-0.8,3.1-2.3,3.5-5,2.1c-3.5-1.8-6.2-4.9-10.2-6c-2.4-0.7-5-1.1-7.2-2.4c-1.5-1.7-3.9-2.1-5.7-3.5c0.7-3.5,3.1-2.2,4.7-1.4
	c4.6,2.2,9,4.6,13.3,7.4c1.3,0.9,3.2-0.5,4.1,1.7c0.5,1.3,1.8,4,3.7,1.8c1.7-2,1.5-4.9-0.4-6.7c0,0,0,0-0.1-0.1
	c-4.5-4.4-9.7-7-16.3-5.9c-1.2,0.2-3.8,1.1-4.1-1.3c-0.2-1.8,2.2-1.5,3.3-2.4c0.5-0.4,1-0.7,1.6-1c1.4-1.6,3-0.8,4.5-0.5
	c2.2,0.7,4.6-0.2,5.7-2.2c-2.9-0.8-5.8,1.9-8.3-0.4c-4.2-1-7.8,1.1-11.7,2.1c-1.2,0.3-1.5-0.2-1.3-1.3c1.8-2.2,4.6-2.7,7-3.9
	c0-0.6,1.5-1.3,0.6-1.6C134,39.6,131.7,38.1,128.9,38.2z"/>
<path class="st7" d="M88,57.2c1.8,2,5.4,0.8,7,4.5c-7-0.6-11,3.4-13.8,9.3c0.3,1.1,2.9-1,2.7,1s-2.2,1.8-3.6,1.8
	c-1.5-0.1-2.9-0.3-4.3-0.7c-1.6-9,1.2-12.4,10.7-13c-0.2-2.6-4.4-1.2-3.9-3.4c0.9-3.1,2.2-6.2,3.9-9c0.9-1.6,2.3-0.3,3.5,0.2
	c4.3,2,8.6,4.1,12.9,6.1c0.6,0.7,2.6,0,2,1.9c-1.8,1.7-4.5,1.8-6.3,0.3c-1.9-1-3.4-2.6-5.5-3.3C89.3,51.6,87.4,53.2,88,57.2z"/>
<path class="st8" d="M194.8,120.4c-4.7-6.3-6.4-13.5-6-21.3C193.4,104.3,196.6,115.6,194.8,120.4z"/>
<path class="st9" d="M105,56l-2-1.9c0.6-2.3,2-4.3,3.9-5.7c5.3-4.3,10.8-8.3,17.1-11.2l2.3,1l-3.3,1.9c-1.6,3-5.7,3.6-7.1,6.8
	l-1.2,1c-3.7,1.5-7,3.4-8.6,7.3L105,56z"/>
<path class="st10" d="M142,63.9c-1.7,2.5-1.5,5.8,0.5,8.1c1,1.4,1.9,3.2,0.9,5.1c-4.2,0.7-4.7-3.1-6.3-5.5c-0.5-2.4-0.6-4.8-0.4-7.2
	c0.1-1.3,0.1-2.8,1.6-3.2s2.2,1,3,2L142,63.9z"/>
<path class="st8" d="M141.3,63.1l-3-1.5c-1,3.6-0.2,7.1-0.2,10.5c0.3,1.2,0.4,2.2-1.4,1.9c-1.7-3.9-1.3-8.3-2.6-12.3
	c-0.3-1.1-0.1-2.7,1.8-2.9c2.6,0.5,5,1.5,7,3.1C142.4,62.3,141.6,62.2,141.3,63.1z"/>
<path class="st8" d="M201.1,306c2.9-0.5,3.5-2.6,3.4-5c-0.1-2.7,1.1-3.5,3.5-2.8C208.3,306,208.3,306,201.1,306z"/>
<path class="st0" d="M110.2,356.6l-0.5,3.3l-1.5-1c-0.6-4.1,0.5-8,0.8-12c3.8,1.6,1.4,4.8,1.9,7.3
	C110.9,355.1,110.6,355.9,110.2,356.6z"/>
<path class="st10" d="M163.2,82.8c-1.1,0.4-1.7-0.6-2.5-1c0.7-3.8,3.4-2.3,5.7-2.1s4.9-0.2,6.9,1.7c-0.5,1.2-1.6,0.4-2.4,0.6
	l0.1,0.1C168.4,82.2,165.7,81.5,163.2,82.8z"/>
<path class="st1" d="M154.1,52.9l-3.7-2.4c1.9-1.4,2.9-3.6,5.5-3.7C156.7,49.2,153.5,50.5,154.1,52.9z"/>
<path class="st1" d="M163.8,478.8l1.2,2.1c-1.5,0.5,0.8,2.3-1.3,2.8c-0.8-1.6-2.5-2.9-1.7-5.1C162.6,478.6,163.2,478.7,163.8,478.8z
	"/>
<path class="st3" d="M110.2,355.3c-0.8-2.7,0.8-5.8-1.1-8.3c-0.2-0.8,0-1.6,0.6-2.1l1.1,0.1C112.5,348.5,112.6,352,110.2,355.3z"/>
<path class="st11" d="M174.9,327.8c-6.9,11.8-10.4,24.9-13.9,38c-0.3,1.3-0.6,2.6-0.9,3.9c-0.7,3.7-2.4,5.7-6.6,4.4
	c-4.5-1.4-8.7-1-11.1,3.9c1.2,4.2,4.6,0.9,6.7,2c2,0,4.2,0.5,5.9-0.1c4.8-1.7,6.7,1,7.9,4.8c1.3,4.3,2.2,8.7,3.2,13
	c2.8,11.9,5.7,23.8,8.4,35.7c1.4,6.2-2.5,10.5-9.1,9.9c-5.5-0.4-10.9,0.1-16.2,1.5c-2.6-0.8-2.7-3-3-5.2c-0.9-5.7-5-10.2-6.3-15.6
	c-3-12.6-8.8-23.9-16-34.6c-10-14.9-10.9-31.1-8.1-48.2c1.6-9.8,2.1-19.7,3.8-29.5c0.3-1.8,0-3.8,0-6.9c-3.8,5.1-1.5,10.7-4.7,14.5
	c-2.1-1.2-2.1,2.1-3.8,1.7c-1.7-8.5-2.3-17.1-1.7-25.7c2.9-0.5,2.5,4.1,5.3,2.7c1.6-0.4,2-1.4,1.8-2.9c-0.3-3.1,0.8-6.1,1.1-9.2
	c0.1-1.3,0-3.2,2.3-2.9c6.3,2.2,13,2.4,19.6,2.9c3.6,0.3,4.6,3.3,6.9,4.9c-2.5,1.9-0.3,3.1,0.4,5c4.3,11.5,8.8,14,20.6,11.1
	c5.2-1.3,10.4-3.6,16.2-1.1C181.1,313.1,175.9,319.6,174.9,327.8z"/>
<path class="st11" d="M186,268c3.7-1.6,0.6-2.5-0.5-3.1c-3.1-1.6-6.7-2.5-8.3-6.2c-0.4-0.9-1.3-2.2-0.8-2.7c6-5.8-2.5-5.3-3.4-8
	c-2.5-2.9-3.3-6.3-4.1-9.9c-1.9-9.8-3.1-19.7-3.8-29.6c-0.5-2.1-1.2-4.2-2.1-6.3c-0.7-1.7-1.6-3.2-2.3-4.9
	c-2.7-14.2-7.8-28.1-6.2-43c0.6-5.8,1.7-11.5,5.3-16.3c1.1-6.2,5.2-10.6,9.2-15.1c0.7-0.5,1.5-0.7,2.3-0.6c4.5,0.2,8.9,0.5,13.4,0.8
	c3.1,0.6,5.9,2.3,7.9,4.7c1.1,1.3,2.5,2.9,0.5,4.6c2.6,5.5,1.9,12,5.7,17.2c2.3,3.1,2.9,7.3,2.7,11.4c-1.2,4.7,1,8.7,2.5,12.9
	c2.7,7.7,3,15.9,4.7,23.8c1.5,6.7,3,13.4,2.5,20.3c-0.5,7.3-0.7,14.6-2.2,21.7c-0.9,3.9-1.3,7.8-1.3,11.8c0.3,7.4-1.5,13.4-9.3,15.9
	c-1,0.3-2.1,0.4-1.8,1.8s1.6,0.8,2.5,0.9c4.4,0.3,7,3.6,6.4,8c-0.2,1.2-0.8,1.9-1.8,2c-5.3,0.4-10.6,2.3-15.8-0.3
	c-1-2.8-3-5.2-3.4-8.2C184.5,270.3,183.4,268.5,186,268z"/>
<path class="st11" d="M203,294.1c-7.4,0.3-14.9-0.3-22.1-1.8c-7.6-1.6-15.5-1.9-23.2-0.9c-7.6,1.1-11.1-2.1-10.9-10
	c0.1-4.5,0.2-9,0.3-13.4c-0.2-9-0.9-18,0-27c0.5-5.1-1.3-10.2,0.5-15.1c-0.2-1.4-0.6-2.8-0.6-3.2c0.1,1.1,0.3,2.1,0.6,3.1
	c0,2-0.5,3.1-2.5,1.4c-1.5-1.4-2.5-3.2-3-5.1c-1.3-4.5-1.9-9.1-1.7-13.8c0.2-2.3-0.1-4.6-0.8-6.8c-3.5-10.4-5.5-21.3-5.9-32.2
	c-0.4-7-0.1-13.9,0.8-20.9c0.1-1,0.8-2,0.5-2.9c-1.9-7,2.5-10.5,7.7-13.4c3.8-2.1,7.9-3.6,11.2-6.5c1-0.7,2.2-0.9,3.3-0.6
	c1.9-0.4,3.5,1.6,5.5-0.3c-0.2,2-1.9,2.5-1.6,3.9c-4.3,8.1-4.5,17.2-7,25.8c-1.7,13.6-0.3,26.7,5.1,39.4c2.6,10.2,6.6,20.1,5.4,31
	c-0.2,2.1-0.1,4.3-1.3,6.2c1.9,7,4.6,13.7,8.1,20.1c3.1,5.9,5.9,12.1,8.3,18.3c1.7,4.3,3.4,8.7,6.4,12.3c3.7,4.4,8.2,1.9,12.5,1.5
	c0.8,0,1.7,0,2.5,0c1.3,1.8,0,4,1,5.8C201.9,290.8,203.5,292.2,203,294.1z"/>
<path class="st11" d="M137,74.1c0.4-0.6,0.8-1.3,1.2-1.9c2.1,1.2,2.2,4.6,5.2,4.8c3.2,6.6,4.5,12.9-0.7,19.4
	c-2.1,2.6-3.2,6.1-4.7,9.2c-0.5,1-0.2,2.2,0.8,2.7c0.1,0.1,0.2,0.1,0.3,0.1c2-2.8,3.9-5.5,5.9-8.3c1-0.8,1.7-0.6,1.8,0.8L142,108
	c-2.3,6.4-6.1,12.2-11,17c-4.6-0.6-8.6-3-12.6-5c-2.2-1.2-4.7-1.7-7.2-1.5c-8.4,0.8-16.2-4.4-18.8-12.4c-0.3-0.7-0.4-1.6-0.2-2.4
	c4.1-9.7,4.7-20.7,11.6-29.6c2.6,4.4,2.7,9.5,4.7,13.9c0.8,1.7,1.1,3.2,3.4,1.9c0.9-1,1.9-2.1,2.9-3.1c2.6-3.2,4-7.3,3.8-11.5
	c-0.2-6.3,3.1-8.3,9-5.3C130.7,71.7,133.2,74.5,137,74.1z"/>
<path class="st1" d="M120.2,129.3c3.6-1,8,1.9,10.8-2.5c2,2.4-0.5,5.4,1,7.9c2.3,10,1.6,20.1,1.1,30.2c-0.5,10.5,1.6,20.9,4.4,30.8
	c1.7,6.2,2.6,12.6,2.8,19c0,3.8,0.9,7.6,2.7,11c3.2,5.6,4.6,12.1,3.9,18.6c-0.3,2.5-0.3,5,0,7.5c0.5,3.7-1,5.9-4.2,7.4
	c0.7,0.9,2.9,0.4,2.2,2.5c-0.6,1.8-2.2,0.6-2.8,0.4c-6.2-2.3-13.3-0.2-19.2-4c-0.5-4.6,1.1-9,1.6-13.4c1.2-9.6,1.2-19.5,4.3-28.8
	c-0.8-14.1-0.6-28.2-3.3-42.2c0-5.6-0.8-11.2-1.2-16.8c-0.3-3.8-2.7-7.7-5.1-11c-2.1-4.7-2.2-9.5-1.3-14.5
	C118.5,130.4,119.3,129.7,120.2,129.3z"/>
<path class="st11" d="M109.9,157c1.4-6.1,1.4-12.4,1.9-18.7c0.2-3.4-0.5-7.5,4-9.1c0.7,0.5,1.1,1.3,1.1,2.1
	c-0.2,7.9,2,15.4,3.7,22.9c2.2,9.9,0.5,19.4-1.2,29c-0.8,4.1-1.1,8.2-1,12.3c-0.1,7.6,0.1,15.2-0.5,22.9c-0.5,6,0.3,12,2.2,17.7
	c0.9,2.1,1.4,4.5,1.3,6.8c-0.1,1.8,0.1,3.7-1.4,5.2c-0.8,11.8-5.8,22.8-7.1,34.5c-0.3,3.2-0.4,6.4-0.6,10.8
	c-3.8-8-6.6-15.1-5.9-22.7c1.6-17.8,2.6-35.6,3-53.5c0.3-10.8-0.4-21.5-0.4-32.3C109.1,175.6,109.6,166.3,109.9,157z"/>
<path class="st11" d="M143.2,110.2c2.4-3.1,3.5-7.5,8.3-8.3c1-0.2,1.7-1.5,2.5-2.3c5.7-5.9,5-9.2-2.7-12.4c-0.9-0.4-2.3-0.3-1.9-1.6
	c0.2-0.9,1.3-1.3,2.5-1.3c8.4,0.1,16.7,0.2,22.9,7.3c0.8,0.9,1.7,2.7,3.1,1.4c1.8-1.6,2.2,0.1,3,0.9c3.7,3.7,5.9,8.5,6.5,13.7
	c0.3,3.6,1.3,7.1,3,10.3c-6.3-0.3-11.2-6.3-17.2-4.1c-5.5,1.9-10.7,4.7-15.4,8.2c-0.6,1-1.7,1.7-2.9,1.7c-4.3-0.5-6.2,3-8.8,5.3
	c-3.1,2.7-7.3,3.5-10.3,6.5c-1.8,1.8-3.3,0-3.7-2.1c-0.2-1.5,0.4-2.9,0.7-4.4c1.5-5.9,2.4-12.1,8.3-15.7
	C142.4,112.8,141.8,110.9,143.2,110.2z"/>
<path class="st12" d="M154.9,123l3-1c2.2,1.8-0.8,2-0.9,3.1c-5.9,3.5-11.9,6.8-17.5,10.6c-2.8,1.9-4.5,4.2-3.3,9
	c1,3.8-1.1,8.8-1.4,13.4c-1,14.5,1.5,28.4,5.8,42c1.6,4.9,0.7,9.9,1.2,14.8c0.3,4.9,2.1,9.5,5.2,13.3V225c0.2-0.3,0.6-0.3,0.8-0.1
	c0.1,0,0.1,0.1,0.2,0.2c0.2,9.6,0.5,19.2,0.4,28.7c0,4.7-0.9,9.5-1.3,14.2c-1.9,1.7-0.7,4-1.1,5.9c-0.2,1.2,0.8,3.4-2,3
	c-2-4.1-2.6-8.1,0.9-11.8c1.3-2.6,3.1-5.5-2-6c-0.6-0.1-1.4,0.2-1.6-0.7c-0.2-0.6,0.1-1.3,0.7-1.5c0.2-0.1,0.4-0.1,0.7,0
	c3.5,0.6,3.1-1.7,3.2-3.9c0.1-6.6,0.3-13.1-0.9-19.6c-0.1-0.8-0.3-1.6-0.7-2.3c-3.8-5.7-5.6-12.5-5.1-19.4c0.5-6.5-2-12.3-3.5-18.3
	c-3.6-14-4.6-28.5-3.1-42.9c0.6-5.6-2-10.7-1.7-16.2c0-2.3-1-5.2,3-5.2c-0.1,0.8-0.2,1.6-0.3,2.4c-0.3,1.5-1.5,3.6,0.6,4.3
	c1.4,0.5,2.2-1.4,2.6-2.8c0.5-1.9,2.2-1.7,3.6-2.1c2.1-0.5,4-1.5,5.6-2.9C149.2,126.8,151.4,123.6,154.9,123z"/>
<path class="st1" d="M104.7,287.4c-3-1.7-6-3.4-8.9-5.1c-3.5-2.1-3.2-6-2.6-8.9c1.7-8.3,2.9-16.7,5.8-24.8c1.4-4.4,3.7-8.5,6.7-12
	c1.7,16.8-4.6,33.6,0.7,50.4L104.7,287.4z"/>
<path class="st10" d="M160,294.1c4.4-1.2,8.9-0.5,13.3-0.1c9.5,0.9,18.8,2.5,28.3,3.8c0,0.4-0.1,0.8-0.2,1.2
	c-4.3,7.3-11.3,4.1-16.8,3.5c-6.3-0.8-12,0.2-18,1.6c-1.8,0.4-3.6,0.7-5.3,1c-4.7,0.7-7.8-0.8-8.3-6c-0.4-4.6,3.2-2.9,5.3-3.3
	C159.5,295.6,161,296.3,160,294.1z"/>
<path class="st1" d="M191.8,124c7.8,3.4,9,10.9,11.9,17.6c6.3,14.5,7.5,29.8,8.1,45.2c0.1,2,0.2,4-1.7,5.6
	c-0.7-11-3.9-21.2-7.2-31.4c-1.6-2.9-2.4-6.2-2.2-9.5c0.5-6.4-1.3-12.8-5-18c-0.4-2.1-1.7-3.7-3.1-5.3
	C191.6,127,190.6,125.7,191.8,124z"/>
<path class="st13" d="M152.9,153.9c0.2-7.1,3.9-13.5,4.5-20.6c0.4-2,1.6-3.7,3.4-4.6c0.4,2.3-0.6,4.1-1.9,5.9c-1.1,1.5-1.7,3,1,3.5
	c-1.4,5.3-3,10.5-4,15.9c-1.3,6.8-0.2,13.5,1.2,20.2c1.7,7.9,3.3,15.8,5,23.6c0.4,1.7-0.4,3.9,1.8,5c2.5,1.5,1.7,4,1.8,6.3
	c0.3,7-0.4,14-0.8,21l-1.8,1c-0.3-5.1-0.8-10.2-0.3-15.4c0.7-7-3.8-12.9-4.6-19.6c-0.1-0.7-0.2-1.3-0.2-2c-0.5-1.8-0.9-3.7-1-5.7
	c-0.3-3-1.5-5.9-2.2-8.8C153.1,171.1,151.8,162.6,152.9,153.9z"/>
<path class="st8" d="M144.8,265.1c-0.8,3.9-1.1,7.9-0.8,11.8c-5.6,0.9-10.9-1.9-16.5-1.3c-2.4,0.2-1.3-3.2-1.8-5
	c-2.2-7.5-1.7-7.8,5.6-7.9C136,262.7,140.1,265.6,144.8,265.1z"/>
<path class="st10" d="M107.2,290.4c-0.8,1.6-1.3,3.3-1.5,5.1c-1,5.6-3.7,7-9.1,5.2c-1.6-0.5-2.9-2.2-5-1.7c-1.3,0.3-1.7-0.8-1.5-1.9
	c0.4-2.4,1.1-4.9,1.9-7.2c1.7-3.9,4.1-5.7,7.9-2C101.9,289.9,104.5,290.1,107.2,290.4z"/>
<path class="st8" d="M120,248l0.1-5.2c1,0.3,2.6,1.9,2.4-1c1.8-8.3,1.1-17,4.2-25.1c0.9-1.2,2.1-1.2,3.3-0.7
	c0.8,0.5,1.3,1.3,0.7,2.1c-3.8,5.5-3,11.9-3.8,18c-0.9,7.4-0.5,15-4,21.9c-2.3,2-0.1,4.8-1.1,7.1c-0.5,0.5-1.3,0.6-1.9,0.1
	c0,0,0,0-0.1-0.1c-0.4-4.2,1.6-8.1,2-12.2C122.1,250.8,123,248.6,120,248z"/>
<path class="st14" d="M197,133c7.2,8.2,4.3,18.6,5.9,28l-1.3,0.1c-1.9-1.8-1.2-4.4-1.9-6.5c-0.8-2.4-1.4-4.8-2.9-6.8
	s-3.8-3.6-2.4-7.4c0.8-2.2-1.3-5.6-3.7-7.7c-0.4-0.4-1.6-1.1-0.2-1.7c0.3-0.1,1,0.6,1.5,1C193.4,133.4,195.6,131.6,197,133z"/>
<path class="st15" d="M165,230c-2.3-7.1-0.4-14,0.8-21c1.2,2.1,1.8,4.5,1.7,7c-0.7,9.4,2.9,18.2,3.4,27.4c0.1,1.8,2.5,2.6,2.2,4.7
	c-3.4-2-4.6-5.2-5.1-8.9c0.9-2.6-0.3-4.4-2.1-6C164.8,232.3,165,231.1,165,230z"/>
<path class="st16" d="M134,129.1c-2.8,0.7-2.2,3.4-3,5.2c-1.6-2.5,0.5-5,0.2-7.5V125c3.3-5.9,6.6-11.8,11-17
	c-0.1,0.9,0.4,1.8,1.2,2.1c0.5,2.7-0.7,4-3,5.6c-3.3,2.4-5.3,6.2-5.4,10.3C135,127.3,135,128.3,134,129.1z"/>
<path class="st8" d="M120,279.3c7-0.8,13.9-1.4,20.8,0.6c1,0.3,2.5,0.6,2.4,2.1c-0.2,1.6-1.8,1.3-2.8,1.1
	C133.5,282.2,126.3,282.9,120,279.3z"/>
<path class="st8" d="M146.9,100.9l-1.8-0.8c1.1-2.9,1.8-5.9,3.9-8.3c0.6-0.7,0-2.7,1.8-1.9s3.9,1.7,4.1,3.9c0.1,1.2-0.4,1.9-2.6,2
	C150.6,95.9,148.8,99.1,146.9,100.9z"/>
<path class="st8" d="M113.8,326c0.4,6.3,0.8,12.7-1,18.9c-2.8-2.2-0.5-5.4-1.6-8c1-4.3-0.7-8.7,0.7-12.9
	C113.9,323.4,113.2,325.3,113.8,326z"/>
<path class="st8" d="M120.1,282.9c-1.6,4.2-2.2,8.7-2,13.2c0.1,2.7-0.9,3.2-3.1,1.9c1.3-2.3-0.6-4.7,0.1-7c1.5-2.8,0.1-6.2,2-8.9
	C118.2,281.9,119.3,282.2,120.1,282.9z"/>
<path class="st8" d="M183.4,119.3c-4.5,1-9,1.2-13.7-0.7C174.8,112.6,179,118.8,183.4,119.3z"/>
<path class="st8" d="M120,265h2c0.1,2.9,0.1,5.9,0.3,8.8c0,0.8,0.1,1.3-0.7,1.5s-1.6,0-1.6-0.7c-0.2-4.2-1.7-0.9-3.5,0.8
	C118,271,117.8,267.7,120,265z"/>
<path class="st17" d="M197,133c-1.9,0.7-3.7,0.8-4.9-1.2c0.4-0.3,2.2,1.5,1.3-0.9c-1.5-4.1-5.3-5.6-8.6-7.8c2.3,0.4,4.9-1.4,7,0.9
	C192.2,127.8,196.3,129.4,197,133z"/>
<path class="st8" d="M186,268c-1.1,3.4,0.4,6.4,1.7,9.3c0.4,0.9,0.9,1.7,0.4,2.7c-2.8-2-3.6-5.4-5.5-8c-0.8-1.4-0.7-3.2,0.4-4.5
	C183.7,266.5,185.1,267,186,268z"/>
<path class="st10" d="M160,294.1c0.6,1.5,2.5,0.5,3.4,1.7c-2,1.9-4.5,0.9-6.7,1.2c-1.6,0.2-3.4-0.3-3.8,2.1c-2.2-2.6-1.1-4,1.8-4.6
	C156.4,294.2,158.2,294.1,160,294.1z"/>
<path class="st8" d="M111.3,336.9c2.1,2.3-0.8,5.7,1.6,8c-0.4,3.3,0.5,6.6-0.8,9.9c-0.4,1-0.8,1.7-1.9,1.9c0-0.4,0-0.8,0-1.3
	c1.3-3.4,0.7-6.9,0.6-10.4C111,342.3,111.1,339.6,111.3,336.9z"/>
<path class="st10" d="M113.8,326l-1.8-2l-0.7-3c0.4-0.9,0.7-1.8,1.2-2.6s0.6-2.2,1.8-1.9c1.6,0.3,0.7,1.9,0.9,2.9
	C115.6,321.7,113.7,323.6,113.8,326z"/>
<path class="st8" d="M144.6,70.1c3.5,2.7,4.7,6,2.9,10.5C145.3,77.3,146.2,73.4,144.6,70.1z"/>
<path class="st8" d="M203,294.1c-1.7-1-2.5-3-2.2-4.9c1.1-0.8-2-4.1,1.9-3.1C202.9,288.8,205.1,291.4,203,294.1z"/>
<path class="st1" d="M117,282.1c-0.1,3.1,0.5,6.3-2,8.9c-0.5-3.1-0.4-6.2,0.4-9.3C116.1,278.9,116.3,282.3,117,282.1z"/>
<path class="st1" d="M163.2,82.8c2.3-3.7,5.1-1.4,7.8-0.7C168.7,85.2,165.8,82.3,163.2,82.8z"/>
<path class="st1" d="M205.9,288.1c0.1-2.2-4-6.1,2.2-6.1l-0.1-0.1c0,1.4-0.1,2.7-0.1,4.1C207.1,286.5,207.9,288.6,205.9,288.1z"/>
<path class="st17" d="M205.9,288.1l2-2.1v8.7C205.1,292.8,206.2,290.3,205.9,288.1z"/>
<path class="st11" d="M165.9,233c0.2-0.6,1-1.4,1.3-0.9c1.2,2.2,3.2,4.4,0.8,7L165.9,233z"/>
<path class="st8" d="M202.8,286.1c-2.4,0,0,2.8-1.9,3.1c-2.1-2,0.4-4,0-6C203.1,283,202.1,285.2,202.8,286.1z"/>
<path class="st1" d="M94,262.1c-0.6,2.8-1,4.6-1.4,6.4C91.6,266.5,91.7,264.6,94,262.1z"/>
<path class="st18" d="M137,74.1c-1.8,1.9-3.4,2.7-5.4-0.1c-1-1.4-2.9-2-4.5-2.9c-2.2-1.3-4.9-1.4-7.2-0.3c-2.1,1,0,3.1-0.1,4.8
	c-0.2,4.7-0.9,9.2-4.8,12.5c-4.2,0.3-4.9-0.7-4-6c2.1,0,0.4,3,2.8,2.9c2.3-2.6,1.8-5.9,1.1-9.2c0.6-0.1,1.5-0.3,1.1-1
	c-0.3-0.5-0.3,0.3-0.4,0.5c-0.1,0.3-0.3,0.5-0.6,0.7c-2.5-2.8-3.3-4.7,1-7.3c3.7-2.2,7-1.6,10.6-1.3c1.8,0.5,3.9,0,5.6,1.7
	c-0.8-2,0.8-4-0.2-6c-0.1-1.6-1.5-1.7-2.5-2.4c-1.8-1.5-2.6-3.4,0.6-4.5c2.5-0.3,4.8-0.1,5.8,2.8c-2.1,1.2-1.1,3.8-0.7,4.3
	C137.9,66.6,136.5,70.5,137,74.1z"/>
<path class="st1" d="M88,57.2c-0.1-1.5-3.4-0.1-2.4-2.5c1.1-2.6,3.5-4.1,6.1-3.5c2.9,0.6,6,1.7,7,5.1c-2,2-3.7-1.1-5.8-0.4
	C91.3,56.5,89.3,55.4,88,57.2z"/>
<path class="st10" d="M142,45.2c3.8,0.6,7.1-2.2,11-1.5c-2.7,5.8-4.6,6.6-10.5,4.7c-0.8-0.1-1.6-0.2-2.4-0.1L142,45.2z"/>
<path class="st8" d="M99.9,74c-2,4.7-4.2,9.4-8,13c-1.6-1.5-1.7-4-0.3-4.7C95.2,80.3,96.7,76.4,99.9,74z"/>
<path class="st8" d="M106.2,55.3c-0.5-4.3,3.1-7.3,8.6-7.3C112.5,51.1,109.3,53.2,106.2,55.3z"/>
<path class="st1" d="M132,63c1.6,2.6,1.2,5.6,2.3,8.9l-7.7-4.6C129.3,67,131.7,66.2,132,63z"/>
<path class="st8" d="M116,46.9c-0.2-5,4.5-4.8,7.1-6.8C123.3,45.1,118.9,45.2,116,46.9z"/>
<path class="st10" d="M128.9,38.2c3-1.3,5.9,1.5,8.9,0.2c0.3-0.1,1.7,1.1,1.6,1.5c-0.4,1.7-2.3,1.4-3.5,2.1
	C133.8,40.4,131.7,38.5,128.9,38.2z"/>
<path class="st1" d="M128.9,46l1.3,1.3c-1.4,0.5-2.3,3.8-4.1,1.7c-2-2.4,0-4.3,2.1-5.9C129.2,44.1,127,45.4,128.9,46z"/>
<path class="st10" d="M111,82.1c-0.1,3-0.4,6,4,6c-0.4,1.6-1.6,2-3.1,1.9c-1.6-3.1-3.4-6.2-2.8-10L111,82.1z"/>
<path class="st19" d="M86.3,76.1c-1.8-1.5-1.2-3.1,0-4.6c0.1-0.2,1.1,0,1.2,0.1c0.5,1.7,0.4,3.3-1.3,4.4L86.3,76.1z"/>
<path class="st11" d="M182,473.9c4.9,1.5,5.8,6.5,8.5,9.9c3.1,3.9,2.7,7.5-0.6,11c-2.3,4.6-6.5,7.5-10.5,10.1
	c-7.3,4.7-14.9,9-21.9,14.4c-1.5,1.1-3.2,2.5-5.4,1.5c0.8-4.9,5.4-7.5,7.2-12.1c2-5.6,4.8-10.8,8.3-15.5c3.2-4.1,2.7-7.7,0.9-11.6
	c-1.3-2.9,0.8-3.6,2.5-4.3c2.6-1.1,5.3-1.7,8-2.5c3.3-1,3,2.2,4.1,3.5C182.8,476.9,181.3,475.7,182,473.9z"/>
<path class="st1" d="M116.5,518.7c0.4-2.8,3-2.2,4.6-2.7c4.6-1.4,9.1-3.3,13.2-5.7c3.7-2.2,4.7-6.8,5.4-10.7s2-4.3,5.5-3.7
	c2.8,0.6,5.7,0.4,8.4-0.5c2.9-1.2,4.1,0.6,4.4,2.9c0.3,2.3,0.2,4.6-0.2,6.9c-1.4,6.6-7.3,10.3-10.6,15.6
	C136.8,521,126.6,520.9,116.5,518.7z"/>
<path class="st10" d="M193.9,495.8c0.7-0.4,1.5-0.7,2.2-1.2c1-0.7,2.2-1.2,3,0c0.9,1.4-0.7,2-1.5,2.6c-7.1,6.2-15.1,11.1-23.4,15.5
	c-3.7,1.8-7.1,4.2-10.2,7.1c-4.2,4.2-10.2,6.8-15,6.4c0.1-2.1,2.5-1.9,3.2-3.2c7.8-5,15-10.8,23.1-15.3c3.9-2.2,7.5-4.9,10.7-8
	C188.3,497.6,190.8,496,193.9,495.8z"/>
<path class="st1" d="M147,521.8c-2.8,4.9-2.8,4.7-7.1,4.3c-11-1-22-1.8-33-0.9c-0.8,0.1-1.6,0.1-2.4,0.1c-1.2-0.2-3-0.4-2.7-2.2
	c0.3-1.6,2.6-2.7,3.4-1.9c3.1,2.9,4.8-0.2,7.1-1.1c11-1.1,22,1.5,33,0.8C145.9,520.9,146.5,521.4,147,521.8z"/>
<path class="st20" d="M193.9,495.8c-9.5,6.7-18.7,13.9-28.6,19.9c-4.2,2.6-7.3,7.4-13,7.3c-1.3-0.6-0.5-1.5-0.3-2.3
	c12.8-8.4,26.3-15.6,37.7-25.9C190.9,496.2,192.8,494.3,193.9,495.8z"/>
<path class="st21" d="M147,521.8c-11.7,1.1-23.2-0.4-34.7-1.7c0.8-2.4,2.9-0.6,4.2-1.4c6.2-0.8,12.4,0.2,18.5,0.9
	c4.1,0.5,8.4-1.7,12.2,1.1L147,521.8z"/>
<path class="st8" d="M182,473.9c1.1,2.1,2.8,4,1.7,6.7c-1.9-1.8-1.6-5.2-4.7-5.8C179.7,473.7,180.9,474,182,473.9z"/>
<path class="st1" d="M136,421c1.6,4,3.1,8,4.8,11.8c3,6.6,3.1,6.6-3.8,8.3c-0.1,0.1-0.3,0.1-0.5,0.2c-11.7,0.4-11.1,1.4-10.8-9.7
	c0.1-3.8-2.7-5.8-3.5-8.9c-4-12.4-5.4-25.5-9.9-37.8c-1.7-4.6-1.5-9.4-1.6-14.2c5.7,8.8,9.5,18.6,13.4,28.2c3.3,2.6,5.2,6.4,6.7,10
	C132.6,412.9,134.8,416.8,136,421z"/>
<path class="st8" d="M174,453l-1,1c-5.8,0.7-11.6,2.4-17.6,2.1c-2.8-0.2-4.7-0.5-4.3-4.1c0.2-1.5-3,0.3-2.9-1.9c4.7-2.5,9.6-4,15-3
	c-0.5,3.4,2.7,1,3.6,2.4c-0.4,1.9-3,1.1-3.6,3.1c3.2,0.8,4.5-2,6.3-3.5c2.5-2.1,4.6-4.6,7.7-6c3.5-1.6,4.7-1,4.3,2.9
	c-0.1,1.4-1,2.7-1.5,4.1C178.3,451.6,176.1,452.1,174,453z"/>
<path class="st10" d="M146,451c-4.1,0.6-8.2,1.4-12.2,1.8c-3.7,0.4-7.6-3.4-6.6-6.7c0.5-1.7,2.8-2.2,4.8-2.3c4.1,0,8.3,0.3,12-1.9
	c1.5-0.4,2.6,0.6,2.4,1.7C145.9,446.1,147.3,448.6,146,451z"/>
<path class="st8" d="M122.2,422.7c6.8,2.8,4.9,8.7,4.9,13.8c0,3.1,0.9,5,4.5,4.6c1.8-0.1,3.6-0.1,5.4,0c-3.2,1.9-6.8,0.6-10.1,0.7
	c-1.9,0.1-2.3-1.7-2.7-3.1C122.7,433.5,121.3,428.2,122.2,422.7z"/>
<path class="st8" d="M136,421l-11.9-22.1c0.8-0.7,1.2-2.5,2.7-0.3C131.6,405.3,134.1,413,136,421z"/>
<path class="st8" d="M163.2,447c-4.8,2-10.2,1-15,3l-0.2-1c0-1.7,0.8-1.7,2-1c5.2-0.7,10.1-4.7,15.7-1.6
	C165.2,447.6,164.2,447.3,163.2,447z"/>
<path class="st8" d="M150,447.9l-2,1.1l-2,2c-1.8-2.8-0.5-6.3-2.1-9.1l2.2-2.2c1.4,1.5,1.2,3.9,3,5.2
	C146.8,446.6,149.9,446.8,150,447.9z"/>
<path class="st8" d="M149,379.9c-1.7,0.3-3.4,0.8-5.2,1c-3.7,0.6-2.7-1.2-1.5-3.1C144.2,379.9,147.4,377.1,149,379.9z"/>
<path class="st10" d="M174,453c1.3-2.3,3.7-2.7,6-3C179.2,453.3,177.1,454.2,174,453z"/>
<path class="st8" d="M147.3,375.4l7.4,0.9l0,1.2c-2.5,0.2-4.9-1.2-7.4-0.2L147.3,375.4z"/>
<path class="st8" d="M125.4,126.6c-3.3,2.4-4.4-2.6-7.2-1.8C121.6,122.9,121.6,122.9,125.4,126.6z"/>
<path class="st10" d="M116,131l-0.2-1.8c0.6-0.3,1.1-0.7,1.6-1.1c0.4-0.5,0.7-1,1-1.6c0.9,0.9,0.3,2.5,1.8,2.7
	c0,0.8-0.4,1.5-1.1,1.8C118.2,131.8,116.8,131.8,116,131z"/>
<path class="st8" d="M77.7,70.2c1.1-3.5,0.7-6.5,3.7-7.9c0.8-0.4,2.6-0.2,2.5,0.7c-0.5,2.6-2.7,4.2-4.3,6.2
	C79.3,69.5,78.8,69.7,77.7,70.2z"/>
<path class="st8" d="M114.7,311.2c-0.2-2.6-0.4-4.6-1.3-6.3c-0.5-0.9-0.8-2,0.3-2.6s2,0.4,2.6,1c2.6,2.1-0.6,0.9-0.8,1.4
	C114.7,306.6,117.3,308.6,114.7,311.2z"/>
<path class="st10" d="M163.9,202.8c-0.3,1.2-0.9,2.6-1.8,0.6c-0.7-1.6-1.6-3.8,0-5.6C163.4,199.1,164.1,200.9,163.9,202.8z"/>
<path class="st8" d="M157.8,187.8c0,2.1,0.1,4.2,0.2,6.2c-6.3-12.8-7.4-26.2-5.1-40.1c-0.8,9,2.3,17.5,3,26.2
	C155.6,183,156.9,185.3,157.8,187.8z"/>
<path class="st8" d="M148,225.1l-1-0.1c-1.7-1.8-0.8-4.2-1.1-6.4C147.5,220.5,148.7,222.4,148,225.1z"/>
<path class="st22" d="M102.6,90.8c-0.1-0.9,0.4-2,1.4-1.8c2.6,0.5,2.6,3.1,3.2,5c0.4,1-0.4,2.4-1.2,2.1
	C103.8,95.3,103.2,93.1,102.6,90.8z"/>
<path class="st23" d="M116,131h3.1c-0.8,4.7,0.1,9.4,1,14c2.3,8.1,7.1,15.7,4.2,24.6c-1.1,6.1-1.2,12.5-3.3,18.5
	c-0.6,1.6-0.5,3.2-0.9,4.8c-0.4,1.4-0.8,3.1-2.9,2c-0.7-6.4,1.1-12.5,2.2-18.6c2.2-12-0.3-23.6-2.6-35.3
	C116.1,137.8,115.3,134.5,116,131z"/>
<path class="st1" d="M130.1,216c-0.7,0.9-1.3,0.2-1.9-0.1c-2.9-3.6-2.7-8.1-3-12.2c-0.8-10.6-1.4-21.3-1.2-32
	c0.3-1.3-0.2-3.1,1.8-3.6c1.6,1.4,0,3.5,1.3,5c2.7,12.4,2.4,25,3.2,37.6C130.3,212.4,130.2,214.2,130.1,216z"/>
<path class="st1" d="M127,173c-1.5-1-0.6-2.9-1.6-4.7l-0.5,2.8c-1.8,0.4-1.1-1.4-1.8-2c1.6-3.9,0.7-8,1.2-12
	c-5.5-1.6-2.7-6.8-4.3-10.1c-0.2-0.5,0-1.3,0.1-1.9c2.4,1.2,2.1,4,3.4,5.7C128.7,157.6,124.7,165.8,127,173z"/>
<path class="st24" d="M117.2,195c3.7-1.3,0.3-5.2,2.7-7c1.7,1.3,1.6,3.2,1.6,5c-0.3,15.9,0.9,31.6,2,47.5c0.1,0.8,0,1.7-0.2,2.5
	c0.5,1.5,1.4,3.7-0.9,3.9c-2.5,0.2-0.7-3-2.2-4c0-5.3-3.3-9.8-3.5-15.1C116.2,216.8,117.2,205.9,117.2,195z"/>
<path class="st8" d="M154.9,123c-3,1.6-4.7,5.6-9,4.9C148.4,125.3,150.3,121.6,154.9,123z"/>
<path class="st8" d="M157.8,187.8c-2.2-2.2-3.6-4.5-1.9-7.7C157,182.6,158.2,185,157.8,187.8z"/>
<path class="st10" d="M123.2,242.9c-2.9-18.1-4-36.5-3.4-54.9c2-6.2,2-12.6,3.3-18.9l1.8,2c1.1,14.9,0.7,30,3.2,44.8
	c-2.9,8-2.4,16.6-4.1,24.8C123.9,241.5,124,242.4,123.2,242.9z"/>
<path class="st1" d="M198.8,145.3c-2.2-2.7-3-5.1-4.1-8C198.3,139.8,198.4,140,198.8,145.3z"/>
<path class="st1" d="M115,75.9c0.4-1.4-0.6-2.4-0.9-4.4c3.4,1.4,3.9,3.7,3.6,6.5c-2,0.4-1.3-2.2-2.8-2.2L115,75.9z"/>
</svg>
