<?xml version="1.0" encoding="utf-8"?>
<!-- Generator: Adobe Illustrator 24.0.1, SVG Export Plug-In . SVG Version: 6.00 Build 0)  -->
<svg version="1.1" id="Layer_1" xmlns="http://www.w3.org/2000/svg" xmlns:xlink="http://www.w3.org/1999/xlink" x="0px" y="0px"
	 viewBox="0 0 281 575" style="enable-background:new 0 0 281 575;" xml:space="preserve">
<style type="text/css">
	.st0{fill:#0D0D0B;}
	.st1{fill:#1F2120;}
	.st2{fill:#171816;}
	.st3{fill:#141513;}
	.st4{fill:#1A1A19;}
	.st5{fill:#181715;}
	.st6{fill:#1D1D1C;}
	.st7{fill:#161514;}
	.st8{fill:#3A3A3A;}
	.st9{fill:#0D0D0A;}
	.st10{fill:#1A1A18;}
	.st11{fill:#202121;}
	.st12{fill:#0F0E0D;}
	.st13{fill:#1B1B19;}
	.st14{fill:#20201E;}
	.st15{fill:#111210;}
	.st16{fill:#11110F;}
	.st17{fill:#1F1E1C;}
	.st18{fill:#F2BBBB;}
	.st19{fill:#E591AB;}
	.st20{fill:#131212;}
	.st21{fill:#22211F;}
	.st22{fill:#FFDCDC;}
	.st23{fill:#FEFEFE;}
	.st24{fill:#1A1B19;}
	.st25{fill:#161414;}
	.st26{fill:#131211;}
	.st27{fill:#0D0D0C;}
	.st28{fill:#11110E;}
</style>
<title>frame5</title>
<path class="st0" d="M189.7,96.3c1.1,5.5,3.8,10.6,7.7,14.6c4.2,4.3,6.4,10.1,6.1,16.1c-0.1,2.5-0.9,3.5-3.1,3.3
	c-3.5-0.3-3.2,2.4-2.6,3.9c3.5,9,4.5,18.6,7.5,27.7c-0.5,1.1-0.7,2.7-2.6,2.1c-3.2-4-3.4-9-4.3-13.6c-1.3-6.5-3.5-12.8-4.9-19.2
	c-0.5-0.2-0.9,0-0.8,0.4c2.7,8.9,1.1,17.8,0.1,26.7c-0.8,7.3-0.5,14.6-1,21.9c-0.5,7-1.6,13.5-5.7,19.3c-1.8,2.4-3,5.2-3.5,8.2
	c-1.2,7.1-5,12.6-10.2,17.3c-7,6.3-12.7,13.5-15.4,22.7c-0.8,2.2-2.3,4.1-4.2,5.4c-4.3,3.2-6.7,7.7-8.5,12.6
	c-2.5,6.6-4.7,7.7-11.7,6.1c-1.1-0.2-2.3-1.1-3.1,0.2c-0.6,1.1,0.1,2.2,0.8,3.2c1.3,1.7,3.2,2.2,5.2,2.5c11.5,1.6,23.1,1.6,34.6,4.1
	c6.3,1.4,13.2-0.4,19.9-0.1c1.2,0,2.3,0.1,3.5,0.3c3.6,1.7,1.1,2.8-0.4,4c-8.5,2.4-17.5,2.8-26.1,1c-10.8-2.1-21.7-3.2-32.6-3.5
	c-3.4,2.1,0.1,4.1,0.2,6.1c1,2.5,2.9,3.2,5.5,3.5c12.7,1.7,25.5,1.9,38.2,0.7c2.7-0.2,5.3,0,7.9,0.7c1.5,0.4,4.1,0.1,3.9,2
	c-0.2,2.2-2.8,1.7-4.4,1.8c-2.3,0.2-4.6-0.2-6.8,0.7c-6.1,2.5-12.6,1.2-18.8,1c-8.2-0.2-16.6-0.2-24.8-1.5c-3.5-0.6-5.3-1.8-5.5-5.6
	c-0.2-3-1.6-5.7-2.3-8.6c-0.2-2.3-3.1-2.9-3.5-5.2c0.6-2.3,0.5-4.6-0.4-6.8c-1.3-2.7-1.8-5.7-1.6-8.6c0.8-6-3.9-5.2-7.4-5.9
	c-1-0.5-2.5-1.1-2.1-2.3c0.8-2.1,3-1.5,4.7-1.8c1.8-0.1,3.4,0.4,2.7-2.9c-1.1-5.3-2.6-10.9,1.3-15.9c2.7,0.2,2.2,2.4,2.4,4
	c0.3,1.9-0.4,3.9,0.5,5.8c3.8,5.7,10.4,5.2,15.8,7.5c3.5,1.5,6.4,0.3,9.3-1.8s3.9-4.3,3.2-7.7c-0.4-1.8-0.6-3.6-0.7-5.4
	c-0.1-1.2,0.2-2.8,1.4-2.9c8.3-1.1,10.5-9.4,16.2-13.5s6.6-10.8,8.4-16.9c2-6.8,7.9-11.8,8.5-19.4c0.4-5.8,1-11.7,0.5-17.4
	c-0.8-10.2-0.1-20.3,0.7-30.4c0.6-7.7-3.5-12.9-8.7-17.6c-1.9-1.7-4.2-1.6-6.6-1c-5.7,1.4-10.8,4.4-15.9,7.2
	c-2.8,1.6-2.7,5.8-5.9,7.1c-2.2-0.5-2.3-2.5-2.8-4.2c0.8-7.6,7.3-9.7,12.7-12.5c3.3-1.6,6.9-2.4,10.5-2.4c2.2,0.3,4.8,1.9,5.8-1.8
	c4.3,0.4,6.7,3.4,8.9,6.5c2.6,3.7,6.6,6.2,11,7.1c3.3,0.7,4.3-0.5,3.5-3.8c-0.2-1.2-0.7-2.2-1.4-3.2c-6.4-7.3-10.8-15.9-15.2-24.5
	c-3.9-7.5-9.1-12.6-18.2-12.1c-2-0.2-4-0.4-5.9-0.4c-3.5,0.2-2.8-1.3-0.8-3c8.5,0,17.2-1.2,23.8,6.1
	C184.6,88.1,187.7,91.9,189.7,96.3z"/>
<path class="st1" d="M165.8,417.4c-2.9,0.7-4.2-1.1-6-3.1c-2.7-3-3.4-7.7-8.9-8.5c-2-0.3-3.5-4.8-4.8-7.5c-1.2-2.6-2-1.7-3,0
	c-1.8,4-1.3,8.3-2.1,12.4c-0.7,3.6-0.1,7.5-2.8,10.6c-2.3-2.2-1.6-5-1.2-7.5c0.5-3.6,0.6-7.3,1.2-10.9c1.3-7.5,0.7-14.6-4.8-20.5
	c-1-1.1-1.7-2.4-2.2-3.9c-0.7-3.8-2.6-7.1-4.2-10.6c-0.8-4.7-1-9.4-1.3-14.2c-0.3-4,0.7-8.2-0.8-12.1c-1.9-3.3-0.6-7.2-1.9-10.6
	c-2.5-11-1.1-22.2-1.3-33.4c0-1.8,0.2-4.1,2.4-4.4c2.6-0.3,3.2,2.1,3.5,4c1.3,8,1.3,16.2,2.7,24.3c2.2,13.2,2.1,26.5,3.2,39.8
	c0.8,9.4,5.3,17.5,10.5,24.9c5.9,8.5,12.9,16.1,20.1,23.5c0.8,0.8,1.5,1.8,2,2.8C166.3,414.1,166.2,415.8,165.8,417.4z"/>
<path class="st2" d="M178,298c3.4-2.2,7.4-0.1,11.7-1.6l-5-0.5c0.5-2.2,2.6-1.7,4-2.2c4.5-1.6,5.7-4.1,4.2-8.8
	c0.5-0.7,2.5-1.6-0.2-1.9c6.6-10.2,7.7-21.6,8-33.3c0.1-5.3,1.7-10.5,2.8-15.6c3.2-14.5,4.8-29,1.8-43.8c-1.6-7.8-1.4-15.8-2.7-23.7
	c-0.2-0.8,0.1-1.7,0.6-2.3l2.1-2.1c2.5,6,4.3,12.1,4.4,18.6c0.1,5.6,2,10.9,2.8,16.3c1,6.7-1.4,12.6-1.5,18.9c0,2.8-0.7,5.5-0.9,8.2
	c-0.2,4.8-0.7,9.4-2.9,13.9c-2.5,5.1-1.2,11-2,16.5s-1.1,11.2-1.5,16.8c-0.1,2.6-0.8,5.2-2.1,7.5c-2.2,3.9-2.6,8.6-1.3,12.8
	c0.6,2.3,0.3,2.9-2.1,3.8c-2.6,0.9-6.2,0.3-7.6,3.8c-0.9,2.6,0.6,5.4-0.9,8.1c-3.5-1.3-2.1-5.5-4.6-7C182.9,298.8,180,300.1,178,298
	z"/>
<path class="st3" d="M209,489.9c-2-3-1.3-6.6-2.3-9.8c-0.2-0.6-0.1-1.3,0.3-1.8c4.6-3.1,8.4-7.5,13.7-9.5c0.8-0.3,2.6-0.3,2.8,0.2
	c2.5,5.4,8.6,5.8,12.5,9.1c3.5,2.9,4.7,7.6,8.8,9.7c-6.6,8-15.2,13.5-21.5,21.3c-4,5-7.7,10.2-12.2,14.8c-2.6,2.7-13.3,5.5-16.5,4
	c-0.3-0.2-0.6-0.3-0.8-0.5c3-1.7-2.7-6.9,3-7.5c2.6-0.2,5.3-0.4,7.7-1.9c5.3-3.5,7.5-9.6,11.5-14.1c2.3-2.8,4.4-5.8,6.3-9
	c2-3.4,4.9-6.3,8.3-8.4c4-2.5,3.9-4.5,0.1-7.1c-2.6-1.8-5.6-2.9-7.5-5.6c-0.4-0.5-1-0.9-1.7-0.9c-3.2-0.5-10,6.8-9.2,10
	s1.3,6.2,0,9.2C208.8,495.2,210,490.9,209,489.9z"/>
<path class="st4" d="M165.8,417.4c0.1-1.1-2.5-2.2,0-3.4c4,1.4,6.1,4.9,8.7,7.7c5.1,5.4,9.1,11.7,14.3,17c2.1,2.1,4.2,3.1,7,1.8
	c4.7-0.4,7.9-2.9,10-7c1.4-2.4,5.8-2,5.9-4.7c0.1-2.4-2.6-4.4-4-6.6c-3.8-6.2-6.1-13-9.1-19.6c0.3-0.7,0.8-1.2,1.7-0.8
	c6.9,7.8,13.5,16,18.7,25c0.9,1.6,1.8,0.8,2.8,1c5.4,1.3,9.3,6,9.5,11.6c0.1,3.6-2.6,4.4-5.2,4.6c-8.9,0.7-17.5,3.5-25.2,8
	c-7.8,4.6-6.5,4-10-3.2c-3.7-7.6-9.6-12.8-14.7-18.9L165.8,417.4z"/>
<path class="st5" d="M101,51c-3.1-0.7-7.3,3-9.1-1.9c-1-2.8,8-9,11.8-8.8c6.6,0.4,13-1.4,19.4-2.3c2.5-0.4,4.9-3.7,6.9-6.1
	c4.8-5.8,12.2-5.1,18.3-7.6c1.4-0.6,3.3,1.6,3.6,3.4c0.6,2.5-0.5,5.1-2.8,6.3c-1.9,1-3.9,1.8-5.5,3.8c3,1.2,5.7,1.4,8.6,0.1
	c3.1-1.4,6.4-1.4,9.7-0.8c1,1.1,2.3,0.7,3.5,1c3.4,1.4,2.7,4.2,2.5,6.9c-0.9,1.2-0.6,4.4-3.6,2.3c-0.4-4.6-2.9-6.1-7.3-5
	c-1.6,0.3-3.3,0.3-4.9,0.1c-1.7-0.2-3.4-0.5-5.1-0.9c-2.1-0.3-4.1,0.5-6.2,0.8c-0.9,0.1-1.7,0.4-2.4,1c-1.2,1-2.2,3.1-4.1,2
	s-0.4-3-0.1-4.5c0.4-2.8,2.4-4.2,4.7-5.4c2.4-1.3,5.2-2.2,7.2-4.6c-1.6-1.4-4-1.6-5.7-0.3c-4.2,2.5-8.9,3.7-10.7,9.9
	c-1.1,3.9-6.1,6.7-9.5,9.9c-1.1,1.1-2.5,0.2-3.6-0.7c-5.2-3.9-10.6-4.4-16.2-0.9C100.4,49.5,101.3,50.1,101,51z"/>
<path class="st6" d="M117.2,254.9l-4.2,0.3c0.3,1.4,1.4,1.4,2.1,1.9c-1.8,7.9-5.4,15.3-5.8,23.5c0.2,0.7,0.1,1.4-0.4,1.9
	c-0.7,0.6-1.8,1-1.6,2.2c0,0.1,1-1.2,1.9-0.7c1.6,0.8,2.3,2.6,1.8,4.2c-1.1,3.8-1.8,7.7-1.9,11.6c-0.1,1.1-0.4,2.9-2.4,1.8
	c-1.3-2.9,0.1-5.7,0.1-8.9c-0.4,2.1,0.1,4.2-1.8,5.5c-1.7-2.6,0.6-7-3.8-8.5c-0.6-0.2-0.7-1.1-1.8-0.8c-2.2,0.6-2.3,0.5-2.5-1.3
	c-1-6.7-1.4-13.5,0.7-20.1c1.8-5.8,3.7-11.5,3.1-17.8c-0.1-0.9,1-1.9,1.6-2.9c0.7-1.6-1.7-4.7,2.3-4.7c2.3,6.1-0.1,11.9-0.8,17.9
	c-0.3,1.8-0.8,3.5-1.4,5.2c-3.1,7.5-3,14.8,1.6,21.8c-1.2-2-1.8-4.3-1.7-6.6c0.8-5.1,0.4-10.3,2.1-15.3c0.7-1.9,1-3.9,2.2-5.5
	c1.9-2.7,1.4-5.4,1.3-8.5c-0.6-11-2-22.1,0-33.1c2.9-0.3,2.4,2.1,2.6,3.6c0.3,2.8,0.2,5.6-0.2,8.4c0,1,0.1,2,0.4,2.9
	c0-0.9-0.4-1.9,0.2-2.8c2.5-0.5,2.4,1.5,2.5,2.9c0.1,3.6,0.9,7.1,0.6,10.8C113.4,248,113.8,252,117.2,254.9z"/>
<path class="st7" d="M137.9,420.9c2.9-6.4,1.9-13.4,3.1-20.1c0.2-1.3-0.4-2.8,0.7-3.8s1.1,0.5,1.4,1c0.2,12.3-3.8,24.1-5.3,36.2
	c-0.2,1.6-0.5,2.3,1.1,3.5c3.2,2.3,2.2,5.8,0.5,9.5c-2.5,5.2-6,4.1-10.1,3.8c-6.7-0.6-13.5-0.3-20.2,0.7c-4.9,0.7-6.6-2-7.1-6
	c-0.1-2.6,0-5.2,0.2-7.8c0-0.3,0-0.7,0.2-1c3.4-6.4,3-12-1.4-18c1.2-1.9-0.5-4.9,2.4-6.2c3.1,2,2.5,5.5,3.5,8.4
	c0.7,2.1,1.1,4.2,1.4,6.3c1.3,9.7,2.1,10.3,11.9,10.1c4.1-0.1,7.8-1.6,11.5-3c2.5-0.9,2.7-3.1,2.9-5.3
	C135,426.2,134.7,422.9,137.9,420.9z"/>
<path class="st8" d="M164.9,47c1.1,0.1,1.1,0.1,2.2-2c1.5-0.1,3-0.2,2.7,2.1c-1.4,0.8-1.7,1.8-0.5,3.1c0.2,0.5,0.3,1.1,0,1.4
	c-3.1,2.5-1.8,5.4-0.7,8.3c-0.1,0.4-0.2,0.8-0.5,1.1c-5.3,2.3-6.4,8.8-11.6,11.4c-1.4,0.7,1.1,3.7,1.6,5.6c0.4,0.6-1.8,2.6,0.3,1.8
	c2.6-0.9,4.7,0.7,7,0.3c-6.3,4.3-9.5,10.9-13.5,17.1c-1.8,2.8-3.4,6.3-7.7,6c-1.7-2-0.4-3.5,0.9-5c1.5-1.7,3.3-3.2,3.5-5.6
	c0.2-0.6-0.2,0.1,0.1-0.5c7-11.2,3.9-21.4-3.1-31.1c-0.3-2.2,1.4-2.8,2.9-3.5c0.8-0.4,1.7-0.7,2.7-0.8c2.3,0.2,3.8,2.4,6.1,2.6
	c1.1,0.2,2.2,0.5,3.3,0.9c1,0.5,2.3,1.1,2.6-0.7c0.3-1.3-0.6-2.1-1.8-2.4c-1.9-0.4-3.9-0.1-5.8-0.5c-3.6-1-6.6-3.1-9.5-5.2
	c-1-0.7-1.8-1.6-1.2-3c0.4-1,1.4-1.9,2.3-1.4C153,50,159,46.9,164.9,47z"/>
<path class="st9" d="M151,57.1c-0.5,1-1.4,1-2.3,1.1c-1.6,0.1-3.1-0.4-4.9-0.4c0.9,1.6,1.2,3.3,2.4,4.5c3.9,6.2,1,11.8-6.7,13
	c-0.8,0-1.5-0.2-2.2-0.4c-2.8-1.4-4.2-4-5.5-6.7c-1.7-3.1-3.8-5.8-7.5-6.4c-1.2,0.3-1.2,1.4-1.5,2.3c-1.7,3.9-2.2,8.6-7.4,9.9
	c-1,0.2-2,0.2-2.9-0.1c-1.6-0.6-2.6-2-3.9-3c-0.8-0.5-1.4-1.2-2-1.9c-0.7-1.5-0.8-3.1,0-5.7c-0.6,1.5-2,2.5-3.5,2.8
	c-3.5,1.9-5.2,5.7-8.5,7.8c-2,1.2-3.8,3.9-6.6,1.5c-0.4-0.8,0-1.3,0.5-1.9c5.4-3.3,9.4-8.2,14.2-12.2c1.9-1.6,0.8-3.3,0.4-5
	c-0.6-1.8,0.2-4.1-1.9-5.3l-0.1,0c-0.6-1.3-2.8-0.6-3.1-2.4c3.3-2.2,5.4-0.1,7.5,2c0.8,0.8,1,2.5,1.9,2.9c5.6,2,6,5.6,3.7,10.4
	c-0.8,1.7,0.1,3.3,2,3.9c2,0.7,2.5-1,3.1-2.4c1-2.4,2.2-4.8,3.3-7.2s3-3.5,5.7-1.8c2.8,1.9,6.7,2.4,8.6,5.7c1.5,2.2,1.9,4.9,3.7,7
	c0.8,1,2,1.5,3.2,1.4c3.3-3.6,3.1-6.2-0.5-9.6c-1.3-1-2.7-1.9-4.3-2.5c-2.7-1.4-2.5-2.8,0.1-4.2c3.2-0.8,6.4-1.8,9.7-1.1
	C147.9,53.5,150.6,53.8,151,57.1z"/>
<path class="st10" d="M112.2,122.1c1.1-3,0.9-7.2,6-6.6c1,0.1,1-0.8,1.1-1.3c0.3-1.5-0.3-3.1-1.6-4c-0.8-0.6-1.8-0.8-2.8-0.7
	c-8,2.6-10-4.5-13.6-8.7c-1.7-2.1-2.2-5.1-3.6-7.6c-1.9-3.4-1.4-6,1.1-9c4.2-4.9,4.6-11.1,5.1-17.2c2.6-1.4,2,0.5,2,1.9
	c0.2,1.1,0.5,2.2,0.8,3.3c1.3,4-0.6,7.3-2.2,10.6c-0.7,1.5-1.9,2.6-2.2,4.3c-1.8,5.5,0.6,9.6,4.4,13.2c2,4.1,5.2,5.7,9.8,4.8
	c2.5-0.5,5,0.3,7.4,0.9c2.7,0.6,3.3,2.3,1.2,4.2c-3,2.8-2.7,5.4,0.1,8c0.4,0.2,0.8,0.5,1.1,0.9c0.3,3.5,1.9,7.8-4.7,6.5
	c-1.5-0.3-1.7,2.4-3.3,2.6c-1.2-0.3-0.8-1.8-1.9-2.2c-0.9,0.1-1.8,0.6-2.8,0.1C112,125.2,112.9,123.4,112.2,122.1z"/>
<path class="st11" d="M186.3,299c3.3,1.3,0.6,5.3,3.3,6.9c1-2.2-0.6-4.8,1.1-6.9c3.4,19.5-5.4,37-9.6,55.2c-1.5,1.4-0.3,5.6-3.3,4.8
	s-1.1-4-0.8-6c0.6-2.6,0.6-5.2,0-7.8c1.4-8,2.9-16,4.3-24c0.9-5.2,2.2-10.4,1.7-15.8C182.8,301.5,183.8,300.2,186.3,299z"/>
<path class="st12" d="M103.2,412.6c-0.9,2-0.7,4.5-2.2,6.3c-1.3-8.4-1.9-16.9-1.7-25.3c0.4-14.7,1.1-29.5,2-44.2
	c1.1-17,4.1-34,3.5-51.1l1.5-6.1h0.8v10.1c2.4,5.4,1.1,11.1,0.9,16.6c-0.1,2.1-0.7,4.3-0.6,6.4c0.4,12-2.3,23.7-3.5,35.6
	c-1,10.3,0.2,20.6-1,30.8C102.3,398.8,104.6,405.7,103.2,412.6z"/>
<path class="st13" d="M178.1,346c2.6,4.2-1.2,8.2-0.5,12.5c2.8-1,2.1-3.5,2.5-5.4c0-0.1,0.3-0.2,0.3-0.2c0.2,0.4,0.4,0.8,0.7,1.2
	c0,0.2,0.1,0.4,0,0.5c-5.5,10.7,3,16.4,8.4,23.2c0.9,1.2,1.8,1.3,0.7,3.3c-1.5,3,0.4,6.3,2.3,9c1.4,1.8,2.6,3.8,3.4,5.9
	c0.9,1.2,0.3,1.8-0.8,2.2c-6.2-4.3-9.3-10.5-10.7-17.7c0.2-0.8,1.9-1.3,0.5-2.6c-1.3-1.2-2.5-2.5-3.5-3.8c-3.2-4.2-3.4-4.2-6.8,0.6
	c-1.2,1.5-2.1,4.8-4.2,0.7c0-3.3-2.3-1.3-3.5-1.4c-3.1-0.3-6.8,0.9-8.2-3.4c0.2-0.8,0.9-1.5,1.7-1.7c9.7-2.5,13.8-9.5,15.4-18.6
	C176,348.7,175.8,346.7,178.1,346z"/>
<path class="st14" d="M81.1,527.1c-3.5,2.2-7.3-0.6-11,0.6c-1.3,0.4-1.8-2.4-1.6-4s-1.3-4.6,1.2-4.5c4.4,0.1,7.4-2.5,10.8-4
	c7-3.2,14.2-6.5,20.5-10.9c4.6-3.2,5.3-9.2,5.6-15.2c3.6,1.7,8,1,10.5,4.8c-3,1.2-5.6-0.6-8.3-0.7c0.3,0.9,0.4,1.9,0.4,2.8
	c-1.8,13.4-12,17.7-22.9,21.4c-1.5,0.5-4-0.4-4.1,2.5c-0.4,1.6-3.3-0.3-3.1,2.2c-1.2,1.2-2.9,1.8-4.2,2.8c-0.9,0.3-1.2-0.6-2-1.1
	c0.8,1.6,1.7,1.4,2.7,0.7c1.9-0.4,3.9,0,5.5,1.2C81.4,526.2,81.4,526.7,81.1,527.1z"/>
<path class="st15" d="M103.9,242c-1.7,1.3,0,3.7-1.8,5c-1.7-1.3-1-3-0.7-4.6c1.7-11.7,1.7-23.7,0.1-35.4c-1-7.2-0.4-14.5-1.6-21.7
	c-0.3-1.9,0.7-3.1,1.9-4.3c1.7-0.1,0.8-4.9,4-2.1c0.8,3.3-0.3,6.6-0.3,9.9c-0.3,13.8,1.8,27.5,1.3,41.2
	C106.5,234.1,107.8,238.7,103.9,242z"/>
<path class="st16" d="M105,178c-1.2,0.8-1.4,2.8-3.2,2.9c3.1-10.2,2.2-20.7,2.8-31.1c0.5-7.7,2.4-15.2,5.7-22.2
	c0.8-1.8,1.4-3.7,2.1-5.5c0.6,1.4,1.2,2.7,1.8,4c0.8,1.1,0.5,2.2,0,3.3c-5.3,11.5-5.9,23.8-5.6,36.1C108.5,170,108.9,174.6,105,178z
	"/>
<path class="st17" d="M79,521.7l-1-1.4l4.2-0.4c1.5-1.5,3.3-1.3,5.1-1.2c10.8,0.4,21.5-0.3,32.3-0.7c1.2-0.2,2.5-0.3,3.8-0.7
	c0.7-0.2,1.3-0.3,2-0.2c1.2,0.2,2.4,0.4,3.5,0.9c-0.3,1.8,1.5,3.2,0.9,5c-1.5,1.1-2.3-0.4-3.4-0.9c-1.5-1-3,0-4.4,0.2
	c-3.6,0.9-7.4,1-11,1.9c-8.6,0.5-17.2,0.3-25.8,0.2C82.8,524.3,80.5,523.9,79,521.7z"/>
<path class="st18" d="M205,519.1c-2.6,1.7-5.2,2.5-8.1,0.8c5-2.8,6.2-8.1,7.3-12.9c1.3-5.8,5.3-10.8,4.8-17.1c1.2,0.3,0.5,3.5,3,2
	c2.8,5.5,0.1,10.2-2.3,14.8C207.7,510.7,205.5,514.6,205,519.1z"/>
<path class="st19" d="M108.1,496.2c-0.9-4.6,2.3-3.9,4.9-3.6c1.4,0.3,2.8,0.8,4.1,1.4c0.3,0,0.7-0.1,1-0.1c9.6,0,12.6,3.2,11.5,12.6
	c-0.3,2.5,1.3,5.2-0.8,7.5c-2.5-0.5-2-2.6-2.2-4.2c-0.2-1.9,0.1-3.9-0.4-5.8c-1.5-6.1-2.2-6.6-8.9-6.2
	C114.5,496.3,111.1,497.2,108.1,496.2z"/>
<path class="st20" d="M81.1,527.1L81,526c1.2-1.4,2.9-1.6,4.5-1.5c8.1,0.2,16.2-0.7,24.3,0c3.3,0.8,7.4-1.7,10.1,2.2
	C107,527.6,94.1,528.9,81.1,527.1z"/>
<path class="st21" d="M101.1,51c2.7,0.6,2.9,2.8,3,5c-0.6,0.8-1.1,1.8-2.1,1.9c-9.3,1.4-12,8-12.9,16.1l-1.1,1.3
	c-3.1-8.5,0.5-16.4,8.9-19.7C98.9,54.9,102.4,55.1,101.1,51z"/>
<path class="st19" d="M168.1,60c-3.6-3.8-2-7,1.2-10c2.3,0.9,3,3.3,4.7,4.8c0.3,2.2,2,4.5-0.1,6.7C171.6,62.3,169.5,62.3,168.1,60z"
	/>
<path class="st19" d="M169.8,47l-2.7-2.1c-0.4-2.3,1.5-5.7-2.9-6c2.5-3.5,4.5-1.5,6.2,0.7c1.3,1.6,1.4,4,3.4,5.2
	C173.3,47.1,171.6,47.2,169.8,47z"/>
<path class="st22" d="M119.9,526.6c-3.3-1.6-6.9-0.2-10.3-0.9c1.9-3.1,5-1.7,7.7-2.2c2-0.3,3.8-1.2,5.8-1.4c1.4-0.3,2.8-0.8,4.1-1.2
	c0.8,0.7,1.1,2.1,2.5,2C126.7,524.8,123.6,526.4,119.9,526.6z"/>
<path class="st8" d="M189.7,96.3c-3.4-3.5-6.6-7.2-7.9-12.1C185.8,87.3,189.6,90.6,189.7,96.3z"/>
<path class="st8" d="M173.8,44.8c-2.9,0.5-2.3-2.2-3-3.5c-1.6-2.8-3.4-4.3-6.6-2.5c-1.3,0.1-1.6-1-2.1-1.8
	C168.9,35.5,170.2,36.3,173.8,44.8z"/>
<path class="st22" d="M127.2,502.9c2.2,3.4-0.6,7.6,1.7,11v4c-0.9,0.6-2.1,0.6-3,0C125.6,512.8,124.3,507.7,127.2,502.9z"/>
<path class="st8" d="M194.9,398l1-1.9c2,1.4,3.5,3.4,4.3,5.7l-1.3,1.3C195.8,402.7,193.5,401.8,194.9,398z"/>
<path class="st8" d="M105.1,69c-0.1-0.8,0.7-2-1-1.8L103,66c2-1,2.2-4.1,5.1-4.7c-0.9,2.7-1.5,5.2-1.1,7.8c-0.4,0.5-1.2,0.6-1.8,0.2
	C105.2,69.1,105.2,69.1,105.1,69z"/>
<path class="st19" d="M168.1,60c1.7,1.4,3.7,1.1,5.6,0.9c0.7,0,0.9,0.6,1.2,1.1c-2.7,2.3-4.9,0.8-7-1L168.1,60z"/>
<path class="st8" d="M174.9,62l-1.2-1c1.4-2-1.2-4.1,0.2-6.1C175.9,56.7,176.4,59.7,174.9,62z"/>
<path class="st23" d="M194.9,398c-0.6,3.2,2.9,3.2,4,5.2c5.3,5.3,5.8,13.3,10.3,19.2c1.9,2.4,3.5,5.1,6,7.3L206,434
	c-2.3,3.8-6.3,5.2-10,7c-2.2,2.4-4.1,2.5-6.5-0.1c-8.2-8.8-15.2-18.6-23.8-27c-4.6-5.2-9.1-10.5-13.9-15.5
	c-8.4-8.5-14.7-18.8-18.4-30.1c-2.7-8.4-2-17.7-2.7-26.5c-1.1-15.2-2.9-30.3-4.3-45.4c-0.1-1.5-0.9-2.4-2.8-3.6
	c-1.2,13-0.6,25.6,0.6,38.2c0.3,5.8,0.4,11.5,0.6,17.2c0.2,6.4,1.8,12.8,1.7,19.2c0,2.8,0,5.6,2.3,7.8c1.2,0.8,2.3,1.7,3.4,2.7
	c9.8,9.8,8.7,21.7,6.3,33.7c-0.6,3.1-0.7,6.2-0.4,9.3c-2.4,3.9-1.5,8.4-2.5,12.6c-0.4,1.7-0.5,2.7-2.6,2.2c-2.8-0.6-5,1.6-7.5,2.3
	c-5.2,1.4-10.2,0.2-15.2-0.1c-2.5-0.1-2.3-2-2.3-3.6c-0.3-7.5-2.3-14.7-4.6-21.8c-1.7-7-2.2-14.2-1.6-21.4c1-10.4-0.1-20.9,1.3-31.2
	c2.5-18.4,4-37,4.6-55.6c0-0.7-0.1-1.3-0.2-2c1-5.8,0.8-11.8,2.2-17.6c-1.3,1.4,1.1,3-1,4.5c-2.3-1.9-2.4-4.5-1.9-7
	c0.2-1.3,1.7,0.1,2.5-0.1c1.3-0.9,2.5-0.1,3.7,0.3c4.5,1.6,9,3,13.5,0.1c0.6-0.3,1.3-0.2,1.9,0.2c0.8,3,1.3,6.2,2.9,8.9
	c0.6,1,0.9,1.8-0.1,3c-1.3,1.5-0.2,2.4,1.5,2.5c15.2,1,30.4,2.4,45.6,0.8c2.8,0.4,5.8-1.2,8.4,1.1c-2.9,1.4-2.2,4.8-2,6.5
	c0.9,8-1.8,15.4-3,23c-0.8,5.8-2.2,11.6-3.3,17.4c-0.8,0.7-1.2,1.6-1.1,2.6c0.7,8.3-4.5,13.7-9.5,19.3c-2.5,2.8-6.2,0.8-8.6,3
	c-0.2,1.4-1.6,2-2.4,3.7c3.7,0.2,7-0.6,10.3-1c2.3-0.3,2.5-0.2,4.2,1.4c-0.2,0.7-0.1,1.6,0.5,1.7c1.7,0.1,1.3-2.1,2.5-2.7
	c0.6-1.1,1.8-1.7,3-1.5c3.1,1.9,7.2,2.8,7.6,7.5C187,386.4,190.4,392.5,194.9,398z"/>
<path class="st23" d="M149.9,132c4.1-10.7,13.9-13.1,23.3-15.6c4.8-1.2,11.5,5.8,13.7,11.7c2.7,7.1,0.3,14,0.4,21.1
	c0.1,8.8,0.4,17.5,0.1,26.2c-0.2,8-0.3,15.8-6.1,22.8c-2.5,3-6.2,7.6-4.6,13.2c0.5,1.7-1.1,4-2.8,5.6c-4.4,4.1-7.7,9.2-12.6,12.6
	c-2.7,1.9-3.2,5.2-4.7,7.7c-2.3,0.2-1-3.9-3.5-2.6c-2.2,1.1-0.5,2.9-0.2,4.4c1.7,8.6-0.6,11.9-8.6,15.1c-2.6,1-3.4-1.1-5.3-1.1
	c-4.8-0.2-8.9-3.5-13.9-4c-2-0.2-1.7-2.5-2.2-4c1.5-2.1-0.4-4.6,1-6.8c2.3-3.6,5.8-4.7,11.1-4.4c-3.4-2-7.2-0.9-8.2-4.6
	c-0.8-3-0.2-5.9,0.3-8.9c0.6-2.7,1-5.5,1.2-8.3c0.4-8.3,4.9-15.1,7.6-22.5c0.4-0.9,0.9-1.8,1.7-2.4c3.8-3.2,5.3-8.6,3.3-12.9
	c-1.1-2.4-0.5-4.6-0.2-6.8c1.7-10.5,4.1-20.8,6.6-31.2C147.7,134.6,148.6,133.1,149.9,132z"/>
<path class="st23" d="M203.2,164c3.1,12.9,3.7,26.2,5.3,39.3c1.2,9.2-0.2,19.2-3,28.4c-3.1,10.7-3.8,21.8-4.5,32.7
	c-0.4,6.2-3.6,11.1-5.5,16.6c-0.3,0.8-1.9,1.2-2.8,1.7c-7.2,0.2-14.5,0.4-21.7,0.8c-2.2,0.1-3.6-1.4-5.6-1.6
	c-10.3-1-20.6-2.4-30.9-3c-4.3-0.3-6.2-2.3-7.1-6c-0.3-1.4-0.7-3,1-4s2.2,0.5,3.2,1.2c4.5,3,9.9,1,11.5-4.6c1.5-5.6,4.8-10.5,9.4-14
	c1.3-1.1,2.7-2.1,3.1-3.8c2.5-11.1,10.4-18.3,17.9-25.9c3.2-3.2,6.3-6.7,6.9-11.7s3.1-9.3,5.9-13.5c4-5.9,4.3-12.9,4.1-19.8
	c-0.4-13.8,3.8-27.5,1.6-41.4c-0.4-2.4-1.1-4.7-1.8-7.6c3,0.9,4.5,1.2,5.2,4.8C197.3,143.3,200.5,153.6,203.2,164z"/>
<path class="st23" d="M118.1,128.3c0.7-1.4,1-3,2.3-4.2c0.6-0.5,0.8-1.4,1.8-1c3.3,1.1,3.3,1.1,3.7-2.5l0.2-1.5
	c1.8-3.6,4.6-6.5,8.1-8.5c3.5-2.2,6.2-5.5,9.8-7.5c7.1-3.7,9.1-11.4,13.5-17.2c2.1-2.8,4.1-5.3,7.8-5.6c0.3,0.1,0.7,0.2,1,0.2
	c12-1.1,15.4,8.5,19.8,16.4c3.5,6.4,6.6,12.9,11.6,18.4c2.6,2.8,5.7,7.2,2.6,10.5c-2.8,3-7.1-0.1-10.5-1.7
	c-4.9-2.2-6.2-8.2-10.9-10.7c-0.9-0.5-1.7-1-2.5-1.6c-1-0.4-2,0.2-3.1,0c-13.2-3.9-24.7,0.9-35.9,7c-4.1,2.1-6.2,5.5-7.9,9.8
	c-3.4,8.8-5,17.9-6.9,27c-0.9,4.5,0.6,8.9,0.2,13.4c-0.7,7.4-3.2,14.7-2.8,22.2c0.6,11.4-1,22.9,1.9,34.2c0.2,0.6,0.6,1.7,0.2,1.9
	c-3.7,2.2-0.4,5.1-1,7.6c-3.1,5-0.4,10.3-1,15.4c0,0.3,0.5,0.9,0.8,1c1.3,0.4,2.8,0.5,2.1,2.5c-0.7,1.7-2.3,0.7-3.5,0.8
	c-0.8,0.1-1.6,0.1-2.5,0.1c-4.7-1.3-5.5-3.9-4.8-12c0.5-4.4,0.1-8.8-1.2-13.1c-2.1-4.5-1.6-9.4-1.7-14.1c-0.2-9.1,0.1-18.2-0.8-27.3
	c-0.7-7.3,0.8-14.4,3.2-21c3.5-9.6,1.2-19.7,3.3-29.4C115.9,134.7,116.1,131.2,118.1,128.3z"/>
<path class="st23" d="M171,114.2c-8,0.9-15.3,3.4-21.1,9.4c-1.2,1.2-1.9,2.7-2,4.3c-0.2,2.1-0.6,4.2-1.3,6.3
	c-4.5,11.3-4.9,23.3-6.4,35.1c-0.9,7.2-1.6,14.6-5.1,21.1c-4.2,7.8-5.8,16.6-9.6,24.5c-0.4,0.4-0.9,0.5-1.5,0.4
	c-3.1-7.7-3.3-15.9-2.9-23.9c0.6-11.7,3.3-23.2,3.4-35.1c0-8.4,3-16.3,7.8-23.3c1.1-1.3,1.5-3,1.2-4.6c-1-4.5,0.6-7.4,4.9-8.9
	c1.2-0.6,2.3-1.3,3.2-2.3c8.6-5.8,19.1-7.9,29.2-5.8c1.1,0.5,2.3,1,2.1,2.4C172.8,114.6,171.8,114.6,171,114.2z"/>
<path class="st24" d="M142.3,118.2c-1.3,0.9-2.6,2.4-4,2.6c-4.2,0.7-4.7,5.7-4.1,6.6c2.5,4-0.8,5.4-2.1,8.1
	c-3.7,7.5-7,15.4-6.4,24.2c0.3,4.9-0.1,9.9-1.2,14.7c-3,13.5-2.4,27-0.4,40.6c0.8,2.5-0.8,4.9-0.1,6.8c0.1-1.9,0-4.4,1-6.8
	c1.8-7.5,3.9-15.1,7.5-21.9c4.2-7.8,5.5-16.2,6.5-24.7c1.5-12.1,1.8-24.5,6.8-36c0.7-1.5,0.8-3.2,2.1-4.4l2,4.1
	c-3.3,13.1-6.4,26.2-8.3,39.6c-0.2,1.3-1.5,2.7,1.3,1.9c2-0.6,1,1.2,0.9,1.7c-0.5,4.1-1.2,8.2-1.8,12.3c-0.1,0.6-0.1,1.3-0.9,1.5
	c-3.7,1.2-5.2,2.7-6.2,5.7c-1.8,5.4-5.3,10.4-5.4,16.1s-2,11-2.1,16.7c0,2.5,1.1,3.5,3.6,3.5c2.5-0.2,5,0.8,6.7,2.6
	c-1,1.8-2.6,1.1-4,1.1c-7-0.1-9,2.1-8.2,8.8c0.1,1-3-1.3-2.5,1.5c-2.8-0.6-0.7-2.6-1-3.9c-0.5-2,0.6-4.2-0.8-6
	c-1.6-2.4-2.3-5.3-1.9-8.2c0.5,0.6,0.9,1.7,1.3,1.7c1.1-0.1,1.1-1,0.7-1.9c-4.7-11.4-1.4-23.4-2.6-35.1c-0.9-8.2,3.6-16.1,2.6-24.1
	c-1.3-10.5,1.5-20,3.9-29.7c1.7-6.9,2.8-14.4,9.4-19c0.7-0.4,1.5-0.6,2.2-0.8C138.7,117.4,140.5,116.5,142.3,118.2z"/>
<path class="st19" d="M192.9,284.8c1.3-0.2,2.5,0.7,2.7,2c0.1,0.4,0,0.8-0.1,1.1c-0.9,2.9-2.2,6-5.6,6.9c-1.7,0.5-3.5,0.7-5.2,1
	c-6.8-1.5-13.6,0.1-20.5,0c-7.9-0.2-15.7-0.1-23.6-1.1c-3.9-0.5-7.3-0.5-7.8-5.5c-0.4-2.3-0.7-4.7-0.7-7c2.2-1.4,4.7-0.7,6.8-0.3
	c9.6,1.9,19.4,1,29,3.8C176,288,184.6,286,192.9,284.8z"/>
<path class="st19" d="M107.9,280.9c0.2-5.2,1.7-10.1,3.5-14.9c1.1-3,0.1-6.9,3.7-9h0.5c4.4-0.3,8.7-0.2,7.3,6
	c-1,4.7,2.1,8.2,2.5,12.4c0.2,1.7,0.2,2.8-1.3,3.6c-1.2,1.2-2.7,1.3-4.2,1.2c-2.7-0.1-5.3-1.8-8.2-0.7c-0.3,0.5-0.8,0.9-1.4,1.1
	C109.5,280.9,108.6,280.4,107.9,280.9z"/>
<path class="st18" d="M142.7,257.4l-4.2,11.4c-1.6-4.3-5-4.1-7.8-3.1c-3.8,1.4-4.3-0.7-4.5-3.2c-0.3-3.3-1.2-7.4,1.1-9.5
	c2-1.8,5.3,1,7.8,2.1C137.6,256.2,140.1,256.9,142.7,257.4z"/>
<path class="st25" d="M119,279l5-0.1c0.9,1.7,3.9,1.2,4.1,3.8c-6.5,4.6-12.8,2.7-19.1-0.6l-1.2-1.2c0.1-1.8,1.3-0.9,2.2-0.9
	c3.5-0.7,6.2,2.5,9.7,2c-1.4-0.3-3.3,0.5-3.9-1.8C116.5,278.8,118.1,280,119,279z"/>
<path class="st26" d="M171,114.2l1.7-0.6l-1.7-1.6c0.8-1.1,2-0.4,3-0.9c0.9-0.3,1.9,0,2.4,0.7c-2.1,1.5,2.3,1.5,0.3,3
	C175,114.9,172.9,115.7,171,114.2z"/>
<path class="st19" d="M132.1,282.2c2.8,2.1,0.5,4.6,0.7,7C132,286.9,130.3,284.7,132.1,282.2z"/>
<path class="st23" d="M189.5,149.8c-0.6-4.5-1-7.6-0.1-11.2C190.6,142.3,189.5,145.3,189.5,149.8z"/>
<path class="st18" d="M129,376.1c-1.7,1-2.7,1.3-3.2-1.4c-0.8-4.6,0.2-9.3-0.7-13.8c-2-10-1.4-20-1-30c2,3.1-0.5,7,1.9,10
	c0.3,4.3-1,8.8,0.9,13l0.9,14.3C127.7,370.9,130.9,373.1,129,376.1z"/>
<path class="st23" d="M126.9,353.9c-3.5-4.1-2.1-8.5-0.9-13C127.8,345.1,126.1,349.6,126.9,353.9z"/>
<path class="st18" d="M129,376.1c0.3-2.8-3.2-5-1.2-8c2.4,2.8,3.8,6.2,4.2,9.8C130.8,377.7,129,378.5,129,376.1z"/>
<path class="st19" d="M205,519.1c-0.7-0.3-2.5,0.7-1.8-1.1c1.2-3.4,2.2-7,4.3-9.8c3.6-5,4.4-10.4,4.5-16.2c0.6-3.9,0.3-7.6-1.8-11
	c-1-1.6-0.7-2.4,1.2-2.7c0.3-0.1,0.6-0.2,0.9-0.4c3.3-2,6.3-8.1,9.1-6.4c4.4,2.6,9.2,5.7,12.9,9.7c1.5,1.7,1.7,2.7-0.1,3.9
	c-11.6,7.3-16.6,20.1-24.8,30.2C208.3,516.8,206.7,518.1,205,519.1z"/>
<path class="st19" d="M201,522.8c4.1,0,8-2,10.4-5.4c3-4,5.9-8.2,8.8-12.3c1.6-1.6,3.2-3.1,4.8-4.7c0.8-0.7,2-1.5,2.1,0.6
	c-5.2,6.5-10.2,13-15.5,19.3c-2.6,3-5.8,5.6-10.4,4C200.7,524,200.6,523.3,201,522.8z"/>
<path class="st19" d="M227,501c-3.6-0.9-3.9,3.9-6.8,4c4-6.6,8.8-12.5,15.1-17.1c0.8-0.6,1.6-2.2,2.8-0.9s2,2.7,0,4.1
	c-3,1.1-5.5,3.3-6.9,6.2L227,501z"/>
<path class="st8" d="M231.2,497.2c0.3-3.9,3.5-5.6,6-7.9l0.9,1.7C236.4,493.8,233.8,495.5,231.2,497.2z"/>
<path class="st19" d="M201,522.8c0,0.5,0.1,1,0.1,1.5c-1.4,1.2-2.7,1.1-3.7-0.4c-0.2-0.3-0.2-1.1,0-1.2
	C198.6,522.2,199.8,521.7,201,522.8z"/>
<path class="st18" d="M195.7,451.9c-2-0.5-1.7-2.4-2.5-3.5c-0.9-1.4-0.4-2.6,1.2-3.1c7.1-2.3,12.6-7.3,18.8-10.9
	c2.9-1.8,6.2-2.9,9.6-3.2c3.9-0.1,4.7,4,5.6,7c0.8,2.4-1,3.8-3.3,3.8c-10.3,0-19.1,4.5-28,8.8C196.6,451.1,196.1,451.5,195.7,451.9z
	"/>
<path class="st8" d="M196,441c2.4-3.7,6.9-4.4,10-7c0.3,0.5,1,1.4,1,1.4C203.6,437.8,201.1,442.1,196,441z"/>
<path class="st19" d="M151,57.1c-2.8-3.1-6.4-3-10-2.6c-2,0.2-3.9,0.4-5.8,0.7c-3.3,2.2,0.8,4.1,0.3,6.2c0,0.5-0.1,0.9-0.4,1.3
	c-0.5,0.5-1.2,0.7-1.9,0.5c-2-3.6-6.3-3.9-9.2-6.2c-1.7-1.4-3.7,1-3.7,2.4c-0.1,3.4-2.9,5.5-3.4,8.6c-0.2,1.8-1.8,3.3-3.6,1.9
	c-1.6-1.2-5-1.6-3.8-4.8c0.6-1.5,0.8-3.2,1.5-4.7c1.6-3.2,1.5-5.1-2.9-4.1c-2.4,0.6-1.5-1.6-1.9-2.5c-1.5-3.6-3.5-6.4-8.1-5.1
	c6.6-4.8,13.3-5.1,19.1-0.2c2.6,2.2,3.1,1.5,4.6-0.9c1.3-2.2,3.5-4,5.4-5.8c1.5-1.4,1.5-1.3,1.2-4c0.1-0.8,0.5-1.6,1.2-2
	c3.7-3.3,8.1-5.8,12.9-7.2c2.7-0.8,4.8,0.1,6.8,2c-4.8,5.1-14.2,5.1-14.9,14.2c2.3,0.5,2.4-1.9,3.8-2.6c4.8,1.2,9.6,1.9,14.1-0.9
	c2.9-0.4,5.8-0.1,8.8-0.6c5.4-0.9,3.7,3.5,4,6.4c-5.2,2.4-10.4,4.6-16.2,1.5c-1-0.6-2.7-1.6-3.5-0.2c-1,1.9,1.3,1.9,2.2,2.5
	c2.8,1.9,5.7,3.6,8.6,5.3c1,1.3,3.6,2.3,0.7,4.3C153.9,60.7,152.9,58.1,151,57.1z"/>
<path class="st8" d="M111,42.1c3.5-2.3,7-0.7,10.3-1.3c0.7-0.1,0.9,0.8,0.6,1.5c-0.4,1.1-1,2.3-2.5,1.9
	C116.8,43.4,113.9,43.9,111,42.1z"/>
<path class="st19" d="M152.1,41.2c-4.5,4.1-9.1,5-14.1,0.9l2.1-0.9c2.5,1.8,4.7,0.4,6.8-0.9L152.1,41.2z"/>
<path class="st8" d="M146.9,40.2c-1.8,3.5-4,4.1-6.8,0.9C142.3,40.9,144.5,39.7,146.9,40.2z"/>
<path class="st19" d="M103.6,43c-1.8,2.7-4.4,2-6.1,3.2C99.2,43,99.2,43,103.6,43z"/>
<path class="st19" d="M105,178c3.2-7.4,1.6-15.3,1.9-23c0.5-10.1,2.4-19.9,7.1-28.9c0.9-0.5,1.6-1.8,2.9-1
	c0.5,6.1-1.9,11.7-2.7,17.6c-0.5,2.4-0.6,4.9-0.3,7.4c1.5,7.8-1.9,15-3.4,22.4c-1.9,8.2-2.4,16.7-1.4,25.1
	c0.8,6.9,0.9,13.8-1.2,20.5c-0.7,6.6,0.7,13.1,0.6,19.7c-0.1,5.6-1,11.2,1.3,16.6c0.3,0.9,0.2,2-0.3,2.8c-5.3,5.8-5,13-5.6,20
	c-0.2,1.3-0.5,2.6-0.9,3.9c-2.9-1.9-4.4-6.5-3.2-11c0.2-1.4,0.6-2.8,1-4.2c2-7.8,3-15.8,3-23.9c1.8-8.8,1.7-17.6,1.1-26.5
	C104.1,203,103,190.5,105,178z"/>
<path class="st27" d="M108,218c1.1-12.7-1.6-25.3-0.3-38c0.5-4.4,1.8-8.8,2.8-13.1c1.4-6.2,2.6-12.3,2.1-19
	c-0.5-7.6,2.3-15.3,4.4-22.8c2.1,0.5,0.4,2.3,1.1,3.2c-0.6,3.7-1.2,7.4-2,11.1c-0.9,4.2-1.4,8.3-0.5,12.6c1.3,6-1.9,11.6-3.2,17.2
	c-2.2,9.5-2.8,19.3-1.9,29c1,10.5-0.8,21.1,0.5,31.6v6.8c-2.3-4.7-2-8.8-2.1-12.9C108.9,221.8,109.8,219.6,108,218z"/>
<path class="st8" d="M100.9,265.9c-0.5,5.2-1,10.5,2.2,15.2c0.5,2.4,0.9,4.7,1.5,7.6C98.7,283.1,96.7,274.8,100.9,265.9z"/>
<path class="st18" d="M137.9,441.7c-1,7.1-2,7.9-8.6,7.2c-6-0.7-12.2-0.5-18.1,0.6c-4.7,1-7.4-1.3-6.3-5.3c0.7-2.7,4-3.3,5.8-3.1
	c6.8,0.6,13.5,0.6,20-1.9c0.7-0.2,3-1.3,3.1,2C133.8,444.2,136.5,440.3,137.9,441.7z"/>
<path class="st23" d="M101,87.1c2.3-4.8,6.1-9.1,5.2-15c0.6-1.2,1-2.6,2.8-2l3.1,3c1.1,2.1-1.9,4.8,1.2,6.7c1.8-1.9-0.6-5,1.9-6.7
	c5.5-1.1,4.1-7,6.9-10c1.9-1.6,3.4-0.5,4.8,0.7c2.4,2,4.4,4.4,6,7.1c1.4,2.3,3,4.5,6.3,3.3c7.3-1,9.7-5.8,5.9-12.3
	c-0.3-1,0.1-1.1,0.9-0.9c2.3,0.7,3.9,2.8,4.1,5.1c0,0.7,0.2,1.3,0.5,1.9c6.8,8.8,2.7,16.9-1.5,25c-2.9,5.1-6.7,9.7-11.1,13.5
	c-4.6,4-9.3,7.9-13.4,12.3c-0.6,0-1.1,1.9-1.7,0.2s-0.5-3.2-1-4.8c-0.7-2.2-1.5-4.2,2.2-4.3c0.9,0.1,1.7-0.6,1.7-1.5
	c0-0.2,0-0.3,0-0.5c-0.3-1.3-1.5-0.9-2.4-0.9c-3.8-0.1-7.5-1.1-11.4-0.5c-3.3,0.5-4.3-3.4-5.8-5.8C103.3,96.7,103.2,91.5,101,87.1z"
	/>
<path class="st28" d="M124.6,118.9c0.5-3.6,3.1-6.1,5.7-7.8c7.6-4.8,12.6-12,18.8-18.1c1.3,2.9-1.7,3.9-2.8,5.4s-2.7,2.4-2.3,4.5
	c-0.3,2-2,2.9-3.3,4.1c-4.7,4.1-10.5,7-14.6,12L124.6,118.9z"/>
<path class="st19" d="M156.7,60.3c1.4-1.7-1.5-2.7-0.7-4.3c2.7,0,5.7-2.7,7.9,1.4c1,1.9,1.3,3-0.5,4.6c-2,1.8-2.7,0.9-3.5-0.9
	C159.2,59.5,157.4,62.1,156.7,60.3z"/>
<path class="st8" d="M156.8,71.3c-0.8-3.2-1.5-5.7-2.2-8.2C160.4,64.1,161,66,156.8,71.3z"/>
<path class="st18" d="M146,61.1l-0.9,0.9c-0.9-1.9-2.3-3.6-4.1-4.9c3.3-1.4,5.6-0.4,7.7,1.1C147.8,59.1,145.8,59,146,61.1z"/>
<path class="st18" d="M89,74.1c-2.2-7,3.2-15.9,10.5-16.9c1.5-0.2,3-0.6,4.5-1.2c1.9,2.7,1.3,4.9-1.2,6.8C98,66.3,94.6,71.6,89,74.1
	z"/>
<path class="st18" d="M135,61.6c-1.2-2.2-4.1-4.4,0.1-6.5c-1,1.1-1.1,1.7,0.7,2.1c3.4,0.8,6.3,3.1,7.8,6.2c2.1,4,1,6.7-3.6,8.6
	C138.4,68.5,136.1,65.3,135,61.6z"/>
<path class="st8" d="M115.2,73.1c0.1,1.7,0.2,3.3,0.3,5s0.1,3.7-2.1,3.7c-2.6,0-3.2-2.3-3.1-4.2c0.1-1.5,1.2-3,1.8-4.5L115.2,73.1z"
	/>
<path class="st8" d="M139.2,74.2c-2.8,2.5-4.7,0.9-6.5-1.4c-1.9-2.5-3.8-4.9-5.6-7.5c-1.1-1.7-3.1-2.6-5.1-2.3c0.3-1-0.7-2.5,1-3
	c4.8,1.9,8.6,5.7,10.5,10.5c0.8,1.5,2,2.7,3.5,3.5L139.2,74.2z"/>
<path class="st19" d="M136.9,74.1c-2.4,0.3-2.9-1.7-3.8-3.1c-2.5-4-4.7-8.3-9.9-9.4c-0.1,0-0.1-0.9-0.1-1.4
	c4.8,0.5,8.8,3.8,10.1,8.4C133.9,70.8,136,72,136.9,74.1z"/>
<path class="st8" d="M135,61.6c3.1,2.8,5.2,6.1,5.1,10.4l-3.1-1.6c0.2-3.1-3-5.2-2.3-8.5C134.9,62,135,61.9,135,61.6z"/>
<path class="st19" d="M134.6,62c1,1.6,1.8,3.3,2.6,5c0.4,1.1,2.1,2.5-0.3,3.4c-2.5-1.8-2.1-5.2-3.8-7.4L134.6,62z"/>
<path class="st18" d="M109,70.1c-1.5,0-0.5,3.3-2.8,2c-1.5-0.6-0.8-2.1-1-3.2l1.9,0.1C107.9,69,108.6,69.4,109,70.1z"/>
<path class="st19" d="M101,87.1c3,4.1,5.1,8.6,5.1,13.8c-4.5-2-3.9-7.3-6.5-10.4C101.7,90,101.5,88.6,101,87.1z"/>
<path class="st8" d="M185.8,322.3c0.6-4,1.1-6.9,1.5-9.8l1.5,0.2C187.6,315.5,188.9,318.7,185.8,322.3z"/>
<path class="st8" d="M183.6,328.3c1.8,2.8,1.4,4.4,0.6,6.5C182.2,333,183.2,331.3,183.6,328.3z"/>
<path class="st8" d="M170.9,374.9c-2.9-2-5.7-0.2-8.5,0.3c-2.9,0.6-5.7,1.4-9.1,0.4c1-2.8,3.5-3.4,5.5-4.7c3.3,3.2,7.3,1.8,11.1,1.3
	c0.9-0.1,2.1-0.9,2.5,0.5C172.7,373.6,172,374.5,170.9,374.9z"/>
<path class="st19" d="M184.5,379.9c-2.2-2.9-5-5.2-8.2-6.8c2.5-3.1,4.1-0.5,5.9,0.9c1.5,1.5,3,3,4.5,4.6c0.6,0.6,0.8,1.7-0.1,2.1
	C186.2,380.8,185.3,380.1,184.5,379.9z"/>
<path class="st8" d="M182.2,373.9c-2-0.2-3.6-2.8-5.9-0.9l-2.4,0.9C178.1,367.8,178.6,367.8,182.2,373.9z"/>
<path class="st19" d="M108.1,496.2c3.1-1.3,6.1-1.4,8.9,0.7c4.3,0.4,4.3,3.8,5.1,6.8c-0.2,5.1,1.7,10.3-1.3,15.2
	c-3.6,1.7-7.5,1-11.2,1c-9.2-0.1-18.4,1.2-27.5,0.1c-0.8-0.5-2.2-0.9-2.2-1.5c-0.1-1.2,1.2-1.1,2.2-1.2c6-0.5,11.5-3.5,16.3-6.4
	C103.8,507.8,107.4,502.3,108.1,496.2z"/>
<path class="st22" d="M118.9,524.7c-3,0.7-6.3-0.5-9.2,1L81,526l-6-0.9v0.1c0.5-2,1.4-3.7,3.9-3.5c10.9,2.5,21.9,0.4,32.8,1
	c1.9-0.4,3.9-0.5,5.8-0.2C119,522.6,119.9,523.2,118.9,524.7z"/>
<path class="st22" d="M75.1,525.1c-1.1,0.8-2.6,0.8-3.6,0c-0.8-0.5-1-1.6-0.5-2.4c0,0,0.1-0.1,0.1-0.1c0.5-0.6,1.2-1,2-1.1
	c1.3-0.2,1.6,0.5,1.2,1.8c-0.3,0.9,0.3,1.5,0.9,2.1C75.1,525.2,75.1,525.1,75.1,525.1z"/>
<path class="st8" d="M121,502.9c-1.5-1.9-1-5.2-4-6.1c7.6-1.1,8.7-0.4,10.2,6.1c-0.5,5,1.4,10.2-1.3,15L124,518
	c-2.8-0.3-1.7-2.6-2-4.1C121.4,510.2,123.3,506.4,121,502.9z"/>
<path class="st19" d="M121,502.9c2.2,0.1,2,0.1,2.2,2.1c0.3,4.3-1.2,8.8,0.8,13c-0.8,1.2-2,0.9-3.2,0.8L121,502.9z"/>
<path class="st8" d="M118.9,524.7c-1.5-3.7-4.9-0.5-7-2l11.2-1.4c0.4,0.5,0.4,1.2-0.1,1.7c0,0-0.1,0-0.1,0.1
	C122.1,524.7,120,523.4,118.9,524.7z"/>
<path class="st8" d="M123,523l0.1-1.7c1.3-0.7,2.6-1.8,4.1-0.4C126.7,523.4,124.6,522.7,123,523z"/>
<path class="st0" d="M174,111.2c-0.8,1.1-1.9,0.8-3,0.9c-8.4-0.8-16.9,0.4-24.7,3.7c-1.5,0.5-2.9,1.3-4,2.4L137,118
	c10.8-7,22.4-11,35.5-8C173,110.2,173.4,110.8,174,111.2z"/>
<path class="st8" d="M124.9,215c0.2,4.3,0.2,4.3-1.5,7.7c-1-2.9-0.2-5.3,0.7-7.7C124.3,215,124.6,215,124.9,215z"/>
<path class="st18" d="M115.6,280.2c2,1.5,4.9,0,7.6,2.2c-5.3,1.6-9.2-0.5-13.2-2.4l1-0.7C112.6,278.5,114.5,278.8,115.6,280.2z"/>
<path class="st0" d="M115.6,280.2l-4.7-0.9c-1.6-1.7,0.2-1.1,0.9-1.3c2.6-0.8,4.8,0.4,7.2,1.1C118.2,280.2,116.8,279.9,115.6,280.2z
	"/>
</svg>
