<?xml version="1.0" encoding="utf-8"?>
<!-- Generator: Adobe Illustrator 24.0.1, SVG Export Plug-In . SVG Version: 6.00 Build 0)  -->
<svg version="1.1" id="Layer_1" xmlns="http://www.w3.org/2000/svg" xmlns:xlink="http://www.w3.org/1999/xlink" x="0px" y="0px"
	 viewBox="0 0 281 575" style="enable-background:new 0 0 281 575;" xml:space="preserve">
<style type="text/css">
	.st0{fill:#FEFEFE;}
	.st1{fill:#0C0B0A;}
	.st2{fill:#1C1D1A;}
	.st3{fill:#0E0D0B;}
	.st4{fill:#0E0E0D;}
	.st5{fill:#141311;}
	.st6{fill:#0D0D0C;}
	.st7{fill:#0D0C0C;}
	.st8{fill:#151513;}
	.st9{fill:#171613;}
	.st10{fill:#131210;}
	.st11{fill:#121210;}
	.st12{fill:#191916;}
	.st13{fill:#1D1C19;}
	.st14{fill:#161513;}
	.st15{fill:#161613;}
	.st16{fill:#171615;}
	.st17{fill:#12110F;}
	.st18{fill:#E591AB;}
	.st19{fill:#1A1918;}
	.st20{fill:#21201F;}
	.st21{fill:#22201E;}
	.st22{fill:#1C1B1B;}
	.st23{fill:#191817;}
	.st24{fill:#3A3A3A;}
	.st25{fill:#161413;}
	.st26{fill:#1F1D1B;}
	.st27{fill:#FFDCDC;}
	.st28{fill:#22211F;}
	.st29{fill:#F2BBBB;}
	.st30{fill:#030201;}
	.st31{fill:#131312;}
	.st32{fill:#1C1B19;}
	.st33{fill:#1D1C1B;}
	.st34{fill:#0F0E0D;}
	.st35{fill:#0F0E0C;}
	.st36{fill:#21201E;}
	.st37{fill:#030202;}
</style>
<title>frame10</title>
<path class="st0" d="M101.1,79c-2.6-4.9-7.7-1.8-11.5-3.3c-2.2-0.8-5-0.2-5.4-3.2s-1.1-6.6,3-8.5c5.5-2.5,11.1-4.8,15.3-9.6
	c0.9-1.1,2.1-2,3-3.2c2-2.5,4.3-4.3,7.5-1.3c2.1,2,4.8,0.7,7.1,1.1c-0.8,2.7-3,1.4-4.4,1.4c-6,0-10.7,2-13.4,7.6
	c-1.1,2.1-3.1,3.6-5.4,4c-2.9,0.7-5.1,2.3-7.2,4.1c-1.6,1.3-1.6,3,0.5,3.2c5.2,0.4,10.3-1.5,15.5-1.8c2.9-0.1,3.4-3.2,5-5
	c0.2-0.2-0.1-0.6-0.4-0.8c-1.4-0.7-2.9-1.1-4.5-1.3c-3.8-1.7-4.1-2.7-1.5-5.4c2.7-3,6.7-4.6,10.7-4.3c3.1,0.2,6.3-0.4,9.1-1.9
	c5.7-1.3,9.3-6,13.9-9c3-2,5.9-4.3,9.1-6c1.8-1,3.8-2.3,6-0.7c0.9,1.6-0.1,2.5-1.3,3.2c-1.4,0.9-2.7,1.9-3.8,3.2
	c-1.3,1.5-3.3,3.2-2.2,5.1c1.2,2.2,3.1-0.5,4.7-0.4c5.9,0.5,11.2-2,16.7-3c4.4,0.1,8.4,2.1,11.2,5.5c0.4,0.5,0.7,1.1,0.9,1.8
	c0.3,1.2,1.5,2.7,0.4,3.7c-1.3,1.2-2.8,0.2-4.1-0.6c-5.9-3.5-11.9-3.7-17.8,0c-1.5,0.9-4.5,1.6-2.8,4.7l-0.1-0.1
	c3.1,3,7.8,3.5,10.7,6.8c1.9,1.5,2.8,3.9,2.2,6.2c-0.3,1.5-0.7,3-2.5,3.4c-1.4,0.3-2.8-0.6-3.1-1.9c-1.4-4.7-5.1-5-9.1-5.3
	c-4.6-0.3-8.9-1.8-13.8-0.2c-3.6,1.2-3.9-3.2-5.8-5.3c3.2,4.3,5.6,8.7,4.3,14.2c-2.4,5-5.6,5.7-8.5,1.2c-2.4-3.7-5.2-7.5-5.3-11.1
	c1,4.1,2.7,9.1,6.8,13c3,2.7,4.5,2.2,6.5-1.8c0.4-0.7,0.6-1.5,0.7-2.4c0.5-6.6,1.4-7.5,8-7.6c1.2-0.1,2.3-0.1,3.5,0
	c12.7,1.3,14.3,7.3,13.7,18.3c-0.4,7.3-4.3,13.3-6.3,20c-0.7,2.4-2.6,3.8-4.6,5c-4,3.3-7.8,6.9-11.6,10.3c-3.5,3.1-4.9,7.5-6.5,11.6
	c-1.5,3.7,2.8,4.3,4.1,6.6c0.6,1.8-0.5,3.1-1.3,4.3c1.4-1.4,2.1-4.2,5.1-3.7c3.9,2.5,4.2,6.2,3.4,10.2c-1.6,2.6-0.9,5.5-1,8.3
	c-0.3,6.8,0.5,13.6-0.5,20.4c-1.8,2.7-2.2,6.8-6.7,6.9c-2.5-2.6-1.2-5.9-1.3-8.9c-0.3-5.3-0.4-10.7,0.7-16c3-0.8,1.7,2.2,2.8,3.3
	c0-2.6-2.2-4.4-2.2-6.9c1-2.2,0.5-4.7,1.3-7c-3,10.6-3.8,21.8-2.4,32.7c1.4,11,1.3,22.1,3,33c0.2,1.1,0.3,2.3,0.1,3.5
	c-2.2,12,2.2,23.7,1.4,35.6c0,6.6,0,6.6-6.2,4.9c-3-0.8-6.1-1.4-9.2-2c-2.5-0.5-3.7,0.3-3.1,3.2c1.8,8.1,0.2,16.8,3.6,24.7
	c-0.8,1.6-0.3,4.7-3.7,3.2c-0.7-0.2-1.4-0.5-1.2-1.5c-0.8-5.8-4-11-4.2-17c0-0.4-0.1-0.8-0.1-0.8c0.4,4.8,1.5,9.4,3.3,13.9
	c0.5,1.3,2.3,2.8,0.4,4.4c-8-0.1-11.3-3.7-11.7-12.8c0-9.6,0.3-19.2-0.8-28.8c-0.6-5.4,1.3-10.5,2.1-15.7c1.3-8.9,3.1-17.6,0-26.5
	c-0.6-1.9-0.3-4-0.3-5.9c0.6-13.7,0.6-27.5,2-41.2c0.2-1.8-0.5-3.7-0.2-5.5c1-4.8-0.6-10.2,5.3-13.6c5.8-3.3,6.4-10,7.8-15.9
	c0.8-3.5,0.9-3.5,5.2-3.1c-1.8-0.4-3.6-0.7-5.4-0.8c-3.2-1.5-6.5-0.9-9.8-0.7s-5.8-0.9-7.1-4.2c-1.2-2.9-2.9-5.6-5-8
	c-2.1-2.5-2.4-5.6-0.7-7.9c3.2-4.4,3.3-9.5,4.2-14.5c0.4-2.1,1-4,2.8-5.1c3.3-2.1,5.5-5.4,8.8-7.4c-3.5,2.1-5.9,5.9-10.1,7.2
	c-1.9,0.6-3.4,2.3-5.2-0.1C102.1,77,101.9,78.7,101.1,79z"/>
<path class="st0" d="M182.6,305.8c2.1,0.2,1.8,1.4,1.6,3.1c-0.2,2.8-2.3,5.6-0.2,8.4c1.5,2.1,0.1,3.9-0.9,5.5
	c-3.8,6.4-6.8,13.3-11.3,19.3c-6.5,8.4-9.6,18.5-13.1,28.4c-3.7,10.6-7.9,21.1-11.8,31.6c-4.2,11.3-9.3,22.3-13.2,33.7
	c-2.9,5.5-7.5,7.4-13.4,6.4c-0.8-0.1-1.6-0.3-2.4-0.6c-0.7-0.4-1.3-1-1.8-1.6c-2.2-3.5-5.9-3.2-9.2-3.6c-2.9-0.3-4.3-1-3.8-4.6
	c0.6-4.7,0.3-9.5-2.3-13.8c-1.5-2.5-1.1-5.4-0.7-8.2c-0.5-5.7,2-10.9,2.4-16.4c0.2-2.9,0.6-5.8,0.6-8.8c3.7-18.1,4.9-36.6,9.8-54.5
	c2.1-7.7,5.3-14.8,8.6-21.9c2.5-5.3,3.2-11.1,3.6-16.9c2.2-1.5,0.8-3.4,0.4-5.1c0.1-4.5,3-5.9,6.8-6.3c1.7-0.1,3.3-0.3,4.9-0.6
	c3.4-0.9,6,0.1,8.1,3.2c1.7,2.8,4,5.3,6.6,7.3c3.1,2.2,2.5,5.6,2.1,8.7c-0.4,2.4,0.4,3.8,2.8,3.2c5.3-1.4,10.2,0.6,15,2
	C175.4,304.5,179.5,303,182.6,305.8z"/>
<path class="st0" d="M224,275.6v-0.1c-1.7,3-2.6,5.9-1.3,9.4c0.6,1.6,0.2,3.8-2,3.5c-3.9-0.4-6.9,2-10.4,2.6c-5.7,1.5-6.5,1-7.8-4.8
	c-0.7-3.1-2-6.2,0.2-9.1c1-1.3,0.2-1.6-0.6-2.2c-2.3-1.6-3.3-4.2-4.3-6.6c-2-4.4-1.5-4.9,3.8-4.6c-7.9-2.1-8.3-9-9.5-15.1
	c-0.3-1.6-1.1-3.2-2.3-4.4c-5-5.7-9.8-11.7-14.7-17.5c-0.9-1-1.5-2.3-1.8-3.6c-1.9-11.6-7.6-21.9-10.7-33.1c-1.3-4.8-1.8-9.7-5-13.8
	c-4.2-9.6-3.3-18.8,2.4-27.6c2.2-3.9,4-8,6.2-12c2-3.7,4.7-6,9.2-5.1c1.3,0.1,2.7,0.2,4,0.1c3.7,0.1,7.9-2.3,11.1,0.4
	c4.5,3.8,9.1,7.7,11.7,13.3c4.9,10.6,9.8,21.3,12.5,32.5c3.8,15.8,9.5,31.5,7.5,48.4c-0.9,8.1,0.3,16.2,1.7,24.2c0,0.5,0,1.1,0,1.6
	c0.1,5.8,0.8,11.6,0.2,17.5C224.1,271.4,223.1,273.5,224,275.6z"/>
<path class="st0" d="M214.7,489.1c3.3-1.4,6.4-2.4,7.3,2.7c1.6,7.1,5.6,13.3,6.4,20.7c0.4,1.8,0.6,3.6,0.6,5.4v1.7
	c-3.6,1.6-7.6,1.3-11.2,1.3c-13.5,0-26.8,1.9-40.2,2.4c-1.8,0.1-3.7,0.2-5.3-1.1c1.1-3.9,5.1-4.2,7.8-6c1.3-0.7,2.6-1.3,4.1-1.7
	c2.7-0.7,5.3-1.8,7.8-3c7.9-4,9.2-6.3,8.5-15.2c-0.4-4.3,0.8-5.5,5.1-6.1C208.5,489.8,211.8,490.7,214.7,489.1z"/>
<path class="st1" d="M223,251c-2.5-11.3-2.3-22.7-2.2-34.1c0-6.6-0.8-13.2-2.4-19.6c-4-17.2-9.6-34.1-16.7-50.3
	c-2.6-5.7-7.2-9.5-11.1-13.9c-1.3-1.5-3.8-0.9-5.8-0.8c-3.6,0.4-7.3,0.4-10.9,0.1c-3.7-0.4-5.3,2.1-6.8,4.8
	c-2.1,3.9-2.8,8.5-6.2,11.8c-1.1,0.1-1.4-0.6-1.5-1.4c0.1-1.9,1.1-3.5,1.8-5.2c5.3-12.9,6.6-13.7,20.3-13.7c3.1,0.1,6.2,0.2,9.8,0
	c-1.7-2.4-4.2-3.2-5.1-5.5c-1.6-3.5-4.8-3.8-8-3.6c-7,0.2-13.7,2.6-19.3,6.8c-3.5,2.7-7.1,5.4-11.2,7.2c-1.6-0.7-2.9-0.9-4.2,1
	c-1.2,2.1-3.2,3.7-5.6,4.3c-5.2-1.8-6.2-4.3-4.2-8.9c1.5-3.7,2.7-7.5,6.2-9.9c0.3-0.3,0.8-0.3,1.1,0c0,0,0.1,0.1,0.1,0.1
	c0.9,2.9-2,4.4-2.7,6.7c-0.6,2-2.4,3.5-2.2,5.7c0.5,0.6,1.4,0.7,2,0.2c6.7-5.4,15-7.6,22-12.4c9.6-6.6,20.2-6.6,31.1-3.5
	c4.3,1.2,1,3.5,1.4,5.2c1.2,2.1,3,3.4,5.3,2.3s1.4-3.4,0.9-5.3c-1.8-7.3-6.3-12.8-11.9-17.6c-1.5-1.2-3.5-1.8-4.5-3.7
	c0.2-0.8,0.7-1.2,1.6-0.9c3.7-0.2,5.8,2.5,7.7,4.7c6.3,7.2,12.3,14.7,10.2,25.4c-0.2,1-0.2,2.4-1.4,1.8c-2.5-1.3-4.2-1.7-5.6,1.6
	s0.3,5,2.6,7.1c1-2.2-1.1-3.2-1-5c3.1,0.2,4,3.5,3.7,4.7c-0.7,2.9,0.9,4.1,2.5,5.6c7.4,6.7,13.2,14.9,17.2,24
	c3.2,7.4,7.5,14.2,9.8,22c0.2,1.3,0.9,2.6-0.7,3.5c-2.5-1.2-2.8-4-3.8-6.2c-4-9.5-8.5-18.8-13.6-27.8c-1.2-2.1-3.1-3.7-4.2-6
	c7.6,12.6,9.6,27,13.5,40.9c2.7,9.6,3.3,19.3,3.4,29c0.1,6.9-0.8,13.9,0.5,20.8c0.2,1.9,0.1,3.8-0.1,5.7
	C224.8,249.9,224.5,251.1,223,251z"/>
<path class="st2" d="M107,520.9c-1.4,10.3-1.6,11.1-11.5,8.4c-14-3.8-28.2-7.4-41.2-14.4c-2.2-1.2-4.4-2.8-6.8-3.1
	c-5.3-0.7-4.9-5.2-6.3-8.5c0-0.4,0.2-0.9,0.5-1.1c4.9-1,8.7-5.5,14.9-3.3c7.7,2.7,16.1,1.2,24.2,2.4c2.1,0.3,4-3.3,5.7-5.4
	c2.1-2.4,3.1-5.8,6.5-7c0.8,2.6-1.1,4.2-2.1,6.1c-0.8,1.5-2.7,2.5-2.2,4.6c0.6,0.6,1.5,0.8,1.6,1.8c-0.3,0.8-0.5,1.6-0.5,2.4
	c0.4,4.1-2,5.5-5.6,5c-8.3-1.2-17,0.6-25-3.3c-1.9-0.9-4.3-0.4-7.4-0.3c14.1,4.3,25.8,11.9,38.9,16.2c1.1,0.4,2.2,0.8,3.3,1.2
	c2.6,0.5,5.1,2.4,7.7,1.9c3.1-0.6,1.3-4.5,3.1-6.2c0.2-0.2,0.5-0.4,0.9-0.5C107.2,518.3,106,520.1,107,520.9z"/>
<path class="st3" d="M124.3,117c2.5,0.1,4.7,1.4,7.3,0.8c1-0.1,1.8,0.7,1.8,1.6c0,0.3,0,0.6-0.1,0.8c-0.6,1.7-1.6,0.4-2.3,0
	c-3.6-1.9-5.6-1.6-5.6,3.2c0,3.1-2,5.9-1.7,9.2c0.2,1.7-1.6,1.4-2.3,2.1c-2.3,2.2-5.6,4-4.4,8.8l-3.1-3.8c-1.9,19.5-2.3,38.5-3,57.4
	c-0.6,0.6-1.6,0.5-2.2-0.1c-1.6-2.8-1.1-5.8-0.8-8.8c1-10.4,0.4-20.9,1.2-31.3c0.2-1.6-0.3-3.2-1.5-4.3c-2.2,1-2.1,3.1-2.3,4.9
	c-1.2,16.2-7.1,31.2-11.3,46.7c-1.1,4.1-4.2,7.1-5.7,11c-4.9,12.8-7.3,26.2-11.2,39.2c-0.3,1.5-0.8,2.9-1.4,4.2c-0.6,1-2,1.4-3,0.7
	c0,0,0,0,0,0c-1.4-0.8-0.7-2-0.2-3c0.6-1.4,0.6-2.9,1-3.7c0.1,2.4-2.5,4.7-1.2,7.8c0.2,5.6,0.8,11,2.9,16.3c0.8,2.1,1.1,4.6-2.7,3
	l-0.4-0.7c-3.8-10.7-4.6-21.3,0-32c4.7-4.3,4.5-10.8,7.2-15.9c2.7-9,6-17.8,9.9-26.3c7.2-15.3,10.6-31.6,12.9-48.3
	c0.5-3.9,0.4-8.8,6.6-8.5c1.9,0.1,2-1.4,2.2-2.7c0.4-2.1,0.7-4.3,1.2-6.4s-0.1-5.5,4.2-3.5c1.5,0.7,2.2-1.1,2.8-2.1
	c2.6-4.1,2.8-9.1,4.5-13.5c0.5-1.2-1.3-1.6-2.5-1.8C121.5,115.6,123,116.8,124.3,117z"/>
<path class="st4" d="M182.6,305.8c-6.8-0.3-13.5-1.1-19.8-3.5c-2.3-0.9-4.2,0.8-6.3,0.8s-4.8,0.3-3.9-2.7c1.7-6.1-1.3-9.6-5-13.8
	c-5.6-6.4-10.8-8.1-19-5c-2.9,1.1-1.3,3.7-2.5,5.3c-1,0.2-1.5-0.1-1.2-1.2c-1.3-4.1-3.5-8-3.1-12.7c0.3-3.8-0.2-7.6-0.2-11.4
	c0-2-0.1-3.9-2.5-5.1c7.3-1,13.9,1.1,20.6,3c1.1-1.2-1.1-2.8,0.4-4c-0.4-1.9-0.9-3.8,0.2-5.6c2.6,0.4,1.9,2.6,2.2,4.1
	c1,6.2,1.5,12.5,2.8,18.7c1.3,6.6,4.1,12.3,10.1,15.9c0.2,0.6,0-0.2,0.3,0.4c1.5,3.1-0.8,7.4,1.7,9.4c2.2,1.7,6.1,0,9.2,1.1
	c8.9,3,18,2.2,27.2,1.3c5.1-0.5,10.1,0.8,15.3-0.5c4.7-1.2,6.5-2.9,5.5-7.6c0.2-0.5,0.5-0.9,1-1.1c3.6,1.7,2.5,5.5,3.5,8.3
	c0.7,2-1.9,2-3.5,2.5c-9.3,2.7-18.9,1.5-28.3,2.3C185.5,305,184,305.4,182.6,305.8z"/>
<path class="st5" d="M189,324c3.7,0.2,2.2,3.3,2.7,5.1c2.5,8,4.6,16.1,7,24.2c2.8,9.3,5.5,18.7,8.5,27.9c1.2,3.6,3.2,6.8,4.8,10.3
	c5.9,13.2,6.7,27.4,9.2,41.3c1,5.5-0.8,10.8,0,16.1c-0.2,0.3-0.7,0.4-1,0.1c0,0-0.1,0-0.1-0.1c-0.8-8.8-3.8-17.1-5.3-25.7
	c-3.4-19.5-8.9-38.3-14.5-57.2c-3.9-13.3-7.5-26.8-11.2-40.1C189,325.3,189,324.7,189,324z"/>
<path class="st6" d="M133,434.9c7.1-19,15.2-37.6,21.8-56.8c5-14.8,9.9-29.7,19.9-42.4c4.4-5.4,7.6-11.7,9.5-18.4
	c2.2-2,2.5-4.9,4-7.3c3,1.2,0.8,3.2,0.7,4.7c-0.3,1.8-1.2,3.4-2.6,4.5c-4.4,10.1-10.3,19.4-16.2,28.7c-0.3,3.9-2.4,7.2-3.9,10.7
	c-2.5,5.4-4.3,11.1-7,16.4c-5,12.7-10.2,25.3-15,38c-3,8-7.1,15.6-9.3,24c-1.2,4.3-1.2,8.8-2.8,13c-3.8-2.1-1.3-5.3-1.4-8.1
	C130.5,439.2,132.3,437.3,133,434.9z"/>
<path class="st7" d="M151,110.1c4-2.2,3.9-7,6.2-10.1c4.6-6.2,4.3-12.9,4.6-19.8c0.3-7.8-3.6-11.6-11.3-11.8c-1,0-2,0.2-3,0.2
	c-2.5,0.1-5.3-0.6-7.3,0.3c-2.6,1.2-0.5,4.5-1.3,6.7c-0.3,0.8-0.7,1.5-1,2.3c-1.8,0-1.4-1-0.9-2.1c0.8-4.1-0.3-8.4-2.9-11.7
	c-1.4-1.9-3.5-4.4-0.5-6.9c0.7,2,1.1,4.2,2.1,6s1.9,5.2,4.9,1.4c0.9-1.2,2.8-0.3,4.3-0.1c4.6,0.6,9.2,1.6,13.8,1.5
	c3,0,2.4,2.2,3.4,3.4c1.2,1.5,1.1,5,3.1,4.3c2.8-0.9,1.5-4.3,1.5-6.6c0-0.8-1.1-1.6-1.7-2.4c-0.1-0.8,0-1.4,1-0.9
	c2.9,1.4,3,4,2.7,6.7c-0.2,2.4-0.2,5-3.5,5.5c-0.7,0.1-1.1,0.7-1,1.3c0,0,0,0.1,0,0.1c1.4,4.4-0.8,8.6-1.3,12.9
	c1.9,0.5,3.2-2.6,4.9-0.3c0.2,1.5-1,2-1.7,2.9c-3.7,3.5-6.6,7.3-7.4,12.6c-0.5,3.4-3.4,5.1-6.6,5.9
	C151.4,111.4,150.8,111.1,151,110.1z"/>
<path class="st8" d="M120.9,286.9l1.1,1.1c0.4,0.4,0.4,1,0.1,1.4c0,0-0.1,0.1-0.1,0.1c-2.4-0.7-4.8-1.2-7.1-2
	c-3.5-1.3-6.6-3-6.1-7.6c-2.3,0.2-2.7,2.1-3.2,3.1c-1.5,3.5-4.3,4.4-7.4,3.9c-3.6-0.6-0.4,2.8-1.9,2.8c-7.3,0.2-6.3,6-7.5,10.5
	c-0.8,2.9-2.4,5.1-6.1,3.9c-1.7-0.5-3.5-0.7-5.3-1.1c-8.6-2.2-11.8-7.2-9.4-15.7c0.8-2.9,1-6.4,4-8.3v-0.1c1.6,2.6,0.5,5.2-0.6,7.6
	c-3.5,7.9,2.8,13.7,11.3,14.4c2.1,0.2,2.8-1.4,3.3-3.1c0.6-2.1,1-4.2,1.8-6.2c0.9-2.4,2.3-4.8,4.5-5.7c5-2,6.7-4.8,4.7-10.1
	c-1-2.6,1-3.6,3.5-2.2c1.5,0.8,2.8,1.9,4.5,2.1c1.7,0.5,3.2-2,5-0.5c-0.4,8.4,2.4,11.4,11,12L120.9,286.9z"/>
<path class="st9" d="M220,448.9l1.1-0.1c2.2,4.1,5,7.9,5.7,12.9c0.4,3.2-0.4,5-3.1,6.4c-4.9,2.5-10.3,3.7-15.8,3.6
	c-5.6,0-11.2,1.1-16.3,3.4c-1.3,0.6-2.8,1.7-4,0.1c-1.5-2.2-2.2-4.8-2-7.5c0-1.5,2.1-1.8,3.7-1.5c2.9,0.6,2.7-1.5,2.8-3.3
	c0.2-0.5,0.3-1.2,1-1.3c1.2,2.6,2.2,3.8,5.5,2c6.1-3.2,12.5-5.8,18.5-9.3C219.7,452.9,220.5,451.5,220,448.9z"/>
<path class="st10" d="M126.1,290.1c0.8,8.4-1.1,16.8-5.6,23.9c-5.3,8.2-7,17-9,25.9c-2.2,9.2-2.9,18.6-4.5,27.9
	c-0.9,5.4-1.2,10.9-3,16.1c-1.9,0.5-1.1-1.4-1.8-2c3.7-18.1,5.1-36.5,10.1-54.3c2.6-9.3,6.5-18.3,9.6-27.5c1.1-3.2,2.8-6.5,1.8-10.1
	C124.5,289.5,125.3,287.5,126.1,290.1z"/>
<path class="st11" d="M124.3,117c-1.1,0.2-2.4-0.1-3.2,0.9c-2.7,0.2-5.5-0.8-7.6,2.2c-1.5,2.2-3.1,0.2-3.9-1
	c-3.3-5.5-5.7-11.5-10.1-16.4c-0.9-1-0.2-4,0.6-5.7c1.6-3.2,2.9-6.6,4.3-9.9c1.6-3.9,1.3-6.7-3.2-8c-0.5-2.2,0-4.5,1.4-6.3
	c2,0.6,1,1.5,0.8,2.4c-0.4,1.1-0.8,2.4,0.8,2.9c1.2,0.4,1.6-1.3,2.1-1.4c6-1.5,9.3-7.3,14.9-9.5c-2.5,4-5.9,7.4-9.9,9.9
	c-2.6,1.6-4.2,3.7-3.8,6.3c0.4,3-3.7,5.4-0.5,8.7c0.8,0.8-1.9,2.9-3.1,4.1c-2.8,2.7-2.9,5.4-0.4,8.2c0.3,0.4,0.8,0.7,0.9,1.1
	c2.8,9.6,9.8,11.8,18.6,10.8C123.4,116.3,123.8,116.8,124.3,117z"/>
<path class="st12" d="M118,440.9l1.5,0.2c0.4,0,0.7,0.2,0.8,0.6c2.3,0.9,4.8-0.3,7.2,0.7c0.4,0.2,0.7,0.6,0.8,1.1
	c-0.1,0.5-0.4,0.9-0.8,1.2c-6.2,1.1-12.5,1.2-18.6-0.8c-1.5-0.6-3.1-1.1-4.8-1.4c-2-0.3-4.7-2.5-5.7,0c-1.2,2.9,2.4,3.3,4.3,4.3
	c2.8,1.4,6.1,1.8,9.2,1c3.1,3.1,0.5,3.5-1.9,4.1c-5.7-0.1-11.2-0.7-15.9-4.6c-1.5-1.3-2.4-2.2-1.5-4c4-7.6,4.9-16,6.1-24.3
	c0.4-0.3,0.9-0.4,1.4-0.1c1,4.3,2.3,8.6,1.6,13c-0.6,3.8,0.7,5.7,4.2,6.3C110,439.2,113.8,440.9,118,440.9z"/>
<path class="st13" d="M172.1,521.1c7.6,1.7,15.1,0.2,22.6-0.6c10.2-1.1,20.5-0.3,30.6-1.9c1.3-0.2,2.7,0.1,3.7,1
	c0.7,1.1,2,1.8,1.8,3.3c-0.6,0.5-1.4,0.7-2.2,0.5c-2.1-1-4.4-1.4-6.7-1.2c-15.2,1.3-30.4,1.8-45.5,3c-0.7,0.1-0.2-0.3-0.4,0
	c-0.4,0.7,0.7,0.4,1,0.7c1.5,0.8,3.8,0.3,4.1,2.8c-4.5-0.2-8.9,1.2-13.5-1.6c-3.2-1.9-2.4-2.5-1-4.4c1.3-1.7,3.3-2.8,5.4-3.2
	C172.4,519.9,172.5,520.6,172.1,521.1C172.1,521.1,172.1,521.1,172.1,521.1z"/>
<path class="st14" d="M193.1,461.6l-1,1.3c-8.3-19.9-16.5-39.9-25-59.8c-2.2-5.3-4.1-10.8-7.8-15.3c-0.7-0.8-1.5-2.3-0.3-3.1
	c1.8-1.2,2.2,1,2.7,1.9c3.6,7.5,7.1,15,10.3,22.6c5.5,12.9,10.9,25.9,16.2,39C190.1,452.5,191.5,457.1,193.1,461.6z"/>
<path class="st15" d="M90.3,501l-3.5-0.3c1.5-2.5,3.7-4.5,5.3-7c1.5-2.2,3.6-1.8,5.7-1.1c3.5,1.1,6.8,2.9,11.7,3.1
	c-3-2.8-5.9-3.3-8.5-4.5c-1.7-0.7-4.1-0.8-4-3.5c6,0,10.9,3.4,16.4,5.1c1.9,0.6,0.8,2.5,0.5,3.9c-2.1,8.1-5.6,15.8-6.9,24.1
	c-1.2-0.8-0.8-2.2-1.1-3.3c-2.2-3.3-0.4-6.4,0.4-9.5c0.7-2.7,2.4-5.7-0.8-7.6s-6.6-3.3-10.3-0.7C93.7,500.8,92.3,502.2,90.3,501z"/>
<path class="st16" d="M111,63.1l2.9,0.1c-0.8,2.9-5.9,3.3-3.9,7.4c-2.2-0.8-4.3,0.8-6.5,0.5c-2.8-0.4-5.5-0.5-8,1.4
	c-0.5,0.4-1.2,0.6-1.8,0.6c-2.6-0.1-6.1,0.4-7.1-2.3c-0.8-2.2,2.2-3.6,4-5c1.9-1.5,4.2-2.6,6.6-3c1.9-0.3,4-1.1,4.8-3.2
	c2.5-6.4,7.6-8.2,13.9-7.9c1.4,0.1,3,0.3,4.3-0.7c1.7,0.1,3-1.9,4.9-1.1c0.3,0.2,0.4,0.4,0.3,0.6s-0.2,0.3-0.3,0.3
	c-2.7,1.9-6,2.8-9.3,2.5c-5.4-0.4-9.6,1.9-12.5,7.1l3.7,0.9c-0.2,2.3-3,1.5-3.8,3c-0.9,1.4-2.6,2.2-4.3,1.8
	c-2.7-0.3-5.2,0.4-7.7,3.5c7.3-1.4,13.8-2.2,19.1-6.5L111,63.1z"/>
<path class="st17" d="M167,44c-3.4,1.2-7.3,4-10.2,3.1c-4.6-1.4-7.4,1.4-11,2.1c-2.5,0.5-2.3-1.3-1.9-2.8c0.9-3.7,3.2-7,6.5-9
	c0.9-0.6,2.4-0.5,2.4-2.1c0-0.4,0.3-0.8,0.7-1c1.2-0.6,2.5-0.2,3.7-0.7c2.7,1.3,4.5,3.6,7,6c-2.4,0.7-5.1-0.2-6,2.6
	c1.6,1.3,3.3-0.5,4.9-0.1C164.1,43.4,166.5,41.3,167,44z"/>
<path class="st18" d="M97,487.8c3.1,3.2,7.7,3.1,11.4,5.1c1.4,0.8,3.4,1,2.3,3.4c-0.9,2.2-2.3,2-3.9,0.9c-3.3-2.1-7.4-1.8-10.7-3.9
	c-1.2-0.8-3-1.1-3.5,1.2c-0.7,3.3-3.7,4.4-5.9,6.3c-0.8-2.8,1.7-4.2,2.9-6c1.3-1.8,2.5-3.8,3.5-5.8C93.7,486.1,95.2,486.6,97,487.8z
	"/>
<path class="st19" d="M125,50.9c0-0.3,0-0.6,0-0.9c2.5-1.2,5.1-2.8,5.8-5.6c2.9-10.4,11.3-12.1,20.1-13.2c0.9,1.2,2.5,2,2,3.9
	l-0.3,0.3c-2.4-0.8-4.2,0.5-5.9,1.8c-5.5,3.9-11.1,7.7-16.2,12.1C128.6,51,126.5,49.4,125,50.9z"/>
<path class="st20" d="M181,528.8l-4-1.7c2.5-2.4,5.7-1.1,8.5-1.7c13.8-2.8,27.7-2.1,41.6-2.2c0.7-0.1,1.3-0.2,2-0.3h1.6
	c-0.5,1.7,1.1,4.5-2.9,4.2c-14.7-1.2-29.4-0.6-44,1.6C183,528.8,182,528.8,181,528.8z"/>
<path class="st21" d="M214.7,489.1c-1.3,3.7-4.5,1.6-6.7,1.8c-6.5,0.6-6.5,0.3-6.3,6.7c0.2,9-1.6,11.7-11,15.7c-2,0.7-4,1.4-6.1,1.9
	c-0.8,0.2-1.5,0.2-1.5-1c2.9-1.2,5.8-2.3,8.7-3.5c6.8-2.8,8.6-7,6.1-14.3c-0.9-2.8,2.2-6.6,6-6.9C207.4,489.1,211,489.2,214.7,489.1
	z"/>
<path class="st22" d="M155.1,58.1c-2.4-0.4-2.6-1.2-0.9-3.1c4.5-5,16-6.6,21.9-2.8c1,0.7,1.7,2.1,3.7,1.8c-0.6-1.7-1.2-3.3-1.8-4.9
	c-0.4-1.1,0.1-1.3,1-1c1.3,0.8,1.5,2.3,1.7,3.4c0.2,1.7,2.7,3.4,0.9,4.9s-3.9-0.4-5.7-1.5c-6-3.8-13.7-3.6-19.5,0.4
	C155.3,56,154.6,56.8,155.1,58.1z"/>
<path class="st18" d="M159,375c2.2-9.5,5.9-18.7,10.9-27.1c0.2,1,2.3,0,1.8,1.7C168.6,358.6,164.3,367.1,159,375z"/>
<path class="st23" d="M110,451.8c1.6-0.8,3.1-1.7,2-3.8c3.7,0.8,7.3,1.8,10.9,2.6c5.4,1.3,6.3,0.6,5.2-4.8c-0.1-0.6-0.5-1.2-0.1-1.9
	l0.2-1.2c1-0.9,2.3-1.3,3.6-1c0,2.8-2.1,5.5,0,8.2c-2,6.4-1.9,6.2-8,4.7C119.3,453.5,114.7,452.7,110,451.8z"/>
<path class="st1" d="M224,275.6c-1.4-2.1-1-4.7-0.7-6.6c0.8-5.1,0.4-10.3-1-15.2c-0.1-0.5,0.4-1.2,0.7-1.8c0.4-0.3,1.2,0.2,1.4-0.8
	c0.2-0.8,0.4-1.7,1.5-1.1c0.9,0.5,0.4,1.4,0.2,2.1c-0.2,2.2-0.7,4.5,0.7,6.9c2.4-2.4-0.3-6.2,3-7.9c-2,2.8,1.8,7.2-3.5,9.5
	c-2,0.9-1.4,5.1-1,7.4C225.7,270.7,225.2,273.3,224,275.6z"/>
<path class="st24" d="M229.2,192l1-3.3c2.7,9.6,2,19.5,1.6,29.3c-2.6-0.6-2.1-3.1-2.9-4.8c-0.8-6,0-12.1-0.9-18.1
	C227.7,193.9,228.2,192.7,229.2,192z"/>
<path class="st25" d="M209.8,289.9c2.2-1.5,5.8-0.2,7.2-3.5c0.1-0.1,0.2-0.3,0.4-0.3c1.5,0.1,3.1,3.8,4.4,0.4c0.6-1.6-1-3.9-0.7-5.7
	s1-4.2,3-5.3c-0.6,3.7-1.3,7.4,0,11.1c0.9,2.7-0.9,2.4-2.6,2.7c-2.2,0.4-5-0.5-6.2,2.5c-0.2,0.2-0.4,0.4-0.6,0.5
	c-1,0.1-2.1-0.1-3-0.7C210.9,291.2,210.2,290.7,209.8,289.9z"/>
<path class="st26" d="M102.2,382l1.8,2c0.3,8.8-2.5,17.2-3,25.9c-0.2,0.4-0.6,0.6-1,0.4c0,0,0,0,0,0c-0.6-0.6-0.3-1.6-0.8-2.2
	C99.9,399.3,102.6,390.8,102.2,382z"/>
<path class="st18" d="M228.9,517.9c-2-6-2.3-12.5-5.4-18.2c-1.2-2.1-1.2-4.8-3.3-6.5c-0.9-0.7-0.7-1,1.7-1.3
	c4.1,7.6,6.8,15.9,7.9,24.5C229.9,516.7,229.3,517.3,228.9,517.9z"/>
<path class="st18" d="M230.1,214l1.6,4c-1.2,5.3-1.1,10.7-1.7,16.1c-0.2,1.7,0.5,3.7-1.1,5.1c-1-0.6-1.8-1.6-2.1-2.8
	C226.7,228.7,226.4,221.1,230.1,214z"/>
<path class="st24" d="M79.2,231.1c0.1,3.6-1.4,7-2.1,10.5c-0.6,3-2.2,4.8-5.1,5.5c0-1.7-0.5-3.5,0.8-5.1c0.1,0.1,0.3,0.2,0.4,0.3
	s0.2,0.2,0.3,0.4c1.1-2.3,2.3-4.6,2.6-7.2C76.7,233.6,77.1,231.8,79.2,231.1z"/>
<path class="st27" d="M186.1,319.2c-0.6-3.3,4.3-5.5,2-9.2c-0.1-1.9,1.3-1.8,2.3-2c-0.5,5.3-0.9,10.7-1.4,16l0,0
	C186.7,323.2,189.3,319.4,186.1,319.2z"/>
<path class="st18" d="M166,91.9l2-1.6c5.6,1.9,10.5,5.5,16.4,6.6l-1.4,1c-2,1.7-4.3,0.9-6,0C173.3,96,169.3,94.6,166,91.9z"/>
<path class="st28" d="M228.1,237l0.9,2.1c-1,4.4-2,8.7-3,13.1c-0.1-0.3-0.1-0.6-0.3-0.9c-0.4-0.8-0.7-0.2-0.7,0.2
	c-0.1,2.8-1.2,1.3-2.1,0.5v-1l1-2.1c1.4-1.3,0.8-3,1-4.6C225.4,241.6,224.9,238.6,228.1,237z"/>
<path class="st18" d="M178.9,48.1l-1,1c-3.1-2.9-6.6-5-11-5.1l-4-1.7C169.2,41.7,174.8,42.9,178.9,48.1z"/>
<path class="st18" d="M183,514.2l1.5,1c-4.5,1.4-7.6,5.4-12.5,6l-0.2-1.5C175.3,517.2,178.9,515.1,183,514.2z"/>
<path class="st24" d="M166.1,64l-1,0.9c-2.5-1.3-5-2.6-7.5-4c-1.2-0.7-3.1-0.8-2.6-3C159,59.4,163.1,60.7,166.1,64z"/>
<path class="st18" d="M76.2,235.4c0.9,3.5-1.8,6-2.3,9.2c-1.4-0.7-0.7-1.8-1-2.6C74,239.8,75.1,237.6,76.2,235.4z"/>
<path class="st29" d="M153,35.1c-1-1.1-2.5-2-2-3.9c2.2,0.2,4.4,1,6.1,2.5C156.1,35.3,154.5,34.9,153,35.1z"/>
<path class="st30" d="M99.2,408l1,2.2c0.4,2.9,0.8,5.8-0.2,8.7l-1.2,0C98.1,415.3,98.3,411.6,99.2,408z"/>
<path class="st18" d="M126.1,290.1c-0.8-1.5-1.6,0.2-2.4,0c-0.7,0.2-1.3,0.2-1.7-0.6V288c2.8,1.6,1.1-2.4,2.8-2.2l1.2,1.2
	c0.4,1.4,2.6,0.1,2.6,1.6S126.7,289.1,126.1,290.1z"/>
<path class="st0" d="M154.9,289c-7.7-1.7-9-8.1-10.6-14.3c-2.1-8.1-2.8-16.4-3.4-24.7c-2.2-5-0.4-10.4-1.8-15.6
	c-1.2-4.3-0.8-8.7-0.3-13.2c0.8-7.2-0.6-14.5-1.3-21.7c-0.5-4.8-1.2-9.5,0.4-14.2c2.5-1.5,2.2-5.5,5.4-6.4c3.3,3.7,1.2,8.5,2.7,11.7
	c-1.1-8.2-2.3-17.2-2.1-26.2c0.1-5.2-0.9-10.5,1.2-15.6c-1.3-3,0.2-7.4-4.3-8.9c0.7-3.6,3.4-5.4,6.4-6.8c5.2-3.5,10.3-7.2,15.6-10.6
	c6.3-3.9,13.2-4.9,20.5-3.8c2.6,0.4,3.9,1.5,3.8,4.2c0,3.6-2.7,5.2-5.1,7.1c-1.1,0.2-2.3,0.3-3.5,0.3c-8.7-1.6-12.8,3.3-15.3,10.5
	c-0.9,2.5-2.1,4.8-3.2,7.2c-1,4.6-3.7,8.4-4.4,13.3c-0.9,6.3,1.3,11.2,3.1,16.5c4.8,5.9,3.4,14,6.9,20.4c1.3,2.5,1.8,5.7,3.3,8.3
	c2.5,4.4,3.2,9.4,4,14.3c0.6,3.5,2.3,6.6,4.8,9c4.7,4.7,8.9,9.9,12.5,15.5c2.1,3.1,3.2,6.1,1.1,10.1c-2.5,5,1.2,9.1,3.6,13.1
	c1.1,1.8,3,3.1,4.5,4.7c1,1.1,2.5,2.3,2.3,3.8c-0.5,4.4,0.9,8.5,1.8,12.7c0.5,2.4-1,3.6-2.9,3.9c-11.5,2.2-23,3.1-34.5,0.6
	C162.5,292.2,157.5,293.2,154.9,289z"/>
<path class="st31" d="M137.9,185.4c-1,9.2,2.1,18.1,1.8,27.2c-0.5,12.5,0.9,25,1.2,37.5c-1.5,1.7-0.6,3.7-1,5.6
	c-0.8-10.2-2.5-20.4-2.2-30.6c0.3-13.4-1.2-26.5-2.6-39.7c-1.4-13.8,0.7-27,3-40.3c0-0.3,0.8-0.5,1.7-0.9c0.1,4.7-0.5,9.4-1.7,14
	c0.4,0.6,0.7,1.2-0.2,1.6C136.6,168.2,135.9,176.8,137.9,185.4z"/>
<path class="st32" d="M110,275c-1.9,0.1-2.8,2.7-5,2c-0.5-0.5-0.6-1.2-0.5-1.9c3.6-9.2,2-18.7,1.3-28.1c-0.2-3,0.1-6,0.8-8.9
	c2.4-11.6,4.1-23.3,1.3-35.1c-0.5-2.1-0.7-4.3,1.3-6h1.7c2.9,14.7,2.1,29.2-1.4,43.8c-0.9,3.7,0.2,7.9,0.3,11.8
	C109.8,260.1,109.9,267.5,110,275z"/>
<path class="st28" d="M145,148.9c-0.7,15.2,0.2,30.5,2.8,45.5c0.2,1,0.5,2.2-0.7,2.4c-1.5,0.3-1.8-0.8-2-2.1
	c-0.6-5.2-1.2-10.5-1.8-15.7c-0.2-8.7-0.4-17.5-0.5-26.2C142.8,151.3,141.8,148.7,145,148.9z"/>
<path class="st33" d="M137,76l0.9,2.1c-1.6,4.2-3.9,5.1-7.2,2.3c-5.9-5.1-7.9-12-8.3-19.6c1.9-0.6,2.6,0.7,2.5,1.6
	c-0.8,5.1,2.9,8.6,4.3,13c0.7,2.1,2.5,3.7,4.7,4C136.2,79.6,135.8,77,137,76z"/>
<path class="st29" d="M147.1,133.1c-2.1,2.3-4.3,4.5-6.4,6.8c-2.6,1.7-2.6,5.6-5.9,7.2c-1.1-3.9,2.6-5.5,3.2-8.3
	c1.4-2.6,4.2-3.9,5.8-6.5C144.8,130.8,146.4,131.1,147.1,133.1z"/>
<path class="st29" d="M121,287c-3.7-6.1-5.4-13.1-4.8-20.2c2,6.5,3.1,13.3,5.8,19.6l-1.2,0.5L121,287z"/>
<path class="st14" d="M115.5,83.3c0.9,1.3,4.5-0.5,3.3,2.6c-0.6,1.5,0.2,4.7-2.7,4.4c-3.3-0.3-2.1-3.9-3-5.9
	C112.4,82.9,114.5,83.4,115.5,83.3z"/>
<path class="st34" d="M151,110.1l0.9,0.9c-2.4,4.3-5.3,8.2-10.6,9.2l-1.3-0.1C143.2,116.2,146.9,112.9,151,110.1z"/>
<path class="st0" d="M137.8,159.7l0.2-1.6c0.5,1,1,2,1.6,3c2,2.8,2,2.8-1.4,5.5C138.1,164.1,138,161.9,137.8,159.7z"/>
<path class="st18" d="M102,63.1c1.1-2.1,3.6-0.2,4.9-1.8c1.3,0.8,3.4-0.4,4.1,1.8l0.1-0.1C108.1,64.8,105.1,65.3,102,63.1z"/>
<path class="st0" d="M100,419l0.2-8.7c0.3-0.1,0.6-0.2,0.8-0.4c-1.3,6.2,4.1,10.8,3.7,17c-0.2,2.5,0.4,5.1-1.1,7.8
	c3.4,0.4,6.7,0.3,9.8,1.3c2,0.6,3.8,1.2,3.6,3.9c-1.2,1.4-2.8,1.1-4.1,0.5c-2.3-1.2-4.8-1-7.2-1.2c-4.9-0.4-7-2.2-5.1-7.7
	C102,427.4,98.8,423.2,100,419z"/>
<path class="st0" d="M131.9,441.7c-0.8,1.9-2.4,0.6-3.6,1l-0.1,0.2c-2.6-1.2-5.5,0.5-8-1l-0.7-0.8c5.7,0.7,10.6-0.5,13.5-6.1
	C132.6,437.2,132.2,439.4,131.9,441.7z"/>
<path class="st27" d="M105.8,439c3.9-2.3,7.5,0.9,11.3,0.8c0.3,0.4,0.7,0.7,1,1.1C113.5,443.3,109.8,440.1,105.8,439z"/>
<path class="st35" d="M166,293c11.4,2,22.7,1.3,34.1-0.4c2.2-0.3,3.4-1.2,2.3-4.1c-1.2-3.1-2.5-6.5-1.7-10.1
	c0.4-1.7-0.7-2.7-1.7-3.9c-3.3-3.9-7-7-8.7-12.7c-1.2-3.9-1.2-5.9,1-8.6c1.1-1.4,0.5-2.6-0.2-4.1c-3.5-7.4-8.8-13.3-14.4-18.9
	c-2.5-2.5-4.5-4.9-4.7-8.4c-0.6-9.9-6.2-18.1-8.8-27.4c-0.6-2.1-1.6-4-1.7-6.2c-0.1-3.6-1.3-7.2-3.6-10c-0.4-1-0.9-2,0.8-2.1
	c3,3.3,3.9,7.2,4.8,11.6c1.5,7.3,4,14.3,7.3,20.9c0.5,1,1.3,2.1,1.3,3.2c0,14,10.8,22,18.4,31.2c3,3.6,2.4,6.9,3.5,10.1
	c1.9,5.3,3.9,9.4,10.1,9.8c1,0.1,2.2,0.2,1.9,1.6c-0.2,0.9-1.2,0.8-2.1,0.9c-2.4,0.1-4.8-0.5-7-1.7c1.7,3.5,3.2,6.3,4.3,9.2
	s5,0.1,5.5,2.5s-4.3,0.9-4.1,3.9c0.3,3.8,0.6,7.6,2.4,10.9c1.2,2.3,3.2-0.1,4.8-0.2c1,0,1.8,0.5,2.3,1.3c2.1,2.5-0.4,2.7-1.7,3
	c-8.6,2-17.3,3.6-26.1,3.5c-6.9-0.1-14,0.5-20.8-1c-1-0.1-2-0.3-2.9-0.6c-1.5-0.5-3.8-0.9-3.3-2.9s2.5-0.9,3.9-0.8
	C162.7,292.7,164.5,291.9,166,293z"/>
<path class="st36" d="M158.7,176.1l-0.8,2.1c-5.2-10.5-5.3-20.6,2-30.2l1,1c-1.6,4.5-3.8,8.7-4.5,13.8S158.5,171.6,158.7,176.1z"/>
<path class="st0" d="M141.4,120.2c4.4-2,6.8-6.4,10.6-9.2c3.9-1.7,5.8-4.2,6.3-8.8c0.5-4.4,4.6-7.3,7.7-10.4
	c5.7,0.1,9.5,5.4,15.1,5.8c0.7,0,1.3,0.1,2,0.2c9.3,3.9,14.3,11.4,17.1,20.7c0.7,2.8-0.5,4.1-3.2,4.2c-1.8,0-3.6,0.2-5.4-0.5
	c-1.6-2-1.6-2,0.2-2.3c0.7-0.1,1.4-0.3,1.5-1c0.2-1.2-0.8-1-1.6-1.2c-13.3-3.2-25.2-1.4-36.5,7.2c-5.2,4-12.3,5.5-17.5,10.1
	c-0.5,0.5-1.3,0.6-1.8,0.1c-0.1-0.1-0.2-0.2-0.3-0.3c-1-0.9-1.2-2.3-0.6-3.5C136.8,127.5,139,123.7,141.4,120.2z"/>
<path class="st18" d="M228.1,237c-0.8,2.6-1.5,5.3-2.3,7.9c-1.9,0.5-1-1.5-1.7-2c-1-6.1-1.3-12.3-0.9-18.5c0.5-7.3,1-14.9-1.2-22
	c-3.3-10.8-4.6-22-8.1-32.7c-2.4-7.4-6.8-13.9-9.2-21.4c6.7,2.3,20.8,32.4,24.4,43.7c0.3,7.3,0.7,14.7,1,22
	C229.2,221.7,228,229.3,228.1,237z"/>
<path class="st24" d="M182,130c0.8-3,3.7-4.5,5.1-7.1c1.5,2.9,5.9,2.9,6.4,7.1H182z"/>
<path class="st24" d="M191.5,122.2c1.5-0.7,3-1.7,4.7-1c2.9,1.2,3.5-0.5,3.9-2.7c1,2.7,2.2,5.8-1.2,7.2
	C195.8,127.2,192.8,125.9,191.5,122.2z"/>
<path class="st18" d="M224.1,243c0.6,0.7,1.2,1.3,1.7,2c-0.2,1.5,0.9,3.6-1.8,4L224.1,243z"/>
<path class="st18" d="M90.3,501c1.6-0.4,3.3-1,4.2-2.4c1.4-2.1,2.9-2,5.1-1.6c9.7,2,10.2,2.9,7.6,12.2c-0.6,2.7-1.1,5.5-1.4,8.3
	l-2,9c-19.8-4.1-36.7-15.3-55.5-21.7c5-0.8,9.8-1.8,14.7,0.7c3.5,1.7,7.4,1.6,11.2,1.6c3.5,0,6.9,0.3,10.4,0.6
	c3.1,0.2,5.6-1.1,3.9-4.1C86.7,500.4,90.8,502.5,90.3,501z"/>
<path class="st24" d="M97.1,527.5c-17.7-4.3-35-9.4-50.5-19.5C64.3,512.3,79.7,522.5,97.1,527.5z"/>
<path class="st24" d="M64.7,503.6c3.5-0.8,7.1-0.8,10.5,0C71,506.3,67.8,504.9,64.7,503.6z"/>
<path class="st0" d="M109.2,197c0.1,9.7,3.1,19.2,0.9,29c-0.5,2.2-0.5,4.6-1.1,6.8c-2.6,9.1-1,18.4-0.9,27.6
	c0.1,5.7,1.1,11.6-3,16.6c-0.2,0-0.3,0-0.5,0c-2.6-0.1-4.3-4.5-6-2.9c-1.2,1.1,0.1,5.2,0.8,7.9c0.3,1.2,1.2,2.5-0.5,2.6
	c-8.3,0.5-10.3,6.5-11.3,13c-0.8,4.8-2.9,5.3-7.1,4.2c-10.7-2.9-13-7-9.2-17.2c0.5-1.8,0.8-3.7,1-5.6c0.9,0.6,1.7,1.9,2.9,0.9
	c0.8-0.7,0.1-1.5-0.3-2.2c-3.4-5.5-3.5-11.5-3.5-17.6c0.9-1.3,3,0.4,3.7-1.4c4-15.7,5.9-32.4,13.6-46.6c7.1-13.1,8.2-27.6,13.9-40.9
	c1.8-4.3,1-9.7,1.5-14.6c0.2-1.5,0.4-3,0.8-4.4c0.5-1.8,2.1-2.1,3.6-2.1c2.3,0,0.8,1.7,1,2.5c2,7.9-0.4,15.8,0.3,23.6
	C110.3,183.2,108.1,190,109.2,197z"/>
<path class="st29" d="M74.9,258.7c-0.6,2.1-2.4,1.1-3.7,1.4c0-4.1,1.4-8,4-11.1c-0.6,2.8-1.3,5.6-2.2,8.3
	C71.8,260.2,73.7,258.9,74.9,258.7z"/>
<path class="st24" d="M166,293h-9c1.7,2.2,3.8,2.2,5.7,2.4c15.2,1.4,30.5,1.9,45.4-2.5c1.3-0.4,3.9,1.6,4.1-1.7
	c1.1-0.4,1.7,0.7,2.5,1c2,7.1,1.9,6.8-5.1,9.3c-6.7,2.4-13.5-0.3-20.2,0.9c-8.8,1.6-17.9,0.8-26.3-2.5c-2.1-0.8-3.9,0.5-5.8,0.9
	s-3.4-0.4-2.8-2.2c1.2-3.3-0.4-6.5,0.4-9.8L166,293z"/>
<path class="st18" d="M124.5,280.5c-1.3-7.4-1-14.1-0.8-20.8c0-1.7,0.7-1.5,1.8-1.4c4.1,0.5,8.2,1.5,12.1,2.9
	c1.6,0.5,2.8,1.9,2.8,3.6c0.2,2.5,0.8,4.9,1.2,7.3c0.3,1.8,2.2,4.7,0,5.2s-5.1,2.5-7.7-0.4C132.1,275.1,126,277.1,124.5,280.5z"/>
<path class="st18" d="M210.1,391.5l4,10.6C210.8,399.3,210,395.6,210.1,391.5z"/>
<path class="st29" d="M216.5,420.4c-1.1-3.4-1.5-7-1.4-10.6C217.7,413.5,217,417,216.5,420.4z"/>
<path class="st24" d="M206.2,469.9c-5.2-0.4-9.7,1.4-14.2,3.1c-1.7,0.6-3.3,1.1-3.7-1.4c-0.2-1.9-0.3-3.2,2.6-3.5
	c6.2-0.5,11.9-3.7,17.7-5.7c2.6-0.9,5.8-3.8,8.7-5.9c2-1.5,4.3-3,6.2,0.3c2.1,3.5,1.5,8.2-1.3,9.6
	C217.3,468.9,211.8,470.1,206.2,469.9z"/>
<path class="st27" d="M128,443.9c3.8,2.8,1.9,6,0.7,9.1c-0.2,0.7-0.8,1.1-1.5,0.9c-0.2,0-0.4-0.1-0.5-0.3c-3-2.1-6.6-3.2-10.3-3
	c-2.1,0-2.2-2.9-4.4-2.7c-1.1,1.3-2,2.6-4.2,1.9c-3.3-1-6.6-2.3-9.7-3.8c-2.5-1.3-2-3.1-1.3-5.1c0.8-2.7,2.6-1.5,4-0.9
	C109.5,443.7,118.7,444.5,128,443.9z"/>
<path class="st37" d="M120.2,441.9c2.7,0.5,5.6-1.7,8,1c-2.9,0-5.8,0-8.8,0c-0.1,0-0.2-0.2-0.2-0.3L120.2,441.9z"/>
<path class="st29" d="M229.1,522.9c-0.2,0.9,0,2.2-1.5,2.1c-15.2-1.3-30.2,0.1-45.2,1.8c-1.8,0.2-3.6,0.2-5.4,0.3
	c-2.3-0.2-5.2,1-5.7-3.5c12.2,1.3,24.2-1.9,36.4-1.7c4.8-0.1,9.6-0.4,14.3-1.1C224.8,520.5,227.2,520.9,229.1,522.9z"/>
<path class="st29" d="M102,63.1l9.1-0.1c-2.5,3.6-5.8,6-10.3,5.8c-4-0.2-7.2,3.9-12,1.5c3.2-3.3,5.8-7,11.5-5.3
	C101.7,65.4,101.7,64,102,63.1z"/>
<path class="st24" d="M157.9,38.6c-3.1,4.6-7.7,6-12,8.5C148,40.2,151.7,37.5,157.9,38.6z"/>
<path class="st27" d="M133.1,44.6c2.2-7,6.3-10,15.4-11.3L133.1,44.6z"/>
<path class="st24" d="M167.1,288c-3.9,1-7.9-0.5-10.2-3.9L167.1,288z"/>
<path class="st24" d="M196.7,268.7c-2.9-1.5-4-4.1-4.9-7.9C195.9,262.7,195.5,266.1,196.7,268.7z"/>
</svg>
