<?xml version="1.0" encoding="utf-8"?>
<!-- Generator: Adobe Illustrator 24.0.1, SVG Export Plug-In . SVG Version: 6.00 Build 0)  -->
<svg version="1.1" id="Layer_1" xmlns="http://www.w3.org/2000/svg" xmlns:xlink="http://www.w3.org/1999/xlink" x="0px" y="0px"
	 viewBox="0 0 281 575" style="enable-background:new 0 0 281 575;" xml:space="preserve">
<style type="text/css">
	.st0{fill:#FEFEFE;}
	.st1{fill:#3A3A3A;}
	.st2{fill:#231F1B;}
	.st3{fill:#201D1B;}
	.st4{fill:#231D1A;}
	.st5{fill:#211E1B;}
	.st6{fill:#1C1816;}
	.st7{fill:#E591AB;}
	.st8{fill:#181311;}
	.st9{fill:#F2BBBB;}
	.st10{fill:#1C1815;}
	.st11{fill:#1A1714;}
	.st12{fill:#201E1B;}
	.st13{fill:#191715;}
	.st14{fill:#1F1814;}
	.st15{fill:#FFDCDC;}
	.st16{fill:#090808;}
	.st17{fill:#171412;}
	.st18{fill:#0F0C0B;}
	.st19{fill:#1C1A18;}
	.st20{fill:#0B0908;}
	.st21{fill:#201C18;}
	.st22{fill:#181412;}
	.st23{fill:#1B1816;}
	.st24{fill:#050302;}
	.st25{fill:#120F0C;}
	.st26{fill:#1D1715;}
	.st27{fill:#241F1B;}
</style>
<title>frame6</title>
<path class="st0" d="M172,292.9c1.5,2.9,7,3.7,11.1,1.3c2.2-1.3,4.1-2.2,6.1,0.1c1.2,2.9-1.6,4.9-1.8,7.4c-3,1.5-2.7,4.6-3.6,7.2
	c-0.7,1.8-0.8,3.8-2.1,5.5c-0.4,0.2-0.8,0.4-1.2,0.5c-0.5,0.2-1.1,0.4-1.2,0.9c-2.3,9.1-9,16.6-10.1,26.2
	c-1.5,5.1-3.3,10.3-3.7,15.5c-0.7,9.9-6.1,14.9-14.9,17.7c5.8-0.1,10.2-4,15.5-5c5.3,0.8,8.4,3.8,10.1,8.9c2.5,7.3,8,13,11.4,19.8
	c4,8.2,9.5,15.5,12.9,24c0.4,1.3-0.3,2.7-1.6,3.3c-6.6,2.5-11.1,8.1-17.3,11.1c-2.8,1.6-5.3,2-6.7-1.8c-3.3-7.4-8.3-14-14.6-19.1
	c-5.7-4.7-10.7-9.9-15.9-15c-5.6-5.4-11.6-10.4-18.1-14.7c-4.4-3-8.1-6.9-11-11.3c-2.4-3.6-3.5-7.5-1.5-11.7
	c0.5-4.6,0.9-9.2,1.5-13.7c-0.8,4.6-1,9.3-1.7,13.9c-0.3,1-0.7,2-1.9,2c-1.4-0.1-1-1.4-1.1-2.3c-0.3-9.5-1.4-18.8-2.3-28.2
	c-0.4-4,0.9-8.2,0.3-12.3c0.1-4.2,0-8.3-0.5-12.4c0-4.1-1.1-8.1,2.2-11.9c3-3.4,0-14.2-3.6-15.9c-0.2-0.3-0.5-0.6-0.4-0.9
	c2.9-6.7,0.5-14.3,3.4-21c1-2.3,4-4.2,1.4-7.3c-0.6-4-0.6-8.1,0-12.2c0.2-0.8,0.7-1.4,1.4-1.8c3.4,6.2,9.8,7.3,15.7,9.4
	c2.2,0.8,3.3,2.5,0.3,3.6c4.3-0.4,5.5,0.5,5.8,5.3c0.2,4.5,0.3,9,1.9,13.2c0.3,3.8-1.1,6.6-4.7,8.3c-3.6,1.5-6.2-1.3-9.2-2.3
	c-2-0.6-3.8-1.8-5.8-2.5c2.6,1.2,5.3,2.3,8,3.6c0.8,0.3,1.3,1.1,1,1.9c0,0,0,0,0,0.1c-0.2,0.8-1,0.8-1.6,0.7c-2-0.3-3.8,1.3-5.5,1
	c4-0.3,8.3-2,12.8-0.7c1.6,1,3.5,1.4,5.2,2.4c1.2,1.6,0.3,3.2-0.5,4.6c-1.2,2.2,0.8,1.4,1.6,1.8c2.5,1,5,1.7,7.7,0.9
	c6.8,1.2,13.5,0.7,20.3,0.2C167.6,291,170.1,290.9,172,292.9z"/>
<path class="st0" d="M211,262.1v1.7c0.2,4.3,1.4,8.7-0.6,12.9c-0.6,1.4-2.1,2.3-3.6,2.2c-7.6,0.2-15.1,1.3-22.7,2.2
	c-3.9,0.5-7.5-1.2-11.2-1.9c-9.3-1.7-18.9-0.2-28.1-2.8c-3-0.8-5.7-1.7-7.6-4.3c-4.5-9.3-3.2-19-2.2-28.7c0.4-2.3,0.6-4.6,0.6-6.9
	c-0.9-9.6-0.2-19.3-1.4-28.7c-1-6.8-1.5-13.7-1.6-20.6c-0.1-2.2,0.1-4.3,0.7-6.4c0.2-4.6,1.3-9.2,1.6-13.8
	c0.8-6.1,1.9-12.3,1.7-18.5c-0.8-6.7,1.2-13.2,2.5-19.6c1.7-8.5,12.6-15.5,21-13.4c2.9,0.7,5.2-0.6,7.8-0.4c1.3,0.1,2.9,0,3.3,1.6
	c0.4,1.8-1.2,2.2-2.4,2.5s-2.5,0.8-3.8,1.1c-7.1,1.9-11.5,6.1-12.6,13.6c-0.5,3.3-1.5,6.5-4,9c0,0-1.7,0.6,0,0.8c0.3,0,0.6-0.1,1,0
	c2.8,2.9,0.7,6.2,0.7,9.3c0,2.1-0.8,4.2-0.5,6.3c1.1,3.8-0.3,7.2-1.7,10.6c-2.7,3.8-0.9,8.2-1.6,12.3c0.3-0.3,0.7-0.5,1.1-0.6
	c4.2,1.5,4.4,2.2,1.7,7.5c-1.5,5.6-1,11.6,1.6,16.9c0.3,0.7,0.4,1.5,0.3,2.2c-1,6.1-4.2,12-1.2,18.3c0.9,5.4,1.9,10.7,6.6,14.4
	c0.6,0.5,0.9,1.1,1,1.9c-0.2,0.7-0.6,1.3-1.2,1.7c-4.3,2.6-4.3,2.6-0.2,8.2c1.4,1.9,2.2,4.2,5.6,2.7c2.2-0.9,3.1,1,2.5,3.3
	c-0.6,1.6-0.8,3.2-0.7,4.9c0,4.8,1.1,5.9,5.7,6.2c1.2,0.1,2.3,0,3.5,0c8.9,0,8-0.3,11.2-8.7c2.3-6.2,2.1-14,8.7-18.2
	c1.6-1,0.7-2.2,0.4-3.5c-0.9-2.9-0.5-6.1,1.2-8.6c2.7-4.1,4-8.7,6.1-13.1c1.9-4,0.8-8.2,0.8-12.3c1.3-5.2,0.4-10.1-1.5-15.1
	c-2.2-6.1-2.7-12.7-4.3-18.9c-2.3-11.5-5.6-22.9-6.5-34.7c-0.4-5.5-2.8-10.6-5.6-15.3c-0.7-1.1-1.4-2.4-2.8-2.6
	c-5.6-0.9-10.8-2.8-16.8-3.3c-9.7-0.7-17.4,2.9-25.8,5.9c-1.1,0.5-2.2,0.7-3.4,0.7c-2.4-0.4-3.3-1.6-1.6-3.7c2-2.3,4.3-4.2,5.5-6.3
	c-2.4,3.2-5.2,6.1-8.4,8.7c-3.3-0.4-2.8-2.7-2.5-4.9c3.9-4.8,8.9-8.5,14.7-10.9c6.4-2.8,10.5-7,12.1-14.1c0.8-3.8,2.4-7.6,5.7-10.4
	c2.8-2.7,6.4-3.3,10-3.8c2.9-1,5.4,0,7.7,1.6l2.5,0.9c2.4,1.2,5.7-0.4,7.5,2.6c0.6,1.1,1.2,2.2,1.9,3.2c2.4,2.5,4.1,5.6,5,9
	c1.3,4.9,2.9,9.8,5,14.5c2.1,4.3,0.2,8.7-0.4,13.1l-1.9,2.4c-3.5,1.4-4.3,3.1-1.9,6.5c6.4,9.1,9.5,19.7,13.2,30
	c0.3,2.8,1.5,5.4,2.3,8.1c5,13.7,9.7,27.5,4.7,42.3c-1.2,3.8-1.6,7.8-1.4,11.8c-1.6,1.7-0.8,3.8-1.1,5.7c-1.2,4.3-1.8,8.8-1.7,13.3
	c-0.6,3.7-0.8,7.4-0.8,11.1C210.3,255.8,208.6,259.1,211,262.1z"/>
<path class="st0" d="M128,115.2c0.4,1.7-1.1,4.1,1.7,4.9c1,2.8-0.9,4.9-2.5,6.3c-2.6,2.3-3-0.4-3.7-1.7c-0.2,0.7,0.6,1.7,0.6,2.8
	c0.2,2-0.5,3.9-0.7,5.9c-0.7,2.5-0.3,5.1-1,7c-0.2-0.8,0.8-2.2,0.6-3.7s0.6-2.8,0.5-4.2c1.9-4.1,3.8-7.8,8.9-9.2
	c2.8-0.9,5.5-2.1,8.1-3.5c0.8-0.4,1.7-0.3,2.3,0.4c0.4,0.6,0.4,1.3-0.1,1.9c-4.6,5.8-4,13.1-5.5,19.8c0.3,8-1.2,15.9-0.7,23.9
	c-2.1,4.5-2.4,9.4-2.4,14.3c-0.1,1.6-0.6,3.2-0.6,4.9c-0.7,3.8-0.6,7.8,0.1,11.6c-0.8,7,2.8,13.6,2,20.6c-0.7,6.6,0.5,13.2,0.6,19.8
	c0.1,3.5-1.1,6.8-1.2,10.3c-0.1,2.6-2.2,3-4.4,2.7c-4.8-0.8-9.1-3-13.4-5c-3.5-1.7-3.6-6-4.4-9.5c-0.2-2.9,0.3-5.8-0.7-8.5
	c-0.5-3.8-0.2-7.6-0.3-11.4c-1.2-9.2,1.5-18,2-27c0-0.9,0-1.7,0-2.6c1.3-4.5,0.7-9.1,1.3-13.6c2.2-7.6,1.1-15.5,2.1-23.2
	c0.3-2.6,1.8-5.1,0.2-7.7c-5.6-3.7,0.9-4.8,1.6-7.1c0.9,0.7,1.2,1.5,0.9,1.8c0.2-1.2,1-3-0.7-4.8c-0.1-1.3-0.5-2.5-1.3-3.5
	c-1.5-2.3-0.7-4,2.2-4.6c0.1,0.1,0.3,0.2,0.4,0.3c0.2,0.3,0.7,0.5,0.7,0.4c0.2-3,1-6,2.4-8.7c1-1,1.9-2.1,3.4-2.2
	C127.6,113.3,128.1,114.2,128,115.2z"/>
<path class="st0" d="M133,29.1c1-0.4,1.8-1.2,2.1-2.2c4.9-2.9,9.3-6.9,15.1-8.2c1.8-0.3,3.7,0.2,5.1,1.3c3.1,2.4,2.9,3.9-0.8,5.5
	c-5.6,2.4-10.4,5.6-12.7,11.6c-0.8,1.4-1.1,3-1,4.6c5-1.9,9.5-4.5,14.2-6.7l-0.1,0.1c2.6,0,5.2-0.4,7.9-0.4c2.2,0.1,4.3,0.2,5.5,2.5
	c0.1,0.5-0.1,1-0.6,1.3c-1.2,0.6-2.6,0.8-3.9,0.5c-7.2-1.3-10.8,3.5-15.1,8.6c6.4,0.1,11.1,2.7,15.8,5.6c1.9,1.9,3.5,4,3.9,6.7
	c0.3,1.3,1,2.7-0.3,3.7s-2.4-0.4-3.4-1.1c-6-4.3-12.3-7.8-20.2-7c-1.6,0.2-2.4-1.4-3.6-1.8c2,1.5,4.4,2.8,5.7,5.2
	c0.3,0.6-0.1-0.1,0.3,0.4c1.5,2.5,3.8,5.6,0.9,8c-3.2,2.6-5.7-0.5-7.8-2.8c-1.9-2-4-3.9-6.8-4.7c-1.4-0.6-2.9-0.8-4.3-1.2
	c-5.2-1.6-9.5,1.9-6.5,7.2c0.7,1.3,1,2.9,0.7,4.4c-0.3,2-1,4-3.3,4.4c-2.6,0.5-4.1-1-4.9-3.2s-1.3-4.5-3.2-6
	c-0.3-0.1-0.3,0.3-0.5,0.5c-5.4,3.6-9.1,8.7-12.8,13.8c-5,0-6.1-1-5.8-5.4c0.3-3.1,0.2-6.3,1.8-9.1c1-1.7,0.5-1.4-0.6-0.5
	c-0.9,0.3-2,0.2-2.8-0.4c0-2.5-1-3.5-3.5-2.7c-1.4,0.4-3.2,0.7-3.7-1.3c-0.5-1.7,1.3-2,2.3-2.8c2.2-1.5,4.9-2.1,7.6-1.6
	c1.2,0.2,2.3,0.6,3.4,0.8s2.6,0.6,4.1-0.5c-1-1.8-2.9-1.6-4.5-2.3s-3.8-0.5-3.8-3c2.5-2.2,3.8-6.1,8.1-5.8c4.3,1.7,8.8,0.9,13.2,0.9
	c2.8,0,4.7-2,6-4.5c0.8-1.6,1.4-3.9,3.6-3.3c1.9,0.5,0.2,2.8,0.9,4c-0.5-3.3,1.4-5.8,3.4-8.2l-0.1,0.1C129.2,32,131.4,30.9,133,29.1
	z"/>
<path class="st0" d="M111.2,385.5l-0.2-1.9c0.4-2.9-1-5.8,0.1-8.8c0.8-2,1.8-2.7,3-0.7c5.4,9.2,14.9,14,22.8,20.3
	c3.4,2.9,6.7,6,9.6,9.4c1.9,2.1,2.9,5,2.5,7.9c-0.3,3-0.5,5.9-0.8,8.9c-0.4,5.4,0,10.8-0.2,16.2c0,0.9-0.2,1.7-0.8,2.4
	c-8,0.1-15.7,2.4-23.6,2.9c-2.8,0.2-5.2-1.1-5.2-4.6c0.2-2.9,0.9-5.9-0.4-8.8c-0.2-2.9,0.3-5.9-0.4-8.8c-2.2-8.7-3-17.7-6-26.1
	C111.7,391.1,111,388.3,111.2,385.5z"/>
<path class="st1" d="M215,462.5l3.9-1.1c1.4-2.2,3-1.3,3.9,0.2c2.1,3.3,4.8,6.3,7,9.6c2,2.4,2.1,5.8,0.2,8.2c-1.2,2-2.5,3.9-3.7,5.8
	c-0.7,1.1-1.3,2.6-3,1.8c-1.5-0.7-0.5-2-0.5-3.1c0.1-0.5,0.2-1,0.3-1.5c1.1-2.1,0.6-4.6,1.4-5.8c-0.3,0.9-0.5,1.7-0.6,2.6
	c-0.7,3-1.2,6.1-1.6,9.2c-0.4,3.7-1.1,7.7-4.8,9.9c-1.5,0.9-0.9,2.2-0.9,3.5c0,3.7-1.8,6.7-4.3,9.2c-1.8,1.8-2.7,1.3-3.4-2.2
	c-0.7,4.4-2.5,8.6-5.3,12.1c-1,1.2-1.9,3.5-3.6,2.9c-2-0.7-1.3-2.9-1.2-4.7c1.5-6.6,1.9-13.4,4.2-19.8c1.4-3.4,1.1-7,1-10.6
	c-0.2-2.6,0.2-5.2,1-7.7c0.8-1.5,0.6-3.3-0.3-4.6c-2.1-2.9-0.7-4.8,1.8-6.4C209.3,467.8,212.7,465.8,215,462.5z"/>
<path class="st2" d="M224,482c0.1,1.6-1.4,3-0.2,5c0.4-0.5,0.8-1.1,1.2-1.6c1.6-3.7,6.5-6.9,5.4-10.7c-1.4-4.8-6.3-8.1-8.5-13
	c-0.6-1.4-1.9-0.9-3-0.2c-0.2-1.5,0.3-2.9,1.5-3.3c1.6-0.5,2,1.4,2.7,2.4c1,1.3,1.1,2.7,3.8,2.2c1.3-0.3,3.6,3.5,4,6.2
	c0.2,1.3,0.2,2.2,1.8,3c6.1,2.7,6.1,3.1,1.2,9.1c-1.1-1-0.8-2.2-0.4-3.5c-4.2,6.3-7.9,12.8-11.1,19.7c1.1-2.5,1.9-5.2,4.7-6.5
	c1.2,0.2,1.5,1.1,1.4,2.2c-1.4,3.1-2,6.6-4.6,9.1c-5.5,8.5-10.6,17.4-16.5,25.7c-2.9,4-5.1,1.2-7.5,0.7c-2.6-0.6-4-2-2.1-5
	c0.7-1.1,0.2-2.9,0.3-4.4c1-0.1,1.5,0.2,1,1.3c0.2,1.1,0.4,2.1,0.6,3.3c6.3-4.4,6.5-12.6,11.1-17.8l1.1,0.6
	c-0.9,1.7-1.8,3.4-2.8,5.4c4.8-2.4,6.4-6.3,5.4-11.7c-0.1-0.7,0.2-2.2,0.5-2.3c7.5-1.9,5.3-8.7,6.9-13.5c0.6-1.7,0.9-3.5,1.3-5.3
	C225.3,479.5,224.3,480.8,224,482z"/>
<path class="st3" d="M146.8,438.5l0.4-1.6c1-5.8-0.3-11.7,0.7-17.5c2.8-16.5-10.4-22.2-20.1-30.5c-5.5-4.7-13-7.4-15.2-16.1
	c-2.4,3.8-0.4,7.5-1.7,10.7c-1.6-4.2-0.8-8.8-0.9-13c-0.1-10.6-1-21.2-2.6-31.8c-0.9-5.5,1.4-10.5,0.8-15.8h0.7
	c0.8,12.2,1.5,24.3,2.3,36.5c0.1,1.9-0.4,3.9,1,6.1l1-2.6c1.1-0.1,1.4,0.4,1.1,1.4c-2,6.6,1.9,11,5.8,15.3s9.2,7,13.5,10.8
	c14.9,13.3,30.3,26.1,41.8,42.6c0.3,0.5,0.2,1.2,0.3,1.8c-1.7,0.5-2.2-1-3-1.9c-5.5-9.4-13.5-16.5-22.4-23.2
	c-2.2,9.4-0.4,18.9-1.6,28.2c-0.7,1.1,0.3,3-1.7,3.5c-0.5,0-0.9-0.2-1.3-0.4C145.4,439.9,146.7,439.4,146.8,438.5z"/>
<path class="st4" d="M92.1,529.7c-1.2-1.1-2.3-2.3-3.4-3.5c-2.3-3.2-1.2-5.3,2.2-7c7.8-3.9,16.5-5.7,23.6-11
	c2.5-1.7,4.1-4.4,4.4-7.5c0.5-5.8,3.4-8.5,9.3-8.8c2-0.2,3.9-0.5,5.9-0.9c6.8-1.1,11.1,2.7,11,9.6c0,6,0.8,12,0.1,18
	c-0.1,0.5,0,1,0.2,1.4c2.3,2.8,2.3,2.8-0.4,4.8c-0.6-0.2-1.2-0.6-1.6-1.1c-2.8-3.2-6.8-0.7-9.9-2.1c-2.1-0.7-4.4,0-6.3-1.4
	c-0.5-2.7,1.7-2.3,3.1-2.5c2.5-0.3,5,0,7.5-0.2c4.3-0.2,5.2-1.3,4.9-5.6c-0.3-2.3-0.9-4.6-1.8-6.7c-0.6-1.6-1.4-3.4-0.5-4.8
	c2.4-3.5-0.1-4.2-2.5-4.9c-1.4-0.4-2.9-0.7-4.4-0.8c-3.2-0.2-5.3,1-5,4.5c0.7,5.9-2.4,8.2-7.4,10.5c-5.7,2.7-11.9,5.1-16.7,9.6
	c-0.5,0.5-1.1,1-1.7,1.3c-1.8,0.8-3.8,1.3-5.7,1.6c-3.6,0.9-3.5,2.4-0.7,4.4C96.1,529.5,93.1,528.2,92.1,529.7z"/>
<path class="st1" d="M204.2,423.9c0.6-0.2,1-0.9,1.7-0.2c0.2,0.3,0.4,0.5,0.7,0.7c5.3,5.6,5.1,5.9-1.4,9.9c-7.2,4.5-15.4,6.1-23,9.4
	c-1.3,0.6-2.6,0.8-3.5-0.7c-1.5-2.3-0.6-4.1,1.4-5.5c3.1-1.2,5.9-3,8.2-5.4C192.9,427.9,198.8,426.4,204.2,423.9z"/>
<path class="st5" d="M138,272c4,4,9.3,4,14.4,4.3c10,0.7,20,1.7,30,3.2c6.8,1,14-0.9,21-1.9c2.3-0.3,5.1,1.4,6.8-1.6
	c0.3-0.3,0.7-0.3,1-0.1c0.1,0.1,0.1,0.1,0.1,0.2c1.9,3.1-1.6,4.3-2.7,5.3c-2.4,2.3-3,6.9-7.6,6.6c-0.3-0.4-0.4-1-0.2-1.5
	c0.6-1.7,2.3-2.8,3.5-4.9c-3.5-0.6-7-0.5-10.4,0.5c-5.5,1.3-11.2,1.3-16.8,0c-11.9-2.5-24-2.6-36.1-2.7c-0.5,0.1-0.9,0.1-1.4,0
	c-1.5-1-1.7-2.8-2.9-4C137.3,274.4,136.1,272.6,138,272z"/>
<path class="st6" d="M98,79.3c2.9-5.1,4.8-10.9,11.7-12.6c2.6-0.6-0.8-2.9,0.8-4.5c2,2.5,5.2,3.9,5,8c-0.1,2.1,1.2,4.7,4,3.9
	c2.3-0.7,3.4-3.1,2.5-5.7c-0.3-1-0.7-1.9-1.1-2.8c-0.8-2-2.1-4.2-0.3-6s4.1-3.4,7.1-2.4c1.9,0.6,3.8,1.1,5.7,1.7
	c-0.5,1-1.4,1.6-2.4,1.9c-1.1,0.2-2.3,0.3-3.5,0.1c-2.6,0-3.7,1.3-3,3.8c0.5,1.6,0.8,3.2,0.8,4.9c-0.2,3.8-1.8,6.5-5.6,7.3
	s-6.1-1-7.4-4.4c-0.4-1.1-0.9-2.2-1.4-3.3c-0.8,0.9-1.8,1.7-2.9,2.2c-4.7,3.1-6.8,7.4-6.1,13.2c0.6,4.6,1.4,9.4-3,12.8
	c-0.5,0.1-1.1-0.1-1.4-0.5c1.5-3.6,0.8-7.3,0.6-11.1c-0.2-3.3-1.4-5.3-5-5C94,78.1,96.6,80.4,98,79.3z"/>
<path class="st7" d="M166,370.9c-3.9,1.7-7.7,3.5-11.6,5.2c-2.3,1-4.8,1.3-7.2,0.6c0.3-2.1,1.8-3.6,3.2-3.5c4.2,0.3,6.2-3.3,9.5-4.7
	c2.5-1.1,1.8-4.2,2.5-6.1c2.1-5.1,2.6-10.6,4.3-15.7c0.5-1.6,0.9-3.2,1.3-4.8c1.5-0.7,1,3.4,3,1.2c0.3,0.6,0.3,1.3-0.1,1.8
	c-2.1,5.8-4.6,11.5-6.1,18.4c5-5,5.9-11.2,8.6-16.4c-0.6,4.6-1.2,9.1-4,13.2c-1.9,2.7-4.7,5.7-2.5,9.7
	C167,370.6,166.3,370.6,166,370.9z"/>
<path class="st7" d="M111,261.1c-1.5,5.4-3.3,10.7-1.4,16.3c0.2,0.5,0.3,0.9,0.4,1.4c-0.4-0.1-0.8-0.2-1.3-0.2
	c-2.8,0.4-1.5,2.8-2.1,4.3c-0.5,2.3-1.9,4.5-0.5,7c0.3,0.3,0.3,0.9,0,1.2c0,0,0,0-0.1,0.1c-4.3,2.5-7.1-1.8-10.8-2.4l0.8-1
	c6.2,0.7,7-3.1,7.6-8.1c0.4-3.2,1.1-6.5,1.7-9.8c0.6-2.7,1.9-5.3,1-8.2c1-4.5,3.5-8.8,2.6-13.7c-0.1-0.8-0.1-1.6-0.8-2.2l-0.3-7.9
	c0.7-1.2,2.1-1.7,3.4-1.1c1.4,1.3,0.2,3,0.6,4.4c0.1,4.5,0.2,9,0.3,13.4C112.4,256.9,111.5,259,111,261.1z"/>
<path class="st1" d="M128,115.2c-1.1-0.4-1.1-1.2-0.8-2.1c3.8-5.2,8.4-9.7,13.6-13.3c0.7,0.2,1.2,0.7,1.5,1.3
	c0.1,0.4-0.1,1.3,0.1,1.3c3.5-0.8,8.8-6.8,9-10.1c0-1-1.1-1.1-1.5-1.7c-1.1-3-2.7-6,1-8.4c0.4,3.4,1.7,4.1,4.2,1.5
	c1.2-1.2,2.6-2.3,4-3.5c0.9-0.4,1,0.1,0.9,0.9c-2.5,4.1-4.4,8.4-5.6,13c-0.9,3.6-2.5,6.7-6.1,8.5C141.2,106.2,134.4,110.4,128,115.2
	z"/>
<path class="st1" d="M114.9,188c0.1,4-0.3,7.9-1.3,11.8c-1.2,5-0.8,10.2-0.7,15.3c-0.2,0.6-0.6,1.2-1.2,1.5
	c-2.2,1.2-1.2,3.2-0.9,4.8c0.6,3.1,0.7,6.2,0.2,9.3c-2,1.3-2,1.3-2.3-1.5c-1.2,2.1,2.5,5.4-1.6,6.9c0-5.1,0.8-10.5-0.3-15.4
	c-1.8-7.7,0.9-14.6,2.3-21.7c0.1-0.6,0.7-1,1.1-1.5c2.1,2.8-1.1,5.4-0.2,7.8c0-2.6,1-5.4,1.5-8.2c1.2-2.8-0.9-6.3,1.8-8.8
	C113.8,187.7,114.4,187.7,114.9,188z"/>
<path class="st8" d="M141.8,101l-0.8-1c-0.3-3.2,2-5.1,3.6-7.3c4.8-6.8,3.9-16.8-2.3-22.5c-3.8-3.4-7.4-7-11.3-10.3l2.3-1
	c3.4,0.4,5.4,2.9,7.5,5.1c1.9,2,4,4.7,6.5,3s0.2-4.4-0.9-6.6c-0.2-0.5-0.3-1-0.4-1.5c-0.1-0.5,0.1-0.9,0.7-0.9
	c2.3,3.7,6,7.2,0.8,11.5c-1,0.8,0.5,1.7,0.9,2.5c1.5,3.2,3.2,6.2,2.4,9.9c-1.4,3-1.1,6,0.2,9C149.4,95.5,146.1,99.1,141.8,101z"/>
<path class="st1" d="M186.9,82.2c-1.6-2.8-5.2-1-7-3.1c2.6,0.2,5.3-0.6,7.8,1c3.4,2.3,6.2,3.5,6.7,9.4c0.7,8.4,4.5,16.8,8.8,24.4
	c1,1.8,2.8,3.5-1.5,3.1c-2.6-0.2-0.3,3.8-2.7,4.3c-1.7-1.1,0-2.3,0-3.4c0.1-12.2-4.2-23-11-32.8C189.8,83.3,187.8,83,186.9,82.2z"/>
<path class="st7" d="M181,437.8c-1.4,1.3-3.4,2.7-1.8,4.9c1.4,1.9,3,0.1,4.4-0.5c7.8-3.1,16-4.9,23-9.9c2.8-2,3.6-2.8,1-5.5
	c-0.7-0.8-2-1.7-1.7-3.2c4,0.3,4.2,4.7,6.9,6.5c1,0.7-0.2,1.4-1.2,2c-9.6,5.7-20.2,9-30.3,13.3c-1.8,0.8-2.4-0.1-3.1-1.2
	c-2.2-3.2-2.9-7.4-6.7-9.7c-0.8-0.5,1-0.9,1.3-1.6l3,1.9c0.7,4.7,3.3,1.7,5.2,1.2c0.5,0.3,0.6,0.9,0.3,1.4
	C181.2,437.6,181.1,437.7,181,437.8z"/>
<path class="st7" d="M166,370.9l1-0.9c5.7,0.1,8.3,3.3,10,8.5c2.5,7.5,8,13.6,11.5,20.6c4,8.1,9.9,15.2,12.6,24
	c-0.3,0.4-0.7,0.5-1-0.1c-8.6-15.9-18.7-31-26.6-47.3C171.8,372.2,168.8,372,166,370.9z"/>
<path class="st1" d="M117.2,141.1c0.8,0.2,1.8,0.5,1.6,1.5c-1.2,9.9,0.1,20-2.7,29.8c-0.5-0.1-1-0.3-1.3-0.6
	c-1.2,3.5-0.7,7-0.2,10.4c0,0.7-0.3,1.5-0.6,2.1c-0.7,0.4-1.5,0.3-2.1-0.3c-1.2-4.5-0.9-9.3,0.8-13.7c2.6-6.9,1.4-14.4,3-21.5
	C116.4,146.3,116.8,143.7,117.2,141.1z"/>
<path class="st1" d="M171,345.1c-1.7-0.4-2-2-2.9-3c0.6-4.9,1.7-9.2,5-13.5c2.7-3.6,2.5-9.2,4.8-13.5c0.4-0.8,0.5-3.5,2.5-1.1
	c-0.4,3.7-2.4,6.9-3,10c2-1.8-0.2-6.3,4.3-7.2c-0.2,5.6-3.4,10.2-5.5,15.2C174.4,336.3,172.2,340.5,171,345.1z"/>
<path class="st9" d="M97.5,96.9l1.4,0.1c2.6,7.9,10.3,10.6,15.6,15.8c1.4,1.3,3.4,0.9,5.2,0.7c1.6-0.1,3.4-0.7,4.1,1.5
	c-1,3.9-2.1,7.8-2,12c-2.8-0.6-1.2-2.8-2-4.1c0.3-1.3,0.5-2.6,0.8-3.9c0.5-2.2,0.2-3.1-2.4-2.3c-3.5,1.2-6.3-0.6-8.8-2.9
	c-3-2.8-6-5.7-8.9-8.6c-1.5-1.6-2.9-2-4.8,0.5C95.6,102,96.2,99.4,97.5,96.9z"/>
<path class="st1" d="M106.1,270.1c0.4,6.8-2.8,13-2.6,20c-2.9-1.1-4.8-2.9-7.4-2.4l0.1-3.9c2.2-5.5,5.3-10.6,9-15.1
	C106,268.8,106.5,269.1,106.1,270.1z"/>
<path class="st5" d="M214.8,210.8c0.9-7.5,2.7-14.9,0.7-22.5c-1.7-6.8-2.8-13.7-5.5-20.2c0.3-0.6,0.7-0.6,1.1-0.1
	c4.3,6.9,5.4,14.7,6.7,22.5c0.6,3.4,0.9,6.9,0.9,10.3c-0.1,4.1,1.5,8.5-3.1,11.2C214.7,212,214.4,211.7,214.8,210.8z"/>
<path class="st10" d="M92.1,529.7c0.7-1.8,3-1.3,4-2.7c1.6-2.1,4-2.4,6.3-2.4c5.2,0,10.4-1,15.8-0.3c5.8,0.6,11.6,0.2,17.3-1.2
	c2.8-0.6,5.9-1.5,8.5,0.8l1.1,1c-4.2,2.3-9,1.5-13.5,2.2c-8,1.1-16.2,1-24.3,1.1C102,528.2,97.1,529.5,92.1,529.7z"/>
<path class="st9" d="M207.7,160.1c-4.2-10.1-7.7-20.4-13.6-29.8c-3.4-5.4-3.1-5.5,2.9-6.6c-2.3,2.5-2.5,5,0,7.6
	c1.3,1.7,2.5,3.5,3.5,5.4c2.3,3.5,5.5,6.3,4.8,11.5c-0.5,3.9,3.2,7.5,3.6,11.7C208.5,160.6,208.1,160.6,207.7,160.1z"/>
<path class="st9" d="M128.1,34c-0.2,3.4-3.8,5.5-3.6,9.2l-0.8-6.5c-4.4,13.1-13.2,12.2-22.6,9.4c-0.4-1.3,0.6-1.6,1.5-1.9
	c0.5-0.8,3.2,1.4,2-1.6c0-0.4,0.2-0.8,0.6-1.1c3.6,1.4,6.7,5.4,11.2,2c1.2-0.9,2.5-1.5,3.2-3C121.2,36.9,124.5,35.2,128.1,34z"/>
<path class="st1" d="M227,490.9c-2.5,3-2.9,7.4-7,9.5c1.6-3.7,3.1-7.4,4.8-11c2.4-4.8,6.1-8.9,7.9-14c0.3-0.8,0.6-1.6,1.7-1.1
	c0.8,0.3,1.2,1.2,1,2c-0.5,1.5-1.8,2.8-1.4,4.6v2.9C231.4,486,229.9,489.1,227,490.9z"/>
<path class="st7" d="M146.7,58.1L146,59c-2.4-2.7-6.4-3.6-7.9-7.5c3.8,3.5,8.8,2.6,13.1,3.7c6,1.5,11.7,3.8,16.1,8.6
	c1.5-1.1,0.4-2.4,0.5-3.6c-0.3-1-0.9-2.1,0.9-2.1c0.4,1.2,0.9,2.5,1.2,3.8c0.4,1.5-0.1,3.1-1.4,4c-1.7,1.1-2.7-0.3-3.7-1.4
	c-4.6-4.7-10.5-6.5-16.6-8.1C146.3,55.8,146.3,56.8,146.7,58.1z"/>
<path class="st7" d="M90.7,64.1L94,64c0.9,0.9,0.5,1.8-0.2,2.6C88,68.9,85.1,74,81.7,78.7c-0.6,0.8-1.2,1.9-0.3,2.7s1.8,0,2.6-0.6
	c1.7-1.2,3.1-3.1,5.7-2.1c0.3,0.2,0.4,0.4,0.4,0.8c0,0.3,0,0.5-0.1,0.5c-1.9,1-3.6,2.3-5.1,3.9c-1.5,1.5-3,3.6-5.3,1.2
	c-2-2-3.9-4-1.3-7.1c4-4.9,7.7-10,11.5-15.1C90.6,62.8,90.6,63.5,90.7,64.1z"/>
<path class="st1" d="M164.2,54c-4.4-3-8.9-5.7-14.5-5c-0.8,0.1-1.8,0.4-2-0.7c0-0.8,0.3-1.6,0.9-2.2c4.7-5.9,9.9-10.7,18.3-8
	c2.5,2.7,0.5,3.2-1.8,3.3c-3.1,0.1-6.3-0.7-9,1.6c-0.4,0.3-0.8,0.5-1.1,0.9c-1.9-0.4-3.1,0.6-4,2.5c4.9,2,10.2,2.8,14,6.8
	C165.3,54,164.9,54.2,164.2,54z"/>
<path class="st7" d="M146.8,438.5l-0.7,2.2c-9.6,0.7-18.9,4.2-28.6,3.9c-0.8-0.3-1.3-1-1.5-1.8c1.4-1.7,2.9-3.5,2-6
	c0.4-0.5,0.7-0.4,1.1,0c-0.1,1.3-0.4,2.8,1.5,3.1s3.7,1.2,5.3,0.8C132.6,438.9,139.7,438.1,146.8,438.5z"/>
<path class="st1" d="M141.1,37.1c2-8.3,9.7-10.1,16.1-13.9c-1.9-2.6-4.1-3.9-7.2-3.9c-0.3-0.2-0.4-0.4-0.3-0.7s0.2-0.4,0.3-0.4
	c1.3,0,2.7-0.4,3.9,0c2.4,0.8,4.2,2.8,4.8,5.2c0.3,1.6-2.4,2.3-4,3c-5.6,2.4-10.2,5.9-12.7,11.6C141.6,37.9,141.3,37.5,141.1,37.1z"
	/>
<path class="st11" d="M172,292.9c-7.4-1.1-14.8,0-22.1-0.3c-2-0.1-3.9-0.4-5.9-0.6c-0.3-0.6-0.1-1.3,0.4-1.6c4.4-1.9,9.1-0.8,13.6-1
	c4.8-0.2,9.5-0.2,14.3,0.2c1.2,0.3,2.6,0.4,2.7,2.1L172,292.9z"/>
<path class="st1" d="M206.9,470.8c-1.2,1.8-4.7,3.2-0.6,5.8c0.9,0.6,0.9,3-0.2,4.5c-1.9,1.3-1.5,3.4-1.7,5.2c-0.1,1.1-0.2,2.5-2,1.6
	l-2.8-4.5c1.9-1.7,2,1.5,3.1,0.8c1.9-5.2-4.3-12.3,4.1-15.7c0.6,0.5,0.7,1.4,0.2,2C207,470.7,207,470.8,206.9,470.8z"/>
<path class="st12" d="M112.2,393.6c3.2,8.4,4.6,17.2,6,26.1c0,1.2,1.3,2.8-1,3.2l-5.9-28C111.5,394.4,111.5,393.8,112.2,393.6z"/>
<path class="st9" d="M90.7,64.1l-0.9-1.4c-2.2-1.4-4.4,0.7-6.7,0c-2.1-0.7-3-1.3-1-3.2c2-2,4.3-3.5,6.9-4.5c0.4-0.3,0.8-0.4,1.3-0.4
	c1.4,0.5,3.5-0.1,3.7,2.4c-3.8-0.3-7.4,0.1-10,3.6c2,0.9,3.7,0,5.4-0.1c1.2-0.1,2.8-0.9,3.4,0.8S91.7,63.4,90.7,64.1z"/>
<path class="st1" d="M90,79.8c0-0.3,0-0.5,0-0.8c0.5-4.5-0.4-9.2,3.1-13c0.6-0.5,1-1.2,0.9-2c0.8-1.7,2.1-2.9,5.1-4.6
	c-3.6,5.4-5.4,9.9-5.6,15.1c-0.2,3.7,0.8,5.3,4.5,4.9c-1.3,1.7-3.7-0.1-4.9,1.6L90,79.8z"/>
<path class="st7" d="M200.1,423c0.3,0,0.7,0,1,0.1c0.7,1.4,2.1,0.4,3.1,0.9c-0.2,1.5-1.5,1.6-2.5,2.1c-5.6,2.4-11.2,4.5-15.4,9.4
	c-1.2,1.3-3.5,1.7-5.3,2.4v-1.7c6.7-3.6,12-9.4,19.1-12.2C200.2,423.9,200.1,423.3,200.1,423z"/>
<path class="st3" d="M146.9,441l1.8-3c0,0.5,0.1,1,0.1,1.5c0.6,8.3,0.6,8.2-7.6,9c-4.4,0.4-8.8,1.5-13.3,1.3
	c-0.1-1.7,1.2-2.1,2.4-2.7c3.5-0.6,7-1.7,10.6-1.4S146.5,444.5,146.9,441z"/>
<path class="st13" d="M155,43.9c0.1-0.3,0.1-0.5,0-0.8c6-2.6,7.5-2.4,14.8,1.9c0.8-1.4-0.3-2.9,0.4-4.3c0.2-0.4,0.5-0.8,0.9-1.1
	c0.6,0.7,1.2,1.5,1.5,2.4c0.6,2.5,1.6,5.6-0.4,7.3s-3.8-1.2-5.2-2.5C163.5,43.8,159.1,44.5,155,43.9z"/>
<path class="st0" d="M108.1,245.9c0.9,0,2.3-0.6,2,1.1c-0.8,4.1,2.3,9.1-2.6,12.4c-0.4,0.3-0.1,1.5-0.2,2.4c0.3,1.2,0.7,2.5-0.5,3.5
	c-0.5,0.1-1-0.1-1.3-0.6c-1.3-2.9-0.7-5.8,0.3-8.7s2.1-5.9,2.3-9.1C108,246.5,108,246.2,108.1,245.9z"/>
<path class="st9" d="M141.1,37.1l0.9,1c-0.5,3.2,1.4,1.8,2.5,1.2c3.3-1.8,6.6-3.9,10.5-4.3c-0.1,2.8-2.7,2-4,2.8
	c-4.1,2.3-8.3,4.4-13.5,7.1C139,41.6,140.1,39.3,141.1,37.1z"/>
<path class="st7" d="M199.1,520.2l-1-1.2c1.5-7.8,2.3-15.7,4.8-23.2c1.6,1.1,0.6,2.8,0.9,4.2C201.3,506.5,201.8,513.7,199.1,520.2z"
	/>
<path class="st7" d="M105.2,41.5l-0.2,1.3c-0.6,0.8-2,0.8-1.8,2.2c-0.9,0.1-1.7,0.2-2.2,1.1c-3.9-0.3-5.2,3.3-7.7,5.1
	c-0.2,0.3-0.6,0.4-0.9,0.2c-0.1-0.1-0.2-0.1-0.2-0.2c1.9-2.9,3.9-5.6,6.1-8.2C100.5,40.4,102.6,40.4,105.2,41.5z"/>
<path class="st14" d="M203.8,499.9c-1.3-1.2-0.5-2.8-0.9-4.2l-0.4-7.7c2.2-1.2,1.3-3.4,1.7-5.2c0.2-1-0.3-3.1,2-1.7
	C203.7,487.2,206.9,494,203.8,499.9z"/>
<path class="st7" d="M92.2,51.1l1.1,0.1c2.1,2.2,5.4,1.2,7.7,3c0.9,0.7,2.6,0.4,2.7,1.8c0,1.6-1.8,1.7-2.8,2.3
	c-1.3,0.7-2.5,0.3-3.8-0.2c0.4-1.3-0.4-1.6-1.4-1.7c-1.2-1.7-4.6-0.9-4.4-4.1L92.2,51.1z"/>
<path class="st9" d="M174.9,291.8l-2.2-1c0.5-1.8,2.1-2.1,3.5-2.1c4.8-0.2,9.5-0.7,14.2,0.5c0.9,0.4,1.6,1.1,1.8,2.1
	C186.5,292.8,180.7,291.8,174.9,291.8z"/>
<path class="st9" d="M105.2,269.1l-9.1,14.8c-0.6-4.2,2.5-6.9,4.3-10c1.7-2.8,4-5.3,3.7-8.9c0.4-0.5,1-0.6,1.5-0.3
	c0.1,0.1,0.2,0.2,0.3,0.3l0.2-0.1C107,266.3,106.6,268.2,105.2,269.1z"/>
<path class="st9" d="M150,18.2v1c-4.3,2-8.7,3.9-12.3,7.2c-0.7,0.8-1.8,0.9-2.7,0.4c-0.1-0.4-0.4-1.2-0.4-1.2
	C139.9,23.4,144,18.9,150,18.2z"/>
<path class="st1" d="M130,448.1l-2,1.7c-5-1.4-10.6,0.2-15.4-2.6c0.2-0.9,0.9-1.6,1.7-1.8C119.6,445.9,125.3,444.3,130,448.1z"/>
<path class="st9" d="M105.9,265h-1.8c-0.9-6.5,1.8-12.3,3.9-18.1c2,2.5-0.2,4.5-0.7,6.7C106.5,257.4,104.9,261,105.9,265z"/>
<path class="st7" d="M227,490.9c0.7-4,4.1-5.3,7-7.1c-1.7,3.8-3.4,7.7-5.1,11.5c-1-0.7-0.9-1.7-1-2.7
	C227.8,492,227.9,491.2,227,490.9z"/>
<path class="st1" d="M171.1,39.7l-0.2,1.6c-2.1-0.1-2.1-1.9-2.7-3.2c-1.3-2.6-3.7-2.3-6-2.3s-4.9,0.8-7.2-0.7l3.1-1.2
	c3-0.5,6-1.5,8.9,0.3C168.6,35.8,170.6,37.2,171.1,39.7z"/>
<path class="st1" d="M112.2,197.2c-0.5,3.6-1,7.1-1.4,10.7c-0.1,0.8-0.1,1.9-1.1,1.9c-1.4,0-1.2-1.1-1-2.2c0.6-3.4,1-6.8,1.6-10.2
	l0.7-3.1C113.5,194.3,112.2,196,112.2,197.2z"/>
<path class="st0" d="M166.9,34.2c-3,0.7-6,1.9-8.9-0.3C161.9,29.8,164.8,29.9,166.9,34.2z"/>
<path class="st7" d="M180.8,313.9c1.9-3,2.4-6.4,3.2-9.7c0.4-1.5,0.2-3.6,2.9-2.5c0.4,0.3,0.6,0.9,0.3,1.3c0,0.1-0.1,0.1-0.1,0.2
	c-2.7,4-2.4,9.1-5,13.2C180.3,316.1,180.4,315.1,180.8,313.9z"/>
<path class="st7" d="M107.1,236c2.1-2.4,0.4-5.4,1.3-8c1.8-0.7-1,3.7,1.9,1.9c3.2,2.2,2.5,4.6,0.6,7.2l-3,0.9
	C106.9,237.6,107,236.8,107.1,236z"/>
<path class="st7" d="M180.8,313.9l1.2,2.4c0.1,0.4,0,0.5-0.4,0.6c-3.3,2.7-2.7,7.6-6.4,11.7c1.1-5.1,2.8-10,5.1-14.6L180.8,313.9z"
	/>
<path class="st9" d="M114,446.1l-1.4,1.1c-3.7-0.9-1.8-4.8-3.5-6.8c0.3-0.4,0.6-0.7,1-1c0.9-0.5,1.1,0.5,1.3,0.9
	c0.9,1.9,2.5,2.4,4.5,2.5l1.2,1.2C117.1,446.3,113.9,443.8,114,446.1z"/>
<path class="st1" d="M112,184h2c0.7,0.5,0.3,1.4,0.9,2v2l-1.2,0.1c-1.3,0.8-1.1,2.1-1.2,3.4c-0.1,1.5-0.5,2.5-2.3,1.4L112,184z"/>
<path class="st1" d="M210.8,240.8c-0.4-4.4-0.3-8.7,2.1-12.6l-1.2,16.7C209.3,244,210.8,242.2,210.8,240.8z"/>
<path class="st15" d="M177.4,78.1c-2.7-0.3-5.2-1.4-8-0.9c-1.5-0.1-3.4,1.4-4.3-1c2.7-0.1,5.3-1.3,8.1-0.7
	C175,75.9,176.7,76.1,177.4,78.1z"/>
<path class="st7" d="M227.9,492.7c1.3,0.5,0.6,1.8,1,2.7l-0.9,1.3c-1.4,1.6-0.4,4.6-3.2,5.3h-0.5l-0.5,0
	C224.4,498.5,226.2,495.6,227.9,492.7z"/>
<path class="st7" d="M206.9,470.8v-2.1l8.1-6.2C214.1,467,209.6,468,206.9,470.8z"/>
<path class="st7" d="M117.2,422.9c0.3-1.1,0.7-2.2,1-3.2c0.8,3,1.1,6.2,0.7,9.3c-0.7,0.6-0.1,1.8-1.1,2.2
	C116.7,428.5,117,425.7,117.2,422.9z"/>
<path class="st1" d="M211,262.1c-2.9-2.8-2.7-5.9-1-9.1c0.2-0.5,0.5-0.5,0.8,0L211,262.1z"/>
<path class="st7" d="M214.8,210.8l0.8,1.2c-0.8,3.5-0.1,7.2-1.7,10.5C211.9,218.4,214.4,214.7,214.8,210.8z"/>
<path class="st7" d="M165,76.2c1.2,1.5,2.9,0.5,4.3,1c-3.3,0.8-6.7,1.5-9.5,3.6l-0.9-0.9C160.5,78.1,162.6,76.8,165,76.2z"/>
<path class="st16" d="M119,131.1c0.6-0.4,1.5-2,1.8,0.1c0.3,3.1-0.8,6-2.1,9.1c-1.7-2.3,0.7-4.2,0.1-6.2L119,131.1z"/>
<path class="st9" d="M187,303.1l-0.1-1.5c0.7-2.4,1.5-4.9,2.2-7.3c0.3-0.4,0.6-1,1-1c1.5-0.2,1,1,0.7,1.5
	C189.7,297.6,189,300.6,187,303.1z"/>
<path class="st17" d="M108.9,323h-0.3h-0.3c0.3-4.1-1.8-8.2-0.2-12.3C109.6,314.7,109.2,318.8,108.9,323z"/>
<path class="st1" d="M192.3,291.2l-1.3-1.1c2.5-2.9,6.4-4,10-3c0,0.3,0,0.6,0,1C198.2,289.4,195.4,290.9,192.3,291.2z"/>
<path class="st1" d="M211.3,276.1l-1.2-0.1c1.9-3.9-0.4-8.2,0.8-12.1C212.6,267.9,213,272,211.3,276.1z"/>
<path class="st9" d="M210.8,253h-0.4H210c0.1-4.1-0.8-8.2,0.8-12.2c0.6,1.3-0.2,2.9,0.9,4.1L210.8,253z"/>
<path class="st18" d="M112.2,393.6l-1,1.3c0.2-3.2-2.2-6.3-0.1-9.5C112.7,388,112.1,390.9,112.2,393.6z"/>
<path class="st0" d="M91.2,52.1c0.6,2.4,4.9,0.5,4.6,3.9c-1.9-0.2-3.9-0.4-5.8-0.7l-1-0.2C89,53.7,89.9,52.4,91.2,52.1z"/>
<path class="st1" d="M164.2,54l0.8-0.9c1.9,1.1,3.3,2.9,3.8,5l-0.9,2.1L164.2,54z"/>
<path class="st9" d="M110.2,192.9c3.4,0,0.3-4.7,3.5-4.8c-1.3,2.9,0.3,6.2-1.5,9c-0.3-1,0.4-2.5-1.3-2.8
	C110.4,194,110,193.6,110.2,192.9z"/>
<path class="st19" d="M207.7,160.1l1.2-0.1c0.8,2.6,2.3,5,2.3,7.9l-1.1,0.1C208.8,165.6,207.9,162.9,207.7,160.1z"/>
<path class="st1" d="M224.9,501.9c1.7-1.4,1-4.2,3.2-5.3c-0.4,3.4-1.6,6.6-3.4,9.6C223.5,504.5,225.4,503.3,224.9,501.9z"/>
<path class="st20" d="M117.8,431.2l1.1-2.2c0.9,2.6,0.9,5.4,0,7.9h-1.1L117.8,431.2z"/>
<path class="st15" d="M133,29.1c-0.5,2.9-2.8,4-5,5C128.2,31,130.6,30.1,133,29.1z"/>
<path class="st9" d="M106,291.1l0.1-1.2c1.6,2.1,0.7,4.5,0.9,7.4C103.8,295.2,106.7,292.9,106,291.1z"/>
<path class="st21" d="M138,272l-1,3c-2.8-0.3-0.5-3.1-2-4c-2.8-3.7-1.4-8.2-2-12.3c-0.5-3.4-0.3-6.2-5-4.6c-0.5,0.2-1.4-0.7-2.5-1.4
	c1.7-0.9,3.5,0.3,4.6-1.5c-3-1.7-6.3-2.5-9.4-3.8c-5.5-2.2-5.7-1.7-7.8-7.4c-0.6-0.9-0.9-1.9-0.8-3c0.2-1.1,0.3-2.2,1.8-2
	c0.4,1.8,0.7,3.6,1.1,5.4c0.5,2.1,1.2,3.4,4,3.9c4.1,0.8,7.5,4.1,12,4.2c1.5,0,3,0.6,3.1-1.8c0.4-7.2,1.8-14.5,0.2-21.7
	c-0.1-0.6-0.1-1.3-0.1-1.9c-0.5-5,2.5-9.9-1.8-15.1c-1.4-1.7-0.3-7.5,0.5-11.4c-0.6-4-0.6-8.1,0-12.1c-0.3-1.5-0.2-3,0.3-4.4
	c0.9-0.3,1.3,0.2,1.7,1c-0.1,7.9-1.8,15.7,1,23.8c1.8,5,0.1,11.1,0.6,16.7c1.1,12.1-0.3,24.1-1.3,36.1C135,262.6,136,267.5,138,272z
	"/>
<path class="st7" d="M131,282l-17.8,1.1c3.3-2.9,7.5-2.1,11.7-3.1c-4.3-2.6-9.3-3.1-13.1-7.7c5.5,1.2,9.7,3.7,14.1,5.6
	c1.7,0.7,3.1,2,5.1,1c0.6-0.2,1.3-0.3,1.9-0.4c1.8-0.2,3.2,0.5,3.1,2.2s-1.6,2.3-3.3,2.1C132.1,282.7,131.5,282.4,131,282z"/>
<path class="st9" d="M126.6,298.6c-2.1,9.8-4.1,19.7-6.2,29.5l-1.4-0.3c1.2-10,3.2-19.9,6-29.5L126.6,298.6z"/>
<path class="st7" d="M112.9,237.2v2.8l-1,1.2c-1.1-1.2-0.7-2.8-1-4.2c-0.2-2.4,0.7-4.9-0.6-7.2c-0.4-4.2-0.9-8.5-1.2-12.7
	c-0.2-2.9,1-3.2,2.9-1.1c1.3,4.4-0.1,8.9,1,13.3C113.4,232,112.3,234.6,112.9,237.2z"/>
<path class="st1" d="M131,282c1.6-0.3,4.4,0.8,4.4-1.5s-2.7-1.4-4.4-1.6c2.8-1.5,4.4-4.7,4-7.9c1.5,0.9-0.1,3.4,2,4s2.9,1.8,1.9,4
	c0.2,2.2,0,4.2-2.5,5.2C134.4,283.9,132.1,284.5,131,282z"/>
<path class="st1" d="M114.2,364.4l-1.1-1.4c0.7-5.7,0.2-11.7,3.7-17L114.2,364.4z"/>
<path class="st7" d="M136.4,284.1l2.5-5.2h1.2c1.8,2,0.6,4-0.2,5.9c-0.7,1.7-1.8,3.2-2.1,4.9c-0.1,0.4-0.4,0.8-0.7,1.1
	c-3.5,0.7-4.8,0-2.3-3.4C135.4,286.5,136,285.3,136.4,284.1z"/>
<path class="st9" d="M116.2,345c-0.4-5.2,1.2-10.2,2.3-15.2l1.4,0.2l-2.4,15.2L116.2,345z"/>
<path class="st1" d="M137,291v-1c2.6-1.7,4.9-0.7,7,1v1.1C141.3,293.8,139.2,292.5,137,291z"/>
<path class="st1" d="M111,261.1c-0.1-2.2-0.1-4.4,1.1-6.4c0.8-0.5,1.6-1.3,3.1-0.4C113.1,256.2,112.7,259,111,261.1z"/>
<path class="st0" d="M148,189.1c-0.3-2.3,5.2-5.4-0.9-7c-1.9-4.2-1.5-8.4-0.1-12.6c-0.4-3,3.5-5.6,0.9-8.9
	c1.8-5.6,2.5-11.4,2.1-17.2c0.8-15.4,8.1-23.5,23.2-25.5c4.6-0.5,9,1.8,11.2,5.8c3.5,6.3,3.9,13.2,5,20.1c1.6,10.4,4.2,20.7,6.5,31
	c1.6,6.6,2.3,13.4,4.9,19.7c1.9,4.6-0.9,9.6,0.5,14.3c0.8,7.2-2.8,13.1-5.7,19.1c-2,4.2-5.1,7.8-2.6,12.9c0.7,1.5-0.8,2.3-1.7,3.3
	c-2.5,2.6-5.2,5.1-5.4,9.2c-0.1,2.2-2,2.8-4,3c-1.8,0.2-3.7-0.1-5.4,0.7c-1.1,0.6-2.5,0.8-3.8,0.5c-3.6-1.8-7.7-1.7-11.5-2.2
	c-2.3-0.1-4.4-1.1-5.9-2.9c-4.3-5.4-4.3-5.4,0.5-8.9c0.2-0.2,0.4-0.4,0.7-0.5c0.8-1.1,2.3-1.1,3.4-2.1c-1.7,0.8-3.4,1.3-4.8-0.3
	c-5.7-5-4.5-12.1-5.2-18.5c-0.2-2.1-0.4-4.3-0.5-6.4c0.2-2.8,0.8-5.5,0.3-8.2v-1.4c-0.9-0.9-1.1-2.2-0.8-3.4c2-2.4,1.2-4.4-1-6.1
	C147.5,194.1,146.9,191.6,148,189.1z"/>
<path class="st22" d="M195,175c-2.8-13.7-6.5-27.3-8.1-41.3c-0.4-3.7-2.1-7-3.7-10.2c-1.4-3-4.5-4.7-7.7-4.4
	c-7.3,0.6-14.8,1.9-19.3,8.3c-3.2,4.5-3.6,10.4-5.3,15.6c-0.4,0.8-1.3,0.5-1.9,0.7c-0.9,0.6-1.4,2-3.7,1.3
	c5.4-5.3,5.1-12.7,8.1-18.7c2.7-5.5,8.8-6.6,14.2-8.2c1.1-0.3,2.6,0.3,3.4-1.7c-6.4,2.1-13.1-1.9-19.3,1
	c-6.7,3.1-11.4,7.8-12.2,16.1c-0.5,4.8-0.5,9.7-1.5,14.5c-2.7-2.1-0.9-4.8-1-7.2c0.9-12,1.6-14.3,6.2-20.7l-8.6,3.1
	c-0.6,0.2-1.3,0.5-1.3,1.3c-0.1,1,2.9,2.6-0.4,2.9c-2.5,0.2-0.8-2.7-2.5-4c0.1,4.6-4.9,5.4-6,9.1c-1.3-1.6,0-3.6-0.9-5.2v-3.4
	c1.8,0.4,1,3.4,2.3,3.1c1.4-0.3,2.3-2.1,2.8-3.7c0.4-1.1,0.9-2.1,1.5-3.1l9.7-11c-0.8,5.2-5.4,7.5-8.2,12.3c6.1-1,10.8-3.7,15.9-5.2
	c4.9-1.5,9.9-1.3,14.9-1.7c6.6-0.5,12.2,1.5,18.2,2.7c1.5,0.3,2.1,0.9,3,2.2c4.7,6.8,6.2,14.3,7.1,22.4c1.1,9.8,3.7,19.5,5.7,29.2
	C196.4,172.5,197.6,174.2,195,175z"/>
<path class="st23" d="M175.1,256.3c5.7-1.2,11.7-1.8,11.8-9.8c0-0.9,2.2-1.7,3.4-2.6c1.6-1.1,2-2,1.1-4.3c-1.7-4,1-7.6,2.9-11.1
	c3.1-6,6-12,6.5-18.9c0.1-1.3-1.3-3,1-3.5c2.3,8.9-1.8,16.3-6,23.5c-3.2,5.6-3.4,8.5,0.2,12c-1.6,1.4-3.4,2.6-4.9,4.1
	c-1.3,1.3-3.3,3-3.1,4.3c0.8,6-5,10.2-4.1,16.2c0.5,3.4-1.4,4.8-4.7,4.7c-2.7-0.1-5.3,0-8,0.1c-8.1,0.4-9.8-1.2-9.3-9.2
	c0.2-1.3,0.5-2.6,1-3.8c1.4-0.2,1.6,0.9,2,1.9c0.3,1.5,0.2,3,0.4,4.4s0.8,2.9,2.6,3.2c3.4,0.5,6.9,0.4,10.3-0.3
	c3.2-0.6,2.3-3.9,2.9-6.2s-0.9-2.9-2.8-3C177,258,175.7,257.7,175.1,256.3z"/>
<path class="st7" d="M201.8,206c-1.1,1-0.7,2.4-1,3.5c-0.2-0.5-0.6-0.9-0.5-1.4c1.6-11.6-3.8-22.1-5.2-33.2c1.5-1,0.6-2.7,1-4
	c2,8,4,15.9,6.1,23.9C203.1,198.6,202.9,202.4,201.8,206z"/>
<path class="st1" d="M150.8,216.1c1.3,3.5,0.8,7.2,0.8,10.7c0,5.3,1,10,4.5,14.1c0.5,0.4,0.5,0.8-0.1,1.1c-5.1-3.5-6.8-8.6-7.1-14.5
	c-0.3-2.6,0-5.2-0.3-7.8C148.4,218.1,148.5,216.3,150.8,216.1z"/>
<path class="st7" d="M164.1,260.2c-0.3-0.7-0.7-1.4-1-2.2c0.2-2.4-1.2-2.4-2.7-1.5c-1.1,0.6-1.6,2.1-3.3,2.2c0-2.1-0.7-4.1-2.1-5.7
	c-0.4-1,0-1.2,1-1c3.6,3.6,8.4,2.3,12.7,3c2,0.3,3.9,0.9,5.6,2C171.2,259.1,167.3,258.5,164.1,260.2z"/>
<path class="st7" d="M150.8,216.1c-2.6,3.5,0.3,7.9-2,11.5c-3.5-6.9-0.9-13.4,1.1-20C151.6,210.2,150.8,213.2,150.8,216.1z"/>
<path class="st7" d="M136.8,140.8c0.8,2.4-0.6,5,1,7.2c0.1,6.2-0.1,12.4-1.8,18.4l0.1,0.1C134.3,157.9,136.1,149.3,136.8,140.8z"/>
<path class="st1" d="M147,169.5c0,4.2,0,8.4,0.1,12.6c-0.6,1.5,0.6,3.3-0.9,4.6C144,182.3,144.5,172.1,147,169.5z"/>
<path class="st7" d="M149,143.8c0.4-0.9,1.2-0.8,1.9-0.7c0.4,6.1,0.9,12.2-2.9,17.6l1.6-14.3C149.7,145.4,150.4,144.3,149,143.8z"/>
<path class="st7" d="M136,166.5l-0.1-0.1c0.5,4.9-0.7,9.8-1.2,14.6l-1.7-1c0.4-4.1,0.8-8.1,1.2-12.2
	C134.4,166.8,134.6,165.9,136,166.5z"/>
<path class="st1" d="M148,189.1c0.3,2.6,0.7,5.3,1,7.9c1.4,1.5,1.4,3.2,0.9,5c0.1,1.3,0.1,2.6,0.2,4c-3.4-1.2-2-4.6-2.8-6.9
	c-0.9-2.8-0.8-5.9-1.1-8.8C146,188.8,146.8,188.7,148,189.1z"/>
<path class="st7" d="M156,252l-1,1c-5.2-6.2-5-8.1,1.1-9.5C153.3,246.3,152.7,249.2,156,252z"/>
<path class="st7" d="M156,242l0.1-1.1c2.9,1.3,3.7-2.1,6.2-2.7c-0.5,3.5-2.1,5.1-5.5,4.9C156.9,242.4,156.5,242.1,156,242z"/>
<path class="st15" d="M186.9,82.2c2.2,0.4,4.1,1.1,5,3.3c-1.5,1.2-2.4-2.5-4-0.4C186.9,84.4,187,83.2,186.9,82.2z"/>
<path class="st0" d="M123.8,115.1c-0.4-0.2-0.9-0.7-1.3-0.6c-11.5,2.7-15.7-8-23-12.8c-1.6-1.1-0.8-3-0.6-4.6
	c2.4-4.6,2.5-9.3,1.1-14.2c-1.3-4.7,6.7-15,11.1-14.4c1.5,0.2,1.8,1.8,2,3c0.7,4.1,3.5,5.3,6.8,4.5s4.6-3.6,4.2-7
	c-0.1-1-0.3-2-0.7-2.9c-2-6-0.9-7.4,5.5-6.4c0.7,0.1,1.3,0.1,2,0.2c11.7,7,19.2,13.6,17.6,27.8c-0.5,4-4.2,5.7-5.4,9
	c-0.6,1.2-1.3,2.3-2.2,3.3c-4.7,4.3-8,10-13.8,13.1C126,113.6,125.5,115.3,123.8,115.1z"/>
<path class="st1" d="M114.9,186c-0.6-0.5-1-1.2-0.9-2c0-0.8-0.1-1.5-0.1-2.3c-0.5-3.7-0.9-7.3,1.1-10.7l1.2,1.4
	C116.3,176.9,115.9,181.5,114.9,186z"/>
<path class="st7" d="M123.8,137c-0.4,2.7-0.5,5.5-3.1,7.6c0.7-3.6,1.4-7.2,2.1-10.8C124.1,134.6,123.1,136.1,123.8,137z"/>
<path class="st1" d="M112.9,237.2c-1.1-2.4-0.9-4.8-0.7-7.3c0.7-0.9-0.2-2.3,1-3.1c1,2.7,0.9,5.5,0.7,8.2L112.9,237.2z"/>
<path class="st24" d="M113.2,226.8l-1,3.1l-0.2-13.8l0.9-1.1L113.2,226.8z"/>
<path class="st7" d="M132.9,184.5v12.1C132.2,192.5,131.7,188.5,132.9,184.5z"/>
<path class="st25" d="M123.8,137c-1.1-0.8-0.5-2.2-1-3.2l0.4-6.7c1.3,1.6,0.5,3.5,0.9,5.2L123.8,137z"/>
<path class="st7" d="M168.2,38l2.7,3.2c0.2,2.1,1.5,4.1,0.5,7c-4.6-4.9-10-6.8-16.4-5.2c2.1-4.7,6.2-3.5,9.8-3
	c2.2,0.3,3.3,0.7,2.2-2L168.2,38z"/>
<path class="st1" d="M90.1,55.2c1.9-0.6,4-0.3,5.8,0.7c1.3-0.6,2.5-0.8,3.5,0.5l-2.3,1.5l-3-1L90.1,55.2z"/>
<path class="st3" d="M147.9,419.4c-0.3,5.8,1.1,11.7-0.7,17.5C147.7,431.1,146.4,425.2,147.9,419.4z"/>
<path class="st7" d="M140.2,403.1c-3-0.8-4.6-1.7-6.2-4.2C136.6,399.4,138.8,400.9,140.2,403.1z"/>
<path class="st9" d="M224,482c-0.2-1,0.1-2.1-0.8-2.9c0-0.3,0.1-0.6,0.2-1c0.9-1.9,1.2-5.9,3.2-5c2.5,1.1-1.7,2.7-1.5,4.7
	C225.1,479.2,224.3,480.6,224,482z"/>
<path class="st7" d="M208.5,518.1c-1.1,3.3-1.5,6.7-4.6,9.5C201.5,522.2,206.3,520.7,208.5,518.1z"/>
<path class="st7" d="M216.6,510.2c-0.6,2.6-2.3,4.5-4.3,7C212.3,513.5,214.4,511.8,216.6,510.2z"/>
<path class="st7" d="M114,446.1c-0.8-0.5-2.1-0.6-1.8-1.8c0.3-0.9,1.4-0.3,2.1-0.3h2.7c6.3-1.1,12.6-2,18.8-3.3
	c3.5-0.8,6.8-0.1,10.2,0c0.3,0.2,0.6,0.2,0.9,0.2c1.3,5.4,1,5.6-4.2,5.8c-4.3,0.1-8.5,0.9-12.7,1.3L114,446.1z"/>
<path class="st1" d="M103,518.9c0.9-2.8,3.6-3.2,5.7-4.2c5.3-2.4,9.6-6.7,15.6-7.7c2.9-0.5,2.7-2.8,2.7-5c0-9,1.9-10.3,11.1-7.8
	c2.2,0.6,5.3,0.5,4.8,4.2c-0.1,0.4-0.1,0.2-1.1,0.9c-1.6,1.2-1.2,3.1-0.4,4.6c1.3,3,2.1,6.2,2.4,9.5c0.5,4.2-1.3,5.2-4.9,5.5
	c-4.1,0.4-8.3-0.7-12.3,0.8c-1,1.4-2.6,1.4-4.2,1.5c-4.4,0.1-8.9,0.1-13.3,0C106.8,521.3,104.5,521.1,103,518.9z"/>
<path class="st1" d="M143.9,523.9c-9.2,0.4-18.3,2.9-27.6,2.1c-6.8-0.5-13.6-0.2-20.3,1c-2,0.3-4,0.1-4.4-2.1
	c-0.5-2.4,2-2.8,3.4-3.4c2.1-0.8,4.5-1,6.8-1.4c8.1,1.1,16.2,1.2,24.3,0.5c2.6,0,5.2-0.5,7.8,0.3c2.8-0.1,5.6,0,8.3,0.2
	C143.3,521.2,146.3,521.3,143.9,523.9z"/>
<path class="st1" d="M124.2,494.5c1.9,8.9,1.5,9.8-5.1,11.9C121.2,502.4,118.9,497,124.2,494.5z"/>
<path class="st7" d="M126.3,521.1c-8.2,1.5-16.4,1.9-24.5-1l1.2-1.2c6.6,2.1,13.4,0.4,20,1.1C124,520.9,125.5,519.9,126.3,521.1z"/>
<path class="st26" d="M126.3,521.1c-1-0.5-2.4,0-3.2-1.1l3.6-0.3c2.4,0.7,5.1-0.7,7.3,1.1L126.3,521.1z"/>
<path class="st1" d="M144,291l-7-1c0-3.9,3.6-6.9,3-11c1-1.2,2.6-1.8,4.2-1.4c12.7,1.5,25.4,1.3,38,4.1c6.8,1.5,13.7-2,20.7-1.8
	c1.5,0.1,2.9,0,5.2,0c-2.6,2.7-4.2,5.5-7.1,7.1l-10,3c-6.1,0.5-12.2-1.4-18.3,0.7L144,291z"/>
<path class="st1" d="M105.2,269.1l1-4.2c0.3-1,0.7-2.1,1.1-3.1c1.1,3,0,5.6-1.1,8.3L105.2,269.1z"/>
<path class="st1" d="M141.8,101l9.2-10c1.3-0.7,2.4-1.3,1.9,1.2c-1.1,5.1-4.4,8.2-8.7,10.6c-1.4,0.8-3,1.3-5,2.2L141.8,101z"/>
<path class="st0" d="M115,171c-0.4,3.6-0.8,7.1-1.1,10.7c-2-3.6-1.2-7.1,0.3-10.7c0.1-0.1,0-0.4,0.1-0.5
	C115.1,169.9,114.7,171.1,115,171z"/>
<path class="st1" d="M172.4,332.8c0.1,2.6-0.6,5.1-2,7.3C169.9,336.9,171.3,334.9,172.4,332.8z"/>
<path class="st1" d="M103.2,45c-0.6-0.7-2.5-0.5-2.1-1.5c0.7-1.7,2.4-1.3,3.9-0.7c0.6,0.6,2.2,1.1,1.7,1.9
	C106,46,104.4,44.8,103.2,45z"/>
<path class="st1" d="M93.1,66c-2.3,4,0.1,9.2-3.1,13c-3.2-0.6-4.6,2.1-6.7,3.6c-0.7,0.5-1.4,1.8-2.4,0.6c-0.8-0.9-2.6-2-1.6-3.2
	C83.5,75,85.7,67.9,93.1,66z"/>
<path class="st1" d="M164.1,260.2c0.4-2.2,1.1-3.8,3.9-3.4c2.1,0.2,4.2,0.2,6.2,0.2l0.9-0.7c0.3,0.1,0.6,0.2,0.9,0.3
	c6.8,0.7,6.4,0.7,6.2,8c-0.1,4.1-2,4.7-5.3,4.3c-1.1-0.1-2.3-0.1-3.4-0.1C165.3,268.8,163.8,271.1,164.1,260.2z"/>
<path class="st0" d="M149.8,202.1c-0.9-1.5-1.2-3.3-0.8-5.1c1.3,0,2.8-0.1,3,1.8C152.1,200.5,151.9,201.9,149.8,202.1z"/>
<path class="st27" d="M111.3,87.4c3.5,2.3,3.5,5.4,3.2,8.7C111.8,94.1,110.6,90.7,111.3,87.4z"/>
</svg>
