<?xml version="1.0" encoding="utf-8"?>
<!-- Generator: Adobe Illustrator 24.0.1, SVG Export Plug-In . SVG Version: 6.00 Build 0)  -->
<svg version="1.1" id="Layer_1" xmlns="http://www.w3.org/2000/svg" xmlns:xlink="http://www.w3.org/1999/xlink" x="0px" y="0px"
	 viewBox="0 0 281 575" style="enable-background:new 0 0 281 575;" xml:space="preserve">
<style type="text/css">
	.st0{fill:#3A3A3A;}
	.st1{fill:#FFDCDC;}
	.st2{fill:#F2BBBB;}
	.st3{fill:#E591AB;}
	.st4{fill:#FFEBF4;}
	.st5{fill:#FEFEFE;}
</style>
<title>frame1</title>
<path class="st0" d="M198.1,281.1c1,2.3,1.3,4.8,0.8,7.2c-1.5,9-7.2,3.2-10.9,3.7c-2,0.2-3.1-0.6-4.3,2.3
	c-2.6,6.4-5.2,12.6-6.2,19.5c-1.7,11.6-6.3,22.5-8.8,34c-2,8.8-1.3,17.1,0.5,25.5c0.6,2.7,2.7,4.7,3.4,8c1.5,7.5-5,14.6-0.3,21.8
	c-1.9,11.2,4.4,20.6,6.8,30.8c0.4,1.8,2,2.1,3.2,2.9c5.8,3.9,11.5,7.7,14.7,14.2c0.5,1,1.4,1.1,2.2,1.6c1.5,0.9,2.1,2.6,0.6,4.1
	c-5.8,5.6-12,10.9-17.3,16.9c-2.6,3-4.9,6.8-8.1,8.5c-6.6,3.7-9.1,10.5-13.9,15.5c-2.1,2.2-4.3,1.8-6.6,2.4
	c-0.5,0.1-1.6-0.7-1.9-1.3c-2.6-4.6-1.8-12.8,2.2-16.9c5.2-5.2,3.6-11.5,3.4-17.4c-0.1-2.1-3.3-3.6-5.9-3.1c-1,0.2-1.6,0.7-2.6,0
	c-2.5-1.8-4.6-10.5-2.3-12.6c5-4.7,0.2-7.5-1.7-10.6c-1.5-2.5-3.7-2.7-6.7-1.2c-5.9,2.9-15.7-3.8-14.1-10c1.7-6.4-1.8-10.6-5.3-13.3
	c-10.8-8.2-19.7-18.5-29.5-27.6c-8.3-7.7-16-16.6-18.9-28.2c-2.1-8.4-0.5-16.9,1-25.3c1.2-6.8,4.9-12.5,7.2-18.8
	c2.4-6.5,3.6-13.2,6.2-19.6c2.9-6.9,3.5-14.2,4.6-21.6c0.6-3.9,0.1-4.9-2.8-5.9c-0.6-0.2-1.5-0.6-1.8-0.4c-6.2,5.3-15.2,3-21.6,8.4
	c-3.1,2.6-8,1.8-10.7-2.7c-0.7-1.1-1.5-2.2-2.5-3.1c-5-5.2-5.1-6.9,0.2-11.5c2.3-2,1.8-4.7,2.6-7c0.9-2.8,1.7-5.3,4.7-6.4
	c2-0.7,1.6-2.9,2.5-4.2c6.8-9.6,13.4-19.3,19.2-29.6c3.9-6.8,5.1-14.5,6.6-22.1c4.5-6.8,5.9-15.1,4-22.9c2.6-6.2,1.8-12.9,2.5-19.4
	c0.8-7.2,3.7-12.8,9.9-16.8c2.7-1.8,1.2-6,3.2-8.6c0.5-0.7-1.3-1-2.2-0.6c-5.2,1.9-9.4,0.5-12.4-4.2c-2.1-3.2-4.8-6-7.8-8.2
	c-3.1-2.5-3.6-5.1-1.4-8.4s4.2-6.6,3-10.8c0.8-0.9,1.5-1.9-0.6-2.1l0,0c-1.1-2.1,1.7-2.5,1.9-4c0.2-0.1,0.5-0.2,0.8-0.2l1,0.3
	c1.2,3.7,1.8,7.8-0.2,11.1c-4,6.4-1.5,10.9,2.3,16.3c4.4,6.2,9.7,8.3,18.7,5.4c1.8-0.5,3-9.3,1.9-13.4c-0.3-1.1-0.7-2.2-1-3.3
	c0.6-2.9-0.2-5.6-0.9-8.2s-3.4-4.6-3.4-7.5c0-4.7-1.8-3.6-4.2-1.6c-3,0.6-4.6-1-5.8-3.4c-1-2.2-2.1-4.5-3.1-6.7
	c-0.3-1.5-0.8-3.1-2.7-2.7c-1.7,0.3-1.3,1.9-1.5,3.2c-0.3,2.9,1.2,6.2-1.8,8.6c-0.8-0.9-1.4-1.2-2,0.2c-0.8,2-1.9,3.9-2.8,5.9
	c-0.2,6.7-2,8.3-7.3,6.1c0.7-1,1.3-2,2-3c0.2,1.3,0.9,1.5,2,0.9c2.6-1.4,0.6-3.4,0.6-5.1l3.2-5.9v-1c1.7-2,2.8-4.4,3.2-7
	c0.5-2.7,1.8-5.2,3.8-7.2c0.7-0.7,1.2-1.8,1.9-0.8c2.2,3.2,7.8,4.2,6.2,9.9c-0.4,1.4-0.3,3,2.8,2.3c2.7-0.7,3.2-1,3-3.7
	c-0.1-2.5-0.9-4.9-2.3-6.9c-0.8-1-2-2.1-1-3.5c1.2-1.8,2.6-0.4,4-0.2c3.4,0.5,5.1,3.2,7.3,5.4c2.3,2.4,4.7,4.8,8.5,3.8
	c0.8,0.1,1.5-0.3,1.9-0.9c3-3.2-0.4-5.8-1.1-8.5c-0.2-0.9-1.3,0.9-2,1.2c-1-0.3-4.1,1.1-1.5-2c0.4-0.5,0.2-1.5,0.3-2.2
	c3.8-5.1,9.4-7.2,15.3-8.7c0.3,3.6,2.9,2.9,5.2,2.7c0.2,0.2,0.5,0.3,0.7,0.4c0,1.1,0.9,1.7,1.8,2.1c0.5,1.9-0.1,5,3.1,4.5
	c2.9-0.5,3.3-3.3,2.9-5.9c-0.1-1.7-1-3.2-2.4-4.1c-0.4-0.4-0.6-1.1-1.2-0.3c-0.1,0.1,0.4,0.6,0.7,0.9c0.1,2.7-1.9,1.3-3,1.5h-0.2
	c-2.5-3.8-6.2-6.5-10.6-7.6l-2,0.3l-5.7-1.9c6.1-3,6.2-3.1,10.8-0.4c3,1.7,3.9-0.6,5.2-2.1c0.9-0.9,0.8-2.4-0.1-3.2
	c-0.4-0.3-0.8-0.5-1.3-0.6c-3.3-0.6-6.5-1.7-10.2-1.2c-7.9,1.1-12.9,6.9-18.9,10.9l-3.8,1.3c-3.4,0.1-5.6,4-10.3,1.8
	c-2.5-1.2-7.3,1.6-9.8,5.4c-2.2,3.4-5.4,6.1-8.6,8.6c-3.9-0.3-7.5,0-10.3,3.2c-0.5,0.5-0.6,1.2-0.3,1.8c0.5,1,1.2,0,1.6,0.1
	c3.1,0.7,4.8-3.3,7.9-2.2c1,1.9,0.9,3.3-0.7,5.1c-3.3,3.7-5,8.4-6.6,13.2c2.3-4.3,7.4-5.9,9.2-10.5c0.3-0.9,0.1-2.3,1.6-1.8
	c1,0.4,0.7,1.5,0.4,2.6C76,78,74,82,74.1,86.4c0.1,2.7-1.3,0.7-2.1,0.6c-0.1-0.8,0.3-1.8-0.9-2c0.2-1.2,0.4-2.4,0.8-4.2
	c-1.1,1.1-2.1,2.2-3,3.4c-1.8,2.7-4.9,4.4-7,2.6s-1.2-5.4,1.3-7.7c1.3-0.7,1.4-1.4,0-2c0.2-1.8,2.3-2.2,2.8-3.7
	c0.9-0.4,1.4-1.4,0.8-1.9c-1.4-1-2.3,0.6-3.4,1.1l-2.2,1.6h-1c-1.2-7.6,2.6-12.2,9-15.3c6.5-0.2,9.8-4.2,11.7-9.9
	c6.2-2.4,12-6.2,19.2-5.6c2.1,0.1,4-0.8,5.2-2.5c3-4.8,8.2-5.5,12.7-7.8c5.7-2.9,11.1-2.5,16.8-1.2c4.1,0.9,6.2,3.5,6.3,7.6
	c0,1,0.3,2.4-1.5,2.6c-1,0.1-2.8-0.2-2.3,1.7c0.3,1.4,1.9,0.9,3,1c4.3,0.6,7.6,4.3,7.7,9.3c0.1,3.8-1.3,6.8-5.7,7.2
	c-0.8-0.2-1.8-0.2-2.3-0.7c-1.1-1-2.7-2.4-3.7-1.3s0,2.9,0.7,4.3c0.4,0.8,0.8,1.4,1.8,1.3c0.1,1.6,0,3.3,0.2,5
	c0.6,5.8,2,6.8,6.1,4.7c0.5,1.9,2.2,1.9,3.5,2c5.2,0.4,8.8,3.5,12.4,6.7c7.6,6.8,14.6,14,20.1,22.7c1.5,2.2,2.7,4.5,3.7,7
	c0.7,1.9,1.4,4.4-1.7,5.7c-4.5,1.9-2.2,4.2,0,6.1c4.9,4,9.3,8.7,10.9,14.7c2.5,9.3,6.8,18,8.4,27.5c0.6,3.9-0.2,7.9-2.3,11.2
	c-1.7-5.8,0.3-12.1-2.6-19.3c-0.4,8.2,0.1,15.1-1.3,21.8c-2.1,3.2,0.1,6.9-0.9,10.2c-0.1,0.9-0.5,1.8,0.9,2l0.2,2
	c-0.4,0.8,0.1,0.9,0.7,1c1.4,3.8-0.8,7.3-1,11c-1.6,1-1.4,2,0,3c-0.2,2.2-0.6,4.5-0.9,6.6c-1.1,7.4,0.3,14.8-1.2,22.1
	c-2.4,2.7-2.4,4.6,0.2,6.1c0.9,3,1.9,5.9,2.8,8.9c0.1,0.2-0.2,0.7-0.5,0.8c-2,1.2-1.6,3.5-2.4,5.2c-1.9,0.9-5.7,0.3-3.2,4.4
	c1.2,2.9-1,5.3-1,8c-2,1.7-4.4,3.1-6.9,3.9c2.2,1.5,5,1.6,7.3,0.3c4.6,1,8.5,0.2,11-4.2c0.9-0.5,1.7-1.3,2.8-1.1c0.5,1.3-0.7,2-1,3
	C200.7,276,198,277.6,198.1,281.1z M90.3,287c-0.4,1-0.9,2-1.3,3c-1,1.1-1.9,2.2-0.2,3.4c-1.4,1.2-3.1,2.3,0.1,3.3l0.1,0.1
	c-3-2-2.5,0.8-2.9,2.2c-0.3,0.7-0.6,1.4-1,2c-1.2,2.1-1.7,4.6-1.2,7l-2.8,7l-0.3,1c-0.7,0.2-1.1,1-0.9,1.7c0,0.1,0.1,0.2,0.1,0.3
	c-0.7,2-1.4,4-2.1,6c-1,1.2-1,2.6-1,4c-4.5,0.3-2.5,4.1-3.4,6.3c-0.3,2.6-2,5.2,0.2,7.7c-1.6,5.8,0.3,11.8,0.7,17.4
	c0.4,5.8,4.4,11.9,9.3,16.5c7.5,7,14.2,14.8,21.7,21.7c8.5,7.8,17.2,15.3,24.8,24c1.4,1.6,2.7,1.5,4.3,0.4c1.8-1.2,0.5-2.2,0-3.3
	c-2.4-5.5-4.8-10.9-7.1-16.4c-4-9.6-6.2-19.9-6.6-30.4c-0.1-4-0.9-7.9-2.3-11.6c-0.6-1.1-1-2.4-1.2-3.6c-1.2-13.8-0.1-27.8-4.4-41.3
	c-0.9-1.8-0.5-4,1-5.4c1.8,7.6,4.4,14.4,4.7,21.7c0.5,10.3,1.1,20.6,3.8,30.7c2.4,9.1,5.9,17.7,9.3,26.4c0.5,1.2,2.1,3-0.3,3.7
	c-1.8,0.5-1.8-1.5-2.3-2.6c-0.7-1.8-0.3-4.1-2.5-5.7c-0.1,1.2-0.1,2.5,0,3.8c2.8,15.1,9.3,28.5,18.4,40.8c1.4,1.9,3,3.5,2.9,6.1
	c-0.4,12.1,7.3,19.1,18.8,17.4c3.7-0.5,6.8-3.1,10.6-3.2c1.2,0,0.9-0.9,0.8-1.8c-0.3-3.1-1.9-6.8-1.7-9c0.4-5.2-1.6-8.8-3.5-13
	c0-1,0.4-2.1,0-2.9c-3.7-7.7-3-16.4-5.4-24.4c-0.7-6.6-0.1-13.4-2.2-19.9c-0.2-1.8,1-5.2-3.1-2.8l-4.1-3.7c0.4-2.3,2.9-1.8,3.3-3.8
	c3-15.5,7.3-30.6,11.6-45.8c0.4-0.9,0.8-1.8,1-2.8c1.6-8.9,3-17.8,4.7-26.7c0.7-3.7-2-1.9-3.3-2.5c-6.3-1.3-12.4-3.8-18.9-3.3
	c-9.8,0.7-19.4-0.9-29-1.8c-0.2-2.6,0.7-5.6-2.7-7c0.2-0.9,0.3-1.9,0.4-2.8c-1-4.3,2.5-2.9,5.3-3.4c-2.1-1.4-0.4-3.6-2.1-4.8
	l0.3-11.9c2.8-6.3,2.5-12.8,0.8-19.3c0.9-4,1.2-7.9-1.6-11.5c-1.1-1.4-1.7-3.3-1.6-5.1c-0.4-4.9-2.4-9.6-5.8-13.2
	c-0.1-3.1-0.4-6.3-0.2-9.4c0.9-13.6,3.8-27.1,3.2-40.9c-0.2-4.9-1.2-10.1,2.1-14.7c0.7-1.2,0.2-2.7-1-3.4c0,0,0,0-0.1,0
	c-1.5-0.9-0.9-2.3-0.7-3.6c3.5-1.6,4.9-4.2,3.6-8c1.5-1.7,3.5-2.9,4.3-5.3c1.3-4.5,4.5-6,8.8-4.5c2.8,1,5.9,0.7,7.4-1
	c3-3.4,7.1-3.1,10.6-3.8c5-1,10.5-0.9,14.5,2.9c2.4,2.3,4.3,3.7,7.1,1.2s0-4.9-1.2-6.4c-4.6-5.3-7.2-12.5-13.4-16.3
	c-5-3.1-7.6-8.7-13.2-10.9c-2.1-0.8-4.2-3.3-6.2-1.1s-4.2,4.3-3.8,8.1c0.7,6.3,0.9,12.8-3.8,18.1c-2.7-0.2-4.5,1.5-6.1,3.2
	c-1.2,1.2,0.1,1.4,1,1.7c-0.4,2.4-2.5,3.5-4,5c-1.7-0.1-3.8-0.9-4,2c-0.5,0.1-1.3,0-1.1,0.9l-0.1-0.2c-1.8,1.2-3.2,2.9-3.8,5
	c-0.8,2.5-1.3,3.7-5.2,3.9c-5.4,0.3-2.9-3.7-4.5-5.2c-0.8-0.9-1.5-2-2.1-3.1c-1,0.8-2.8,1.5-2.9,2.3c-0.2,2.2-1,4.6,1.2,6.6
	c2,1.8,3.8,4.8,1.9,7c-2.4,2.8-1.8,5.9-1.2,8.3c1.3,5.1,1.2,10.2,1.8,15.3c1.8,3.1,0.3,7.1,2.6,10.1c0.1,9-2.3,17.9-1.5,27
	c-1.1,0.9-1.4,1.9-0.2,3c0,1.3,0,2.6,0,4c-0.9,0.6-2.7-0.6-2.9,1.6s1.4,2.2,2.7,2.6l0.1,5.9c-1.5,0.1-1.9,1-1.8,2.4
	c0.7,9.2,1.3,18.4,1.9,27.6c-0.7,7-1.4,14-2.1,21c-2.5,1.7-4.1,3.9-3.9,7.1c0.2,3.5-1.9,4.4-5,3.9c-0.5-2.5-2.9-3.2-4.7-3.5
	c-0.6-0.1-2.1,2.6-2.7,4.2c-0.4,1.4-0.6,2.8-0.6,4.3c-0.2,0.1-0.3,0.3-0.2,0.5c0,0.1,0.1,0.1,0.1,0.1L90.3,287z M168,120
	c3.5-0.1,6,3.3,9.9,2.9c-1.4-2.8-3.9-5-6.9-6c-1.8-2.8-4.6-2.9-7.4-2.9c-9,0.1-16.5,5.2-24.7,7.8c-9.3,3.7-9.2,12.4-10,20.1
	c-0.5,5.1,0,10.4-0.4,15.6c-0.4,5.7-1.8,11.4-1.1,17.2c-3,1.2-1.5,4.1-1.8,6c-1,8-2.4,16.2,3.1,23.4c5.2,12.2,5.2,25.3,6,38.1
	c0.4,6.1-1.4,12.6-2.4,18.8c-1.1,7,0.9,10.6,7.9,11.8c10.6,1.9,21.3,3.6,31.9,5.7c3.2,0.6,5.8,0,9.1-1.5c-2-1.2-4.4-1.5-6.7-1
	c-4.9,0.8-10,0.8-11.7-5.1c-1.5-5.2-3.8-8.8-9.2-10.5c-2.4-0.8-3.2-3.4-2.6-5.9c0.5-2.4,1.3-4.8,2.4-7c1.4-2.1,1.4-4.7,0.2-6.9
	c-2.1-4-3.5-8.5-2.5-13c1-4.8,2.1-8.9,0.6-14.2c-2-7.3-1.2-15.4-2.3-23.1c-1.3-9.4,0.8-19.3-4.1-28.1c-0.7-1.2,0.2-2.6,0.3-3.9
	c1.1-9.7,3.3-19.2,5.5-28.8c0.8-1.8,1.3-3.8,2.5-5.3c1-1.4,2.9-3.1,3.2,0.7l0,0l-0.7,0.7l0.8,0.3c-0.1,0.6,0.1,1.4-0.3,1.9
	c-5.5,7-6.1,15.4-6.7,23.8c-2,2.3-0.3,5.8-3.3,8.1l4,0.4c0.4,9,0.5,18,1.2,26.9c0.7,7.9,1.9,15.8,3.3,23.6c0.9,5.2,5.2,8.6,8.8,12.4
	c-2.4,0-4.7,1.7-6.5-0.9c-0.6-0.9-1.5-1.3-2.3,0c-1.9,3,0,15.7,2.5,18.3c3.5,3.5,7.4,6.8,9.6,11.3c0.5,1,1.6,2,0.5,3.1
	s-2.1,0.5-3.2,0.1c-2.3-0.9-4.3-2.9-7.2-2.4c1.4,5,2.2,7.5,5,8.6c3.9,1.6,4.6,4.1,3.9,7.7c-0.8,3.8,1.5,4.6,4.5,4.4
	c3.2-0.2,6.5-0.9,9.7-0.9c5.8,0.2,7.9-1.6,6.3-6.6c-1.1-3.4-0.4-4.9,2.4-6.8c1.7-1.1,4.4-3.2,3.5-5.7c-0.7-1.9-3.2,0-4.9-0.2
	s-4.1,0.5-4.9-1.4s1.4-3.4,2.5-5c3.4-5.3,6.2-10.5,6.3-17.2c0.1-8.8,1.4-17.6,2.2-26.4c1.9-2.9,2.2-5.6-0.8-8
	c-0.9-6,0-11.9,0.2-17.9c2.8-1.5,0.9-4.2,1.4-6.2c0.2-5.1-0.4-10.2-1.7-15.1c-0.2-0.8-0.3-2.4-1.7-1.5c-1.1,0.7,0,1.7,0.4,2.5h-1.6
	c-0.3-8.1-3.2-16-8.1-22.4c-5-6.6-10.5-13.3-20.5-11.1c-0.5,0.1-1,0.1-1.5,0c-0.7-0.4-1.5-1.2-0.6-1.8c1.8-0.9,3.7-1.7,5.6-2.4
	C165.6,120.4,166.8,120.3,168,120L168,120z M106.2,66.9c-0.4-0.9-1-1-1.8-0.6l0.8,1.4c0.8,1.4,1.5,2.8,0.9,4.5c-0.4,3,0.1,6,1.5,8.6
	c3.6,6.9,6,14.4,7,22.1c-2,2.5-2.5,5,0.1,7.4c-0.2,2,0,4.2-0.8,5.8c-1.7,3.2,0,5.3,1.3,7.8s2.3,1.7,3.4-0.1s1.7-4.2,3.4-6
	c5.2-5.1,10.3-10.2,15.1-15.7c1.5-1.7,3.9-4,0.7-7.4c-1-1.1-3.7-3.4-3.4-6.4c0.2-3.5,0.3-7,0.1-10.4c-0.1-5.6-0.2-11.3-4.4-15.8
	c1.3-1.2,3.5-1.6,3.7-3.9c-0.1-4.3-4.6-3.3-6.8-5.2c-0.6-0.5-3.1,1.8-3.1,4c-2.5,0.1-2.8,1.2-1.9,3.4c3.3,7.8,3.3,7.8-3.2,12.3
	c-0.5,0.4-1.2,0.8-1.4,1.4c-0.9,3.4-2.7,2.2-4.6,1C111.5,71.7,109.2,68.9,106.2,66.9z M97.1,260.9l3.9,0.2c1.7,1.8,3.4,3.1,5-0.1
	c0.3-2.7,0.5-5.4,0.8-8.1c2.3-6.8,2.3-13.6,0.6-20.5c-2.2-9.3-2.9-19-1.9-28.5c0.7-7.3,2.4-14.7,3.8-22c1.4-7.2-1.2-13.7-4.3-20
	c0.3-0.6,0.1-1.4-0.5-1.7c-0.1-0.1-0.2-0.1-0.3-0.1c2-9.6,2.3-19.5,0.7-29.1c-0.2,3.1-1.4,4.6-4.4,4.4c-0.7,0-1.9,1.2-2,2
	c-1,5-3,9.5-3.6,14.7c-1.1,10.5,0.5,21.1-2.6,31.4c-0.5,1.5-1.2,3.1-1.1,4.7c0.9,12.3,0.4,24.8,3.6,36.9c-3.3,2.3-1.5,5.2-0.8,7.9
	c-1.5,5.1-2.1,10.5-4.9,15.2c-1.9,3.2-4.4,7,2,8.4c0.7,0.1,1.3,1,1.9,1.5C93.8,259.7,95.4,260.7,97.1,260.9z M141,432.2
	c0.7,0.6,1.6,0.9,1.9-0.1c0.7-2.3-3.1-7-5.9-7.4c-2.9,0.5-5.3,2.7-8.3,2.7c-1,0-2.3-1-2.5,1c-0.2,1.3,0.3,2.6,1.3,3.5
	C130.8,434.7,137.3,434.9,141,432.2z M186,451.9c-0.2-1.8-0.5-3-2.6-1.4c-2.7,2.1-6,2.4-9.2,3c-5.7,0.9-11.3,2.5-17.1,0.8
	c-2-0.6-5.1-2.9-6.1,0c-0.8,2.3,2.4,4,4.6,5.2c0.2,0.1,0.3,0.2,0.4,0.2c7.2,3.7,14.7,2.2,21.8,0.4c2.7-0.7,8.5-0.2,8.2-6.1
	c0.8,0.2,1.3-2,2.1-0.3c1,2.1,2.9,1.9,3.6,0.6s0.8-3.8-0.7-4.9s-2.5,0-2.8,1.8C188.1,451.5,186.7,451.7,186,451.9z M138,282.8
	c4.5,1.2,9.1,1.8,13.8,1.6c7.6-0.2,15.3,0.6,22.7,2.4c6.2,1.5,12.6,3.1,19.1,3.4c3.3,0.1,3.2-2.4,3.5-4.3c0.4-2.6-1.7-1.7-3-1.9
	c-3-0.3-5.9-0.5-8.8-1c-15.7-2.9-31.7-4.3-47.2-8.7c-1.8-0.5-4.2-1.2-6,0.6c-1.9-1.1-2.9-0.9-3,1.6C128.8,282.2,131,283.8,138,282.8
	z M87.9,200.2c0.3-2.2,2.7-4.5-0.5-7c-0.8,4.6-3.5,8.4-2.1,13c-1.3,2.7-2.2,5.7-4,7.9c-2.5,3.1-3.6,7-3.2,10.9
	c0.4,6.4-1.3,8.4-7.6,7.9c-4.4-0.3-4,3.6-5.8,5.4c-1.4,1.4-0.7,3.7,1,5.5c1.6,1.6,3.8,2.8,4.6,5.1c0.4,1,1.1,2.1-0.3,3
	c-1.1,0.8-1.9,0.2-2.7-0.4c-1.9-1.5-4.1-2.8-6.3-3.8c-3.7-1.6-5.1-0.5-4.8,3.2c0.3,2.9-0.7,4.7-3.1,6.4c-4.9,3.5-4.8,4.9-0.5,9.4
	c0.8,0.8,1.5,1.8,2,2.8c1.9,3.7,4.8,3.8,7.9,2.1c5-2.7,10.4-4.5,16-5.3c2.2-0.3,4.6-1.2,4.3-3.9c-0.6-7.1,2.8-13,5.4-19.2
	c1.5-3.7,2.2-7.7,2.1-11.6C90.3,221.1,87.7,210.8,87.9,200.2L87.9,200.2z M154.6,491.8c10.3-9,18.2-20.3,28.3-29.5
	c-7,1.3-13.6,3.4-20.6,2.4c-1.4-0.2-1.1,1.3-1.3,2.2c-1.6,7-1.6,14.4-6,20.6C154,488.7,153.8,490.4,154.6,491.8L154.6,491.8z
	 M103.6,267.6c0.6-1.5-1-1.3-1.7-1.9c-3.5-2.9-9.2-1.6-11.9-6.5c-0.7-1.3-3.7,0.5-4.9,2.2c-0.5,0.8-0.8,2.2,0.6,2.5
	c4.9,1.1,8.2,5,12.4,7C101.5,272.5,103.5,271.2,103.6,267.6L103.6,267.6z M75,223.2c-2.6,2-2.5,5-5.8,6.2
	C76.2,231.2,74.7,226.9,75,223.2L75,223.2z M194.4,458.2c-1.2-0.2-1.1-2.5-2.7-1.8c-0.5,0.4-0.7,1-0.6,1.6
	C191.9,459.6,193.2,458.7,194.4,458.2L194.4,458.2z M196.7,454.4c0-0.7-0.2-1.2-1-1.3c-0.7-0.1-1.4,0.4-1.5,1.2c0,0.1,0,0.2,0,0.3
	c0,0.6-0.1,1.4,0.8,1.3S196.3,455.1,196.7,454.4L196.7,454.4z M189.4,446.9h0.2l-0.2,0.4L189.4,446.9z M89.7,386.2l-0.7,0.4
	c0.1,0.1,0.2,0.3,0.3,0.3c0.2-0.1,0.5-0.2,0.7-0.3L89.7,386.2z M156.3,252.5l0.3,0.2l0-0.3L156.3,252.5z"/>
<path class="st1" d="M132,49.1c-5.9,1.5-11.5,3.6-15.3,8.7c-5.6,0.8-5.5,1-3,5.7c1.4,2.6,3.6,4.4,5.4,6.6c-3.8,1-6.2-1.4-8.5-3.8
	c-2.2-2.2-3.9-4.8-7.3-5.4c-1.3-0.2-2.8-1.6-4,0.2c-0.9,1.5,0.3,2.5,1,3.5c1.4,2,2.3,4.4,2.3,6.9c0.2,2.7-0.3,3-3,3.7
	c-3.1,0.8-3.2-0.9-2.8-2.3c1.6-5.7-4-6.7-6.2-9.9c-0.7-1.1-1.3,0-1.9,0.8c-1.9,2-3.2,4.5-3.7,7.2c-0.4,2.6-1.5,5-3.2,7
	c-0.5,0-1.3-1-1.5,0.1c-0.1,0.8,0.8,0.9,1.5,0.9L78.6,85c-2,0.7-2.4,2.4-2.6,4.2c-0.7,1-1.3,2-2,3c0.1,0.2,0.1,0.4,0,0.6L72,94
	L71,94c0-2,0-4,0-6c0-0.3,0-0.6,0-0.9l1-0.1c0.8,0.1,2.2,2.1,2.1-0.6C74,82,76,78,76.9,73.8c0.2-1,0.5-2.2-0.4-2.6
	c-1.5-0.6-1.2,0.9-1.6,1.8c-1.8,4.6-6.9,6.2-9.2,10.5c1.7-4.8,3.3-9.5,6.6-13.2c1.6-1.8,1.7-3.2,0.7-5.1c1.2-0.7,0.6-2,1.1-2.9
	c3.2-2.5,6.4-5.2,8.6-8.6c2.4-3.8,7.2-6.5,9.8-5.4c4.6,2.1,6.8-1.8,10.3-1.8c0,0.9,0.4,2,1.3,1.6c2.7-1.1,5.9-0.5,8.3-2.4l1.8-1.3
	l1.3-0.7l5.5-1.4c-3.2-1.4-4.7-0.5-6.2,0.7l-1.3,0.7l-1.9,1.1l-5.1,0.4c6-4.1,11-9.8,18.9-10.9c3.7-0.5,6.9,0.6,10.2,1.2
	c1.3,0.1,2.2,1.3,2,2.5c-0.1,0.5-0.3,0.9-0.6,1.3c-1.2,1.4-2.2,3.8-5.2,2.1c-4.6-2.7-4.7-2.5-10.8,0.4l5.7,1.9
	c-0.1,1.8,0.8,3.4,2.3,4.3c-0.1-1.8-0.2-3.2-0.2-4.7c4.4,1.1,8.1,3.8,10.5,7.6l-1.6,1.4c-0.3-0.1-0.5-0.2-0.7-0.4
	C135.9,50.1,134.5,48.6,132,49.1z M78.4,68.6c1.6,0.3,3.7,0.9,3.4-2.2L78.4,68.6z"/>
<path class="st0" d="M169.8,529.7c-10.3,0.1-20.5,0-30.8,0.6c-4.3,0.2-3.7-3.1-4.8-5s0.4-3.3,2.2-4.5c4.6-3.1,9.5-5.5,14.8-7.1
	c7.2-2.1,11.8-8.7,18.5-11.9c1.4-0.6,1.6-2,1.2-3.5c-0.9-3.5-0.8-6.2,4-5.9c2,0,3.9-0.1,5.9-0.3c-0.8,1.4,1.7,1.8,1.1,3.2
	c-2.5,0.8-6-2-7.1,2.4c-1.2,1.5-1.1,3.4-1.4,5.1c-0.5,3.3-1.3,5.8-5.3,7.1c-2.8,1-5.9,0.4-8.6,2.2c-3.9,2.7-8.1,5.1-13,6
	c-1,0.2-2.6,0.8-2.2,2.8l8.4-0.5c3,2,5.7,1.2,8.2-0.9c4.2-1.4,8.6-2,13-1.8c5.8,0.5,11.6-0.3,17.3-1.5c1-0.1,1.9-0.7,2.2-1.6
	c2-5.4-1.1-16.8-5.5-20.8c-1.8,0.1-3.5-0.5-4.8-1.7c0.7-0.1,1.3-0.2,2-0.4c6.5-2.1,6.1-2,8.3,4.1c2.4,6.8,3.4,14.2,7.5,20.5
	c2.1,3.3-1.1,9-4.9,9.4c-2.6-1.4-5-1.3-7.2,0.9l0.1,0.2c-5.2-0.1-10.5,0.4-15.6,1.4C171.8,528,170.3,527.6,169.8,529.7z
	 M190.8,522.7h3.4c1.4,0,3.1,0.7,3.7-1.2c0.3-0.9,0.2-1.9-0.3-2.8c-1.3-1.5-2.5,0.4-3.9,0.4c-5.5-0.8-10.7,1.9-16,2.2
	c-12.5,0.6-24.8,3.4-37.4,2.4c-1.1-0.1-3.1-0.6-3.1,1.4s1.7,1.9,3.3,1.8c7.2-0.4,14.4-0.4,21.5-1.1
	C171.7,524.9,181.5,526.2,190.8,522.7L190.8,522.7z"/>
<path class="st0" d="M201.6,192.2c0,12.8,2.3,25.6-0.3,38.4c-0.8,3.7,0.1,7.6,1.6,11.1c1.2,2.4,1.3,5.2,0.4,7.7
	c-1.7,4-0.5,7.2,1.2,10.7c1,2.1,2.8,4.4,0.4,6.8c-4.2-0.8-1.5-5.2-3.6-7.1l-1.2-3.9c-0.4-1.3-0.4-2.7,0.1-3.9c0.9-1.8,1.8-3.5-0.5-5
	c-0.4-18,1.3-36,0.4-54c0.5-0.2,1.4-0.1,0.7-1.1L201.6,192.2z"/>
<path class="st2" d="M89.9,165.1c1.9,7.9,0.5,16.2-4,22.9c-0.5-0.2-1.3-0.4-1.3-0.5C85.5,179.9,86,172,89.9,165.1z"/>
<path class="st3" d="M138.8,65.1c-1,0.1-1.4-0.5-1.8-1.3c-0.7-1.4-1.8-3.3-0.7-4.3s2.6,0.3,3.7,1.3c0.5,0.5,1.5,0.5,2.3,0.7
	c1,4.4,1.9,8.8,2.9,13.2c-2.9,1.5-2.5-1.1-3.2-2.5C140.8,69.8,142,66.4,138.8,65.1z"/>
<path class="st2" d="M80.8,49c-1.9,5.6-5.2,9.7-11.7,9.9C72.7,55.2,74.8,49.8,80.8,49z"/>
<path class="st2" d="M196.1,180.8c1.3-6.7,0.9-13.6,1.3-21.8c3,7.1,0.9,13.5,2.6,19.3c0,0.9,0,1.8,0,2.8l-0.1,0
	C198.6,181.6,197.5,178.7,196.1,180.8z"/>
<path class="st3" d="M174.8,497.7c1.1-4.4,4.6-1.6,7.1-2.4c0.6-1.3-1.9-1.8-1.1-3.2h2.3c1.3,1.2,3,1.8,4.8,1.7
	c-0.4,2.1-2.1,2.9-3.8,3.2C181,497.5,177.9,497.5,174.8,497.7z"/>
<path class="st2" d="M173.3,528.2c5.2-1,10.4-1.5,15.6-1.4c2,3.6-0.7,3.1-2.8,3.1c-1-2.1-2.8-0.9-4.3-1
	C179,528.8,176.1,529.5,173.3,528.2z"/>
<path class="st3" d="M201.2,259.9c2.1,1.9-0.6,6.3,3.6,7.1c-0.4,1.3,0.5,3-0.9,4.1c-1.2-0.2-2,0.5-2.8,1.1L201,270
	c1.5-1.3,0.5-2-0.7-2.5c-0.1-2.2-0.3-4.4-0.4-6.5L201.2,259.9z"/>
<path class="st2" d="M138.8,65.1c3.2,1.4,2,4.8,3.2,7.1c0.7,1.4,0.2,4,3.2,2.5h-0.1c-4.1,2.1-5.5,1.1-6.1-4.7
	C138.8,68.4,138.8,66.7,138.8,65.1z"/>
<path class="st2" d="M200,181c3.8,1.8,1.3,5.2,2,7.9l-3-0.5C198.9,185.9,198.3,183.3,200,181L200,181z"/>
<path class="st3" d="M198.1,281.1c0-3.5,2.7-5.1,4.8-7.1C203.2,277.7,203.1,281,198.1,281.1z"/>
<path class="st3" d="M173.3,528.2c2.8,1.3,5.7,0.5,8.6,0.7c1.4,0.1,3.3-1.1,4.3,1l-16.3-0.3C170.3,527.6,171.8,528,173.3,528.2z"/>
<path class="st2" d="M86,82c-0.2,1.5-3,1.8-1.9,4l-2.8,0.1c1-2,2-3.9,2.8-5.9c0.6-1.4,1.2-1.2,2-0.2c0,0.3,0,0.5,0,0.8L86,82z"/>
<path class="st3" d="M188.8,526.6c2.2-2.2,4.6-2.3,7.2-0.9C193.8,528.3,191.2,526.7,188.8,526.6z"/>
<path class="st2" d="M63.1,77c1.4,0.7,1.3,1.3,0,2c-1.3-1.5-7.5,0.1-3.1-5h1C61,75.6,61.1,77,63.1,77z"/>
<path class="st2" d="M71,88c0,2,0,4,0,6C67.9,92,68,90,71,88z"/>
<path class="st3" d="M199,188.4l3,0.5c0,1.1,0.3,2.3-0.4,3.4l-0.9-0.2c-0.3,0.2-0.6,0.3-0.9,0.4C199.6,191.1,199.3,189.8,199,188.4z
	"/>
<path class="st2" d="M72,87.1l-1,0.1c-1-0.7-1-1.4,0.1-2.1C72.3,85.3,71.9,86.3,72,87.1z"/>
<path class="st2" d="M72,94.1l2-1.2C73.9,94.2,73.8,95.5,72,94.1z"/>
<path class="st2" d="M84.1,86c2,0.2,1.3,1.1,0.6,2.1C84,87.6,83.8,86.7,84.1,86z"/>
<path class="st4" d="M129.2,255.1l-0.3,11.9c-6-0.6-4.2,4.8-5.8,7.6c-0.2,0.1-0.4,0.3-0.5,0.5c-2.9,2.9-5.2,6-6,9.9l1.2,0.6
	c1.8-3.1,3.6-6.2,5.5-9.3l1-1h1.5c-0.1,0.9-0.3,1.9-0.4,2.8h0.2c-1.6,2.1-4.3,4.1-0.4,6.5l3,0.5c9.7,0.9,19.3,2.5,29,1.8
	c6.5-0.5,12.7,1.9,18.9,3.3c-1.6,9.9-1.3,20.1-4,29.8c-0.3,1.1,0.4,1.9,1.6,2.1c-4.3,15.1-8.6,30.3-11.6,45.8
	c-0.4,2.1-2.9,1.6-3.3,3.8l4.1,3.7c-0.8,4.4,0.4,9.2-2.5,13.2c-0.5,2.1,0,3.5,2.5,3.4c-0.8,6.9,1.9,13.3,4.1,19.3
	c1.2,3.4,3.2,6.7,3.6,10.5c0.2,1.7,1.4,3.1,3,3.5c1.9,4.1,3.9,7.8,3.5,13c-0.2,2.1,1.3,5.8,1.7,9c0.1,0.9,0.4,1.7-0.8,1.8
	c-3.8,0.1-6.9,2.7-10.6,3.2c-11.6,1.7-19.2-5.3-18.8-17.4c0.1-2.5-1.5-4.2-2.9-6.1c-9.1-12.2-15.6-25.7-18.4-40.8
	c-0.1-1.2-0.1-2.5,0-3.8c2.2,1.6,1.8,3.9,2.5,5.7c0.5,1.2,0.5,3.2,2.3,2.6c2.3-0.7,0.8-2.5,0.3-3.7c-3.4-8.7-6.9-17.3-9.3-26.4
	c-2.7-10.1-3.3-20.4-3.8-30.7c-0.4-7.3-2.9-14.1-4.7-21.7c-1.5,1.4-1.9,3.6-1,5.4c4.3,13.5,3.2,27.5,4.4,41.3
	c0.2,1.3,0.6,2.5,1.2,3.6c1.4,3.7,2.1,7.6,2.2,11.5c0.3,10.5,2.6,20.8,6.6,30.4c2.3,5.5,4.7,10.9,7.1,16.4c0.5,1.1,1.8,2.1,0,3.3
	c-1.7,1.1-3,1.2-4.3-0.4c-7.6-8.7-16.3-16.3-24.8-24c-7.6-6.9-14.3-14.7-21.7-21.7c-4.9-4.6-8.9-10.7-9.3-16.5
	c-0.4-5.6-2.3-11.6-0.7-17.4c2.7-2.6,2.6-5.2-0.2-7.7c0.9-2.2-1.2-6,3.4-6.3c0.2,1.2-1.5,2.3,0.5,4.2c-0.4-3.2,5.2-5,0.5-8.2
	c0.7-2,1.4-4,2.1-6c0.9-0.1,2.1,0.3,2.4-0.9s-0.9-1-1.7-1.1l0.3-1c4-1.3,5.3-4.5,2.8-7c-0.4-2.4,0-4.9,1.2-7
	c0.8,0.1,1.6,0.2,2.3,0.5c3,1.2,2.5-1.7,2.1-2.4c-0.7-1.3-2.3,0.3-3.5-0.2c0.4-1.4-0.2-4.2,2.9-2.2c2.8-1.9,2.6-4.9,3-7.8
	c1.9-2.5,2.8-5-0.2-7.4c-0.2-0.1-0.2-0.4,0-0.6c0,0,0.1-0.1,0.1-0.1c1.3-0.1,3,0.4,3-1.6c-0.1-4.5,1.7-1.8,2.9-0.8
	c0.6,0.5,0.6,1.6,1.8,1.6c1-1.3,0.4-2.8,0.5-4.2c3.1,0.5,5.2-0.4,5-3.9c-0.2-3.2,1.4-5.4,3.9-7.1c2,0.5,4.1,0.2,5.8-1
	c2.6,1.8,3.6,0,3.1-1.9c-2.7-9.7-2.3-20-5-29.6c-1.7-6.1,0-12.4-2-18.4c0-2,0-3.9-0.1-5.9c0.7-1.3,0.8-2.8,0.1-4.1c0-1.3,0-2.6,0-4
	c0.9-0.5,1.2-1.6,0.6-2.5c-0.1-0.2-0.2-0.3-0.4-0.5c-0.8-9.1,1.7-18,1.5-27c2.4-8.9,2.1-17.9,1.8-27c-1.1,4.3-2.1,8.5-1.7,13
	c0.1,1.4,1.7,5-2.7,3.9c-0.6-5.1-0.5-10.2-1.8-15.3c-0.6-2.5-1.2-5.5,1.2-8.3c1.9-2.2,0-5.2-1.9-7c-2.2-2-1.4-4.4-1.2-6.6
	c0.1-0.9,1.9-1.5,2.9-2.3c0.6,1.1,1.3,2.1,2.1,3.1c1.6,1.5-0.9,5.5,4.5,5.2c3.8-0.2,4.3-1.4,5.2-3.9c0.6-2.1,1.9-3.8,3.8-5
	c1.9,3.5-0.7,6.2-1.8,9.2c-0.8,2.2-1.4,4.1,1.4,5.2c-0.3,1.3-0.8,2.7,0.6,3.6c1.2,0.6,1.7,2.1,1.1,3.4c0,0,0,0,0,0.1
	c-3.3,4.6-2.3,9.8-2.1,14.7c0.6,13.8-2.3,27.2-3.2,40.9c-0.2,3.1,0.1,6.3,0.2,9.4c-0.2,5.3,1.3,9.9,5.7,13.2
	c-0.1,1.8,0.4,3.6,1.6,5.1c2.7,3.6,2.5,7.5,1.6,11.5c-2,0.6-2,2.1-2.1,3.9C127.4,244.9,128.6,250,129.2,255.1z M169.4,292.3
	c-4.2-2.2-8.8-3.5-13.5-3.8C160.1,290.8,164.7,291.7,169.4,292.3L169.4,292.3z M113.7,134.8c2.1,3.1,5,3.8,9.8,2.6
	C119.8,135.4,116.3,136.6,113.7,134.8z M94.5,292.6c2.7-2.5,4-5.5,3.2-9.2C96.6,286.5,95.6,289.5,94.5,292.6z M128.7,228.4
	c-0.6,1-0.6,2.2,0,3.2V228.4z M75.6,334.5c0.3-0.2,0.6-0.2,0.8-0.5s-0.1-0.5-0.2-0.7c-0.3,0.1-0.7,0.2-0.8,0.4
	S75.5,334.2,75.6,334.5z"/>
<path class="st4" d="M193.4,177.1c-0.2,6-1.2,11.9-0.2,17.9c-1.6,2.9-2.2,5.6,0.8,8c-0.8,8.8-2.1,17.6-2.2,26.4
	c0,6.8-2.8,12-6.3,17.2c-1,1.6-3.2,3-2.5,5s3.1,1.2,4.9,1.4s4.2-1.7,4.9,0.2c0.9,2.5-1.8,4.6-3.5,5.7c-2.9,1.9-3.6,3.4-2.4,6.8
	c1.7,5-0.5,6.8-6.3,6.6c-3.2-0.1-6.5,0.6-9.7,0.9c-3,0.2-5.3-0.5-4.5-4.4c0.7-3.5,0.1-6.1-3.9-7.7c-2.8-1.1-3.6-3.5-5-8.6
	c2.9-0.5,4.9,1.6,7.2,2.4c1.1,0.4,2.2,1,3.2-0.1s0-2.1-0.5-3.1c-2.3-4.6-6.1-7.8-9.6-11.3c-2.6-2.6-4.4-15.3-2.5-18.3
	c0.8-1.3,1.7-0.9,2.3,0c1.8,2.6,4.1,0.9,6.5,0.9c-3.6-3.8-7.8-7.1-8.8-12.4c-1.4-7.8-2.6-15.7-3.3-23.6c-0.8-8.9-0.9-17.9-1.2-26.9
	c-0.1-2.8,0.7-5.8-0.7-8.5c0.5-8.4,1.2-16.8,6.7-23.8c0.3-0.4,0.2-1.2,0.3-1.9V125l0,0c1.5,0.1,2.9,0.3,3.1-1.8c0.5,0.1,1,0.1,1.5,0
	c10-2.2,15.5,4.5,20.5,11.1c5,6.5,7.9,14.4,8.2,22.6C190.8,163.7,191,170.6,193.4,177.1z"/>
<path class="st4" d="M151.3,129.6c-2.2,9.5-4.4,19-5.5,28.8c-0.2,1.3-1,2.6-0.3,3.9c4.9,8.9,2.8,18.8,4.1,28.1
	c1.1,7.7,0.3,15.7,2.3,23.1c1.5,5.3,0.4,9.4-0.6,14.2c-1,4.5,0.4,9,2.5,13c1.3,2.1,1.2,4.8-0.2,6.9c-1.1,2.2-1.9,4.6-2.4,7
	c-0.7,2.5,0.2,5.1,2.6,5.9c5.4,1.7,7.7,5.4,9.2,10.5c1.7,5.8,6.8,5.9,11.7,5.1c2.3-0.5,4.6-0.2,6.7,1c-3.2,1.5-5.8,2.1-9.1,1.5
	c-10.6-2.1-21.2-3.8-31.9-5.7c-7-1.2-9-4.8-7.9-11.8c1-6.3,2.8-12.7,2.4-18.8c-0.8-12.8-0.7-25.9-6-38.1l-1.4-29.3
	c-0.7-5.8,0.7-11.5,1.1-17.2c0.3-5.2-0.1-10.5,0.4-15.6c0.7-7.7,0.7-16.4,10-20.1c3.4,2.5,7.8,0.2,11.3,2.9
	C148.5,126.6,148.8,128.4,151.3,129.6z M150.1,271.4c-4-0.1-7.9-2.6-13.4-0.5C142.1,270.9,145.9,273,150.1,271.4z"/>
<path class="st1" d="M87.9,200.2c-0.2,10.6,2.5,21,2.6,31.5c0.1,4-0.6,7.9-2.1,11.6c-2.6,6.1-6.1,12-5.4,19.2
	c0.2,2.7-2.2,3.5-4.3,3.9c-5.6,0.8-11,2.5-16,5.3c-3.1,1.8-6,1.6-7.9-2.1c-0.5-1-1.2-2-2-2.8c-4.4-4.5-4.5-5.9,0.5-9.4
	c2.4-1.7,3.4-3.5,3.1-6.4c-0.3-3.6,1.1-4.8,4.8-3.2c2.2,1,4.4,2.3,6.3,3.8c0.8,0.6,1.6,1.1,2.7,0.4c1.4-1,0.6-2,0.3-3
	c-0.8-2.3-3-3.5-4.6-5.1c-1.8-1.8-2.5-4.1-1-5.5c1.8-1.8,1.4-5.8,5.8-5.4c6.3,0.5,8-1.6,7.6-7.9c-0.4-3.9,0.8-7.8,3.2-10.9
	c1.8-2.3,2.7-5.3,4-7.9C88.3,205.1,85.3,201.4,87.9,200.2z"/>
<path class="st1" d="M94.8,225c-3.1-12.1-2.7-24.6-3.6-36.9c-0.1-1.5,0.6-3.1,1.1-4.7c3.1-10.3,1.4-21,2.6-31.4
	c0.5-5.2,2.6-9.8,3.6-14.7c0.2-0.8,1.4-2,2-2c3,0.2,4.2-1.3,4.4-4.4c1.6,9.7,1.4,19.6-0.7,29.1c-2.3,5-3.6,10.2-2.9,15.9
	c-0.8-5.3,4.3-8.8,3.7-14.1c3.1,6.3,5.7,12.8,4.3,20c-1.4,7.3-3.1,14.8-3.8,22c-0.9,9.5-0.3,19.2,1.9,28.5c1.7,7,1.8,13.8-0.6,20.5
	c-1-0.9-0.9-2-0.6-3.2s1.7-3.2-0.7-3.5s-1.2,2.1-1.6,3.3c-0.2,0.4-0.4,0.9-0.7,1.3c-1.9-9.1-2.2-18.3-2.2-27.5
	c0-1.9,0.3-3.7-2.1-4.4c1.8-2.6,2.4-5.9,1.8-9c-1.3-7.1-0.7-14.2-0.2-21.3c0.2-3.2,0.8-6.6-0.8-9.7c-1,0.4-1.6,1.5-1.4,2.5
	c0.8,7.3-1,14.6-0.3,21.9c0.2,1.7,0.5,3.4-2,3.6c0-0.2-0.1-0.5-0.2-0.8l-0.5,0.1l0.7,0.6c1.1,1.7,3.8,2.7,1.5,5.8
	c-0.7,1-2.4,5,1.5,6.2C96.4,220.1,99.3,225.2,94.8,225z"/>
<path class="st4" d="M130.2,62.1c4.2,4.5,4.2,10.2,4.4,15.8c0.2,3.5,0.1,7-0.1,10.4c-0.3,3,2.4,5.2,3.4,6.4c3.2,3.4,0.8,5.7-0.7,7.4
	c-4.7,5.5-9.9,10.6-15.1,15.7c-1.8,1.7-2.2,4-3.4,6s-2.1,2.5-3.4,0.1s-3.1-4.6-1.3-7.8c0.9-1.6,0.6-3.9,0.8-5.8
	c1.8-2.5,0.6-4.9-0.1-7.4c-1-7.7-3.4-15.2-7-22.1c-1.4-2.7-1.9-5.7-1.5-8.6c2.1,1.4,4,3.3,6.9,3c1.9,1.2,3.7,2.4,4.6-1
	c0.2-0.5,0.8-1,1.4-1.4c6.4-4.4,6.5-4.5,3.2-12.3c-0.9-2.2-0.7-3.3,1.9-3.4l1,0.1v1C125.3,61.3,127.8,61.6,130.2,62.1z"/>
<path class="st1" d="M130,117.1c1.5-1.6,3.6-2.6,4-5c2.1-1.2,3.8-2.8,5.1-4.9c4.7-5.3,4.5-11.8,3.8-18.1c-0.4-3.9,1.8-6,3.8-8.1
	s4.2,0.3,6.2,1.1c5.6,2.2,8.2,7.8,13.2,10.9c6.2,3.8,8.8,11,13.4,16.3c1.3,1.5,4.1,3.9,1.2,6.4s-4.6,1.1-7.1-1.2
	c-4-3.8-9.6-3.9-14.5-2.9c-3.5,0.7-7.6,0.4-10.6,3.8c-1.5,1.7-4.7,2-7.4,1c-4.3-1.5-7.5,0.1-8.8,4.5c-0.7,2.4-2.8,3.6-4.3,5.3
	C125.8,122.5,128.5,119.9,130,117.1z"/>
<path class="st1" d="M109.7,98.3c0.3,1.1,0.7,2.2,1,3.3c1.1,4.1-0.2,12.8-1.9,13.4c-9.1,2.9-14.3,0.8-18.7-5.4
	c-3.8-5.3-6.2-9.9-2.3-16.3c2-3.3,1.4-7.4,0.2-11.1c2.3-3.4,2.4-7.7,4.3-11.3c1,2.2,2.1,4.5,3.1,6.7c1.2,2.5,2.8,4.1,5.8,3.4
	c2,4.9,4.8,9.4,6.1,14.6C107.4,97,108.4,98,109.7,98.3z M90.4,89.9c-0.4,2,0.7,3.5,1.9,4.9c0.8,0.9,0.8,3,2.6,2.5s1.5-2.3,1.5-3.8
	c2.7-3.4,0.8-6.6-1.8-7.9C91.8,84.2,90.9,87.5,90.4,89.9z"/>
<path class="st5" d="M199,188.4c0.3,1.4,0.6,2.7,0.8,4.1c0,0.2,0,0.4,0.2,0.6c1,18-0.7,36-0.4,54c-0.7,1.8-1.3,3.5,0.5,5
	c-0.5,1.2-0.6,2.6-0.1,3.9c-1.4,1.1-1.7,3.2-0.5,4.7c0.1,0.1,0.2,0.2,0.3,0.3c0.1,2.2,0.3,4.4,0.4,6.5c-0.3,1-0.3,1.9,0.7,2.5
	l0.1,2.1c-2.5,4.4-6.4,5.3-11,4.2c0-1.4,2.3-3.1-0.4-4.2c0-2.7,2.2-5.1,1-8c2.7-0.2,3.9-1.6,3.2-4.4c0.8-1.7,0.4-4,2.4-5.2
	c0.2-0.1,0.6-0.6,0.5-0.8c-0.9-3-1.8-5.9-2.8-8.9c0.7-2,0.7-4.1-0.2-6.1c1.5-7.3,0.1-14.7,1.2-22.1c0.3-2.2,0.7-4.4,0.9-6.6
	c1.3-1,1.3-2,0-3c0.2-3.7,2.4-7.2,1-11l-0.7-1l-0.2-2c1.4-1.4,0.3-1.7-0.9-2c1-3.3-1.2-7,0.9-10.2c1.4-2.1,2.5,0.8,3.9,0.2
	C198.3,183.4,198.9,185.9,199,188.4z"/>
<path class="st1" d="M132,275c1.8-1.8,4.2-1.1,6-0.6c15.5,4.4,31.5,5.8,47.2,8.7c2.9,0.5,5.9,0.7,8.8,1c1.3,0.1,3.5-0.7,3,1.9
	c-0.3,1.9-0.2,4.4-3.5,4.3c-6.5-0.2-12.8-1.9-19.1-3.4c-7.4-1.8-15-2.6-22.7-2.4c-4.7,0.2-9.3-0.4-13.8-1.6
	c-0.2-1.1-0.5-2.1-0.7-3.2c3-0.3,5.8,1.9,9.9,1L132,275z"/>
<path class="st1" d="M154.6,491.8c-0.8-1.4-0.6-3,0.4-4.2c4.4-6.2,4.4-13.6,6-20.6c0.2-0.9-0.2-2.4,1.3-2.2c7,1,13.6-1.1,20.6-2.4
	C172.8,471.5,164.9,482.7,154.6,491.8z"/>
<path class="st1" d="M186,454c0.4,6-5.4,5.4-8.2,6.1c-7.1,1.8-14.6,3.3-21.8-0.4c-0.2-0.1-0.3-0.2-0.4-0.2c-2.3-1.2-5.5-2.8-4.6-5.2
	c1-2.8,4-0.5,6.1,0c5.8,1.7,11.5,0.1,17.1-0.8c3.2-0.5,6.5-0.9,9.2-3c2.1-1.7,2.4-0.4,2.6,1.4C184.9,452.6,184.9,453.3,186,454z"/>
<path class="st2" d="M151.3,129.6c-2.5-1.3-2.8-3-1-4.8c-3.5-2.6-8-0.4-11.3-2.9c8.2-2.6,15.7-7.7,24.7-7.8c2.7,0,5.6,0.1,7.4,2.9
	l0,0c-2,0.8-4.3,0.6-6,2.1c-1.9,0.7-3.8,1.5-5.6,2.4c-0.9,0.5-0.1,1.3,0.6,1.8c-0.2,2.1-1.6,1.9-3.1,1.8c-0.2-3.9-2.2-2-3.2-0.7
	C152.6,125.8,152.1,127.8,151.3,129.6z"/>
<path class="st3" d="M94.8,225c4.5,0.2,1.6-4.9,4.2-6l-0.1,0.1c2.4,0.7,2.1,2.5,2.1,4.4c0,9.2,0.3,18.4,2.2,27.5
	c-0.3,2.6,2.4,5,0.5,7.9c-0.5,0.8,0.5,2.5,2.3,2.3c-1.6,3.2-3.3,1.9-5,0.1c1.3-6.3-2.4-12.3-1.1-18.7c0.4-2-1.4-1.7-2.7-1.3
	c-0.1-2.3-1.7-4.4-1.2-6.9c-0.2-1.1-1.2-1.2-2-1.4C93.3,230.2,91.5,227.3,94.8,225z M97.4,225.3l-0.2,0.3h0.3L97.4,225.3z"/>
<path class="st3" d="M110.9,214c1.9,6,0.3,12.4,2,18.4c2.7,9.7,2.3,19.9,5,29.6c0.5,1.9-0.5,3.7-3.1,1.9c-0.5-5.6-1.1-11.3-1.7-16.9
	c-0.1-1.3,0.4-3.2-2-3.1c-0.7-9.2-1.3-18.4-1.9-27.6C109,215,109.4,214.2,110.9,214z"/>
<path class="st3" d="M173.4,425.3c-1.6-0.4-2.8-1.8-3-3.5c-0.4-3.8-2.4-7.1-3.6-10.5c-2.2-6-4.9-12.4-4.1-19.3
	c1.5-1.5,2.8-1.8,3.3,0.8c0.4,1.9,0.1,3.9,2,5.2c2.3,8,1.7,16.7,5.4,24.5C173.8,423.2,173.4,424.4,173.4,425.3z"/>
<path class="st2" d="M94,232.9c0.9,0.1,1.8,0.2,2,1.4c-1.8,3.1-0.4,6.2-0.1,9.4c-2.2,4.6-0.3,10-2.9,14.4c-0.6-0.5-1.2-1.3-1.9-1.5
	c-6.4-1.4-3.9-5.2-2-8.4C91.9,243.4,92.4,238,94,232.9z"/>
<path class="st2" d="M103.6,267.6c-0.1,3.7-2.1,5-5.5,3.4c-4.3-2.1-7.5-6-12.4-7c-1.3-0.3-1.1-1.7-0.6-2.5c1.2-1.8,4.1-3.5,4.9-2.2
	c2.8,4.9,8.4,3.6,11.9,6.5C102.6,266.2,104.2,266,103.6,267.6z"/>
<path class="st2" d="M173.6,322c-1.2-0.2-1.9-1-1.6-2.1c2.7-9.8,2.4-19.9,4-29.8c1.3,0.6,4-1.2,3.3,2.5c-1.7,8.9-3.1,17.8-4.7,26.7
	C174.3,320.2,174,321.1,173.6,322z"/>
<path class="st1" d="M141,432.2c-3.6,2.8-10.1,2.5-13.5-0.3c-1-0.8-1.5-2.2-1.3-3.5c0.2-2,1.5-1,2.5-1c3.1,0,5.4-2.2,8.3-2.7
	C138.1,427.3,137.8,430.7,141,432.2z"/>
<path class="st3" d="M127.5,174.8l1.4,29.3c-5.5-7.2-4.2-15.4-3.1-23.4C126,178.9,124.5,176,127.5,174.8z"/>
<path class="st1" d="M111,244c2.5-0.2,1.9,1.8,2,3.1c0.6,5.6,1.1,11.3,1.7,16.9c-1.7,1.1-3.7,1.5-5.7,1C109.7,258,110.3,251,111,244
	z"/>
<path class="st3" d="M110.1,160c4.3,1.1,2.8-2.5,2.7-3.9c-0.4-4.5,0.6-8.7,1.7-13c0.4,9,0.7,18.1-1.8,27
	C110.5,167,111.9,163.1,110.1,160z"/>
<path class="st3" d="M130,117.1c-1.5,2.8-4.3,5.4-2,9c1.3,3.8-0.1,6.4-3.6,8c-2.8-1.1-2.3-2.9-1.4-5.2c1.1-2.9,3.7-5.6,1.8-9.2
	l0.1,0.2c1.2,0.7,0.9-0.4,1.1-0.9C126.3,116.2,128.3,117,130,117.1z"/>
<path class="st3" d="M109.7,98.3c-1.3-0.3-2.3-1.3-2.5-2.7c-1.2-5.2-4.1-9.8-6.1-14.6c2.4-2,4.2-3.1,4.2,1.6c0,2.9,2.7,4.8,3.4,7.5
	S110.3,95.5,109.7,98.3z"/>
<path class="st3" d="M129.2,255.1c-0.6-5.1-1.8-10.2-1.3-15.5c0.1-1.7,0.1-3.3,2.1-3.9C131.6,242.3,132,248.8,129.2,255.1z"/>
<path class="st3" d="M93,258.1c2.7-4.5,0.7-9.9,2.9-14.4c0.3-0.1,0.7,0.1,0.8,0.4c2,5.6,1.1,11.3,0.3,17
	C95.3,260.7,93.8,259.7,93,258.1z"/>
<path class="st2" d="M97.1,260.9c0.7-5.7,1.6-11.3-0.3-17c0.2-0.9,0.3-1.9,0.5-2.8c1.3-0.4,3.2-0.7,2.7,1.3
	c-1.3,6.4,2.4,12.4,1.1,18.7L97.1,260.9z"/>
<path class="st3" d="M160.2,388.6c3-4,1.8-8.8,2.5-13.2c4.1-2.4,2.9,1,3.1,2.8c-1.2,1.8-1.4,4.1-0.7,6.2
	C167.2,390.5,163.5,389.2,160.2,388.6z"/>
<path class="st3" d="M119.1,70.1c-1.8-2.2-3.9-4-5.4-6.6c-2.6-4.7-2.6-4.9,3-5.7c-0.1,0.7,0.1,1.7-0.3,2.2c-2.6,3.1,0.5,1.7,1.5,2
	c0.3,2.7,2.2,4.8,3.2,7.2C120.6,69.9,119.9,70.2,119.1,70.1z"/>
<path class="st2" d="M160.2,388.6c3.4,0.6,7.1,1.9,4.9-4.3c-0.8-2-0.5-4.3,0.7-6.2c2.2,6.5,1.5,13.2,2.2,19.9
	c-1.9-1.2-1.7-3.3-2-5.2c-0.5-2.6-1.7-2.3-3.3-0.8C160.2,392.1,159.7,390.7,160.2,388.6z"/>
<path class="st2" d="M143.3,48.7c1.4,1,2.2,2.5,2.4,4.1c0.5,2.6,0,5.4-2.9,5.9c-3.2,0.6-2.6-2.6-3.1-4.5c0.7-1,0.7-2.4,0.1-3.4
	c1.1-0.2,3.1,1.2,3-1.5L143.3,48.7z"/>
<path class="st2" d="M100,276c-0.1,1.4,0.5,2.9-0.5,4.2c-1.1-0.1-1.2-1.1-1.8-1.6c-1.2-1-2.9-3.7-2.9,0.8c0,2.1-1.7,1.6-3,1.6
	c0-1.5,0.3-2.9,0.6-4.3c0.7-1.6,2.1-4.3,2.7-4.2C97.1,272.9,99.5,273.5,100,276z"/>
<path class="st3" d="M193.4,177.1c-2.4-6.5-2.6-13.4-3.2-20.2h1.6c1.2,4.6,0.1,9.8,3,14C194.3,173,196.1,175.6,193.4,177.1z"/>
<path class="st2" d="M137.3,279.6c0.2,1.1,0.5,2.1,0.7,3.2c-7,1-9.2-0.5-9-6.2c0.1-2.5,1.1-2.7,3-1.6l0,0c0.3,2.2,1.2,3.8,3.8,3.8
	l1.3,1.2C137,279.8,137.1,279.6,137.3,279.6z"/>
<path class="st2" d="M106.1,261.1c-1.8,0.2-2.8-1.5-2.3-2.3c1.9-2.9-0.8-5.2-0.5-7.9c0.3-0.4,0.5-0.8,0.7-1.3
	c0.4-1.2-0.6-3.6,1.6-3.3s0.9,2.2,0.7,3.5s-0.4,2.3,0.6,3.2C106.6,255.7,106.3,258.4,106.1,261.1z"/>
<path class="st3" d="M74.1,62.2c-0.5,0.9,0,2.2-1.1,2.9c-3.1-1.1-4.8,2.9-7.9,2.2c-0.5-0.1-1.2,0.9-1.6-0.1
	c-0.3-0.6-0.1-1.3,0.3-1.8C66.6,62.2,70.3,61.9,74.1,62.2z"/>
<path class="st3" d="M92.2,70.9c-1.8,3.6-2,7.9-4.3,11.3l-1-0.3l-0.7-1.1c0-0.3,0-0.5,0-0.8c3-2.4,1.5-5.7,1.8-8.6
	c0.2-1.3-0.2-2.9,1.5-3.2C91.4,67.8,91.8,69.4,92.2,70.9z"/>
<path class="st3" d="M126.8,219.2c-4.4-3.3-5.9-7.9-5.7-13.2C124.4,209.6,126.4,214.3,126.8,219.2z"/>
<path class="st2" d="M194.8,170.9c-3-4.2-1.9-9.4-3-14c-0.4-0.8-1.5-1.8-0.4-2.5c1.4-0.9,1.5,0.6,1.7,1.5
	C194.5,160.7,195,165.8,194.8,170.9z"/>
<path class="st3" d="M125.7,275.2h-1.5l-1.1-0.7c1.6-2.8-0.2-8.1,5.8-7.6c1.8,1.2,0,3.4,2.1,4.8C128.2,272.3,124.8,271,125.7,275.2z
	"/>
<path class="st2" d="M186,454c-1.1-0.7-1.1-1.3,0-2c0.7-0.2,2.1-0.4,2.1-0.8c0.3-1.8,1.3-2.9,2.8-1.8s1.5,3.5,0.7,4.9
	s-2.6,1.5-3.6-0.6C187.3,451.9,186.8,454.2,186,454z"/>
<path class="st3" d="M105,161.9c0.7,5.2-4.5,8.8-3.7,14.1c-0.7-5.7,0.6-10.9,2.9-15.9c0.7,0.2,1.1,0.8,0.9,1.5
	C105.1,161.6,105.1,161.7,105,161.9z"/>
<path class="st3" d="M141,432.2c-3.2-1.5-2.8-4.9-3.9-7.5c2.8,0.4,6.6,5.1,5.9,7.4C142.6,433.1,141.6,432.8,141,432.2z"/>
<path class="st2" d="M130.2,62.1c-2.3-0.5-4.9-0.8-5.2-4c1.4-0.1,3.5,2.2,4-1.1c1.8-0.5,3.2,1.1,4.8,1.2
	C133.7,60.5,131.5,60.9,130.2,62.1z"/>
<path class="st2" d="M113,75.1c-2.9,0.3-4.8-1.6-6.9-3c0.6-1.7-0.1-3.1-0.9-4.5l1-0.8C109.2,68.9,111.5,71.8,113,75.1z"/>
<path class="st3" d="M133.8,58.2c-1.7-0.1-3-1.7-4.8-1.2v0c-1.4-1.7-2.7-1.4-4.1,0l0,0l-1-0.1c0-2.2,2.5-4.5,3.1-4
	C129.2,55,133.7,53.9,133.8,58.2z"/>
<path class="st2" d="M189.7,272.1c2.6,1.2,0.3,2.8,0.4,4.2c-2.3,1.3-5.1,1.1-7.3-0.3C185.3,275.1,187.6,273.8,189.7,272.1z"/>
<path class="st1" d="M171,117c3,1,5.4,3.2,6.9,6c-3.9,0.4-6.4-3-9.9-2.9c0.3-1.7,3.4-0.6,3.1-3L171,117z"/>
<path class="st3" d="M87.9,200.2c-2.6,1.3,0.4,5-2.6,6.1c-1.3-4.6,1.3-8.5,2.1-13C90.6,195.7,88.2,198,87.9,200.2z"/>
<path class="st3" d="M193.9,203c-3-2.4-2.4-5.2-0.8-8C196.1,197.4,195.8,200.1,193.9,203z"/>
<path class="st2" d="M121,69.2c-0.9-2.5-2.8-4.5-3.2-7.2c0.8-0.4,1.8-2.1,2-1.2C120.6,63.5,124.1,66,121,69.2z"/>
<path class="st2" d="M84,308c2.5,2.5,1.2,5.8-2.8,7L84,308z"/>
<path class="st2" d="M75.1,223.2c-0.3,3.7,1.1,8-5.8,6.2C72.5,228.1,72.5,225.2,75.1,223.2z"/>
<path class="st3" d="M150.1,151.7c1.4,2.7,0.6,5.6,0.7,8.5l-4-0.4C149.8,157.5,148.1,154,150.1,151.7z"/>
<path class="st2" d="M128,285l-3-0.5l0.4-6.5h-0.2C128.7,279.4,127.8,282.4,128,285z"/>
<path class="st2" d="M78.1,324c4.7,3.3-1,5-0.5,8.2c-1.9-1.9-0.3-3-0.5-4.2C77.1,326.6,77.1,325.2,78.1,324z"/>
<path class="st2" d="M92.1,289c-0.3,2.8-0.2,5.8-3,7.8c0,0-0.1-0.1-0.1-0.1c0-1.1-0.1-2.2-0.1-3.3c-1.7-1.2-0.8-2.3,0.2-3.4
	L92.1,289L92.1,289z"/>
<path class="st3" d="M106.6,45.1l5.1-0.4c0.2,0.3,0.5,0.6,0.8,0.9c-2.5,1.9-5.6,1.3-8.4,2.4c-0.9,0.4-1.3-0.7-1.3-1.6L106.6,45.1z"
	/>
<path class="st3" d="M139.1,107.2c-1.2,2-3,3.7-5.1,4.9c-0.9-0.2-2.3-0.4-1-1.7C134.7,108.7,136.4,107,139.1,107.2z"/>
<path class="st3" d="M114.6,102.8c0.7,2.4,1.9,4.9,0.1,7.4C112.1,107.8,112.6,105.3,114.6,102.8z"/>
<path class="st2" d="M73.7,334.4c2.8,2.5,2.8,5.1,0.2,7.7C71.7,339.5,73.4,336.9,73.7,334.4z"/>
<path class="st2" d="M76,89.2c0.2-1.8,0.6-3.5,2.6-4.2c0,1.7,2,3.6-0.6,5.1C76.9,90.7,76.2,90.5,76,89.2z"/>
<path class="st2" d="M91.8,281.6c3,2.4,2.1,4.9,0.2,7.4l0,0c0-1.1-0.5-1.9-1.7-2L91.8,281.6z"/>
<path class="st2" d="M193.8,259.7c0.7,2.7-0.5,4.1-3.2,4.4C188.1,260,191.9,260.6,193.8,259.7z"/>
<path class="st2" d="M193.8,238.8c0.8,1.9,0.9,4.1,0.2,6.1C191.5,243.3,191.4,241.5,193.8,238.8z"/>
<path class="st3" d="M111,204c0.6,1.3,0.6,2.9-0.2,4.2c-1.3-0.4-2.9-0.5-2.7-2.6S110.1,204.6,111,204z"/>
<path class="st2" d="M86.2,299c1.2,0.5,2.8-1.1,3.5,0.2c0.4,0.7,0.8,3.5-2.1,2.4c-0.8-0.2-1.5-0.4-2.3-0.5
	C85.6,300.3,85.9,299.7,86.2,299z"/>
<path class="st5" d="M63.1,77c-2,0-2.1-1.4-2-2.9l2.2-1.6l2.7,0.9C65.4,74.9,63.3,75.2,63.1,77z"/>
<path class="st3" d="M171,117c0.4,2.4-2.7,1.3-3.1,3c-1.2,0.2-2.3,0.4-3-1C166.7,117.6,169,117.8,171,117z"/>
<path class="st3" d="M132,49.1c2.5-0.5,3.9,1,5.2,2.7C134.9,52,132.3,52.8,132,49.1z"/>
<path class="st2" d="M129,43.2c0.1,1.4,0.2,2.8,0.2,4.7c-1.5-0.9-2.4-2.6-2.3-4.3L129,43.2z"/>
<path class="st3" d="M194.4,458.1c-1.2,0.6-2.5,1.5-3.3-0.2c-0.1-0.6,0.1-1.2,0.6-1.6C193.3,455.6,193.2,457.9,194.4,458.1z"/>
<path class="st2" d="M196.7,454.3c-0.4,0.8-0.7,1.5-1.7,1.5s-0.9-0.8-0.8-1.3c-0.1-0.7,0.5-1.4,1.2-1.4c0.1,0,0.2,0,0.3,0
	C196.5,453.1,196.7,453.7,196.7,454.3z"/>
<path class="st4" d="M90.3,287c1.2,0.1,1.7,0.8,1.7,2l-3,1C89.5,289,89.9,288,90.3,287z"/>
<path class="st2" d="M80.9,316c0.8,0.1,1.9,0,1.7,1.1s-1.5,0.8-2.4,0.9c-0.4-0.6-0.3-1.4,0.3-1.9C80.6,316.1,80.8,316,80.9,316z"/>
<path class="st3" d="M111.2,197c0.8,0.6,0.9,1.8,0.2,2.6c-0.1,0.2-0.3,0.3-0.5,0.4C109.8,198.9,110.1,198,111.2,197z"/>
<path class="st2" d="M196,207c1.3,1,1.3,2,0,3C194.5,209,194.4,208,196,207z"/>
<path class="st2" d="M66,73.3l-2.7-0.9c1.2-0.4,2.1-2.1,3.4-1.1C67.4,71.9,66.9,72.9,66,73.3z"/>
<path class="st3" d="M139.8,50.8c0.6,1.1,0.6,2.4-0.1,3.4c-0.9-0.4-1.7-0.9-1.8-2.1l1.6-1.4L139.8,50.8z"/>
<path class="st2" d="M195.2,191c1.2,0.3,2.3,0.5,0.9,2C194.7,192.8,195,191.9,195.2,191z"/>
<path class="st2" d="M81.8,79.1c-0.7-0.1-1.6-0.2-1.5-0.9c0.2-1.2,1-0.2,1.5-0.1V79.1z"/>
<polygon class="st2" points="189.4,446.8 189.5,447.2 189.6,446.9 "/>
<path class="st2" d="M105.2,67.6l-0.8-1.4c0.8-0.4,1.5-0.3,1.8,0.6L105.2,67.6z"/>
<path class="st4" d="M88.8,293.4c0,1.1,0.1,2.2,0.1,3.3C85.7,295.7,87.4,294.5,88.8,293.4z"/>
<path class="st5" d="M89.7,386.1l0.3,0.4c-0.2,0.1-0.4,0.2-0.7,0.3c-0.1,0-0.2-0.2-0.3-0.3L89.7,386.1z"/>
<path class="st2" d="M142.8,49.3c-0.2-0.3-0.7-0.8-0.7-0.9c0.6-0.8,0.9,0,1.2,0.3L142.8,49.3z"/>
<path class="st1" d="M86.1,80.8l0.7,1.1c-0.3,0-0.6,0-0.8,0.2L86.1,80.8z"/>
<path class="st4" d="M126,119c-0.2,0.5,0.1,1.6-1.1,0.9C124.8,119,125.5,119.2,126,119z"/>
<polygon class="st4" points="156.3,252.5 156.7,252.4 156.7,252.7 "/>
<path class="st2" d="M196.3,195l0.7,1C196.4,195.9,195.9,195.8,196.3,195z"/>
<path class="st2" d="M156.9,125v1.1l-0.8-0.3L156.9,125z"/>
<path class="st3" d="M114.8,42.9c1.5-1.3,3-2.1,6.2-0.7l-5.5,1.4C115.3,43.3,115.1,43.1,114.8,42.9z"/>
<path class="st2" d="M78.4,68.6l3.4-2.2C82.1,69.5,80,68.9,78.4,68.6z"/>
<path class="st3" d="M114.2,44.3l-1.8,1.3l-0.8-0.9c0.6-0.4,1.2-0.8,1.9-1.1C113.8,43.8,114,44.1,114.2,44.3z"/>
<path class="st3" d="M115.5,43.6l-1.3,0.7c-0.2-0.2-0.5-0.5-0.7-0.7l1.3-0.7C115.1,43.1,115.3,43.3,115.5,43.6z"/>
<path class="st1" d="M174.8,497.7c3.1-0.2,6.2-0.2,9.2-0.7c1.7-0.2,3.4-1.1,3.8-3.2c4.5,4,7.5,15.4,5.5,20.8
	c-0.3,0.9-1.2,1.6-2.2,1.6c-5.7,1.2-11.5,2-17.3,1.5c-4.4-0.3-8.8,0.3-13,1.8c-3.1-2.7-5.8-2.6-8.2,0.9l-8.4,0.5
	c-0.4-2.1,1.2-2.7,2.2-2.8c4.9-0.9,9-3.3,13-6c2.7-1.8,5.8-1.3,8.6-2.2c4-1.4,4.8-3.8,5.3-7.1C173.7,501.1,173.6,499.2,174.8,497.7z
	"/>
<path class="st2" d="M190.8,522.7c-9.3,3.5-19.1,2.3-28.7,3.2c-7.1,0.7-14.4,0.7-21.5,1.1c-1.6,0.1-3.3,0.2-3.3-1.8s1.9-1.5,3.1-1.4
	c12.6,1,24.9-1.8,37.4-2.4c5.3-0.2,10.5-3,16-2.2C194.1,521.5,192.2,521.8,190.8,522.7z"/>
<path class="st3" d="M152.7,520.5c2.4-3.5,5.1-3.6,8.2-0.9C158.4,521.7,155.7,522.5,152.7,520.5z"/>
<path class="st3" d="M190.8,522.7c1.3-0.8,3.3-1.2,3-3.5c1.3-0.1,2.6-2,3.9-0.4c0.5,0.8,0.6,1.8,0.3,2.8c-0.6,1.9-2.3,1.2-3.7,1.2
	L190.8,522.7z"/>
<path class="st2" d="M199.9,261c-1.3-1.3-1.4-3.4-0.1-4.7c0.1-0.1,0.2-0.2,0.3-0.3l1.2,3.9L199.9,261z"/>
<path class="st2" d="M200.2,252.1c-1.9-1.5-1.3-3.2-0.5-5C202,248.5,201.1,250.3,200.2,252.1z"/>
<path class="st2" d="M200,193.1c-0.1-0.2-0.2-0.4-0.2-0.6c0.3-0.1,0.6-0.3,0.9-0.4C201.4,193,200.5,192.9,200,193.1z"/>
<path class="st2" d="M201,270c-1-0.6-1-1.5-0.7-2.5C201.5,268,202.5,268.7,201,270z"/>
<path class="st3" d="M169.4,292.3c-4.7-0.6-9.3-1.4-13.5-3.8C160.6,288.8,165.2,290.1,169.4,292.3z"/>
<path class="st3" d="M123.3,276.3c-1.8,3.1-3.6,6.2-5.5,9.3l-1.2-0.6c0.8-3.9,3.1-7,6-9.9L123.3,276.3z"/>
<path class="st2" d="M113.7,134.8c2.6,1.8,6.1,0.6,9.8,2.6C118.7,138.6,115.8,137.9,113.7,134.8z"/>
<path class="st3" d="M94.5,292.6c1.1-3.1,2.1-6.1,3.2-9.2C98.5,287.1,97.2,290.1,94.5,292.6z"/>
<path class="st3" d="M125.5,278l-0.4,6.5C121.1,282.1,123.8,280.1,125.5,278z"/>
<path class="st3" d="M128.7,228.4v3.2C128.1,230.6,128.1,229.3,128.7,228.4z"/>
<path class="st2" d="M75.6,334.5c-0.1-0.3-0.3-0.6-0.2-0.8s0.5-0.3,0.8-0.4c0.1,0.2,0.3,0.6,0.2,0.7S75.8,334.3,75.6,334.5z"/>
<path class="st3" d="M124.2,275.2l-1,1l-0.7-1.2c0.1-0.2,0.3-0.4,0.5-0.5L124.2,275.2z"/>
<path class="st2" d="M150.1,271.4c-4.2,1.6-8-0.5-13.4-0.5C142.2,268.9,146.1,271.3,150.1,271.4z"/>
<path class="st3" d="M99,219c-3.9-1.2-2.3-5.3-1.5-6.2c2.3-3.1-0.3-4.1-1.5-5.8l-0.1,0.1c2.5-0.2,2.1-1.9,2-3.6
	c-0.7-7.3,1.2-14.6,0.3-21.9c-0.2-1.1,0.4-2.1,1.4-2.5c1.6,3.1,1,6.5,0.8,9.7c-0.5,7.1-1.1,14.2,0.2,21.3c0.7,3.1,0.1,6.4-1.8,9
	L99,219z"/>
<path class="st3" d="M96,207l-0.7-0.6l0.5-0.1C95.9,206.5,95.9,206.8,96,207L96,207z"/>
<path class="st3" d="M129,57c-0.5,3.3-2.6,1-4,1.1v-1L129,57L129,57z"/>
<path class="st0" d="M90.4,89.9c0.5-2.4,1.4-5.6,4.2-4.3c2.6,1.3,4.5,4.5,1.8,7.9C93.4,93.9,93.1,89.9,90.4,89.9z"/>
<path class="st3" d="M90.4,89.9c2.7,0,3,4,6,3.6c-0.1,1.5,0.2,3.3-1.5,3.8s-1.8-1.6-2.6-2.5C91.1,93.4,90,91.9,90.4,89.9z"/>
<path class="st3" d="M135.7,278.7c-2.6,0.1-3.5-1.5-3.8-3.8l15.2,5.6c-4,0.9-6.8-1.2-9.9-1c-0.2,0-0.3,0.2-0.2,0.4
	C137.2,278.9,136.5,278.7,135.7,278.7z"/>
<path class="st0" d="M97.2,241.1c-0.2,1-0.3,1.9-0.5,2.8c-0.2-0.3-0.5-0.4-0.8-0.4c-0.3-3.1-1.7-6.2,0.1-9.4
	C95.5,236.7,97.1,238.8,97.2,241.1z"/>
<polygon class="st1" points="97.4,225.3 97.5,225.6 97.2,225.6 "/>
<path class="st1" d="M135.7,278.7c0.8,0,1.5,0.2,1.3,1.2L135.7,278.7z"/>
<path class="st2" d="M129,57.1h-4C126.3,55.7,127.7,55.4,129,57.1z"/>
</svg>
