<?xml version="1.0" encoding="utf-8"?>
<!-- Generator: Adobe Illustrator 24.0.1, SVG Export Plug-In . SVG Version: 6.00 Build 0)  -->
<svg version="1.1" id="Layer_1" xmlns="http://www.w3.org/2000/svg" xmlns:xlink="http://www.w3.org/1999/xlink" x="0px" y="0px"
	 viewBox="0 0 281 575" style="enable-background:new 0 0 281 575;" xml:space="preserve">
<style type="text/css">
	.st0{fill:#FFEBF4;}
	.st1{fill:#161616;}
	.st2{fill:#121111;}
	.st3{fill:#131313;}
	.st4{fill:#3A3A3A;}
	.st5{fill:#F2BBBB;}
	.st6{fill:#E591AB;}
	.st7{fill:#FFDCDC;}
	.st8{fill:#FEFEFE;}
</style>
<title>frame2</title>
<path class="st0" d="M180,93.5c1.6,0.4,2.2,1.8,3,3c-2,0.9-0.8,1.8,0,2.6c0.9,2,2.3,3.8,2.6,5.9s1.6,5.2-0.7,6.4s-4.2-1.3-5.8-2.9
	c-2.1-2.2-4-4.9-7.3-4.8c-6.5,0.2-13.1-1-19.5,1.9c-9.7,4.4-18.3,9.9-24.1,19.1c-1.8,2.8-4.7,4.8-5.4,8.2
	c-1.1,5.4-1.6,10.8-2.3,16.2c-1.2,9.4,0,19-1.7,28.3c-2.2,12.4-1.4,24.7,0.5,37.1c1.2,7.9,3.8,15.5,3.4,23.5
	c-0.4,6.5-1.6,13-0.9,19.4s-4.7,12.1-1.1,18.5c0.1,0.2-0.3,1-0.6,1.2c-1,0.9-2.3,1.8-0.8,3.2c1.3,1.2,2.5-0.1,3.6-0.6
	c8.2-4.2,17.7-5,26.5-2.2c3.1,1,6.4,1.3,9.7,0.9c6.3-0.8,12.5-1,18.6-3.1c1.4-0.5,4.7-0.8,3.7,2c-2.7,7.4-0.4,14.9-1.7,22.2
	c-2.7,14.3-5.4,28.6-7.2,43c-1.4,10.6-3.6,21.3-2.1,32.1c1.6,11.5,6.3,21.9,11.7,32c5.6,10.5,7.6,22.1,11.5,33.1
	c0.8,2.3-0.6,3-2.2,3.7c-6.7,2.8-13.5,5.4-20,8.5c-3.9,1.9-4.1-0.8-4.8-3c-0.6-1.8,1.7-3.3,0.4-5.2c-6.8-10.1-10.7-21.6-16-32.5
	c-1-2.1-2.5-3-4.8-2.5c0-0.2,0-0.4,0-0.6c2.4-4.1-1.3-7-2.2-10.4c-2-4.4-5.1-8.6-5.8-13.1c-1.6-10.2-3.7-20.4-5.5-30.6
	c-1.8-10.8-6-21-7-32c-0.5-6-2.7-11.4-4.5-17c-0.5-1.7-1.6-4.1-3.7-3s0.3,2.8,0.8,4.2c1.5,4.3,4.8,9.7,2.6,13.1
	c-4.3,6.7-5.6,14-7.9,21.2c-2.2,6.7-0.9,12.8,2.9,18.4c6.1,8.9,8.9,19.7,15.6,28.2c0.3,0.6,0.5,1.2,0.5,1.9c1.3,9.1,3,18.2,5.3,27.2
	c0.5,1.8,0,2.3-1.3,3c-4.9,2.5-9.6,5.1-15.1,6.2c-4.8,1-11.7-1.7-14.4-5.8c-3.7-5.7-5.6-12.4-10.1-17.6c-7.7-12.5-15.3-25-23.1-37.4
	c-3.9-6.1-5.2-12.4-4.5-19.7c0.4-4.4,5.3-7.6,2.8-12.5c4.8-11.2,8-23,14.5-33.5c4.8-7.6,7.8-16.2,9.9-25c3.4-1,0.7-4.2,2.1-6
	c2.4,0,5.5,0.6,4.6-3.5c-1.8-8.7-3.4-17.5-3.2-26.3c0.1-6.6,0.8-13.2,0.7-19.9c-0.2-17.4,1.1-34.8,4-51.9c1.8-11.5,3.8-23,5.7-34.6
	c0.6-3.5-0.4-6.6-3.5-8.7c-1.4-1-4.6-0.8-3.3-3.7c1-2.4,0.9-6.2,5.8-5.5c1.5,0.2,10,1.4,4.5-5.9c-0.4-0.5,0-1.6,0-2.5
	c0-2.5,0.3-5,0.1-7.4c-0.8-13-4.5-25.7-10.6-37.2c-0.7-1.3-2.3-2.9-1-4.4s3.1-1.3,5.1-0.7c3.2,1,6,2.8,8.4,5.2
	c1.6,1.5,3.5,3.2,5.7,1.9s3.1-3.9,3-6.5c-0.1-1.1-0.4-2.2-0.8-3.3l1.1-3.3l4.9,0.7c-0.3,1.4-0.9,2.8-0.8,4.2c0.2,1.6,1,3.4,2.8,0.9
	c2.3,0.8,1.7,4.1,4,5l0,0c-0.8,0.9-0.4,2,0,2.8c3.9,7.5,1.8,15.3,0.6,22.9c-0.4,2.5-1.3,3.8,2.1,4.4c1.8,0.3,2.4,2.5,1.9,4.6
	c-0.9,3.8-3,7-6.4,8.4c-7.8,3.2-7.6,10.6-9.3,17c-0.2,0.9,0,2.1,1.4,2.1c0.9,0,1.6-0.6,1.7-1.5c0.2-1.1,0.5-2.3,0.6-3.4
	c0.8-5.2,2.5-9.6,7.9-12.2c6-2.9,6.8-9.4,8.5-15c0.4-1-0.2-2.2-1.2-2.6c-0.1,0-0.3-0.1-0.4-0.1l-2.2-2.6c1.5-2.6-0.6-5.6,1-8.1v0.1
	H141c3.3-5,8.8-3.6,13.5-4.3c4.9-1,9.8,1.6,11.8,6.2c2.1,4.4,5.6,7.6,8.6,11.2C176.5,91.5,176.8,95,180,93.5z"/>
<path class="st1" d="M146,408.9c2.3-0.5,3.8,0.3,4.8,2.5c5.2,10.9,9.2,22.4,16,32.5c1.3,1.9-1,3.5-0.4,5.2c0.8,2.3,1,4.9,4.8,3
	c6.5-3.1,13.4-5.7,20-8.5c1.6-0.7,3-1.4,2.2-3.7c-3.9-11-6-22.6-11.5-33.1c-5.4-10.1-10-20.5-11.7-32c-1.5-10.8,0.7-21.5,2.1-32.1
	c1.9-14.4,4.6-28.7,7.2-43c1.3-7.2-0.9-14.8,1.7-22.2c1-2.9-2.3-2.5-3.7-2c-6.1,2.1-12.3,2.3-18.6,3.1c-3.2,0.4-6.5,0.1-9.7-0.9
	c-8.8-2.8-18.3-2.1-26.5,2.2c-1.1,0.5-2.2,1.9-3.6,0.6c-1.5-1.4-0.2-2.3,0.8-3.2c0.3-0.3,0.7-1,0.6-1.2c-3.5-6.4,1.9-12.2,1.1-18.5
	s0.5-12.9,0.9-19.4c0.5-8-2.2-15.7-3.4-23.5c-1.8-12.4-2.7-24.7-0.5-37.1c1.7-9.4,0.5-18.9,1.7-28.3c0.7-5.4,1.2-10.9,2.3-16.2
	c0.7-3.4,3.7-5.4,5.4-8.2c5.9-9.2,14.4-14.7,24.1-19.1c6.4-2.9,13-1.6,19.5-1.9c3.2-0.1,5.2,2.6,7.3,4.8c1.6,1.6,3.6,4.1,5.8,2.9
	s1-4.3,0.7-6.4s-1.7-3.9-2.6-5.9h2.7c3.2,4.9,4,9.4,1.2,15.2c-1.9,3.9,1.5,8.7,3.2,12.6c5,11.1,6.7,22.7,8.3,34.6
	c1.5,11,1.9,22.1,1.3,33.1c-0.5,9.7-3,19.3-3,29.1c0,10,2.5,19.6,4.2,29.4c1.2,6.8-0.4,13-3.4,18.9c-1.4,2.7-5.1,3.1-7.4,2.9
	c-6.3-0.7-6.4,4-7.2,7.6c-0.9,3.4-1,6.9-0.5,10.4c0.5,3.1,0.3,6.3-0.5,9.4c-3.2,13.2-5,26.7-7,40.1c-1.6,10.2-2.8,20.5-2.1,30.8
	c0.7,10,4.7,19,9,27.8c5.7,11.4,10,23.5,13,35.9c0.8,3.1,1.7,6.1,4.4,8.1c1.3,1,2.2,2.6,2.3,4.3c0.1,1.6,2.1,3,0.6,4.6
	c-1.7,1.7-2.6-1.8-4.3-0.8c0-2.2,1.8-4.5-1-6.5s-4.9-0.6-7.2,0.7c-7.6,3.9-15.5,7.2-23.6,9.9c-1.1-1-0.4-3-2.1-3.6
	c-0.3-0.1-1.2,0.6-1.4,1.1c-0.6,1.7,0.7,2.8,1.7,3.8c0.6,0.6,1.2,1.1,1.9,1.6c1.5,2.1,3.5,1.8,5.7,1.3c7-1.8,13.7-5.1,21.2-5.2
	c-0.5,1.4-1.3,2.9-3,2.9c-7.3,0-13.4,4.5-20.5,5.3c-0.1,2.2,1.6,3.4,2.7,4.7c4,5,3.8,7.8-1,12.4l-3.6,3.5l-1.4-1.6l0.6-1.2
	c2.4-1.4,4.2-3.7,5-6.4c-2.7,1.2-5.1,3-6.9,5.3c-13.1,8.3-24.8,18.4-36,29.1c-0.6,0.5-1.8,1.1-1.7,1.3c0.5,1.5,2.4,0.7,3.3,1.8
	c-6.2,2.8-6.8,2.5-7.7-4.5c-0.2-1.9-1.8-3.6-1-5.7l3.3,0.2c-1.4,1.3-1.4,3.5-0.1,4.8c0.2,0.2,0.3,0.3,0.5,0.4c1.7,1.3,2.3-1.1,3.4-2
	c1.4-1.2,3.3-1.6,4.2-3.4c4.4-3.5,7.5-8.3,12.2-11.5c7.5-5.1,14.5-10.9,21.8-16.4c1.7-0.6,4.1-1.5,3.5-3.4c-1-2.8-2.2-6.1-6.3-6.8
	c-0.3,2.4,1.9,3.6,2,5.5c-0.4,0.5-0.9,1-1.3,1.6c-3.1-1.2-2.7-4.5-4-6.8c0-0.9,0-1.8,0-2.6c-0.8-4-2.5-5.8-6.3-2.6
	c-3,2.5-6.2,4.9-9.3,7.4c-0.8,0.6-2,1.2-1.6,2.3c2.2,7.5-2.7,12.5-6.2,18l-0.6-2.3c0.8-6.7,4.1-13,2.2-21c3.3,2.6,5,1.1,7-0.5
	c3.9-3.2,7.3-7,12.8-8.1c2.6-0.5,4.9-7.1,4.1-9.7c-3.1-9.9-8-19.1-12-28.6C149.6,414.3,148,411.5,146,408.9z M136.6,266
	c-4.7-0.5-8.2,2.6-12.4,3.8c-1.8,0.5-1.7,2.6-1,4.3c0.9,2.5,2.5,1.3,4,0.8c5.6-2.1,11.6-2.5,17.4-1.3c3.5,0.7,6.8,2.4,10.5,1.9
	c0.8,0.2,1.6,0.3,2.5,0.3c11.2-0.7,22-5.4,33.6-3.8c1.4,0.2,3.9-0.3,3.2-2.6c-0.4-1.4,0.6-4.1-2.4-4.2c-3.8,0-7.7-1.2-11.1,1.4
	c-2,1.5-4.3,1.5-6.5,2.2c-1.1,0.3-2.5,0.9-3-0.6c-0.6-1.7,1-2.1,2.3-2.5c2.1-0.5,4.1-1.2,6.1-2c5.9-3,11.8-2.2,17.7,0
	c3.9-8.2,0.3-16.6-1.4-24.1c-2.8-12.5-1.4-24.4,0.2-36.5c1.3-10,1.6-20.1,1-30.2c-0.7-11.4-1.7-23.2-5.6-34.2
	c-3.8-10.5-5.3-22.3-15.7-29.4c-3.2-2.1-6.2-4.8-10-1.2l-1,0.5c-5.5-2-10.6-0.8-15.6,2c-14.8,8.3-25,19.1-25.5,37.7
	c-0.2,10.2,0,20.6-1.8,30.8c-2.2,12.2-1.4,24.4,0.9,36.5c0.2,1.1-0.2,2.9,1.1,3c4.1,0.2,2.8,3.2,2.7,5.1
	c-0.7,13.1-1.5,26.2-2.3,39.2c-0.2,2.8,0.4,4,3.2,2.4c2.9-1.6,6.1-2.5,9.3-2.6L136.6,266z"/>
<path class="st2" d="M123,53c0.4,1.1,0.7,2.2,0.9,3.4c0.1,2.6-0.8,5.1-3,6.5s-4.1-0.4-5.7-1.9c-2.3-2.4-5.2-4.1-8.4-5.2
	c-2-0.6-3.8-0.8-5.1,0.7s0.3,3.1,1,4.4c6.2,11.5,9.8,24.2,10.6,37.2c0.1,2.5-0.1,5-0.1,7.4c0,0.8-0.4,1.9,0,2.5
	c5.6,7.3-3,6.1-4.5,5.9c-4.9-0.6-4.7,3.1-5.8,5.5c-1.3,2.9,1.9,2.7,3.3,3.7c3.1,2.1,4,5.2,3.5,8.7c-1.9,11.5-3.9,23-5.7,34.6
	c-2.9,17.2-4.2,34.5-4,51.9c0.1,6.6-0.6,13.3-0.7,19.9c-0.2,8.9,1.5,17.6,3.2,26.3c0.9,4.2-2.2,3.5-4.6,3.5c0-2.4-0.1-4.7-0.2-7.1
	c-1-10.4-1.8-20.8-1.2-31.4c0.9-15.2,0.3-30.5,1.9-45.7c1.5-14,5.4-27.6,5.3-41.8c1-1.2,2.3-2.2,1.4-4.2c-1.7-3.7-1.5-3.6,1.4-6.1
	c0.5-0.4,0.4-1.6,0.4-2.4c0-1-0.8-1.3-1.7-1.3c-1.6,0-2.7,0.4-3.4,2.2c-1.4,3.9-0.9,7.8-1,11.8c-1.4,7.8-2.2,15.7-4.3,23.3
	C92,183,87.7,200.8,81.1,218c-3,7.7-5.4,15.6-7.2,23.7c-0.5,2.2-0.5,3.8,2,4c5.4,0.6,8.8,4.1,12.4,7.7c2.7,2.7,5.7,5.1,8.5,7.6
	c-1.8,2.8-0.2,6.2-1.8,9c-1.9-1-4.4-0.7-6-2.8c-1.2-1.5-2.6,0.2-3.9,0.7l-2.6-0.2c0.6-1,2.2-2.1,0.1-3c-3.2-1.4-6.3-3.2-9.6-3.9
	c-2.6-0.6-3.4,2.8-5.3,4c-0.8,0.3-1.6,0.4-2.4,0.4l-1.4-1.3c2.2-4.8,5.2-9.3,3.1-15c-0.7-2,1.9-2.5,2.3-4.1c0.6-2.4,1.7-4.6,1.6-7.2
	c-0.1-3.1-0.5-6.5,3.5-7.9c0.6-0.4,1-1,1.1-1.6c3-12.2,8.7-23.6,11.2-35.9c1-3,3.7-5.8,1.1-9.3c3.2-5.8,4.4-12.3,6-18.6
	c3.2-12.4,3-25.4,7.3-37.6c0.2-0.5,0.3-1.5,0-1.8c-2.2-2.2-1.1-4.6-0.7-7l0.7-1.7c0.7-1.1,2.8-2.7-0.3-2.9c-3.9-0.2-7.2-0.9-8.9-4.9
	c-0.7-1.3-1.7-2.4-2.9-3.3c-6.7-5.5-8.8-12.1-4.7-20.1c1.2-2.3,1.9-4.2-1.1-5.9c-1.7-1,0-4.5-3.1-5v-9c-4.3,3.8-4.4,8.8-0.3,10.2
	c0.3,1.8-1,2.6-2.1,3.7c-0.8,0.8-1.9,1.5-3.1,0.9s-1-1.9-0.8-3.1c0.1-1,0.3-2,0.6-2.9c0.6-2.2,1.6-4.1-2.5-3.6
	c-3.9,0.5-5.6-2.6-3.9-6.1c0.9-1.8,1.4-2.6-1.2-3.4c-3.7-1.1-3.3-3.5-1.3-6.1l1.9,0.4c-0.2,1.3-0.9,2.7,0.4,3.6s3,0.2,4.1-0.6
	c2.2-1.7,4.2-3.6,6.3-5.5c1.2,0.1,2.5-0.2,3,1.4c-1.3,0.9-1.2,1.6,0.4,2l0.3,1.2c-4,1.1-8.2,2-10.7,6c-0.8,1.4-2.6,2.7-0.8,4.2
	s3.1,0,4.5-1.4c2.2-2.2,3.3-5.9,7.2-6c1.4,1.5,1,3.3,1,5s0,3.3,0,5c-0.4,2.2,1.2,3.9,1.5,5.9c1.3,2.6,1.4,2.6,3.5,0.1
	c2.9-2.8-0.5-5.2-0.4-7.9c0.3-1.1,0.2-2.3-0.4-3.2c0.6-4,2.3-4,4.7-1.2c1.8,2.1,3.3,4.5,5.1,6.6c1.1,1.3,2.4,2.5,4.1,0.8
	c1.3-1.3,2.9-2.6,1.8-4.6c-1.1-1.6-2.3-3.2-3.6-4.6l-0.6-1.9c0.3-7,3.1-9,9.3-7.1c3.3,1.1,6.3,2.9,8.9,5.2c0.8,0.7,1.6,2.6,3.2,1.1
	c1.2-1.2,1-2.7,0.1-4.1c-1.9-2.9-4.7-4-8-4c-1.3,0-2.5-0.4-2.3-1.9s1.5-1.4,2.7-1.1C116.4,48.9,120,50.5,123,53z M96,74
	c-1.1-2.8-3.1-5.2-5.6-6.9c0.6,3.7,2.8,7.1,0.5,10.8c-0.9,1.2-3,1.4-2.9,3.6c0.1,3.6-0.9,7.2-2.9,10.3c-0.9,1.4-1,2.7,0.3,4
	c4.8,4.7,10.7,8,15.1,13.3c1.8,2.2,5.4,1.8,8,1s1.4-3.8,1.6-5.7c0.6-8.3-0.5-16.5-3.1-24.4c-1.3-3.9-1.5-8.7-7.7-5.2
	c-0.3,0.2-1-0.1-1.4-0.2L96,74z M92.7,266.1c1-1.7,0.8-3.9-0.1-4.5c-5.5-3.7-8.6-10-15.2-12.6c-4.3-1.7-4.9,0.4-5,3.5
	c-0.2,2.6,1.3,5,3.7,6.1C81.7,260.8,87.1,263.6,92.7,266.1L92.7,266.1z"/>
<path class="st3" d="M96.3,402.2c4.5,5.2,6.4,11.9,10.1,17.6c2.7,4.1,9.6,6.7,14.4,5.8c5.5-1.1,10.2-3.7,15.1-6.2
	c1.4-0.7,1.8-1.2,1.3-3c-2.3-8.9-4.1-18-5.3-27.2c0-0.7-0.2-1.3-0.5-1.9c-6.7-8.6-9.5-19.3-15.6-28.2c-3.8-5.6-5-11.7-2.9-18.4
	c2.3-7.2,3.6-14.5,7.9-21.2c2.2-3.4-1.1-8.8-2.6-13.1c-0.5-1.4-2.8-3.1-0.8-4.2s3.2,1.3,3.7,3c1.8,5.6,3.9,11,4.5,17
	c0.9,10.9,5.2,21.2,7,32c1.7,10.2,3.8,20.3,5.5,30.6c0.7,4.6,3.8,8.8,5.8,13.1l-2.4,0.3c-1.5-1.8-1.3-5.3-4.8-5.2
	c1.2,9.3,5.5,17.7,4.6,27.1c0,0.4,0.5,0.8,0.8,1.2c0.3,1.3-0.5,2.1-1.6,1.7c-3.3-1.6-5.6,0.5-8.2,1.8c-4.6,2.3-9.6,3.5-14.6,4.5
	c-3.7,0.8-4.6,2.3-2.2,5.3c2.2,2.8,4.8,4.3,8.7,3.1c6.2-2,12.3-3.8,17.6-7.7l0.3,2.2c-5.6,5.5-13.1,6.9-20.3,8.5
	c-3.5,0.8-8-1.9-8.4-4.8c-1-6.8-6.5-10.2-9.3-15.4l-8.5-15.7L96.3,402.2z M133.8,375.9c-0.5-3.4-0.7-6.8-2-10
	c-2.9-11.1-3.8-22.7-8.1-33.5c-1.1,6.4-2.8,12.7-5,18.8c-1,3,0.6,6.2,3.6,7.2c4.2,1.4,5.6,4.6,7.5,7.8c0.3,1.8,1.5,3.4,0.5,5.3
	c-6.7-11.9-4.9-9.1-9.1-9.9c0.3,2,2.3,2.8,3.2,4.3c1,1.5,1.8,3.1,2.5,4.8c0.8,1.8,2,1.4,3.3,0.9c1.1,1.2,0.8,2.9,1.2,4.4
	c-0.4,1.3,0.1,2.7,1.3,2.7C134.4,378.6,133.9,377,133.8,375.9L133.8,375.9z M114.9,350.2c4.9-8.3,5.6-17.7,7.1-26.8
	C117,331.7,116.2,341,114.9,350.2L114.9,350.2z"/>
<path class="st0" d="M99.3,61.9c1.3,1.4,2.6,3,3.6,4.6c1.1,2-0.5,3.3-1.8,4.6c-1.7,1.7-3.1,0.5-4.1-0.8c-1.8-2.1-3.3-4.5-5.1-6.6
	c-2.3-2.7-4.1-2.7-4.7,1.2l-4.2,0.1c0-1.7,0.3-3.6-1-5l-0.2-2.8l-0.3-1.2c1.1,0.1,2.9,0.3,2.8-0.9c-0.1-1.7-2.1-0.8-3.2-1.1
	c-0.5-1.6-1.8-1.2-3-1.4l1.5-2.2c0.9,0.2,1.9,0.4,2.8,0.5c2-0.1,5.3,1.3,5.5-1.1c0.3-3.1-3.2-1.2-5-1.8c-1-0.2-2-0.2-2.9,0
	c1.5-3.6,4.5-2.9,7.2-2.4c3.7,0.6,7.1,1.2,10.4-1.4c8.6-7,19.4-9.7,29.2-14.5c1.9,0.1,3.7,0.6,5.5-0.3l2.2,0.7h0.9
	c2.5,0.6,5.2,0.7,7,3.1l1.1,1.4l-0.1,0.1c0.7,2.9-1.4,2.3-2.9,2.3c-3.6,0.1-7.1,0.8-10.5,2.1c-1,0.4-1.8,1.1-1.5,2.1
	c0.4,1.2,1.5,0.9,2.4,0.7c1.7-0.5,3.5-0.8,5.2-1.3l-0.2,4c-1.2,0.5-1,1.5-1,2.5v1.1c-4.7-0.8-9.4-1.5-14-2.6
	c-1.5-0.3-3.1-1.3-3.6,0.7s1.7,1.9,3,2.4s2.5,0.7,3.7,1.1L123,53c-3-2.5-6.6-4.2-10.5-4.8c-1.2-0.2-2.5-0.5-2.7,1.1s1,1.8,2.3,1.9
	c3.3,0.1,6.1,1.1,8,4c0.9,1.4,1.1,2.9-0.1,4.1c-1.5,1.5-2.3-0.4-3.2-1.1c-2.6-2.3-5.6-4.1-8.9-5.2c-6.1-2-8.9,0.1-9.3,7.1
	c-1.4,0.3-3.7,0.3-3,2.1C96.4,64.1,98.1,62,99.3,61.9z"/>
<path class="st3" d="M204.9,480c1.2,1.8,1.3,4.1,3,5.6c5.3,4.8,6.3,11.6,8.2,17.9c1.3,4.3-3,4.3-5.8,5.2c0.4-1.2,0.6-2.3-1.1-2.4
	c-0.4,0-1.2,0.3-1.2,0.6c-0.4,1.8,2.6,0,2.2,1.9c0.9,1.4-0.4,1.7-1.2,2.2l-3.1,0.1c-1.3-0.2-2.6,0.3-3.5,1.2
	c-2.6,2.4-5.6,4.5-8.5,6.7c-9.3,3.7-19.6,1.6-29,4.9c9.8,1,19.6,0.7,29.3-0.8c0.4,2.7-1.7,3.2-3.5,3.1c-8.3-0.4-16.5,2-24.8,0.3
	c-1.9-0.4-5,0-4.5-2.5c0.7-3-0.2-8,4.3-8.6c15.8-2,15.4-7,17.5-21.1c0.5-3.5-0.1-7.3,3.8-9.5c5.3,0.3,9.3-3,14-4.7L204.9,480z
	 M171.1,518.7c11.7,0.3,22.5-1.6,31.8-9.7c7.8-6.7,9.1-9,4.3-17c-1.8-2.9-1.4-8.3-5.5-8.3c-3.5-0.1-7.1,2.5-10.5,4s-4.9,4-5.3,8.3
	c-1.1,12.8-3,18.6-14.8,21.1c-2,0.3-4.3-0.6-6.1,1.1c-0.2,0.4-0.1,0.8,0.1,1.2C167,520.3,169.3,520,171.1,518.7L171.1,518.7z
	 M210.5,504.5c0.8,0.3,1.4,0.4,1.9,0.6c1.1,0.4,1.5-0.1,1.5-1.1c0-0.8-0.2-1.8-1.3-1.4C211.9,502.8,211.4,503.6,210.5,504.5
	L210.5,504.5z"/>
<path class="st0" d="M100.4,117.9c-0.4,2.4-1.4,4.8,0.7,7c0.3,0.3,0.2,1.2,0,1.8c-4.3,12.2-4.1,25.2-7.3,37.6
	c-1.7,6.3-2.8,12.8-6,18.6l-1.2-0.2c0.2-7,0.2-13.9,0.6-20.8c0.8-12.2-0.2-24.9,7.5-35.8c0.8-1.2,1.9-2.8,1.3-4.6l-0.1,0.1
	c1.4-0.4,1.5-1.4,1-2.6v0.1c1,0.3,1.3-0.1,1.1-1.1H98l1-0.1L100.4,117.9z"/>
<path class="st4" d="M96.3,402.2l-0.9,2.6c-9.6-14.7-19-29.5-27.6-44.7c-1.9-3.4-2.2-7.5-2-11.5c1.2-18.8,10-34.8,18.4-51
	c3.5-6.8,5.5-14.2,8.9-21c0.5-1,0.5-2.3,1.8-2.8c0.3,0.2,0.6,0.3,0.9,0.2c-2.1,8.8-5.1,17.4-9.9,25c-6.6,10.5-9.7,22.3-14.5,33.5
	c2.5,4.8-2.4,8-2.8,12.5c-0.7,7.3,0.6,13.6,4.5,19.7C81.1,377.1,88.7,389.7,96.3,402.2z"/>
<path class="st3" d="M174.9,90.4c-3-3.6-6.5-6.8-8.6-11.2c-1.9-4.6-6.9-7.2-11.8-6.2c-4.7,0.7-10.1-0.7-13.5,4.3l0.1-0.1
	c-1.6,2.6,0.4,5.6-1,8.1c-0.2,1.7,0.4,2.7,2.2,2.6c1.1,0.2,1.9,1.2,1.7,2.3c0,0.1-0.1,0.3-0.1,0.4c-1.7,5.6-2.6,12.1-8.5,15
	c-5.4,2.6-7.1,6.9-7.9,12.2c-0.2,1.1-0.4,2.3-0.6,3.4c-0.1,0.9-0.9,1.5-1.7,1.5c-1.4,0-1.6-1.2-1.4-2.1c1.7-6.4,1.5-13.7,9.3-17
	c3.4-1.4,5.5-4.6,6.4-8.4c0.5-2,0-4.3-1.9-4.6c-3.4-0.6-2.5-1.9-2.1-4.4c1.2-7.6,3.3-15.3-0.6-22.9c-0.4-0.8-0.9-1.9,0-2.8
	c1.4-1.4,2.1-0.4,2.4,0.8c1,4,3.1,7.7,2.5,12c0.3,0.6,1,0.8,1.6,0.5c0.1,0,0.1-0.1,0.2-0.1c5.5-4.2,17.4-4.8,23-1
	c0.8,0.6,1.9,1.2,2.1,2c1.3,5.5,5.6,9.1,8.3,13.7L174.9,90.4z"/>
<path class="st0" d="M141.7,430c-5.3,3.9-11.5,5.7-17.6,7.7c-3.9,1.2-6.5-0.4-8.7-3.1c-2.3-3-1.5-4.5,2.2-5.3c5-1,10-2.2,14.6-4.5
	c2.6-1.3,4.9-3.3,8.2-1.8c1,0.5,1.9-0.3,1.6-1.7c1.8,0.8,3.8,1.5,3,4.2c-3.6-0.8-1.4,2.2-2.2,3.2L141.7,430z"/>
<path class="st0" d="M166,457c8.1-2.7,16-6,23.6-9.8c2.3-1.2,4.4-2.6,7.2-0.7s1,4.3,1,6.5c-1.8,0.8-2.2,3.9-5,3
	c-7.5,0.1-14.1,3.5-21.2,5.2c-2.2,0.6-4.2,0.8-5.7-1.3C166,458.9,166,457.9,166,457z"/>
<path class="st1" d="M96,121.5c0.6,1.8-0.5,3.4-1.3,4.6c-7.6,10.9-6.6,23.5-7.5,35.8c-0.5,6.9-0.4,13.9-0.6,20.8l-0.8,9
	c-1.8-2.6-2.6-5.8-2.1-8.9c1.6-13.7,1-27.4,2-41.1c0.2-2.3,0.9-4.6,2-6.6c2-3.8,3.6-7.8,5.6-11.6C93.8,122.4,93.6,120,96,121.5z"/>
<path class="st4" d="M126.8,29.8c-9.7,4.8-20.5,7.5-29.2,14.5c-3.2,2.6-6.7,2.1-10.4,1.4c-2.7-0.5-5.7-1.3-7.2,2.4
	c-0.7,0.4-1.1,1.2-1,2c-3.4,1.3-7.3,1.2-10.3,3.7l-1.4-1.3c7.4-3.5,12.7-11.8,22.8-9c5.6,1.5,8.8-4.4,13.5-6.2
	c7.8-3,15.4-6.6,23.1-9.9C127.5,28.1,127.5,29.1,126.8,29.8z"/>
<path class="st4" d="M130.5,513c-0.9-1.1-2.8-0.2-3.3-1.8c-0.1-0.2,1.1-0.9,1.7-1.3c1.8,1,3.2-0.5,4.4-1.2c10.3-6.2,20-13.2,29.1-21
	l2.4,0.2c-6.1,7.5-14.6,12.2-22.2,18c-3.3,2.5-7,4.4-10.5,6.5c-0.3-0.5-0.5-1.3-1.3-1S130.2,512.4,130.5,513L130.5,513z"/>
<path class="st4" d="M82.6,267.8l2.6,0.2c-1.9,2.3-3.8,4.5-5.7,6.8c-2.6,3-5.5,4.3-8.7,1.1c-2.5-2.5-6.2-2.7-8.9-4.7s-3.8-4,0.5-5.6
	c0.7-0.3,1.2-1.1,1.8-1.7l1.4,1.3c-0.7,1.3-2.2,2.6-0.5,4.2c6.7,6.1,10.2,5.9,16-0.9C81.3,268.2,82,268.1,82.6,267.8z"/>
<path class="st1" d="M124.1,49.8c-1.2-0.4-2.5-0.7-3.7-1.1s-3.5-0.3-3-2.4s2.1-1,3.6-0.7c4.6,1,9.3,1.8,14,2.6c4.2,2,6,8.2,12,6.9
	h2.9c-2.2,3.8-6,4-10,0.4c-2.1-1.9-3.7-4.3-6.9-4.2c-1.2-0.8-2.5-1.4-4-0.8L124.1,49.8z"/>
<path class="st5" d="M194.1,522.9c-9.7,1.5-19.5,1.8-29.3,0.8c9.4-3.3,19.7-1.2,29-4.9c2.8,0.1,0.9,2,1.2,3.1L194.1,522.9z"/>
<path class="st4" d="M136.7,485.3l0.6,2.3c-2,4.4-5,8.3-6.5,13c-1.1,1.5-2.8,1.5-4.4,1.4l-1.4,1h0l-3.3-0.2c5.3-2.9,7.7-8.2,10-13.3
	C132.9,487.2,134.2,485.8,136.7,485.3z"/>
<path class="st2" d="M149.9,55.1H147c-2-5.6-6.5-7.7-12-8c-0.1-1-0.2-2,1-2.5c1.4,0.5,2.8,0.4,4.2,0.9c7,2.4,11.1-0.1,10.1-5.7
	l0.8-0.9c2.5,1.9,2.4,4.5,2,7.1l-5.9,3l3.8,5L149.9,55.1z"/>
<path class="st2" d="M136.2,40.6c-1.7,0.4-3.5,0.8-5.2,1.3c-1,0.3-2.1,0.6-2.4-0.7c-0.3-1.1,0.4-1.8,1.5-2.1
	c3.4-1.2,6.9-1.9,10.5-2.1c1.5,0,3.6,0.6,2.9-2.3l1.6-0.7c1.1,2.7,3.7,3.7,6,4.9l-0.8,0.9c-1.6-1.1-3.3-0.7-5.1-0.4
	C142.2,40.1,139.3,41.8,136.2,40.6z"/>
<path class="st5" d="M200.9,479.9c-4.6,1.7-8.7,5-14,4.7c1.2-1.8,1.4-4.4,4.3-4.7C194.4,481,197.6,477.1,200.9,479.9z"/>
<path class="st4" d="M200.9,479.9c-3.2-2.8-6.5,1.1-9.7,0c3.1-4,8.3-2.8,12.2-4.8c0.5-0.2,1.1,0,1.3,0.5c0.2,0.4,0,0.9-0.3,1.2
	c-1.8,1.6,0.5,2.1,0.5,3.1L200.9,479.9z"/>
<path class="st6" d="M195,521.9c-0.3-1.1,1.6-2.9-1.2-3.1c2.8-2.2,5.8-4.3,8.5-6.7c0.9-0.9,2.2-1.3,3.5-1.2
	c-0.9,1.6-1.9,3.1-2.8,4.7c-1.3,1.4-2.6,2.9-3.9,4.3c-1.3-0.1-2.5,0.5-3.1,1.7L195,521.9z"/>
<path class="st5" d="M150.9,54l-3.8-5l5.9-3C154.7,48.6,153.8,51.8,150.9,54z"/>
<path class="st6" d="M79.8,75.3c-4.1-1.5-4-6.5,0.3-10.2v9C80,74.5,79.9,74.9,79.8,75.3z"/>
<path class="st4" d="M141.5,398.2l2.4-0.3c0.9,3.5,4.6,6.3,2.2,10.4C143.4,405.4,143.2,401.4,141.5,398.2z"/>
<path class="st5" d="M95.9,274c-0.3,0.1-0.7,0-0.9-0.2v-3.7c1.7-2.8,0-6.2,1.8-9l1-0.2c0,2.4,0.1,4.8,0.2,7.1
	C96.6,269.8,99.3,273,95.9,274z"/>
<path class="st4" d="M145.1,34l-1.6,0.7l0.1-0.1c0.1-0.9-0.4-1.2-1.1-1.4c-1.8-2.3-4.5-2.5-7-3.1C139.9,27.4,142.4,28.5,145.1,34z"
	/>
<path class="st6" d="M85.8,191.6l0.8-9l1.2,0.2c2.6,3.4,0,6.3-1.1,9.3L85.8,191.6z"/>
<path class="st0" d="M129,50.5c1.5-0.5,2.8,0.1,4,0.8v1.6c-2.1-0.2-4-0.2-2,2.7c-1.9,2.5-2.6,0.7-2.8-0.9
	C128,53.3,128.7,51.9,129,50.5z"/>
<path class="st6" d="M126.8,29.8c0.7-0.7,0.7-1.7,0-2.4c1.7-0.7,3.5-0.6,5.2,0.1c0.1,0.6,0.2,1.3,0.3,2
	C130.5,30.4,128.7,29.9,126.8,29.8z"/>
<path class="st4" d="M203,515.7c0.9-1.6,1.9-3.1,2.8-4.7l3.1-0.1C207.2,512.8,206.5,516.1,203,515.7z"/>
<path class="st3" d="M131,55.6c-1.9-2.9,0-2.8,2-2.7c0.5,2.6,5.2,4.1,2,7.6C132.7,59.7,133.4,56.4,131,55.6z"/>
<path class="st4" d="M174.9,90.4l0.3-1.9c2.7,0.6,4.7,1.9,4.8,5C176.8,95,176.5,91.5,174.9,90.4z"/>
<path class="st1" d="M164.8,487.9l-2.4-0.2l3.8-4.5l1.4,1.6C166.8,485.9,166.2,487.3,164.8,487.9z"/>
<path class="st3" d="M142.9,428.7c0.8-1.1-1.4-4.1,2.2-3.2c0.3,1.5,1,3-0.1,4.5C144.1,430,143.2,429.5,142.9,428.7z"/>
<path class="st4" d="M142.9,428.7c0.4,0.8,1.2,1.3,2.1,1.2c-0.7,1-1.7,1.8-2.9,2.2l-0.3-2.2L142.9,428.7z"/>
<path class="st4" d="M210.1,508.7c0.4-2-2.6-0.1-2.2-1.9c0.1-0.3,0.8-0.6,1.2-0.6c1.8,0.1,1.6,1.2,1.1,2.4L210.1,508.7z"/>
<path class="st4" d="M185.7,99.2H183c-0.9-0.9-2-1.7,0-2.6C184.4,96.8,185.4,97.8,185.7,99.2z"/>
<path class="st4" d="M100.4,117.9L99,118l-1.3-0.9c0.8-1.5,2.3-0.3,3.3-0.8L100.4,117.9z"/>
<path class="st5" d="M196,521.6c0.6-1.1,1.9-1.8,3.1-1.7C198.8,522.1,197.4,521.9,196,521.6z"/>
<path class="st4" d="M67.4,55.2l-1.9-0.4l2-2.3l1.4,1.3L67.4,55.2z"/>
<path class="st4" d="M132.3,29.5c-0.1-0.7-0.2-1.3-0.3-2c1.2,0.5,3.9-0.4,2.5,2.6L132.3,29.5z"/>
<path class="st1" d="M141.8,73.8c-0.5,0.4-1.3,0.3-1.7-0.2c-0.1-0.1-0.1-0.1-0.1-0.2L141.8,73.8z"/>
<path class="st1" d="M130.4,513c-0.2-0.6-0.4-1.3,0.4-1.5s1,0.5,1.3,1L130.4,513z"/>
<path class="st1" d="M97,119c0.4,1.2,0.4,2.2-1,2.6C94.5,120,94.7,119.1,97,119z"/>
<path class="st1" d="M97.7,117l1.3,1l-1,0.1c-0.2-0.2-0.3-0.4-0.4-0.6C97.5,117.3,97.7,117.1,97.7,117z"/>
<path class="st1" d="M98,118c0.2,0.9-0.1,1.4-1.1,1.1C96.4,117.8,96.8,117.4,98,118z"/>
<path class="st1" d="M142.4,87.9c-1.9,0.1-2.5-0.9-2.2-2.6L142.4,87.9z"/>
<polygon class="st1" points="141.2,77.2 141.1,77.3 141.2,77.3 "/>
<path class="st5" d="M136.8,262.7c-3.3,0.1-6.5,1-9.3,2.6c-2.8,1.6-3.4,0.4-3.2-2.4c0.9-13.1,1.7-26.1,2.3-39.2
	c0.1-1.9,1.4-4.9-2.7-5.1c-1.4-0.1-0.9-1.9-1.1-3c-2.2-12.1-3-24.3-0.9-36.5c1.8-10.2,1.6-20.5,1.8-30.8
	c0.4-18.5,10.7-29.4,25.5-37.7c5-2.8,10-4,15.6-2c0.7,0.6,1,0.2,1-0.5c3.8-3.6,6.8-0.9,10,1.2c10.4,7,11.9,18.9,15.7,29.4
	c4,10.9,4.9,22.7,5.6,34.2c0.6,10.1,0.3,20.2-1,30.2c-1.7,12.1-3.1,24-0.2,36.5c1.7,7.6,5.3,15.9,1.4,24.1c-5.9-2.2-11.8-3-17.7,0
	c-2,0.8-4,1.5-6.1,2c-1.3,0.4-2.9,0.8-2.3,2.5c0.5,1.4,1.9,0.9,3,0.6c2.2-0.7,4.6-0.7,6.5-2.2c3.4-2.6,7.3-1.4,11.1-1.4
	c3,0,2,2.8,2.4,4.2c0.7,2.3-1.8,2.8-3.2,2.6c-11.5-1.6-22.3,3.1-33.6,3.8c-0.8,0-1.7-0.1-2.5-0.3v-2.1c3.4-0.1,6.2-1.2,7.5-4.6
	s1.8-7,6.6-7.2c1.5-0.1,1.9-2.1,2.5-3.5c1-2.6,2.8-6.5,2.2-7.8c-1.7-3.9,3.8-5.6,1.6-9c-4.4-6.8-1.7-13.6,2.5-18.3
	c9.3-10.6,9-24.2,12.8-36.4c3-9.5,2.3-20.2,1-30c-1.7-12.2-6.7-24.1-16.5-32.6c-3.1-2.7-7-6.7-11.7-5.6
	c-10.4,2.6-17.5,9.1-21.7,19.3c-3.2,7.8-1.5,15.8-1.3,23.4c0.5,15.2-0.7,30.2-1.3,45.3c-0.1,1.8,0.2,3.8-1.5,5
	c-6.6,4.7-5.3,11.6-6.2,18.3c-0.9,6.5,4.4,12.4,0.8,18.7c-0.1,0.3,0.3,1,0.6,1.3C136.1,253.4,135.2,258.4,136.8,262.7z M161,110.1
	c-1.8-0.1-3.3,1.1-3.6,2.8c-0.2,0.8,0.6,1.2,1.2,1C160.4,113.4,160.5,111.9,161,110.1z"/>
<path class="st3" d="M136.8,262.7c-1.7-4.2-0.7-9.3-4-13.1c-0.3-0.4-0.7-1.1-0.6-1.3c3.5-6.3-1.7-12.2-0.8-18.7
	c0.9-6.7-0.4-13.6,6.2-18.3c1.7-1.2,1.4-3.2,1.5-5c0.6-15.1,1.8-30.1,1.3-45.3c-0.3-7.7-2-15.6,1.3-23.4
	c4.2-10.1,11.3-16.6,21.6-19.2c4.7-1.2,8.6,2.9,11.7,5.6c9.8,8.5,14.9,20.4,16.5,32.6c1.3,9.7,2,20.5-1,30
	c-3.8,12.2-3.5,25.8-12.8,36.4c-4.2,4.7-6.9,11.6-2.5,18.3c2.2,3.4-3.3,5.2-1.6,9c0.6,1.3-1.2,5.2-2.2,7.8c-0.5,1.4-1,3.5-2.5,3.5
	c-4.8,0.2-5.4,3.9-6.6,7.2s-4.1,4.6-7.5,4.6c-5.2-1-10.5-2.4-15.8-2.9c-3.5-0.4-3.6-1.8-2.7-4.4L136.8,262.7z M141.8,212.1
	c-1.1,1.1-3.5,0.3-3.9,2.5c-4.6,5.5-3,11.9-2.5,18.2c0.7,10,3,13,12.4,15.8c2,0.6,5.1,0.6,4,3.5c-1,2.7-3.5,0.5-5.2-0.1
	c-2.5-0.8-4.8-2.3-7.2-3.4c-1-0.5-2-1.4-3,0c0.8,3.1,3.4,5.4,3.2,9.1c-0.6,9.8-0.4,9.8,9.3,11.8c1,0.2,2,0.1,3,0.4
	c5.2,1.2,8.2-0.9,9.3-6.1c0.6-2.8,1.3-5.3,5.4-5c3.3,0.2,2.4-3.4,3.1-5.3c0.5-1.4,0.7-3.5-1.8-3.9c-1.1-0.2-2.6,0.3-2.8-1.3
	s1.4-2.1,2.6-2.5c3.6-1.3,6.5-2.8,3.1-7.2c-1-1.4-0.7-3-0.3-4.8c1.2-5.8,3.7-11.3,7.1-16.2c7.4-9.9,7.1-22.4,10-33.8
	c1.8-7.1,0.8-14.8,0.8-22.3c-0.1-13-5.8-23.6-13.4-33.4c-2.5-3.2-6.5-6.7-10.8-6.2c-9.3,1-15.5,6.8-19.1,15.4
	c-0.3,0.6-1.3,1.2-0.2,2s1.7-0.2,2.1-0.6c1.7-1.6,3-3.5,4.7-5c1-0.9,2.5-2.5,3.8-0.9c1.7,1.9-1.1,2.2-1.7,3.2
	c-2.5,4.3-8.5,5.8-9.4,11.1c-0.9,4.9-1.3,9.9-1,14.9C144.7,178.8,142.8,195.4,141.8,212.1L141.8,212.1z"/>
<path class="st0" d="M130.9,500.7c1.5-4.7,4.4-8.6,6.5-13c3.5-5.5,8.4-10.4,6.2-18c-0.3-1.1,0.9-1.7,1.6-2.3
	c3.1-2.5,6.3-4.8,9.3-7.4c3.8-3.2,5.5-1.5,6.3,2.6c-1.2,0.9-1.6,1.8,0,2.6c1.4,2.2,1,5.5,4,6.8c0.4,1,1.2,0.8,2,0.7
	c0,0.8,0.1,1.6,0.1,2.4c-7.2,5.5-14.3,11.2-21.8,16.4c-4.8,3.2-7.8,8.1-12.2,11.5C131.5,503,131.1,501.9,130.9,500.7z"/>
<path class="st0" d="M166.2,483.1l-3.8,4.5c-9.1,7.8-18.8,14.8-29.1,21c-1.2,0.7-2.6,2.2-4.4,1.2c11.2-10.7,22.9-20.8,36-29.1
	l1.9,1.1L166.2,483.1z"/>
<path class="st7" d="M136.6,266c-0.9,2.6-0.8,4,2.7,4.4c5.3,0.6,10.5,1.9,15.8,2.9v2.1c-3.7,0.5-7.1-1.2-10.5-1.9
	c-5.8-1.2-11.9-0.8-17.4,1.3c-1.5,0.5-3,1.7-4-0.8c-0.6-1.7-0.7-3.8,1-4.3C128.3,268.5,131.9,265.4,136.6,266z"/>
<path class="st7" d="M130.9,500.7c0.2,1.2,0.6,2.3,2.1,2.3c-0.8,1.8-2.8,2.3-4.2,3.4c-1,0.8-1.7,3.3-3.4,2c-1.5-1.1-1.9-3.2-0.8-4.8
	c0.1-0.2,0.3-0.4,0.4-0.5h0l1.4-1C128.1,502.2,129.7,502.2,130.9,500.7z"/>
<path class="st7" d="M167,475c0-0.8-0.1-1.6-0.1-2.4s0.3-1.7-0.7-2.3c0-1.9-2.2-3.1-2-5.5c4,0.7,5.3,4,6.3,6.8
	C171.1,473.5,168.7,474.4,167,475z"/>
<path class="st6" d="M166.8,481.9l-1.9-1.1c1.8-2.3,4.2-4.2,6.9-5.3C171,478.2,169.2,480.5,166.8,481.9z"/>
<path class="st6" d="M166,457c0,1,0,1.9,0,2.9c-0.7-0.5-1.3-1-1.9-1.6c-1-1.1-2.3-2.1-1.7-3.8c0.2-0.5,1.1-1.2,1.4-1.1
	C165.6,453.9,164.9,456,166,457z"/>
<path class="st4" d="M166.2,470.4c1,0.5,0.6,1.5,0.7,2.3c-0.8,0.2-1.6,0.3-2-0.7C165.4,471.4,165.8,470.9,166.2,470.4z"/>
<path class="st4" d="M160.9,465.2c-1.6-0.8-1.2-1.7,0-2.6C160.8,463.4,160.9,464.3,160.9,465.2z"/>
<path class="st5" d="M166,108c-0.1,0.7-0.3,1.1-1,0.5L166,108z"/>
<path class="st5" d="M97.8,261l-1,0.2c-2.9-2.5-5.9-4.9-8.5-7.6c-3.5-3.6-6.9-7.1-12.4-7.7c-2.5-0.3-2.5-1.8-2-4
	c1.8-8.1,4.2-16,7.2-23.7c6.5-17.2,10.8-35,15.6-52.7c2-7.6,2.9-15.5,4.3-23.3c1-1.3,2-2.1,3,0c0.1,14.2-3.9,27.8-5.3,41.8
	c-1.6,15.3-1,30.5-1.9,45.7C96.1,240.1,96.8,250.5,97.8,261z"/>
<path class="st0" d="M97.8,74.6c0.5,0.1,1.1,0.4,1.4,0.2c6.1-3.4,6.4,1.4,7.7,5.2c2.6,7.9,3.7,16.1,3.1,24.4c-0.2,2,1.1,4.9-1.6,5.7
	s-6.2,1.2-8-1c-4.4-5.3-10.3-8.7-15.1-13.3c-1.3-1.3-1.2-2.6-0.3-4c2-3.1,3-6.6,2.9-10.3c-0.1-2.2,2-2.4,2.9-3.6l2,0.2
	c0.1,2.3,1.1,4.5,2.7,6.2c1,0.9,1.6,2.3,3.2,1.6s1.2-2.1,1.4-3.4C100.6,79.4,98,77.4,97.8,74.6z"/>
<path class="st0" d="M92.7,266.1c-5.5-2.5-10.9-5.3-16.6-7.5c-2.4-1.1-3.8-3.5-3.7-6.1c0.1-3.1,0.7-5.2,5-3.5
	c6.5,2.6,9.7,8.9,15.2,12.6C93.4,262.3,93.6,264.4,92.7,266.1z"/>
<path class="st0" d="M82.6,267.8c-0.6,0.3-1.3,0.4-1.7,0.8c-5.8,6.7-9.3,6.9-16,0.9c-1.8-1.6-0.2-2.9,0.5-4.2c0.8,0,1.6-0.1,2.4-0.4
	c1.9-1.2,2.7-4.6,5.3-4c3.3,0.8,6.4,2.5,9.6,3.9C84.8,265.7,83.2,266.8,82.6,267.8z"/>
<path class="st3" d="M97.8,74.6c0.2,2.8,2.8,4.9,2.3,8c-0.2,1.3,0,2.8-1.4,3.4s-2.2-0.6-3.2-1.6c-1.6-1.7-2.6-3.9-2.7-6.2
	c1.1-1.3,0.8-3.6,3.1-4.1L97.8,74.6z"/>
<path class="st5" d="M67.4,55.2l1.4-1.4c3-2.5,6.8-2.5,10.3-3.7c0.2,0.1,0.5,0.3,0.6,0.5l-1.5,2.2c-2.1,1.8-4.1,3.8-6.3,5.5
	c-1.1,0.9-2.7,1.7-4.1,0.6S67.2,56.4,67.4,55.2z"/>
<path class="st5" d="M81.8,57.2l0.2,2.8c-4,0.1-5,3.8-7.2,6c-1.3,1.4-2.6,3-4.5,1.4s0-2.9,0.8-4.2C73.7,59.2,77.8,58.4,81.8,57.2z"
	/>
<path class="st6" d="M104,142c-1-2.1-2-1.4-3,0c0.1-3.9-0.4-7.9,1-11.8c0.7-1.8,1.8-2.2,3.4-2.2c0.9,0,1.7,0.3,1.7,1.3
	c0,0.8,0.1,2-0.4,2.4c-2.9,2.5-3,2.5-1.4,6.1C106.3,139.9,105,140.8,104,142z"/>
<path class="st8" d="M84.5,75.9c-0.3-2-1.9-3.7-1.5-5.9c2.5,1.7,2.8-1.9,4.6-1.9c-0.1,2.6,3.2,5.1,0.4,7.9L84.5,75.9z"/>
<path class="st6" d="M96,74c-2.2,0.5-2,2.8-3.1,4.1l-2-0.2c2.3-3.7,0.1-7.1-0.5-10.8C92.9,68.8,94.9,71.2,96,74z"/>
<path class="st5" d="M87.7,68.2c-1.8,0-2.1,3.6-4.6,1.9c0-1.7,0-3.4,0-5l4.2-0.1C87.8,65.9,88,67.1,87.7,68.2z"/>
<path class="st5" d="M81.1,54.1c1.1,0.3,3.1-0.5,3.2,1.1c0.1,1.2-1.7,1-2.8,0.9C80,55.7,79.8,55,81.1,54.1z"/>
<path class="st5" d="M99.3,61.9c-1.3,0.1-3,2.3-3.7,0.2c-0.6-1.8,1.7-1.8,3-2.1L99.3,61.9z"/>
<path class="st5" d="M84.5,75.9l3.5,0.1C85.9,78.5,85.9,78.5,84.5,75.9z"/>
<path class="st0" d="M129.8,366.1c-1.9-3.2-3.2-6.4-7.5-7.8c-3-1-4.6-4.2-3.6-7.2c2.2-6.1,3.9-12.4,5-18.8
	c4.3,10.9,5.2,22.4,8.1,33.5L129.8,366.1z"/>
<path class="st5" d="M114.9,350.2c1.4-9.2,2.1-18.5,7.1-26.8C120.5,332.5,119.8,341.9,114.9,350.2z"/>
<path class="st6" d="M130.2,371.5c-1.3,0.4-2.5,0.8-3.3-0.9c-0.7-1.6-1.6-3.2-2.5-4.8c-0.9-1.5-2.9-2.2-3.2-4.3
	C125.3,362.3,123.5,359.5,130.2,371.5L130.2,371.5z"/>
<path class="st5" d="M130.2,371.5L130.2,371.5c1.1-1.9-0.1-3.6-0.5-5.3l2-0.2c1.3,3.2,1.5,6.6,2,10h-2.4
	C131,374.4,131.3,372.7,130.2,371.5z"/>
<path class="st6" d="M131.4,375.8h2.4c0.1,1.1,0.6,2.7-1.1,2.7C131.5,378.5,131,377.2,131.4,375.8z"/>
<path class="st7" d="M136.2,40.6c3.2,1.2,6-0.5,8.9-1.1c1.8-0.4,3.5-0.8,5.1,0.4c1.1,5.6-3,8.1-10.1,5.7c-1.5-0.5-2.9-0.4-4.2-0.9
	L136.2,40.6z"/>
<path class="st7" d="M135,47.1c5.6,0.2,10,2.3,12,8c-6.1,1.3-7.9-4.9-12-6.9V47.1z"/>
<path class="st1" d="M79.6,50.5c-0.1-0.2-0.3-0.4-0.6-0.5c-0.1-0.8,0.3-1.6,1-2c1-0.1,2-0.1,2.9,0c1.8,0.6,5.3-1.4,5,1.8
	c-0.2,2.5-3.6,1-5.5,1.1C81.5,51,80.6,50.8,79.6,50.5z"/>
<path class="st2" d="M142.5,33.2c0.7,0.2,1.2,0.5,1.1,1.4L142.5,33.2z"/>
<path class="st5" d="M171,517c11.8-2.5,13.7-8.3,14.8-21.1c0.4-4.3,1.7-6.7,5.3-8.3s7-4,10.5-4c4.2,0.1,3.8,5.4,5.5,8.3
	c4.8,8,3.5,10.3-4.3,17c-9.4,8.1-20.2,10-31.8,9.7L171,517z"/>
<path class="st5" d="M171,517l0.1,1.7c-1.7,1.3-4.1,1.5-6,0.6c-0.2-0.3-0.3-0.8-0.1-1.2C166.7,516.3,169,517.2,171,517z"/>
<path class="st4" d="M210.5,504.5c0.9-0.8,1.4-1.6,2.1-1.9c1.1-0.4,1.3,0.6,1.3,1.4c0,1-0.4,1.5-1.5,1.1
	C211.8,504.9,211.3,504.7,210.5,504.5z"/>
<path class="st1" d="M126.4,502l-1.4,1L126.4,502z"/>
<path class="st5" d="M161,110.1c-0.4,1.8-0.6,3.3-2.5,3.8c-0.6,0.2-1.4-0.2-1.2-1C157.7,111.2,159.2,110,161,110.1z"/>
<path class="st0" d="M141.8,212.1c1-16.6,2.9-33.2,1.6-50c-0.3-5,0.1-10,1-14.9c0.9-5.3,6.9-6.9,9.4-11.1c0.6-1.1,3.4-1.3,1.7-3.2
	c-1.3-1.5-2.9,0.1-3.8,0.9c-1.7,1.5-3,3.5-4.7,5c-0.3,0.3-1.1,1.3-2.1,0.6s-0.1-1.3,0.2-2c3.6-8.5,9.8-14.3,19.1-15.3
	c4.3-0.5,8.3,2.9,10.8,6.2c7.6,9.8,13.3,20.4,13.4,33.4c0,7.5,1,15.2-0.8,22.3c-2.9,11.4-2.6,23.9-10,33.8
	c-3.5,4.8-5.9,10.3-7.1,16.2c-0.4,1.7-0.7,3.4,0.3,4.8c3.3,4.4,0.5,5.9-3.1,7.2c-1.2,0.4-2.8,0.9-2.6,2.5s1.7,1.1,2.8,1.3
	c2.4,0.4,2.2,2.5,1.8,3.9c-0.7,1.9,0.2,5.5-3.1,5.3c-4.1-0.3-4.8,2.2-5.4,5c-1.1,5.2-4.1,7.3-9.3,6.1c-1-0.2-2-0.2-3-0.4
	c-9.7-2-9.9-2-9.3-11.8c0.2-3.7-2.4-6-3.2-9.1c1-1.4,2-0.5,3,0c2.4,1.1,4.7,2.6,7.2,3.4c1.6,0.5,4.2,2.8,5.2,0.1c1.1-3-2-2.9-4-3.5
	c-9.4-2.8-11.7-5.8-12.4-15.8c-0.5-6.2-2.1-12.6,2.5-18.2c2.3-1.2,2.5,0.8,2.8,2.1s0.3,2.7,1.9,3.1c0.4,0.1,1.2-0.4,1.6-0.9
	c1-1.5,0.1-2.5-1.1-3.2S142.2,213.3,141.8,212.1z"/>
<path class="st4" d="M141.8,212.1c0.4,1.2-0.1,2.7,1.3,3.6s2.1,1.8,1.1,3.2c-0.3,0.5-1.1,1-1.6,0.9c-1.6-0.4-1.6-1.8-1.9-3.1
	s-0.5-3.3-2.8-2.1C138.4,212.4,140.7,213.1,141.8,212.1z"/>
</svg>
