<?xml version="1.0" encoding="utf-8"?>
<!-- Generator: Adobe Illustrator 24.0.1, SVG Export Plug-In . SVG Version: 6.00 Build 0)  -->
<svg version="1.1" id="Layer_1" xmlns="http://www.w3.org/2000/svg" xmlns:xlink="http://www.w3.org/1999/xlink" x="0px" y="0px"
	 viewBox="0 0 281 575" style="enable-background:new 0 0 281 575;" xml:space="preserve">
<style type="text/css">
	.st0{fill:#FEFEFE;}
	.st1{fill:#140F0D;}
	.st2{fill:#070505;}
	.st3{fill:#090706;}
	.st4{fill:#070504;}
	.st5{fill:#1B1714;}
	.st6{fill:#090707;}
	.st7{fill:#120E0D;}
	.st8{fill:#100C0A;}
	.st9{fill:#E591AB;}
	.st10{fill:#1A1817;}
	.st11{fill:#FFEBF4;}
	.st12{fill:#3A3A3A;}
	.st13{fill:#FFDCDC;}
	.st14{fill:#F2BBBB;}
	.st15{fill:#1F1A18;}
	.st16{fill:#100D0C;}
	.st17{fill:#0E0C0B;}
	.st18{fill:#1D1816;}
	.st19{fill:#231E1D;}
	.st20{fill:#171413;}
</style>
<title>frame11</title>
<path class="st0" d="M212.1,294c4.2,2.5,5.3,9.5,1.9,12.8c-1.3,1.3-3.4,1.6-5,0.6c-6.8-3.6-13.8-3.9-21.1-1.9
	c-1.3,0.3-2.6,0.4-3.9,0.5c-3.3,1.7-2.8,5-3.3,7.8c-0.3,1.8-0.1,3.6-1,5.2c-3.6,10-5.3,20.5-8,30.8c-0.5,2,0.7,3.9,0.5,5.9
	c-0.1,5.6-2.7,10.8-7,14.3c-2.3,1.9-3.1,4.1-2.6,7.4c0.9,5.6-1.5,11.1-1.8,16.7c-0.4,1.1-1.2,2.2-2.4,1.8c-1.9-0.6-1.1-2.7-1.8-4
	c-0.3-0.4-0.6-0.8-1.2-0.6c-1.1,2-2.5,3.8-1.6,6.2c0.1,1,0,2-0.5,2.9c-1.7,3.7-1.7,7.8-1.7,11.6c-0.1,3.8,0.1,7.5,0.5,11.2
	c0.1,8.9-2,17.4-3.8,26c-0.8,4-5.7,7-9.8,6.8c-5.1-0.2-10.3-0.4-15.3-1.9c-3.7-1.1-5.8-3.2-6.2-7.3c-0.9-8.8,0.5-17.5,0.3-26.3
	c-0.1-7.3-0.3-14.6,0.4-21.9c1.8-7.6,0.9-15.3,0.2-22.8c-1.4-14.2,0.9-28.2,1.8-42.2c0.6-9.2,1.4-18.5,1-27.8
	c-0.8,7.6-1.9,15.2-1,22.9c0.7,5.6-0.3,11.3-1.2,16.8c-1.5,10.1-1.1,20.2-1.2,30.3c0,2.5,0.3,5-0.7,7.4c-0.2,0.5-0.7,0.9-1.3,1
	c-1.5-0.3-2.7-1.5-3-3c-1.9-7-6-13.3-6.5-20.7c2.2-10.9,2.2-22.1,4-33c1-6.3,2.3-12.6,4-18.8c-0.1-5,0.9-9.9,1.6-14.9
	c-0.7,4.8-1.8,9.6-1.6,14.6c-3.4,11-4.5,22.5-6.4,33.8c-0.4,2.3,0.1,5.6-3.9,5.5c-1.4-4-1.7-8.4-0.8-12.6c1.4-6.1,0.4-12.7,2.4-18.6
	c1.9-5.5,4.2-10.7,4.8-16.5c0.6-6.1,1.2-12.2,1.5-18.3c0.3-3.7-0.7-7.3-2.6-10.4c-1.5-2.4-2.2-5.2,0.6-7.6c0.9,0.1,1.5,0.7,1.7,1.6
	c1.4,6.3,6.2,6.8,11.3,7c6,0.3,12.2,0.1,17.8,3.4c1.3,2.5,1.7,5.4,1.1,8.2c-0.7,4.6,1.3,7.2,5.6,8.6c2.7,0.9,5.4,1.7,8.1,2.3
	c6.5,1.4,13.2,1.5,19.4,4s12.3,1.8,18.5-0.2c4.1-1.4,8.6-1.4,12.7,0.1c5.2,1.9,5.2,1.8,5.7-3.6C211.4,294.7,211.7,294.3,212.1,294z"
	/>
<path class="st0" d="M112.2,135.4c0-1.8-1.9-3.4-0.7-5.2c3.2-4.8,0.4-7-3.4-9.2c-2.2-1.2-3.8-2.8-4.2-5.6c-0.4-3-4.8-3.7-4.9-7.2
	c1.7-1.7,2.9-0.7,4.1,0.7c1.7,1.8,3.3,3.8,4.7,5.8c2.2,3.5,5.4,4.1,9.1,3c2-0.6,3.8-1.1,5.9-0.1c1-3.2,1.3-6.5,1.1-9.8
	c0,3.4,0.5,7.3-4,9c-4.6,1.8-9.8,0.4-13-3.4c-0.7-0.9-1.4-1.9-2.2-2.7c-4.4-4.5-7.9-9.2-3.1-15.6c0.6-0.8-0.3-1.5-0.5-2.3
	c-0.1-2.9-0.5-5.9-1-8.8c-1-4.5,3.7-13.4,7.8-15.7c3.1-1.7,4.6-1,5.1,2.4c0.3,1.8,0.2,3.7,1.7,5c4.8,1,9.7,3.1,14.4-0.3
	c2-1.3,2.9-2.9,2.1-5.4c-0.7-1.3-0.8-2.9-0.5-4.3c2.7-4.4,5.9-2,9-0.6c3.2,2.8,8.5,3.3,9.6,8.5c-0.3,1.4-1.9,2.4-1.5,4.1
	c1.2,4.7,3.4,9.2,3.1,14.2c-5.3,8.1-10.7,16.1-16.4,24c-4.4,4.2-4.3,9.8-4.9,15.2c-0.2,1.7,0.3,3.8,2.4,4.5c2.6,1,2.7,2.9,2.5,5.2
	c-0.4,5-0.2,9.9-0.2,14.9c-0.4,8.3-1.5,16.5-1.5,24.8c-0.1,7.9-0.4,15.8,0.3,23.7c0.9,11.1,0.3,22.2,0.3,33.4c0,1.8-0.3,3.7,0.7,5.4
	c0.2,0.5,0.4,1.1,0.4,1.6c-0.6,3.6,0,7.2-0.4,10.8c-1.2,1.6-2.7,0.9-4,0.2c-5-2.5-10.6-3.8-16.2-3.6c-3,0.2-4.9-1-4.2-4.4
	c2.2-10.4,1.1-21.2,3-31.6c1.6-8.4,2.5-17,2.4-25.6c-0.2-7.2,0.6-14.5-0.4-21.7c-0.4-2.8-1-5.6,0.1-8.4c1.5-4.7,2.8-9.4,2.3-14.4
	c-0.3-2.8,1.7-4.9,2.7-7.2c1-1.8,0.8-3.8,1.1-5.6c0.2-1.3,0.6-2.5,0.9-3.8c1-4,1-4-2.1-6.1C116.7,127,118.1,133.6,112.2,135.4z"/>
<path class="st1" d="M159.9,394.8c0-4.9,0.7-9.8,2-14.6c0.1-0.3,0.4-0.7,0.3-0.9c-3.9-7,1.7-9.8,5.6-13.7c2.4-2.4,2.9-6.2,3.4-9.6
	c1-11.3,4.2-22,7.2-32.8c0.5-1.8-0.5-3.6,0.6-5.3c0.3-5.1,1.5-10.1,3.5-14.8l1.4,2.8c-2.6,8.6-2.5,17.6-4.6,26.3
	c-3.4,14.4-5.6,29.2-11.3,43c-3,7.4,2.2,12.4,4.2,18.3c2.3,6.7,8.5,11.2,10.2,18.4c2.3,9.6,6.5,18.6,8.5,28.3
	c0.2,0.9,0.6,2.3,1.3,2.6c6.2,2.5,5.5,7.9,5.7,13c0.6,1,0.4,2.4-0.6,2c-2.6-0.9-3.8,0.9-5.4,2.1c-3.3,3.1-7.4,3.8-11.7,4.6
	c-4.5,0.8-8.8,2.1-12.3,5.3c-3.4-1.4-6-4.3-7-7.9c1.7-7.5-3.1-12.7-6.4-18.4c-0.7-1.1-1.6-2.1-2.4-3.2c-0.2,5.3-2,9,0,13.9
	c1.6,3.9-0.1,9.2-0.6,13.9c-0.2,1.3-1.9,1.4-3.3,1.5c-7.3,0.7-14.4-1.4-21.7-1.5c-0.7,0-1.3-0.1-2-0.2c-3.7-0.5-8.3,1.9-11-2.4
	c-3.1-5-4.6-10.7-1.3-16c3.9-6.2,2.7-12.5,2.1-19c-0.9-11.1,1.1-22.1,0.7-33.2c0-1.1,0.2-2.4,1.6-2.7l0.7,0.1
	c1.7,0.9,1.1,2.7,1.6,4.1c0.8,10.2-0.5,20.5-0.3,30.7c0.1,5.8-0.3,11.6-0.1,17.4c0.1,3.1,1.2,4.6,3.8,5.4c4.4,1.5,8.9,2.5,13.6,1.8
	c1.2-0.2,2.4-0.8,3.2,0.4c1.2,1.8,1.8,0.5,2.9-0.1c8.5-4.3,5.5-13.1,7.6-19.7c1.2-3.7,1-7.8,1.5-11.8c0.4-2.5,1.1-4.9,2-7.3
	c0.5-1.3,0.7-2.7,0.6-4.1c0.1-2.6,1.4-4.7,2.3-7C157.5,401.4,158.2,397.9,159.9,394.8z"/>
<path class="st2" d="M116.1,160.1c-1.9,5.7,0.4,11.5,0.4,17.2c0,14.2-1,28.5-2.8,42.6c-1.3,10.2-1.1,20.5-3.1,31.2
	c8.4-1.6,15.8,1.8,23.3,4.4c-0.1-2.1-1.5-4.4,1.1-6c0.8-0.2,1.6,0.1,2.1,0.7c-0.1,4.7,0,9.3,1.4,13.8c-0.5,3.7,2.3,6.5,2.6,9.9
	c0,0.5-0.1,1-0.2,1.5c-0.2,0.5-0.6,0.8-1,1.1c-6.3-2.1-12.9-2.6-19.6-2.9c-8-0.4-9.3-1.8-10.2-9.7c-2.1-0.8-1.5,0.9-1.5,1.7
	c-0.2,3.7-0.7,7.4-1.4,11c-0.1,1.8,0,3.6-0.2,5.4c-0.2,1.6,0.8,4.5-1.5,4.4s-5.3-1.2-5.5-4.5c-0.3-4.2-0.7-8.5-1-13.6
	c-3.7,3-5.3,6.6-6.9,10.3c-0.9,2.1-2.3,4-4.8,2.4c-5.5-3.5-10.2-3.1-14.2,2.3c-0.6,0.8-1.9,1.2-2.9,1.7c-6.1,2.8-8.9-2.6-12.8-5.2
	c-3.3-1.6-4-3.8-2.4-7.2c1.5-3.6,3.4-7.1,5.8-10.3c2.3-2.8,3.6-6.2,3.7-9.7c0.4-6.2,3.9-11.8,9.4-14.8c5.8-3,7.3-8.8,11-13
	c3.3-3.8,3.2-10.1,9-12.1c-0.9-3.8,3.1-5.5,3.6-9.4c1.8-14.9,2.3-30.1,8-44.3c2.5,0.5,1.8,2.6,2.1,4.2c-3.5,12.7-4.9,25.8-6.3,38.8
	c-1.4,12.4-2.5,24.8-3.5,37.2c-0.4,6.2,0.5,12.3,2.7,18.1c2.3,6.5,3.4,13.2,3.4,20.1c1.1-16.1,4.6-32,5.5-48.2
	c0.7-11.6,2.9-23.1,3.2-34.7c0.2-7.9-0.7-15.9-0.6-23.9c0.1-4.9-1.4-10.1,3.1-14C117.3,157.2,116.5,158.8,116.1,160.1z"/>
<path class="st3" d="M147,77.1c-2.1-2.8,2.3-1.5,2-3.1c0.5-0.9,2.5-0.8,0.8-2.9c-2.7-3.1-6.1-4.1-9.7-4.9c-3-0.8-6-3.4-9.1-0.1
	c-0.2,1.5-0.7,2.9-1.5,4.2c-0.2,0.3-0.4,0.5-0.6,0.8c-3.1,6.4-8.4,7.6-14.8,6.4c-4.2-2.2-1.3-6.2-2.5-10c-2.2,1.6-4.2,2.9-6,4.4
	c-0.9,0.8-2.8,1.7-0.9,3.5c0.7,0.7,0.7,2.4-0.2,2.5c-7.4,1-2.5,5.5-2.4,8.5c0.1,2.2,0.7,4.5,0,6.7c-0.3,0.7-0.8,1.3-1.5,1.6
	c-0.7,0.2-1.5-0.1-2-0.7c0.5-2.7,1.2-5.2,0.9-8.2c-0.5-5.1-3-6.4-7.4-5.8c-1-0.5-2.3,0.2-3.2-0.8c-2.2-0.3-3.8-1.5-3.8-3.8
	c0-4.4,3.1-6.1,7-7.5c-6-7,2.2-5.6,5-8.4c-2.2-0.1-3.9-0.1-5.6-0.3c-2.9-0.4-3.5-2.7-3.8-5c-0.4-2.9,2-1.9,3.3-2.2
	c5.1-1.2,10.1-3.5,15.6-2.6c0.8,0,1.6,0.1,2.5,0.2c6.7,2.2,7,2,11.2-4c3.2-4.5,6.7-8.8,13.1-8.4c1.9,0.1,3.8,0.3,5.1,1.6
	c3.5,3.3,7,2.6,10.9,0.7c3.5-1.7,7-1.7,10.3,0.9c1.2,2.4,3.1,4.4,5.4,5.9c-0.2,0.6-0.4,1.6,0.4,1.6c3.9,0,5.8,2,5.5,5.8
	c-0.3,4.4-3.2,5.7-7.1,5.7c-0.5,0-1,0-1.5,0c-2.5,0.6-5.5-0.2-7.2,2.5c-1.2,0.9-1.9,2.2-3.3,2.8c-1.7,0-2.9-1.2-4.3-2
	c-1.3-1-2.5-2.1-3.6-3.4c-0.2-3.3,2.3-3.2,4.4-3.2c4,0.2,8,0.1,12-0.3c1.5,0,3-0.4,4.3-1c0.6-0.3,1.1-0.8,1.2-1.5
	c0-1-0.8-1.5-1.6-1.6c-2.5-0.5-5.1-0.7-7.4,0.2c-5.1,2.1-10.5,0.9-15.6,1.9c-1.3,0.2-2.9,0.4-3.4-1.2c-0.6-1.9,1-2.7,2.4-3.2
	c4.2-1.5,8.7-2.2,13.1-3.2c1.2-0.3,3.6,0.2,2.9-2.2c-0.5-1.9-2.2-2.5-4.1-1.9c-3.7,1-7.4,1.9-10.5,4.3c-3.2,2.6-6.7,4.9-10.5,6.7
	c-1,0.5-2,1.7-3.1,0.7s-0.3-2.5,0.2-3.7c1.4-3.2,3.6-5.8,6.4-8.9c-6.2-0.6-8.8,3-11.2,6.5c-2.1,3.1-4.9,5.4-7.7,7.8
	c-1.3,1.1-3.2,2.2-4.5,0.7c-4.2-5-9.2-3.5-14.2-2.5c-1.1,0.2-2.4,0.1-3.2,1.2c1.4,1.1,2.9,0.4,4.3,0.2c2.2-0.2,4.4,0.3,6.2,1.4
	c4.5,2.5,4.8,6.3,0.6,9.4c-1.1,0.8-2.3,1.4-3.4,2.1c-2,1.5-4.5,1-6.6,2.1c-1.1,2.2-5.4,1.1-5.1,4.8c0.6,1,1.7,0.8,2.6,0.8
	c4.4,0.8,6.2-2.7,8.8-5c0.5-0.5,1-1,1.5-1.5c3.3-2.6,6.5-5.2,10.8-6c1.6-0.2,3.1,1,3.3,2.6c0,0.3,0,0.5,0,0.8c0,1.8-0.9,3.5-0.5,5.4
	c1,1.5,2.3,1.6,3.8,0.8c0.3-0.3,0.6-0.6,0.8-1c0.8-1.1,1.2-2.4,1.2-3.7c-0.1-1.7,0.1-3.4,2.5-3.3c0.3,0,0.7,0.1,1,0
	c7.8-4.9,7.8-4.9,16.1-3.3c1.3,0.4,2.7,0.6,4,0.8c2.8,1,5.2,2.8,7.1,5c0.8,1,1.8,2.3,3.2,1.1c1.6-1.4,0.2-2.6-0.7-3.7
	c-0.5-0.8-1-1.7-0.3-2.7c0.8-0.6,2-0.5,2.7,0.3c5.2,2.9,5.5,4.5,1.3,9.4c2.1,0.8,4.2,1.6,6.2,2.5c1.3,0.6,2.3,1.7,1.4,3.2
	c-1,1.6-1.9-0.1-2.8-0.5c-1.2-0.5-2.3-1.3-3.5-1.8c-1.6-0.7-3.4-0.3-4.5,1c-1.3,1.3-0.4,2.4,0.1,3.6c2,4.4-0.4,7.9-2.1,11.6
	c-0.4,0.6-0.2,1.3-0.6,1.9c-0.3,0.3-0.8,0.5-1.2,0.4c-0.9-0.2-1.6-1.1-1.6-2c0.6-2.9,0.8-5.9,0.5-8.9C150.7,79.6,149.6,78,147,77.1z
	"/>
<path class="st4" d="M139.8,276.4l0.2-1.3c0.9-1,1.8-1.9,3.4-1.1c2.9,5.1,7.3,7.3,13.2,8.3c9.8,1.6,19.5,4,29.5,4
	c5.2,0,10,2.1,15,3.3c1.5,0.4,3.6,1.2,4.2-1.1c0.5-1.9-1.3-2.4-2.6-3.2c-4.9-3-7.9-7.4-8-13c0.1-4.3-1.5-8.5-4.4-11.7
	c0.6-1.9,3.9-3.3,6.4-2.7c2.4,4.1,3.2,8.7,3.6,13.3c0.6,5.8,3.2,9.1,7.9,10.4c1.8,0.5,3.5,0.5,4-1.6c0.7-3.5,2.2-6.9-0.8-10.3
	c-2.2-2.4-1.3-4,2-4.7c1.3-0.3,2.7-0.1,4-0.4c2-0.5,3.4-1.6,3.3-3.8s-1.2-3.8-3.5-4.2c-2-0.3-4.1,0.2-5.9-0.6c-2.1-0.9-4.9-2-1-4.5
	c2.8,0.3,6,1.2,6.2-3.4c3.1-5.1,2.3-11,2.8-16.5c0.8-9.4,1.2-18.8,2.3-28.2c0.6-3.5-0.2-7-2.2-9.9c-2.5-3.9-4-8.4-4.3-13
	c0.4-1.5,1-2.8,2.9-2.4c2.5,5.8,3.1,12.4,7.4,17.3c1,1.2,0.7,2.3,0.5,3.7c-1.3,8.8-2,17.8-2,26.7c0,7.6-0.7,15.1-2.1,22.5
	c-0.8,3.9,2.6,6.2,2.6,9.7c0.1,0.5,0.5,0.8,1,0.7c0.2,0,0.4-0.1,0.5-0.3c0.7-0.5,1.1-2,2.2-0.9c1.4,1.3-0.5,1.9-0.8,2.8
	c-1.3,3.9-4.9,5.9-7.3,8.7c-1.6,1.8-2.7,3.5-2.4,5.5c0.5,3.6-2,6.6-1.7,10.1c0.1,1.5-1.2,1.8-2.4,2c-1.4,0.3-3-0.6-3.8,1.9
	c-0.9,2.9,0.9,3.9,2.3,5.4c0.2,1.1,0.4,2.3,0.6,3.4c0.7,4.5-0.6,5.6-4.8,3.8c-5-2.4-10.7-2.6-15.9-0.6c-5.5,2-11.3,2.5-17,0
	c-6.3-2.8-13.1-3.2-19.8-4.2c-1.5-0.2-2.9-0.5-4.4-0.8C139.1,293.9,139.5,285.1,139.8,276.4z"/>
<path class="st5" d="M155.8,519.7c-0.8-2.8,1.7-2.4,2.9-2.7c2.6-0.6,5.2-0.9,7.8-0.9c3.8,0.2,6.5-1.5,9-4.1s5.5-5,8.2-7.5
	c0.4,0.1,0.3,0.6,0.8,0.7c-0.2-2.2,0-4.3-0.1-6.5c-0.1-3.9,2.2-5,5.6-5c0.8,3.5-1.1,7.1,1.1,10.9c1.1,1.8-1.9,4.3-3.8,6
	c-5.4,4.8-12,7.6-18.3,11.1c-2.1,0.4-4.3-0.8-6.9,0.1c2.3,0.9,4.5,0.9,6.5,1.1c10.6-0.1,21-1.1,31.1-4.7c1.6-0.2,3.5,0.4,4.8-1.2
	c1.7-1.4,3.6-2.7,5.6-3.7c0.7-0.6,1.7-0.8,2.5-0.5c2.6,6.1-0.9,9.5-6.3,13.4c-8.4,6.2-17,3.5-25.6,3.6c-1.6,0-3.3-0.1-4.9-0.2
	c-3.6-0.9-7.4,0.4-10.8-1.4c-3-0.3-5.7-2-8.8-1.2c-1.2,0.3-2.3,0.7-3.5-0.1c-0.4-0.6-0.6-1.4-0.4-2.1
	C153.3,523.1,154.8,521.5,155.8,519.7z"/>
<path class="st6" d="M218,178c-0.9,0.3-1.7,1.1-2.1,2c-3.2-0.5-2.9-2.9-2.8-5.2c0.4-1.2,2.3-1.1,2.3-2.7c1.6-5.3-1-10.1-2-15
	c-1.3-6.5-3-12.9-6.5-18.6c-2.7-5.3-5.4-10.5-10.3-14.4c-2.8-2.3-5.6-4-9.3-4.1c-4.5-1.6-9.4-1.6-14-3.3c-2-0.8-3.9,0.2-5.7,1.1
	c-2.2,1.1-4.1,2.9-6.7,3c-1,0.1-2-0.5-2.4-1.5c4.1-6.3,11.9-9.1,19.1-6.9c2.2,0.6,5.4,3.9,6.6-1.6c0.3-1.3,2.6-0.8,4.1-0.3
	c-5.6-1.6-11.2-2.9-15.2-7.6c-0.2-0.3-0.4-0.5-0.5-0.8c-0.9-2.5-2.1-3.1-4-0.8c-3.6-4.3-8.4-4.6-13.5-4.4c-1.7-0.7-1.8-2.4-2.3-3.9
	l0,0c3.7-0.7,7.5-0.8,11.2-0.1c4.4,1.3,8.4,3.8,11.5,7.1c4,4.1,9.5,6.5,15.2,6.8c1.5-0.5,2.2,0.3,2.9,1.5c2.3,1.3,3.8,2.9,1.7,5.4
	c-1.7,2-0.2,3.3,1,4.5c7.5,7.2,13.4,16,17.2,25.7c3.6,9.1,5.8,18.7,6.4,28.5C220.1,174.8,217.2,175.7,218,178z"/>
<path class="st7" d="M107.2,276.5c-0.8-5.8,1.5-11.2,0.9-17.9c2.6,1.9,1.8,3.7,2,5.1c-1.7,2.6-2.5,5,0.3,7.7c2.5,2.5,2.6,6,2.5,9.3
	c-0.3,10.3,0.3,21.3-3.8,30.4c-3.8,8.2-2.7,16.5-5.1,24.3c-1.3,4.2,0.5,8.2,0.3,12.3c2.6,4,2.5,8.7,2.8,13.2
	c2,7.9,4.7,15.5,8.1,22.9c0.3,0.4,0.6,0.8,0.7,1.3c0.4,1.7,0.5,3.6-1.6,4c-1.8,0.4-2.5-1.3-3-2.7c-0.7-2-1.3-4.1-1.6-6.2
	c-1.7-8.2-7.2-15.4-6.6-24.2c-4.2-17.2,0.8-34.1,2.3-51c0.9-10,3.8-19.7,4-29.8c0-0.7-0.1-1.3-0.3-2
	C107.2,273.8,108.3,275.7,107.2,276.5z"/>
<path class="st8" d="M92,520.9c2.2-3.1,5.8-3.2,8.9-4.3c3.7-1.4,7.6-2.2,11.3-3.6c5.1-2,6.6-7.5,10.1-11c1.3-1.5,2.5-3.1,3.4-4.8
	c1.6-2.7,3.7-3.2,6.7-2.2c4.2,1.4,8.6,2.4,13,2.8c3.7,0.3,3.9,3.7,4.5,6.1c1.2,5.4,1.6,11,4.2,16c0.8,1.3,1,2.5-0.6,3.4
	c-1.5-0.1-2.4-1-3.2-2.1c-2.6-3.8-2.8-8.4-3.8-12.7c-2-7.7-3.3-6.5-13.1-8.7c-4.7-1-6.1,3.1-7.8,6.2c-1.1,2-2,4.2-3.8,5.7
	c-4.3,3.5-9.6,4.8-14.5,7c-4.5,1.7-9.3,2.6-13.3,5.5C92.1,523.9,91.6,522.7,92,520.9z"/>
<path class="st9" d="M116.1,160.1c-0.5-1,0.3-2.5-1.2-3.2c-2.3-6.3-1.3-12.5-0.7-16.1c-0.8,4.1-3.4,10.5-5,17.2
	c-0.5,1.9-0.3,4.5-3.1,5c-0.5-1.3,0.8-2.9-0.9-4c0.6-6.4,3.7-12,5.4-18c0.5-1.9,1-3.8,1.6-5.7c3.4-3.4,3.4-8.8,7-12.2
	c0.5-0.5-0.1-0.5,0.8-0.4c10.2,1.8,0.4,6.9,1.9,10c-0.9,2-1.9,3.9-0.8,6.2C117.1,145.5,119.7,153.6,116.1,160.1z"/>
<path class="st8" d="M164.8,527c3.5,2,7.5,1.4,11.2,2.7c-6.3,0.3-12.5,0.8-18.8,1c-1.9,0.1-3.9-0.6-2.7,2.7c0.3,0.7-0.3,2.3-1.4,2.3
	c-2.2,0-1-1.4-0.8-2.4c0.2-2.1-1.4-1.2-2.3-1.2c-14.2-0.4-28.3-0.7-42.5-1.1c-4.9-0.1-9.8,0.4-14.6,1.5c-3,0.6-4.6-0.1-4.2-3.4
	c0.8-0.9,2-1.4,3.2-1.3c10.5-1.3,21.1,0.3,31.8-0.8c5.8-0.6,11.9,0.4,17.9,0.7c3.3,0.1,6.6,0.2,9.9,0c3,0.6,5.9-0.2,8.8-0.3
	C161.8,526.9,163.3,528,164.8,527z"/>
<path class="st10" d="M92.1,528.9l-3.4,0.1c-0.8-3.5,1-5.9,3.3-8.1c0.6,1,0.9,2.4,2.2,2.9c4.1-3.2,8.9-3.1,13.7-3.4
	c9.3-0.6,18.5,1.6,27.7,1c3.8,0.1,7.7,0.5,11.5-0.3c1.3-0.4,2.7-0.5,4-0.2l1.9,1.7c-0.5,1.4-1.5,2.6-2.8,3.2
	c-7.4,1.2-14.8,0.3-22.2,0.6c-2.3,0-4.6,0.1-6.9,0.3c-6.9-2.8-14.1-0.6-21.2-1.4c-1.8-0.2-3.1,1.1-4.4,2
	C94.5,528.1,93.3,528.6,92.1,528.9z"/>
<path class="st9" d="M100.8,94l1.3-0.9c2.9,0.4,1.2,2,0.6,2.9c-2.8,4.4-3.3,8.3,1.3,12c2,1.6,3.5,4,5.1,6.1c3.2,4.1,7.3,1.9,11,1.6
	c3.2-0.2,2.5-3.4,2.8-5.6c0.2-2.5,0.1-4.9,0.7-7.5c2.7,3.6,2,7.7,1.4,11.7c-0.4,2.3-0.2,4.9-4.7,4.3c-3.5-0.4-7.6,2.6-11-0.4
	c-2.5-2.1-4.3-5-6.2-7.7c-0.8-1.5-2.4-2.4-4.1-2.3l-3.1-6.1C96.8,99,97.9,95.9,100.8,94z"/>
<path class="st8" d="M190.3,494.1c-4,1.2-6.4,6.1-5.2,10.6c0.3,1.1,3.1,2.6,0.2,3.2c-2.3,0.5-0.6-2.3-1.4-3.3c0-1.2,0.4-2.6-0.2-3.4
	c-2.8-4.8,0.3-6.6,3.8-8.3c3.1-1.5,6.1-3.2,9.3-4.5s5.6,1.5,6.7,3.2c4.2,6.6,9.3,13,9.3,21.4l-2.1,1.1c-2.2-0.4-2-2.4-2.5-3.9
	c-1.5-4.7-3.6-9.3-6.3-13.5c-2-2.9-4.2-4.7-7.9-2.5C192.9,494.9,191.4,494.9,190.3,494.1z"/>
<path class="st11" d="M103,356c2.8,11.2,6.9,22,10.9,33c2.5-1.6,0.5-3.6,1.2-5.1c0.3-0.1,0.6-0.1,0.9,0.1c2.7,0.1,1.8,2.1,1.9,3.6
	c-0.8,1.9-0.8,4.4-3.8,4.5c-6.8-2.9-4.4-10.2-7.1-15.1c-0.8-1.8-1.4-3.7-1.5-5.7c-0.4-3.1-1.5-4.3-4.4-1.3
	C100.6,364.7,101,360.2,103,356z"/>
<path class="st9" d="M192,460c0.8-3.2,3.1-4.1,6-4.1c2.8,1.7,3.5,4,1.9,6.8c-0.2,0.3-0.5,0.4-0.8,0.3c-1-0.3-1.3-2.2-2.7-1.6
	c-1.5,0.7,0.2,2.4-0.6,3.5h-3.6C191.5,463.4,194.4,461.4,192,460z"/>
<path class="st12" d="M161,461.9l7,7.9c-1.4,1.5-2.8,1.7-4-0.1c-1.7-2.2-3.2-4.5-4.5-7C158.6,461,160.2,461.7,161,461.9z"/>
<path class="st12" d="M187.9,97.1c-2.9-3.1-7.7-4.2-9.4-8.6c4.5,1.1,7.1,4.9,10.4,7.6C188.6,96.5,188.5,97.1,187.9,97.1z"/>
<path class="st13" d="M195.9,464.9c-0.8-1.3-2.6-2.1-1.7-4c0.6-1.2,1.9-1.4,2.9-1.6c2.9-0.6,1,3.1,2.9,3.5
	C199,464.3,197.5,464.8,195.9,464.9z"/>
<path class="st14" d="M57.2,279.8c4.4,1.5,7.4,6.3,12.8,5.2c-3.1,3.3-5.6,1.9-8.4-0.7C60.1,282.8,58.1,281.9,57.2,279.8z"/>
<path class="st9" d="M187.9,97.1l1-1c3.1,3.5,4.3,7.7,4.8,12.2l-2.9-1.5C191.2,103.3,190.1,99.8,187.9,97.1z"/>
<path class="st15" d="M100.8,94c-2,2.5-2.2,6.1-4.9,8.2c-2.1-3.7,1.6-5.5,2.7-8.2H100.8z"/>
<path class="st12" d="M165.1,46.1c-4.8,0.8-4.9-2.8-5.4-5.9C161.8,41.9,165.2,42.4,165.1,46.1z"/>
<path class="st1" d="M114.1,392c2.4-0.5,1.5-3.1,2.8-4.3c1.8,2.4,3.8,4.8,0.2,7.3l-0.4-0.3c-0.1-0.5-0.1-1.8-0.5-1.4
	C113.4,396.1,113.9,394,114.1,392z"/>
<path class="st14" d="M155,62.1c-0.7-1.4-1.5-2.9,1.1-2.9c2.1-0.1,4.2,0.1,6.3,0.1c-1,1.9-5-1.2-4.5,2.9L155,62.1L155,62.1z"/>
<path class="st14" d="M150.9,524.7c-0.1-1,0.7-2,1.7-2.1c0.1,0,0.3,0,0.4,0c1.5-0.5,0.6-1.9,1-2.8l1.8-0.1c0.4,2.4-0.7,4.1-2.8,5.2
	c-0.5,0.5-1.4,0.6-1.9,0C151.1,524.9,151,524.8,150.9,524.7z"/>
<path class="st9" d="M164.1,93L153,93.1c-0.1-0.9,0-1.7,0.9-2c1.2,2.6,3.4,0.7,5.1,1.1S162.6,91.8,164.1,93z"/>
<path class="st9" d="M89,79.2c1.1-0.2,2.3,0.1,3.2,0.8c-2,0.8,2.3,2.6-0.5,3.1C88.1,83.7,89.4,80.8,89,79.2z"/>
<path class="st16" d="M117.1,395c2.2-2.5-0.6-4.9-0.2-7.3c-0.5-1.2,0.6-2.8-0.9-3.7c-0.5-17.4,1.2-34.7,2.5-52
	c0.6-8.6,0.1-17.5,0.3-26.2c0.1-1.8-0.5-4.2,2-4.3c3.1-0.1,1.5,2.4,1.6,4c0.8,15.8-1.8,31.4-3.2,47c-0.8,9.6,0.3,19.2,0.4,28.8
	c0.1,5.9,1.2,11.9-0.7,17.8L117.1,395z"/>
<path class="st14" d="M107,361c-1.8-4.2-2.7-8.7-2.8-13.2c2.8-2.7,2.4-6.4,2.9-9.7c1.5-10.1,3-20.2,6-30.1c0.4-0.6,0.9-1.4,1.8-1
	c0.5,0.2,0.5,0.7,0.3,1.1c-3.5,13.2-5.4,26.8-5.7,40.4C109.4,352.7,107.9,356.8,107,361z"/>
<path class="st0" d="M179,318c2.4,4.1-0.7,7.6-1.4,11.3c-1.7,9-4.2,17.9-6.4,26.8c-2.6-5.4,0.1-10.8,1.3-15.6
	C174.4,333,175.3,325,179,318z"/>
<path class="st11" d="M154,415.7c-0.9,2.5-0.2,5.5-2.8,7.3c-1.2-7.4-0.7-14.8,0.3-22.1c0.1-0.4,1-0.8,1.5-1.1
	c1.4-0.2,1.6,0.8,1.8,1.8c0,0.5-0.1,1-0.2,1.5C154.1,407.2,154,411.5,154,415.7z"/>
<path class="st12" d="M115.1,308.1c-0.7-1.2-1.4-0.4-2.1-0.1c-0.6-6.3,1.8-12.3,2.9-18.4C117.5,295.8,114.8,301.9,115.1,308.1z"/>
<path class="st11" d="M159.9,394.8c0.7,3.8-1.6,6.9-2.8,10.2c-0.7-0.4-1.1-1.1-1.3-1.8c-1-4.2-3-8.4,1.2-12c2.2,0.2,1.4,1.6,1.2,2.9
	C157.7,396.6,159,395.3,159.9,394.8z"/>
<path class="st12" d="M157,391.2c-1.4,3.9-1.9,7.8-0.2,11.8c-1.1,0.5-2.4,0-2.9-1.1c-0.1-0.8-0.1-1.7-1-2.1l0.1-2.8
	c0.1-2.9,1.7-5.2,2.8-7.8C156.9,389.4,156.9,390.3,157,391.2z"/>
<path class="st0" d="M155.7,389.2c-0.1,2.8-1.1,5.5-2.7,7.8C150.6,393.2,154.3,391.6,155.7,389.2z"/>
<path class="st17" d="M134.1,243.7c-3.5-0.3-2-3.2-2-4.8c-0.3-10.8,0-21.6-0.4-32.3c-0.7-17.2,0.3-34.4,1.4-51.5
	c3.5,0.9,1.8,4.3,2.9,6.3c-0.7,13.9-1.4,27.8-0.6,41.6c0,1.7,0.2,3.3,0.6,4.9c-0.8,9,0.1,17.9,1.4,26.8
	C137.6,238,136.4,241.3,134.1,243.7z"/>
<path class="st9" d="M134.9,161.1c-1.9-1.6,0.1-4.5-1.9-6c0.1-5.1,0.3-10.2,0.4-15.3c0-1,1.3-2.7-0.6-2.8c-7.4-0.2-4.3-5.2-4.2-8.8
	c0.1-5.1,1-9.9,5.4-13.2c0.8,0.5,1.5,1.3,1.7,2.2c0.5,3.4-1.9,5.9-2.8,8.9c-0.3,1-0.7,2.1,0.3,2.8c1.2,0.8,1.7-0.3,2.3-1
	c2.5-3,3.5,0.2,5,1.2c0.7,0.6,1.3,1.2,1.8,2c-1.6,2.9-2.8,6-3.7,9.2c-1.7,5.6-2.5,11.4-2.3,17.3C136.4,159,135.9,160.3,134.9,161.1z
	"/>
<path class="st9" d="M135.1,117.1c-1-0.4-1-1.3-1.2-2.1c5.5-7.5,10-15.7,16.1-22.8c0.2-0.5,0.5-0.6,0.9-0.1l2.1,1l2.2,3.1
	c0.1,2.5-1.9,3.7-3.5,4.3c-6.5,2.3-9.1,8.2-12.9,13.1C137.7,114.9,137.4,117.1,135.1,117.1z"/>
<path class="st9" d="M150.9,92c-0.3,0-0.6,0-0.9,0.1c-1.1-4.1-0.8-8.6-3.5-12.3c-0.7-1,0.3-1.9,0.5-2.8c3.8-1.5,4.7-0.7,5,3.7
	C152.2,84.8,152.6,88.4,150.9,92z"/>
<path class="st14" d="M114,77.4c1.3-0.1,2.7-0.5,3.9-0.1c3.7,1,6-0.7,7.4-3.7c0.9-1.9,2.4-3,3.6-4.4c4.3,1.8,4.4,2.2,1,7.3
	c-1.8,2.5-5.1,3.3-7.9,2C119.6,77.4,116.6,79,114,77.4z"/>
<path class="st12" d="M140,66.1c7.5-2.4,9.9,4,14.2,8.5c-2.1-0.2-3.6-2-5.2-0.7C146.9,70.3,142.4,69.4,140,66.1z"/>
<path class="st11" d="M134.1,243.7c-1.4-3.5,3.2-5.5,2.1-8.9c0.3,0.1,0.8,0.1,0.9,0.4c1.7,5.2,2.6,10.4,0.8,15.8l-0.9-0.1l-1-0.8
	c-2.2-1.1-2.5-3.1-2.1-5.2L134.1,243.7z"/>
<path class="st12" d="M107.6,83.6c2.6,0,3.5,1.7,4.2,3.6c0.5,1,0.7,2.2,0.6,3.3c-0.1,0.7-1.3,0.7-2.2,0.4c-1.3-0.3-2.3-1.5-2.1-2.9
	C108.1,86.5,107.9,85.1,107.6,83.6z"/>
<path class="st14" d="M130,76.4c-1.1-0.4-1.2-1.2-0.3-1.7c3.3-2.4,2.3-4.1-0.7-5.6c0.2-1.2,0.3-2.6,1.9-3
	C131.3,69.5,135.8,73.4,130,76.4z"/>
<path class="st0" d="M121,139c-5-2.8-0.3-4.2,0.8-6.2C121.7,134.9,122.9,137.2,121,139z"/>
<path class="st17" d="M133.9,244.7c1,1.6,0.5,3.9,2.1,5.3c-3.4,0.8-1.5,3.7-2.2,5.5C133.1,251.9,131.9,248.3,133.9,244.7z"/>
<path class="st0" d="M185.9,433c0.5,2.6,1.3,5.1,2.5,7.5c2.5,5.4-0.9,7.3-4.5,9c-5.3,2.6-10.9,4.8-16.2,7.3c-2.2,1-2.9,0-3.7-1.7
	c-2.7-6.2-6.2-12.1-10.3-17.5c-1.7-2.2,0.3-4.4,0.8-6.4c4.4-14.6,7.9-29.4,10.6-44.4c0.1-0.6-0.1-1.4,0.9-1.6c1.5,0.5,1,1.7,1,2.8
	c0.7,5.2,3.7,9.4,6.1,13.9l0,0c2.2,6.2,5.7,11.9,6.7,18.5C181,424.9,181.8,429.8,185.9,433z"/>
<path class="st9" d="M115,462.9c-1.3-3-2.3-5.9,0-10.2c1.2,6.7,5.9,4.6,9,4.5c5.1,0,10-0.4,14.9,1.5c1.4,0.6,2-0.9,3-1.2
	c1.3-0.3,1.6-2.5,4.2-0.7c3.2,2.3,2.2,4.7,2.3,7.2c0.1,2-1.7,2.7-3.5,2.7c-3.1,0-6.4,0.5-9.4-0.3c-3.9-1-8,0.3-11.6-1.6
	C121,464.4,117.8,464.8,115,462.9z"/>
<path class="st9" d="M189,450.9c3.1-0.4,3.5,0.5,2.9,2.5c-1.3,4.1-3.6,6.7-8,7.8c-4.9,1.2-10.2,1.2-14.8,4c-2.4,1.5-2.7-1.1-3.7-2.1
	s-0.4-2.3,0.7-2.8C174.2,457.5,181.6,452.9,189,450.9z"/>
<path class="st9" d="M178.8,421.2c-1.6-5.1-2.6-10.3-5.5-15c-0.7-1.3-0.9-2.9-0.3-4.3c3.2,4.8,6.3,9.5,7.8,15.2
	c-0.2,0.5-0.3,1.1-0.5,1.7C180,419.6,179.8,420.7,178.8,421.2z"/>
<path class="st9" d="M178.8,421.2c0.3-1.1-0.1-2.3,1-3.2c3,1.1,1.8,4.2,3.1,6.2c1,1.5,0.8,3.5,2.1,4.8c0.5,1.3,1.6,2.4,0.9,4
	C179,431.8,180.9,425.3,178.8,421.2z"/>
<path class="st12" d="M173.1,401.9c-3.2-4.2-7.2-7.9-6.1-13.9C169.2,392.5,172.1,396.8,173.1,401.9z"/>
<path class="st12" d="M185,429c-3.1-0.3-2.2-3.3-3.2-5c-1.1-1.8-0.4-4.3-2.1-6l1-1C183.3,420.5,184.7,424.7,185,429z"/>
<path class="st9" d="M153.9,401.9l2.9,1.1l0.3,2c-0.6,2.4-2.6,4.2-2.2,6.9c-3-3-0.9-6.7-1.2-10L153.9,401.9z"/>
<path class="st9" d="M115,462.9c3.1-0.4,6.3,0.3,9,2C120.7,465.9,117,467.9,115,462.9z"/>
<path class="st12" d="M153.8,401.9c0.4,3.3-0.4,6.8,1.2,10c-0.1,1.3,0.6,2.8-1,3.8C152.3,411.1,152.6,406.5,153.8,401.9z"/>
<path class="st9" d="M166.4,370.3c0.4,2.3-0.2,4.3-1.6,6.9C163.3,373.9,165,372.2,166.4,370.3z"/>
<path class="st0" d="M106.1,163.1c2.7-8.9,5.4-17.8,8.1-26.8l0.7,0.1V157c-3.9,8.8-1.5,18.2-1.2,27.1c0.4,10.2-1,20.2-1.7,30.3
	c-0.8,12.4-2,24.8-3.9,37c-1.6,10.4-2,21-4,32.8c-3.1-5-1.5-9.4-2.3-13.4c-0.5-2.1-0.3-4.6-1.1-6.6c-4.6-11.5-5-23.3-3.6-35.6
	C99.5,206.6,100.4,184.6,106.1,163.1z"/>
<path class="st14" d="M94,268c-0.6,1.6-1.2,3.1-1.9,4.6c-3.5,6.4-3.5,6.4-10,3.1c-2.4-1.2-4.4-1.2-6.2,1c-0.3,0.4-0.6,0.8-0.9,1.2
	c-4.6,5-7.3,5.4-12.8,1.7l-3.3-2.2c-2-3.7,1.2-6.9,1-10.4c3-5.5,7-1.2,10.5-1c1.7,0.1,3.1,2.1,5.2,0.8c0.1-2-1.5-2.6-2.7-3.7
	c-7.8-6.5-8.1-13.9-0.9-21c3.2-3.1,6.6-6,10.6-0.8c0.6,0.7,1.6,1.5,2.6,0.7c1.3-1.1,0.1-2.5-0.6-2.9c-4.2-2.5-2.6-5-0.9-8.5
	c2.4-5.2,5.5-10.1,9.1-14.6c2.4,1.3,1.4,3.5,1.4,5.4c-0.1,7.3-1.8,14.4-1.4,21.7s-0.1,14.5,1.5,21.7C94.8,265.8,94.6,267,94,268z"/>
<path class="st9" d="M137.1,272.5c-6.9-0.8-13.4-1.6-19.9-2.2c-2.4,0-4.4-2-4.5-4.4c-0.4-2.9-0.5-5.9-0.3-8.9c0.1-2,0.5-4.4,3.9-3.3
	c2.1,0.7,4.5,0.4,6.7,1c5.8,1.6,11.4,3.4,11.9,11C135,267.9,136.3,270,137.1,272.5z"/>
<path class="st12" d="M94,268c-4.2-12.9-1.5-25.9-1.4-39c0-4.4,1.9-8.8,0.2-13.2c2.8-0.1,2.7-0.1,2.6,2.8
	c-0.4,10.8-2.7,21.5-1.5,32.5c0.8,4.8,0.4,10,4.2,13.9C97,266.3,94.4,265.7,94,268z"/>
<path class="st9" d="M98.1,265c-1.1-0.1-2.6,0.2-2.9-1.2c-1-4.2-2.5-8.3-1.3-12.7C95.3,255.7,96.7,260.3,98.1,265z"/>
<path class="st14" d="M138,262.9c-0.1,0.1-0.3,0.4-0.3,0.4c-2.4-1.8-2.8-10.7-0.6-12.5c-0.1,0.2-0.1,0.5,0,0.7
	c3.1,1.5,2.1,4.5,2.7,7c-0.2,1.2-0.5,2.3-0.9,3.4C138.7,262.3,138.4,262.7,138,262.9z"/>
<path class="st13" d="M59.9,266.8c2,3.7-1.1,6.9-1,10.4c-2.4-0.8-3.8-2-2-4.5C58.2,270.9,57.9,268.2,59.9,266.8z"/>
<path class="st11" d="M137.9,262.1c0.3-1.2-0.7-2.7,1.1-3.4c0.5,0.1,1.2,0.2,1.2,0.6c1,4.9,3.2,9.5,2.5,14.7l-2.8,1.1l0.2-1.4
	C139.6,269.8,137.7,266.2,137.9,262.1z"/>
<path class="st0" d="M137.9,262.1c0.5,3.9,3,7.5,2.2,11.6c-1.2-3.5-4.3-6.6-2.2-10.8C137.6,262.7,137.6,262.4,137.9,262.1z"/>
<path class="st14" d="M101.1,67.1c0.2-1.5,1.8-1.2,2.6-1.9c1.4-1.2,4.1-1.7,3.5-4.2s-2.8-3.9-5.5-4.4c-3.1-0.6-6.2,1.1-9.4-0.2
	c-0.8-0.4-1.6-0.6-1.7-1.5c0.1-0.5,0.3-0.9,0.7-1.1c3-2.3,16.1-2.3,19.8-0.6c2.2,1,0.2,2.2,1,3.4c3.7-2.7,7.3-5.2,9.9-9.2
	c2.1-3.2,4.3-6.4,8.3-7.5c2.5-0.7,5-0.8,7,1.8c-1.7,1.9-4.3,2.7-5.7,5s-2.8,4.2-3.6,7.3c8.1-5,14.8-10.9,23.6-13.1
	c4.2-1.1,5.3-0.3,7.2,6c-7,1-13.9,2.2-20.4,5.5c4.4-0.1,8.9,0.2,13.1-0.5s8.3-2.1,12.8-1.8c2,0.1,3.9,0.3,4.1,2.6
	c0.2,1.8-1,2.8-2.9,3.5c-5.6,1.9-11.3,1.7-17,1.2c-2.5-0.2-2.5-0.2-3.4,2c-0.2,1.7-2,2-3,3c-4.4-1.5-9.1,0.6-13.6-0.4
	c-0.5,3.4-0.6,3.4-3.9,3.2c-2-0.1-1.6,1.4-1.2,2.4c0.9,2.6-0.1,4.5-2.2,5.9c-1.5-1.2-1.2-2.9-1.4-4.5c-0.5-4-2.1-5.1-6.7-4.7
	c-3.8,1.1-6.5,4.2-10,6C101.7,69.5,101.5,68.2,101.1,67.1z"/>
<path class="st13" d="M148.1,62l3.8,2.2c1.4,0.8,2.7-1.1,4.1-0.2c2.8,1.4,4.5,3,1.3,5.9c-1.5,1.3-2.9,1.9-4-0.2
	c-1.6-3.1-4.7-4.6-7.2-6.6C146.1,61.2,147.1,61.5,148.1,62z"/>
<path class="st14" d="M101.9,71.1c-1.4,1.8-2.9,3.5-4.5,5.1c-1.7,1.5-3.9,2.8-5.1-0.8c-0.2-1.3,0.6-2.2,1.5-3.1
	C96.3,71,98.6,67.9,101.9,71.1z"/>
<path class="st11" d="M101.9,71.1c-4.1-1.3-6.5,1.8-9.2,3.8c-0.3-0.6-0.5-1.3-0.4-2c-0.1-1.6,2.9-1.7,1.8-3.8c2-1.9,5-0.2,7-2
	c3-0.6,0.8,2.3,2,2.9L101.9,71.1z"/>
<path class="st9" d="M113,64c5.6-2.1,7.8-0.8,8.2,4.8c0.1,1.5,0,3-0.1,4.5l0.1-0.1c-0.9,0.4-1.4-0.2-1.8-0.8c-0.1-0.6,0,0.1-0.2-0.4
	c-0.8-1.7,1-5.1-3-4.8C116.7,64.5,115.5,63.5,113,64z"/>
<path class="st14" d="M116.2,67.1c5-1.2,3.7,2.4,3.7,5c-1.1-0.8-2.1-2-2.8,0.4c-0.2,0.6-1.3,1-2.2,0.5C114.8,71,114,68.8,116.2,67.1
	z"/>
<path class="st11" d="M94,69.1l2.2,0.5l-3,2.5c-1.3,1.3-2,3.4-4.2,3.8c-2.4-2-1.1-3.7,0.9-4.5C91.4,70.9,92.8,70.1,94,69.1z"/>
<path class="st9" d="M115,73.1c0.7-0.4,1.7-0.7,2-1.4c1.6-3.7,2.1-0.3,3,0.4l1.2,1C119,76.1,117,74.2,115,73.1z"/>
<path class="st14" d="M148.1,62l-2,1c-1.5,0.2-2.9,0.3-4.2-0.8c0.2-1.8,2-2,3-3C146.3,59.7,147.5,60.7,148.1,62z"/>
<path class="st11" d="M89.1,75.9c1.3-1.4,1.4-4,4.2-3.8c-0.2,0.9-0.4,1.9-0.6,2.8c-0.2,0.1-0.3,0.3-0.4,0.5
	C91.4,77,90.3,76.5,89.1,75.9z"/>
<path class="st12" d="M100,63.9c-1,0.5-2,1-3.1,1.3s-2.5,0.6-2.7-0.9s1.6-1.1,2.6-1.4C97.9,62.9,99.5,61.6,100,63.9z"/>
<path class="st14" d="M156,63.9c-1.3,0.3-2.6,2.4-4.1,0.2c0.3-1.8,0.9-3.1,3.1-2l0,0L156,63.9z"/>
<path class="st12" d="M100,63.9c-0.8-1.2-2.2-0.4-3.2-1l7.4-1.6C103.5,63.7,101.6,63.6,100,63.9z"/>
<path class="st0" d="M142.8,274c-2.2-4.9-2.2-10.3-3.8-15.3c-1.2-2.3-0.4-5.1-2-7.3c0.6-5.6,0.3-11.2-0.9-16.7
	c-2-8.7-2.4-17.7-1.3-26.5c-1.1-9.5,1.2-18.9,0.7-28.4c-0.5-9.1,1.1-18.2,1-27.3c-0.1-6,2-11.3,5.3-16.3c0.9-1.2,2.2-2.1,3.6-2.6
	c-1,0.3-2,0.8-2.7,1.6c-1.3,1.4-2.7,2.8-3.2,4.7c-0.2,0.9-0.7,1.5-1.6,0.6c-0.5-0.5-0.2-1.2,0.1-1.8c0.9-2.8,1.2-6,4.1-7.8
	c4.3-7.2,11.5-9.4,19.1-10.9c7.8-6.5,16.1-4.5,24.5-1.6c0.8,0.3,1.6,0.4,2.4,0.6c2.4,0.8,3.2,1.9,0.6,3.6c-1.5,0.5-2.9,0.1-4.4,0
	c-18.5-1.5-26.8,8.9-25.5,26.3c0.7,9.9,4.3,19.1,7.7,28.3c4.8,13,7.5,26.6,12.5,39.4c3.5,8.9,6.1,18,9,27c0.8,1.8,1.8,3.5,2.8,5.1
	c1.6,3,2.9,5.9,0.1,8.9c-0.5,0.6-0.4,1.5,0.2,2c0,0,0.1,0.1,0.1,0.1c3.7,2.3,5,5.6,5,10c0,7,2.3,12.9,10,15.3
	c2.7,0.8,0.8,3.7,0.9,5.5s-2,0.9-3.2,0.8c-5.7-0.8-10.8-3.9-16.8-3.8c-11.3,0.2-22.2-2.8-33.2-4.8C148,281.9,144.3,279.7,142.8,274z
	"/>
<path class="st0" d="M213.8,174.1c-0.3,2.2,0.5,4.4,2.1,6c1.6,5.4,2.8,10.9,6.4,15.5c2.4,3,0.7,6.5,0.5,9.6
	c-0.7,11.5-1.6,23.1-2.7,34.6c-0.3,3.2,0.6,7.1-3.4,9c-1,2.7-3.7,2.5-5.8,3.2c-0.8,0.1-1.8-0.3-1.9,0.9c-0.1,0.8,0.4,1.6,1.2,1.7
	c0.1,0,0.1,0,0.2,0c2,0.2,4.1,0.6,5.9,0.2c5.5-1.3,5.9,3.1,5.9,6c0,3.1-2.1,5.9-6.2,5.3c-1.3-0.2-2.7-0.1-4,0.2
	c-0.6,0.2-1,0.7-1.2,1.3c-0.2,0.5,0,1.1,0.5,1.3c0.2,0.1,0.5,0.1,0.7,0c3.2-0.2,2.9,1.7,2.4,3.9c-0.1,0.5-0.2,1-0.1,1.5
	c0.2,3.4,0.7,7.4-2.2,9.4c-2.5,1.8-10.7-3.8-12-7.7c-2-6.1-1.3-12.8-4.5-18.6c2-1.2,4.2,0,6.4-0.6c-7.7-2.9-9.9-10.4-14.1-16.2
	c-5.5-14-11.2-28.1-14.8-42.8c-2.5-10-6.7-19.5-9.8-29.2c-2.7-8.6-5.2-17.1-4.5-26.3c1.1-15.4,18.9-24.8,32.3-16.9
	c1.5,1.7,1.2,3.9,1.3,6c-0.4,0.4,0.4,0.2,0.4,0c0-1.8,1.2-1.9,2.6-1.6c4.3,3.4,4.7,8.9,6.8,13.4c1.3,2.8,2,5.9,3.8,8.5
	C210.1,158.4,212.8,166.1,213.8,174.1z"/>
<path class="st9" d="M200,296.9c-3.3-0.1-6.6,0.5-9.6,1.9c-5.6,2.7-11.2,0.5-16.4-1.5c-5.4-2.1-10.9-2.6-16.5-3.2
	c-4.2-0.5-8-2-11.9-3.5c-4.5-1.7-2.5-5.9-3.5-9.4c12.8,4.8,26.3,7.7,39.9,8.8c5.9,1.2,11.9,2,17.7,3.6c1.1,0.3,2.5,0.6,2.3,2.1
	C201.8,296.6,200.6,296.4,200,296.9z"/>
<path class="st18" d="M189.1,240.8c4.8,4.8,6.1,13,14.2,14.7c0.9,0.2,1.9,0.9,1.5,2.1c-0.4,1-1.5,1.5-2.5,1.2
	c-2.2-0.4-4.5-1-6.7-1.5c-0.9,2-3.4,0.9-4.5,2.5c-0.6-0.7-1.2-1.4-1.7-2.1c5.7-5.4-1.3-8.5-2.2-12.7
	C187.4,243.4,187.3,241.6,189.1,240.8z"/>
<path class="st9" d="M200,296.9c3.1-3-0.6-2.6-1.6-2.7c-5-0.7-10-1.4-14.8-3.2c-0.6-0.3-1.1-0.6-1.6-0.9c8.5-1.6,15.9,3.2,23.9,4
	c2.8,2.6,2.8,2.9,0.8,4.1L200,296.9z"/>
<path class="st12" d="M211,252.1c0.8-3.1,4.1-1.8,5.8-3.2c0,1.2,1.9,2.7,0.6,3.5C215.4,253.5,212.9,253.4,211,252.1z"/>
<path class="st14" d="M206.7,298.2c1.9-1.8-1.5-2.5-0.8-4.1c0.9,0,1.9,0.2,2.8,0.5c1.8,0.9,2.7,2.9,1.7,4.4S207.9,299,206.7,298.2z"
	/>
<path class="st9" d="M190.3,494.1c0.7,0,1.3-0.2,2-0.3c7.3-2.8,8.8-2.3,12.5,4.8c2.5,5,4.5,10.1,6,15.5l-5.8,4.1
	c-2-2.8-2.6,1.3-4.1,0.8c-10.1,4.2-21.1,5.9-32,5c-0.8-0.7-0.8-1.9-0.1-2.7c0,0,0.1-0.1,0.1-0.1c5.9-4.7,13.7-6.6,18.6-12.6
	c1-1.3,5.7-2.9,0.7-6C187,501.7,187.8,496.6,190.3,494.1z"/>
<path class="st11" d="M150.9,524.7l2.2,0.2l-0.1,2c0.6,1.2-0.4,1.5-1.2,1.9c-8.9,0.9-17.7-0.8-26.5-0.3c-10.2,0.5-20.5-0.9-30.6,0.8
	c-0.9,0.2-1.8,0.1-2.7-0.3l2-1.9c8.5-3.7,17.3-1,25.9-1.1C130.3,523.9,140.6,525,150.9,524.7z"/>
<path class="st13" d="M206.1,523c-6.5,4-13.8,3.6-21.1,3.2c6.7-1.6,13.7-2,20-5C205.7,521.5,206.1,522.2,206.1,523z"/>
<path class="st13" d="M169,521v2.8c-3.5,0.7-6.5-0.9-10.3-2C162.5,519.5,165.7,519.2,169,521z"/>
<path class="st12" d="M201,518.9c1.7-1.9,2.5-4.8,5.3-5.8c1.2,2.3-2.3,3-1.2,5C204.1,520.5,202.5,519.8,201,518.9z"/>
<path class="st0" d="M164.8,527c-0.9,1.6-2.5,0.6-3.7,1.1c-1.8-0.3-4.9,2.5-4.9-2.1C159.2,524.2,161.8,527.4,164.8,527z"/>
<path class="st14" d="M156.1,526c0.3,4,3.5,1,4.9,2.1c-3,1.6-6.1,0.5-9.2,0.7l1.2-1.9L156.1,526z"/>
<path class="st12" d="M206.1,523c-0.7-0.3-1.1-1-1.1-1.8c0.1-0.1,0.3-0.2,0.4-0.3l3.2-1.8c0.2,0.6,0.7,1.2,0.6,1.8
	C209.1,522.9,207.3,522.5,206.1,523z"/>
<path class="st0" d="M135.1,117.1c3.2-4.6,6.1-9.5,9.6-13.9c2.7-3.3,7.8-3.4,10.4-7.1c5.7-1.2,10.8-1.1,14,4.9
	c1.5,0.8,3.3,0.3,4.9,1c2.6,3.6,6.5,5,10.5,6.1c2.9,0.8,5.6,1.9,7.6,4.5c-2,1.2-3.1,0.1-4.2-1c-0.8-0.8-1.8-1.2-2.7-0.5
	c-1.6,1.3,1.2,1.1,0.8,2c-0.5,1.1-0.3,3.1-2.6,2.3c-0.8-0.2-1.8,0-2.5-0.3c-8.4-4.6-15.3-1-21.9,4c-0.3,0.8-1,1.4-1.8,1.7
	c-5.1,1.4-9.3,4.1-13.3,7.4c-1.1,1-2.5,1.7-4,1.7c-1.6-0.1-1.4-2.2-3.3-2.6c0.3,2.9-1.1,4.6-3.9,3.7c-3.1-1-1.7-3.5-1.2-5.4
	C132.3,122.6,134.9,120.3,135.1,117.1z"/>
<path class="st4" d="M189.1,240.8c-0.4,1.5-0.7,3.1-2,4.2c-2-5.8-3.7-11.6-5.9-17.3c-6.6-16.8-10.5-34.5-16.6-51.5
	c-3.8-10.5-8-21.1-7.4-32.6c0.4-7.6,2.4-14.8,9.3-18.8c5.4-3.2,11.8-4.4,18-3.3c1.5,0.2,2.9,0.9,4.4,0.4c7.3-0.2,10.9,5.2,14.8,10
	c1.7,2.1,2.5,5,4,7.4c2.1,8.6,3.8,17.3,7.2,25.6c1.2,2.6,1.6,5.4,1.1,8.2c0,1.9-1.1,1.3-2.1,1c-3-7.3-5-15.1-8.9-22
	c-0.5-0.9,0-1.8-0.2-2.7c-1.1-6.3-1.9-12.7-6.9-17.4c-0.8-1.1-1.8-1.9-3.1-2.5c-1.9-0.5-2.5-2.4-3.8-3.5c-13.5-6.1-26.2,0.1-30.5,12
	c-1.7,4.6-1.1,9.5-0.2,14.2c2.1,11.5,6.1,22.4,10.3,33.1c1.9,5.1,3.4,10.4,4.7,15.7C178.8,214.7,184.4,227.6,189.1,240.8z"/>
<path class="st0" d="M215.9,173.1c-2.8-9.3-5.7-18.6-8.4-27.9c-0.4-1.9-0.7-3.9-0.8-5.9c-0.3-1.1,0.2-1.4,1.2-1.3
	c5.8,9.7,7.4,20.5,9.4,31.3C217.7,170.7,217.7,172.4,215.9,173.1z"/>
<path class="st12" d="M208,138l-1.2,1.3c-3.3-8.5-9.6-14-17.8-17.4c0.8-1.3-0.3-2-1-2.7c8.3-0.4,11.7,6.5,16.2,11.5
	C205.9,132.6,206.7,135.5,208,138z"/>
<path class="st13" d="M139.9,129.9c5.8-4.5,11.5-9.4,19.1-10.8l2.1,1c-6.4,3.5-14,5.1-19.1,10.9C141.1,131,140.3,130.8,139.9,129.9z
	"/>
<path class="st19" d="M174,102c-1.9,1.3-3.8,1.9-4.9-1c1.5-0.9,0-2,0.3-3.2C172.2,97.7,172.9,100.1,174,102z"/>
<path class="st14" d="M151.2,520.9c-0.6,1.6-2.1,0.7-3.1,1.2c-4.1,0.9-8.2-0.2-12.3,0.6c-12.5,0.4-25.1-2.4-37.6,0.4
	c-1.3,0.3-2.6,0.5-3.8,0.8c3-4.8,8.4-4.3,12.8-6c2.3-1.1,4.9-1.6,7.5-1.7c3.4,0.1,4.6-3.2,6.6-5.2c3.2-2.9,3.2-7.6,6.3-10.5
	c0.8-0.8,1.4-2,2.3-2.5c3.2-1.8,16.4,4.1,17.5,7.7C148.7,510.7,148.4,516.2,151.2,520.9z"/>
<path class="st12" d="M121.1,511c-1.4,4.5-3.2,8.3-9.2,6.2c-1.4-0.5-3.2,0.4-4.8,0.7C111.4,514.9,116.8,514.2,121.1,511z"/>
<path class="st12" d="M120,525.9c-1.2,1.3-2.7,1-4.2,0.9c-7.2-0.3-14.5-1.1-21.7,0.2c2.8-3.3,5.9-4.1,10.4-2.8
	c3.5,1,7.4-0.6,11.2-0.1C117.3,524.4,118.9,524.4,120,525.9z"/>
<path class="st14" d="M135.7,522.7c4.1-0.8,8.2-1,12.3-0.6C144,523.3,139.8,523.2,135.7,522.7z"/>
<path class="st12" d="M143,135c-4.5,7.3-4.8,15.4-5.2,23.7c-0.8,16.5-0.7,33.1-2.9,49.5c-0.6-10.2-3-20.4-0.3-30.7
	c0.5-2-1-4.1-0.6-6.3c0.5-3.4,0.6-6.8,0.9-10.1c0.2-7.5-0.4-15.1,3-22.2c0.4,0,0.1,2.3,1.1,0.5S140.2,135.1,143,135L143,135z"/>
<path class="st14" d="M85.3,232.9c3,2.2,3,2.2,2.7,7.4C86.6,237.5,87.1,234.8,85.3,232.9z"/>
<path class="st20" d="M145,159c1.7,10.7,4.6,21.3,8.7,31.4c0.5,1.1,0.9,2.5-0.3,3.1c-1.7,0.8-1.7-0.9-2.1-1.9
	c-4.1-10.1-6.9-20.6-8.4-31.4c-0.2-0.3-0.3-0.6-0.3-0.9c0.1-1.1-0.6-2.8,0.7-3.1C145.3,155.8,143.8,158.4,145,159z"/>
<path class="st12" d="M145,159l-1.7-2.1c-0.2,1.2-0.3,2.3-0.4,3.3c-0.8-4.2-2.3-8.5-0.5-13.7C144.7,151,145,155,145,159z"/>
<path class="st9" d="M143,135.1c0.6-2.9,3.3-2.3,5.1-3.1C147.3,134,145.2,135.2,143,135.1L143,135.1z"/>
<path class="st9" d="M194.9,129.1c1.5-0.6,2.3,0.2,3.1,1.4c4.3,5.8,5.6,12.8,7.9,19.5l-1,2.1c-3.3-3.6-3.8-8.4-5.5-12.6
	c-1.1-3.3-2.7-6.4-4.6-9.2c-0.3-0.3-0.3-0.5-0.2-0.7S194.8,129.1,194.9,129.1z"/>
<path class="st9" d="M194.9,129.1l-0.1,1c-3.6-0.1,0.7,3.9-2.5,4.1c-1.1-2.6-1.5-5.5-1.3-8.3C193.2,125.9,193.6,128.2,194.9,129.1z"
	/>
<path class="st13" d="M205.9,150c-3.6-6.1-4.9-13.1-7.9-19.5C204,135.6,204.9,142.8,205.9,150z"/>
</svg>
