<?xml version="1.0" encoding="utf-8"?>
<!-- Generator: Adobe Illustrator 24.0.1, SVG Export Plug-In . SVG Version: 6.00 Build 0)  -->
<svg version="1.1" id="Layer_1" xmlns="http://www.w3.org/2000/svg" xmlns:xlink="http://www.w3.org/1999/xlink" x="0px" y="0px"
	 viewBox="0 0 281 575" style="enable-background:new 0 0 281 575;" xml:space="preserve">
<style type="text/css">
	.st0{fill:#0F0F0D;}
	.st1{fill:#131210;}
	.st2{fill:#151412;}
	.st3{fill:#1D1D1C;}
	.st4{fill:#171513;}
	.st5{fill:#131311;}
	.st6{fill:#110F0E;}
	.st7{fill:#1F1D1A;}
	.st8{fill:#3A3A3A;}
	.st9{fill:#F2BBBB;}
	.st10{fill:#1D1C19;}
	.st11{fill:#1A1916;}
	.st12{fill:#1C1B1B;}
	.st13{fill:#E591AB;}
	.st14{fill:#20201C;}
	.st15{fill:#1C1C1A;}
	.st16{fill:#1D1C1B;}
	.st17{fill:#121210;}
	.st18{fill:#FFDCDC;}
	.st19{fill:#040403;}
	.st20{fill:#FEFEFE;}
	.st21{fill:#1D1D1B;}
	.st22{fill:#FFEBF4;}
	.st23{fill:#1D1B1B;}
	.st24{fill:#1A1918;}
	.st25{fill:#1A1917;}
	.st26{fill:#22211F;}
</style>
<title>frame4</title>
<path class="st0" d="M93,264.9c-2.8,0.9-5.4,2.3-7.7,4.1c-3.1,2.5-6.2,0-8.8-1.9s-2.8-8.5-1-11.1c3.3-4.9,5.5-10,3.4-16
	c-0.8-2.2-1-4.6,1.9-5.7c0.5-0.2,1.2-0.5,1.2-0.6c-1-10.2,8.3-16.6,9.3-25.9c0.4-3.8-1-7.6-0.2-11.5c2.1,0.2,1.7,2,2.2,3.3
	c2.3-1.1,2.4-3.6,3.4-5.4c1.5-2.8,3.3-5.3,6.3-6.7c3.5-1.5,5.7-3.8,6.3-7.7c0.5-3.2,2.8-5.6,4-8.5c2.5-3.1,4-6.8,6-10.2
	c1.9-3.2,4-6.4,4.8-10.1c1.4-5.9,3.5-11.6,6.2-17c6.1-7.4,12.8-13.5,23.4-12.8c5.3,0.3,9.5,2.6,11.6,7.3c2.9,6.5,7.2,12.4,7.8,19.8
	c0.5,3.9,0.6,7.9,0.2,11.9c-0.1,2.4-0.2,5-2.9,6.4c-3.1-2.2-1.1-5.7-2.3-8.4c-0.2-7.8-1.8-15.5-4.8-22.7c-5.5-13.2-16.7-10.4-24-3.4
	c-3.5,3.4-6.1,7.6-7.6,12.2c-3.7,11.7-9.7,22.2-16.2,32.5c-1,1.6-1.6,3.3-2.8,5.5c1.7-2.1,1.2-5.2,4.4-4.9c1.5,2.7-0.1,4.9-1.1,7.1
	c-1.8,3.1-5,4.8-7,7.7c-0.4,0.5-1,1.2-1.6,1.1c-5.3-1.3-6.2,3.2-8,6.2c-5.2,8.8-8,18.5-12.1,27.8c-1.3,2.5-1.1,5.6,0.6,7.9
	c1.4,1.9,1,4-2.3,3.5c-1.1-0.2-2.4-0.7-2.9,0.9c-0.3,1.3,0,2.7,1,3.7c2.2,2.7,5.6,3.5,8.4,5.1c1.8,1.5,4,1.5,6.2,1.4
	c4.3,0.2,8.9,1.1,11-4.2c1.8-1.9,5.3-3.3,2.1-6.7c0.1-2,1.4-2.3,3-2.3c3.6,1.6,5.5,0.4,6.3-3.3c0.3-1.1,0.7-2.2,1.2-3.2
	c1.6-3.5,4.4-5.7,7.8-7.3c1.1-0.5,2.3-0.8,3.5-1.2c6-0.2,10.1-3.8,14-7.8c7.8-7.8,13.6-17.3,17-27.8c0.6-1.8,0.5-4.8,3.9-3.7
	c1.9,4.3-0.3,8.2-1.8,11.9c-5.1,12.2-13.4,21.8-23.8,29.8c-1.5,1.1-3.3,1.7-5.1,1.7c-3.2,0.2-6.2,1.3-8.7,3.2
	c-3.8,3.3-4.4,7.4-2.9,12c0.5,1.5,1.3,3,1.3,4.7c-0.1,1.2-0.2,2.5-1.6,3c-2.3-0.7-2-3-3-4.8c0.1,1.8-0.4,3.7-2.2,3.1
	c-6.5-1.9-7.9,4-9.8,7.2c-2.4,4.3-2.2,9.6,0.7,13.6c-0.8,1.7-2.4,1.6-3.9,1.7c-1.8-0.2-3.5-0.6-5.2-1.2c-0.4-0.3-0.8-0.6-1.2-0.9
	c-1.6-1.8-5.2,0.3-6-3c-0.2-1.6,0.3-3.3,1.5-4.4c1.4-1.3,2.6-2.8,3.6-4.5c-1.4,1.6-2.2,3.4-4.1,4.2c-0.7,0-1.3-0.4-1.5-1.1
	c-0.5-1.4,1.5-3.5-1.1-4.4c-1.2-0.5-2.4-1.1-3.5-1.8c-5.5-3.1-7.2-2.6-10.1,2.9c-2.1,4.1-1.5,5.5,2.8,6.9c2.4,0.7,4.9,0.8,7.3,0.4
	C91.4,262.6,93,262.8,93,264.9z"/>
<path class="st1" d="M104.7,96.2c-2.8-5.3-3.5-11.3-4.8-17c-0.7-0.9-2.2-1.6-0.8-3c3.9-4,7.7-8.2,10.1-13.7c-5.2-2.2-9.6,1-14.1,2.1
	c-3.1,0.7-6.9,2.3-8.7-0.4c-2.3-3.6,2.4-5.1,4.3-7.3c0.9-1.1,2.3-1.7,4-3c-1.6-0.6-3.4-0.6-5,0c-1.3,0.4-2.8-0.1-3.4-1.3
	c-1-1.7,0.3-2.8,1.4-3.8c2.5-2.2,6-1.4,8.7-3.1c-3.7-5.9-2.6-8.8,4.6-10.4c3.9-0.8,8-0.1,11.3,2c3,1.8,10.8,1.5,13.3-0.9
	c6.3-6.2,13.8-10.9,21.4-15.2c6.3-3.6,15.3-0.2,17.7,6.5c0.2,0.6-0.4,1.5-0.7,2.3c-0.5,0.6-1.2,1-2,1.1c-2.3,0.1-4.5,1.2-6.8,0.7
	c-0.7-0.2-1.3-0.8-1.4-1.6c0.4-2.3,3.2-2.2,4.3-4.1c-2.9-3.8-6.7-3.6-10.1-1.5c-6.8,4.2-14.2,8-19.3,14.5c-3.4,4.3-8.1,2.9-12.3,3.6
	c-1.4-0.3-2.8-0.5-4.1-0.8c-1.9-0.8-3.3-2.4-5.3-3c-0.9-0.4-1.8-0.5-2.7-0.3c1.4,2.5,4.2,3.4,5.7,5.6c1,2.2,2.5,4.4,1.4,7.1
	c-2.5,1.7-5.7,1.7-8.4,2.7c-3.8,0.5-6.8,2.8-9.7,5.1c-0.6,0.5-1.8,1.1-0.7,2.2c6.9-2.2,14.4-2,20.8-6.4c3.3-2.2,7.1-1.2,10,1.6
	c1.1,1,2.1,2.2,3.2,3.1c0.8,0.7,1.7,1.9,2.8,0.4s1.1-2.8-0.8-3.6c-1.5-0.7-4.4-1-3.3-3.3c1.2-2.6,4.4-2.7,7-3.2c1.8-0.4,3,0,3.8,2.1
	c1.9,4.6,6.7,6.1,10.2,9c0.5,0.4,1.2-0.3,1.4-1c0.9-1.2-0.7-4.5,2.8-3.4c0.6,1,1,2.1,1.2,3.2c0.6,2.2,0.3,4.3-1.5,5.9
	c-2.1,1.8-4.3,1.1-6.5,0.2s-3.5-3.1-5.2-4.6c-1.9-1.7-3.1-1.6-4.7,0.8c-5.5,8.2-6.5,8.2-13.1,0.3c-3.8-4.5-5.3-4.2-7.7,1.1
	c-1.4,3.2-2.8,6.5-5.3,9c-3.5,3.5-4,7.4-2.8,11.9c0.7,2.9,1.9,5.7,2.2,8.7C106.8,94.6,107.3,96.5,104.7,96.2z"/>
<path class="st2" d="M192.8,452.9c1.7-1.3,0.7-2.4-0.2-3.7c-12-17.5-22.6-35.9-36.2-52.2c-1.2-1.4-1.9-3.2-1.9-5
	c0.5-9.7-4.8-17.9-6.7-26.9c-0.9-5-2.6-9.7-5.1-14.1c-2.5,5.7-3.2,11.5-4.9,17c-1.5,0.1-1.6-1.1-1.9-2.1c-0.3-2.6,0.1-5.2,1.1-7.6
	c0.6-1.6,1.2-3.2,1.7-4.9c1.5-3,1.3-6.6-0.6-9.4c-4.2-6.8-5-15-8.3-22.2c-0.4-1.6-1.1-3.1-2-4.5c-1.4-3.9-3.2-7.7-3.5-12
	c1.4-2.8,2.7-1,4,0.1c0.7,1,1.3,2.1,1.7,3.2c0.3,0.9,0.7,1.8,1.1,2.7c3,7.7,6.1,15.3,8.3,23.2c0.7,2.7,1.9,5.3,3.5,7.6
	c0.8,1.5,1.3,3.2,2,4.7c5.1,10.7,7,22.5,10.9,33.7c1.5,4.4,4.8,8.5,3.4,13.7c-0.2,0.9,0.7,1.8,1.3,2.6
	c12.6,14.5,21.8,31.4,32.6,47.1c2.3,3.4,4.2,4.9,8.4,2.8c2.8-1.4,5.9-3.4,9.4-2.4c0.7,0.3,1.2,1,1.4,1.7c0,0.7-0.5,1.3-1.1,1.6
	c-5.8,1.8-10.8,5.7-16.8,6.9C193.6,454.3,193,453.7,192.8,452.9z"/>
<path class="st3" d="M150.1,57.3c-2.6,0.7-0.3,2.8-1.2,4c-3-2.4-3.6-6.1-4.3-9.4c-0.7-3.1,1.7-3.4,4.2-2.4c0.6,0.3,1.2,0.7,1.7,1.2
	c0.3,0.3,0.6,0.6,0.9,1c2.4,1.8,5.5,0.8,8.1,2.1c1.6,0.8,3.6,0.8,4.6,2.6c-0.1,1.6-1.5,1.6-2.5,2.1c-0.4,0.1-0.9,0.2-1.4,0.3
	c-0.8,0-1.5-0.3-2.3-0.2c0.7,0.4,1.4,0.6,2.1,1c1.8,1.4,3.1,3.3,3.7,5.5c2,3.1,0.7,6.6,1.1,9.9c1.7,1.2,1.1,3.5,2.2,5
	c1.2,2.1,0.3,3.9-0.8,5.6c-4.6,7.9-9.7,15.6-15.2,22.9c-0.9,1.2-2,2.3-3.7,2.2c-1.9-0.4-1.8-2.5-2.9-3.6c0.4-2.3,2.6-3.2,3.8-4.9
	c-1.5,0.4-2.8,1.6-4.6,1.3c-0.9-0.3-1.5-1.3-1.2-2.2c3.6-4.5,9.6-6.4,12.6-11.5c0.8-1.3,2.8-2.2,1.4-4.2c-0.9-0.7-1.6-1.5-2.2-2.5
	c-0.2-0.4-0.3-0.9-0.4-1.3c-1.7-6.8,0.8-13.4,1-20C153.9,59.7,152.2,58.1,150.1,57.3z"/>
<path class="st4" d="M238.8,496.9c3.8,3.1,2.9,5.3-0.9,7.8c-7.7,5.1-13.7,12-19.2,19.3c-4.8,6.3-10.2,8.4-17.7,6.2
	c-2.3-0.6-4.6-0.6-6.9-0.1c-2.7,0.5-4.4,0.4-5.1-2.6s1-6,3-6.1c13.2-0.6,15-11.2,18.8-20.2c-0.6-1.2-0.9-2.4,0.3-3.4
	c4.2,0.4,2.8,3.3,2.2,5.5c-1.4,4.3-3.2,8.4-5.4,12.3c-0.9,1.7-2,3.4-2.2,5.9c3.8-0.5,6.3-2.8,8.4-5.1c5.2-6,11.6-10.9,15.9-17.7
	c0.8-1.3,1.8-2.4,3-3.2C235.7,493.7,237.3,495.2,238.8,496.9z"/>
<path class="st5" d="M187,326c-0.3,14.2,1.9,28.3,4.6,42.1c1.5,7.6,6.6,14.7,10.7,21.6c5.1,8.7,10.5,17.1,12.7,27.1
	c0.2,0.4,0.4,0.9-0.2,1.1c-1.4,0.5-1.7-0.9-2.4-1.5c-1.4-3.5-2.5-7-4.2-11c1.4,3.7,2.7,6.9,3.7,10.2c0.3,1.6,3.1,3.2-0.1,4.8
	c-4.6-2.7-5.1-7.8-7-12.1c-3.9-11.7-8.3-23.1-14.6-33.8c-0.6-0.8-1.2-1.7-1.5-2.7c-1.4-3-0.8-6.4-1.9-9.5c-1.9-12.6-4.1-25.1-3.3-38
	c0.1-2.1-0.2-4.3,1.2-6.2c2-0.8,1.6,0.8,1.8,1.8C186.7,321.9,185.9,324.1,187,326z"/>
<path class="st6" d="M166,80.1c-1.8-1.4-0.4-3.5-1.2-5c9.2-3.6,17.3,0.5,18.7,10c0.8,4.9,2.8,9,4.7,13.4c3.6,8.5,6.9,17.1,9.8,25.9
	c1.9,5.8-0.1,8-6.2,7.8c-2-0.1-4-0.1-5.9-0.1c-1.1-0.2-2.1-0.5-3.1-0.8c-1.2-0.9-2.2-2-3-3.2c-3.3-4.6-7.8-6.1-13.2-5.6
	c-3.7-1.1-7.7-1.2-10.7-3.9c-0.3-0.8,0.2-1.7,1-2c0.7-0.3,1.5-0.5,2.3-0.4c3.8,0.6,7.5,1.3,11.3,1.8c5.2,0.7,9.6,2.5,12.7,6.9
	c1.1,1.9,3.1,3.1,5.3,3.2c2,0.1,4,2,5.8-0.3c0.4-1.6,0.3-3.4-0.4-4.9c-3.7-9.1-6.6-18.5-11.1-27.2c-1.6-3-1.8-6.4-2.6-9.6
	C177.9,77.2,173.7,75.5,166,80.1z"/>
<path class="st7" d="M64.7,514.1c-4.8,0.9-8.7-1-12.3-3.7c-0.4-0.3-1.7-0.7-0.9-1.2c3.9-2.7-1.2-2.9-1.3-5.2
	c4.8,0.4,9.6,0.8,14.2-1.2c5.6-2.4,11.4-4.5,17-7c2.4-1,3.6-3.4,4.4-5.8c3.3-9.7,4.1-10.3,14.2-8.4c9.7,1.8,9.7,1.8,8,12.3
	c-0.9,1.2,0.1,2.8-1,4c-1.5,1.8-2.3,1-2.9-0.7c-0.4-2.2,0.6-4.2,1.1-6.3c0.3-1.3,0.6-2.6-0.3-3.8c-2.5-3.4-11.8-3-14.1,0.5
	c-0.8,1.5-1.5,3-2.1,4.5c-3,6.3-8.2,9.9-14.9,11.2c-2,0.4-4,1.2-5.7,2.2c1.5,0.8,3.3,0.8,4.2,2.4c0.1,1.2-0.8,1.6-1.7,2
	c-4.3,1-8.3-1.1-13-1.5c1.2,2.3,2.9,2.1,4.4,2.3c2.6,0.5,5.4,0.2,7.3,2.6C68.1,515.3,66.3,514.2,64.7,514.1z"/>
<path class="st5" d="M184,130.9c1.5-1.3,1.8-0.2,1.9,1c5.9,9.6,8.4,20.2,9,31.3c0.5,8.4,0.5,16.9,2.8,25.1c2.2,7.9-0.5,15.8,0,23.7
	c0,2.6-0.1,5.3-0.4,7.9c-0.4,0.4-1,0.5-1.6,0.3c-1.7-1.1-1.9-2.7-1.6-4.5c0.9-4.6,0-9.4,0.7-14c1.3-6.9-0.7-13.5-1.9-20.1
	c-0.8-3.5,0.1-7.1-1-10.5c-0.6-8.6-0.7-17.3-4.1-25.4c-0.7-2.5-1.5-5-2.4-7.5c-0.2-0.4-0.4-0.9-0.5-1.3c-0.8-1.6-1.2-3.5-1.1-5.3
	C184,131.3,184,131.1,184,130.9z"/>
<path class="st8" d="M86.9,417c-1.5-5.7,0.6-11.8-0.8-17.2c-2.8-11.2,0.9-21.8,2.1-32.6c0.8-1.8,0-3.8,0.3-5.6
	c1.7-2.7,3.2-3.2,4.6,0.2c0.4,1.5,0.4,3,0,4.4c-3.1,9.8-3,19.8-3.1,30c0,4.6,2,8.7,1.7,13.1c-1.1,1.9-1.8,3.9-2.2,6
	C89.3,416.9,88.7,418,86.9,417z"/>
<path class="st9" d="M123.8,421.9l-2.7,10c-0.8,2.8-1.6,5.3,0.9,8.2c2.1,2.5-2.5,10.5-6.5,10.5c-9.5,0-19.1,1.6-28.6,0.4
	c-4.5-0.6-5-2.4-2.8-7.1c0.3-0.3,0.9-0.3,1.2,0c0,0,0.1,0.1,0.1,0.1c1.3,3.5,3.7,4.7,7.3,3.9c2.4-0.6,4.9-0.3,7.3-0.4
	c3.3,0,6.7,0,10,0c1.5,0.1,3-0.2,4.4-0.7c1.8-0.9,4.3-2,3.6-4.1s-3.2-0.7-4.8-0.4c-4.4,0.8-8.8,1.9-13.2-0.2c-0.6-1.3,0.1-2,1-2.8
	c2-1,4.3-0.8,6.4-0.8c1.5,0.1,3,0,4.4-0.5c3.4-0.3,5.2-2.1,5.7-5.5c0.2-1.6,0.5-3.2,1.2-4.7c0.9-1.9,1.5-3.8,2.2-5.8
	c0.2-0.4,0.5-0.8,0.8-1.2C122.8,420.3,123.4,421,123.8,421.9z"/>
<path class="st5" d="M192.8,452.9l1.1,0.9c0.8,3.3,3.1,2.8,5.5,2.4c4.1-0.7,7.7-2.9,11.6-4.2c2.6-0.9,5.1-2.2,8-2.6
	c1.5-0.2,3.3-0.7,2.8-2.7c-0.6-2.5-2.5-1.5-4-1c-1.8,0.6-3.6,1.9-5.6,0.4L211,445c1.3-2.7,6.4-2.7,5.2-7.2c-0.2-0.7-0.3-1.3-0.4-2
	c-0.2-1.9-1-3.7-0.5-5.7c0.5-1.1,0.9-2.4,2.6-2.2c1.2,4.6,0.4,9.7,5.7,13c2.4,1.5,2.8,6.2,2.1,9.2c-0.7,2.8-4.2,2.4-6.8,2.7
	c-4.6,0.5-8.5,3.2-12.8,4.8c-3.9,1.4-7.7,2.7-12,2.4c-2.2-0.2-3.1-1.4-3.5-3.4S190.2,453,192.8,452.9z"/>
<path class="st8" d="M69.8,509.1l2.3-1c0.8-1.1,2.2-1.6,3.5-1.4c9.7,0.6,19.4,0.4,28.8,3.2c1.1,0.4,2,1.2,2.5,2.2
	c5.2,1.7,0.6,4.9,1,7.4s-2.1,1.7-3.2,1.6c-7.3-0.8-14.6-2.2-21.8-4.1c-0.8-0.9-2.6,0.2-2.9-1.2s1-1.4,1.9-1.7
	c7.1,1.3,14.3,2,21.5,2.9c-3.6-2.3-7.2-4.5-11.8-4.2c-7.3,0.5-14.4-1-21.6-2.3C69.9,510.1,69.7,509.6,69.8,509.1z"/>
<path class="st10" d="M161,57.8l3.3-0.8c2.9-1.9,4.8,0.4,6.8,1.6c-2.3-3.2-5.9-4.3-9.5-5.7c-3.6-2.9-7.5-3.7-11.8-1.8l-1-1
	c1.4-4.2,3.9-5.7,8.7-4.8c4.4,0.8,8.6,2.4,13.1,2.9c1.6,0.5,1.7,1.6,1.2,3c-2.9,1.6-1.1,3.1,0.2,4.5c1.9,2,3.9,3.8,4.2,6.9
	c0.1,1.3,0.8,2.5-0.5,3.5s-2-0.6-2.9-1.1c-2.6-1.5-4.2-4.2-7.2-5.1C163.9,59.9,162.1,59.7,161,57.8z"/>
<path class="st11" d="M172,51.1c-1.1-0.7,0-1.5-0.1-2.2c-7.8-7.1-17.8-6.2-27.2-7.3c-4.6-0.5-5.7-2.2-3.9-6.4
	c2.6-5.9,7.6-7.8,13.2-5l1.4,1.1c-0.9,2.5-3.1,1.7-4.9,2s-4,0.3-4.2,2.9c0.2,0.3,0.4,0.6,0.5,1c4.2,2.1,8.8,1.1,13.2,2
	c5.5,1.1,11,2.2,14.1,7.6C175.5,49.2,176.1,51.3,172,51.1z"/>
<path class="st12" d="M201,263c0.4,0.9,0.9,1.7,1.3,2.6c3.5,7.4,3.3,7.2-2.8,11.7c-1.5,1.1-6.1,1.4-3.9,5.6c0,0.1-2.3,1.5-3.6,2.2
	c-2.8,0.4-5.4,1.6-8.3,0.9c-1-0.3-2.1-0.5-3.2-0.6c-2.1-0.1-4.3,0-6.4-0.2c-2.3-0.6-5-0.3-6.3-3c0.7-1.4,2-1.7,3.3-2.1
	c4.5,0.2,9-0.2,13.5,0.7c2.3,1,4.7,1.6,6.5-0.9c1.7-2.2,3.8-4.2,6.2-5.7c2.8-1.9,4.1-4.2,2.8-7.6C199.5,265.4,198.3,263.6,201,263z"
	/>
<path class="st13" d="M201,263c-2.7,1.3-0.2,2.4,0.2,3.4c1.5,3.5,1.4,6.3-2.2,8.4c-2.8,1.4-5.2,3.5-7.1,6.1c-2.7-0.6-1.7-2.5-1-3.8
	c1.5-3.5,2.5-7.2,3.9-10.8c1.2-2,3.1-3.7,2.2-6.4c0-0.7,0.1-1.4,0.3-2.1c0.6-1.2,0.7-2.9,2.6-3C200.3,257.5,199.4,260.4,201,263z"/>
<path class="st11" d="M100.9,142.7c0.8-8.7,1.1-17.5,7.1-24.7c1.3-1.5,2.5-2.7,4.5-2.1c4.5,1.2,7.1-0.7,8.6-4.8
	c0.3-0.3,0.9-0.3,1.2,0c0.1,0.1,0.1,0.1,0.1,0.2c0.2,5.9-1.8,7.6-9.2,8c-1.4-0.2-2.8,0.5-3.4,1.7c-3,3.1-3.2,7.3-3.8,11.2
	c-0.6,1.7,0.1,3.4-0.3,5.1c-0.2,0.4-0.5,0.7-0.9,0.9c-2.4,1.3-1.3,3.4-1.1,5.2c0.3,2.1,0.9,4.2-0.3,6.3c-0.4,0.4-0.9,0.4-1.3,0.2
	C100.7,147.9,100.2,145.2,100.9,142.7z"/>
<path class="st9" d="M92.1,362.1c-0.8-3.7-1.9-0.7-2.8-0.1c-2.2-2.6-0.7-4.8,0.5-7.1c2-7.3,1.3-15.1,4-22.2c1.7,1.2,2.3,3.1,3.1,4.9
	c0.2,7.4-1.4,14.5-2.5,21.7C94.2,360.5,93.8,362,92.1,362.1z"/>
<path class="st14" d="M84.5,443.9l-0.4,0.1c8.3-4.1,3.4-10.9,3.3-16.7c-0.1-2.1-0.8-4.2-0.4-6.3c2.5-0.1,2.8,2.6,4.6,3.5
	c0.5,0.5,0.9,1.1,1.2,1.8c0.4,1.2,0.4,2.4,0.1,3.6c-0.5,3.1-1.5,6.2,0.8,9c1.7,1.3,3.4,0.4,5.2,0.3c0.9,0.1,2.1-0.1,2.2,1.4l-1,1.3
	c-1,1.7-2.8,2-4.5,2.4C91.9,444.5,88.1,446.5,84.5,443.9z"/>
<path class="st15" d="M123.8,421.9l-1.7-1c-1.4-3.8,0.2-7.6,1.1-11c1.8-6.5,3.1-13.2,5.1-19.7c0.5-1.7,1-3.5,2.7-4.6
	c1.8,0.2,1.5,1.3,1.1,2.5C129.7,399.6,128.2,411.1,123.8,421.9z"/>
<path class="st8" d="M238.8,496.9c-1.8,0.2-3-2.4-5-1c-1.5-0.6-2.8-1.6-3.7-3c-1.1-1.8-1.3-3.9-2.1-5.8c-0.9-3.1-3.2-4.7-6-5.9
	c-0.5-0.4-0.6-1.2-0.2-1.8c0,0,0.1-0.1,0.1-0.1c3.2-1.5,5.2-0.5,7.5,2.3C233.2,486.5,237.6,490.7,238.8,496.9z"/>
<path class="st13" d="M199.9,254.8c-1,0.9-0.4,2.7-1.8,3.4c-2.5,0.7-2.8-0.7-2.5-2.6c0.2-1.7,1.2-3.3,1-5.1c0.6-4.8-1.4-9.5-1-14.3
	c-0.1-4.3-1.1-8.5-0.6-12.8c0.1-1.3-0.1-2.7,1.3-3.5l1.1-0.1C198.8,231.5,200.2,243.1,199.9,254.8z"/>
<path class="st9" d="M211.9,497.9c-1.2,0.8-0.9,2.1-1.1,3.2c-0.7-0.7-1.4-1.3-2.2-2c-5.2-4.3-5.2-10.8,0.3-14.5
	c2.9-1.9,5.9-3.6,8.9-5.4c0.4,0.3,0.6,0.8,0.6,1.3c-4.9,4.3-7.8,9.3-5.7,16.1C212.8,497.1,212.3,497.6,211.9,497.9z"/>
<path class="st16" d="M187,326c-2.5-2.2,0.2-5.7-2-8c-1.7-1.7-1.3-3.8-1-5.8c2-5.3,2.3-11,0.9-16.5c-0.4-1.8-0.4-3.6-0.1-5.4
	c0.3-1.4,0.5-3.1,2.8-2.2c1.9,9.8,1.7,19.8-0.5,29.5C186.5,320.3,187,323.2,187,326z"/>
<path class="st13" d="M106.9,512c-0.7,0-1.4,0-1.8-0.8c-3.9-4.3-3.9-10.8-0.1-14.3c0.3,0.3-0.1,2.1,1.1,0.8c0.8-1.2,1.4-2.4,1.9-3.7
	C109.2,500,109.4,506.1,106.9,512z"/>
<path class="st9" d="M100.9,142.7c0.5,2.5,0.6,5.2,2.2,7.4c1.4,1.5,1.2,3.2,0.8,5c-2.2,5.5-1.3,11.5-2.4,17.1
	c-0.3,1.6-0.1,3.3-1.2,4.7c-2.2,0.4-2.1-1.3-2.5-2.6c-0.2-2.7-0.1-5.4,0.1-8.1c0.3-2.3,2-4.5,0.3-6.9c-0.5-0.3-0.8-0.8-0.9-1.3
	L100.9,142.7z"/>
<path class="st13" d="M104.7,96.2c1.8-0.9,1.2-2.6,1.3-4.1c3.4,0.6,2.8,4.9,5.5,6c0.8,0.5,1.6,1,2.4,1.4c1.4,0.8,3,1.5,4.5,2
	c1.9,0.5,3.7,1.8,2.8,3.9s-3,1.6-4.8,1.2c-0.9-0.3-1.8-0.9-2.4-1.7c-0.7-1.2-1.9-1.9-3.3-1.9C105.5,103.5,105.3,99.8,104.7,96.2z"/>
<path class="st8" d="M114,105.1c2.2-0.2,5.5,2.4,6.2,0.1c1-3.3-3.3-1.9-4.9-3.3c-0.7-0.6-1.5-1.2-2.3-1.8c-0.8-1.1-0.4-1.9,0.8-2.4
	c5.8,1.4,10.2,4.5,12.2,10.4c0.4,1.3,0.7,2.7-0.5,3.7s-2.4,0.2-3.4-0.7l-1,0.1c-0.1-2.5-2.7-2.6-3.7-2.4
	C113.6,109.7,113.6,107.8,114,105.1z"/>
<path class="st17" d="M97.3,158.1l0.9,1.1c0.7,0.9,1,2.1,0.8,3.2c-1.5,4-0.7,8.2-0.9,12.4c0,0.6,0,1.1-0.1,1.7
	c-0.5,7.2-4,14-3.7,21.4c0.1,1.3-0.2,3.1-2.1,3.5c-0.4-1.7,0.5-3.7-1-5.2c-1.2-5.8,1.2-10.8,3.1-15.9C96.9,173,95,165.3,97.3,158.1z
	"/>
<path class="st18" d="M89.8,354.9c-0.2,2.4-0.4,4.7-0.5,7.1c-1,1.6,0.3,3.7-1.1,5.2c-0.2-1-0.3-1.9-0.5-3.3
	c-1.5,7-2.9,13.7-4.3,20.3c-1.4-3.8,0.4-7.2,0.7-10.8c0.3-5.4,1.9-10.7,2.7-16C87.1,355.5,88.2,354.9,89.8,354.9z"/>
<path class="st13" d="M95.9,337c-1.9-0.9-1.8-2.7-2-4.3c1.1-6.9,2.3-13.8,3.4-20.6c3.1,1.3,1.6,4.2,2.1,6.4
	C98.5,324.7,100,331.3,95.9,337z"/>
<path class="st9" d="M187.6,288.2c-3,2-0.7,5.1-1.5,7.5c0.7,4,0.2,8,0.3,12.6c-2.9-1-2.7-3.1-2.8-4.9c-0.2-2.9,0.2-5.9-0.7-8.8
	c0.2-3.2-1.7-6.4,0.1-9.6l9,0.2L187.6,288.2z"/>
<path class="st8" d="M217.8,428l-2,2c-3.1-2.6-5.4-5.5-4-9.9c2.4-1.8-1.2-2.9-0.6-4.5c0.6-0.3,1.4-0.1,1.8,0.4
	c0.9-0.2,0.7,2.2,2.1,0.8C216.8,420.3,217,424.2,217.8,428z"/>
<path class="st13" d="M82.3,514.8c-0.1,0.5-2.2-0.4-0.9,1.1c0.5,0.4,1,0.8,1.6,1c-6.3,0.1-12.3-1.3-18.3-2.7
	c1.4-0.7,3.3,0.5,4.4-1.3C74,510.7,78.9,511.5,82.3,514.8z"/>
<path class="st18" d="M91.1,424.9c-2.3-0.4-2.8-2.6-4.1-4l-0.1-3.9c2.3,0,0.9-2,1.5-2.8c1-1.3-0.2-3.9,2.5-4.3
	C93.6,414.9,93.3,419.9,91.1,424.9z"/>
<path class="st9" d="M98.3,319.5c-0.7-2.4,0.5-5.1-1-7.4c1-4.7,1-9.7,2.6-14.3c0.9,0.2,1.6,0.8,2,1.7
	C102,306.4,101.7,313.2,98.3,319.5z"/>
<path class="st19" d="M100.9,299l-1-1.2c0.7-5.6-1-11.4,1-16.9c0.6-0.2,1.3-0.1,1.6,0.5C103.7,287.3,105.1,293.4,100.9,299z"/>
<path class="st13" d="M161,57.8c1.7,0.5,3.6,0.5,4.9,2.1c3.6,3.5-2.8,3-2.1,5.3c-1.7-1.3-3-3-3.8-5c-0.6-1.1,0.5-1.4,1-2L161,57.8z"
	/>
<path class="st13" d="M97.1,260.2c-1.1,1-0.4,3.1-2.1,3.8l-2,0.8l-3.2-2c0.5-2.2,2.4-3.4,3.8-5c0.4-0.2,0.8-0.2,1.2-0.1l1,1.2
	C96.5,259,97,259.5,97.1,260.2z"/>
<path class="st13" d="M132.1,388.2c-0.3-0.8-0.7-1.5-1-2.3c-1.5-4.1,0.4-7.2,2.9-10.2c0.9,0.1,1.6,0.4,1.1,1.5
	C135.2,381.2,133,384.5,132.1,388.2z"/>
<path class="st13" d="M146.8,37.1l-0.4,0.2l-0.4-0.2c-0.1-3.2,2.2-3.7,4.5-3.9c2.1-0.1,4.1-0.8,6.2-0.5c0.4,0.2,0.6,0.8,0.4,1.2
	c0,0.1-0.1,0.1-0.1,0.2C154.3,37.4,149.8,34.9,146.8,37.1z"/>
<path class="st13" d="M217.9,480.7l-0.1-1.4c1.4-1.6,2.8-2,4.2,0.1c0.4,0.6,0.8,1.2,1.2,1.7c0.1,0.5,0,0.9-0.3,1.3
	c-1.1,1.1-2.4,2.2-3.7,3.1c-0.9,0.7-2,1.5-3,0.4s0.1-2,0.8-2.9C217.5,482.3,218.7,481.9,217.9,480.7z"/>
<path class="st8" d="M135.1,377.2l-1-1.3c-1.3-4-0.5-7.5,2.7-10.3c0.3,0.8,0.7,1.5,1,2.3C136.8,371,137.1,374.5,135.1,377.2z"/>
<path class="st8" d="M102,281l-1.1-0.2c0-4.6,0-9.2,0.1-13.8h1.1C104.3,271.7,104.5,276.4,102,281z"/>
<path class="st9" d="M99.1,76.2l0.8,3c-2.8,0.5-3.7,1.9-1,5.4C94.5,81.1,94.9,78.9,99.1,76.2z"/>
<path class="st13" d="M157,34.1c0-0.3,0-0.7,0.1-1c1-2.1,3.6-1.6,4.9-3l2-0.1C163.4,34.4,160,34,157,34.1z"/>
<path class="st20" d="M102,281l0.1-14c1.8-0.5,3.1,1.1,4.8,1.1c4.7,0,9,1.8,13.3,3.5c-2.8-2.1-6.6-1.9-9.2-4.4
	c-2.7-0.6-4.3-1.4-2.7-4.9c1-2.4-0.6-5.4,0.6-8.3c0.7-1.7,1.1-3.3,2.9-4.2c1.1-0.6,2.4-0.9,1.7-3.2c-0.5-1.8,1.9-3.2,4.2-1.9
	c1.2,0.7,2.4,2.5,3.9,1.2c1.6-1.4-1.2-2-1.1-3.1s1.1-1.7,2-3c1,3,1.9,5.6,2.8,8.2c0.8,1,1.2,2.3,1.1,3.6c0,2.3,0,4.6-0.1,6.9
	c0,1.9,0,3.9-2.1,5c2.8,1.3,1.7,4.3,2.7,6.4c0.2,0.7,0.3,1.4,0.4,2.1c0.4,3.2,2.7,4.2,5.3,4.7c1.6,0.3,3.3,0.1,4.7,1
	c1.9,2.3,4.8,3.6,7.8,3.4c3.3-0.2,6.5,0.6,10,0.8c-3.9-0.4-7.4-0.8-11-1c-2-0.1-4.9,0.1-4.7-3.5c9.7-0.1,19.5-0.9,28.2,4.7l6.3,2
	c2.9,0.6,2.6,1.8,0.5,3.2c2.6-0.9,5-4.4,8-0.7c0.3,2.6,1.2,5.1,1,7.8c0.6,5.9,0.8,11.8,1.6,17.8L185,318c-0.5,10.5,0,21.1,1.4,31.5
	c0.7,4.4,1.1,8.8,1.7,13.2c1,3-0.9,6.6,1.6,9.3l1.4,1.7c4.4,11.6,9.1,23.1,14.6,34.2c1.8,4.1,3.5,8.2,6.1,12c0.8,3.5,2.2,6.8,4,9.9
	c-1,2.2,1.9,3.8,0.9,6c-1.9,1.7-4.8,1.4-6.4,3.2c2-1,3.9-3.1,6.7-1.3c2.1,2.3,0.6,3.9-1.3,5.1c-1.5,0.8-3.1,1.5-4.8,2
	c-4.4,0.5-8.3,2.3-12.1,4.2c-2.3,1.1-3.2,0.9-4.6-1.2c-8.3-12.8-16.8-25.3-25.1-38.1c-3.3-5-7.3-9.5-10.9-14.2
	c-1-1.2-2.7-2.5-0.1-3.9c0.9-0.5,0.7-1.3,0.3-2.2c-6.9-13.5-8.6-28.8-14.4-42.7c-1.4-12.5-6.6-23.7-11.2-35.2
	c-0.8-1.8-2.2-2.3-3.8-2.8l-1.1-2.8c0-1.8,0.5-3.8-1.7-5.1c-0.6,1.2-1.6,2.3-1.2,3.9l4,12.2c1.7,7.3,2.5,14.8,4.5,22.1
	c1.3,4.7-1.4,8.7-1.5,13.2c0,2.1-1.2,4.1-0.9,6.3c-1.2,6.4-3,12.7-5.3,18.8c2.5-5.5,3.5-11,4.9-16.4c0.5-3.4,0.7-7,1.9-10.3
	c0.4-1.2,0.5-3,2.3-2.8c1.4,0.2,1.9,1.9,2,3.2c0,2.3,0.4,4.6,1.3,6.7c-0.4,2.6-0.8,5.1-1.2,7.7c-0.9,3.4-1.8,6.9-2.7,10.3
	c-1.1,3.3-2.6,6.5-3,10c-2.6,9.8-6.2,19.4-7.1,29.7c-0.2,1.9-2.3,3.2-1.9,5.3c-0.1,0.3-0.2,0.6-0.3,0.9c-2.6-0.4-1.7-2.5-1.8-4
	c-0.4-4.4,1-8.8,0.3-13.5c0,8-0.9,15.8-0.5,23.5c-1.4,1.3-1,3-1,4.6c-0.1,4.6-2.5,6.5-6.9,6.4c-2.8,1.3-3-1.4-3.6-2.7
	c-0.6-1.3-0.9-2.8-0.8-4.2c0.4,1.2,0.1,3.5,1.3,5.5c0.7,1.1,0.2,1.9-0.9,2.4l-7,0.6l-2.5-0.4c-2.6,1-3.8,0-4.3-2.8
	c-0.7-3.8,0-7.9-2.2-11.3l-0.8-1.1c-0.1-5-0.1-10-0.2-15c0.1-0.8,0.5-1.9,0.1-2.4c-2.9-3.9-1.3-8.3-2-12.5
	c-1.7-11.3,1.8-22,3.1-32.9c1.9-8.3,3.2-16.7,3.8-25.2c1.2-5.8,2-11.6,2.4-17.5c0.9-6.8,1.8-13.7,2.6-20.5
	C102.5,293.1,101.8,287,102,281z"/>
<path class="st20" d="M91.8,249.2c-2.6-1.4-5.4-2.4-7.8-4.2c-1.6-1.2-2.7-2.9-3.2-4.8c-0.4-1.5-0.4-3,1.2-4s2.5-0.2,3.5,0.8
	c0.5,0.5,1.2,1.2,2.1,0.6c0.9-1.4-0.1-2.5-0.9-3c-3.8-2.7-2.3-5.6-0.7-8.7c5.1-9.9,8.5-20.6,13.9-30.4c1.8-3.3,3-4.4,6.4-3.1
	c0.5,0.3,1.2,0.1,1.5-0.5c0,0,0-0.1,0.1-0.1c1.2-3.7,5-5.1,7.3-7.8c2.2,0,1.2,1.4,1.1,2.4c-0.6,3.6-2.5,6.8-3.5,9.8
	c3.8-7.1,4.5-15.5,7.6-23.1c-1.2,1.1,0,4.6-3.5,4c-2.2,1.2-1.9,4.2-4.6,5.8c0.8-3.7,2.3-7.3,4.4-10.5c5.5-8.7,10-18,13.5-27.7
	c3-8.3,7-16.1,16.5-19.3c7.9-2.6,13.7-0.4,17.1,7.2c3.6,7.8,6.6,15.6,5.4,24.4c0,5.6-0.2,11.2,0,16.8c-0.6,2.2-0.8,4.6-0.6,6.9
	c0,0.5-0.2,0.9-0.5,1.3c-3.8,2-3.5,6.4-4.7,9.6c-4.6,11.9-12.4,20.9-22,28.8c-2.4,2-5.3,1.5-8.1,1.9c-1.1-1.6-1.1-1.5,0.4-3
	c4.4-4.4,9.5-8,13.7-12.8c2.2-2.4,4.2-5,6-7.8c0.7-1.4,2.4-1.8,1.6-4.4s1.2-5.5,4-7c-4.4,3.3-5.1,8.6-7,13.2
	c-4.6,7.5-11.6,12.5-17.9,18.4c-1.4,1.3-2.8,2.8-3.9,4.4c-3,1.6-5.5,4-7.3,6.9c-2.3,2.6-3.3,6.8-7.8,7c-1.7-0.4-2.9-0.1-2.8,2
	c-0.9,4.5-4.6,5.2-8.2,6c-2,0.3-4,0.4-6,0.4C94.8,244.7,94.7,249.3,91.8,249.2z"/>
<path class="st20" d="M168,182c0-0.2,0-0.4,0-0.7c0.5-4.9,0.9-9.8,1.5-14.7l0.6-0.5c2.7-4,1.3-8.5,1.7-12.8c0.1-2,0.1-3.9,0-5.9
	c-0.1-7.3-3.3-14-4.6-21.1c-0.3-1.8-1.2-3.5-0.3-5.3c7.5-1.2,12,3.2,15.8,8.7c0.4,0.5,0.4,1.3,1.3,1.1l-0.1,0.3
	c1.5,1.7-0.7,4.7,2,5.9l0,0c2.2,9.7,2.2,19.7,3.3,29.5c0.6,5,3.9,9.2,3.7,14.4c0.6,7.7,1.3,15.3,1.4,23c0.9,8.1-1.1,15.7-3.5,23.3
	c0,0.5-0.2,1-0.4,1.5c-0.8,1.4-0.1,3.4-2.1,4.4c-2.3-1.8-1.2-4.1-0.9-6.2c-0.6,5.5-1.6,10.9-2.2,16c1-2.6,0-6,2-9.5
	c2.6,2.8,1.9,5.7,1.7,8.5c0,0.3-0.1,0.7-0.2,1c0.4-0.4,0.2-1,0.4-1.4c0.8-4.1,0-8.2,1.3-12.2c0.1-0.7-0.1,0.1,0.2-0.5
	c0.8-1.5-0.6-4.8,2.3-4.5c2.5,0.2,1.8,3.1,2,5c0.7,4,0.3,8.1,0.4,12.2c-0.3,2.5,0.7,4.9,0.9,7.4c0.2,1.9,0.6,4-1.7,5.2
	c-2-0.8-0.3-3-1.3-3.9c-0.3,3,1.8,6,0.4,9.2c-1.1,1.8-2.6,1.9-4.4,1.2c-1-0.9-2.3-1.4-3.6-1.4c-13.4-0.5-26.8-1.9-40.2-2
	c-12.2-0.1-17.4-7.9-16.1-21.8c0.1-0.7,0.2-1.3,0.3-2c0-1.5,1.4-2.8,0.3-4.4c-0.5-0.2-1-0.3-1.5-0.5c-0.3-0.1-0.6-0.4-0.7-0.8
	c1.1-1.9,3.3-2.6,5-2.8c9.3-1.1,14.6-7.4,20.7-13.6c7.4-7.5,11.1-16.5,14.5-26C168.2,184.3,168.3,183.1,168,182z"/>
<path class="st20" d="M122.1,111.1c1.8,0.5,4.2,2.1,3-2.1s-3.9-6.7-7.4-8.7c-1.3-0.7-2.9-0.6-3.9-2c-0.6-0.8-1-1.7-0.9-2.7
	c-0.6,1.2,0.9,3.5-1.8,3.5c-3.1-1.2-3-4.9-5.1-6.9c-0.9-3.9-2.7-7.6-3.1-11.7c-0.4-2.6,0.4-5.2,2.3-7.1c3.7-3.8,6.4-8.5,7.7-13.7
	c0.8-3.5,2.5-3.1,4.4-1.8c2.1,1.4,3.8,3.2,5.2,5.2c3.3,5.1,6,5.1,9.1,0.2c1.1-1.8,2.5-3.5,2.7-6.5c2.5,1.8,5,3,6.4,4.9
	c2.2,3,4.8,5.1,8.2,3.6c3.7-1.6,1.3-5.2,1.2-8c4-2,3.9,2.5,5.9,3.7c-1.9,5.4-1.6,11.2-3.8,16.6c-1.3,3.4-4.5,5.8-4.8,9.6
	c0,0.4-0.9,0.6-0.2,0.9c0.3,0.1,0.9-0.3,1.4-0.4c1.5,1,2.8,2.3,4.2-0.4c0.8-1.5,2.1-3,4.4-2.5c0.7,0.5,3.8-1,1.7,1.9
	c-4.3,5.8-8.9,11.3-15.8,14.3c-0.6,4.7-4.9,5.5-7.8,7.6c3.1-1.4,5.7-3.8,8.8-5.5l6.3-3.1l0.6,0.7l-6,6.4c-3.4,4.7-6.7,9.5-12.3,12
	c-5.9,3.5-9.2,9.3-11,15.3c-2.7,9-4.8,18.2-4.3,27.8c0.4,3.5-2,6-3.3,8.9c-1.2,4.4-4.1,8.2-4.9,12.8c-0.5,2.9-3.3,3.9-6.1,4.2
	c-0.8-1.1-0.3-2.3,0-3.5c1-3.7,1.7-7.5,2.5-11.2c0.4-1.5,1.1-3.2-0.3-4.7c-2-2.6-1.1-5.8-2.1-8.6c-0.8-1.7,0-3.5-0.4-5.2l0.3-4.9
	l0,0c1.5-3.9-1-8.4,1.8-12.1l0.3,0.2c2.9-4.1,2.9-9.1,4.4-13.6c0.7-2.2,0.8-4.6,2.4-6.5C121,117.5,121,117.5,122.1,111.1z"/>
<path class="st13" d="M167,121c2.7,8.6,5.8,17.1,4.8,26.4c-0.6-6.4-4.3-11.5-6.9-17.1c-3.4-7.3-9.2-9.9-17-7.9
	c-7.1,1.8-12.1,6.6-16.8,11.9c-3.2-2-5.1-4.3-1.7-7.8c4.6-4.7,10.2-8.3,16.4-10.4c3.6-0.4,7.2-0.8,10.2,2L167,121z"/>
<path class="st8" d="M102.8,155c2,0.8,0,2.9,1.3,4c-0.4,3.8,0.2,7.7,1.7,11.3c1,5.1-2.5,9.7-1.8,14.8l-1,3.2c-4.8,3-5.9,8.5-8.5,13
	c-0.6,1-1.4,4.4-2.4,0.1c0.6-7.6,2.5-15,4-22.4c0.2-0.9,0.6-1.8,0.9-2.7c3.6,1.9,1.3,4.8,1.4,7.1c1-1.8-0.2-4.4,1.3-6.3
	C100.9,169.6,100.3,162.1,102.8,155z"/>
<path class="st18" d="M94.1,258.1c-0.6,2.3-2.5,3.5-4.3,4.8c-3.8,2.1-7.4,0.2-11-0.9c-1.9-0.6-2.3-3.2-1.9-4.1
	c1.6-3.2,3.1-6.6,5.7-9.3c0.9-0.9,1.7-0.6,2.7,0c2.9,1.6,5.8,3.1,8.7,4.7C94.6,254.7,94.6,256.5,94.1,258.1z"/>
<path class="st18" d="M130.1,126.8c-4,3,0.8,4.9,0.9,7.4c-2,5.6-4,11.2-6,16.9c-0.2,0.3-0.4,0.5-0.5,0.8c-0.7,1.3-1.1,3.2-2.8,3.2
	c-1.9,0-1.7-2.1-2.3-3.4c-0.2-0.6-0.4-1.3-0.6-1.9c-0.2-1.2-0.5-2.4,0.6-3.4c3.3-2.4,1.4-5.7,1.4-8.7c2-7.6,4.8-14.6,12-18.8
	C134.9,122.5,131.4,124.2,130.1,126.8z"/>
<path class="st8" d="M126,244.9c-1.5-4.1-3.1-8.2-1.6-12.6c0.6-1.8,1.1-3.8,3.3-4.5l0.2,0.2c1.7,1.9,1.4,4.2,1.3,6.4
	c-0.1,1.6-0.5,3.2,0.5,4.7c0.5,2.9-0.1,5.9,0.5,8.8c0.1,3.4,0,6.9,1.4,10.2c0.6,1.4,0.5,3-0.5,4.2c-1,0.7-2.4,0.7-3.4,0
	c-1.7-4.4-1.9-8.9-1.6-13.5C126.3,247.4,126.9,246.1,126,244.9z"/>
<path class="st9" d="M154.1,199c-5.3,8.4-12.9,14.6-20.2,21.1c-0.6,0.6-2,0.9-0.7,2.1c-0.9,0.7-2,1-3.1,0.9
	c1.5-4.7,5.5-7.2,8.9-10.1c4.6-3.8,8.9-7.8,12-13C151.8,198.9,152.6,197.9,154.1,199z"/>
<path class="st8" d="M110,245c0.5,3.5-0.8,5.5-4.5,5.3c-2.5-0.1-5.1,1.5-7.5-0.4c-1.3-0.7-1.5-1.6-0.3-2.5c1.4-1,3-1.8,4.6-2.4
	C104.9,244.6,107.4,242.9,110,245z"/>
<path class="st9" d="M101.8,265c-1.6,0.1-2.8,0.2-3.5-1s0.2-2,1.1-2.9c2.4-2.2,4.8-4.6,5.6-7.9c0.1-0.6,0.6-1.1,1.3-1
	c0,0,0.1,0,0.1,0c1,0,1.1,0.7,0.7,1.3c-1.6,2.5-0.9,5.5-1.5,8.2S104.1,265.6,101.8,265z"/>
<path class="st13" d="M116.7,177.2c2.7-0.8,1.9-4.1,4.2-5.6c-1.6,9.9-4.9,18.9-8.9,28.1c-0.5-3.4-0.5-3.4,1.4-7.4
	c1.2-2.6,2.6-5.2,1.7-8.2C115.5,181.8,117.2,179.8,116.7,177.2z"/>
<path class="st21" d="M126,244.9c2.1,5.5,1.1,11.4,2,17.1c2.3,2.3,1.2,5.2,1.2,7.9c0,1-0.3,2-0.8,2.9c-1.2,1.1-1.8,0.2-2.3-0.7
	l-0.4-2c-0.8-6.1,0.4-12.2-0.6-18.3c0-1.2,0-2.5,0-3.8C126.2,247.2,125.9,246,126,244.9z"/>
<path class="st9" d="M110,245c-2.7,0.2-5.5-0.6-8,1c-2,0.7-3.6,0.7-4-2c3.3,0,6.6,0,9.6-1.4c1.1-0.5,3.2,0,2.1-3
	c-0.9-2.6,1.6-0.2,2.5-0.6c1.7,0.5,3.1,1.5,4.2,2.9C114.2,243,112.4,244.6,110,245z"/>
<path class="st13" d="M111,267.2c4.7,0.8,9.2,2.4,13.3,4.8c-6.7,2.3-11.5-3.6-17.5-3.9C108.2,267.6,109.8,268.4,111,267.2z"/>
<path class="st13" d="M98.1,244.1c1,1.2,2.5,1.9,4,2c-0.5,2.1-4.8,0.4-4,3.9c-2.3,1.5-4.4,1.1-6.3-0.8
	C93.2,246.6,94.1,243.5,98.1,244.1z"/>
<path class="st18" d="M114.1,171.2c-0.3-3,3.4-5,2-8.2c1.8-1.8,0.7-4,1-6.1s0.1-4.1,3-3.8c1.5,2.7,1,5.4,0.1,8.1
	C118.5,164.8,116.5,168.1,114.1,171.2z"/>
<path class="st8" d="M115,237c3.2-1.6,4.3-5.6,7.8-7c0.3,2.6-1.4,4.9-2,7.3C119.9,240.7,117,238.3,115,237z"/>
<path class="st13" d="M120.2,161.2c-0.7-2.7,1-5.7-1.2-8.2c-1-1.7-1.5-3.2,0.9-4.1c0.5,1.8,1,3.7,1.5,5.6c1.8-0.7,1.7-3.1,3.6-3.4
	C124.7,155.1,122.1,158,120.2,161.2z"/>
<path class="st13" d="M167.6,174.9c0-6,0.5-12,1.5-17.9c2,2.9,0.3,6.1,1.1,9.1l0.1-0.1c-1.6,2.2-0.3,4.8-0.8,7.1
	C169.3,174.2,169.6,175.8,167.6,174.9z"/>
<path class="st9" d="M97.1,260.2c-0.9,0.1-1.2-0.4-1.2-1.2c2.3-2.2,3.2-5.8,7.5-7.1C102.1,255.8,99.3,257.8,97.1,260.2z"/>
<path class="st13" d="M85.7,265.4c-3.2,2.9-4.8,2.6-8.5-1.2c1.6-1.1,2.7,0.6,4,0.6S84,265.1,85.7,265.4z"/>
<path class="st13" d="M94.1,258.1c-1.1-1.5-1.1-3.5-0.1-5c1.1,0.2,2.7-0.8,3.1,0.5c0.6,1.8-1.8,2.5-2.2,4.2
	C94.6,257.8,94.3,257.9,94.1,258.1z"/>
<path class="st8" d="M154,30.2c-5.3-0.3-10.3-0.1-12.4,6.2c-0.8,2.4-1.7,3.9,2.4,4c7.6,0.3,15.3,0.1,22.5,3.1
	c2.7,1.1,4.6,2.6,5.4,5.4c-4.6,1-8.8-0.9-13-2s-7.4-0.4-9.8,3.2c-4.2-0.3-4.9,0.1-2.7,3.4c1.8,2.6,1.1,5.5,2.6,7.9
	c-1.3,3.5-3.5,2.1-4.8,0.5c-2-2.5-4.4-4.5-7.2-6c-0.6-0.3-1.5-0.8-1.5-1.2c-0.6-7.5-5-2.1-7.6-2.2c-0.9,0.2-1.8,0.5-2.6,0.9
	c0.7,0.8,1,1.4,1.5,1.6c6.6,2.2,6.6,2.2,1.7,8.8c-1.9-2.4-4-4.6-6.2-6.7c-2.7-2.4-6.7-3.3-9.1-1c-5,4.7-11.6,3.4-17,5.9
	c-1.6,0.5-3.2,0.9-4.8,1.1c0.1-4.2,3.5-5.1,6.5-6.3c3.7-1.5,7.8-1.6,11.2-3.9c0.7-0.6,1.6-1,2-1.8l-2.1-6.7
	c-0.5-2.1-2.6-3.7-1.8-6.2c2.6-0.4,3.5,1.9,5,3.1c2.3,1.3,3.6,3.5,5,5.6c-2-3.2-2-3.2-0.8-4.9c7.4,0.6,11.7-4.4,16.6-8.8
	c4.3-3.7,9.3-6.7,14.2-9.7c4.1-2.6,9.3-2.6,14.2,4.2C158.7,28,156.2,28.9,154,30.2z"/>
<path class="st13" d="M110.1,53.1c-3.2,3.7-8.1,3.2-12.2,4.6c-3,1.1-5.3,2.3-6.7,5.2c-2.9-0.2-2.5-1.2-0.9-3c3-3.6,7.2-6.1,11.8-6.8
	c2.8,0.9,5.2-1.9,8.1-0.9c0.1,0.1,0.2,0.2,0.1,0.4C110.2,52.8,110.2,53,110.1,53.1z"/>
<path class="st13" d="M162,30.1c-0.4,3.1-3.2,2.1-4.9,3c-3.6,1.6-8.5-0.4-11,4c-0.8,0.2-2.4,1-1.8-0.8c0.8-2.4,2.3-4.3,5.4-4.2
	c1.9,0.1,4,0.5,5.8-0.8C157.6,31,159.6,29.6,162,30.1z"/>
<path class="st9" d="M96.9,41c4.5-0.9,8.2,1.6,10.9,7.6c-3.2-0.2-6.3-1.4-8.7-3.5C100.1,42.8,97,42.7,96.9,41z"/>
<path class="st13" d="M107,38.1c1.4,1.9,2.6,3.7,1.8,6.2c-1.7-1.3-3.4-2.5-5-3.9c-0.9-0.8-3-0.9-2.4-2.5s2.5-1,3.9-0.7
	C106,37.3,106.5,37.7,107,38.1z"/>
<path class="st13" d="M101.2,51.2c-4,1.5-8.1,1.1-12.8,0.4c1.8-2.1,3.8-2.2,5.6-2.4C96.8,48.9,99,50.1,101.2,51.2z"/>
<path class="st13" d="M116.2,41.9c-1.3,3.1,3.5,4.2,2.3,7.6c-2.5-2.5-4.7-5.3-6.5-8.4C113.4,40.6,115,40.9,116.2,41.9z"/>
<path class="st9" d="M110.1,53.1c-2.7-1.1-4.8,1-7.1,1.5c-2,0.4-1.2-0.6-0.9-1.5c2.7-1.4,5.8-2.2,8.9-2.3
	C111.2,51.8,110.9,52.7,110.1,53.1z"/>
<path class="st9" d="M96.9,41c1.2,0.5,2.3,1.1,3.5,1.7c0.7,0.3,1.7,0.6,1.3,1.7S100,45,99.1,45C98.4,43.7,95.2,43.7,96.9,41z"/>
<path class="st20" d="M101.2,51.2l-7.2-2c3.1-3.1,5,1.3,7.6,1.3c0,0.1,0,0.3,0,0.4C101.5,51,101.4,51.1,101.2,51.2z"/>
<path class="st13" d="M212.3,446.1c3.8,0.3,6.2-3.4,10-3.2c2.2,6.5,2,6.1-4.5,8c-6,1.7-11.7,4.3-17.5,6.4c-1.4,0.4-2.9,0.7-4.4,0.7
	c-3.6,0.1-4.1-1.4-2-4.1L212.3,446.1z"/>
<path class="st8" d="M130,359c-0.2-5.1,3.8-10.1-0.4-15.1c1.9-0.5,2.1,0.9,3.3,1.5c-0.6-9.8-5.1-18.7-4-28.3c1.6,0.8,1.3,2.6,2,3.9
	c1,7.3,1.8,15.2,5.8,20.9c3,4.2,1.2,8.3,3.2,12L138,358c-2.1-1.1-4.5-1.8-2.2-5.1c0.5-0.8-0.7-2.7-1.2-4.5c-3,4-1.7,8.8-3.6,12.6
	C130.3,360.6,130.7,359.5,130,359z"/>
<path class="st9" d="M139.9,353.9c-2.9-0.5-1.6-2.8-1.8-4.4c-0.1-1.8-0.1-3.6,0-5.5c-1.7,0.3-0.6,2.1-2.2,2.7
	c-2-8.5-5.8-16.6-5-25.7c4,8,4.6,17.3,9.7,24.9C142.3,348.7,140.8,351.3,139.9,353.9z"/>
<path class="st20" d="M142,343c-1.9-2.1-3.2-4.7-3.7-7.5c-1.9-8.4-6-16.1-8.5-24.2c-0.3-0.8-0.2-1.3,0.8-1.3c1,0,2,0.7,2.3,1.6
	c4.1,9.9,9,19.6,10.4,30.4C143.5,342.8,142.8,343.1,142,343z"/>
<path class="st9" d="M142,343c-0.5-5.1-0.8-10.2-3-14.9c-2.1-4.4-3.9-9-5.4-13.6c-0.5-1.7-1.5-3.4-3.8-3.2c-0.7-0.6-1-1.4-0.8-2.3
	c1.8-2.2,3.4-1.1,4,0.7c4.6,11.8,11,23,11.5,36c0,0.4-0.4,0.9-0.6,1.3C142.9,345.9,142.2,344.5,142,343z"/>
<path class="st9" d="M124.9,305c-0.9-0.5-0.6-1.3-0.5-2.1c0-1.7-0.4-3.7,1.4-4.3c1.5-0.5,1.8,1.6,2.3,2.7c0.8,1.6,2.9,3.4-0.3,4.9
	C126.8,306,126.8,303.3,124.9,305z"/>
<path class="st20" d="M189,129.1c-2.3,0.5-4.5-0.1-5.7-2.1c-3.5-6.1-9.2-7.6-15.5-8.3c-3-0.3-6-0.6-8.8-1.8c2.1-5.1,3.8-5.9,8.2-4.4
	c1.4,0.5,2.7,1.2,4,1.9c1.3,0.7,2.6,1.3,3.9,1.9c-3.1-1.2-5.8-3.2-9-4.3s-5.4-1.3-6.7,2.4c-0.4,1.3-1.6,2.3-3,2.2
	c-4.3,0.2-8.5-1.5-12.8,0.1c-1.8-0.2-2.2-1.2-1.4-2.7c1-1.9,2.7-3.3,4.7-4c4.6-1.5,6-5.9,8.2-9.4c3.7-5.8,8.2-11,10.8-17.4
	c0.5-1,0.5-2.2,0-3.2c1-5,4.9-3.8,8.2-3.6c3,0.2,5.3,1.7,6,5c2.8,14.5,10.7,27,15.2,40.8c0.8,2.3,1.2,4.5,0.5,6.8
	c-4.8,2.6-5.6-2.2-7.9-4.4C187.1,126.5,189.8,127.4,189,129.1z"/>
<path class="st8" d="M147,110c-1.2,2.1-4.4,2.9-4,6c0.6,0.7,1.9,0.1,2.3,1.1c-5.7,2.1-10.4,6-15.2,9.5c-0.3-3,3-4.6,2.6-7.6
	c0.5-0.5,0.3-0.9-0.1-1.3c5.4-2.1,7.5-8,12.3-10.7L147,110z"/>
<path class="st9" d="M149.1,88c-2.5,0.2-2.2,3.7-5,4c2.2-10.6,13-18.6,8.9-30.6c1.1-1.2,2.2,4.2,3-0.3c-0.6,4.5,0.6,9.1-1.6,13.6
	c-0.7,1.4,0.4,4.9,0.2,7.5c-1.8,1.2-3.2,3-3.9,5C150.3,87.8,149.9,88.3,149.1,88z"/>
<path class="st9" d="M162.2,52c5.4,1.4,9.7,4,12.4,10.6c-3.9-2.6-6.2-5.8-10.2-5.6c-4.1-1.3-8-3.5-12.6-3.1c-1,0.1-1.9-0.4-1.8-1.7
	C154,48.5,158.1,51.2,162.2,52z"/>
<path class="st13" d="M162.2,52c-4.1,0.5-8.2-1.3-12.3,0.1v-1C154.4,45.7,158.3,49.1,162.2,52z"/>
<path class="st8" d="M144.1,103.2c-3.1,3.7-7.4,6.2-12.2,7.1c3.7-3.1,8.8-4.4,11.1-9.2C142.9,101.9,143.3,102.7,144.1,103.2z"/>
<path class="st13" d="M149.1,88l1.1-1.1c1.5-1.3,2.9-3,4.8-3.8l2.2,1.8c-2.6,1.5-4.6,3.9-5.7,6.7C149.9,91.1,149,89.6,149.1,88z"/>
<path class="st9" d="M155,83.1c-0.8,2.3-2.2,3.8-4.8,3.8c0.1-3,1.3-4.8,4.5-4.7C154.8,82.5,154.9,82.8,155,83.1z"/>
<path class="st13" d="M159.1,63.4c3.5,2.1,3.5,4.4,1.3,8.4C159.8,68.3,159.5,66,159.1,63.4z"/>
<path class="st18" d="M161,58.1l-1,2c-2.3,0.1-4.3-1.3-4.9-3.5C157.5,55.9,159,58,161,58.1z"/>
<path class="st22" d="M161.4,76.3l0.5,7.9C159,81.4,159.4,78.9,161.4,76.3z"/>
<path class="st8" d="M217.9,480.7c0.9-0.1,1.6-1.2,3-0.4c-1.3,1.9-3.8,2.8-4.7,5.7c3-0.5,3.8-4.2,6.8-4c1.4,1.1,1,2.9,1.8,4.2
	c1.7,2.6,4.2,4.5,6.3,6.6l2.7,3.1c-5.5,7.2-11.6,14.1-18,20.5c-2.3,2.3-5.1,4.2-7.7,6.3c-1.2,1-2.4,1.2-3.6,0.3s-0.2-2.1,0.2-3.1
	c2.3-5.3,5.5-10.2,7.3-15.8c0.7-2.1,1.4-4.1-0.1-6.1c0-0.5-0.1-1-0.2-1.5C209.8,489.6,210.3,483.8,217.9,480.7z"/>
<path class="st13" d="M208.8,525.8c0.1-0.5,0-1.2,0.3-1.4c9.4-6.1,16.7-14.3,23.3-23.2c0.9-1.2,1.6-3.2,3.6-3
	c0.7,0.1,1.6,1.3,1.8,2.1c0.6,2.1-1.3,2.7-2.6,3.7c-6.7,5.2-12.3,11.5-17.8,17.9c-1.7,2.2-3.9,4-6.3,5.3
	C210.2,527,209.2,526.8,208.8,525.8z"/>
<path class="st8" d="M208.8,525.8c1,0,1.9,0.5,2.3,1.4c-0.5,1.3-1.9,2-3.2,1.7c-4.9-0.8-9.8-1.1-14.8-1c-1.1,0-2.1-0.9-2.1-2
	c0-0.1,0-0.2,0-0.3c0-1.4,1.3-1,2.2-1.3C198.6,522.7,203.5,526.1,208.8,525.8z"/>
<path class="st9" d="M205.7,408c-1.1-0.7-2.3-1.1-2.9-2.5c-3.8-9.2-7.8-18.3-11.7-27.5c-0.6-1.3-1.2-2.8,0-4.2
	c4.9,7.4,8.2,15.7,11.4,23.9C203.8,401.1,204.7,404.6,205.7,408z"/>
<path class="st22" d="M213,416l-1.8-0.4l-4.9-12.3C210.7,406.3,211.3,411.4,213,416z"/>
<path class="st9" d="M189.7,372.1c-0.8,0.3-1.7,0.7-1.7-0.7c0-2.9,0.1-5.8,0.1-8.7C189.4,365.7,189.4,368.9,189.7,372.1z"/>
<path class="st13" d="M156.9,116.1c4.6-7,5.8-7.2,13.9-2.9c2.3,1.2,4.6,2.5,6.7,3.9c-5.4-0.2-9.3-4.6-14.7-4.9c-2.4,0,5,3.8-1,2.4
	c-1.6-0.4-2.2,1.1-2.8,2.3h-1.6C156.9,116.9,156.7,116.6,156.9,116.1z"/>
<path class="st8" d="M189,129.1c-0.2-0.3-0.3-0.6-0.6-0.8c-1.7-1-2.9-2.2-2.3-4.4c0.1-0.4,0.5-0.8,0.8-1.1c1.3,1.1,3.4,1.9,3.8,3.3
	c0.9,3,2.7,3.2,5,2.9C193.6,131.2,191.3,129.8,189,129.1z"/>
<path class="st23" d="M156.9,116.1c0.2,0.2,0.4,0.5,0.5,0.7L156,118c-3.5-0.7-7.1-1-10.7-0.8c-0.8-0.2-1.8-0.2-2.3-1.1
	C147.6,114.4,152.3,115.5,156.9,116.1z"/>
<path class="st8" d="M105,496.9c-2.1,4.8-2.5,9.6,0.1,14.3c-10.8-2.7-22-2.7-33-3.2l-7.7-1.5c3.8-1,6.3-4,10.9-4.6
	c5.9-1,10.8-5.2,12.8-10.9c2.9-8.5,8.3-10.2,16.4-6.2c2.3,1.2,2.4,2.9,2.2,4.9C106.3,492.2,104.6,494.3,105,496.9z"/>
<path class="st8" d="M82.3,514.8c-4.3-1.3-8.7-2.4-13.2-1.9l-8-1c2.1-4.6,6-1.8,9.1-2.1c8.9,0.7,17.7,1.5,26.6,1.9
	c3.5,0.2,5.5,5.2,9.6,2.4c0.2,4.7-2,5.7-5.6,4.3C94.9,516.2,88.2,517.4,82.3,514.8z"/>
<path class="st13" d="M70.2,509.8c-3,0.9-6.7-1.1-9.1,2.1c-0.3,0-0.7,0-1,0c-2.2-0.6-4.9-1.8-4.2-4c0.8-2.8,4-1.1,5.5-0.5
	c2.6,1.2,5.5,1.7,8.4,1.7C69.9,509.3,70.1,509.5,70.2,509.8z"/>
<path class="st8" d="M192.1,181c-5.8-12.8-4.5-26.8-6.9-40.1c-0.2-1.2,0.5-2.5,0.8-3.8l2.9,7c2.2,8.7,2,17.7,3.5,26.5
	c0.1,0.3,0.4,0.4,0.8,0.2c0.3,3.7,0.6,7.5,0.9,11.2C193,182.6,192.5,181.8,192.1,181z"/>
<path class="st13" d="M190.1,228.1c1.2-8,3.8-15.8,3-24.1c1-1-0.5-4.6,3-2.9c-0.6,5,0.4,10.2-1,15.1c-1.4,2.7,0.3,5.3,0.3,8
	c0,1.6,1.5,3.9-1.4,4.8c-0.3-1.4,0.3-3-1.3-4.4l-1.5,4.6C190.5,229.1,190.4,228.5,190.1,228.1z"/>
<path class="st13" d="M196.1,201.1c-2.3-0.3-2,2-3,2.9c0-7.7-1.7-15.3-1-23l2,1C195,188.3,198.1,194.4,196.1,201.1z"/>
<path class="st13" d="M193.2,170.8c-0.6,0-0.2,2.3-1.1,0.7c-1.5-3.1-2.3-6.6-2.2-10.1c-0.1-4.8,0.3-9.6-1.6-14.1
	c-0.4-1.1-0.6-2.3,0.7-3.1C192.5,152.6,192.8,161.7,193.2,170.8z"/>
<path class="st13" d="M194,229c2.3-4.2-1.2-8.4,0-12.6c0-0.1,0.2-0.3,0.3-0.3c0.3,0,0.6,0.1,0.8,0.2c-0.1,1.4,0.3,2.7,1.1,3.8
	c0.2,5.3,0.4,10.7,0.5,16.1c-0.7,1.5-0.1,3.2-0.5,4.8c-0.5,0.9-1.1,1.5-2.3,1.2C194,237.7,194,233.4,194,229z"/>
<path class="st8" d="M186,137.1c-1.8,0.9-3,0.6-2.6-1.6c0.4-1.4,0.6-2.8,0.5-4.3C186.7,132.4,184.7,135.3,186,137.1z"/>
<path class="st8" d="M96,443.1c1.1-1.2,2.7-0.7,4-1.3c5.3,0.2,10.6,0.1,15.7-1.5c1.4-0.4,3.5-1,4.5,0.7s-0.1,3.5-1.5,4.8
	c-1.9,1.9-3.9,3.3-6.9,3c-3.9-0.3-7.9,0-11.8,0C97,448.1,93.9,447.4,96,443.1z"/>
<path class="st18" d="M119.9,428c-0.9-0.5-1.9-1.2-1.7-2.2c1.6-8.3,0.2-16.7,1.2-26.2c3.4,4.1,2.8,8,2.3,11.7s-1.3,7.1,0.1,10.6
	C121.9,424.1,120.9,426,119.9,428z"/>
<path class="st9" d="M96,443.1c-0.1,2.9,1.3,4.7,4,5.7c-2.4,0.2-4.9,0.2-7.3,0.6c-5.8,0.9-7.1,0.2-8.2-5.5L96,443.1z"/>
<path class="st9" d="M108,439.8c-0.2-4.1-1.9-8.1-1.4-13c3.2,4,0.2,10,5.5,12.2C110.9,440.1,109.4,439.9,108,439.8z"/>
<path class="st13" d="M217.1,437.8c-3.6-0.2-6.4,1.8-9.3,3.6c1.9-3.2,5.3-5.3,9-5.5L217.1,437.8z"/>
<path class="st20" d="M127.9,273v-3c2.3-2.3,4.9-4.2,6.2-7.3c3.4,0.3,6.6-0.9,9.8-1.8c-3.1,0.8-6.2,2.2-9.5,1.6
	c-0.5-0.1-0.9-0.5-1.1-1c-0.3-2.5-2.2-5.3,1.3-7.2c8.8,3.5,17.9,3.4,27.3,2.9c7.2-0.4,14.4,1.1,21.6,2.3c1.5,3,4.3,4.1,7.2,5.1
	c2.5,1.5,1.7,4,1.5,6.2c-0.3,3.6-2.4,6.7-3.3,10.1c-0.5,2-2.5,1.7-4.1,1.3l-13.7-1.1c-1.3,0.7-2.6,0.3-3.9-0.1
	c-10-3.2-20.4-3.7-30.8-4c-2.7-0.1-5.3,0-7.5-1.9C128.1,274.7,127.8,273.8,127.9,273z"/>
<path class="st24" d="M127.9,273c1.3,1.9,3.5,3,5.8,2.7c5.8-0.5,11.4,1,17.1,1.1c7,0.1,13.6,2.2,20.2,4.3c-0.9,1.1-2.2,0.8-3.3,1
	c-9.4-2.5-18.8-4.3-28.6-3.9c-0.7,0.3-1.4,0.3-2.1,0c-3-0.5-6.1,0.3-8.9-1.8c-1.7-1.3-2.5-2.4-1.9-4.4L127.9,273z"/>
<path class="st13" d="M184.7,282.2c2-0.4,3.5-0.8,3.6-3.6c0.2-3.6,3-6.7,2.9-10.6c-0.1-1.1-0.5-2.1-1.3-2.8c2.2-2,4.1-1.2,5.9,0.6
	c-0.7,4-2,7.9-3.8,11.6c-0.6,1.3-1.2,2.4-0.1,3.6C190,284,187.2,282.6,184.7,282.2z"/>
<path class="st9" d="M181.9,286.1c-2.7-0.6-4.8,0.5-6.8,2.2c-1,0.9-2.2,2.8-3.5,0.6s1-2.5,2.2-2.8c3.1-0.8-0.2-1.4,0-2h7
	C181.7,284.6,182.7,284.9,181.9,286.1z"/>
<path class="st13" d="M181.9,286.1l-1-1.9c0.8-0.2,1.6,0.2,2,0.8c0.3,3,1.3,5.9,0.9,8.9c-0.3,0.6-0.5,0.5-0.7,0
	C182.7,291.3,181.7,288.8,181.9,286.1z"/>
<path class="st13" d="M195.8,265.8l-5.9-0.6c-2.3-1.2-5.9-0.4-6.4-4.3c1.7-1.2,3.5-1.9,5.5-0.9c1.4,0.1,2.9,0.5,4.1-0.7
	c1.6-0.9,3.6-0.5,4.7,1C200.3,263.2,198,264.5,195.8,265.8z"/>
<path class="st13" d="M197.8,260.2l-4.7-1v-10c1.9,0.8,0,2.9,1.6,4c1.5-3.9-1.1-7.5-0.6-11.1l1.8-1c1.6,3.1,1,6.6,1.9,9.8
	c0.4,1.9-0.5,3.5-1.3,5s-0.2,2.4,1.6,2.3L197.8,260.2z"/>
<path class="st8" d="M112,118.1c-0.8,6.4-2.6,12.6-4.5,18.8c-0.3,1.1-0.8,2.4-2.4,1.3c0.7-1.8-1.7-3.4-0.3-5.1
	c2.8-3.9,2.9-8.6,4.2-12.9C109.5,118.8,110.7,118,112,118.1z"/>
<path class="st13" d="M109.1,120.1c1,5.1-0.9,10.9-4.2,12.9C104.7,128.2,105.5,123.7,109.1,120.1z"/>
<path class="st9" d="M104.9,138c0.6,4.2-0.9,8.1-1.8,12.1c-0.3-3.4-0.8-6.8-0.9-10.2C102.2,138.8,101.9,135.6,104.9,138z"/>
<path class="st8" d="M91.9,426c3.7,1.6,2.3,5.2,3.2,8c0.7,2.2-1.1,6,3.4,6.2c-1.9,0.8-3.8,1.5-5.7,0c-0.8-3.3-0.7-6.8-1-10.2
	L91.9,426z"/>
<path class="st20" d="M91.8,429.9c1.3,3.3,2.5,6.6,1,10.2C90.5,436.8,90.8,433.4,91.8,429.9z"/>
<path class="st8" d="M223.8,487c-1.5-1.5-0.6-3.4-0.9-5.1c0.1-0.3,0.2-0.5,0.3-0.8c4.6-0.7,4.3,3.4,5.8,5.8c0.8,1.8,0.2,2.6-1.7,2
	C226.1,488.5,225.2,487.2,223.8,487z"/>
<path class="st13" d="M223.8,487c1.4-1.4,2.4,0.1,3.3,0.7c1.2,0.8,1.7,0.6,1.8-0.8c1.6,1.7,1.1,4.1,2.2,5.9
	C227.7,492.1,226,489.3,223.8,487z"/>
<path class="st9" d="M197.8,250.9c-1.7-3.1-1.7-6.5-1.9-9.8c0.3-1.7-0.5-3.5,0.9-5C197.1,241,198.7,245.9,197.8,250.9z"/>
<path class="st13" d="M208.5,487.9c0.4,2.8,0.7,5.1,1.2,8.6C206.8,493.3,205.8,491,208.5,487.9z"/>
<path class="st9" d="M183.1,293.9c0.2,0,0.5,0,0.7,0c2.3,4.1,0.3,8.8,2.3,13.1v-11.3c0.5,5.5,1.9,11.1-1,16.5
	C183.2,306.2,182.9,300.1,183.1,293.9z"/>
<path class="st13" d="M99.9,177c0.1,3.7,0.3,7.4-1.6,11.5c-2.6-4.4,1-8.6-1.1-12.3v-1.4c0.5-0.5,0.8-1.2,1.7-1.1
	C99.2,174.8,98.7,176.1,99.9,177z"/>
<path class="st18" d="M98.8,173.7l-1.7,1.1c0.8-4.2-1.4-8.6,1.1-12.6c2.2,0.4,1.1,1.7,0.9,2.9C99,168,98.9,170.9,98.8,173.7z"/>
<path class="st18" d="M99.1,165.1c-0.2-1,0-2.1-0.9-2.9c0-1,0-2-0.1-3c0.6,0,1.2-3,1.7-0.2C100.2,160.9,100.4,163.2,99.1,165.1z"/>
<path class="st8" d="M111.1,99c2.1-2,0.1-4.3,0.4-7.1c2.3,2.1,2,4.4,2.3,6.4c-0.3,0.6-0.5,1.2-0.8,1.8C112.2,100,111.4,100,111.1,99
	z"/>
<path class="st13" d="M124,311c3.4,9.7,4.1,19.8,5.8,29.8c-2.2-10-5.6-19.7-6.7-29.9C123.4,310.5,123.7,310.5,124,311z"/>
<path class="st13" d="M137,278.2h2.1c4.6,3,10,1.5,14.9,2.7c1.7,0.4,3.5,0.1,6.3,0.1C155.5,284,141.5,281.9,137,278.2z"/>
<path class="st13" d="M130,359c0.9,0.4,0.9,1.3,1,2.1c-1.2,6.9-2.4,13.8-7.1,19.5C127,373.6,128.6,366.3,130,359z"/>
<path class="st13" d="M125.2,251.8c1.3,6,0.6,12.2,0.6,18.3c0.2-4-4.1-6.4-5-10.5c2.8-0.1,1.8,2.5,4.4,2.5L125.2,251.8z"/>
<path class="st13" d="M124,311h-0.5H123l-3.8-11.2C123,302.7,123.9,306.7,124,311z"/>
<path class="st18" d="M154.1,199l-3.1,1c1.6-6,4-11.5,9.2-15.5c0.7,3.3,0.7,3.3-1.7,4.2c-2,0.7-2.1,3.2-1.3,5
	C158.3,196.2,156,197.7,154.1,199z"/>
<path class="st0" d="M167.6,174.9c3.4-2.2-0.4-6.5,2.6-8.8c0,5.2,0.5,10.5-2.2,15.3C165.6,179.3,166.9,177.1,167.6,174.9z"/>
<path class="st24" d="M189.1,260c-1.7,1-3.7,1.3-5.5,0.9c-8.5-1.6-17-3-25.7-2.3c-8.2,0.7-16.2,0-23.6-3.7c-4.8-0.1-4.5-3.9-5-7.1
	c-0.1-2.8-0.2-5.7-0.3-8.5c-0.3-2.8-0.8-5.6,0.3-8.3c1.2-0.4,1.5,0.3,1.7,1.3c0,3-0.2,6,0,8.9c0.7,10.3,4.3,14,14.7,14.9
	c3.6,0.3,7.3,0.4,10.9,0c7.7-0.7,15.2,0.6,22.8,1.7c2.9,0.5,6,0.2,8.8-0.8c0.8-0.3,2.4-0.9,3,0.7C191.6,259.5,189,258.6,189.1,260z"
	/>
<path class="st9" d="M190,242.1c-0.2,2,0.1,4.3-2.7,5.8c-1.2-4.5,2-8.6,0.1-12.8c-0.9,4.1-1.8,8.1-2.6,12l-1-0.2
	c1.1-7.7,2.2-15.3,3.3-23l0.7,0.1v8.1c1.8-0.6,0.7-2.6,2-3.1C191.4,233.3,189.2,237.8,190,242.1z"/>
<path class="st13" d="M190,242.1c-2.1-2.5-1.1-5.3-0.6-7.9c0.4-1.8,0.5-3.6,0.4-5.3c0.1-0.3,0.2-0.6,0.3-0.8l1,1.1
	C190.8,233.5,192.1,238,190,242.1z"/>
<path class="st9" d="M130,231c-2.2,2.5-0.1,5.6-1.1,8.3c-1-3.7-0.7-7.5-0.8-11.3l2,0.2C130.6,229,130.6,230.1,130,231z"/>
<path class="st9" d="M130,231c-0.4-0.9-0.4-2,0-2.9c1.2-1.5,1.8-0.9,2,0.6c0.1,1.3-0.3,2.5-1.1,3.5L130,231z"/>
<path class="st25" d="M132.7,117.9c0.7,0.3,1.9,0.8,1.8,0.9c-0.3,1.2-1.2,0.1-1.8,0.3c-5.7,5-9,11.4-10.9,18.7c-0.8,3,0.8,6.5-2.2,9
	c-1.2,0.8-0.1,1.4,0.1,2c-0.7,1.2-1,2.7-0.9,4.1c-0.8,2.3-1.1,4.7-0.7,7.1c0.3,1.6,0.5,3.5-2.2,2.8c0.3-14.4,1.9-28.5,11-40.5
	C128.5,120.4,130,118.3,132.7,117.9z"/>
<path class="st26" d="M118.5,67.7c-0.3,2.1,0.7,4.6-2.1,5.1c-1.7,0.3-2.6-1.1-2.2-2.9c0.4-2.1,0-5.2,2.6-5.7
	C119.1,63.8,118,66.6,118.5,67.7z"/>
<path class="st13" d="M104,184.9c-2.3-2.6-0.3-5.3,0.1-7.8c0.5-2.4,0.8-4.8,0.9-7.2c0.1-0.5,0.5-0.9,1-1c0.6,0.1,2-1.2,1.7,0.2
	C106.7,174.5,105.3,179.7,104,184.9z"/>
<path class="st13" d="M106,169l-1,1c-1-3.6-3.4-7.2-1-11.1L106,169z"/>
<path class="st13" d="M119.7,146.9c0.7-3,1.4-6,2.2-9C122,141.1,124.9,144.9,119.7,146.9z"/>
<path class="st8" d="M129.1,247.8c0.6,2.9,2.4,5.5,5,7.1c-1.1,2.3,0.3,4.7-0.1,7.1c-1,0.4-2.1,0.4-3.2,0
	C130.3,257.2,127.9,252.8,129.1,247.8z"/>
<path class="st9" d="M130.9,262c1-0.6,2.2-0.6,3.2,0h0.1c0.3,0.3,0.3,0.8,0,1.2c0,0,0,0,0,0c-0.5,3.7-3.4,5.2-6.2,6.9
	c0-2.7,0.1-5.3,0.1-8L130.9,262z"/>
<path class="st8" d="M134.1,263.1c0-0.4,0-0.8,0-1.2c3.8,0.9,7.1-2.1,11.5-1.7C141.9,263.1,138,263,134.1,263.1z"/>
</svg>
