<?xml version="1.0" encoding="utf-8"?>
<!-- Generator: Adobe Illustrator 24.0.1, SVG Export Plug-In . SVG Version: 6.00 Build 0)  -->
<svg version="1.1" id="Layer_1" xmlns="http://www.w3.org/2000/svg" xmlns:xlink="http://www.w3.org/1999/xlink" x="0px" y="0px"
	 viewBox="0 0 281 575" style="enable-background:new 0 0 281 575;" xml:space="preserve">
<style type="text/css">
	.st0{fill:#F2BBBB;}
	.st1{fill:#1E1C1C;}
	.st2{fill:#3A3A3A;}
	.st3{fill:#E591AB;}
	.st4{fill:#FFDCDC;}
	.st5{fill:#FEFEFE;}
</style>
<title>frame3</title>
<path class="st0" d="M116.1,115.5c0.1-1.6,1.2-1.5,2.4-1.4c0.6,0.3,1.3,0,1.5-0.6c0.1-0.1,0.1-0.3,0.1-0.5l-0.1,0.1
	c1.2,0.2,2.8,0,2.1,2.2c-0.5,1.4-0.9,2.8-1.1,4.3c-0.2,1.2-1.1,2.9,0.3,3.6s2.9,0.1,3.9-1.2c2-2.7,5.1-4.2,8.5-4.2
	c2.1-0.1,4.2-1.1,6.3-1.7c9.2-4.5,18.5-3.8,27.8-0.9c-0.1,0.7,0.3,1,0.9,1l6.2,4.4l0.1,0.4l0.5,0.1c1.3,1.3,2.2,3.1,4.4,3l-0.1,0.1
	c2.7,1.9,5.8,3.4,4.9,7.6c0,0.2,1,0.7,1.5,1c-1,3.6,0.3,6.9,1.4,10.2c-0.2-3.2-0.3-6.4-0.5-9.7c3.2,4.8,3.3,10.3,4,15.7
	c1.2,9.7,1.8,19.5,2.8,29.2c0.1,1.1-0.5,3.5,2.3,2.1v1.9c-3.7,1-2,4.3-2.8,6.6c-2.7,4.6-5,9.3-3,14.9c-0.2,1.8-0.2,3.6-0.1,5.5
	c0.4,3.3,2.1,6.9,1.3,9.9c-1.5,6.2-1.1,12.4-1.2,18.6c-1,2.6,1.1,2.1,2.4,2.5l0.1,1.7c-0.5,3.5,1.3,9.8,3.1,11.2
	c1.3,9-1.1,11.9-9.2,11.8c-1.8,0-2.7-2-4.5-1.3c-0.9-0.6-2.1-0.7-3.1-0.3c-1.2-0.6-2.7-0.7-4-0.2c-1.6-0.8-3.2-1.2-4.9,0
	c-2.7-0.1-5.4-0.6-7.9-0.2c-4.8,0.8-6.4-1.2-7.2-5.7c-0.5-3.1,0.8-5.3,3.1-5.1c5.9,0.5,6.3-3.5,6-7.1c-0.7-7.4,2.1-13,7.8-17.3
	c1.8-1.3,1.6-2.6,0.3-4.1c0.3-0.9-1.8-2.4,0.7-2.7c2,1.1,3.8,1.5,4.5-1.5c0.5-2.2,1.7-4.2,1.9-6.6c1.3-14.7,1-29.5,2.9-44.1
	c1-7.7-2.3-15-2.1-22.7c0-13.1-10.6-23.8-23.7-23.9c-0.1,0-0.1,0-0.2,0c-7.3,0.1-18.9,8.3-20.1,14.7c-1.5,8.1-3,16.2-2.9,24.6
	s0.2,16.7,0.3,25.1c0,1.9,0.2,3.8-2.1,6.1c-1.2-7.2-3.1-13.6-3.1-20c0-11.9-0.6-23.9,0.6-35.8c0.7-2,1.5-3.9,0.9-6.1l-0.2-1.1
	c1.3-0.8,1.5-2.3,2-3.5l1.1-1.9c0.2-0.4,0.6-0.9,0.5-1.1c-0.4-0.6-1-0.5-1.5-0.1c-1.4,0.3-1.8,1.4-2.1,2.6l-1.8,2
	c-4,1.9-5.2,5.9-6.7,9.6c-0.9,1.5-1.8,3.1-2.6,4.6c-1.3,1.3-2.1,2.9-2.4,4.7c-2.1,11.3-3.6,22.5-3.2,34.2
	c0.4,12.6,0.6,25.3-4.4,37.7c-4.1,10.2-5.7,21.4-8.4,32.2c-2-4.5-0.7-9.1-0.4-13.6c2.3-4.5-1-8.2-1.8-12.2l0.3-7l0.7-2.8L99,212
	c1.5-4.3-1.9-2.8-3.8-3.2c-0.7-2.5,0.5-5,1.4-7c1.6-3.5-1-7.5,1.9-10.5c2.5,2.1,1.3,4.8,1,7.3c-0.2,2.1-1.2,4.3,0.9,6.8
	c1.1-4,1.5-8.1,1.4-12.2c-0.1-2.4,1.7-5.3-1.5-7.1c-2.5-4.2-2.9-9.3-1.1-13.9c1.3-1.1,3.8,2.7,4.2-0.8c1-7.8,1.5-15.7,1.5-23.5
	c-2.7,1-1.1,3.5-2.9,4.3c-2.5-4.7-3.3-10.1-2.3-15.4l2-5.6c1.9-0.5,2.5-2.4,3.7-3.7c1.8-2,2.6-0.5,3.7,0.6
	c-1.3,4.1-4.2,7.4-5.1,11.7c-0.2,1.2-0.5,2.6,0.7,3.1c1.8,0.8,1.8-1.4,1.9-2.1c1-4.4,4.1-7.9,5.3-12.1c1.1-3.9,3.3-5.6,6.6-5.7
	c0.5-4.4-3.5-1.6-4.9-3.1C114.3,118.1,116.5,117.6,116.1,115.5z"/>
<path class="st0" d="M85.2,56l1.5-0.9c3.1,0.8,6.3,0.3,6.6-3.1c0.3-2.8-3-1.4-4.7-1.7c-1.1-0.2-2.5,0-2-1.9c0.3-1.2,0.1-2.7,2.1-2.8
	c2.7-0.2,5.4,0.1,7.9,1c2.2,0.8,5.8,2.2,6.6,0c1-2.7-3.4-2.1-4.9-3.7c-0.1-0.2-0.2-0.4-0.3-0.6c3.6-2.4,7.2-1.2,10.7,0.3
	c4.7,2,8.4,1.5,10.8-3.4c0.6-0.2,1.4-0.3,0.7-1.2l0,0c1.8,1.5,3-0.4,4.3-0.9c7.2-3,14.3-5.9,22.3-5c1.5,0.2,3,0.2,4,1.5
	c1.5,2-1.5,2.1-1.5,3.5c-2.5,1.6-6.5,1.5-6.7,6.2c3.8-0.4,7.4-0.8,11-0.9c1.5,0,4.1-1.5,4.4,1.2c0.3,2.5-2.6,0.9-3.8,1.9
	c-0.6,0.4-0.9,1.2-0.7,1.9c1.4-0.1,2.8-0.1,4.3,0c4.8,0.7,9,2.4,11.1,7.2c0.8,1.9,1.3,4.5,0,5.7c-1.5,1.5-3.6-0.4-5.3-1.2
	c-1.9-1.1-3.5-2.6-4.5-4.5c-2.3-3.5-6.2-4.9-9.7-6.5c-0.8-0.4-2.1-1.6-2.8,0.4c-0.6,1.6,0.4,2.1,1.5,2.5c2.6,1.1,5.4,1.8,7.6,3.7
	c2.3,2.1,4.5,5.5,2.4,7.8s-4.3-1.4-6.3-2.6c-4.7-3-9-7.3-15.4-5.5c-3.3-2.2-3.7,0.1-3.3,2.5c0.5,2.2,1.1,4.3,1.9,6.4
	c-1.4,0.9-5.2-1-3.9,3.2c-4.9-1.2-6.6-6.6-11.3-8.5c-2.7-1-5-2.9-7.8-1.4s-0.8,4.2-0.8,6.3c0,1.5,0.5,3.6-1.1,4
	c-1.9,0.5-2.5-1.6-3.2-3.1c-0.6-1.2-0.7-3.5-2.8-2.5c-3.6,1.7-7.8,2.8-9.2,7.5c-0.7,2.5-2.3,4.5-5.3,4.3c-1-0.1-2.4,0.1-2.8-0.5
	c-0.6-0.9,0.1-1.9,0.8-3c1.8-2.7,4-5.3,6.3-7.6c1.1-1.1,3-2.4,1.1-4c-1.4-1-3.4-0.8-4.5,0.5c-1.9,2.1-4.8,3.2-7.2,4.9
	c-1,0.7-1.6,0-2.2-0.5c-0.8-0.7-0.4-1.3,0.2-2C82.1,59.2,84.9,58.7,85.2,56z"/>
<path class="st1" d="M174.9,263.2c1.3-0.5,2.8-0.4,4,0.2c0.8,2.2,1.9,2.1,3.1,0.3c1.8-0.7,2.7,1.3,4.5,1.3
	c8.1,0.1,10.5-2.8,9.2-11.8c0.1-1.8,0.5-3.6-0.5-5.3c-1-1.9,1.3-5.3-2.7-5.8l-0.1-1.7c0.1-1.6-0.9-2.3-2.4-2.5
	c0.1-6.2-0.2-12.4,1.2-18.6c0.7-3-1-6.6-1.3-9.9c-0.1-1.8,0-3.6,0.1-5.5c2.3-2.5-0.1-7,3.8-8.9l0,0c-0.1,0.8,0.2,1.6,0.9,2
	c0.3,5.6-1.2,11.2-1.3,16.6c0,7.3-2.9,15.4,0.1,21.8c3.6,7.7,4.1,15.3,4.7,23.2c0.1,1,0,2-0.3,3c-2.3,5-2,10.2-1.2,15.5l-1.8,0
	c-0.5-1.9-0.8-3.8-1.1-5.8c-0.2-3-1.8-4.3-4.5-4c-10.5,1-20.8-2.6-31.4-1.2c-1.6,0.2-3.3,0-4.8-0.7c-2.5-1-5.8-0.7-6.9,2.1
	c-1.5,3.9-3.7,7.5-6.5,10.6c3.2-0.5,6.1,1.6,8.8,0.8c12.5-3.7,23.8,1.5,35.3,4.6c4.2,1.1,7.7,2.3,10.2-2.5l2.4-0.9
	c-0.9,3.3-2.6,6.3-5,8.7c-3.1,3.2-1.6,8.2-2.8,12.3c-0.2,1-0.2,1.9-0.2,2.9h-2.5l-0.6-1.8c-0.3-1.6-0.3-3.2-0.2-4.8
	c0.2-3.1,1.6-6.2,0.4-9.5l-1-0.9l-14-4.2c-0.8-1-1.4-2.4-3-1c-5.3-1.8-10.7-1.5-16.1-0.6c-4.1,0.7-8.3,1.2-12.2-0.7
	c-5.6-2.8-11.9-3.8-17.1-7.5c-1.9-1.3-3.7-3.5-6.5-3.1c-0.8-1.8-3.2-0.3-4-2c4.1,0.1,7.5-0.7,8.5-5.5c0.1-0.5,0.5-0.8,1-0.8
	c0.2,0,0.3,0.1,0.5,0.2c1.4,1.5-0.5,2.6-0.6,3.9c-0.1,1.8-0.1,3.2,1.8,4.1c3.3,1.5,6.5,3.1,9.8,4.7c3.8,1.8,6.2-1.1,8.7-2.9
	c2.1-1.4,1.6-3.7,0.2-5.7l1.2-1.2c2.2,0.2,3.5-1.6,5.2-2.4c1.9-0.8,5.6,0.6,5.7-2.3s-3.8-2.8-5.7-4.4c-0.7-0.7-1.7-1-2.7-0.8
	c-0.7,0.3-1.6-0.1-1.8-0.9c-0.1-0.2-0.1-0.5-0.1-0.7c0.1-1,0.9-1.7,1.9-1.7c0.1,0,0.1,0,0.2,0c4.6,0.8,8-2.5,12.2-3
	c1.8,2.9,2.8,1,3.1-0.8c0.7-3.4,1.5-6.8,0.1-10.3c0.8-6.8,6.6-9.8,10.8-14c1.3,1.5,1.5,2.8-0.3,4.1c-5.7,4.3-8.5,9.9-7.8,17.3
	c0.3,3.6,0,7.6-6,7.1c-2.3-0.2-3.6,1.9-3.1,5.1c0.8,4.5,2.4,6.5,7.2,5.7c2.6-0.4,5.3,0.1,7.9,0.2
	C171.3,264.6,173.5,264.6,174.9,263.2C174.9,263.2,174.9,263.2,174.9,263.2z"/>
<path class="st0" d="M97,503.7c0.5-2.3,2.4-2.5,4.3-2.8c2.7,2,5-0.5,6.3-1.5c7.7-6.3,15.9-12.7,13.1-24.6c1.1,0.2,2.3,0.3,3.5,0.3
	c9-0.8,17.1-0.4,17.3,11.7c0,0.4,0.5,0.8,0.8,1.2l1-1c2.5,0.6,2.7,2.7,2.9,4.7c-4.7,0.7-0.5,4.5-2.1,6.2c-6.3-0.4-12.6,0.7-18.3,3.3
	c-1,0.4-2.5,0.6-1.8,2.2c0.5,1.1,1.6,0.8,2.6,0.3c5.5-2.2,11.5-3.1,17.4-2.6c-7.3,3.3-14.7,6.3-22.8,7c-1.8-0.2-3,1-4.6,1.5
	c-6.4,2.1-12.7,4.7-19.6,4.9c-1.6,0-3.3,0.1-3.7-1.6c-0.5-2.2,1.7-2.2,3-2.4c5.3-0.9,10.7-1.6,16.1-2.2c3.6-0.4,7.1-1.3,10.5-2.7
	c0.7-0.3,1.5-0.8,1.3-1.8s-1.1-1-1.9-0.8c-7.2,1.6-14.5,2.7-21.8,3.3C97.6,506.3,97,506,97,503.7z"/>
<path class="st0" d="M175,90.6l0.5,1.5c-0.3,2,1.1,3,2.4,4.1c0.6,1.3,0.9,2.8,2.9,2.8c0.4,0,1,0.3,0.6,1c0,0.1-0.2,0.1-0.3,0.1
	c-0.2-0.5,0-1.2,0.5-1.4c0.1,0,0.1-0.1,0.2-0.1l1,1.1c1.6,1.6-0.2,4.4,2.1,5.7l4.2,10.2c0,0.2,0,0.4,0.2,0.5c0.2,2.3,0.3,4.7,0.5,7
	l0,0c-2.2,0.7-4.5,1.7-6.7,0c-3.8-5.5-9.5-9.4-16-11c-8.3-2.9-16.5-1.4-24.8,0c0-3.4,3.7-3.4,5-5.6l1.1-0.7l1.1-0.8
	c5.2-4.8,10.9-9.3,9.4-17.7c1.4,0.7,1.2-0.7,1.7-1.3s0.7-1.4,1-2.1c0.5-1.4,1.1-2.8,1.6-4.2c4.1-0.8,6.3,1.4,8,4.8
	C172.4,86.4,172.4,89.3,175,90.6z"/>
<path class="st0" d="M204.5,483.9L204.5,483.9c3.9-1.5,7.3-1.4,9.1,3.3c3.2,4,5.6,8.6,7.2,13.5c1,2.9,0.8,5.2-2.1,7.2
	c-5.9,4.2-12.8,6.7-18.3,11.2c-5.8,4.8-12,3.5-19,3.5c2.6-3.7,7.4-3.6,8.8-7.4c3.3-3.8,7.5-7,8.7-12.3c1.5-3.1,1.7-6.7,0.5-10
	c-1.1-2.8,0.3-4.5,2-6.3C202.2,485.6,204.2,485.7,204.5,483.9z"/>
<path class="st1" d="M156.8,413.1c-4.4-8.7-9.4-17.3-11.2-26.7c-1.2-6.5-2.1-13.2-3.1-19.8c-0.9-5.9-2.7-11.6-5.4-16.9
	c-0.3-1.5,1-3.6-1.2-4.2c-1-0.3-0.8,1.5-0.9,2.4c-2.2,4.4-4.5,8.7-6.4,13.2c-1,2.2-1.9,4.5-1.1,7.1c0.9,2.2,0.6,4.7-0.8,6.7
	c-1.3,2.2-1,5.9-0.4,8.7c1.5,7.7,1.3,15.4,1.4,23.1c-1.8,0.7-2-1.4-3.2-1.8c0.2-5.7,0.7-11.4-0.4-17.1c1.2-5.2,0.2-6.8-3.8-6
	c-0.1-3.4,1.3-6.7,3.9-9c0.8-0.8,2.7-2.3,0.7-3.1c-4.6-1.8-7.3-6.9-12.9-6.9c-1.3,0-3-0.4-3.5-3.1c5,1,9.8,3.5,14.3,0
	c2.6,0.8,4-0.8,5.2-2.7c1.9-3,2.5-6.4,3.2-9.8c2.6-3.5,3.2-8.1,1.7-12.2c-2.5-7.2-4.8-14.5-7-21.8c-0.7-2.2-1.8-4.5-0.5-7.1
	c1.8,1.2,2.2,2.9,2.7,4.4c3.1,9.1,6.2,18.2,9,27.4c1.7,5.5,6.6,10,6.5,15.8c-0.2,10,4.7,19,4.9,29c0.1,6.2,3.9,11.9,5.7,17.9
	C153.8,405.2,157.9,408.6,156.8,413.1z"/>
<path class="st1" d="M212,453.9c-0.4,4-3.6,0.6-5,1.9v-1.6c3.3-0.9,2.1-3.2,1.5-5.2c-0.4-1.3-1-2.9-3.1-2.3
	c-8,2.3-16.2,3.7-23.4,8.3l-4,0c0.8-2.8-0.9-3.1-3-3c-5.8-9.2-8.2-20-13.3-29.6c2-0.8,2.8,2.3,4.8,1.5c0.2,0.1,0.4,0.2,0.5,0.4
	c-0.3,0.5-0.9,1.2-0.7,1.6c2,5.1,4.2,10.2,6.3,15.2c1.4,3.2,2.8,6.4,5.2,9.1c1.7,2,3.3,2.4,5.3,0.5c6.4-1.9,12.7-4.4,19.3-5.7
	c3.5-0.7,2.6-3,1.8-5.4c-4.6-13.2-9.1-26.5-13.7-39.8l0.5-3.9l-1.3-2.8c-0.8-3.2-1.6-6.5-2.4-9.7c-1.3-5.6-2.8-11.1-4-16.7
	c-0.4-1.9-0.9-2.4-2.3-0.7l-1.9-1c-0.2-5.7,0.3-11.4,1.6-17c2.4-1.9,1.8-3.9,0.4-6c0.3-5.8,0.6-11.5,1-17.3c0.2-2.9-0.7-6,1-8.7
	c2.6-0.3,1.5-2.6,2.1-4h1.8c-0.3,4.2-0.5,8.5-0.9,12.8c-0.8,7.7-3,15.3-1.3,23.2c0.7,3-3.5,5.2-2.5,8.7c-2.1,5.5-1.8,6.1,2.7,5.4
	c2.7,10.7,5,21.5,8.1,32c4,13.7,8,27.5,12.1,41.2c1.6,5.5,6.5,7.1,7.9,11.7C213.2,449.3,212.4,451.6,212,453.9z M210.4,448.2
	c0.4,0,0.5-0.2,0.2-0.5c0,0-0.2,0.1-0.4,0.1L210.4,448.2z"/>
<path class="st1" d="M85.2,56c-0.2,2.7-3,3.2-4.4,5c-0.6,0.8-1,1.4-0.2,2c0.6,0.5,1.2,1.1,2.2,0.5c2.4-1.6,5.4-2.8,7.2-4.9
	c1.2-1.3,3.1-1.5,4.5-0.5c1.9,1.5,0,2.9-1.1,4c-2.4,2.3-4.5,4.9-6.3,7.6c-0.7,1-1.5,2-0.8,3c0.4,0.5,1.8,0.4,2.8,0.5
	c3.1,0.2,4.6-1.8,5.3-4.3c1.4-4.7,5.6-5.8,9.2-7.5c2.1-1,2.2,1.3,2.8,2.5c0.7,1.5,1.4,3.6,3.2,3.1c1.5-0.4,1.1-2.5,1.1-4
	c0-2.2-2-4.8,0.8-6.3s5.1,0.3,7.8,1.4c4.7,1.8,6.4,7.2,11.3,8.5c3,1,4.1-0.3,3.9-3.2c-0.8-2.1-1.4-4.2-1.9-6.4
	c-0.3-2.4,0-4.6,3.3-2.5c-1.3,3.5-0.6,6.7,1.1,9.8c-1.5,4.5-4.5,6-9,4.9c-2.1-1.9-3.9-4.2-6.7-5.1c-0.7-2.5-4.4-0.5-5.1-3.2
	c-0.4-1.1-1.6-1.8-2.7-1.4c0,0-0.1,0-0.1,0c-1.5,0.9-0.4,2.4,0,3.5c1.8,4.6-0.3,7.5-5.6,7.3c-0.4-0.7-1.2-1.1-1.9-0.9
	c-1.8-0.8-2-4.8-4.6-3.4s-2.8,4-1.5,7.2c1.1,3-0.2,6.4-2.7,8.5c-3.7,3.2-3.1,6.5-1.2,10.2c1.7,3.2,3.2,6.5,4.8,9.8l-1.4,1.5
	c-3.2-5.1-5.8-10.7-7.6-16.4c-0.7-2,0.5-2.4,1.4-3.5c2.7-3.2,5.2-6.6,3.4-11.4c-2,1.1-3.7,2.5-5,4.3c-2.2,2.6-4,1.1-5.6,0.3
	s-2.2-2.9-1.2-4.9c0.7-1.5,1.1-3,1.7-4.6c0.6-0.5,0.7-1.5,0.2-2.1c-0.1-0.1-0.8,0.2-1.2,0.3c-1.9,0.6-3.3,4.1-5.8,1.4
	c-1.4-1.5-3.3-4.2-1.8-5.5C80,58.9,81.8,56,85.2,56z"/>
<path class="st2" d="M137.1,64.1c-1.7-3.1-2.4-6.4-1.1-9.8c6.4-1.8,10.7,2.5,15.4,5.5c2.1,1.3,4.2,5,6.3,2.6s0-5.7-2.4-7.8
	c-2.1-1.9-5-2.6-7.6-3.7c-1.1-0.5-2.1-1-1.5-2.5c0.7-2,2.1-0.7,2.8-0.4c3.5,1.7,7.3,3,9.7,6.5c1.1,1.9,2.6,3.5,4.5,4.5
	c1.7,0.8,3.8,2.7,5.3,1.2c1.3-1.2,0.8-3.9,0-5.7c-2-4.9-6.3-6.5-11.1-7.2c-1.4-0.1-2.8-0.1-4.3,0c-0.2-0.7,0.1-1.5,0.7-1.9
	c1.1-1,4,0.6,3.8-1.9c-0.3-2.7-2.9-1.3-4.4-1.2c-3.6,0.1-7.2,0.6-11,0.9c0.1-4.7,4.2-4.6,6.7-6.2c0.1,0.2,0.1,0.5,0,0.7
	c1.2,2.4,3.3,0.9,5.1,1.1c1.2,0,2.3,0,3.5,0.2c2.1,0.3,5.9-1.7,3.5,3.7c-0.9,2,2.8,4.3,5.2,5.5c3.5,1.7,7.3,11.1,5.4,14.2
	c-1.2,2-3.2,0.9-4.9,0.4c-2.5-0.7-5.5-3.3-6.2,1.9c-0.1,0.5-0.9,0.9-1.5,1.3c-1.5,0.9-4.5-0.4-4.6,1.5c-0.1,3.3-0.7,6.9,1.5,10
	c-0.9,1-3.1,0.5-2.8,2.7c-0.2,0.8,0.3,1.6,1,1.9v-0.1c-1.8,2.2,0,4.1,0.4,6.2l-0.6,2.2c-2-0.8-0.1-6.5-5-3.9
	c-0.9,0.5-1.1-1.2-0.6-1.7c2.5-2.9,1.6-6.9,3.4-10.2c1.3-2.5,1.5-7.6-0.1-9.3c-3.7-4.1-8.5-7-13.8-8.5
	C138.2,59.7,140.1,62.2,137.1,64.1z"/>
<path class="st1" d="M98.4,191.3c-2.8,3.1-0.2,7-1.9,10.5c-0.9,1.9-2.1,4.4-1.4,7c-0.2,4.2-0.4,8.5-0.7,12.6c3,0.1-0.4-4.7,3.5-3.4
	c-0.1,2.3-0.2,4.6-0.3,7c-3.3,1.2,0.1,3.4-0.7,5c-1.9-0.1-2,1.1-2,2.6c0,3.2-0.1,6.3-0.1,9.5c-1.4-1.3-0.6-4.8-4-4
	c-1.5-13.2,2-26,3.3-38.9c0.7-6.3,4.3-12.9-2-18.5c-0.1-0.1-0.1-0.3-0.1-0.5c1.7-15.6-4.9-31.9,3.1-47.1l4.5,3.7
	c-1,5.2-0.2,10.6,2.3,15.3c-0.6,6.7-2.9,13.2-2.8,20c-1.9,4.5-1.5,9.7,1.1,13.9C98.5,187.4,98.1,189.3,98.4,191.3z M95.8,137
	c-4.4,14.4,1,29-1,43.4C98.6,166,99.3,151.6,95.8,137z"/>
<path class="st1" d="M190.1,515.2c-1.4,3.8-6.2,3.7-8.8,7.4c7.1,0,13.3,1.3,19-3.5c5.5-4.6,12.5-7,18.3-11.2
	c2.9-2.1,3.2-4.3,2.1-7.2c-1.6-4.9-4-9.4-7.2-13.5l0.3-0.3h3c3.2,4.6,5.7,9.7,7.2,15.1c0.5,1.6,1.4,3,2.5,4.2c3.1,3.2,2,6.1-1,8.1
	c-6.6,4.5-13.6,8.4-20.8,11.8c-0.3,0.2-0.9-0.1-1.3-0.2c-2.2-2.8,0.8-3,2-3.6c6.2-2.9,11.8-6.6,17.5-10.2c1-0.6,2.3-1,1.2-2.5
	c-0.4-0.7-1.4-0.9-2-0.4c-0.2,0.1-0.4,0.3-0.5,0.5c-3,3.8-7.6,4.9-11.5,7.1c-8.8,5.1-17.4,10.8-28.4,9.1c-1.9-0.3-4.2-0.7-5.7,1.7
	c5.9,3,11.8,0.5,17.7,0.8l1.1,2.4c-6,0-12,2.2-17.9-0.1c-1-0.4-3.2-0.2-2.5-2.1s-0.8-4,1.3-5.5c4.3-3.1,8.5-6.3,12.8-9.5
	L190.1,515.2z"/>
<path class="st1" d="M100,444.3c-4.4-1.4-3.8-5.5-3.3-8.2c1.1-6.5-1.7-12.3-3.1-18.1c-2.2-8.7-5.4-17.1-8.7-25.4
	c-3-7.6-3-15.8-4.8-23.6c2,0.3,2.8,2.2,4.4,3c2.6,6.6-0.4,13.9,2.8,20.4c1.3,2.6,2.4,5.4,3.3,8.2c2.9,9.2,6,18.5,8.8,27.8
	c0.8,2.6,1.5,7,5.5,7.4c7.8,0.8,15.6-1.6,21.5-6.7c2.3-3.6,2-7-0.8-10.3l-0.4-4.6c1.4,0,1.6-1.5,2.7-2c0.7,6.4,0.3,13,5.8,18
	c1.6,1.5,2.1,3.8,1.4,5.9h-3c-0.7-3.5-2.5-4.7-5.9-2.9c-6.6,3.4-13.5,5.7-21,6c-1.3-1.6-3.5-2.4-5.5-1.9c-1.4,0.3-1.3,1.1-0.3,1.9
	C98,441,102.5,442.1,100,444.3z"/>
<path class="st0" d="M100,444.3c2.5-2.2-2-3.3-0.8-5.3h5.8c7.5-0.2,14.4-2.6,21-6c3.4-1.8,5.2-0.7,5.9,2.9c0.2,2-1.1,2.7-2.7,3.6
	c-8.9,4.9-18.1,7.9-28.4,6.4C100.2,445.6,99.9,444.9,100,444.3z"/>
<path class="st1" d="M97,503.7c0,2.3,0.6,2.6,3.2,2.4c7.3-0.6,14.6-1.7,21.8-3.3c0.9-0.2,1.7-0.2,1.9,0.8s-0.6,1.6-1.3,1.8
	c-3.4,1.4-6.9,2.3-10.5,2.7c-5.4,0.6-10.7,1.3-16.1,2.2c-1.2,0.2-3.5,0.2-3,2.4c0.4,1.7,2,1.6,3.7,1.6c6.9-0.2,13.2-2.8,19.6-4.9
	c1.5-0.5,2.8-1.8,4.6-1.5v2.6c-3.9,1.3-7.9,2.4-11.8,3.9c-4.8,2-9.9,2.8-15,2.5c-2.3-0.2-4.8-0.8-5.5-3.2c-0.5-2.3,0.8-4.6,3.1-5.2
	C94.5,507.7,93,502.8,97,503.7z"/>
<path class="st2" d="M119.3,39.2c-2.4,4.9-6.1,5.4-10.8,3.4c-3.5-1.5-7-2.7-10.7-0.3c0.1,0.2,0.2,0.4,0.3,0.6c1.5,1.5,5.9,1,4.9,3.7
	c-0.8,2.3-4.4,0.8-6.6,0c-2.5-0.9-5.3-1.2-7.9-1c-2,0.1-1.8,1.6-2.1,2.8c-0.5,1.9,0.9,1.7,2,1.9c1.8,0.3,5-1.2,4.7,1.7
	c-0.3,3.4-3.5,3.9-6.6,3.1c1.2-1.5,2-3.3-1-2.8c-3.7,0.7-3.5-1.4-3.9-3.9c-0.6-3.2,1.2-3.7,3.5-3.8c4.7-0.1,9.2-1.8,12.8-4.8
	c4.3-3.4,10.8-2.1,15.5-0.4c2.9,1.1,3.1-1.1,4.6-1.2L119.3,39.2z"/>
<path class="st1" d="M183.1,122.9c2.2,1.8,4.5,0.8,6.7,0c0.1,1.3,1.2,2.2,2.5,2.2c-2.7,1.6-4.1,2.6-2.7,6.9
	c5.2,15.7,6,32.1,6.4,48.5c-2.7,1.4-2.2-1-2.3-2.1c-1-9.7-1.7-19.5-2.8-29.2c-0.6-5.4-0.8-10.9-4-15.7c0.1-0.7-0.3-0.8-0.9-0.6
	c-0.5-0.4-1.5-0.8-1.5-1c1-4.2-2.2-5.8-4.9-7.6C180.5,123,182,123.2,183.1,122.9z"/>
<path class="st1" d="M80.1,366c0.7-4.3,1.3-8.6,0.3-13.1c-0.9-4.2,0.6-8.5,1.8-12.5c0.8-2.5,0.6-4.9,1-7.3
	c3.6-6.6,5.8-13.8,6.7-21.2l0.1,0.1c2.4,0.3,1.4-5,4.8-3c-7.8,18.5-12.2,37.7-9.9,58L80.1,366z"/>
<path class="st0" d="M193.9,528.6c-5.8-0.4-11.8,2.2-17.7-0.8c1.5-2.4,3.8-2,5.7-1.7c11,1.6,19.6-4.1,28.4-9.1
	c3.9-2.3,8.6-3.3,11.5-7.1c0.4-0.7,1.3-1,2-0.6c0.2,0.1,0.4,0.3,0.5,0.5c1.1,1.5-0.3,1.9-1.2,2.5c-5.7,3.6-11.4,7.4-17.5,10.2
	c-1.2,0.6-4.3,0.8-2,3.6V526c-2-2.8-3.2-0.1-4.6,0.8L193.9,528.6z"/>
<path class="st2" d="M175,452c2.1-0.1,3.8,0.2,3,3c-0.2,0.2-0.3,0.4-0.2,0.7c-0.9,2.8,0.7,4.6,2.7,5.9c1.4,0.9,2.8,0.2,3.4-1.4
	l0.1-0.2c7.4-3,15.4-3.5,23-5.7v1.6c-2,4.4-5.8,4.6-9.8,4.2c-2.6-0.3-4.9,0.8-6.9,2.2c-7.8,4.9-14.3,2.4-16.4-6.2
	C173.4,454,174.2,453.1,175,452z"/>
<path class="st2" d="M94.9,309c-3.5-2-2.4,3.3-4.8,3c-0.7-4.6,1.9-8.6,2.9-12.8c0.8-3.3,2.3-6.5,1.8-10.1c1.3-0.8,1.2-2,1.1-3.3
	c0.1-3.7,3.2-6,4.3-9.3c0.5-1.5,1.9-0.4,2.8,0.4c-1.3,4.3-6.2,7.7-3.3,13.1c-0.6,0.5-0.9,1.4-0.7,2.2L99,296
	c-0.9,0.5-0.9,1.3-0.9,2.2v1.8l-1,1.2c0.1,0.3,0,0.5-0.1,0.8c-1.3,0.8-1,2-0.9,3.2c0,0.3,0,0.6-0.1,0.8c-1,0.5-1,1.3-0.9,2.2
	C95.2,308.5,95.1,308.8,94.9,309z"/>
<path class="st2" d="M147.3,106.2c-1.3,2.2-5,2.3-5,5.6c-1.9,0.8-2.5,2.2-2.3,4.2c-2.1,0.6-4.2,1.6-6.3,1.7c-3.3,0-6.5,1.5-8.5,4.2
	c-1,1.3-2.6,2-3.9,1.2s-0.5-2.4-0.3-3.6c0.2-1.5,0.6-2.9,1.1-4.3c0.8-2.2-0.8-2-2.1-2.2c-0.6-2,0.9-1.9,2.1-2
	c0.8,0.2,1.8,0.9,2.2-0.5c3.1,2.2-0.6,5.2,0.5,7.3c8-2.8,14.4-8.3,21.2-12.8L147.3,106.2z"/>
<path class="st1" d="M153,80.2c-0.3-2.2,2-1.7,2.8-2.7h5.3c0.8,0.6,1.9,0.5,2.5-0.2c0,0,0,0,0,0c6.8,0.1,13.1,6.6,12.6,13.1
	c0,0.1-0.8,0.1-1.2,0.2c-2.6-1.3-2.6-4.2-3.7-6.4c-1.7-3.4-4-5.5-8-4.8l-2.5-0.1c-1.6,0.4-4-1-4.6,1.4c-0.7,2.6-0.1,5.2,2.8,6.5
	l-0.1-0.1c1.5,8.4-4.2,12.9-9.4,17.7l-1-1.1c2.4-4.1,8-7,5.3-13.2c0.2-0.7,0.4-1.5,0.6-2.2c0.9,0.6,0.3,2.4,3.1,2.5
	c-3-2.7-2-6-3.5-8.7v0.1C154.1,81.2,154,80.5,153,80.2z"/>
<path class="st2" d="M121,510.6v-2.6c8.1-0.6,15.5-3.6,22.8-7c4-0.9,0.3-2.1,0.1-3.2c1.7-1.8-2.6-5.5,2.1-6.2
	c0.5,2.7,0.8,5.3,2.4,7.9c1.4,2.1,1.9,6.3-1.8,6.2C137.6,505.4,129.8,510.3,121,510.6z"/>
<path class="st1" d="M148.9,37.8c0.1-0.2,0.1-0.5,0-0.7c0.1-1.4,3-1.5,1.5-3.5c-1-1.3-2.5-1.3-4-1.5c-8-0.8-15.1,2.1-22.3,5
	c-1.3,0.5-2.5,2.4-4.3,0.9c1.4-4.1,5.6-4.4,8.7-5.8c7-3.3,14.2-5.8,21.9-1.4c2.3,1.3,3.3,2.8,3.4,5.2
	C152.4,36.8,151.3,39.2,148.9,37.8z"/>
<path class="st2" d="M120.6,474.8c2.8,12-5.4,18.3-13.1,24.6c-1.3,1-3.6,3.5-6.3,1.5c4.3-3.7,8.6-7.4,12.9-11c3.1-2.6,4-5.8,3.2-9.7
	c-0.4-2.1-1.6-4.8,1.4-6.3L120.6,474.8z"/>
<path class="st1" d="M96,285.8c0.1,1.2,0.2,2.5-1.1,3.3c-3.8-1.1-4.9-3.5-3.6-7.2c0.3-0.9,0-2.1,0.4-2.9c2.8-6,1.3-11-2.2-16.3
	c-1.2-1.8-0.3-5.1-0.3-7.7c1-0.1,2.9-2,2.3,0.8c-0.4,1.9,1.1,2.1,1.6,3.2c-2.7,4.1,0.8,6.7,3.1,8.3c1.8,1.2,1.8,2.3,2,3.8
	c-0.5,0-1.2-0.1-1.4,0.2c-2.6,3.9-2,8.7-3.2,13.1C93.2,285.3,94.5,286.3,96,285.8z"/>
<path class="st1" d="M116.1,115.5c0.5,2.1-1.8,2.6-2.4,4.4c1.4,1.5,5.3-1.4,4.9,3.1c-3.3,0.1-5.5,1.8-6.6,5.7
	c-1.2,4.2-4.3,7.7-5.3,12.1c-0.2,0.7-0.1,2.9-1.9,2.1c-1.2-0.5-0.9-1.9-0.7-3.1c0.9-4.3,3.8-7.6,5.1-11.7c1.6-2.5,1.9-5.7,4.3-8
	h-5.3l-1-0.9C109.8,117.2,112.6,115.6,116.1,115.5z"/>
<path class="st2" d="M100.9,445.9c10.3,1.5,19.5-1.5,28.4-6.4c1.6-0.9,2.9-1.5,2.7-3.6h3c0.3,4.5-3.5,5.6-6.4,7
	c-7,3.2-14.5,4.6-22,6C104.2,449.5,101.8,448.2,100.9,445.9z"/>
<path class="st1" d="M120.6,474.8l-1.8-0.9c0.3-0.4,0.6-1.1,0.9-1.1c6.1-0.2,12.3-0.5,18.4-0.2c1,0,2.4,2.7,2.8,4.3
	c0.9,3.3,2.4,6.5,2.3,10.1l-1,1c-0.3-0.4-0.8-0.8-0.8-1.2c-0.2-12.1-8.3-12.5-17.3-11.7C122.9,475.1,121.8,475,120.6,474.8z"/>
<path class="st2" d="M93,259c-0.5-1-2-1.3-1.6-3.2c0.6-2.8-1.4-0.9-2.3-0.8c-2.7-2.3,0.4-4.4,0.3-6.7c-0.2-3.4-0.2-7,1.5-10.3
	c3.5-0.8,2.7,2.7,4,4l-0.1,5.3c-2.4-0.9-2.3-3.5-3.5-5.9c-0.4,3.8,0.2,6.8-1.3,10.6c2.3-1.8,2.5-4.3,4.8-4.6c0.3,0.8-0.2,1.7-1,1.9
	c-0.1,0-0.2,0-0.3,0.1c-0.6,0.8-0.4,1.9,0.4,2.5c0,0,0.1,0.1,0.1,0.1c0.1,0.3,0.1,0.5,0.1,0.8c0,1.9,0,3.8,0.1,5.7
	C94,259,93.6,259.3,93,259z"/>
<path class="st2" d="M107.1,119.2l1,0.9c-2.6,3.3-5.3,6.5-7.7,9.9c-1.6,2.3,0.9,0.7,1.3,1.2l-2,5.6l-4.5-3.7
	C97.8,127.4,100.4,121.6,107.1,119.2z"/>
<path class="st1" d="M124.3,110.6c-0.5,1.4-1.4,0.7-2.2,0.5c-0.5-3.3-3.1-3-5.4-3c-2.8,0-5.6,0.4-8.4,0.6c-0.8-1.6-2.5-2.3-3.4-1.1
	c-1.3,1.9,2.2,1.1,2.2,2.7c-4.4,0.8-6.3-1.1-7.7-7.5l1.4-1.5c1.2,2.4,2.9,3.3,5.7,4.4c5.1,1.9,9.8-1.5,14.5,0.4c0.7,1.2,1.9,1,3,1.1
	L124.3,110.6z"/>
<path class="st1" d="M204.5,483.9c-0.3,1.8-2.3,1.7-3.2,2.7c-1.6,1.8-3,3.6-2,6.3c1.2,3.3,1,6.9-0.5,10l-3.3-0.1
	c2.3-4.5,0.3-9,0.3-13.5l0.1-1.5C198.2,485.2,200.5,482.5,204.5,483.9z"/>
<path class="st2" d="M166.5,423.8c-2,0.8-2.8-2.3-4.8-1.5l0,0c0.1-0.6-0.3-1.2-0.8-1.3v0.1c0-0.9,0-1.8-1-2.2l-1-2.3
	c0.1-1.6,0.7-3.5-2.1-3.5l0,0c1.1-4.5-3-8-2.7-12.3L166.5,423.8z"/>
<path class="st2" d="M192.3,125.2c-1.3,0-2.4-1-2.5-2.2l0,0c3.1-2.4,2.9-5.2-0.5-7c-0.1-0.1-0.2-0.3-0.2-0.5c1.6-2.4,0.6-4.8-0.3-7
	c-0.6-1.6-2.5-2.8-1.7-4.9C191.5,110.1,194.6,117,192.3,125.2z"/>
<path class="st2" d="M195.5,502.8l3.3,0.1c-1.2,5.3-5.5,8.5-8.7,12.3l-1.5-1.5C191.5,510.5,192.3,505.9,195.5,502.8z"/>
<path class="st3" d="M90,311.9c-0.9,7.4-3.2,14.6-6.7,21.2C84.2,325.7,86.4,318.5,90,311.9z"/>
<path class="st1" d="M193.2,189.1c0.8-2.3-0.8-5.6,2.8-6.6c1.4,3.8,0.8,7.6,0.6,11.5l-2.6,1l0,0
	C193.2,193.1,195.5,190.8,193.2,189.1z"/>
<path class="st3" d="M127.9,412.1c-1.1,0.5-1.3,2-2.7,2c-1.2-2.9-1.4-6.1-0.6-9.1c1.2,0.4,1.3,2.5,3.2,1.8
	C127.8,408.6,127.8,410.3,127.9,412.1z"/>
<path class="st2" d="M80.1,366l4.9,1c0.9,1.8-0.1,3.4-0.6,5c-1.6-0.8-2.4-2.8-4.4-3C79.5,368.1,79.5,366.9,80.1,366z"/>
<path class="st1" d="M187.2,103.5c-0.8,2.1,1,3.3,1.7,4.9c0.9,2.3,1.9,4.6,0.3,7l-4.2-10.2c0.4-1.4-0.5-3.1,1.1-4.2
	C186.5,101.8,187.4,102.4,187.2,103.5z"/>
<path class="st1" d="M213.6,487.2c-1.8-4.7-5.2-4.8-9.2-3.3c-1.1-1.5,0-1.8,1.1-2.2l1.5-0.5c3.1-1.4,6.1-2.5,7.2,2.3
	c-0.1,1.1-0.1,2.3-0.2,3.4L213.6,487.2z"/>
<path class="st2" d="M186.9,312h-1.8c-0.1-2.7,0.3-5.5,1.3-8.1h2.5C188.3,306.7,188.3,309.5,186.9,312z"/>
<path class="st2" d="M212,453.9c0.5-2.3,1.3-4.6,1-7c2.4,1.2,2.2,3.4,2,5.5S212.9,453.2,212,453.9z"/>
<path class="st1" d="M177.9,96.1c-1.3-1.1-2.7-2-2.4-4.1c4-0.1,5.7,2.9,7.6,5.7l-0.4,1.9l-1-1.1C180.8,97.2,179.7,96,177.9,96.1z"/>
<path class="st2" d="M184.9,362c-4.5,0.7-4.8,0.1-2.7-5.4L184.9,362z"/>
<path class="st2" d="M193.9,528.6l5-1.8l-0.9,4.2h-3L193.9,528.6z"/>
<path class="st2" d="M182.8,99.6l0.4-1.9c1.5,0.7,2.7,1.6,2.8,3.4c-1.5,1.1-0.7,2.8-1.1,4.2C182.6,104,184.3,101.1,182.8,99.6z"/>
<path class="st1" d="M198,530.9l0.9-4.2c1.4-0.8,2.5-3.6,4.6-0.8C202.1,528,200.2,529.7,198,530.9z"/>
<path class="st2" d="M107.1,110.3c-0.1-1.5-3.5-0.8-2.2-2.7c0.8-1.2,2.6-0.5,3.4,1.1C108.1,109.3,108,110.1,107.1,110.3z"/>
<path class="st2" d="M195,277l1.8-0.1c0.4,1,0.4,2.2,0,3.2l-2.4,0.9C194.6,279.7,194.8,278.3,195,277z"/>
<path class="st2" d="M135,348c0.1-0.9-0.1-2.7,0.9-2.4c2.2,0.6,0.8,2.8,1.2,4.2C136.5,349,136.4,347.8,135,348z"/>
<path class="st2" d="M214,486.9c0-1.1,0.1-2.3,0.2-3.4c1.3,0.8,3.2,1.2,2.8,3.4H214z"/>
<path class="st2" d="M194,195l2.6-1c0.7,1.8,0.8,3.1-1.7,3C194.2,196.6,193.9,195.8,194,195z"/>
<path class="st0" d="M148.9,37.8c2.4,1.5,3.4-0.9,5-1.7c0,0.9,0,1.8,0,2.8C152.3,38.7,150.2,40.2,148.9,37.8z"/>
<path class="st2" d="M163.6,77.2c-0.6,0.8-1.8,0.9-2.5,0.3c0,0,0,0,0,0C161.8,75.9,162.8,77,163.6,77.2z"/>
<path class="st1" d="M156.8,413.1c2.7,0,2.2,1.9,2.1,3.5L156.8,413.1z"/>
<path class="st1" d="M119.3,39.2l-1.3-1c0.6-0.2,1.2-1.3,1.9-0.2C120.7,39,119.9,39,119.3,39.2z"/>
<path class="st1" d="M159.9,418.9c1,0.4,1,1.3,1,2.2C160.2,420.6,159.8,419.8,159.9,418.9z"/>
<path class="st2" d="M207,481.2l-1.5,0.5C205.8,481.2,206.4,480.9,207,481.2C207,481.2,207,481.2,207,481.2z"/>
<path class="st2" d="M120.1,113c0,0.7-0.5,1.2-1.2,1.2c-0.2,0-0.3,0-0.5-0.1C118.9,113.7,118.9,112.5,120.1,113z"/>
<path class="st2" d="M195.9,487.8l-0.1,1.5C194.5,488.7,194.5,488.2,195.9,487.8z"/>
<path class="st1" d="M160.8,421c0.6,0.1,0.9,0.7,0.8,1.3L160.8,421z"/>
<path class="st4" d="M158,248.8c-4.2,0.5-7.7,3.8-12.2,3c-1-0.2-1.9,0.5-2.1,1.5c0,0.1,0,0.1,0,0.2c-0.1,0.8,0.4,1.5,1.2,1.6
	c0.2,0,0.5,0,0.7-0.1c1-0.2,2,0.1,2.7,0.8c1.9,1.6,5.8,1.5,5.7,4.4s-3.7,1.4-5.7,2.3c-1.8,0.8-3,2.6-5.2,2.4
	c-2.9-2.4-6.4-3.8-10.2-3.9l-7.9-2l-1.2-0.9l0.1-3c2.8-2.1-0.3-2.2-1-3.1l0.6-2.1c2.7-1.8,4.9-0.4,7.1,1c0.6,0.4,1.5,1,1.9-0.1
	c0.2-0.4-0.4-1.1-0.6-1.7c0.7-2.5-1.5-3.8-3-4.5c-3-1.4-3.1-3.7-4-6.4c-2-5.8-0.5-11.4-0.6-17.1c-0.1-3.4-0.5-7.6,1.2-10.8
	c2.4-4.6,1.3-11.6,8.3-13.5c0.1,0-0.1-1,0.1-1.4c2.2-4.5,2.2-9.2,2.3-14.2c0.3-10.2-0.8-20.4-0.2-30.7c0.8-1.1,2.2-2,1-3.6
	c1.4-2.5,2.4-5.1,3-7.9c0.9-0.7,1.2-2,0.6-3c0.8-1.2,2.1-1.9,2.9-3.2c4.4-7.1,10.6-9.2,18.5-6.9c2.9,0.9,4.5,3.4,6.8,4.9
	c5.9,3.7,9,9.1,8.9,16.1c-0.2,14.6-0.3,29.2-0.8,43.8c-0.3,10.2,2,20.9-4.4,30.3c-2.5,0.3-0.4,1.8-0.7,2.7c-4.2,4.2-10,7.2-10.8,14
	c-1.2,1.3-1.7,3.2-1.3,4.9C160.2,245,159.5,247.2,158,248.8z"/>
<path class="st1" d="M136.2,150.6c-0.6,10.2,0.5,20.4,0.2,30.7c-0.1,5-0.1,9.7-2.3,14.2c-0.2,0.4,0.1,1.4-0.1,1.4
	c-7,1.8-5.9,8.8-8.3,13.5c-1.7,3.2-1.3,7.4-1.2,10.8c0.2,5.6-1.4,11.3,0.6,17.1c0.9,2.7,1,5,4,6.4c1.5,0.7,3.6,1.9,3,4.5
	c-2.8,0.2-4.7-2.5-7.5-2.1c-3.3-5.6-2.9-11.8-2.8-18c0.1-8.1,0-16.2,3-24.1c1.5-3.9,5.1-7.8,4.2-11.6c-3.8-17-2.3-34.3-3-51.4
	c0.1-1.6,0.5-3.3,1.2-4.7h1.8c-1.2,11.9-0.6,23.9-0.6,35.8c0,6.4,1.9,12.8,3.1,20c2.4-2.4,2.2-4.2,2.1-6.1
	c-0.2-8.4-0.2-16.7-0.3-25.1s1.4-16.5,2.9-24.6c1.2-6.4,12.7-14.6,20.1-14.7c13.1,0,23.8,10.6,23.8,23.7c0,0,0,0.1,0,0.1
	c-0.1,7.7,3.2,15,2.1,22.7c-2,14.6-1.7,29.4-2.9,44.1c-0.2,2.4-1.4,4.4-1.9,6.6c-0.7,3-2.5,2.6-4.5,1.5c6.3-9.4,4.1-20.1,4.4-30.3
	c0.5-14.6,0.6-29.2,0.8-43.8c0.1-7-2.9-12.4-8.9-16.1c-2.4-1.5-3.9-4-6.8-4.9c-7.9-2.3-14.1-0.1-18.5,6.9c-0.8,1.3-2.1,2-2.9,3.2
	c-2.3,0.6-2.3,1.6-0.6,3c-0.6,2.8-1.5,5.4-3,7.9C135.5,147.8,136.1,149.3,136.2,150.6z"/>
<path class="st1" d="M123.1,252c0.7,0.9,3.8,1,1,3.1l-1.9,0.8c-3.5-3.4-7.8-1.3-11.7-1.5c-2.5-0.1-1,3.4-2.5,4.7
	c-0.6,0-1,0.2-0.8,0.9l1.2,2.9c-1.6,0.8-1.4,3.2-3.4,3.6c-0.2-4.9-4.2-7.9-10.8-8c0-1.9,0-3.8-0.1-5.7l4,1.5
	c0.3,1.6,1.1,2.2,1.8,0.4c0.4-1.1,0.1-2.5,0.1-3.8c2.7-10.8,4.3-22,8.4-32.2c5-12.4,4.8-25.1,4.4-37.7c-0.3-11.7,1.1-22.9,3.2-34.2
	c0.3-1.8,1.2-3.4,2.4-4.7l0.8,1.1c-0.1,4-1.7,7.8-2.7,11.6c-0.9,3.4,1.9,5.6,1.1,8.4c-4.3,14.4-1.2,29.2-2.9,43.9
	c-0.9,8.4-2.8,16.7-5.7,24.7c-2.9,7.7-5.8,15.3-5.9,23.6c0,1.2-1.2,3.4,1.1,3.6c2.9,0.2,2.5-3.4,2.3-4c-1.7-5.1,1.9-4,4.4-4
	c3.6,0,7.1,1.9,10.8,0.8L123.1,252z"/>
<path class="st3" d="M99.2,172.1c0-6.8,2.2-13.3,2.8-20c1.8-0.8,0.2-3.4,2.9-4.3c0.1,7.9-0.4,15.7-1.5,23.5
	C103,174.8,100.4,171,99.2,172.1z"/>
<path class="st1" d="M140,116c-0.2-2,0.4-3.4,2.3-4.2c8.3-1.4,16.5-2.9,24.8,0c0.6,1,0.9,2.2,0.7,3.3
	C158.5,112.3,149.2,111.6,140,116z"/>
<path class="st3" d="M101.7,131.1c-0.4-0.5-2.9,1.1-1.3-1.2c2.4-3.4,5.1-6.6,7.7-9.9h5.3c-2.4,2.3-2.7,5.5-4.3,8
	c-1.1-1.2-1.9-2.7-3.7-0.6C104.3,128.7,103.6,130.6,101.7,131.1z"/>
<path class="st3" d="M167.8,115.2c0.2-1.2-0.1-2.3-0.7-3.3c6.5,1.6,12.2,5.5,16,11c-1.2,0.4-2.6,0.1-3.4,1.4l0.1-0.1
	c0-3.1-1.4-4.3-4.4-3L175,121l-0.1-0.4c0-4.1-2.7-6-6.2-4.4C168.1,116.1,167.8,115.8,167.8,115.2z"/>
<path class="st3" d="M98.4,191.3c-0.2-2.1,0.1-3.9,1.8-5.3c3.1,1.8,1.4,4.7,1.5,7.1c0.1,4.1-0.3,8.2-1.4,12.2
	c-2.1-2.5-1.1-4.7-0.9-6.8C99.7,196.1,100.9,193.5,98.4,191.3z"/>
<path class="st2" d="M193.2,189.1c2.3,1.7,0,4,0.8,6c-3.9,1.9-1.5,6.4-3.8,8.9C188.2,198.4,190.5,193.7,193.2,189.1z"/>
<path class="st2" d="M100,250.9c0,1.3,0.4,2.7-0.1,3.8c-0.7,1.8-1.5,1.2-1.8-0.4c-0.7-5.7-1.3-11.4-0.8-17.1l2.3,0.1
	C99.3,241.8,98,246.4,100,250.9z"/>
<path class="st2" d="M98,218c-3.9-1.3-0.5,3.5-3.5,3.4c0.2-4.1,0.4-8.3,0.7-12.6c1.9,0.4,5.2-1.1,3.8,3.2c-2.7,0.9-2.2,2-0.2,3.2
	L98,218z"/>
<path class="st3" d="M99.6,237.2l-2.3-0.1c-0.1-2.4-0.2-4.8-0.2-7.2c0.8-1.6-2.5-3.7,0.7-5C98.6,229,101.8,232.7,99.6,237.2z"/>
<path class="st3" d="M192.6,242c4,0.5,1.6,4,2.7,5.8c0.9,1.7,0.5,3.5,0.5,5.3C193.9,251.9,192.2,245.5,192.6,242z"/>
<path class="st1" d="M121,137.5c1.6-3.7,2.7-7.7,6.7-9.6l1.8,1.9l0.2,1.1l-1.8,1.2c-0.7-0.1-1.2-0.1-1,0.9V133c-2.4,1-3,3.6-4.5,5.5
	L121,137.5z"/>
<path class="st3" d="M186.1,133c0.6-0.3,0.9-0.2,0.9,0.6c0.2,3.2,0.3,6.4,0.5,9.7C186.3,139.8,185.1,136.5,186.1,133z"/>
<path class="st2" d="M128,132.2l1.8-1.2c0.6,2.2-0.2,4.1-0.9,6.1h-1.8c-0.6-1.3,1.3-2.8-0.1-4.1l0,0.1
	C127.9,133.5,127.7,132.6,128,132.2z"/>
<path class="st1" d="M168.8,116.2c3.5-1.6,6.2,0.3,6.2,4.4L168.8,116.2z"/>
<path class="st1" d="M118.4,142.1c0.9-1.5,1.8-3.1,2.6-4.6l1.5,0.9c-0.2,2-1.5,3.8-3.3,4.7L118.4,142.1z"/>
<path class="st2" d="M174.9,263.2c-1.4,1.3-3.5,1.3-4.9,0C171.7,262,173.3,262.4,174.9,263.2z"/>
<path class="st1" d="M175.4,121.1c3-1.3,4.4-0.1,4.4,3C177.7,124.2,176.7,122.4,175.4,121.1z"/>
<path class="st2" d="M129.6,129.8l-1.8-1.9l1.8-2l2,0.4C131.1,127.6,130.9,129,129.6,129.8z"/>
<path class="st1" d="M98.7,215.3c-2-1.2-2.4-2.4,0.2-3.2L98.7,215.3z"/>
<path class="st2" d="M182.1,263.7c-1.2,1.8-2.3,1.9-3.1-0.3C180,263,181.1,263.2,182.1,263.7z"/>
<path class="st3" d="M190.2,237.9c1.5,0.2,2.4,0.8,2.4,2.5C191.2,240,189.1,240.5,190.2,237.9z"/>
<path class="st1" d="M131.6,126.3l-2-0.4c0.3-1.2,0.7-2.3,2.1-2.6l1,1.1L131.6,126.3z"/>
<path class="st2" d="M131.6,123.3c0.5-0.5,1.1-0.5,1.5,0.1c0.1,0.2-0.3,0.7-0.5,1.1L131.6,123.3z"/>
<path class="st2" d="M134.5,63.2c0.2,2.9-1,4.2-3.9,3.2C129.3,62.1,133.1,64.1,134.5,63.2z"/>
<path class="st4" d="M84.5,372c0.5-1.6,1.5-3.2,0.6-5c-2.3-20.3,2.1-39.4,9.9-58c0.2-0.2,0.2-0.5,0.2-0.8c1.2-0.4,1.4-1.2,0.9-2.2
	c0.1-0.3,0.1-0.6,0.1-0.8c1.5-0.7,1.5-1.8,0.9-3.2c0.1-0.2,0.1-0.5,0.1-0.8c0.6-0.2,1.2-0.4,1-1.2v-1.8c1.1-0.4,1.2-1.2,0.9-2.2
	l0.2-3.7c1.1-0.5,1.8-1,0.7-2.2c-2.9-5.4,2-8.8,3.3-13.1l2.4-1.1c1.8,0.1,3.8,1.2,4.7-1.8c0.8-2.7,3.3-3.5,5.8-4
	c2.8-0.4,4.7,1.7,6.5,3.1c5.2,3.7,11.5,4.8,17.1,7.5c3.9,1.9,8.1,1.3,12.2,0.7c5.5-0.9,10.8-1.2,16.1,0.6l3,1l14,4.2
	c0,0.6,0.3,1,1,0.9c1.2,3.2-0.2,6.3-0.4,9.4c-0.1,1.6-0.1,3.2,0.2,4.8c-2.5-0.4-4,0.2-3.8,3.2c0.3,3.5,0.1,7.1,1,10.6
	c-1.7,2.7-0.8,5.8-1,8.7c-0.4,5.8-0.7,11.5-1,17.3c-1.2,2-0.6,4-0.4,6c-1.3,5.6-1.8,11.3-1.6,17c-0.1,4.5,0.5,8.8,4,12l0.4,1.3
	l0.4-0.2l-0.7-1c0-3.8-2.8-7.1-2.1-11.1c1.4-1.7,1.9-1.2,2.3,0.7c1.2,5.6,2.7,11.2,4,16.7c-3.7,1.8-3.2,4.5-1.5,7.3
	c0.6,0.7,1.1,1.6,1.3,2.5l1.4,2.8c0.7,1.2,0.4,3,1.9,3.8c4.6,13.3,9.1,26.6,13.7,39.8c0.8,2.4,1.8,4.7-1.8,5.4
	c-6.6,1.3-12.9,3.8-19.3,5.7c0-1,0.1-2.1-1-2.7l-1-1l0.1,0.1c-0.9-3.7-3.5-6.7-7.1-8l0.1,0c-2-5.1-3.8-10.2-7.1-14.7
	c-0.1-0.2-0.2-0.4-0.5-0.4l-12.5-23c-1.8-6-5.6-11.7-5.7-17.9c-0.2-10-5.1-19-4.9-29c0.1-5.8-4.8-10.3-6.5-15.8
	c-2.8-9.2-5.8-18.3-9-27.4c-0.5-1.5-0.9-3.2-2.7-4.4c-1.3,2.5-0.2,4.8,0.5,7.1c2.3,7.3,4.5,14.6,7,21.8c1.5,4.1,0.9,8.7-1.7,12.2
	c-2.5,4.4-8.4,6.5-8.3,12.5c-4.5,3.5-9.4,1-14.3,0c0.5,2.7,2.2,3.1,3.5,3.1c5.6,0,8.3,5.2,12.9,6.9c2,0.8,0.1,2.3-0.7,3.1
	c-2.6,2.3-4,5.6-3.9,9c0.4,0.9-0.4,1.3-0.7,2c4.5-2.1,3.1,2.5,4.5,4c1.1,5.7,0.6,11.4,0.4,17.1c-0.8,3-0.6,6.2,0.6,9.1
	c0.1,1.5,0.3,3.1,0.4,4.6c-1.2,2.6,0,5.5-1.2,8.1c-0.5,1.2,0.6,2,1.9,2.2c-5.9,5.1-13.7,7.6-21.5,6.8c-4-0.4-4.7-4.8-5.5-7.4
	c-2.8-9.3-5.9-18.5-8.8-27.8c-0.9-2.8-2-5.5-3.3-8.2C84.1,385.9,87.1,378.5,84.5,372z"/>
<path class="st0" d="M195,277c-0.2,1.3-0.4,2.7-0.6,4c-2.5,4.8-6,3.5-10.2,2.5c-11.5-3-22.8-8.3-35.3-4.6c-2.7,0.8-5.6-1.3-8.8-0.8
	c2.8-3.1,4.9-6.7,6.5-10.6c1.1-2.8,4.3-3.1,6.9-2.1c1.5,0.6,3.2,0.9,4.8,0.7c10.5-1.4,20.9,2.2,31.4,1.2c2.7-0.3,4.3,1.1,4.5,4
	C194.2,273.1,194.5,275.1,195,277z"/>
<path class="st0" d="M142,266.1c1.4,2,1.8,4.3-0.2,5.7c-2.5,1.8-4.9,4.7-8.7,2.9c-3.3-1.6-6.5-3.2-9.8-4.7c-1.9-0.9-1.9-2.3-1.8-4.1
	c0.1-1.3,1.9-2.4,0.6-3.9H122c1.9,0.4,1.9-0.5,1.2-1.8l-0.1,0.1c0.5,0.8,1.2,0.2,1.8,0.2l8,2.5L142,266.1z"/>
<path class="st4" d="M108.4,262.9l-1.2-2.9l0.8-0.9c1.4-1.3,0-4.8,2.5-4.7c3.9,0.1,8.2-1.9,11.7,1.5c0,1.4-0.1,2.8-0.2,4.1
	c-0.1,0.7-1,1.3,0,2h0.1c-0.4-0.3-1-0.2-1.3,0.1c-0.1,0.1-0.2,0.3-0.2,0.4c-1,4.7-4.5,5.6-8.5,5.5c-0.3-0.1-0.6-0.2-0.9-0.1
	c-0.3-1.5-0.2-3.1-1.7-4.2L108.4,262.9z"/>
<path class="st2" d="M111.2,267.9c0.3,0,0.6,0,0.9,0.1c0.8,1.7,3.2,0.2,4,2c-2.5,0.5-5,1.3-5.8,4c-0.8,3-2.9,2-4.7,1.8
	c-0.7-0.6-2-0.4-2.4-1.5c4.7-1.3,3.7-4.1,2-7.2c0-0.2,0-0.5-0.1-0.7c2-0.4,1.8-2.8,3.4-3.6l1.1,0.8c-0.5,1.1-1,2.3-1.6,3.4
	c-1.1,0.8-1,1.4,0.2,1.9C109.6,269.9,110.3,268.6,111.2,267.9z"/>
<path class="st3" d="M183,316c-0.9-3.5-0.7-7.1-1-10.6c-0.2-3.1,1.2-3.6,3.8-3.2l0.6,1.8c-1,2.6-1.4,5.3-1.3,8.1
	C184.5,313.4,185.6,315.7,183,316z"/>
<path class="st3" d="M158,248.8c1.6-1.6,2.3-3.9,2-6.1c-0.4-1.8,0.1-3.6,1.3-4.9c1.4,3.4,0.5,6.9-0.1,10.3
	C160.8,249.8,159.8,251.7,158,248.8z"/>
<path class="st2" d="M142,266.1l-9-3.1v-2c3.7,0.2,7.3,1.6,10.1,4L142,266.1z"/>
<path class="st2" d="M171,282.8l-3-1C169.6,280.4,170.2,281.8,171,282.8z"/>
<path class="st2" d="M186,287.9c-0.7,0.2-0.9-0.2-1-0.9L186,287.9z"/>
<path class="st1" d="M144,497.8c0.2,1.1,3.9,2.2-0.1,3.2c-5.9-0.5-11.9,0.5-17.4,2.7c-1,0.4-2.1,0.8-2.6-0.3
	c-0.7-1.6,0.7-1.8,1.8-2.2C131.4,498.5,137.7,497.4,144,497.8z"/>
<path class="st1" d="M189.3,116c3.5,1.8,3.7,4.6,0.5,7C189.6,120.6,189.5,118.3,189.3,116z"/>
<path class="st2" d="M177.9,96.1c1.8-0.1,2.9,1.1,3.9,2.4c-0.6,0.1-0.9,0.7-0.8,1.2c0,0.1,0,0.2,0.1,0.2c0.1,0,0.3-0.1,0.3-0.1
	c0.4-0.7-0.2-1-0.6-1C178.8,98.9,178.5,97.3,177.9,96.1z"/>
<path class="st3" d="M160.8,79.3l2.5,0.1c-0.5,1.4-1.1,2.8-1.6,4.2l-1-0.8C160.7,81.6,160.8,80.5,160.8,79.3z"/>
<path class="st3" d="M161.6,83.6c-0.3,0.7-0.7,1.4-1,2.1l-0.8-0.8l0.9-2.1L161.6,83.6z"/>
<path class="st1" d="M147.3,106.2l-1.3-1.1l1.2-0.8l1.2,1.2L147.3,106.2z"/>
<path class="st3" d="M160.6,85.7c-0.5,0.6-0.3,2-1.7,1.3l0.1,0.1c-0.2-0.8,0.1-1.7,0.8-2.2L160.6,85.7z"/>
<path class="st1" d="M149.5,104.7l-1.1,0.8l-1.2-1.2l1.2-0.7L149.5,104.7z"/>
<path class="st3" d="M122.9,359.8c-0.1-6.1,5.8-8.2,8.3-12.5c-0.6,3.4-1.3,6.8-3.2,9.8C126.9,359,125.5,360.7,122.9,359.8z"/>
<path class="st2" d="M124.2,387.9c-1.3-1.5,0-6.1-4.5-4c0.3-0.6,1.1-1.1,0.7-2C124.4,381.1,125.5,382.7,124.2,387.9z"/>
<path class="st0" d="M207,454.2c-7.6,2.2-15.6,2.7-23,5.7c0-0.8,0.1-1.5-1.1-1l0,0c1.1-1.4-0.1-1.7-1-2.1l0.1,0c0-0.7,0-1.3,0-2
	c7.2-4.5,15.5-6,23.4-8.3c2.1-0.6,2.7,1,3.1,2.3C209.1,450.9,210.2,453.3,207,454.2z"/>
<path class="st0" d="M182,448c1.1,0.6,1,1.7,1,2.7c-2,1.9-3.5,1.5-5.3-0.5c-2.4-2.7-3.7-5.9-5.2-9.1c0-0.9,0.6-1.8,1.4-2.2l-0.1,0
	c1.3,3.6,1.8,7.9,7.1,8l-0.1-0.1C180.7,447.8,181.4,447.8,182,448z"/>
<path class="st3" d="M174,439c-0.9,0.4-1.5,1.2-1.5,2.2c-2.1-5.1-4.3-10.1-6.3-15.2c-0.2-0.4,0.5-1.1,0.7-1.6
	C170.2,428.7,172,433.9,174,439z"/>
<path class="st0" d="M187,393.2c-0.3-0.9-0.7-1.8-1.3-2.5c-1.7-2.8-2.2-5.5,1.5-7.3c0.8,3.2,1.6,6.5,2.4,9.7L187,393.2z"/>
<path class="st3" d="M183,377c-3.5-3.3-4.1-7.5-4-12l1.9,0.9C180.2,369.9,183,373.2,183,377L183,377z"/>
<path class="st2" d="M180.5,348c-0.2-2-0.8-4.1,0.4-6C182.3,344.1,183,346.2,180.5,348z"/>
<path class="st3" d="M187,393.2l2.5-0.1l1.3,2.8l-2.5,0.1L187,393.2z"/>
<path class="st2" d="M188.5,396l2.5-0.1l-0.5,3.9C188.9,398.9,189.2,397.2,188.5,396z"/>
<path class="st3" d="M182,455c0,0.7,0,1.3,0,2c-1.7,0.6-2.6-1.5-4.2-1.3c-0.1-0.2,0-0.5,0.2-0.7H182z"/>
<path class="st2" d="M210.3,448.2l-0.1-0.4c0.1,0,0.3-0.1,0.4-0.1C210.9,448.1,210.8,448.2,210.3,448.2z"/>
<path class="st0" d="M148.5,103.6l-1.2,0.7l-1.2,0.8c-6.9,4.5-13.2,10-21.2,12.8c-1.1-2.1,2.6-5.1-0.5-7.3l-0.3-3.5
	c0.2-5,3.4-10.1-1-14.9c1,4.9-0.4,9.4-1.9,13.8c-4.7-1.9-9.5,1.5-14.5-0.4c-2.8-1-4.5-2-5.7-4.4c-1.6-3.3-3.2-6.5-4.8-9.8
	c-1.9-3.7-2.5-7,1.2-10.2c2.5-2.1,3.8-5.5,2.7-8.5c-1.2-3.1-1.2-5.7,1.5-7.2s2.8,2.6,4.6,3.4c-1.1,2.5-2.8,5-1.6,8
	c0.6,1.5,0.6,4.3,3,3.7c1.8-0.5,1.6-2.8,1.3-4.7s-2.6-3.8-0.7-6c5.2,0.2,7.3-2.7,5.6-7.3c-0.4-1.1-1.5-2.6,0-3.5
	c1.1-0.4,2.4,0.2,2.8,1.3c0,0,0,0.1,0,0.1c0.7,2.8,4.4,0.7,5.1,3.2c0.8,3.5,2.1,6.4,6.7,5.1c4.5,1.1,7.6-0.4,9-4.9
	c3-1.9,1.1-4.4,0.5-7.3c5.3,1.5,10.1,4.4,13.8,8.5c1.6,1.7,1.4,6.8,0.1,9.3c-1.8,3.3-0.9,7.3-3.4,10.2c-0.5,0.5-0.3,2.2,0.6,1.7
	c4.9-2.6,3,3.1,5,3.9C156.5,96.6,150.9,99.5,148.5,103.6z"/>
<path class="st2" d="M108,70c-1.9,2.2,0.3,4,0.7,6s0.5,4.3-1.3,4.7c-2.3,0.6-2.3-2.2-3-3.7c-1.2-3,0.5-5.4,1.6-8
	C106.8,68.9,107.6,69.3,108,70z"/>
<path class="st3" d="M128.1,69c-4.5,1.3-5.8-1.6-6.7-5.1C124.2,64.8,126,67.1,128.1,69z"/>
<path class="st5" d="M85.5,64.7c0.4-0.1,1.1-0.4,1.2-0.3c0.5,0.6,0.4,1.6-0.2,2.1L85.5,64.7z"/>
<path class="st3" d="M154,82c1.5,2.7,0.5,6,3.5,8.7c-2.8-0.1-2.2-1.9-3.1-2.5C154,86.1,152.2,84.2,154,82z"/>
<path class="st3" d="M153,80.2c1,0.3,1.1,1.1,1,1.9C153.3,81.8,152.8,81,153,80.2z"/>
<path class="st0" d="M95.8,137c3.5,14.6,2.8,29-1,43.4C96.8,166,91.4,151.4,95.8,137z"/>
<path class="st0" d="M97,230l0.2,7.2c-0.5,5.8,0.2,11.5,0.8,17.1l-4-1.5c0-0.3,0-0.5-0.1-0.8c0.3-1,0.8-2-0.5-2.6
	c0.8-0.1,1.4-0.9,1.3-1.7c0-0.1,0-0.2-0.1-0.2v-0.1l0.1-5.3c0-3.2,0.2-6.3,0.1-9.5C95,231.1,95.1,229.9,97,230z"/>
<path class="st3" d="M126.4,429c-1.3-0.2-2.5-1-1.9-2.2c1.2-2.6,0-5.5,1.2-8.1C128.3,421.9,128.6,425.3,126.4,429z"/>
<path class="st2" d="M105,439h-5.9c-1-0.8-1.1-1.7,0.3-1.9C101.5,436.6,103.7,437.4,105,439z"/>
<path class="st0" d="M177.8,455.7c1.6-0.2,2.4,1.9,4.2,1.3l-0.1,0c-1,1.3-0.2,1.8,1,2.1l0,0l1,1.2c-0.6,1.7-2,2.4-3.4,1.4
	C178.5,460.2,177,458.4,177.8,455.7z"/>
<path class="st3" d="M183.9,460.1l-1-1.2c1.2-0.6,1.1,0.2,1.1,1L183.9,460.1z"/>
<path class="st0" d="M103.1,274.3c0.4,1.1,1.7,0.8,2.4,1.5l-2.4,1.2c-0.9-0.8-2.3-1.9-2.8-0.4c-1.2,3.2-4.2,5.6-4.3,9.3
	c-1.4,0.4-2.8-0.5-2.5-1.5c1.2-4.3,0.6-9.1,3.2-13.1c0.2-0.2,0.9-0.1,1.4-0.2L98,271c0.5,1.8,2.7,1.2,3.4,2.7L103.1,274.3z"/>
<path class="st1" d="M97,302c0.6,1.3,0.6,2.5-0.9,3.2C96.1,304,95.8,302.8,97,302z"/>
<path class="st1" d="M99.8,290.1c1.1,1.2,0.4,1.8-0.7,2.2C98.9,291.5,99.2,290.6,99.8,290.1z"/>
<path class="st1" d="M99,296c0.3,1,0.2,1.8-0.9,2.2C98,297.3,98.1,296.5,99,296z"/>
<path class="st1" d="M96,306c0.5,1,0.3,1.8-0.9,2.2C95,307.3,95.1,306.5,96,306z"/>
<path class="st1" d="M98.1,300c0.2,0.8-0.4,1-1,1.2L98.1,300z"/>
<path class="st0" d="M159.8,84.9c-0.7,0.5-1.1,1.4-0.8,2.2c-2.9-1.3-3.5-3.8-2.8-6.5c0.6-2.3,3-1,4.6-1.4c0,1.2-0.1,2.3-0.1,3.5
	C160.4,83.5,160.1,84.2,159.8,84.9z"/>
<path class="st0" d="M105,266.5c0.1,0.2,0.1,0.5,0.1,0.7c-2.6,0.5,0.9,5-3,4.6c-1.1-1.5-2.7-0.7-4.1-0.9l0.1,0.1
	c-0.2-1.5-0.2-2.5-2-3.8c-2.2-1.6-5.8-4.2-3.1-8.3c0.6,0.3,0.9,0,1.2-0.5C100.8,258.6,104.9,261.5,105,266.5z"/>
<path class="st1" d="M94.8,247.3v0.1c-2.2,0.3-2.4,2.8-4.8,4.6c1.4-3.8,0.8-6.9,1.3-10.6C92.5,243.9,92.4,246.4,94.8,247.3z"/>
<path class="st1" d="M93.5,249.4c1.3,0.7,0.8,1.7,0.5,2.6c-0.9-0.5-1.1-1.6-0.6-2.4C93.4,249.5,93.5,249.4,93.5,249.4z"/>
<path class="st2" d="M121,106c1.5-4.5,2.9-9,1.9-13.8c4.4,4.8,1.2,9.9,1,14.9C122.9,107,121.7,107.2,121,106z"/>
<path class="st3" d="M124.5,246.9c2.8-0.4,4.8,2.3,7.5,2.1c0.2,0.6,0.8,1.3,0.6,1.7c-0.5,1.1-1.3,0.5-1.9,0.1
	c-2.2-1.4-4.4-2.8-7.1-1l-0.9-1L124.5,246.9z"/>
<path class="st3" d="M133,261v2l-8-2.5l0.1-1.5L133,261z"/>
<path class="st2" d="M140.2,139.1c-1.7-1.4-1.7-2.5,0.6-3C141.4,137.1,141.1,138.4,140.2,139.1z"/>
<path class="st2" d="M136.2,150.6c-0.2-1.4-0.8-2.8,1-3.6C138.5,148.6,137.1,149.6,136.2,150.6z"/>
<path class="st3" d="M122,260c0.1-1.4,0.1-2.8,0.2-4.1l1.9-0.8l-0.1,3c-0.8,0.4-1.1,1.3-0.8,2.1c0,0,0,0,0,0.1l0.1-0.1L122,260z"/>
<path class="st1" d="M123.2,260.2c-0.4-0.8-0.1-1.7,0.7-2.1c0,0,0,0,0.1,0l1.2,0.9l-0.1,1.5C124.4,260.5,123.7,261.1,123.2,260.2z"
	/>
<path class="st3" d="M123.1,252l-1.3-0.3c-0.3-1.1,0.1-2.2,1-2.9l0.9,1C123.5,250.5,123.3,251.3,123.1,252z"/>
<path class="st0" d="M122.8,248.8c-0.9,0.7-1.3,1.8-1,2.9c-3.7,1.1-7.2-0.7-10.8-0.8c-2.5,0-6.1-1.1-4.4,4c0.2,0.6,0.6,4.2-2.3,4
	c-2.3-0.2-1.2-2.4-1.1-3.6c0.1-8.3,2.9-15.9,5.9-23.6c2.9-8,4.8-16.2,5.7-24.7c1.7-14.6-1.4-29.5,2.9-43.9c0.8-2.8-2-5-1.1-8.4
	c1-3.8,2.6-7.6,2.7-11.6c1.9-0.9,3.1-2.7,3.3-4.7c1.4-1.9,2-4.4,4.5-5.5c1.4,1.3-0.5,2.7,0.1,4.1c-0.7,1.5-1.1,3.1-1.2,4.7
	c0.7,17.1-0.8,34.4,3,51.4c0.8,3.8-2.8,7.7-4.2,11.6c-3,7.9-2.9,16-3,24.1c-0.1,6.1-0.5,12.3,2.8,18L122.8,248.8z"/>
<path class="st0" d="M108,259.1l-0.8,0.9C107.1,259.3,107.5,259.1,108,259.1z"/>
<path class="st0" d="M128,132.2c-0.2,0.4,0,1.3-1,0.9C126.7,132.1,127.3,132.1,128,132.2z"/>
<path class="st3" d="M181,447c-5.3-0.1-5.8-4.4-7.1-8C177.5,440.3,180.1,443.3,181,447z"/>
<path class="st0" d="M183,377l0.7,1l-0.4,0.2L183,377z"/>
<path class="st3" d="M182,448c-0.6-0.1-1.3-0.1-1-1L182,448z"/>
<path class="st1" d="M122,260l1.2,0.2c0.6,1.3,0.7,2.3-1.2,1.8C121.1,261.3,121.9,260.7,122,260z"/>
<path class="st3" d="M111.2,267.9c-0.9,0.8-1.5,2.1-3,1.1c-0.1-0.6-0.1-1.3-0.2-1.9c0.5-1.1,1-2.3,1.6-3.4
	C110.9,264.7,110.9,266.4,111.2,267.9z"/>
<path class="st1" d="M102.1,271.8c3.9,0.4,0.5-4.1,3-4.6c1.8,3,2.7,5.9-2,7.2l-1.8-0.7C101.6,273,101.8,272.4,102.1,271.8z"/>
<path class="st1" d="M107.9,267c0,0.6,0.1,1.3,0.2,1.9C107,268.4,106.9,267.8,107.9,267z"/>
<path class="st3" d="M183,459c-1.2-0.3-2-0.7-1-2.1C182.9,457.3,184,457.6,183,459z"/>
<path class="st2" d="M102.1,271.8c-0.2,0.6-0.5,1.2-0.7,1.9c-0.7-1.5-3-1-3.4-2.7C99.4,271.1,101,270.3,102.1,271.8z"/>
</svg>
