<?xml version="1.0" encoding="utf-8"?>
<!-- Generator: Adobe Illustrator 24.0.1, SVG Export Plug-In . SVG Version: 6.00 Build 0)  -->
<svg version="1.1" id="Layer_1" xmlns="http://www.w3.org/2000/svg" xmlns:xlink="http://www.w3.org/1999/xlink" x="0px" y="0px"
	 viewBox="0 0 281 575" style="enable-background:new 0 0 281 575;" xml:space="preserve">
<style type="text/css">
	.st0{fill:#FEFEFE;}
	.st1{fill:#15130E;}
	.st2{fill:#161410;}
	.st3{fill:#12100C;}
	.st4{fill:#1C1B16;}
	.st5{fill:#191712;}
	.st6{fill:#171511;}
	.st7{fill:#191613;}
	.st8{fill:#F2BBBB;}
	.st9{fill:#181612;}
	.st10{fill:#20221C;}
	.st11{fill:#181511;}
	.st12{fill:#1B1915;}
	.st13{fill:#211F1A;}
	.st14{fill:#201D1A;}
	.st15{fill:#E591AB;}
	.st16{fill:#3A3A3A;}
	.st17{fill:#171310;}
	.st18{fill:#181613;}
	.st19{fill:#FFDCDC;}
	.st20{fill:#181611;}
</style>
<title>frame12</title>
<path class="st0" d="M214.1,204c2.5-0.1,4.5,1,4.7,3.3c0.3,3.3,1.2,6.9-1.1,9.9c-0.8,1-1.8,0.1-2.6-0.2c-1.7,2.9,0.4,5.8-0.1,8.6
	c-0.1,3.5,0.1,7.1,0.6,10.6c0,1.8-0.5,3.5-1.5,5c-1.1,1.8-2.8,3.4,0.5,5.1c2.8,1.5,2.9,4.1,0.6,6.2c-2.5,2.3-4,5.4-4.2,8.7
	c-0.4,3.2-2.1,4.8-5.2,5c-2.2,0.1-4.3,0.4-6.5,0.5c-5.3,0.1-7.2-1.7-7-7.1c0-2.6-0.7-4-3.4-4.5c-2.6-0.4-5-1.5-4.6-4.8
	c0.3-3,2.8-3.4,5.2-3.7c2.8-0.4,5.6-0.9,8.7-1.2c-6.2-1.5-11.9-2.6-15.5-8.3c-2.2-3.7-3.4-8-3.3-12.3c-0.1-2.7,0.8-5.5-3-6.6
	c-1.1-0.3-1.4-2.2-1.7-3.5c-2.3-12.3-6-24.2-11.1-35.6c-0.9-1.8-1.4-3.8-1.4-5.8c0.2-7.7-2.9-14.5-4.9-21.7
	c-2.8-10.1-3.1-20.3,3.5-29.6c5-7.1,8.7-8.7,16.9-6c-1-1.5-2.9-2.9-1-4.7s3.4-0.3,4.8,0.9c1.4,1.2,2.7,2.5,4,3.8
	c0.9,0.9,1.8,1.8,2.6,2.9c5.8,8.1,10.1,17.1,15.6,25.4c2.6,3.9,3.4,8.9,3.4,13.8c-0.2,5.1,0.2,10.3,1,15.3
	c0.3,12.3,3.1,24.2,6.6,35.9c0.3,0.6,0.4,1.3,0.3,2c0.4-1.2-0.3-2.1-0.7-3.1C214.2,206.8,213.3,205.4,214.1,204z"/>
<path class="st1" d="M55,252.9c-1.8,1.4-3.8,2.6-6,3.3c-6.4,1.9-8.7,0.9-11-5.3c-3.3-9.1-3.6-9.5,3.8-14.3
	c4.9-3.3,8.3-7.9,11.8-12.2c2.7-3.8,7.2-5.9,11.8-5.6c2,0,4,0.6,4.4-2.5c0.2-1.6,2-2.2,3.4-2.7c13.2-4.3,19.8-13.9,24.6-26.5
	c5-13.2,8.6-26.4,8.3-40.5c-0.1-5.3,0.5-10.6,1.9-15.8c0.8-3,1.7-5.8,4.5-7.3c3-1.7,1.3-2.4-0.5-2.9c-5.9-1.5-10.8-6-17.4-5.5
	c-2.2,0.1-2-1.4-2-3c-0.1-5.6,0.9-11.3-1.6-16.7c-0.7-1.6-1.1-2.9-3.5-3.4c-3.7-0.9-6.2-8.2-5.3-13.4c0.4-2.4,2-4.6,1.6-7.4
	c-4,2.1-5.6,5.8-6.5,9.6s-3.6,5.7-6.6,7.5c-1,0.6-2,1.3-3.1,0c-0.9-1-0.1-1.8,0-2.7c0.4-5,0.7-10.1,3.7-14.2c-1.2-1.3-2-0.7-2.7-0.4
	c-1.8,0.6-3.6,3.6-5.3,0.5c-1.5-2.8-0.6-5.5,2.3-7.2c4.4-2.7,9.5-3.6,14.4-4.9c2.5-0.6,4.1-1.2,5.3-4.1c1.7-4,4.7-7.9,10.4-5.8
	c1.8,0.7,2.4-0.1,3.6-1.4c8.1-8.9,19.3-11,30.3-13.3c0.6-0.1,1.7,0,1.9,0.3c2.5,5.9,9.1,4.3,13.2,7.1c2.7,1.8,3.4,3,0.1,4.9
	c-2,1.1-5.9,1.8-1.2,5.4c2.5,1.9-1.8,8.6-5.7,8.9c-0.8,0-1.7,0-2.5-0.1c2,5,5.3,9.3,5.1,14.9c-0.8,2.7,1.1,5.9-1.5,8.2
	c-3.3-0.8-3.2-3.6-2.9-5.9c0.9-7.4-2.8-13.2-6-19.2c-1.6-3-3,0.2-4.7,0.9c1.3,1.8,3.4,1.9,4.5,3.5c1.8,2.8,1.3,5.3-0.2,8
	s-3.8,3-6.4,2.4c-4.2-1-7.8-3.7-12.1-4.5c-4.5-0.8-5.1-0.3-3.7,4.2c1.2,4,3.3,7.7,6.2,10.7c6.8,7.5,11.3,16.1,12.5,26.1
	c0.3,2.4,3.4,3.6,2.2,5.9c0.2-9.3,7.8-14.8,12.9-21.7c1.8,0.4,4.2-1.9,5.3,1.3c-0.4,1.3-1.1,2.5-2.2,3.3c-6.1,5.1-9,12.2-12.1,19.2
	c-0.4,1.1-0.9,2.1-1.5,3.2c-1.2,2-2.4,4.5-5.2,3.8c-2.6-0.6-2.6-3.1-3-5.4c-2.7,5.5-2.3,11.6-3,17.4c-0.7,6.1,0,12.3,0.9,18.4
	c1.5,10-0.5,19.9,0,29.9c-0.6,2.6,1.4,6-2.3,7.5c-2.5-3.6-2.5-7.9-2.4-12c0.5-15.8-1.5-31.5-1.1-47.2c0-1.7,0.5-3.7-2.1-5.3
	c-4.3,14.8-1.3,29.9-3.9,44.4c-0.5,3.3,0.8,6.8-1.3,9.8c-4,0.2-1.4-3.5-3-5c-3.1,9.9-8.8,18.7-10.8,28.9c-0.3,1.5-1,2.9-1.8,4.1
	c-0.7,1-2.1,2.2-2.8,1.4c-3-3.3-4.7-0.5-6.2,1.3c-2.5,3-5.9,5.8-4.2,10.5c0.3,0.8,0.7,1.5,1,2.3c0.3,1,0.5,2-0.4,2.8
	c-0.9,0.8-2.3,0.9-3.3,0.2c-2.7-1.6-5.3-3.4-7.7-5.5c-1.2-1.2-2.8-1.8-4.5-1.6c-3.7,0.4-4.6,1.6-3.4,5.3c1.1,3,2,6,2.7,9.1
	c0.3,1.6,0.8,3.5-0.9,4.5c-1.9,1.1-3-0.6-4.1-1.9c-1.5-1.5-2.8-3.3-3.8-5.2c0.6,4.3-1.5,6.5-4.9,7.7c-1.3,0.4-2.6,0.6-3.9,0.6
	c-2.7,0.3-5.7,0.4-5,4.4c0.7,4.6,3.6,6.8,7.5,6c2.6-0.6,4.8-2.5,7.5-2.6c1,0.2,2.1,0.3,2,1.6C56.9,252.6,55.8,252.6,55,252.9z"/>
<path class="st2" d="M165,367.1c-1.4,5.5-4.5,10.4-5.2,16.4c-1.2,10.6,5.2,22.7,15,26.6c-0.2,1.5-0.9,2.9-2,3.9
	c-3.3,2.1-5.3,4.7-4.2,9.5c3.5-2.4,4.9-6.3,8.2-8.2c1.1-0.3,2.5-1.2,2.3,1.2c-0.8,2.9-3.3,4.5-5.2,6.5c-4.1,4.2-7,8.7-4.7,15
	c0.8,2.7,1.5,5.5,1.9,8.2c0.2,1,0.5,2.4,1.4,2.4c6.5,0,4.8,5.6,5,8.5c0.3,4.3-0.9,8.2-6.8,9.5c-9.7,2.2-19.1,1.4-28.7,0.5
	c-1.5-0.2-2.8-1.3-3.1-2.8c-1.4-4.2-3-8.4,0-12.4c1.3-1.7,0.7-3,0.1-4.6c-3.3-9-7.8-17.8-9.6-27.1c-2.6-13.1-12.4-19.6-21.4-26.9
	c-9.5-7.6-17.9-15.7-22.4-27.3c-1.7-4.5-2.4-10-1.1-13.7c6.4-17.6,8.9-36.4,17.8-53.2c2.6-4.9,3.6-10.6,5.3-16
	c0.4-0.9,0.3-2-0.4-2.8c-5.7-6.9-6.7-14.5-3.7-22.8c0.4-1,0.4-2-0.6-2.6c-0.1-1,0.5-1.4,1.2-1.7c3.4-0.9,6.1,1,9,2.2
	c4.4,1.9,4.9,1.6,5.5-3.2c0.2-1.9-0.8-4.4,2.2-5.3c2.8,3.6,1,7.7,1.5,11.5c-0.2,3-1.5,4.8-4.7,4.4c-2.5-0.4-3.2,0.9-3.6,3
	c-0.9,5.1-2.2,10-3,15.2c-0.9,6.8-2.8,13.4-5.7,19.6c-8.5,18.8-14.2,38.8-16.8,59.3c-0.5,3.8,0.9,7.2,2.7,10.4
	c4.2,7.2,9.9,13.5,16.8,18.2c4.8,3.3,8.7,7.8,13.3,11.2c0.7-0.2,0.6-0.7,0.5-1.1c-4.5-12.3-2.7-25-2-37.5c0.5-8.5,0.8-17-0.5-25.4
	c-1.4-9.6-0.5-19.3-0.8-28.9c0-0.8,0-1.7,0.2-2.5c0.3-1.1,0.5-2.5,2-2.6c1.8-0.1,2.2,1.5,2.3,2.7c0.3,7.5,2.1,14.9,1,22.4
	c-0.2,1.3-0.6,2.7-0.4,4c3.2,14.5,0.6,29.2,0.8,43.8c0.1,12.7,3.3,25,6.1,37.4c2.7,11.9,7.9,23,11.9,34.4c2.2,6.4,4.5,7.6,11.3,7.1
	c13.5-1,14.1-1.6,11.9-14.7c-2.2-13.5-4.1-27-7.3-40.3c-0.8-3.2-1.2-6.6-3.1-9.4c-0.8-1.1-1-2.5-0.6-3.8c2.4-6.2,3.4-12.9,7.3-18.5
	C164.3,365.4,164.6,365.5,165,367.1z"/>
<path class="st3" d="M185,117.1c-1.7-1.6-3.3-3.2-5-4.8c-0.7-0.6-1.5-1.5-2.6-0.9c-0.8,0.4-1,1.2-0.8,2.1c0.2,1.3,1,1.6,2,1.7
	s2.8-0.4,3.3,1.6c-2,1.1-4.5,1.2-6.6,0.1c-5.8-3.7-8.8,0.4-11.8,3.8c-7.1,7.8-8.8,17.5-5.9,27c3.3,10.6,4.4,21.7,7.9,32.1
	c4,11.8,8.1,23.4,10.4,35.7c0.4,1.1,0.9,2.2,1.5,3.2c1.1-0.9,0.4-3.2,2.4-2.7s0.7,2.1,0.8,3.2c0.7,5.6-0.3,11.1,2.8,16.8
	c3.2,6,8.4,6,13.2,7.8c1.8,0.7,5.4-0.9,5.3,1.8c-0.1,2.9-3.4,1.4-5.4,1.4c-3.2,0-6,1.7-9.3,1.4c-1.4-0.1-2.3,1.3-2.3,2.7
	c-0.1,1.9,1.4,2.7,3,2.6c5.4-0.1,6.7,2.6,5.5,7.4c-0.7,2.6,0.3,4.2,3.2,4.3c3.5,0,7,0.1,10.4,0.1c2.1,0,2.1-1.6,2.5-3.1
	c1-4.1,1.3-8.5,5.5-11.2c1.7-1.1,1.6-3.4-0.5-3.8c-6.5-1-3.9-3.8-1.6-6.7c0.4,0.2,0.6,0.6,0.8,1c0.1,1.6,0.4,3,2.4,3
	c3.3,2.7,2.9,6.4,0.4,8.5c-5.2,4.3-4.9,10-5.4,15.6c-0.2,1.8,0.1,3.6-1.1,5.1c-2.9,3.8-2.9,3.8-5.3,2.1c0.1-0.3,0.1-0.6,0.3-1
	c0.8-1.9,3.5-4.2-0.2-5.7c-3-1.2-5.5-0.4-6,3.4c-0.6,1.1-0.9,3.2-2.2,2.9c-2.3-0.4-1.5-2.9-2.2-4.5c-2.5-3.1-5-6.2-4.7-10.6
	c0.1-2.2-1.8-2.9-3.4-3.8c-5.3-2.8-5.8-4-3.8-9.5c0.9-2.5,0.9-4.5-1.2-6.3c-2.9-2.5-3.7-5.8-3.6-9.5c0.1-3.7-0.8-7.3-2.8-10.4
	c-3-4.9-3.8-10.6-5.1-16.1c-1.3-5.5-3-10.9-5.1-16.2c-2.6-6.1-4.4-12.6-5.3-19.2c-1-5.9-2.4-11.7-4.4-17.4c-4-13-2.8-25.3,6.6-35.9
	c2.6-3.1,6.2-5.2,10.1-6.2c-12.9-3.9-26.9,1.5-33.9,13c-0.3,0.6-0.6,1.2-1,1.7c-8.7,9.5-8.1,20.9-7,32.5c1.4,15.5,4.2,31,3.6,46.7
	c-0.2,4.9,0.9,9.6,1.6,14.4c1.6,9.7,1.8,19.5,2.3,29.3c0.2,3,0.1,6.1-2.4,8.4c-2.4-0.5-2-2.5-2.3-4.1c-2.8-31.8-4.2-63.7-7.8-95.4
	c-0.8-6.9-0.4-14-0.1-21c0.3-3.9,1.7-7.5,4.1-10.6c5.8-8,12.7-14.7,21.7-19.4c10.4-5.5,31.6-1.2,36.5,8.6
	C187.5,116.1,187,117.2,185,117.1z"/>
<path class="st4" d="M184.6,454.7c1.1-3.3-0.6-5-2.7-6.2c-3.1-1.7-2.6-3.8-1.1-6.1c2.2-3.5,4.6-6.8,5.6-10.9
	c0.6-2.5,2.7-2.9,4.2-2.1c3.4,1.9,7.6,2.3,10.3,5.6c2.2,2.7,5.5,4.4,9,4.5c3,0.2,4.4,2.1,3.5,5.1c-1.3,4.6-2.3,9.1-5.2,13.2
	s-4.3,9.2-6.2,14c-2.5,6.8-4.8,13.7-7.3,20.6c-0.5,1.4,0,4-3.2,3c-2.8-0.9-6.2-0.4-6.4-5c-0.4-7.6-0.1-15.2,0-22.8
	c0-4.7-0.4-9.3-3.3-13.3c-0.7-0.9-2.6-2-0.9-3.2s2.1,0.8,2.8,1.9C183.9,453.5,184.2,454,184.6,454.7z"/>
<path class="st5" d="M174.8,491c3.2,9.6,6.3,19.2,9.5,28.9c1.1,3.4-1.6,4.7-3.7,6c-3.5,2.3-7.6,2.1-11.5,2.8
	c-14.2,2.4-28.7,2.8-43.1,3.4c-1.7,0.1-4.2,0.6-4.6-1.7c-0.3-2.1,1.2-3.6,3-5.2c7.2-6.3,16-9.6,24-14.3c4-2.3,4.6-7,6.5-10.8
	c1-0.9,0.3-2.2,0.7-3.2c0.5-1.3,1-2.6,2.7-1.2c0.2,0.4,0.3,0.9,0.3,1.4c-0.2,1.4-0.4,2.8-0.5,4.2c-0.6,2.7-1.7,5.4-3.1,7.8
	c-0.5,0.8-1,1.6-1.5,2.3c-0.4,0.6-0.9,1.1-1.4,1.6c-2.8,2.3-6,4-9.5,5.1c-3.3,1.1-6.4,2.8-9,5.1c1.6,0.7,3.4,0.8,5.1,0.5
	c11.9-1.6,23.8-2.4,35.5-5.5c4.6-1.3,5.3-2.4,3.4-6.7c-2.5-5.5-4.9-10.9-5.4-17.1C172.5,492.7,172.6,491,174.8,491z"/>
<path class="st6" d="M196.1,280.6v7.8c-0.6,0.1-1,0.3-1.2,0.1c-5.5-3.8-5.5-3.8-7.8,2.2c-3.2,8.5-4.8,17.5-7,26.2
	c-1.4,5.5-3.8,10.5-6,15.7c0.3,1.6,0.2,3.3-1.3,4.1c-1.1,0.6-1.5-0.7-1.8-1.5c-0.3-1.8-0.1-3.7,0.8-5.3c5.7-12.5,7-26.3,11.4-39.2
	c1.3-3.7-0.3-5.3-4-5.5c-5.7-0.3-11.1-2.5-15.4-6.2c-0.2-0.8,0.2-1.6,1-1.9c1.3-0.5,2.7-0.4,3.9,0.3c6.9,4.1,15,2.4,22.2,5
	c0.8,0.3,1.7,0,2.2-0.8c0.4-0.7,0.5-1.6,0.8-2.3s0.7-1.7,1.6-1.4C196.9,278.6,196.2,279.7,196.1,280.6z"/>
<path class="st7" d="M196.1,280.6c-0.1-0.5-0.1-1.3-0.3-1.4c-1.2-0.5-0.7,0.6-0.8,1c-0.1,1,0,2-0.9,2.7
	c-4.9-5.8-10.3-11.3-18.3-11.3c-10-0.1-19.7-2.6-29.7-1.8c-1.8,0.1-3.7-0.1-4.2-2.5c3.7-3.2,8.2-1.1,12.3-1.7
	c9.9,0.7,19.9,0.2,29.6,2.6c1.2,0.2,2.3-0.1,3.3-0.8c1.8-1,2.7-0.4,3.4,1.4c1.8,4.9,1.8,4.9,5.5,1.9c0.1,1.4,0.2,2.8,0.2,4.7
	l1.8-3.5c1.6,2.6,5,2.3,7.1,4.1c2.8,1.9,3.1-2,5-2.1c-0.7,4-2.3,6.2-7,4.5C200.6,277.7,197.7,277.7,196.1,280.6z"/>
<path class="st8" d="M171.9,334.8c0.2,0.4,0.2,1,0.5,1.2c0.6,0.3,0.5-0.4,0.7-0.7c0.4-0.8,0.7-1.7,1.1-2.5c1.9,1.4,1,3.3,0.9,5
	c-1,10.6-4.7,20.3-10,29.4c-0.6-1.2-1.3-0.2-2-0.1c-2.5-0.2-3.2-1.7-2.4-3.8c3.3-9,5.7-18.2,9.4-27
	C170.2,335.4,171,334.8,171.9,334.8z"/>
<path class="st9" d="M106.1,183c1.9-3.3,0.3-6.9,1-10.2c2.7,1,2.2,3.4,2.3,5.5c0.5,12.2,0.1,24.3-3.4,36c-2.9,9.3-3.5,18.9-4.5,28.4
	c-0.7,2.6-0.2,5.6-3,7.3c-0.6,0.3-1.1,0.1-0.5-0.1c0-0.3,0-0.6,0-0.9l0.2-3.9c0.3-1.6-0.6-3-0.8-4.5c-0.2-5.8-0.5-11.6,1-17.3
	c3.2-12,6.2-24.1,6.4-36.6C104.6,185.2,105.1,183.9,106.1,183z"/>
<path class="st10" d="M138.1,84.1c2.3-2.3-0.8-6.1,2.3-8.1c0.9,2,1.6,3,3.5,0.6c4.3-5.3,6.3-5.7,13.2-3.5c-0.7,1.1-1.9,1.4-3,1.8
	c-1.1,0.3-2.2,0.4-3.3,0.6c-3.3,0.6-4.5,2.4-2.5,5.5c1.1,2,2.1,4.1,1.9,6.4c-0.9,2.9-0.7,6.4-4,8c-1.4-0.9-2.9,0.2-4.3,0
	C138,92.5,136.8,89.2,138.1,84.1z"/>
<path class="st11" d="M154,74c0.8-1.1,2-0.8,3.1-1c7.5,2,14.2,4.9,17.4,13c1.1,2.8,4.1,4.2,7,5.1c3.2,1.1,4.8,3.2,5.2,6.5
	c0.8,5.4,1.7,10.7,2.5,16.1c0.3,0.6,0.2,1.3-0.6,1.3c-1.5-0.1-1.7-1.6-2.4-2.5c-1.6-3.3-2.5-6.9-2.6-10.6c-0.2-4.1-1.7-7.3-6-8.8
	c-2.9-0.9-5.3-3.1-6.5-5.9c-2.4-5.5-7-8.2-12.3-10.1C156.9,76.5,154.7,76.3,154,74z"/>
<path class="st12" d="M207.1,173c-1.4-5.7-0.6-11.5-1.4-17.2c-0.7-4.6-1.4-9.3-4.2-13.1c-5.6-7.4-9.2-16-14.5-23.6
	c-0.3-0.8,0.1-1.7,0.8-2c0.2-0.1,0.3-0.1,0.5-0.1c0.9-0.1,1,0.5,0.8,1.2c5.4,7.9,9.7,16.4,14.9,24.5c4.8,7.5,4.4,16.4,4.2,25
	C208.1,169.5,209.8,171.7,207.1,173z"/>
<path class="st8" d="M174.8,491l-1.9,3.2c-3.2,2.5-7.2,2.4-10.9,3.1c-1.4,0.1-2.8-0.3-3.9-1.2c-3.6-0.7-0.9,3.5-3.1,3.9
	c-0.9-1.8,1.8-4.4-1.3-5.9c-0.6-0.3,1-1.7,1.6-1.9c6.1-1.8,12.3-3.1,18.8-2.2C174.3,490,174.5,490.6,174.8,491z"/>
<path class="st13" d="M98.8,240.7c0.2,1.5,0.7,3.1-0.7,4.3c-4.7-2.3-10.3-0.7-13.1,3.7c-6.5,10.4-6.5,10.4-18,6.3
	c-1-1.4-3.8,0.9-4.2-2c2.6-2,5.3-1.2,8-0.3c6.1,1.9,7.1,1.6,10.4-4C85.5,241.8,91.2,239.1,98.8,240.7z"/>
<path class="st14" d="M207.1,173c1.5-1.6,0.6-3.6,1-5.4c1.4,9.4,1.6,19,3.9,28.3c0.7,2.7,0.9,5.5,2.1,8.1l0.8,4
	c0.1,0.8-0.3,1.6-1,2.1C209.9,198.1,207.1,185.8,207.1,173z"/>
<path class="st15" d="M63.2,252.6c0.5,2.1,3.1,0.7,3.8,2.3c-3.6-0.4-7.3,0.6-10.2,2.8c-1.1,0.8-2.3,2-3.4,0.6
	c-1.4-1.7,1.8-1.1,1.5-2.2s2-2.3,0-3.4c0.4-0.7,2.5-1.7-0.3-2c0.9-2.9,3.2-3.2,5.6-2.5C62.3,248.8,63.9,250.1,63.2,252.6z"/>
<path class="st15" d="M98,248.9c2.2-1.6,1.5-4.2,2.3-6.3c3.3,3,2.9,7.4,4.1,11.2l-1.2,1.1c-2.3,0.8-6.1-3.6-7.2,2.7
	C94.9,253.8,96.6,251.4,98,248.9z"/>
<path class="st16" d="M213.1,242l-0.2-1.3c3.2-5,0.2-10.5,1.1-15.7c1.3-1.5-0.7-3.8,1.1-5.2c1,7.4,1.6,14.8,1.8,22.2
	c-2.2-0.2-1.2-1.6-1.2-2.6C215.1,240.4,215.3,242.5,213.1,242z"/>
<path class="st8" d="M172.8,413l2.2-3c3.7,0.2,5.4,3.2,7.9,5.1c-1,1.9-2.6,0.5-3.7,1.2c-0.4-1.3-1.2-0.7-2-0.4
	C175,416,173,415.9,172.8,413z"/>
<path class="st16" d="M213.1,242c1.4-0.5,1.7-1.8,2.2-3.1c1.2,0.8,0.2,2.5,1.5,3.1l-0.8,2.7c-0.7,1.6-1.8,1-2.9,0.4
	C211.7,244.2,213.2,243,213.1,242z"/>
<path class="st16" d="M189,118.2c-1.4-1.4-1.6,0.1-2.1,0.9l-2-2.1c1-0.3,1.7-1.2,1.9-2.3c-0.6-1-0.8-1.9,0.2-2.7
	c1.3-0.2-0.1,3,2.1,1.7C190.7,115.3,190.3,116.8,189,118.2z"/>
<path class="st17" d="M215.1,219.8c-0.6,1.7,0.5,3.8-1.1,5.2c-0.2-2.8-1.9-5.7,1-8L215.1,219.8z"/>
<path class="st17" d="M213.9,210.1c0.3-0.7,0.7-1.4,1-2.1c2.2,2.5,0.8,5.3,1.3,8.8C212.8,214.6,214.3,212.1,213.9,210.1z"/>
<path class="st0" d="M187,112c0,0.9-0.1,1.8-0.2,2.7c-4.7-2.6-8.1-6.7-13.6-8.6c-15-5-28.9,2.4-37.6,12.9c-2.2,2.6-4.7,5-6.5,8.1
	c-5.2,8.3-3.9,17.6-3.1,26.2c2,20.6,3,41.4,5.1,62c1.2,12.1,2,24.1,2.7,36.2c0.4,5.2-1.6,10-2.9,14.9c-1.9,7.5,0.3,9.7,7.8,9.3
	c5.6-0.4,11.3-0.4,16.9,0.2c2.8,1,6,0.5,8.3,2.9c6.1,2.5,11.7,6.1,18.7,5.7c3-0.1,3.2,2.5,2.3,5.2c-5,14.5-6.7,30-13.1,44
	c-0.1,0.3-0.1,0.7,0,1c-3.3,9.4-6.5,18.9-10.1,28.3c-0.8,2.2,0.4,2.8,1.3,4c-3.3,6-4.6,12.8-7.1,19.1c-1.3,3.2,2.2,4.1,2.9,6.8
	c3.9,16.8,6.2,33.9,9.1,50.9c0,0.3,0,0.7,0.1,1c0.5,2,1.9,4.6,1.2,5.8c-1.4,2.2-4.7,2.3-7.2,2.9c-3.4,0.9-6.8,1-10.3,1.3
	c-5.7,0.5-8.5-2-10.4-6.9c-8.2-21.1-15.2-42.6-17.7-65.2c-1.2-11,0.8-21.9,0.2-32.8c-0.8-16-1.3-32-2-48.7c-3,1.9-2.2,4.3-2,6.1
	c0.9,10.9-0.3,22,1.4,32.9c1.8,11.8-0.5,23.6-0.7,35.4c-0.2,7.1,0.6,14.2,2.4,21.1c0.6,2.1,1.6,4.3,0.8,7.5
	c-10-11.2-23.8-17.6-31.8-30.3c-3.6-5.4-5-11.9-3.9-18.2c2.1-15.4,6.4-30.1,11.5-44.7c2.2-6.4,5.8-12.2,7.7-18.8
	c3-10.4,4.2-21.1,6.4-31.5c2.4-1.3,5.8,6.1,7.5-0.9c0-14.2,0.7-28.4-0.1-42.7c-0.5-8.7-2.5-17.4-1.5-26.2c0.3-2,0.2-4-0.3-5.9
	c1.2-14.9-0.5-29.7-1.1-44.6c-0.2-5.7,1.5-11.1,1.3-16.9c-0.1-2.8,2.2-5,4.9-7.6c0,2.3,0,3.9,0,5.6c0,1.5-0.3,3.2,1.7,3.6
	c1.6,0.3,2.3-1.2,2.9-2.3c1.7-3.4,3.3-6.9,4.6-10.5c2.4-7,7.5-11.8,12.7-16.7c1.7-2.5,2.1-5.5,3-8.3c0.8-2.5,1-4.8-2-6.1
	c-2.5-2.9-1.6-6.1,2-6.9c1.6-0.2,3.3-0.2,4.9-0.1c3.1,1.2,6.2,2.4,9.2,3.7c3.6,1.6,6.9,3.6,8.3,7.8c1,3.4,3.7,6.1,7.2,7
	c4.5,1.3,5.7,4.4,6,8.5C185,104.7,185.8,108.5,187,112z"/>
<path class="st0" d="M63.2,252.6c-1.8-5.1-5-4.3-8.4-1.8c-0.9,0.5-1.8,0.9-2.6,1.4c-8.1,4.4-12.6,2.1-14-6.8
	c-0.4-2.6,1.2-3.1,2.9-3.8c1.9-0.9,3.9-0.4,5.9-0.7c5.7-0.6,7.1-3.7,3.9-11c5,3.4,6.2,8.9,10.9,11.4c0.2-5-1.6-9.1-3-13.3
	c-0.7-2.1-2.9-4.4,0.4-5.9c3-1.4,6.1-3.4,9.4,0.2c2.2,2.4,5.1,4.2,7.7,6.3c0.7,0.5,1.5,0.9,2.2,0.1c0.6-0.6,0.3-1.3,0-1.8
	c-1.6-2.6-3.2-5.3-1.3-8.3c2.9-4.4,5.6-9.1,11.3-10.5c0.7,1.4-2.3,3.4,0.3,4.1c2,0.5,1.7-1.8,2.2-3.1c4.5-11.7,8.9-23.4,13.7-36
	c1.8,3.8,0.3,7.1,1.5,9.9c0.2,13.8-2.6,27.2-6.4,40.4c-1.6,5.7-1.4,11.5-0.9,17.3c-2.1,1.6-4.6,0-7.1,1c-4.5,1.8-8.2,3.5-9.9,8.7
	c-1.5,4.7-5.1,5.8-10,3.9C69,253.2,66.3,252.3,63.2,252.6z"/>
<path class="st0" d="M104.3,253.9c-3.5-3-2.4-7.6-4.1-11.2c-0.6-12.4,3.5-24,6-36c2.4-11.1,2.8-22.6,1-33.9
	c2.5-14.4,0.1-29.2,3.2-43.5c0.3-1.8,1.7-3.3,3.5-3.6c1.4-0.1,2.5,2.3,2.3,3.8c-1.5,13.1,1.6,26.2,1,39.3
	c-0.4,8.1-0.1,16.2,0.8,24.3c2.4,4.7,2.4,10,2.7,15c0.4,9.6,1.3,19.2,1.3,28.8c0.1,3.5-0.6,7-2,10.2c-0.8,2.6-0.2,5.3-0.5,7.9
	c-0.5,4.6-1.6,5.2-5.3,2.7C111.3,255.6,107.9,254.3,104.3,253.9z"/>
<path class="st15" d="M81,66.1c0.4-1.3,3.2-2,1-4c-0.3-0.2-0.4-0.5-0.3-0.7S81.9,61,82,61c6.2-0.8,8.6-6.9,14.2-9.3
	c0.5,0.7-1.4,3,0.5,3.2s3.7-1.9,3.8-3.3c0.5-4.4,3.8-6.2,6.8-7.8c6.2-3.2,12.8-5.5,19.7-6.8c0.8-0.1,1.6-0.1,2.5-0.1
	c1.5,0,1.9,1.3,2.2,2.4c0.3,1.4-1,1.4-1.9,1.7c-1.8,0.5-3.5,1-5.2,1.6c-0.9,0.4-2.8,0.1-2.2,1.9c0.5,1.4,1.9,1,2.9,0.4
	c3.6-2,7.7-1.9,11.6-2.6c2.2-0.4,4.7-0.4,6.5,1.5c0.3,0.2,0.4,0.7,0.2,1c-0.1,0.1-0.2,0.2-0.3,0.2c-2.1,1.4-4,2.6-6.8,1.9
	s-6-0.4-9.2-0.1c3,2.6,7.1,2.2,10.4,4c1.5,0.8,3.4,1.2,3.8,2.8c0.4,1.9-0.3,3.8-1.9,4.9c-1.7,1.2-2.2-0.8-3.1-1.5
	c-6.4-5.1-9.8-5.1-15.1,1c-1.7,1.9-5.6,2.3-4.8,6.7c2.8-2.2,5.6-1.1,8.5-0.4s2.5,2.8,2,4.7c-0.7,2.4-2.5,1.8-4,1
	c-4-2.2-8.5-2.8-12.6-4.6c-2.9-1.3-5.2-0.5-7.2,1.6s-1,4.1,0.1,5.9c1.5,2.7,0.1,5.5,1.3,9.3c-5.6-3.8-10.1-6.5-8.4-13.2
	c0.2-0.8,0.5-2.2-1-2.3c-1.3-0.1-1.5,1.1-1.5,2.1c0,5.9-3.4,11.1-3.6,17c-0.1,1.3-0.7,3.3-2.4,3.2c-1.2-0.1-1.8-1.8-2.2-3.1
	c-1.5-4.7-0.4-9.2,1.2-13.6c0.5-1.5,1.5-3.3-0.2-4.6c-1.5-1.2-2.8,0.4-4.1,0.9C81.1,68.3,80.6,67.1,81,66.1C81,66.1,81,66.1,81,66.1
	z"/>
<path class="st0" d="M138.1,84.1c0.2,4.1,0.9,8,3.7,11.3c-6.5,7.7-13.3,15.2-14.4,26c-1.7-10.2-4.2-19.7-8.8-28.5
	c-2.8-5.3-8-8.6-10.6-14.2c-1.2-2.8-2.2-5.7-3.1-8.6c-1-3.3,1.7-3.4,4-2.6c4.7,1.6,9.4,3,13.9,5c4.3,1.9,5.8-0.4,6.6-3.8
	s0-6-4.1-6.3c-1-0.1-2-0.4-3.4-0.6c1.2-2.2,3.1-3.9,5.3-4.8c1.9-0.8,4.9-3,3.7,2.1c-0.2,0.6,0.6,1.5,1,2.2
	c3.7,5.7,6.4,11.6,5.1,18.7C137,81.1,137.8,82.6,138.1,84.1z"/>
<path class="st0" d="M93.6,76.6c2.3,3.5,6.3,4.9,8.8,8.1c1.9,2.4,2.6-1.9,4.2-2.2c7.9,6.9,12.7,15.6,15.3,25.7
	c0.9,3.4,0.2,6.1-2.4,7.9s-5.3,3.3-8.7,1.7c-4.2-2.2-8.8-3.7-13.5-4.6c-2-0.3-2.7-1.3-2.6-3.4c0.5-6-0.3-11.9-2.5-17.5
	C90.2,87.1,94.6,82.1,93.6,76.6z"/>
<path class="st18" d="M120,247c1.5-18.1-0.3-36-2-54c2-2.6,0.4-5.7,1.1-8.4c1.9,11.9,2.6,23.9,3.5,35.9c0.9,12.4-0.7,24.7-0.8,37.1
	c-0.1,0.6-0.4,1.2-0.7,1.8C120.4,255.3,122.1,251,120,247z"/>
<path class="st19" d="M81,66.1l1.2,2.5c-3.8,2.8-6.4,7-11.1,9.8C72.4,72,76.5,68.8,81,66.1z"/>
<path class="st8" d="M76.2,66.3c-2.7,2.5-6.6,1.4-9.5,3.3c-0.6,0.4-1.3,0.3-1.5-0.5c-0.3-0.8,0-1.7,0.7-2.2c2.1-1.5,4.5-2.5,7.1-3
	C74.6,63.9,76.3,63.8,76.2,66.3z"/>
<path class="st8" d="M77,213.6c-2.1,3.8-3.4,6.6-3.2,10C69.5,220,70,217.8,77,213.6z"/>
<path class="st8" d="M43.2,238.5c1.3-1.2,2.5-2.2,3.6-3.3s2.3-1.4,3.3,0.1s-0.3,2.2-1.2,2.7C47.2,238.7,45.4,239.7,43.2,238.5z"/>
<path class="st15" d="M76.2,66.3c-0.7-1.4-2.2-1.5-3.3-2.3c2.9-1.5,5.7-3.2,9.1-2.9v1.1L76.2,66.3z"/>
<path class="st19" d="M58.4,234.8c-1.9-2.6-3.2-4.2-4.4-5.9c-0.5-0.6-0.4-1.5,0.2-2c0.1-0.1,0.1-0.1,0.2-0.1
	c0.9-0.6,1.4,0.1,1.8,0.9C57.1,229.5,58.3,231.3,58.4,234.8z"/>
<path class="st19" d="M74.4,80c-0.1,2.6-1.7,4.9-4,6C70.4,82.8,72,81.2,74.4,80z"/>
<path class="st8" d="M173.5,452.1c2.8,10.6,2.4,11.6-7.7,13.1c-7,1.2-14.2,1.2-21.3,0c-5.6-1-5.2-5.6-5.7-9.9
	C150.4,458.8,162.8,457.7,173.5,452.1z"/>
<path class="st15" d="M107.7,277.4c-4.1-6.2-4.8-12-2.4-18c0.4-1.1,0.1-3.5,2.6-2.5c1.6,0.6,3.3,1.1,3.2,3.6
	C110.8,266.1,109.2,271.4,107.7,277.4z"/>
<path class="st15" d="M172.8,413c0.7,2.1,3.3,1.3,4.4,2.9l-8.6,10.2C165.4,420.1,167.1,415.3,172.8,413z"/>
<path class="st15" d="M163.9,404.9c4.6,2.8,6.3,5.4,1.4,9.4C164.9,411.2,164.5,408.5,163.9,404.9z"/>
<path class="st0" d="M195.9,270.8c-1.8,1.1,0.9,5.6-3.3,4.8c-3.4-0.6-4-3.1-3.2-6.1c0.2-0.7,0.2-1.4-0.5-1.7
	c-0.6-0.3-1.4-0.1-1.7,0.5c-0.1,0.1-0.1,0.3-0.1,0.5c-0.3,2.9-1.5,2.3-3.2,1.1c-1.6-1.2-3.6-1.8-5.6-1.8c-7.6-0.4-15.3-0.8-22.9-1.2
	c-4.4-0.8-8.8-0.4-13.2-0.2c-1.3,0.1-2.6,0-3.9-0.2c-5-0.8-5.8-2-4.7-6.9c0.2-1.3,0.7-2.6,1.5-3.6c1.5-10.9,1.3-21.9-0.8-32.7
	c-2.2-12.2-1.6-24.5-2.7-36.8c-1.3-14.7-4-29.3-3.4-44.2c0.2-4.9,1.2-9.3,4.4-13.1c3.7-4.5,5.3-10.5,10.4-14.2
	c9-6.4,18.3-10.5,29.5-6.4c1.1,0.3,2.3,0.6,3.5,0.7c-0.2,2-1.6,2.5-3,2.7c-9.4,1.8-19.3,14.6-18.6,24.4c0.5,7.6,1.1,15.1,4.3,22.3
	s2,15.4,5,22.8c4.5,11.2,7.4,23,10.7,34.6c1.9,6.6,5.6,12.5,5,19.9c-0.2,2.2,2.2,3.6,4,4.8c2.3,1.7,2.7,3.5,1.3,5.9
	c-3.3,5.4-2.4,7.9,3.6,9.4c2.6,0.7,4.4,0.8,3,4.6c-0.7,2-1.2,6.2,3.2,7.1C195.6,268.2,195.4,269.8,195.9,270.8z"/>
<path class="st15" d="M135,256c0,0.5,0.1,1,0.1,1.5c0.6,2.5-2.4,5.4-0.2,7.2c1.7,1.3,4.8,0.8,7.2,1.3c4.4,1,9-0.5,13.3,0.9
	c-4.4,0.9-9-0.9-13.3,1c-1.7,1.6-3.8,0.3-5.7,0.9c-1.5,0.5-3,1.1-2.8,2.9c0.2,1.6,1.8,1.8,3.1,1.8c5.8,0.1,11.6,0,17.3,1.1
	c1.6,0.3,3.4,0,4.3,1.8c-0.6,1.5-1.8,0.9-2.8,0.7c-6.5,0.5-13.1-0.6-19.7,0.7c-4.4,0.9-6.6-2.1-6.8-7c-0.1-3.5,0.3-7,2.3-9.9
	s1.2-6.5,2.6-9.4C134.4,253,133.4,254.8,135,256z"/>
<path class="st15" d="M205,276.1c-2.7-0.8-7.8,2.6-7.1-4.1c1.9-0.9-0.7-3.6,1.2-4c2.6-0.5,5.2-0.5,7.8,0.1
	C209.1,268.6,208,273.5,205,276.1z"/>
<path class="st15" d="M190.8,485.5c-1.4,2.9-2.2,0.9-2.2-0.5c-0.2-4.9,0-9.9-0.2-14.8s-0.5-9.8,0.5-14.7c0.4-2-0.6-3.6-1.7-5
	c-4.6-6.2-0.5-11.7,1.2-17.4c0.2-0.9,1-1.5,1.9-1.3c0.4,0.1,0.7,0.2,0.9,0.5c4.9,4.3,11.7,6.3,14.9,12.6c0.2,1.7-0.1,3.3-0.7,4.8
	c-5.7,10.8-9.1,22.4-13.1,33.8C192,484.4,191.5,485.1,190.8,485.5z"/>
<path class="st20" d="M190.8,485.5c2.4-10.5,6.6-20.3,10.5-30.3c1.4-3.5,3.2-6.8,4.8-10.3c1.3,1.1,0.7,2.6,0.9,4
	c1.2,1.3,0.3,2.7-0.3,3.7c-6.4,11.2-9.4,23.8-13.9,35.7c-0.3,1.3-0.9,2.5-1.8,3.5C188.6,489.9,192,487.6,190.8,485.5z"/>
<path class="st15" d="M191,491.9c4.1-14.7,9.5-29.1,16-43c0.5-0.6,0.9-1.6,1.5-1.7c0.9-0.2,0.8,0.9,0.7,1.5c-0.1,1-0.5,1.9-0.9,2.8
	c-6.7,12.4-10.3,26-15.2,39C192.6,491.7,192.3,492.3,191,491.9z"/>
<path class="st15" d="M162,496.1c3.7-0.1,7-2.2,10.8-1.9c1.6,6.4,3.8,12.6,6.6,18.6c1.1,2.3,1.5,5.2-2.5,6.1
	c-14.7,3.3-29.7,5.5-44.7,6.4c-0.9-0.1-1.8-0.2-2.6-0.4c4-4.1,7.9-7.2,13.2-8c3.4,0.2,6.3-1.4,9.2-2.8c1.6-0.5,1.8-2,2.4-3.3
	c1.2-1.6,2.5-3.1,4-4.5c2.1-2.1,4-4.2,2.2-7.5C160,497.5,160.8,496.5,162,496.1z"/>
<path class="st16" d="M142,527.1c13.1-1.5,26.1-3.8,39.3-5.6c-9.2,5.9-19.7,5.8-30,6.5C148.2,528,144.9,529.8,142,527.1z"/>
<path class="st15" d="M142,527.1c2.9,1.8,6.2,0.1,9.2,0.9l-27,2.3l-0.2-1.7C130,527.3,136,527.4,142,527.1z"/>
<path class="st8" d="M162,496.1c-0.2,0.6-0.9,1.5-0.7,1.7c3.3,4,0.6,6.7-2.1,9.3c-0.7-0.1-1.3-0.5-1.7-1.2c-0.6-1.5,0.6-2.6,1-3.9
	c0.3-1.8,0.1-3.6-0.7-5.2c0-0.3,0.1-0.5,0.2-0.8L162,496.1z"/>
<path class="st8" d="M153,514.9c-3.2,1.3-6.2,4.3-10.2,1.9l9.1-5.1C153.1,512.4,153.6,513.8,153,514.9z"/>
<path class="st15" d="M159.9,502.8c-0.6,1.1-2.2,1.7-1.7,3.4c-0.9,1.7-1.5,3.8-4.2,2.7l3-8C159.4,499.5,159.2,501.9,159.9,502.8z"/>
<path class="st8" d="M159.9,502.8c-1-0.6-1.3-2.1-2.8-1.9c0.1-1.4-0.8-3,0.7-4.1C161.8,497.7,159.3,500.8,159.9,502.8z"/>
<path class="st15" d="M154.1,508.9c1.7-0.2,3.3-1.2,4.2-2.7l1,0.9l-4.2,3.8c-0.6,0.6-1.5,0.6-2.1,0c0,0-0.1-0.1-0.1-0.1
	C153,510,153.2,509.2,154.1,508.9z"/>
<path class="st8" d="M152.8,510.8l2.2,0.2c-0.7,1.3,1.7,4.2-2,4c-0.3-1.1-0.7-2.1-1-3.2L152.8,510.8z"/>
<path class="st15" d="M158,276.2c-7.2-0.7-14.3-1.7-21.5-1.2c-2.8,0.2-5.9-0.2-5.2-3.8c0.5-2.8,3.1-4.6,5.9-4.1
	c1.6,0.2,3.2,0.6,4.9,0.8c9.9,0.7,19.7,1.5,29.6,2c6.1,0.4,12.3-0.1,16.2,6.1c0.7,0.7,1.6,1.2,2.6,1.3c3.2,0.7,4.4,2.5,3.7,5.7
	c-0.2,1.3-0.9,1.4-2.1,1.1c-8.8-2.1-18.3-1.8-26.6-6.3C163.1,276.6,160.1,278.5,158,276.2z"/>
<path class="st15" d="M158,276.2c2.3,1.5,5.8-2.6,7.5,1.6l-1.4,1.1c-3,0.1-5.9-0.5-8.7-1.7C156.4,277.2,157.3,276.8,158,276.2z"/>
<path class="st15" d="M144.2,91.9c-2.2-3.6-0.4-7.4-1.5-10.8C145.3,84.3,147.5,87.6,144.2,91.9z"/>
<path class="st8" d="M147.2,81c7.7-0.3,2.4,3.7,2,6.1C149.1,84.9,148.4,82.8,147.2,81z"/>
<path class="st15" d="M106.2,95.4c-0.2,1.2-0.7,2.9-2.1,2.7c-3.2-0.4-2.7-3.7-3.8-5.7c-0.3-0.6-0.1-1.4,0.5-1.8
	c0.3-0.1,0.6-0.2,0.9-0.1C104,91.1,105.7,93,106.2,95.4z"/>
<path class="st15" d="M169.7,515.5c2.5,0.8,5.3,0.4,7.5-1.1C175,517.2,172.7,519.3,169.7,515.5z"/>
</svg>
