<?xml version="1.0" encoding="utf-8"?>
<!-- Generator: Adobe Illustrator 24.0.1, SVG Export Plug-In . SVG Version: 6.00 Build 0)  -->
<svg version="1.1" id="Layer_1" xmlns="http://www.w3.org/2000/svg" xmlns:xlink="http://www.w3.org/1999/xlink" x="0px" y="0px"
	 viewBox="0 0 281 575" style="enable-background:new 0 0 281 575;" xml:space="preserve">
<style type="text/css">
	.st0{fill:#FEFEFE;}
	.st1{fill:#E591AB;}
	.st2{fill:#0D0B09;}
	.st3{fill:#1A1713;}
	.st4{fill:#1D1919;}
	.st5{fill:#0C0A08;}
	.st6{fill:#1E1B19;}
	.st7{fill:#100E0B;}
	.st8{fill:#14110F;}
	.st9{fill:#181511;}
	.st10{fill:#191613;}
	.st11{fill:#100E0C;}
	.st12{fill:#1C1918;}
	.st13{fill:#1A1614;}
	.st14{fill:#0F0D0C;}
	.st15{fill:#23201E;}
	.st16{fill:#171512;}
	.st17{fill:#181514;}
	.st18{fill:#1A1817;}
	.st19{fill:#191816;}
	.st20{fill:#1E1C19;}
	.st21{fill:#3A3A3A;}
	.st22{fill:#131211;}
	.st23{fill:#F2BBBB;}
	.st24{fill:#100D0B;}
	.st25{fill:#201D1A;}
	.st26{fill:#0E0C0A;}
	.st27{fill:#FFDCDC;}
	.st28{fill:#1D1B19;}
</style>
<title>frame9</title>
<path class="st0" d="M102.1,104c-3.5-1.4-5.6-2.9-2-6.7c2.2-2.4,1.1-5.5-0.2-7.9s-3-0.3-4,0.5c-1.6,1.3-3.2,2.6-5.2,2.5
	c-2.6-0.1-5-0.9-4.7-4.3c6.1-2.2,11-6.6,16.8-9.3c3.8-1.7,7.5-3.2,10.4,1.6c0.5,0.8,1.7,0.9,2.7,1c0.8-0.2,1.1,1.6,2.2,0.5
	c3.6-3.5,3.6-3.5,6,0.5c0.4,0.6,0.8,1.1,1.2,1.5c0.8,0.5-0.1,2.8,2,1.9c3.3,0.1,4.5-2.6,6.1-4.6c3-3.2,4.8-6.7,3.1-11.3
	c-0.5-1.4-1-3.3,0.8-3.9c1.5-0.6,2.7,0.9,3.7,2.1c2.6,3.2,4.9,6.7,7.3,10.1c2.3,2.4,2.8-0.3,3.9-1.4c2.1-2.9,2.9-2.8,5,0.6
	c3.4,5.7,3.4,11.8,3.4,17.8c-0.1,5.3-3.7,9.9-7.3,13.8c-4,4.2-7.7,8.7-12.2,12.4c-0.9,1.1-1.8,2.3-2.5,3.5c-1,1.3-2,3-3.9,2.4
	s-1.2-2.4-1.5-3.8c-0.8-3.8-3.8-5.2-7.1-6c-2.3-0.4-4.7-0.2-6.9,0.4c-5.5,1.1-7.8-0.1-10.4-5.1c-0.4-0.7-0.5-1.7-1-2.3
	c-5.2-5.9-5.1-11.6-0.1-17.7c1.8-2.2,1.1-5.3,0.7-8c0.6,4-0.5,8-2.9,11.2C103.6,98.3,102.5,101.1,102.1,104z"/>
<path class="st1" d="M127,40.1c0.4-4.9,3-7.4,7.5-8c4.3-0.6,8.1-3.3,12.9-2.8c2.6,0.3,2.5,1.3,2.4,3.1c-1.8,0.5-3.5-0.5-5.2-0.2
	c3.1,0.3,3.7,2.4,3.2,5.1c-0.8,3.9-3.2,6.7-6,9.3c-0.7,0.6-1.7,1-2.4,1.7c0.8-0.3,1.3-0.8,2-1.1c4.9-3.3,9.4-7.3,15.3-9.2
	c5.1-1.7,9.5,0,14,1.7c1.9,0.7,2.6,2.6,1.9,4.6s-2.6,2.3-4.2,1.7c-6-2.2-10.6,0.6-15.1,3.9c-1.6,1.2-2.5,2-0.5,3.3
	c0.6,0.4-1.2,1.2,0.5,1.3c7.1,0.2,11.9,5.1,17,9.1c1.2,1,1.9,2.4,2.1,3.9c0.3,2.3-0.7,4.1-3,2.9c-4.8-2.5-10.2-2.7-15.2-4.3
	c-3.5-1.1-4.9-6.1-9.7-4.8c4,1.3,6.8,4.8,7.3,9c0.9,2.2,1.8,4.6-1.1,6s-4.2-0.8-5.7-2.6s-3-4-4.6-5.9c-0.9-1.1-1.7-2.9-3.5-2
	s-1.1,2.5-0.6,3.9c0.8,2,0.9,4.3,0.5,6.4c-0.5,2.1-1.4,3.8-3.8,4.1c-2.6,0.3-4.1-1-4.9-3.3c-0.6-1.7-0.9-3.6-1.5-5.3
	c-1-3-2.5-3.2-4.4-0.7c-1.7,2.2-2.9,4.9-4.5,7.2c-0.9,1.3-2.1,3-4,2s-1.4-2.8-0.8-4.4s0.7-3.6,1.5-4.5c-0.8,4.4-4.7,5.9-9,7
	c-4,1-7.3,3.2-10.5,5.5c-1.1,1-2.5,1.7-3.9,2.2c-1.2,0.3-2.4,0.4-3.2-0.8c-0.8-1.4,0.3-2.1,1.2-2.9s1.7-1.6,2.5-2.4
	c3-3.5,7.3-5.1,11.7-7.1c-1.5-0.4-2.4,0.2-3.3,0.2c-2-0.1-5,1.5-5.6-1.1c-0.4-1.7,2.3-3.2,4-4.5c2.7-2,6.2-0.8,9-2.4
	c-0.7,0-1.3,0.1-2,0.3c-3.1,0.3-6.2,0.2-7.1-3.6c-0.7-3.1,2.3-6.9,5.9-7.3c3.9-0.6,8-0.4,11.8,0.5c1.4,0.4,2.8,1.1,4.3,0.5
	c1.6-0.6,2.9-1.6,3.9-3c3.1-4.5,5.8-9.3,9.3-13.5c0.5-0.7,1.2-1.6,0.5-2.7C131.2,36.6,130.5,40.6,127,40.1z"/>
<path class="st2" d="M233.9,273c0.1,0.3,0.2,0.6,0.3,0.9c3.6,11.6,2.9,13.1-8.5,16.5c-2.8,0.8-4,1.5-2.6,4.3c0.1,0.7,0.1,1.3,0,2
	c-0.5,8.4-0.5,8.4-9.2,8.3c-2.8,0-5.7,0.1-8.5,0.3c-4.3,0.3-9.4-3.1-12.1,3.5c-1.8,4.4-3.4,8.4-2.8,13.5c0.7,5.6,2.4,11,2.5,16.6
	c-3.2,0.1-2.7-2.8-3.8-4.4c-0.8-1.5-1.4-3-1.9-4.6c-0.2-0.7-0.3-1.4-0.4-2.1c-0.4-3,0.6-5.9-0.1-8.9c0.4-2.2,0.5-4.5,0.2-6.8
	c-0.1-1.9,1.1-3.5,1.2-5.7c-2.9-0.3-5.9-0.2-8.8,0.3c-4.1,0.6-8.3,0.7-12.4,0.3c-3.8-0.2-5.9-1.9-6.1-5.7c0.1-2.3-0.9-4.5-0.6-6.9
	c2.5-3.5,3.2-0.2,4.4,1.2c0.2,0.5,0.4,1,0.5,1.5c-0.2,4.2,1.5,6,5.9,5.6c4-0.3,8-0.2,11.9-1.2c6.2-1.1,12.5-1.2,18.8-0.3
	c5.8,0.6,11.8,1,17.1-2.5c1.2-2.6,0.8-4.3-2.5-4.1c-14.3,1.2-28.6,0.8-43,0.9c-2-0.2-4,0.2-6-0.4c-1.5-0.5-3.8-0.7-2.8-3.4
	c1.8-1.2,3.8-0.9,5.8-1c11-0.4,21.9-0.7,32.9-1c5.1-0.1,5.8-0.9,5.3-6s-1.9-9.3-5.9-12.8c-4.5-3.9-5.2-9.9-7.3-15.1
	c-7.2-17.2-10.7-35.7-18-52.9c-0.8-3.7-3.2-6.6-5.2-9.7c-2.8-3.9-4.4-8.7-4.3-13.5c0-0.8,0-1.6,0.2-2.4c0.2-0.9,0.4-2.1,1.6-2.1
	s1.4,1.2,1.6,2c0.4,1.2,0.3,2.6,0.5,3.8c0.4,1,0.1,2.1,0.6,3.1c-0.3-1.2-0.3-2.4,0.2-3.5c0.4-0.7,1.1-1,1.8-1
	c2.1,0.8,2.2,2.8,2.5,4.5c0.9,5.1,3.1,9.8,4.5,14.8c1,3.5,3.2,6.1,5.9,8.5c3.6,3.3,5.7,6.5,4.4,12.5c-1.5,6.6-0.7,14.3,6,19.3
	c1.7,1.2,1.7,3.2,2,5c0.8,6.1,1.9,12.1,4.4,17.9c2,4.7,3.4,5.5,8.4,4.6c1-0.3,2-0.4,3-0.4c1.4-0.1,2.6,0.8,3,2.2
	c0.4,1.4-0.6,2.1-1.7,2.7c-1.7,1-4.1,1.5-3.7,4.1c0.5,3.9-0.1,8.1,2.3,11.6c0.7,1,1.8,1.5,3,1.4c4.1-0.6,8.1-1.9,11.8-3.9
	c1.7-0.9,1.6-2.8,1.6-4.5c0-2.4-0.9-4.5-1.3-6.8c-0.4-2.1-1.1-4.4,1.8-5.4C235.3,268.5,232.7,271.4,233.9,273z"/>
<path class="st3" d="M165.4,291.8c-0.7,2.3,1.3,1.9,2.3,2.1c1.9,0.2,3.8,0.4,5.7,0.3c-2.5,3.5-6,2-9.3,1.7c-1.5,0-1-3-3.1-2
	c-0.3,0.3-0.8,0.5-1.2,0.3c-2.1-1.5-2.6-4.2-4.5-5.8c-0.8-0.8-1.5-1.8-1.8-2.9c-0.7-8.6-2.8-16.7-8.8-23.4c0.1-0.1,0.2-0.3,0.3-0.3
	c0.6,0,0.6-0.3,0.1-0.2c-4.2,0.3-4.2,0.3-4.7-2.2c6.5-1.8,6-1.8,6.5-8.7c0.9-13.5-1-26.8-3.2-40c-1.3-7.8-3.9-15.3-5.2-23.2
	c-2-12.1-3.5-23.9-0.6-36c0.7-2.8,0.3-5-3-5.6c-2.7,1.3-1.4,3.8-1.5,5.7c-0.3,3.3,0.2,6.7-2.2,9.5c-2.9-0.3-2.2-2.5-1.9-4.1
	c0.5-3.3,0.2-6.6,0.5-10c0.3-4.5-1.2-7.8-5.5-9.5c-1.3-0.9-0.2-2.5-1.1-3.5c0-0.9,0.3-2,0-2.8c-2-4,1.1-2.6,2.8-2.6
	c1.5,1.5,0.2,4.5,3,5.3c3.7,1.3,5.4,5,8.9,7.2c1.8-2.2,0.8-4.7,1.1-6.9c-0.5-2.8,1.6-5.6,0-8.3c-0.4-0.5-0.7-1.2-0.7-1.8
	c0.6-1,0.8-2.4,2-3c2.1-0.6,3.8-0.5,4.5,2.1c0.7,2.2,0.9,4.3-0.5,6.4c-1.1,1.5-0.9,3.6,0.5,4.8c0.8,0.5,1.5,1.2,2,2
	c0.4,0.9,0.5,2,0.3,2.9c-7,18.8-6.5,37.5,1,56c1.6,3.9,1.5,8.2,2.5,12.2c1.6,6.1,1.7,12.5,4.3,18.4c2,4.5-0.7,9.9,1.8,14.6
	c0.4,0.7-0.3,1.7-1.1,2c-3.8,1.5-3.2,4.6-2.8,7.6c0.3,1.6,0.5,3.3,0.4,5c-0.2,1.9,0.3,3.2,2.4,3.7c1.3,0.3,2.8,0.5,2.9,2.3
	s-1.1,2.4-2.5,2.6c-2.2,0.4-2.3,1.6-1.4,3.2c2.2,4.2,3.1,8.8,4.5,13.2S163.1,288,165.4,291.8z"/>
<path class="st4" d="M137.2,490.1c-0.6,5.6-1.2,9.1-2.7,12.7c-2.2,5.3-1.6,11.3-2.5,16.9c-0.3,1.6,0.3,3.4,0,5
	c-1.1,5.7-1.2,7.2-7.8,5.2c-10.7-3.2-21.8-5.2-32.7-8c-6-1.6-11.9-3.7-17.9-5.7c-2.5-0.8-4.1-6-2.8-8.1c0.2-0.3,0.4-0.7,0.6-0.7
	c6.3-0.1,11.7-4.4,18.5-3.4c6.3,1,12.4-2.5,18.5-4.1c4.4-1.1,3.9-6.1,5.5-9.3c3.5-7,8.4-9.2,15.6-5.8c0.7,0.4,1.5,1,2.2,1
	C136.4,485.6,138,487.5,137.2,490.1z"/>
<path class="st5" d="M143.9,123c-0.5-2.2-3.2-0.1-3.9-2c6.2-7.2,14.7-12.7,18-22c2.3-6.4,2.5-13.5-1.9-19.7c-0.3-0.4-0.7-0.6-0.9-1
	c-0.4-0.9,2.1-2.1,0-2.7c-1.2-0.3-1.5,1.5-2.3,2.2c-1.4,1.4-2.9,2-4.8,1.2c-3.8-3.8-6.2-8.9-11.4-13.4c2.3,6.8,3.8,12.6-2.6,16.5
	c-0.9,0.6-1.9,0.9-3,0.8c-4-1.2-5.2-4.6-6.1-8.2c-0.3-1.2-0.3-3.2-2.1-0.8c-2.2,2.8-3,6.7-6.7,8.2c-2.4,1.6-4-0.2-4.8-1.8
	c-1.1-2.1-1.7-2.3-4.1-1.6c-4.7,1.4-9,3.2-12.6,6.4c-2.3,2.1-5.5,3.2-8.6,3c-3.3-5.6,2.6-6.4,4.8-9.1c1-0.4,1.3,0.1,1.2,1
	c-0.6,2.2-3.3,2.7-4.1,4.8c1.7,1.2,3-0.1,4-0.8c5-3.7,10.2-6.7,16.3-8.1c2.4-0.4,4.4-2.3,4.9-4.7c0.3-1.3,1.7-2.4,2.6-3.6
	c0.4-0.6,1.1-0.7,1.7-0.4c0,0,0,0,0.1,0c0.9,0.7,0.4,1.4-0.3,2c-2.5,1.9-1.8,5.2-3.5,7.5c-0.7,0.9-0.8,1.9,0.3,2.5s1.8-0.3,2.3-1.1
	c1.7-2.7,3.3-5.4,4.8-8.1c1.1-1.9,2.8-3.2,4.7-3s1.9,2.4,2.2,4.1c0.2,1.1,0.4,2.3,0.8,3.4c0.6,2.2,0.9,5,4.1,4.6s2.6-3.4,3.1-5.5
	c0.4-1.7-0.5-3.2-0.9-4.8s-1.3-3.3,0.9-4.3c1.7-0.9,3.8-0.4,4.9,1.2c1.8,2.2,3.3,4.6,5.2,6.7c1.1,1.3,1.2,4.3,4.2,3.1
	c3.4-1.3,0.6-3.6,0.7-5.5c-0.5-0.7-0.6-1.7,0.2-2c1.4-0.6,1.1,1.6,2.2,1.7c0.6,3.1,4.2,3.3,5.4,6.1c1.9,4.4,4.6,8.5,3,13.4
	c2,1,2.5-0.3,3.1-1.2c1.1-1.5,2.3-3,4.3-3c7.2,0.1,14.5-0.3,21.4,2.7c2.5,1.1,4.2,3.5,5.3,5.6c3.7,6.9,8.8,13.3,9.9,21.5
	c-3.5-0.1-2.8-4-5-5.4c-2.5-3.9-4-8.4-6.6-12.2c-4.4-6.6-16.8-10.6-24-7.4c-3.5,1.6-5.4,4.9-6.9,8.2C159,108.2,150.7,115,143.9,123z
	"/>
<path class="st6" d="M104.3,378.1c0.1-2.2-2.3-5.4,2.3-5.9c-2.2-3.5,0.2-6.8,0.3-10.2c0.1-5.3,1.3-10.4,3.6-15.2
	c1.7,0.5,2-3.1,4.1-1.3c0.7,1.5,0.8,3.2,0.4,4.8c-3,6.9-3.2,14.1-1.9,21.5c0.5,2.4,0.6,5,0.2,7.4c-1.9,10.2,0.3,20.1,2.2,30
	c0.3,1.5,0.9,2.9,0.6,4.4c-1.3,8-0.3,15.8,1.4,23.6c0.2,1,0.7,1.9,1.4,2.6c0.8,1.2,1.4,2.6,1.8,4c1.5,4.3,3.3,8.4,9.1,8.1
	c1,0,2.8,0.3,2.1,2.3c-2.2,0.4-4.3,0-6.5,0.2c3,0.4,6.2-1.1,8.8,1.5c-0.4,3.2-2.9,3.2-5.2,3.2c-2.6-0.1-5.3-0.5-7.8-1.2
	c-1.6,0.1-2.6-3.2-4.5-0.7c-2.5,1-3,2.7-2.3,5.1c-0.3,2.2-2.1,1.6-3.5,1.8c-1-0.9-2.1-2.2-1.6-3.3c1.9-4.4,0.5-9.3,2.4-13.6
	c0.4-1.3,0.5-2.6,0.2-3.9c-1.2-12-0.3-24.2-2.1-36.2c-0.8-5.4-1.9-10.7-3.1-16c-0.2-0.8-1.2-1.5-1.8-2.2
	C106.7,385.2,104.6,381.7,104.3,378.1z"/>
<path class="st7" d="M123.1,134.1c1.2,0.8,0.8,2.1,1,3.2c0.9,1,1.3,2.4,1,3.7c-1.9,10.2-0.2,20.5-0.6,30.7
	c-0.1,3.5-0.5,6.9-1.4,10.3c-2.1,9.4-2.4,19-1.1,28.5c0.2,2.3,0.4,4.6,0.3,6.9c0,0.6,0,1.2-0.1,1.8c-0.5,1.8-0.8,4-3.7,2.7
	c-2-3.5-1-7.3-1.2-11c0.2-6.5,0.1-13,0-19.5c-0.2-2.9-0.1-5.9,0.3-8.8c1.7-5.7,0.1-11.5,0.7-17.2c0.1-2.4,0.3-4.9,0.7-7.3
	c-0.6,4.7-1.5,9.3-2.8,13.8c-1.9,9.6-4.4,19.1-7.5,28.4c-4.1,13.1-9.5,25.8-15.9,38c-4.3,7.9-6.1,17-5,26c0.2,2,0.4,4.3-0.8,5.8
	c-3.2,4-4.9,8.9-8,13c-0.5,0.2-1.1,0.2-1.5-0.1c-1-4.9-0.4-9.5,3.1-13.4c3-3.3,1.5-7.1,1.2-10.8c2.9-8,2.2-17,7.3-24.5
	c2.5-3.7,4.4-7.7,7.2-11.3c2.2-2.7,3.2-6.1,4.2-9.5c5.4-19,9.9-38.2,16.5-56.8C120,149.3,120.7,141.5,123.1,134.1z"/>
<path class="st8" d="M215,450.1c1.5-0.1,2.2,0.5,1.6,2.1c-0.5,1.4-1.7,2.9-1.4,4.2c2.2,9.8-6.4,9.3-11.4,12.2
	c-0.6,0.4-0.7,0.2-1.4-1.1c-0.6-1.1-1.8-0.8-2.6-0.4c-6.4,2.7-13,0.3-19.5,0.9c-3.5,0.3-6.3-9.9-3.5-13c2.1-2.3,1.4-4.2,0.7-6.3
	c-2-6.6-3.1-13.9-6.7-19.6c-5.1-8.1-5-17.2-7.8-25.5c-2.2-6.5-4.3-13.1-7.5-19.3c-0.3-0.9-0.5-1.9-0.6-2.9c-1.5-4.1-1.3-4.7,1.9-4.7
	c2.9,9.9,8.9,18.5,11.3,28.6c2.5,10.1,5.5,20.1,9.1,29.9c1.7,4.7,3.6,9.3,4.7,14.1c0.6,2.4,2.2,3.5,4.7,3.6c4,0.3,8.1,1.7,11.4-2.3
	c1.1-1.3,3.3-1.9,4.5,0.7c1,2.3,2.8,1,4.3,0.9c0.8-0.1,1.6,0,2.3,0.2c0.5,0.2,0.9,0.5,1.2,1c0.5,1.6-0.5,3.3-2.1,3.7
	c-0.1,0-0.2,0.1-0.3,0.1c-6,1.3-11.9,4.7-18.3,1.8c-0.9-0.4-1.9-0.7-2.9-0.8c-1.9-0.1-4.6-0.8-5,1.7s1.8,3.7,4.2,3.8
	c3.8,0.3,7.6,0.2,11.4-0.2c2.6-0.4,5.2-1.1,7.8-1.5c2.8-0.4,4.6-1.7,5.3-4.4c0.5-1.6,1.2-3.1,2.1-4.5
	C213.3,451.9,214.1,450.9,215,450.1z"/>
<path class="st9" d="M233.9,273c-1.8-1.2,0-3.9-2-5c-0.9-2,0.2-3.9,0.4-5.9c0.8-7.1,0.1-14.4-2-21.2c-2.2-6.9-3.6-13.9-2.8-21.1
	c0.3-2.7-0.5-5.3-0.8-7.9c0-3-0.3-6-0.8-8.9c-0.4,2.1-0.8,4.4-4.2,3.2c-2-4.1-1.4-8.6-0.9-12.7c0.8-7-0.9-13.5-3.3-19.9
	c-2.6-7-3.8-14.3-5.4-21.6c0.3-1.2,1-2.2,2-2.9c1-0.3,1.6-1.2,1.5-2.2c0.2-0.9,0.7-1.6,1.5-2c5.2,9.5,5.9,20.1,7.4,30.5
	c0.3,1.3,0.8,2.5,1.5,3.7c2.3,6,1.5,12.6,4.3,18.5c0.7,6.5,1.6,12.9,1.8,19.5c0,9.1,0.5,18,3.7,26.8c2.8,7.7,0,16,0.8,24
	C236.6,269.8,233.7,270.8,233.9,273z"/>
<path class="st10" d="M215,450.1c0,1.2,0.1,2.4-1.3,3c-1,0.9-2.6,0.9-3.5-0.1l-1.3-0.1c-1.1-1.7-0.1-3.5-0.2-5.3
	c0-9.3-3.4-17.7-6.4-26.2c-2.4-3.8-0.6-8.2-1.7-12.2c-2.3-8.8-6.7-16.8-10.3-25.1c1.2-2.8,0.9-5.9,0.7-8.8
	c-0.7-11.1-0.6-22.2-2.2-33.3c-0.4-2.7-0.8-5.7,1.2-8.1c1.9,1.1,0.5,4.2,3,5c0.1,0.2,0.2,0.4,0.2,0.7c0,0.1-0.1,0.2-0.1,0.3
	c-1.2,4.1,0.7,8,0.6,12.1c0,3.3-0.7,7.3,1.5,10.5c1.4,4,1.4,8.2,1.4,12.4c-0.1,10.5,4.8,19.8,6.5,29.8c2.3,13.9,6.8,27.2,10,40.9
	C213.4,447.4,213.7,448.9,215,450.1z"/>
<path class="st11" d="M154.4,64.9c5.1,1.7,10.9,1.1,15.7,4.3c0.5,0.3,1.1,1,1.7,0.3c0.9-1.1,0.2-2.1-0.5-3.1
	c-3.5-5.6-14.6-11.5-21.8-11.4c0.6-1.7,2.4-0.1,3-1.2c-0.5-1.2-1.5-1.1-2.5-1s-1.7,0.4-1.9-0.8c-0.1-0.9,0.4-1.7,1.3-1.9
	c6.5-2.5,12.3-8.2,20.3-5.1c0.8,0.4,1.7,0,2.1-0.8c0.1-0.2,0.1-0.4,0.1-0.5c0.3-1.5-0.6-3-2-3.6c-7.3-3.3-17.3-1.1-23.3,5.2
	c-1.6,1.7-3.1,2.9-5.5,2.8c-0.5-0.4-0.6-1.2-0.2-1.7c0.1-0.1,0.1-0.1,0.2-0.2c1.3-2.9,4.6-4.3,5.5-7.5c0.4-1.6,1.3-3.5,0.1-4.8
	s-2.7-0.5-4.2,0c-1,0.2-2.1,0.4-3.2,0.6c3.9-3.7,6.9-4.7,10.6-2c0,2.4-0.7,4.7-1.9,6.7c1.8,1.1,2.8-0.2,3.8-0.8
	c6.3-3.6,13-2.7,19.3-1.1c3.6,0.9,3.2,5.1,3,8.2c-0.2,3.3-3,1.5-4.7,1.7c-1.3,0-2.6-0.2-3.9-0.6c-4.3-1.1-7.3,1.5-10.1,4
	c-1.5,1.3,0.2,1.9,1.1,2.5c4.8,3,9.4,6.1,14.4,8.7c3.8,2,3.8,4.8,3.3,8.2c-0.4,2.5-2.1,3.4-3.8,2.3c-5-3.4-11-3.1-16.4-5
	c-0.8-0.4-1.3-1-0.9-2C153.3,64.6,153.9,64.7,154.4,64.9z"/>
<path class="st12" d="M190.9,494c-1.8-3.2-1.8-5.3,2.8-5.5c3.7-0.1,7-2.2,11-2c2.9,0.1,4.4,1.2,6.2,2.7c2.5,1.2,2.6,3.9,3.9,5.9
	c-0.8,6.7,2.5,12.8,2.7,19.3c0.1,2.1,0.5,4.2-1.6,5.7c-0.9,1.5-0.4,4.3-3.5,3.6c-2.6-3.4-4.7-3.4-6.4,0.2c-1.4,1.4-3.2,0.7-4.7,0.7
	c-2.7-0.1,0.5,0.6-0.2,0.7L200,526c-1.5,0.8-2.8,2-4.6,0.8c-1.2-1.1-3.1-1.5-3.6-3.4c2.4-2.8,6.1-2,8.7-3.2c-4.6-1-10,2.4-14.8-1.5
	c-0.2-0.5-0.2-1.1,0-1.6c1.9-2.3,4.5-1.5,6.9-1.7c3.1-0.2,6.3,0.3,9.4-0.4c2.4-0.6,4.8-1.4,7.3-1.4c3.3,0,4-2,3.3-4.6
	c-1.2-5-2.5-10-4-14.8c-1-3.2-3.4-4.4-6.6-3.6s-6.2,1.5-5.9,5.9c0.2,2.7,0.9,5.8-2.3,7.5c-3,0.9-4.9,1-3.6-3.3
	C190.8,498.6,192.8,496.4,190.9,494z"/>
<path class="st7" d="M127.5,135.1c-2.5-1.7-2.2-4-1.6-6.5c2.4-4.2-1.7-6-3.6-6.1c-9.1-0.4-13.4-5.7-16.3-13.4
	c-0.7-1.9-2.5-3.4-3.8-5.1c-1.1-2.6-1-4.4,1.2-6.9c2.9-3.4,4.9-7.8,3.8-12.9c-0.3-1.4-1-2.9,0-4.3c2.8,2.1,4.3,9.9,1.7,13.2
	c-4.9,6-4.5,11-0.3,17.3c4,6.1,4.3,7.4,11.4,5.9c5-1.3,10.4,0.3,14,4c0.9,0.8,2,1.4,1.1,2.8s-1.7,3.1,0.2,3.8s1.4-2.3,2.8-2.9
	l1.1,1.1c1.2,3-1.3,4-3,5.5c-1.2,0.5-2.4,0.6-3.7,0.4c-2.2-0.8-3.7-0.6-3.7,2.3C128.8,134.1,128.2,134.9,127.5,135.1z"/>
<path class="st10" d="M122,309c3.3-6.7,0.8-11.9-4.8-15.4c-3.5-2.2-3.2-5-3.5-8c0-1.2,0-2.3,0.2-3.5c-1.5-5.9,0.8-11.3,1.9-16.9
	c0.3-1.6,1.1-3.5,3-1c0.8,3.7,0.4,7.4,0.1,11.1c-0.1,1.6-0.6,3.3,1.5,3.9c1-0.4,1.5-2.5,3.1-0.9c0.8,1.5,0.9,3.2,1.8,4.6
	c3.9,5.9,2.4,12.1,2.4,18.6c0,5.1-0.9,9.8-1.5,14.6c-0.5,4.9-2.7,9.4-6.2,12.9c-1-0.9-1.7-2.2-1.9-3.5
	C118.4,319.9,119.7,314.3,122,309z"/>
<path class="st13" d="M191.6,523.7c1.7,0.4,3.4,0.7,4.3,2.3c-6.1,3-12.6,1.4-19,1.8c-4.3,0.1-8.6,0.1-13,0.2c-2.2,0-5.3-0.4-5.5-2.5
	c-0.3-3-3.5-6.5,0.8-9.3c3-2,5.6-6.1,8.9-5.7c3.1,0.4,5.4-0.8,8-1.2c10.4-1.7,13.1-4.6,14.6-15.4c0.3-0.3,0.7-0.7,1.1-0.9
	c1.2-0.5,0.9,0.4,0.8,0.9c-0.5,2.4-1.2,4.7-2,7c-1.3,3.4,0.5,2.7,2.4,2.1c0.8,1.8-0.3,2.9-1.5,3.7c-4.5,2.7-8.4,6.3-14,6.6
	c-3.2,0.2-5.7,2.4-8.5,3.7c-0.4,0.3-0.9,0.5-1.4,0.6c-2.8,0.3-3.6,2.1-3.5,4.6c-0.5,0.8-2.3,1.7,0.1,2.3c1.7,0.4,3.2-0.3,4.8-0.7
	c4.6-0.7,9.3,0.4,13.9-0.9C186,522.6,188.9,521.8,191.6,523.7z"/>
<path class="st14" d="M217,144.9c-0.3,0.7-0.6,1.4-0.9,2.1c-3-0.9-2.3-3.9-3.5-5.9c-1.1-1.8-1.9-3.7-3.1-5.4c-1.2-2.2-3-3.9-4.5-5.9
	c-1-1.3-2.2-2.3-3.6-3c-7.6-2.1-15-4.6-23.1-3.5c-1.7-0.1-3.3,0.5-5,0.8c-2.4,0.3-4.7,1-6.8,2c-5.3,1.5-9.8,4.5-14.2,7.7
	c-1.7,1.2-3.4,3.4-6.1,2.3l-2.2-1c2.9-4.7,7.5-7.5,12.2-9.8c13.2-6.6,26.9-10.4,41.8-5.3c4.1,1.4,4.4,0.7,3.8-3.9
	c-0.3-2.4-1.7-4.8,0.2-7.1c2.3,1.3,1.3,4.8,3.9,6c0.3,6.3,0.5,12.3,5.6,17.5C214.5,135.6,216.3,140.2,217,144.9z"/>
<path class="st15" d="M118.1,265.3c-0.1-0.3-0.1-0.8-0.3-0.9c-1.2-0.7-0.7,0.5-0.8,0.8c-1,5.6-2.1,11.3-3.1,17
	c-0.8-3-1.2-6.8-5.6-3.1c-0.6,0.7-2.2,0.8-1,2.5c0.6,0.8-0.2,1.7-1.4,1.9c-4.7-0.9-5.5-5.4-7.3-8.6c-1.3-2.4,1.2-4,4.7-3.2
	c0.3-2.5-4.1-5.5,0.8-7.4c2-0.1,4,0.6,5.5,1.8c0.8,0.8,1.7,1.4,2.7,1.9c-0.8-2.4-0.3-4.6,0.3-6.8c1.5-5.1,3-10.2,3.1-15.6
	c0-1.8,0.4-3.7,2.2-4.8c3.6,2.2,1.6,5.6,1.5,8.4c-0.1,2.4-0.2,4.6,1,6.7C120.3,259.1,121.1,262.7,118.1,265.3z"/>
<path class="st16" d="M92,80l-1.2-1c0.2-0.3,0.6-0.7,0.5-0.8c-3.2-5.8,1.7-8.2,5-10.6c2.2-1.6,1.5-2.9,0.5-3.7c-4-3.1-1.2-5.8,0.7-8
	c4.4-5,11-6,17-3.1c0.4,0.2,1-0.1,1.4-0.1c1.7-0.9,3.1-0.3,4.5,0.8c0.9,0.7,1.2,1.9,0.8,2.9c-4.3,1.3-8.1-1.8-12.3-1.5
	c-3.2,0.2-6.6-0.7-8.8,2.9s-1.5,5.7,2.8,6c1.8,0,3.6-0.2,5.4-0.6c1.2-0.1,2.6-0.2,2.8,1.3c0.2,1.7-1.3,1.4-2.4,1.5
	c-5,0.9-10.9-0.2-14.1,6c3.8,0.1,7.4-0.7,11.8-3.1C103,76,96.1,76,92,80z"/>
<path class="st17" d="M134.3,456.1c-3.2-1.4-6.7-1.1-10-2.1h7.6c1.3-1.3,3-1.5,4.6-1.4c4.6,0.1,6.3-2.5,7.1-6.7
	c1-5.1,0.8-10.6,4.1-15.1c0.5-0.3,1.1-0.2,1.5,0.1c0.5,5.4-1.7,10.4-2.4,15.6c-0.5,3.3-0.9,6.1,0.9,9.4s0.8,7.5-1,10.9
	c-0.6,1.3-2,1.9-3.4,1.5c-10-3.3-20.5-2.1-30.7-3.2c-0.7,0-1.3-0.4-1.5-1c0.7-1.3,2.3-0.4,3.2-1.3c1.5-1.5,3.4-1.5,5.1-1.2
	c6.5,1.2,13.2,0.3,19.8,1.6c2.4,0.5,5,0.8,5.2-2.6c0.2-3.2-2.2-3.2-4.5-3C137.7,457.7,135.7,457.8,134.3,456.1z"/>
<path class="st18" d="M105.8,282.9c1.6-0.8-1.8-4.8,2.5-3.9c0.9,5.2-3.9,8-5.2,12.3c-1.1,3.3-3.6,6.2-5.1,9.5
	c-0.9,1.9-2.5,1.8-4,2.2c-0.8,0.5-1.3,0-1.8-0.5c-4.3-3-9-5.3-13.5-8c-1.2-1.4-3-2.3-2.8-4.5l0.2-2.8c1.3-1.1-0.8-3.6,1.7-4.2
	L79,283c1.2,1,0.8,2.4,0.8,3.7c-0.1,1.9,0.9,3.7,2.6,4.5c3.3,1.9,6.8,3.4,10.2,5.3c2.1,1.1,3.5,0.2,4.6-1.5c1.6-2.5,2.8-5.3,3.7-8.2
	C101.6,284.4,103,282.7,105.8,282.9z"/>
<path class="st19" d="M149.1,431H148c-2-2-1.6-4.6-1.3-7.1c1.1-8.6,1.8-17.2,2-25.8c0.2-1.8,1-3.5,1-5.4s0.3-3.7-1.6-4.9
	c-1.1-0.9-2.7-1.5-2.5-3.3c0.6-1.7,2-3.1,3.8-3.6c1.3-0.4,3.1-1,2.8,1.6c-1,1.8-1.1,3.9-0.3,5.8c2.3,6.2,0.2,12.8,0.2,19.3
	C152,415.3,150.2,423.1,149.1,431z"/>
<path class="st20" d="M152.2,382.4c-3.8-2.6-4.4,1.7-6.4,3c-2.4,1.2-5.1,1.2-7.7,1.6c-1.6,0.2-3.7,0.4-4.1-1.7
	c-0.3-1.8,1.3-3,2.9-3.6c2-0.9,4-1.5,6.1-1.9c5.8-0.9,8.5-5.7,12.4-9.1c0.8,0.9,1.6,1.6,2.9,0.8c2.5,2.6,0.3,4-1.5,5.4
	c-3.9-0.1-0.8,3-1.9,4.1C153.3,380.1,153,381.9,152.2,382.4z"/>
<path class="st21" d="M120,54.3l-4.1-1.6c-0.3-0.8-2.4-1.9-0.5-2.5c5.4-1.7,8-6.5,11.6-10.1c3.2-1.4,4.2-5.9,8.3-5.8
	c0,0.2,0.2,0.4,0.1,0.5c-5.3,6.2-8.2,14.1-14.5,19.5C120.7,54.4,120.3,54.4,120,54.3z"/>
<path class="st1" d="M77.8,282.9l-1.7,4.2c-0.2-4.8,1-9.5-0.8-14.5c-1.6-4.6,1.5-8.6,5.7-9.6c1.8,2.1,1.9,4.5,1.1,7
	C79.2,273.7,77.7,278.3,77.8,282.9z"/>
<path class="st1" d="M232,217c-2.3-6.5-2.3-13.3-2.9-20c1.4-1.9-0.6-3.2-0.8-4.9c-0.1-1.8-1.8-4.2,1.5-5
	C233.4,196.7,234.1,207,232,217z"/>
<path class="st0" d="M122,309c0.6,6-2.6,11.2-3.4,16.9c0.3,1.5,0.5,3-1.5,3.6c-4.8-6.4-0.1-12.2,1.3-18.1
	C119,309.8,120.5,308.9,122,309z"/>
<path class="st21" d="M154.4,64.9c-1.3,0.5-0.7,1.4-0.4,2.2c-1,0.8-0.2,1.9-0.6,2.9c-0.7,0.8-1.9-2.8-2.4,0.2
	c-0.7-5.9-6.3-7.1-9.8-10.5C146.4,59.3,151,60.4,154.4,64.9z"/>
<path class="st22" d="M117.2,329.4c1.4-0.8,0-2.8,1.5-3.6c1.3,0.6,1.3,1.8,1.3,3c0.5,5.7-2.8,10.2-4.8,15.1c-0.3,0.4-0.6,0.8-1,1.1
	c-1.2,0.6-1.2,3.5-3.6,1.8C112.8,341,115,335.2,117.2,329.4z"/>
<path class="st1" d="M177,527.9l19-1.8c1.4,1.4,2.7-0.7,4-0.1c-0.9,2.1-2.9,2-4.6,2.2C189.2,529.1,183,529.8,177,527.9z"/>
<path class="st23" d="M229.8,187.1c-2,2.8,0.2,5.4,0.6,8c0.2,1,1.6,3.1-1.4,1.9c-3.1-5.6-2.9-11.8-3.2-18
	C227.8,181.5,229.4,184,229.8,187.1z"/>
<path class="st1" d="M92.7,301.9L94,303c-0.1,0.7-0.8,1.1-1.5,1c-0.2,0-0.3-0.1-0.5-0.2c-4.9-2.3-10-4.3-14.3-7.6
	c-2-1.6-3.7-3.4-1.9-6.2c0.7,1.6,2.9,2.1,3.2,4C83.1,297.5,88.1,299.4,92.7,301.9z"/>
<path class="st2" d="M195.2,362.6c-3.6-3.1-1.9-7.4-2.5-11.2c-0.4-2.8,0.9-5.7-1.3-8.4c-1-1.2,0.3-2.4,1.6-3.1
	C194.5,347.4,194.5,355,195.2,362.6z"/>
<path class="st1" d="M104.3,378.1c3.6,3.4,4.1,7,0.7,10.8C101.2,385.6,102.3,381.9,104.3,378.1z"/>
<path class="st13" d="M211.7,522.8c2.7,0.9,3.1-1.6,4.3-2.9c0.8,3.3-0.9,4.7-3.9,5.1c-3.6,0.4-7.2,0.5-10.8,0.1l-3-0.4
	c2.9-1.5,5.6,0.2,7.7-1.5C207.8,521.2,209.7,521.4,211.7,522.8z"/>
<path class="st1" d="M82.1,270c-1.3-2.2-0.9-4.7-1.1-7c0.4-1.4,0.8-2.7,1.2-4.1C83.9,262.6,86.5,266.4,82.1,270z"/>
<path class="st21" d="M214.8,495c-2.9-0.9-2.7-3.9-3.9-5.9C214,488.6,215,490,214.8,495z"/>
<path class="st23" d="M116.1,82.1c2.1-3.1,4.2-6.2,6.2-9.4c0.6-0.9,0.9-2.6,2.2-2.1s1.4,2.1,1.2,3.5c-1.7,1.9-0.8,4-0.5,6
	c0.2,1.7,1.3,3.4,0,5.1c-2.5-1-2.5-3.6-3.5-5.5C119.2,79.2,120,85.7,116.1,82.1z"/>
<path class="st21" d="M125.3,85.2c-0.5-3.4-2.7-6.6-1.3-10.3c0.5-1.3,0.8-1.6,1.9-0.8c1.3,2.9,1.2,6.7,5.2,7.9
	c1.5,3.9-2.3,3.6-3.9,5C125.5,87.5,125.7,86,125.3,85.2z"/>
<path class="st21" d="M120.7,91.9c-0.1,1.1-0.8,2.5-2,2.1c-3-1.1-5.3-3.5-6.2-6.6c-0.7-2,2.6-2.2,3-2.1
	C118.7,86,120,88.6,120.7,91.9z"/>
<path class="st21" d="M127.1,87c0.7-2.1,4-2.2,3.9-5l3,0.1C132.7,85.2,131,87.5,127.1,87z"/>
<path class="st21" d="M148,79c1.4-1.1,3.2-0.9,4.8-1.2C150.4,81.6,150,81.7,148,79z"/>
<path class="st21" d="M120,54.3c3-3.7,6.4-7.1,8.1-11.7c1.4-3.7,5.3-5.1,7.2-8.4c0.2,2.8,0.1,5.4-2.4,7.4c-3.5,2.7-4.6,7.1-7.3,10.5
	c-1.3,1.6-2.8,3.1-4.5,4.3L120,54.3z"/>
<path class="st21" d="M141,46.1V48c-1.3,1.3-2.7,2.5-5,1.6C136.8,47.1,139.5,47.4,141,46.1z"/>
<path class="st0" d="M114.3,343.8l5.7-15c4.1-6.5,6.8-14.1,6.4-21.2c-0.5-8.3,4.2-17.5-2.7-25.2c-0.8-0.9-0.4-2.9-0.6-4.3
	c-0.5-0.7-0.8-1.5-0.9-2.3c-0.1-1.2,0-2.5,1.3-2.9c1.7-0.6,2.5,0.6,3,1.9c0.8,2.7,2.2,5.2,3.9,7.4c2.4,3,6.1,4.8,9.9,4.6
	c5.2,0.1,10.6-0.9,15.7,1.1c2.1,1.4,3,3.8,4.2,5.9c0.5,2.4-0.6,5.2,1.8,7.2c0,3.8,1.9,4.9,5.6,4.8c8-0.2,15.9-0.1,24-0.1
	c-1.6,1.9-3.5,4-3.6,7c-0.2,4-3.3,6.8-4.2,10.5c-5.4,14.2-11.8,27.8-20.8,40.1c-2,2.8-3.7,5.9-6.9,7.6c-3.7,9.5-14,9.5-22.2,14.1
	c4.8,2.2,8.5-1.4,12,0.5c0.8,1,2.5,0.2,3.2,1.5c1,2.4-0.4,4.8-0.1,7.2c0.4,1,0.6,1.9,1,2.9c1.1,11.4-2.2,22.6-1.9,34
	c-1.1,5.5-2.6,11-3.3,16.6c-0.7,5.3-3.5,7.1-8.4,6.6c-1.5-0.2-3-0.1-4.5-0.1c-0.2-0.2-0.5-0.7-0.7-0.6c-9.5,1.6-10.5-5.8-12.6-12
	c-0.2-0.5-0.3-0.9-0.5-1.4c-0.6-1.2,0.3-2.5,0.1-3.7c-0.3,1.2,0.2,2.9-2.1,2.7c-1.3-8.5-0.9-17.2-1.7-25.7s-3.8-17.2-2.9-25.5
	c1.4-12.6-3.6-25.7,2.6-37.9c1.1-1.2,0.5-2.9,1.2-4.2c0.7-1.1,1.5-2.2,2-3.3c0.5-0.6-0.7-0.4-0.1-0.2c0.1,0,0,0.2-0.2,0.4
	C116.2,343.6,115.9,345.2,114.3,343.8z"/>
<path class="st0" d="M178.1,122.1c8.7-1.3,16.8,0.9,24.8,4c-0.2,2.2,0.3,4.7-2.5,5.7c-1.2,0-2.3-0.1-3.4-0.5
	c-13.2-3-23.8,3.9-26.7,17.4c-1.5,6.9-1.5,13.9-1.4,20.8c0.1,3.6-1.4,7.2,0,10.8c-0.2,4.7,1.7,8.8,4.1,12.7c1.4,3.1,3.1,6.1,5,9
	c5.3,11.1,8.4,23,11.8,34.8c3,10.5,8,20.4,11.2,30.9c0.7,2.2,4.1,3,5.7,5.4c3.4,5.1,2.8,10.8,3.6,16.3c0.2,1.3-0.8,1.7-1.8,1.7
	c-14.4,0.2-28.7,0.5-43.1,0.7c-5.5-2.6-6.8-7.9-8.3-12.9c-1.3-4.5-2.4-9-4.6-13.1c-1.7-3.1-0.8-3.9,2.4-3.2c1.3,0.3,2.6,0,2.7-1.4
	c0.1-1.8-1.6-1.5-2.6-1.4c-3.2,0.4-3.9-0.8-3.6-3.9c0.4-4.1,0-8.3,0.2-12.4c0-0.8-0.4-2.3,1.6-2.3c2.8,0.1,3.2-0.4,1.4-2.5
	c-2-2.6,0.3-4.9-0.2-7.3c-1.8-8.2-3.9-16.3-5.1-24.6c-1.6-11.1-7.3-21-8.2-32.4c-0.9-12.3-0.2-24,4.9-35.3c4.7-5.3,10.9-9.2,17.8-11
	c1.9-0.5,3.8-1.2,5.6-1.8C172.3,125,175,123.2,178.1,122.1z"/>
<path class="st0" d="M227.9,211c2.3,8.1-0.5,16.5,2.1,24.6c1.8,5.8,3.9,11.6,4,17.8c0.1,5,0,9.9-2.1,14.5c-2.2,3.8,0.5,7.1,1,10.6
	c0.8,4.4,0.4,7.5-4.8,8.4c-2.6,0.5-5.1,1.6-7.7,2.3c-5.7,1.6-7,0.8-8.1-5c-0.4-2.3-0.2-4.7-0.8-6.9c-1-4-0.3-6.5,4.2-7
	c1.1-0.1,2.5-0.6,1.8-2.2c-0.5-1.2-1.6-1.5-2.9-0.9c-1.1,0.5-2.2,0.9-3.3,1.1c-3.8,1-7.1,0-8.4-4c-2.1-6.7-4.9-13.3-5.1-20.6
	c0-1.6,1.4-5.8-3.3-3.2c-1,0.6-0.7-0.8-0.9-1.2c-2.6-5.6-4.1-11.6-4.5-17.8c-0.1-0.8,0-1.7,0.5-2.4c4.6-6-1.3-8.4-4.2-11.1
	c-2.4-2-4.1-4.6-5.1-7.6c-2.2-6.8-4.3-13.5-6.4-20.3c-3.2-6.2-4.6-13.1-4.2-20.1c0.2-6.2-0.2-12.5,3.4-18.2
	c3.2-5.3,8.2-9.2,14.1-11.1c1.7-0.6,3.7-0.5,5.3,0.4c3,1.1,4.7,4.2,7.9,4.8c8.8,2.6,12.5,7.4,12,15.4c2.9,10.2,5.8,20.5,8.9,30.7
	c1.9,6.5,0.6,13.1,0.7,19.6c0,1.5,0,3,0,4.4C223.8,207.8,225.8,209.5,227.9,211z"/>
<path class="st0" d="M156.8,377c-0.5-1.9,2.9-2.8,1.3-5.1c-0.6-1.1,0-2,0.6-2.7c10.2-12.5,18.2-26.6,23.9-41.6
	c0.3-1.3,1.2-2.4,2.4-3c3.1-0.6,1.9,2.3,2.9,3.5l0.1,1.8c1.7,6.1,0.5,12.2,0,18.2c-0.7,7.5-1,14.7,2.3,21.9
	c1.7,3.7,1.5,8.1,0.7,12.2c-0.2,1-1.3,2.2,0.6,2.8c3.8,2.2,3.3,6.6,4.7,9.8c2,4.6,4.5,9,5.6,14c0.9,4.1-1,8.3,1.1,12.1
	c0.9,6.8,4.4,12.9,5,19.8c0.2,2.3,0.8,4.5,0.6,6.8c-1.1,1.7-2.2,3.3-1.7,5.5c-1.9,1.4-4.1,1-6.3,1.2c-1.1-1.6,2.5-2.4,0.8-3.5
	c-1.9-1.2-3.3,0.7-4.5,2c-4,4.1-15,2-16.5-3.5c-2.6-9.5-6.5-18.4-9.5-27.7c-2.9-9-4.2-18.4-8.2-27c-2.2-4.8-4-9.7-6.4-14.4
	C155.7,378.5,157.2,378,156.8,377z"/>
<path class="st1" d="M164.1,295.9c2.8-2,6.3-0.5,9.3-1.7c13,0,25.9-0.1,38.8-0.9c2-0.1,4-0.4,5.8,0.5c1.3,1.1,1.3,2.7,1.9,4.1
	c1,2.6,0.2,3.6-2.7,4.1c-7.6,1.2-15.1,0.8-22.6-0.1c-3.8-0.4-7.5-0.6-11.2,0.8c-4.5-0.1-9,0.7-13.6,0.8c-4.2,0.1-6.3-0.8-5.4-5.3
	C164.7,297.4,164.5,296.6,164.1,295.9L164.1,295.9z"/>
<path class="st24" d="M212.5,151.2c-0.8-2-2-4-2.3-6.1c-1-5.6-5.4-7.1-10-8.4c-2.1-2-4.5-3.6-7.2-4.7c-6.6-1.5-15.4,3.3-19,10.9
	c-1.8,3.9-3.7,7.8-2.3,12.7c0.7,2.5-0.3,5.9-0.5,9c-0.5,5.5,3.1,10.1,2.8,15.5l-1.1,1.2c-0.9-0.2-1.9-0.5-2.1,0.9
	c-1.6-1.8-0.2-4.2-1.5-6.8c-0.2,2.2-0.3,3.7-0.3,5.1c-2-12.8-2.9-25.5,2.2-37.8c3.2-7.7,9.4-12.4,17.4-14c4.2-0.8,8.3,1.2,12.3,2.7
	c1.6,0,3.2,0.5,4.5,1.2c1.3,0.9,3,1.3,4.1,2.6c3.2,4.2,5.4,8.8,5.5,14.2L212.5,151.2z"/>
<path class="st21" d="M191.6,384.9c-2.6-1.2-1.6-3.4-1.3-5.2c0.6-3.7-0.1-7.5-2-10.7c-3.1-5.7-2.5-12.2-2.1-18.5
	c0.5-6.9,1.3-13.8,2-20.7l1.8,4.2c0.9,15.1,1.6,30.3,2.7,45.4C192.7,381.5,191.8,383.1,191.6,384.9z"/>
<path class="st3" d="M164.1,295.9c1.8,7.3,1.8,7.1,10.2,7.2c3.1,0,6.1-2.3,9.2-0.2c-4.5,1.3-9.1,1-13.7,1.2s-6.6-1-5.8-5.7
	C164,297.6,164.1,296.7,164.1,295.9z"/>
<path class="st25" d="M182.8,322.9c0.4-4.1,2.7-7.1,5.1-10.2c1.1,2.1,0.8,4.6-0.8,6.4c-0.1,0.2-0.2,0.4-0.3,0.6
	C185.4,320.7,185.4,323.5,182.8,322.9z"/>
<path class="st1" d="M188,328c-1.4-0.6-0.4-3.6-3-3c-1-2.6,0.2-4.4,2.1-6v0c2.2,0.1,1.5,1.3,1.3,2.7C188.1,323.8,188,325.9,188,328z
	"/>
<path class="st1" d="M170.8,182c0.2-1.7,1-1.8,2.1-0.9c-0.7,2.2,1.8,4.2,0.3,6.8C171.2,186.2,171.3,184,170.8,182z"/>
<path class="st23" d="M162,301c-5.1-1.3-2.2-4.6-1.8-7.2c0.3,0,0.6,0.1,0.8,0.2C161,296.4,162.7,298.5,162,301z"/>
<path class="st23" d="M178,202c-2.7-2.3-4.5-5.5-5-9C175.5,195.4,177.3,198.6,178,202z"/>
<path class="st21" d="M220,298c-2.2-0.6-2-2.4-1.9-4.1C222.4,293.5,220.5,296.1,220,298z"/>
<path class="st0" d="M201.9,109.1c0.6,3.2,1,6.5,1.7,9.8c0.6,2.8,0.7,4.5-3.2,3.4c-4.4-1.4-8.9-2.3-13.4-2.8
	c-13.1-1.2-24.6,3.4-35.2,10.5c-2.6,1.8-5.2,3.5-7.8,5.3c-3.2,0.1-2.2-2.2-2-3.7c0.5-2.8,2.6-5.3,1.9-8.5c1.1-4.8,4.9-7.8,8.1-10.9
	c4.5-4.4,7.6-9.5,10.3-15c4.3-8.6,6.5-9.3,14.9-9.4c11-0.1,17.5,5.7,21.6,15.1C199.8,105,200.2,107.4,201.9,109.1z"/>
<path class="st0" d="M134.2,145.4c6-0.8,6.9,0,5.4,5.4c-3.1,11.4-2.1,22.6,0,34c3.1,16.7,7.8,33.2,9.2,50.1
	c0.6,7.3-0.5,14.7-0.6,22.1c0,2.6-1.1,3-3.2,2.8c-1.6,0-3.3,0-4.9,0.2c-6.9,0-8.6-1.4-9.8-7.7c-0.8-4.3-0.6-8.6-0.7-12.9
	c-0.2-10.1-1.4-20.2-0.9-30.3c0.4-7.6,2.7-15,3.7-22.5c0.7-6.4,0.7-12.8,0-19.2C131.5,159.9,132.7,152.6,134.2,145.4z"/>
<path class="st1" d="M118.1,265.3c1.2-3,1.1-6.2,1.7-9.3c-1.6-3-0.5-6.2-0.3-9.3c0.4-7.2-0.5-14.5,0.4-21.7c0.7-2.1,2.4-4,1.3-6.5
	l0,0c1.4-6.3-1-12.5-0.8-18.8c0.2-6,1.1-11.8,1.5-17.7c1-6,1.3-12.1,1-18.2c-0.6-8.9-0.2-17.8,1.2-26.6c4.2-0.7,7.4,2.3,7.2,7.1
	c-0.2,4.4,0.2,8.9-1,13.3c-0.5,1.3-0.3,2.7,0.5,3.8c2,2.8,1.4,6,1.6,9.1c0.5,10.3-0.5,20.6-2.8,30.7c-2.1,9.5-1.3,19.2-0.8,28.8
	c0.4,7.5,0.6,14.9,0.6,22.4c0,4.6-2.4,8.8-4.4,12.5c-2.8,5.2-3.7,10.5-4.2,16.2c-4.2,0.8-3.5-2.5-3.4-4.6
	C117.8,272.7,118.8,269,118.1,265.3z"/>
<path class="st26" d="M120.9,281c-0.7-5.5-0.9-10.3,2.5-15.8c2.5-4.1,5.5-9.3,5-15.2c-0.7-8.1-1-16.2-1.3-24.4
	c-0.5-9.8,0.2-19.6,2.2-29.1c2.6-11.6,2.2-23.4,1.6-35.2c1-3.9,1.5-8,1.3-12.1c0-1.6-0.6-3.7,2.1-4c-0.3,10.4-1.4,20.8,0.4,31.3
	c1.2,6.7-1.3,13.5-2.6,20.1c-2,8.9-2.6,18-1.9,27.1c1,9.9-0.4,19.8,1.7,29.7c0.7,3.1,1.3,4.2,4.1,4.6c1.4,0.4,2.8,1,4.1,1.8
	c2.3,2.2,5.3,0.3,8.4,1.6l-3.7,0.7c-3.8,2.1-7.4,0.6-11-0.6c-1.5-0.5-3.2-2.3-4.4-0.3c-1,1.6-2.5,3.9,0.4,5.5c1.3,0.8,0.9,2,0.4,3.1
	c-1.8,4,0.2,6.4,3.4,8.1c5.4,3,10.3,7.3,17.2,5.9c1.4-0.3,2.8,0.6,3.1,1.9l2.2,2c-6.8-0.1-13.8,0.6-20.5-0.4
	c-5.2-0.8-8.4-5.6-9.8-10.7c-0.4-1.5-1.5-2.3-1.3-4.2c-2.8,1.8,0.3,4-1.2,5.4L120.9,281z"/>
<path class="st1" d="M153.8,285.9c-2.6-0.9-5.3-0.7-7.9-0.5c-3.8,0.2-6.8-0.8-8.5-4.4c-0.2-0.7-0.9-1.3-1.7-1.4
	c-8-1.7-10-6.2-5.4-12.5c-1.7-0.9-2.3,1.8-3.8,1.2c0.5-3.2-0.4-7.5,1.9-9.3s5.4,1.8,8.4,2.3c2.6,0.4,5.1,1.4,7.8,0.9
	c2.8,0.2,4.1,1.9,5.1,4.4c2.2,5.2,3.4,10.7,5.1,16.1C155.3,284.1,155.5,285.3,153.8,285.9z"/>
<path class="st23" d="M127.5,135.1c0.5-0.8,0.5-1.9,0-2.7c-0.9-1.4,0-2.6,0.9-3.4c1.6-1.5,2.5,0.4,3.5,1.2c1.9,1.1,4.1,1.5,6.3,1.3
	c1.5,0.4,1.2,1.8,1.5,2.8c-1,2.5,2,6.3-1.4,7.6s-4.7-2.9-6.8-4.7C130.3,136.1,129.4,134.7,127.5,135.1z"/>
<path class="st21" d="M170.2,127.2c-8.6,2.9-17.2,5.7-24.2,11.9l0.2-2.9c6.8-3.3,12-9.4,19.7-11.1c0.5,0.4,1.1,0.4,1.7,0.6
	C168.6,126,169.6,126.2,170.2,127.2z"/>
<path class="st23" d="M139.8,134.3l-1.8-2.4c-1.1-0.4-2.2-0.8-2.2-2.2c1.2-1.5,3.3-2.2,3.3-4.5c2.4,0,1.8,1.7,1.7,3
	C140.4,130.3,140.1,132.3,139.8,134.3z"/>
<path class="st1" d="M103.8,516.1c-8.1-1.5-15.2-5.8-23.8-6.3c1.4-2.2,3.1-1.9,4.5-1.8c8.6,0.6,16.7-2.3,24.9-3.8
	c2-0.3,3.7-1.8,4.2-3.7c0.5-2.7,0.1-5.1,3.4-6.7c2-1,1.3-5,3.9-7c0.5,3.2-1.5,5.4-1.9,8.5c2.4-1,2.4-2.9,2.7-4.5s0.4-4.5,2.9-3.4
	c3,1.2,7.4-0.4,9,3.8c0.5,1.3,0,3-0.3,4.4c-1.8,7.5-1.3,15.3-4.1,22.7c-6.5,2.5-12.9,1.1-19.3-0.4
	C107.9,517.2,105.9,516.5,103.8,516.1z"/>
<path class="st27" d="M78.9,513.9c8.8-1.2,16.3,3.2,24.3,5.7c3.3,1,6.5,2.3,9.8,3.4c-0.3,2.4-1.8,1.2-3,1
	c-9.9-2.4-19.8-4.5-29.1-8.7c-0.7-0.4-1.3-0.9-1.9-1.5L78.9,513.9z"/>
<path class="st21" d="M103.8,516.1c8.5,1,16.9,2.1,25.4,2c0.9,3-1.5,2.5-3.1,3c-2-0.1-4-0.3-6.1-0.3
	C114.4,520.2,108.8,519.4,103.8,516.1z"/>
<path class="st23" d="M110,524c1-0.3,2.3,0.4,3-1c4.5-0.5,8.8,1,13.2,1.8c-1,1.7-3,0-4.2,1.1C117.9,525.8,113.8,526.1,110,524z"/>
<path class="st21" d="M122,525.9c1-1.7,2.9-0.4,4.2-1.1c1.1-0.3,2.3-0.9,2.4,1c0,1.2-0.8,1.7-2,1.4
	C125.1,526.8,123.6,526.3,122,525.9z"/>
<path class="st1" d="M79,513.8c-2.5,0.8-4.4,0.3-6-2.8c2.4,1.1,5.4-1.1,5.9,2.9L79,513.8z"/>
<path class="st1" d="M120.1,520.8c1.8-1.3,4.4-1.2,6.1,0.3C124.2,521.8,122,521.7,120.1,520.8z"/>
<path class="st1" d="M134.3,456.1c2,0.4,3.9,0.9,6.1,0.1c1.7-0.6,4.3-0.5,5.2,1.7c0.8,2.1,0.5,4.4-0.6,6.3c-1.2,2.4-2.9,1.1-4.6,0.8
	c-8.7-1.5-17.5-1.4-26.2-2c-3-1.6-1.4-4.3-0.9-6.1c0.9-3.5,1.7,2.2,3,0.3c1.2-1.3,2.5-1.2,3.9-0.2
	C124.8,456.6,129.7,459.7,134.3,456.1z"/>
<path class="st21" d="M114.3,343.8c2.5-0.4,2.2-3.6,5.1-4l-5.6,10.1c0.1-1.6,0.1-3.3,0.2-4.9C114.2,344.6,114.3,344.2,114.3,343.8z"
	/>
<path class="st21" d="M119.3,452c-4.7-1.5-2.4-5.1-3.3-7.5C118,446.5,119.1,449.2,119.3,452z"/>
<path class="st23" d="M116,439c2.1-1.7,0.3-5.2,3.4-7c0.2,2.7-0.3,5.5-1.4,8C117.2,439.8,116.1,440.4,116,439z"/>
<path class="st1" d="M120,456.9l-3.9,0.2c0.4-1-0.7-3,1.3-2.9c1.4-0.1,2.6,1,2.6,2.4C120,456.7,120,456.8,120,456.9z"/>
<path class="st1" d="M105.8,282.9c-2.4,0.8-4,2.2-4.2,4.9c-0.1,0.5-0.2,1-0.4,1.4c-1.1,3.1-2.2,6.4-4.6,8.6c-3.7,3.5-5.3-2-8.3-2.5
	c-2.8-0.5-5.3-2.5-7.9-3.9c-3.9-2.2-1-5.7-1.5-8.5c2.1-4.2,2.2-9.3,7-12.2c1.3-0.8,0.9-3.7,0.7-5.7c-0.7-11.5,1.5-22.1,7.9-32.1
	s9-21.9,13.2-33.1c3.4-9.1,4.7-18.6,7.4-27.7c2.9-0.8,4.4,0.3,4.2,3.4c-0.1,2.2,0.3,4.5-0.3,6.7l-0.3,8.2c-0.6,7-0.6,14,0,21
	l0.3,10.5c0.7,1,1,2.2,0.8,3.4c-1.3,5.1,0.9,10.7-2,15.6c-1.3,7.6-1.5,15.5-4.5,22.8c-0.8,2.3-0.2,4.8,1.5,6.5
	c-1.8-2-5.2-0.5-6.2-3.4c-1-2.5-2.2-3-4.9-1.9c-2.1,0.7-2.2,1.7-0.7,3.2c1.8,1.9,2.7,4,1.7,6.7c-2.1-0.1-2.2-2.5-4-2.9
	c-1.5,2.4-1.3,2.3,0.8,5.4C103.1,279.3,103.5,281.8,105.8,282.9z"/>
<path class="st23" d="M119.2,182.3c-0.1-1.3-0.5-2.7-0.3-3.9c0.7-3.3-0.7-5.1-3.7-6.2l3.7-16.8l1.4,0.2
	C119.7,164.5,120.5,173.4,119.2,182.3z"/>
<path class="st28" d="M122,182c-0.5,10.7-1.9,21.5,0.1,32.2c0.4,1.5,0.1,3.1-0.8,4.3c-0.8-11.1-2.2-22.2-0.2-33.3
	C121.2,184.1,120.9,182.9,122,182z"/>
<path class="st28" d="M118.9,211.5c-1-7-1.5-14,0-21C118.9,197.5,118.9,204.5,118.9,211.5z"/>
<path class="st28" d="M119,225l0.2-3c2.2-0.3,1.7-2.1,2-3.5c1.1,1.9,0.8,3.7,0,5.6C120.5,224.5,120.1,225.7,119,225z"/>
<path class="st1" d="M210.1,453l3.5,0.1c-1.4,12.1-11.4,10.7-19.4,12.1c-2.9,0.5-5.9,0.2-8.9,0.1c-2.1,0-6.6-4.7-6.5-6.7
	c0-1.1,0.7-1.3,1.6-1.4c3.5-0.5,6.8-1.4,10.5,0.6C195.2,460,207.8,456.5,210.1,453z"/>
<path class="st21" d="M207,453c-1.2-2-2.6-3.9,0.9-5c0.5-0.6,1.3-0.6,1.8-0.2c0,0,0,0,0,0c0.4,1.8-0.7,3.4-1,5.1L207,453z"/>
<path class="st1" d="M227.9,211c-4.2,0.9-4.3-3-5.9-5.1c2.3,0.2,2.8-1.1,2.7-3.1s-0.4-4,2-6.3C227.2,201.9,227.6,206.5,227.9,211z"
	/>
<path class="st23" d="M214.9,149.4c-2-4.7-2.4-10.2-6.3-14.1c0.3-0.5,0.9-0.7,1.4-0.4c0.1,0,0.1,0.1,0.2,0.1c3.5,3.3,4.3,7.9,6,12
	C216.1,148,218,150,214.9,149.4z"/>
<path class="st1" d="M209.8,447.8L208,448c-0.6-7.7-2.3-15.2-5-22.4c-0.7-1.8-0.2-3.1,0.1-4.7C206.8,429.5,209.8,438.3,209.8,447.8z
	"/>
<path class="st1" d="M168.1,516.1c6.6-4.8,15.7-3.9,21.8-9.7c1.2-1.1,3-1.4,3.3-3.4c3.2-1.6,1.8-4.5,1.3-6.5
	c-1.5-6.1,3.5-6.2,6.6-7.1c3.4-1,7.7-0.9,8.7,3.9c1,5,2.8,9.8,4,14.7s0.2,6.5-4.9,7c-2,0.2-3.9,0.6-5.9,1c-7.4,0.8-14.8,0-22.2,1.3
	c-2.4,0.4-4.9,0.2-7.4,0.6C171.5,518.3,169.1,519.1,168.1,516.1z"/>
<path class="st1" d="M191.6,523.7c-2.8-0.3-5.6-0.1-8.4,0.4c-4.1,0.5-8.3,0.5-12.4,0.1c-1.5-0.1-4.3,0.5-4.5-1.8
	c-0.1-1.9,2.5-1.6,4-2.3c5.2-1.1,10.5-1.7,15.8-0.9c6,0.8,12-1.3,18.7,0C200.6,522.7,195.7,522.1,191.6,523.7z"/>
<path class="st1" d="M171,521c-0.9,1.7-2.9,0.1-4.1,1.4c5.3,2.7,10.9,0.9,16.3,1.7c-5,1.3-10.1,0.4-15.1,0.8c-2.2,0-4.6,0.4-4.2-3.1
	c0.7-1,1.5-2.1-0.6-2.1c-1.2,0-2.1-0.1-2.2-1.2c-0.1-0.7,0.5-1.4,1.2-1.5c0.3,0,0.6,0,0.8,0.2c2.1,1.1,3.2-1.4,5-1.2
	c6.7,1,13.4-0.4,20.1-0.1c5,0.2,9.9,0,14.9,0c-5.6,2.1-11.6-0.1-17.2,1.7c-1.2,2.7-3.6,1.8-5.6,1.8C177.1,519.4,173.9,519.1,171,521
	z"/>
<path class="st21" d="M171,521c-0.4-2.3-0.1-2.9,1.7-2.5c3.4,0.8,6.8-1,10.1,0.2c1.3,0.5,2.2-0.3,3-1c0.1,0.5,0.1,1,0.2,1.5
	C181.2,521.4,175.9,519.5,171,521z"/>
<path class="st1" d="M211.7,522.8l-5.7,0.3c-1-0.4-2.6,0.5-2.9-0.9c-0.2-0.8,1-1.4,2.1-1.6c1.6-0.3,3.2-0.8,4.8-1.3
	c1.1-0.3,2.4-1.1,3.2,0.2C214,521,212.8,522,211.7,522.8z"/>
<path class="st21" d="M135.8,129.7l2.2,2.2c-2.7,1.9-4.8,1.3-6.1-1.7L135.8,129.7z"/>
<path class="st1" d="M120,286c4.6,1.8,3.8,5.8,4.1,9.5c-2.1,0.2-2.9-1.5-4.1-2.4C119.3,290.8,119.3,288.3,120,286z"/>
<path class="st1" d="M120,286c1.7,2.4,0.3,4.7,0,7.1l-2-2.9c0.5-1.5-0.9-3.9,2.1-4.1L120,286z"/>
<path class="st21" d="M120.1,286c-1.9,0.8-0.2,3.4-2.1,4.1c-1-1.2-2.2-2.6-1.1-4.2C117.7,284.6,119,284.6,120.1,286z"/>
<path class="st21" d="M163.8,521.9c0.6,2.1,2.7,2.3,4.2,3.1c-1.3,1.4-3,1-4.6,0.8c-1.2-0.1-2.3-0.6-2.4-2
	C161,521.9,162.6,522.1,163.8,521.9z"/>
<path class="st1" d="M204.9,133.1c-1.5-0.1-3-0.8-4.1-1.9c-0.1-2,0-4,2.1-5.2l3,3C205.1,130.3,206.3,132.1,204.9,133.1z"/>
<path class="st27" d="M204.9,133.1c0.6-1.3-1.9-3.4,1-4c1.7,1.8,3.4,3.5,4.2,5.9l-1.5,0.3C206.8,135.6,205.8,134.4,204.9,133.1z"/>
<path class="st21" d="M170.2,127.2c-1-0.2-2.2,0.1-3.1-0.8c1.3-2.1,4-1.8,5.7-3.2c1.8-0.2,3.3-1.6,5.2-1
	C175.7,124.2,173.1,125.9,170.2,127.2z"/>
<path class="st21" d="M172.8,123.2c-1.3,2.1-3.5,2.6-5.7,3.2L166,125C168.3,124.5,170.2,122.7,172.8,123.2z"/>
<path class="st16" d="M119,225l2.3-0.9c0.5,10.7-0.8,21.3-1.4,31.9c-4.2-3.8,0.2-8.3-1-12.4c-0.3-0.8,0.2-1.9-0.8-2.6L119,225z"/>
<path class="st1" d="M104,265l0.6-2.7c1.9,0.9,3.8,1.9,5.5,3.1c0.7,0.6-0.5,1.2-1.3,1.5L104,265z"/>
<path class="st1" d="M92.7,301.9c-5.1-0.9-9.4-3.8-13.7-6.4c-0.7-0.4-0.6-1.1,0.1-1.5C84,296,88.9,298,92.7,301.9z"/>
<path class="st20" d="M148,395.1c-0.2-2.7,0.1-5.5,1-8.1c2.5,1.1,2.1,3.2,1.9,5.3c-0.6-0.1-1.1-0.3-1.1,0.7S149.6,395.3,148,395.1z"
	/>
<path class="st23" d="M148,395.1c1.2-0.8,0.5-2,0.7-3.1c0.1-0.6-0.1-1.6,0.7-1.4c0.6,0.1,0.9,1.1,1.4,1.7c-0.3,1.6-0.6,3.1-0.9,4.7
	C149.2,396.5,148.2,396.2,148,395.1z"/>
<path class="st7" d="M187.1,319l-2.1,6c-3.1,9.6-7.4,18.8-12.7,27.4c-4.3,6.7-8.4,13.8-14.2,19.5c-1.1,0.5-2.1,0.9-2.2-1
	c3.2-4.8,6.4-9.6,9.7-14.2c7-9.6,11.4-20.3,15.5-31.3c0.4-0.9,0.9-1.7,1.5-2.5C184.8,322.3,184.3,318.9,187.1,319z"/>
<path class="st1" d="M144.2,169.6c-0.2-3.9-0.4-7.9-0.5-11.8c0-0.9-0.3-2.2,1.3-2.1c1.1,0.1,1,1.1,1.1,1.9
	C146.2,161.7,146,165.7,144.2,169.6z"/>
<path class="st23" d="M193,132c2.9,0.8,6.8,0,7.2,4.7C196.7,136.8,195.3,133.7,193,132z"/>
<path class="st1" d="M170.8,368.6c-1.1-2.6-1.1-5.5,0.1-8C172.4,362.9,172.6,365.1,170.8,368.6z"/>
<path class="st1" d="M147.2,282.7c-3.1,0.6-5.6-0.2-8.4-2.3C142.4,280.1,144.9,281.6,147.2,282.7z"/>
</svg>
