<?xml version="1.0" encoding="utf-8"?>
<!-- Generator: Adobe Illustrator 24.0.1, SVG Export Plug-In . SVG Version: 6.00 Build 0)  -->
<svg version="1.1" id="Layer_1" xmlns="http://www.w3.org/2000/svg" xmlns:xlink="http://www.w3.org/1999/xlink" x="0px" y="0px"
	 viewBox="0 0 1468.9 1304.3" style="enable-background:new 0 0 1468.9 1304.3;" xml:space="preserve">
<style type="text/css">
	.st0{fill:none;stroke:#000000;stroke-width:2;stroke-linecap:round;stroke-linejoin:round;stroke-miterlimit:10;}
</style>
<title>Doze-Main-big</title>
<g>
	<g>
		<path class="st0" d="M513.6,385.8c-0.2-0.8,0.4-1.7-0.5-2.4"/>
		<path class="st0" d="M994.6,817.8c-3.8,6.5-7.3,13.1-13,18.2"/>
		<path class="st0" d="M967.7,856.2c0,0.5,0.1,1.1-0.5,1.4"/>
		<path class="st0" d="M370.6,1139.4c-3.6,2.6-7.9,4-11,7.2"/>
		<path class="st0" d="M349.4,1153.8c-6.1,2.1-10.9,6.7-16.8,9.1"/>
		<path class="st0" d="M85,484.2c-1.4-2.5-8.1-4.8-11.5-3.8c-3.5,0.9-2.7,3.8-2.9,6.2c-0.6,5.6-2.7,10.8-3.7,16.3
			c-1.8,10.2-0.1,20.1,2.8,29.8c1.1,3.7,3.9,6.5,7.6,7.6c8.7,2.7,17.7,4.5,26.9,5.3"/>
		<path class="st0" d="M135.4,547.1c6.7-1.7,12.9,1.1,19.2,2.5c2.4,0.5,4.8,1,7.2,0.9"/>
		<path class="st0" d="M444.5,193.8c-0.5,0-1.1,0.1-1.4-0.5"/>
		<path class="st0" d="M424.3,189c-2.1,0.3-4.2-0.6-6.2,0.5"/>
		<path class="st0" d="M597.1,532.2c-3.8,3.9-2.9,9.3-4.2,14c-1.8,6.7-2.7,13.7-4,20.6"/>
		<path class="st0" d="M1216.3,649.8c-0.5,10.4-1,20.8-1.4,31.2"/>
		<path class="st0" d="M1192.3,701.7c-4,0.8-8,1.6-12,2.4"/>
		<path class="st0" d="M1173.1,705.5c-4.1,0.4-8.2,0.8-12,2.4"/>
		<path class="st0" d="M1143.4,712.2c-4.8,1.7-9.7,3.3-14.9,3.4"/>
		<path class="st0" d="M364.8,1037.7c0.3,1.4-0.6,3,0.5,4.3"/>
		<path class="st0" d="M337.9,1123.1c-3,4-5,8.5-7.2,13"/>
		<path class="st0" d="M482.4,387.3c0.1,4,3,6.5,4.9,9.5c1.2,1.9,2,3.8,2.8,5.8"/>
		<path class="st0" d="M505,491.4c0.2,1.8-0.5,3.6,0.5,5.3"/>
		<path class="st0" d="M533.8,205.3c1.5,7.5,3.9,14.8,6.3,22.1c0.7,2.1-0.4,4.3,0.9,6.3"/>
		<path class="st0" d="M543.4,241.8c3.5,14.7,10.6,27.8,18.7,40.4c2,3.1,4.2,6.2,5.9,9.5c0.6,1.2,0.7,2.2,0.8,3.4"/>
		<path class="st0" d="M265,437.7c6.3,6,4.5,13.1,2.9,20.2c-2.8,11.6-6.2,22.9-10.3,34.2c-2.4,6.6-3.8,13.9-4.6,21"/>
		<path class="st0" d="M1130.9,831.3c2.4,0,4.8,0,7.2,0"/>
		<path class="st0" d="M532.8,749.7c-1.4-0.1-2.2,1.1-3.4,1.4"/>
		<path class="st0" d="M520.3,755.4c-1.4-0.1-2.2,1.1-3.4,1.4"/>
		<path class="st0" d="M479,785.2c-3.3,2.1-5.7,5.5-10.6,5.6c-2.4,0.1-4.8,3.2-5.3,6.4"/>
		<path class="st0" d="M644.2,504.9c2.1,5.8,3.8,11.8,5.3,17.8"/>
		<path class="st0" d="M73,306.1c-2.1-4.1-3.4-8.1,0.5-12"/>
		<path class="st0" d="M625,430c2.7,3.3,3.5,6.9,2.4,11"/>
		<path class="st0" d="M1053.1,413.7c-1.1-0.3-2.4,0.6-3.4-0.5"/>
		<path class="st0" d="M403.2,318.6c3-0.1,5.2,1.7,7.7,2.9"/>
		<path class="st0" d="M878.4,946.5c-2.1-0.3-4.2,0.6-6.2-0.5"/>
		<path class="st0" d="M858.2,957c0.3,1.1-0.6,2.4,0.5,3.4"/>
		<path class="st0" d="M611.5,663.3c-3.7-5.3-6.5-11.2-9.7-16.8c-6-10.5-12.6-20.6-20.6-29.8"/>
		<path class="st0" d="M578.9,606.6c0.8-1.4,1.6-2.9,2.4-4.3c2.4-4.1,5.1-4.5,7.6-0.4c2.5,4.1,5.5,7.7,7.8,11.9"/>
		<path class="st0" d="M607.7,630.6c0.5,5.3,3.9,9.4,6.9,13.3c2.2,2.8,4.5,5.6,6,8.8c1.1,2.3,2.6,3.3,4.9,3.8"/>
		<path class="st0" d="M95,352.2c1.3,6.8,1.5,13.7,1.5,20.6c0,2.7-1.9,4.2-3,6.2c-1.1,2-2.5,3.9-3.8,5.8"/>
		<path class="st0" d="M83.5,392.5c-0.3,2.2-1.2,4-3.4,4.8c-4.5,1.7-8.2,4.8-12.5,6.6c-8.3,3.3-9.3,13.2-4.8,18.4
			c1.3,1.5,2.2,3.2,3.4,4.8c2.9,3.7,4.1,7.7,1.4,12c-0.8,1.3,0.1,2.3,0.1,3.4c-0.1,2.2,0,4.2-1.4,6.3c-3.9,6.1-3.5,7.4,1.8,12.9"/>
		<path class="st0" d="M354.2,301.3c7.3,4.5,15,8,22.6,12"/>
		<path class="st0" d="M628.8,377.2c3,6.7,8.2,12.4,10.1,19.7"/>
		<path class="st0" d="M645.1,415.6c-0.2,0.8,0.4,1.7-0.5,2.4"/>
		<path class="st0" d="M648,428.1c2.1,10.2,5.6,20,9,29.7c1.4,4,0.4,8.2,2.1,12"/>
		<path class="st0" d="M665.3,485.7c0.3,2.7,0.5,5.3,2.3,7.8c1.1,1.5,1.2,4.1,0.1,6.1"/>
		<path class="st0" d="M671,510.6c0,0.5-0.1,1.1,0.5,1.4"/>
		<path class="st0" d="M309.1,701.7c-0.1,2.4-3.2,2.9-3.4,5.3"/>
		<path class="st0" d="M601,532.7c4.1,5.2,7.6,10.6,9.3,17.2c1.7,6.6,4.6,12.8,8,18.8"/>
		<path class="st0" d="M1008,897.5c1.8,2,4.3,3.5,5.3,6.2"/>
		<path class="st0" d="M1029.1,934c0,5.3,1.1,10.3,2.4,15.4c0.5,1.8,0.4,3.5,0.4,5.3"/>
		<path class="st0" d="M748.8,1171.1c-1.2,8.5-4.8,15.9-10.1,22.6"/>
		<path class="st0" d="M727.7,1208.5c-1.2,4.4-4.3,7.7-7.2,11"/>
		<path class="st0" d="M215,392.5c-1.9,4.3-1.2,9.1-3.2,13.5c-1,2.2,0.8,4.9,3.6,6.2c3.7,1.8,7.6,1.9,11.6,2.3
			c2.8,0.3,3.8-2.2,4.8-4.3c2.1-4.4,5.1-8.2,9.1-11"/>
		<path class="st0" d="M1081.9,609.5c3.1,3,6.3,6,4.3,11"/>
		<path class="st0" d="M1094.4,648.9c0,5.4-0.3,10.7-4.3,14.9"/>
		<path class="st0" d="M520.3,524.1c0.3-1.4-0.6-3,0.5-4.3"/>
		<path class="st0" d="M370.1,450.1c1.4,2.4,1.6,5.1,1.9,7.7c0.8,8.1,1.3,16.3,2,24.5"/>
		<path class="st0" d="M519.4,275.4c3.9,0.7,6.5,4,10.1,5.3"/>
		<path class="st0" d="M782.4,966.6c-4,2.2-4.5,6.3-4.7,10.1c-0.4,6.5-0.1,13.1-0.1,19.7c0,1,0.5,2.5-1.4,2.4"/>
		<path class="st0" d="M1122.7,376.2c1.4,3.7-0.3,6.3-2.9,8.6"/>
		<path class="st0" d="M841,994.5c0.3-1.1-0.6-2.4,0.5-3.4"/>
		<path class="st0" d="M841,982.9c-0.3-1.1,0.6-2.4-0.5-3.4"/>
		<path class="st0" d="M839,969.5c-0.3-2.1,0.6-4.2-0.5-6.2"/>
		<path class="st0" d="M837.1,956.1c-0.3-1.5-0.7-3-1.4-4.3"/>
		<path class="st0" d="M947.5,441.5c1.5,7.4,5.2,13.5,10.6,18.7"/>
		<path class="st0" d="M141.1,237c-7,3.2-13.3,7.5-18.7,13"/>
		<path class="st0" d="M434.9,250.5c0,0.5,0.1,1.1-0.5,1.4"/>
		<path class="st0" d="M384,452.1c-1,4-2.7,7.9-0.5,12"/>
		<path class="st0" d="M140.2,295.1c3.8,4.2,2.3,9.6,3.4,14.4"/>
		<path class="st0" d="M143.5,310c-0.1,3.2-0.1,6.4,1.9,9.1"/>
		<path class="st0" d="M1114.6,634.5c1.6,6.3-1.3,12-3.1,17.7c-1,2.9-0.6,6.8-4.1,8.7"/>
		<path class="st0" d="M520.3,1105.8c0.3,1.4-0.6,3,0.5,4.3"/>
		<path class="st0" d="M867.8,1079.9c0.5,5.4,1.3,10.8,3.4,15.8"/>
		<path class="st0" d="M593.3,432.9c0.5,6.6,2.1,12.9,5.3,18.7"/>
		<path class="st0" d="M600,493.3c0,5,0.1,10-1,14.9c-0.4,1.6-1.1,3,1.5,2.9"/>
		<path class="st0" d="M690.2,1259.4c-4.4,0.1-8.6-1.1-13-1.4"/>
		<path class="st0" d="M481,1167.3c1.6,6.7,5,12,11.5,14.9c2.9,1.3,4.6,4.6,8.2,4.8"/>
		<path class="st0" d="M324,465.5c0,5.6,0.2,11.2,1,16.8"/>
		<path class="st0" d="M336,489.5c0.3-1.1-0.6-2.4,0.5-3.4"/>
		<path class="st0" d="M494.9,557.7c-1.4,1.7-3.4,2.1-5.3,1.4c-5.7-2.1-10.3-0.1-14.9,2.9"/>
		<path class="st0" d="M161.3,732.4c-1.6-3-2.5-6.2-1.9-9.6"/>
		<path class="st0" d="M318.7,383.9c-4,5.6-6.2,12.5-12,16.8"/>
		<path class="st0" d="M289.9,408.9c-0.5,0-1.1,0.1-1.4-0.5"/>
		<path class="st0" d="M257.3,449.2c-0.1,2.9,0.3,5.6-1.8,8.3c-1.6,2-2.5,4.9-2.5,7.6c0,2.2-1.1,3.5-2.5,4.8c-3,2.6-6,5.3-9.1,7.7
			c-4.1,3.2-6.9,1.9-10.1-4.3"/>
		<path class="st0" d="M852.5,799.6c1.2,7.4,5,9.4,11,5.8"/>
		<path class="st0" d="M1211,564.9c1.5,0.1,2.9-0.2,4.4,0.5c0.6,4.1,0.9,8.3,3.3,12"/>
		<path class="st0" d="M332.2,361.8c0.9,3.6-1.7,7.4,0.5,11"/>
		<path class="st0" d="M266.9,323.4c4.5,2.4,6.3,6,5.3,11"/>
		<path class="st0" d="M619.2,1208.1c-3,3.4-1.4,7.7-2.3,11.5c-0.3,1.3,0,2.7-1,3.8"/>
		<path class="st0" d="M616.3,1231.6c0.1,3.7,1.9,7.3,0.5,11"/>
		<path class="st0" d="M145,396.4c-8.5-2.1-17-4.2-25.4-6.2"/>
		<path class="st0" d="M618.2,631.6c2.2,4.5,4.3,9.1,6.8,13.4c1.2,2,1.7,4.1,2.3,6.3"/>
		<path class="st0" d="M629.8,679.6c1.4,4.3,4.3,7.7,7.2,11.1c3.6,4.1,6,8.7,4.3,14.4"/>
		<path class="st0" d="M1033,471.3c2.4,0.4,4.7,1.8,7.2,0.5"/>
		<path class="st0" d="M481,174.6c-7,4.3-9.7,11.4-12,18.7"/>
		<path class="st0" d="M398.4,1000.2c0.5,5.9-1.3,11.9,0.5,17.8"/>
		<path class="st0" d="M757,1078c-5.1-2-10.2,0.1-15.4,0"/>
		<path class="st0" d="M936,817.8c-3-1.1-4.1,2-6.2,2.9"/>
		<path class="st0" d="M452.2,657.5c-3.4,5.3-6.7,10.6-10.1,15.8"/>
		<path class="st0" d="M1005.1,467.4c0.5,0,1.1-0.1,1.4,0.5"/>
		<path class="st0" d="M509.3,1046.3c3.3-0.3,6.5,0.1,9.6,1.5c1.4,0.6,2.8,1.5,4.3,0.5"/>
		<path class="st0" d="M881.3,868.7c-3.3,0.2-5.3-4.6-9.1-2.4"/>
		<path class="st0" d="M923,452.5c3.4,4.9,4.2,10.7,5.8,16.3"/>
		<path class="st0" d="M940.8,486.6c0.5,0,1.1-0.1,1.4,0.5"/>
		<path class="st0" d="M871.7,436.7c-1.4,0.3-3-0.6-4.3,0.5"/>
		<path class="st0" d="M945.6,617.7c-0.8,5.2,2,9.2,4.3,13.4"/>
		<path class="st0" d="M181.4,879.3c0,0.5-0.1,1.1,0.5,1.4"/>
		<path class="st0" d="M847.7,876.4c1.1,1.4,2.2,3,3.4,4.3c3.9,4.3,4.5,4.4,9.6,1"/>
		<path class="st0" d="M845.8,848.5c0-0.5,0.1-1.1-0.5-1.4"/>
		<path class="st0" d="M648,688.2c2.7,5,6.3,9.5,7.2,15.4"/>
		<path class="st0" d="M482.9,670c-0.6,4.8,0.9,8.8,3.1,13.1c2.3,4.7,4.9,9.5,6,14.8"/>
		<path class="st0" d="M288,276.4c0.1-2-2.4-2.4-2.4-4.3"/>
		<path class="st0" d="M267.8,255.3c-4.6-1.1-9.1-2.8-13.9-1.4"/>
		<path class="st0" d="M254.4,263.9c1.8,0.2,3.4,1.5,5.3,0.9c1.3-0.4,2.5-1.1,3.4,0.5c1.1,2.1-1.1,2.4-1.6,3.9
			c-0.6-1.1-0.9-1.8-1.2-2.4"/>
		<path class="st0" d="M952.3,521.2c-0.3,4.8,1,8.9,4.8,12"/>
		<path class="st0" d="M335,909c1.8,3.6,1.7,7.7,2.9,11.5"/>
		<path class="st0" d="M327.4,966.6c3.6,1.3,7.4,1.6,11,2.4"/>
		<path class="st0" d="M497.3,698.8c-0.8-0.2-1.7,0.4-2.4-0.5"/>
		<path class="st0" d="M217.9,365.2c-0.6,1.2-1.3,2.5-0.9,3.8c0.9,3.4,0.7,6.8-0.1,10.1c-0.8,3.5-0.2,6.6,1.5,9.6"/>
		<path class="st0" d="M432,644.1c-3.2,3.4-4.6,7.8-6.2,12"/>
		<path class="st0" d="M209.3,234.1c0.5,0,1.1,0.1,1.4-0.5"/>
		<path class="st0" d="M969.6,447.3c1.2,4.5,4.8,7.4,7.2,11"/>
		<path class="st0" d="M658.6,587.4c-0.3,2.7,0.6,5.5-0.5,8.2"/>
		<path class="st0" d="M656.6,622c0.9,8.1-0.3,15.9-3.3,23.6c-0.7,1.7-1.4,3.3-2.5,4.8"/>
		<path class="st0" d="M981.1,539.4c0,3.6,0.8,7.1,1.5,10.6c0.8,4.4,4.5,5.2,8.1,5.8"/>
		<path class="st0" d="M532.8,1223.4c3.1,4.5,5.9,9.3,10.1,13"/>
		<path class="st0" d="M130.6,553.8c3.5,2.1,6.7,4.4,11,5.6c5.3,1.5,10.3,4.8,13,10.3"/>
		<path class="st0" d="M673.9,525c2.5,2.2,4,4.9,4.8,8.2c0.1,0.3-0.1,0.9,0,0.9c2.5,1.4,3.7,3.8,2.7,6.2c-1.2,2.8-4.3,3.8-7.1,4.9"
			/>
		<path class="st0" d="M214.6,269.2c-1.8,1-4-0.1-5.8,1"/>
		<path class="st0" d="M200.6,270.6c-0.8,0.2-1.7-0.4-2.4,0.5"/>
		<path class="st0" d="M182.4,289.8c0.3,1.1-0.6,2.4,0.5,3.4"/>
		<path class="st0" d="M182.4,300.4c0.5,7.3,3,14.3,2.9,21.6"/>
		<path class="st0" d="M916.8,997.3c-3.5-1.3-6.4-3.5-8.5-6.3c-1.9-2.5-4.4-3.7-6.8-5.2"/>
		<path class="st0" d="M588,1272.4c-3.8-0.9-7.5-1.8-11.1-3.7c-4-2.1-8.6-3.5-13.4-2.1"/>
		<path class="st0" d="M997,918.1c0,7.2,4.1,12.5,8.3,17.7c1.6,2.1,3.2,4.2,4.7,6.3"/>
		<path class="st0" d="M1225.9,757.8c-0.6,2.9-1.3,5.8-1.9,8.6"/>
		<path class="st0" d="M947.5,538.5c-1.2-3.9-3.8-7.1-5.9-10.5c-3.7-5.8-4.4-11.2-0.3-16.9"/>
		<path class="st0" d="M502.1,329.2c0,0.5,0.1,1.1-0.5,1.4"/>
		<path class="st0" d="M46.6,350.3c4.4,1.6,5.7,6.1,8.7,9.1c4.2,4.3,8.6,8.3,15.3,7.2"/>
		<path class="st0" d="M562.6,619.1c-1.4,0.3-3-0.6-4.3,0.5"/>
		<path class="st0" d="M289.9,326.8c-0.2,3.4,1.5,6.3,3,9.1c1.6,2.9,2.1,6.2,3.3,9.2"/>
		<path class="st0" d="M129.1,391.6c1.2-5.6,1.9-6.7,7.2-6.1c8.7,0.9,17.8-0.3,25.9,4.2"/>
		<path class="st0" d="M834.2,831.3c-0.7,4.6,3.3,7.8,3.8,12"/>
		<path class="st0" d="M231.4,259.1c-0.5,0-1.1-0.1-1.4,0.5"/>
		<path class="st0" d="M885.6,944.5c-0.3,2.7,1.7,5.4,0,8.2"/>
		<path class="st0" d="M883.2,971.4c2.9,0.7,5.1,2.2,5.8,5.3c0.6,2.9,2.6,4.4,5.3,5.3"/>
		<path class="st0" d="M220.8,785.7c0.2,3.4-1.5,3.9-4.3,2.9"/>
		<path class="st0" d="M1070.4,958.9c-0.2,1.8,0.5,3.6-0.5,5.3"/>
		<path class="st0" d="M154.1,220.2c2.3,1,4.8,1.5,6.2,3.8"/>
		<path class="st0" d="M341.8,356.1c0,2.4-0.1,4.8,0,7.2c0.3,4.7-1.1,8.6-4.8,11.5"/>
		<path class="st0" d="M591.8,119.4c-4,2.6-8.5,4.9-9.1,10.6"/>
		<path class="st0" d="M884.2,1030.9c-1.8,0-3.5,0-5.3,0"/>
		<path class="st0" d="M487.2,600.9c-1.9-4.9-6.7-4.7-10.6-6.2"/>
		<path class="st0" d="M904.3,1106.8c0.5,0,1.1-0.1,1.4,0.5"/>
		<path class="st0" d="M713.3,187.1c0.3,1.4-0.6,3,0.5,4.3"/>
		<path class="st0" d="M957.6,832.2c6.8,0.6,13.5,2.5,20.2,3.8"/>
		<path class="st0" d="M915.4,379.1c3.6,2.1,8,0.2,11.5,2.4"/>
		<path class="st0" d="M445,646.5c-3.3,1.2-6,3.3-7.2,6.7c-1.3,3.9-4.3,6.8-5.8,10.6"/>
		<path class="st0" d="M593.3,125.7c0,4.4-2.1,7.4-5.8,9.6"/>
		<path class="st0" d="M1048.8,501c0,3.5,0.6,6.8,1.8,10.1c1.1,3,1.7,6.1,0.6,9.3"/>
		<path class="st0" d="M375.8,616.2c1.9,0,3.9-0.3,5.3,1.4"/>
		<path class="st0" d="M439.2,233.7c-3.1,2.5-7.1,3.1-10.6,4.8"/>
		<path class="st0" d="M3.8,251.9c-0.9,6.4-0.6,12.8,0.5,19.2"/>
		<path class="st0" d="M498.2,669c1.4,0.3,3-0.6,4.3,0.5"/>
		<path class="st0" d="M522.2,673.8c0.2,0.8-0.4,1.7,0.5,2.4"/>
		<path class="st0" d="M524.2,684.4c0.3,1.1-0.6,2.4,0.5,3.4"/>
		<path class="st0" d="M919.7,561c2.4,3.8,3.2,8.3,5.8,12"/>
		<path class="st0" d="M135.4,296.5c-2.6,1.3-4.3,3.6-5.7,5.8c-1.9,3-4.6,4.8-7.3,6.7"/>
		<path class="st0" d="M75.8,308.5c-2.8,7.3-0.4,13.5,6.5,16.8"/>
		<path class="st0" d="M273.6,371.4c-0.8,2.2-0.4,4.5-0.5,6.7"/>
		<path class="st0" d="M361.4,363.3c-5.4-4.8-11.9-7.9-17.8-12"/>
		<path class="st0" d="M817.9,1010.3c-2,0.4-1.2,1.4-0.5,2.4c2.2,3.4,3.2,7.3,4.8,11"/>
		<path class="st0" d="M314.9,274.5c0.5,0,1.1-0.1,1.4,0.5"/>
		<path class="st0" d="M919.7,409.8c-3.4,1.9-6.3,4.4-8.7,7.6c-2.1,2.8-4.7,5.4-8.1,6.8"/>
		<path class="st0" d="M206.9,220.7c-8.2,0.2-10.2,7.3-13.9,12.5"/>
		<path class="st0" d="M887,894.6c1.1-0.3,2.4,0.6,3.4-0.5"/>
		<path class="st0" d="M1438.1,984.9c2.4-3.3-0.6-4-2.4-3.6c-1.9,0.4-3.6-0.5-5.3-0.2"/>
		<path class="st0" d="M1057.9,439.6c-13.4-0.7-26.5,1.8-39.8,2.4"/>
		<path class="st0" d="M644.2,1254.6c-5.3-2-10.8-1.9-15.8,0.2c-3.7,1.5-7.1,0.8-10.6,1.2"/>
		<path class="st0" d="M574.6,967.6c0,0.3,0,0.6,0,1c-1.1,6.1,1.6,12.2,0.4,18.2c-1.1,5.9-1.4,12-3,17.7c-0.8,3-0.6,4.9,1.1,7.3
			c2.6,3.7,3.9,7.7,1,12"/>
		<path class="st0" d="M1141.9,395.2c-5.6-0.6-8.6,3.8-12.5,6.5"/>
		<path class="st0" d="M22.6,381.5c-2.3-0.3-1.2,1.5-1.4,2.4c-0.6,2.9-1.4,5.8-3.4,8.2"/>
		<path class="st0" d="M870.7,405c0.3,1.1-0.6,2.4,0.5,3.4"/>
		<path class="st0" d="M956.6,616.7c0.1,2.3-0.5,4.7,1.4,6.8c1.4,1.5,1.4,3.7,1.5,5.7"/>
		<path class="st0" d="M284.2,378.1c-1.1,0.3-2.4-0.6-3.4,0.5"/>
		<path class="st0" d="M265,383.9c-1.8,0.2-3.2,1.2-4.8,1.9"/>
		<path class="st0" d="M104.6,299.4c-0.5,2.7-0.6,5.6-1.5,8.1c-1.7,4.4,0,7.8,2.5,11.1"/>
		<path class="st0" d="M942.7,590.8c1.7,3.2,2.5,7.4,7.7,6.5"/>
		<path class="st0" d="M968.6,506.8c0.3-1.4-0.6-3,0.5-4.3"/>
		<path class="st0" d="M1305.6,729.5c-2.7-1.5-5.9,0.7-8.6-1"/>
		<path class="st0" d="M899.5,352.2c-0.4,3,1.2,5.7,1.4,8.6"/>
		<path class="st0" d="M109,349.1c-4.7,7.4-5.1,11.1-0.9,14.6c3.6,3,7,6.4,11.5,8.2"/>
		<path class="st0" d="M829.4,1004.1c1.4,5.7-0.1,11.8,2.4,17.3"/>
		<path class="st0" d="M1018.6,545.2c-2.1,0-4.2,0-6.2,0"/>
		<path class="st0" d="M1318.1,739.1c6.2-0.3,7.3,0.4,8.2,5.3"/>
		<path class="st0" d="M652.8,314.8c3.7,5.6,1.9,11.2,0,16.8"/>
		<path class="st0" d="M970.6,429c0,0.5-0.1,1.1,0.5,1.4"/>
		<path class="st0" d="M1075.2,355.1c-3.3,1.1-6.8,0.4-10.1,1.4"/>
		<path class="st0" d="M984,369.5c-2.4,0.2-4.9-0.5-7.2,0.5"/>
		<path class="st0" d="M475.2,669c-2.7,4.8-5.4,9.5-12,9.1"/>
		<path class="st0" d="M1062.7,538.5c4.4,4.2,4.4,5.6,0.5,10.1"/>
		<path class="st0" d="M255.4,397.3c-3.7,2.3-8,1.8-12,2.9"/>
		<path class="st0" d="M347.5,960.9c3.7,2,4.1,5.5,4.3,9.1"/>
		<path class="st0" d="M464.6,700.7c3.4,4,9.3,3.1,13,6.7"/>
		<path class="st0" d="M547.7,1162c0.2,0.8-0.4,1.7,0.5,2.4c2.4,1.8,2.7,3.9,1.6,6.8c-0.7,1.7-0.8,4.5,2.7,3.8"/>
		<path class="st0" d="M753.1,356.1c1.2,2.6,0.4,5.6,1.5,8.1c0.4,0.8,1.2,1.8,2.5,2c1.6-0.5,3.4-1,4.7-2.5"/>
		<path class="st0" d="M626.4,659.9c4.6,0.6,8.7,1.7,10.7,6.7c0.5,1.4,2,2.8,3.7,3.4"/>
		<path class="st0" d="M875.5,478.9c0,0.5,0.1,1.1-0.5,1.4"/>
		<path class="st0" d="M972.5,547.1c1,4.3,1.4,8.9,5.3,12"/>
		<path class="st0" d="M169.9,319.1c-4.6,3.4-8.5,7.5-12,12"/>
		<path class="st0" d="M105.1,275.4c-0.2,5.5,1.2,10.4,5.3,14.4"/>
		<path class="st0" d="M839,1071.3c1.1,2.2,1.7,4.3-0.5,6.2"/>
		<path class="st0" d="M165.1,361.8c0.2,2.5-0.3,4.9-1.4,7.2"/>
		<path class="st0" d="M456,740.1c-2.2-0.2-4-2-6.2-1.9"/>
		<path class="st0" d="M221.3,740.5c-3.2-4.4-7.9-3.8-12.5-3.8"/>
		<path class="st0" d="M1219.7,517.8c-4.6-0.6-9.3-0.5-13.9-0.5"/>
		<path class="st0" d="M220.8,361.8c5,2,5.1,7,6.7,11.1c0.1,0.4,0,1.9-1.4,1.2"/>
		<path class="st0" d="M498.2,1079.9c0.7,4-0.6,7.2-3.8,9.6"/>
		<path class="st0" d="M1000.3,696.4c-1.3,4.3-0.2,8.2,1.7,12c0.6,1.2,1.3,2.1,2.6,0.7"/>
		<path class="st0" d="M1156.3,638.3c-3.7,2.3-7.3,2.9-11.1,0.1c-0.5-0.4-1.6-0.1-2.4-0.1"/>
		<path class="st0" d="M981.1,533.2c-4.6,2.2-8.2,5.5-10.6,10.1"/>
		<path class="st0" d="M937.9,521.7c-4.5,0.3-8.7,1.5-13,2.9"/>
		<path class="st0" d="M398.4,833.7c1.1,1.9,1.7,4-0.1,5.7c-1.3,1.3-3.1,0.5-4.7,0.1c-0.8-0.2-1.6-0.3-2.4-0.5"/>
		<path class="st0" d="M477.6,1142.3c-1.9,0-3.8,0-5.8,0"/>
		<path class="st0" d="M618.2,108.9c-0.3,4.3-1.7,8.6-0.5,13"/>
		<path class="st0" d="M1042.6,995.9c0.3-1.6-0.7-2.9-1-4.3c-1-4.1-2.8-4.7-7.1-2.9"/>
		<path class="st0" d="M588.5,586c-4,3.3-2.5,8.3-3.8,12.5"/>
		<path class="st0" d="M324,413.7c-4.1,3.5-8.2,6.9-11,11.5"/>
		<path class="st0" d="M1072.8,566.3c-2-1-3.4-2.7-5.7-3.5c-2.8-1.1-4.8-1.2-6.8,1.1"/>
		<path class="st0" d="M510.7,1063.6c1,2.3,2.6,4.3,2.6,7.2c0,2.5,2.5,4,4.6,5.3"/>
		<path class="st0" d="M996,463.6c-3.1,1.4-6.5,0.4-9.6,1.4"/>
		<path class="st0" d="M910.1,514.9c-1.7,5.6-3.3,11.2-2.1,17.3c0.3,1.7-1.7,3.8-2.7,5.7"/>
		<path class="st0" d="M842.9,862c-1.7-0.1-2.9,1.3-4.3,1.9"/>
		<path class="st0" d="M664.3,1203.7c0.4,2.4,1.8,4.7,0.6,7.1c-1.8,1.3-3.3,0.2-4.9-0.4"/>
		<path class="st0" d="M573.1,947.4c-3.3,3.4-2.8,7.9-3.8,12"/>
		<path class="st0" d="M244.3,750.6c-3.9,1.7-7.9,1.7-12,1"/>
		<path class="st0" d="M164.2,741.5c-0.8,0.8-2.2,1.8-1.4,2.8c2.6,3,1.7,6.4,1.8,9.7"/>
		<path class="st0" d="M252.5,639.7c-4.1,0.5-8-0.6-12-1"/>
		<path class="st0" d="M446.4,779.4c-0.5,2.9,1.8,4.5,2.9,6.7"/>
		<path class="st0" d="M775.7,319.1c2.1,2.7,0.5,4-1.9,4.8c-1.5,0.5-3.2,0.7-4.8,1"/>
		<path class="st0" d="M258.7,882.1c1.5,0,3.1-0.3,4.3,1"/>
		<path class="st0" d="M908.6,479.4c-0.9,3.3-2.3,6.5-2,10.1c0.1,1.7,1,1.5,2,1.4"/>
		<path class="st0" d="M954.7,517.3c4.2,1.1,7.7,3.4,11.5,5.3"/>
		<path class="st0" d="M370.6,449.2c-0.3-1.5-0.7-3-1.4-4.3"/>
		<path class="st0" d="M205.9,911.4c-0.2,1.1-0.4,2.2-0.5,3.4c-0.2,4.5,2.2,6.9,6.7,6.8c1.6,0,2.8-1.1,4.3-1"/>
		<path class="st0" d="M269.8,790.9c-0.9,1.8-2.6,3.3-1.5,5.8c0.8,1.7-0.5,3.5-0.9,5.2"/>
		<path class="st0" d="M467.5,1029.5c1.1-5.6-0.2-6.7-6.2-5.3"/>
		<path class="st0" d="M61,346.9c-4.6-0.6-8,1.8-11,4.8"/>
		<path class="st0" d="M625.9,1286.8c0.5,2.2,1,4.5,1.5,6.7c1.3-0.1,2.8,0.3,3.8-1"/>
		<path class="st0" d="M1067.5,573c0.5,0,1.1,0.1,1.4-0.5"/>
		<path class="st0" d="M411.4,227.9c-5.4,1.9-6.2,3.3-6.2,10.1"/>
		<path class="st0" d="M700.3,1226.3c1.4,0.7,2.9,0.4,4.3,0.5"/>
		<path class="st0" d="M296.6,350.8c-5,7.3-5,9,0,15.8"/>
		<path class="st0" d="M108,375.7c3,2.8,5.5,6.1,7.7,9.6"/>
		<path class="st0" d="M1201,541.8c1.5,2.9-1.3,7.4,3.4,9.1"/>
		<path class="st0" d="M1184.6,912.4c2.2,3.1-0.5,3.4-2.4,3.8c-1.5,0.3-3.2,0.1-4.8,0.1"/>
		<path class="st0" d="M1077.6,370.9c-0.3-5.1-1.3-5.8-6.7-5.3"/>
		<path class="st0" d="M1269.1,734.3c-2.5,2.6-0.8,5.7-1,8.6"/>
		<path class="st0" d="M651.8,1280.5c1.8,5.4,1.4,6.1-3.8,6.2"/>
		<path class="st0" d="M785.8,1110.6c0.6,3.4,1.4,6.7,3.4,9.6"/>
		<path class="st0" d="M841.9,1019.4c-2.8-0.1-5.5,0.8-8.2,1.4"/>
		<path class="st0" d="M765.1,276.9c-2.8,3.2-2.8,6.4,0,9.6"/>
		<path class="st0" d="M225.6,737.7c-1.8,4.5-2.2,9.1-1.5,13.9c0.4,2.7,2.6,2.6,3.9,3.8"/>
		<path class="st0" d="M543.8,1236.9c2.2,0.9,2.5,2.8,2.4,4.8c-0.2,3.8,1.2,6.5,5.3,7.2"/>
		<path class="st0" d="M1216.3,822.1c1.3,3.3-0.4,6.8,1,10.1"/>
		<path class="st0" d="M615.4,92.5c1.5,2.7-0.9,5.1-0.5,7.7"/>
		<path class="st0" d="M203.5,717.5c-1.3,3-2.6,6.1,0,9.1"/>
		<path class="st0" d="M477.1,722.8c-3-1.6-6.1-1.3-9.1,0"/>
		<path class="st0" d="M1094.4,382c-5.1,0.5-10.6-1.6-15.4,1.9"/>
		<path class="st0" d="M828,315.3c1.2,3.1,2.3,6.2,5.8,7.7"/>
		<path class="st0" d="M600,1279.6c-2.1-2.9-4.2-5.7-8.2-6.2"/>
		<path class="st0" d="M337.4,450.1c-2.8,1.9-6,1.4-9.1,1.4"/>
		<path class="st0" d="M433,1062.1c-0.3,3.2,1.1,7-2.9,9.1"/>
		<path class="st0" d="M241.9,916.7c0.9,3.2,1.6,6.7,4.8,8.6"/>
		<path class="st0" d="M857.8,750.6c0,2.4,0,4.8,0,7.2"/>
		<path class="st0" d="M850.1,899.4c-1.1,1.3-2.7,2.7-4.3,1.8c-2.2-1.3-4.2-0.1-6.3-0.4"/>
		<path class="st0" d="M467,718.5c0.1,3,0.3,6-2.4,8.2"/>
		<path class="st0" d="M1321,738.6c0.9-5.2,0.7-5.4-4.3-4.3"/>
		<path class="st0" d="M1066.1,540.9c2.8,0,5.6,0,8.2,1.4"/>
		<path class="st0" d="M66.7,440.1c-2.5-0.7-5.1-0.4-7.9-0.5c-0.9,1.9-1.8,3.9-1.7,6.3"/>
		<path class="st0" d="M535.7,495.3c2.7,0.2,5.4,0.3,8.2,0.5"/>
		<path class="st0" d="M1136.6,715.1c0.7,2.8,1.6,5.6,2.9,8.2"/>
		<path class="st0" d="M1023.4,612.4c2.7,0.6,5.4,1,8.2,1"/>
		<path class="st0" d="M737.8,1143.7c-0.6,2.8-2.1,5.3-2.4,8.2"/>
		<path class="st0" d="M1114.1,902.3c2.4,1.9,5.5,2.4,8.2,3.8"/>
		<path class="st0" d="M810.7,1172.1c-3.4,1.1-4.2,3.2-2.4,6.2"/>
		<path class="st0" d="M915.4,466c0.3,4.5,0.1,8.8-1.9,13"/>
		<path class="st0" d="M941.8,694.5c2.4,0,4.8,0,7.2,0"/>
		<path class="st0" d="M202.6,775.6c-0.3-1.5,0.6-1.5,1.4-0.9c2.6,1.6,4.7,1.1,6.7-1"/>
		<path class="st0" d="M1169.3,534.6c1.3,2.6,2.6,5.1,3.8,7.7"/>
		<path class="st0" d="M781.9,1052.1c-5.1,1.9-9.3-0.2-13.4-2.9"/>
		<path class="st0" d="M866.4,925.3c-2.8,0.1-5.4-0.2-7.7-1.9"/>
		<path class="st0" d="M224.2,753.5c-3.8,0.9-4.4,3.1-2.4,6.2"/>
		<path class="st0" d="M1084.8,514c0.2,2.8-1.6,4.9-2.9,7.2"/>
		<path class="st0" d="M1019.5,457.8c-2.3,1-4.8,0.3-7.2,0.5"/>
		<path class="st0" d="M1084.3,795.3c-2.4,0-4.8-0.2-7.2,0.5"/>
		<path class="st0" d="M209.8,913.8c0,2.4,0,4.8,0,7.2"/>
		<path class="st0" d="M382.1,200.1c0,2.4,0,4.8,0,7.2"/>
		<path class="st0" d="M424.3,242.8c2.1,1.6,4.8,1.1,7.2,1.9"/>
		<path class="st0" d="M865,895.6c-1.6-2.8-3.9-3.4-6.7-1.9"/>
		<path class="st0" d="M1271.5,733.3c0.3,1.6-1,2.5-1.4,3.8"/>
		<path class="st0" d="M853.4,891.7c2.7,2,2.1,4.6,1.4,7.2"/>
		<path class="st0" d="M923,578.3c2.9,1.1,3,4.3,4.8,6.2"/>
		<path class="st0" d="M1049.3,1028.5c-0.5-3.8-1.2-4.1-5.3-2.4"/>
		<path class="st0" d="M646.6,1285.3c2.9,2.5,3.1,5.7,2.4,9.1"/>
		<path class="st0" d="M636.5,1288.7c-0.1,3.7-2,4.7-5.4,3.3c-0.4-2-0.9-4-1.4-6.1"/>
		<path class="st0" d="M416.2,247.6c-2.3,0.1-4.4,1.5-6.7,1"/>
		<path class="st0" d="M734.9,1176.4c-1,3.1-3.3,3.9-6.2,3.4"/>
		<path class="st0" d="M745.9,118.5c0.6,2.5-0.9,4.5-1.4,6.7"/>
		<path class="st0" d="M349.4,608.1c0.6,2.2,0.5,4.5,0.5,6.7"/>
		<path class="st0" d="M626.4,248.5c-2.4-0.5-4.5,0.8-6.7,1"/>
		<path class="st0" d="M1195.2,870.1c-0.1,2.5,2.1,4.3,1.9,6.7"/>
		<path class="st0" d="M984.5,596.1c-2.3-0.1-4.4-1.5-6.7-1"/>
		<path class="st0" d="M802.1,1040.5c-2.2-0.3-4.7,0.7-6.7-1"/>
		<path class="st0" d="M602.4,187.1c-2.3-0.1-4.4-1.5-6.7-1"/>
		<path class="st0" d="M301.4,394.9c-0.1,2.4,0.7,4.5,1.4,6.7"/>
		<path class="st0" d="M743.5,1084.7c-2.4-0.5-4.5,0.8-6.7,1"/>
		<path class="st0" d="M313,575.4c0.6,2.2,0.5,4.5,0.5,6.7"/>
		<path class="st0" d="M781.9,178.5c-2.3,0.1-4.4,1.5-6.7,1"/>
		<path class="st0" d="M1041.6,562c-0.3,2.2,0.7,4.7-1,6.7"/>
		<path class="st0" d="M551.5,1213.3c-2.4,0.5-4.5-0.8-6.7-1"/>
		<path class="st0" d="M841.9,1054c-2.2-0.9-4.5-1.8-6.7,0"/>
		<path class="st0" d="M1213.4,540.9c0.1,2.3-0.3,4.5-1,6.7"/>
		<path class="st0" d="M68.6,463.6c-5.9,5.4-5.8,12.9,2.4,17.8"/>
		<path class="st0" d="M591.8,38.3c-2.3-0.1-4.4-1.5-6.7-1"/>
		<path class="st0" d="M209.8,766.9c-2.5-0.1-4.3,2.1-6.7,1.9"/>
		<path class="st0" d="M213.6,907.1c-2.2-0.4-4.2,0.5-6.2,1"/>
		<path class="st0" d="M178.6,891.7c0,2.1,0,4.2,0,6.2"/>
		<path class="st0" d="M781.4,237c0.4,2.1,1.3,4.1,1,6.2"/>
		<path class="st0" d="M343.7,734.3c-2.1,0.4-4.1,1.3-6.2,1"/>
		<path class="st0" d="M890.9,501c-0.4,2.1-1.3,4.1-1,6.2"/>
		<path class="st0" d="M764.2,315.7c-2.1-0.4-4.1-1.3-6.2-1"/>
		<path class="st0" d="M901.9,848.5c-2.2,0.4-4.2-0.5-6.2-1"/>
		<path class="st0" d="M1091,525.5c-2.1,0-4.2-0.2-6.2,0.5"/>
		<path class="st0" d="M948.5,598c-0.8,2.1-1.6,4.2-2.4,6.2"/>
		<path class="st0" d="M643.2,71.4c-0.4,2.2,0.5,4.2,1,6.2"/>
		<path class="st0" d="M756,273.5c-2.2,0.4-4.2-0.5-6.2-1"/>
		<path class="st0" d="M1109.8,352.7c0.4,2.2-0.5,4.2-1,6.2"/>
		<path class="st0" d="M587,277.8c-2.1,0-4.2,0.2-6.2-0.5"/>
		<path class="st0" d="M518.9,545.2c-2.1,0.3-4.2-0.6-6.2,0.5"/>
		<path class="st0" d="M835.7,1100.1c-2.2,0.4-4.2-0.5-6.2-1"/>
		<path class="st0" d="M551,727.6c0.7,2,0.4,4.2,0.5,6.2"/>
		<path class="st0" d="M478.1,1029.5c-2-0.8-3.9-0.8-5.8,0.5"/>
		<path class="st0" d="M839,600.4c-1.6,0.5-3.2,1-4.8,1.4"/>
		<path class="st0" d="M843.8,309.5c0,1.9,0,3.8,0,5.8"/>
		<path class="st0" d="M901,736.2c0.6,1.9,1.6,3.7,0.5,5.8"/>
		<path class="st0" d="M342.2,340.7c-2.3,0.6-3.8,1.6-2.4,4.3"/>
		<path class="st0" d="M737.3,1130.3c0.6,1.9,0.5,3.8,0.5,5.8"/>
		<path class="st0" d="M912,435.3c2.6,2.6,4.7,5.9,9.1,5.3"/>
		<path class="st0" d="M1396.8,855.3c1.2-3.1,0.2-4.1-2.9-2.9"/>
		<path class="st0" d="M528.5,395.4c-2-0.2-3.9,0.1-5.8,1"/>
		<path class="st0" d="M926.4,377.2c-3-0.4-5.9-2.3-9.1-1"/>
		<path class="st0" d="M525.6,1157.2c-1.6,3.9-0.7,7.4,1.4,10.8"/>
		<path class="st0" d="M161.3,257.2c1.4,1.7,3.5,2,5.3,2.9"/>
		<path class="st0" d="M177.6,877.8c-0.8,1.7-2,3.5,1,4.3"/>
		<path class="st0" d="M455,623.4c0.3,2-0.3,3.7-1.4,5.3"/>
		<path class="st0" d="M856.3,691.1c3.3,2.5,5.2,5.3,1.9,9.1"/>
		<path class="st0" d="M631.7,1204.7c0.9,1.5,1,3.1,1,4.8"/>
		<path class="st0" d="M171.8,894.1c0.7,2.7,2.2,4.3,5.3,3.9c2.4-0.3,4,1.9,6.2,2.4"/>
		<path class="st0" d="M879.4,353.2c-0.6,1.3-1.3,2.6-1.9,3.8"/>
		<path class="st0" d="M1450.1,985.3c-2.5-0.6-4.6,0.3-6.7,1.4"/>
		<path class="st0" d="M278.4,807.3c-1.1,0.4-2.2,1-3.4,0"/>
		<path class="st0" d="M1000.3,646.9c1,0.3,1.9,0.6,2.9,1"/>
		<path class="st0" d="M1296,1028.3c-2,0.8-0.8,2.4-1,3.6"/>
		<path class="st0" d="M639.8,677.2c-0.8,0.5-1.6,1-2.4,1.4"/>
		<path class="st0" d="M1453.4,989.7c1.7-3.2,3.9-0.6,5.7-0.4c1.8,0.3,0,1.5,0,2.3"/>
		<path class="st0" d="M330.2,920.5c-0.5-0.7-0.9-0.6-1.5,0c-1.2,1.1,0.1,1.4,0.5,1.9"/>
		<path class="st0" d="M613.4,1256.5c0,0.6,0,1.3,0,1.9"/>
		<path class="st0" d="M325.4,935.9c-0.5-0.7-1-0.7-1.4,0"/>
		<path class="st0" d="M237.6,394c-0.5,0-1.1-0.1-1.4,0.5"/>
		<path class="st0" d="M244.8,449.7c0,0.5,0,1,0,1.4"/>
		<path class="st0" d="M871.7,871.1c0.5,0.3,0.7,0.7,0.5,1c-0.1,0.2-0.3,0.3-0.5,0.5"/>
	</g>
</g>
</svg>
