<?xml version="1.0" standalone="no"?>
<!DOCTYPE svg PUBLIC "-//W3C//DTD SVG 20010904//EN"
 "http://www.w3.org/TR/2001/REC-SVG-20010904/DTD/svg10.dtd">
<svg version="1.0" xmlns="http://www.w3.org/2000/svg"
 width="1500.000000pt" height="1500.000000pt" viewBox="0 0 1500.000000 1500.000000"
 preserveAspectRatio="xMidYMid meet">

<g transform="translate(0.000000,1500.000000) scale(0.100000,-0.100000)"
fill="#000000" stroke="none">
<path d="M0 7500 l0 -7500 7500 0 7500 0 0 7500 0 7500 -7500 0 -7500 0 0
-7500z m12340 507 l0 -4334 -66 -33 c-53 -27 -69 -31 -87 -22 -12 6 -44 14
-72 17 -27 4 -67 17 -87 31 -40 26 -58 30 -58 14 0 -14 -74 -12 -89 3 -10 8
-15 9 -18 1 -16 -44 -112 -78 -268 -95 -139 -16 -157 -14 -199 15 -21 14 -47
26 -57 26 -10 0 -20 4 -23 9 -3 4 -17 6 -30 4 -13 -3 -41 0 -60 7 -20 6 -80
13 -134 15 -53 2 -112 9 -131 14 -21 7 -40 7 -51 1 -14 -7 -17 -6 -16 8 2 25
-83 20 -195 -13 -61 -18 -103 -25 -127 -22 -26 5 -41 1 -60 -13 -13 -11 -32
-20 -41 -20 -10 0 -26 -7 -37 -15 -21 -16 -65 -19 -92 -6 -9 4 -34 16 -54 26
l-37 18 -71 -37 c-66 -35 -71 -36 -92 -22 -12 9 -34 16 -48 16 -40 0 -95 18
-120 40 -19 16 -26 17 -44 8 -26 -15 -74 -19 -82 -7 -9 15 -34 10 -34 -6 0 -9
-10 -19 -22 -24 -77 -30 -172 -54 -228 -58 -36 -2 -96 -6 -133 -9 -53 -5 -71
-3 -85 9 -9 9 -29 19 -44 22 -16 4 -26 11 -23 15 12 19 -14 18 -38 0 -24 -19
-26 -19 -43 -3 -10 10 -25 19 -33 20 -115 15 -291 46 -307 54 -22 12 -95 7
-154 -10 -133 -38 -151 -40 -274 -30 -66 6 -127 16 -134 21 -9 8 -11 28 -7 72
4 34 6 93 5 133 0 39 4 74 9 77 5 3 14 39 21 79 6 39 15 95 20 122 10 55 27
181 36 264 3 30 12 71 20 90 11 25 17 83 20 181 3 80 6 159 8 175 2 17 7 76
11 133 4 56 11 102 16 102 5 0 9 -3 10 -7 4 -47 12 -79 25 -105 11 -21 14 -42
9 -67 -11 -67 -10 -168 4 -184 7 -9 27 -17 44 -19 l32 -3 -1 -67 c-1 -37 -5
-76 -9 -85 -21 -50 -16 -77 22 -110 45 -40 103 -45 143 -12 24 21 25 24 25
163 1 96 5 148 13 164 16 27 9 267 -10 339 -9 37 -8 46 7 63 10 11 32 24 50
30 27 9 34 17 39 48 13 70 20 267 20 597 1 325 -5 399 -41 550 -3 11 -4 33 -4
50 1 16 -3 41 -8 55 -6 14 -12 48 -15 75 -2 28 -9 75 -15 105 -5 30 -13 84
-16 120 -6 80 -15 132 -25 145 -4 6 -6 19 -4 29 1 10 -3 35 -11 55 -7 20 -23
70 -36 111 -13 41 -29 82 -36 91 -7 8 -13 20 -13 26 0 5 -17 28 -38 51 -21 23
-39 47 -39 54 -2 31 -33 128 -62 191 -17 37 -31 71 -31 76 0 17 -45 116 -59
131 -8 8 -32 53 -54 100 -21 47 -43 86 -48 88 -4 2 -33 34 -64 72 -45 57 -63
71 -98 81 -23 6 -61 19 -85 30 -23 10 -56 19 -72 19 -16 0 -32 5 -35 10 -4 6
-22 17 -41 25 -19 8 -34 19 -34 24 0 6 -7 11 -15 11 -8 0 -21 14 -30 30 -9 17
-13 30 -10 30 3 0 1 9 -5 21 -7 12 -9 33 -5 47 7 25 8 26 15 7 5 -11 9 -34 9
-51 1 -17 7 -37 15 -43 22 -18 47 27 46 80 -2 62 10 109 26 109 8 0 26 7 40
17 19 12 24 22 19 40 -3 13 -1 23 5 23 5 0 10 -8 11 -17 2 -33 -2 -178 -6
-243 -4 -72 7 -91 49 -83 34 7 40 36 42 198 2 235 3 255 17 255 17 0 67 65 67
88 0 11 6 22 14 25 10 4 13 26 11 89 -4 130 -3 126 -22 124 -15 -1 -18 8 -20
54 -3 102 -6 125 -25 164 -10 22 -18 46 -18 54 0 42 -129 172 -171 172 -14 0
-50 13 -80 30 -30 16 -64 30 -77 30 -20 0 -22 4 -16 23 4 12 15 33 25 46 23
29 25 86 4 95 -8 3 -15 18 -15 33 -1 31 -63 102 -96 108 -10 2 -20 4 -21 4 -2
1 -5 1 -8 1 -3 0 -25 9 -50 20 -27 12 -66 19 -98 19 -28 -1 -63 1 -77 3 -33 6
-90 -9 -115 -31 -11 -9 -37 -26 -59 -37 -21 -10 -41 -27 -44 -36 -2 -10 -12
-18 -21 -18 -16 0 -31 -19 -62 -77 -29 -57 -31 -91 -6 -126 12 -18 25 -33 30
-35 4 -2 7 -9 7 -16 0 -7 11 -29 25 -49 l24 -37 -23 -27 c-13 -16 -40 -66 -60
-113 -21 -47 -43 -90 -51 -96 -23 -18 -56 -104 -59 -158 -4 -59 33 -169 67
-199 19 -17 20 -25 14 -172 -8 -177 -2 -190 50 -130 38 44 35 55 33 -117 -1
-98 1 -108 20 -118 16 -8 28 -7 55 6 19 9 35 19 35 23 0 3 15 15 34 25 18 9
41 32 50 49 l17 32 -6 -60 c-6 -64 -21 -85 -61 -85 -12 0 -33 -13 -47 -30 -24
-28 -32 -30 -103 -34 -49 -3 -80 -10 -85 -18 -5 -7 -19 -14 -31 -15 -68 -4
-166 -40 -196 -70 -18 -17 -32 -35 -32 -40 0 -5 -23 -31 -50 -58 -62 -61 -90
-117 -90 -178 0 -56 -33 -109 -124 -201 -69 -69 -86 -96 -86 -137 0 -17 -7
-41 -16 -54 -21 -32 -13 -80 22 -130 14 -21 24 -38 22 -40 -2 -1 -22 -12 -45
-25 -24 -13 -43 -28 -43 -33 0 -6 -8 -3 -18 6 -10 10 -23 17 -29 17 -16 0 -36
-28 -37 -53 -1 -12 -7 -21 -13 -20 -7 2 -20 -10 -31 -25 -20 -29 -62 -172 -62
-212 0 -21 -67 -233 -90 -285 -4 -11 -11 -51 -14 -89 -3 -38 -10 -74 -16 -80
-13 -13 -13 -82 1 -109 14 -28 103 -113 149 -142 64 -41 65 -41 66 -229 0
-159 7 -236 20 -258 3 -5 -2 -21 -11 -35 -13 -19 -16 -37 -11 -72 4 -25 9 -64
12 -86 3 -22 12 -47 20 -56 8 -8 14 -19 14 -24 0 -19 52 -75 70 -75 10 0 21
-9 25 -19 6 -19 8 -29 25 -101 4 -19 17 -52 28 -73 17 -32 19 -44 10 -69 -9
-26 -7 -38 18 -84 16 -30 37 -57 47 -60 9 -3 17 -12 17 -20 0 -8 5 -14 10 -14
6 0 10 -6 10 -13 0 -7 12 -30 26 -51 25 -37 28 -38 73 -33 25 3 55 8 67 12 19
6 22 0 37 -72 19 -85 20 -91 37 -238 6 -55 17 -118 25 -140 23 -68 40 -207 50
-395 7 -128 13 -198 21 -238 l7 -33 -44 1 c-24 0 -91 -1 -148 -4 -77 -4 -111
-1 -131 9 -23 12 -30 12 -56 -4 -22 -14 -36 -16 -54 -9 -45 17 -58 17 -76 -3
-9 -10 -27 -19 -38 -19 -12 0 -30 -7 -40 -15 -11 -8 -29 -15 -40 -15 -25 0
-98 25 -126 42 -16 10 -24 10 -43 -1 -89 -57 -107 -64 -131 -47 -13 8 -43 16
-67 17 -49 2 -74 12 -106 42 -21 19 -24 19 -40 4 -18 -16 -62 -17 -96 -2 -14
6 -20 2 -24 -14 -3 -13 -16 -23 -32 -27 -14 -3 -55 -15 -91 -26 -36 -12 -94
-23 -130 -25 -36 -1 -89 -6 -118 -9 -41 -5 -57 -3 -70 9 -11 11 -60 22 -132
32 -63 9 -120 21 -127 27 -19 15 -129 3 -193 -21 -14 -6 -49 -14 -79 -20 -44
-7 -59 -6 -78 6 -14 9 -36 13 -55 10 -18 -2 -82 2 -141 9 -60 8 -113 12 -118
8 -5 -3 -8 0 -7 8 5 22 -116 13 -217 -17 -52 -15 -100 -23 -116 -20 -31 7
-152 -19 -180 -39 -15 -10 -29 -11 -60 -4 -21 6 -39 14 -39 18 0 21 -40 13
-98 -18 -62 -34 -63 -34 -102 -18 -22 9 -42 16 -45 16 -3 0 -18 0 -34 0 -15 0
-46 12 -67 26 -30 21 -42 24 -56 15 -22 -14 -75 -14 -83 -1 -11 18 -34 10 -37
-12 -2 -14 -13 -25 -28 -30 -130 -37 -189 -48 -272 -53 -54 -3 -107 -8 -118
-10 -11 -2 -36 6 -55 18 l-34 22 -1 4413 0 4412 4840 0 4840 0 0 -4333z
m-4927 1629 c4 -6 6 -22 3 -35 -5 -30 24 -81 46 -81 9 0 25 12 36 28 16 22 18
36 13 73 l-7 45 35 -1 c82 -2 140 -45 110 -81 -16 -20 -21 -40 -22 -81 0 -31
-14 -42 -30 -26 -16 15 -124 8 -178 -13 -55 -21 -56 -21 -82 -2 -25 18 -27 25
-27 89 0 42 6 81 15 99 15 28 15 28 47 13 18 -9 36 -21 41 -27z m-181 -98 c6
-51 5 -52 -21 -43 -23 7 -27 35 -11 66 17 30 28 22 32 -23z m32 -74 c14 -5 14
-8 0 -28 -10 -17 -21 -22 -40 -18 l-25 5 22 23 c25 27 22 26 43 18z m358 -105
c11 -6 47 -13 81 -15 47 -3 85 -16 164 -54 63 -30 103 -55 103 -64 0 -8 6 -19
13 -23 28 -18 45 -79 40 -142 -6 -64 -10 -71 -18 -30 -4 21 -26 78 -58 147 -6
12 -15 22 -20 22 -5 0 -15 7 -21 16 -15 20 -46 8 -46 -18 0 -10 8 -33 17 -51
9 -18 18 -53 19 -79 3 -45 2 -47 -29 -54 -84 -19 -243 -23 -359 -10 l-67 8 5
46 c4 26 10 64 14 85 8 38 4 42 -30 37 -27 -3 -49 -32 -56 -69 -16 -99 -34
-120 -70 -80 -12 14 -25 18 -41 14 -19 -4 -23 -1 -23 18 0 34 20 89 41 112 30
33 31 71 3 90 -13 8 -24 12 -24 7 0 -4 -15 -28 -32 -52 -18 -24 -42 -73 -54
-107 -17 -53 -23 -62 -33 -49 -9 11 -10 20 -2 35 6 11 11 26 11 35 0 31 56
134 88 160 28 24 44 29 115 33 56 4 90 11 107 24 28 20 130 25 162 8z m-508
-428 c9 -7 22 -11 31 -8 12 5 14 -2 10 -42 -5 -50 -27 -105 -38 -95 -3 3 -3
12 -1 19 3 7 1 16 -5 20 -6 3 -11 13 -11 22 0 9 -9 26 -20 38 -16 18 -19 27
-11 47 5 14 5 31 1 38 -5 8 -6 19 -2 24 3 6 11 -3 18 -20 7 -17 20 -36 28 -43z
m444 -46 c31 -2 67 -4 79 -4 21 -1 21 -2 6 -31 -13 -28 -13 -33 1 -55 19 -29
24 -30 46 -10 15 13 20 14 45 1 28 -15 70 -12 91 5 7 5 15 22 19 37 5 20 2 31
-14 44 l-21 17 22 6 c28 9 44 -12 53 -70 7 -51 1 -67 -23 -63 -13 2 -18 -6
-20 -40 -2 -27 1 -42 7 -38 6 4 8 -13 6 -45 -6 -85 -15 -106 -51 -135 -18 -15
-36 -35 -39 -45 -3 -9 -19 -22 -35 -29 -16 -6 -31 -18 -34 -26 -3 -8 -12 -14
-20 -14 -7 0 -25 -6 -39 -13 -29 -15 -120 -14 -125 2 -2 6 -13 11 -24 11 -10
0 -26 7 -34 15 -9 8 -24 15 -35 15 -10 0 -19 5 -19 11 0 6 -18 28 -41 49 -46
41 -51 63 -53 225 l-1 80 34 3 c19 2 61 -4 94 -13 32 -9 65 -14 73 -11 30 12
8 87 -32 105 -13 6 -24 14 -24 19 0 17 13 21 32 11 11 -6 45 -12 76 -14z
m-228 5 c0 -5 -7 -10 -16 -10 -8 0 -12 5 -9 10 3 6 10 10 16 10 5 0 9 -4 9
-10z m350 -635 c0 -9 7 -29 15 -45 15 -30 15 -30 -22 -45 -24 -10 -51 -14 -73
-10 -54 9 -71 16 -65 25 3 4 -2 13 -9 20 -12 9 -20 8 -39 -5 -30 -19 -39 -9
-31 34 6 30 9 32 38 24 39 -9 102 -6 124 7 27 15 62 12 62 -5z m-233 -176 c27
-7 58 -16 71 -22 13 -6 56 -10 95 -8 225 9 221 9 256 -11 27 -15 36 -16 42 -6
6 9 10 8 15 -5 3 -9 16 -17 28 -17 11 0 30 -7 40 -15 10 -8 22 -12 27 -10 4 3
10 1 14 -5 3 -5 17 -10 31 -10 51 0 150 -132 233 -310 12 -25 25 -52 30 -60
18 -31 34 -75 32 -88 -1 -8 3 -20 9 -27 6 -8 13 -29 15 -48 1 -19 12 -56 24
-83 37 -83 37 -138 2 -241 -17 -50 -31 -102 -31 -117 0 -35 -17 -33 -25 2 -9
42 -82 122 -111 122 -31 0 -33 -39 -4 -65 11 -10 20 -25 20 -34 0 -9 7 -29 15
-45 9 -16 17 -37 18 -45 1 -9 6 -21 10 -28 4 -6 10 -36 12 -65 13 -133 15
-156 20 -196 2 -24 7 -47 10 -52 3 -6 8 -83 11 -172 3 -90 10 -165 15 -168 5
-4 8 -24 7 -46 0 -22 4 -49 10 -61 19 -34 15 -49 -8 -28 -15 14 -25 15 -49 7
-25 -9 -33 -7 -54 12 -14 13 -32 26 -41 29 -9 4 -16 18 -16 31 0 16 -5 24 -13
20 -7 -2 -32 16 -57 41 -31 32 -52 45 -72 45 -15 0 -28 4 -28 10 0 14 -108 63
-125 56 -8 -3 -17 -1 -21 5 -8 14 -36 -11 -30 -28 3 -7 -1 -13 -8 -13 -8 0
-28 -16 -45 -35 -17 -19 -33 -35 -37 -35 -3 0 -19 -9 -35 -21 -16 -11 -57 -27
-91 -35 -35 -9 -70 -18 -78 -21 -8 -3 -19 -7 -25 -9 -57 -14 -76 -17 -115 -19
-50 -3 -254 11 -312 21 -50 8 -49 24 1 24 23 0 48 8 62 19 l23 19 -27 35 c-33
43 -59 53 -89 33 -27 -17 -103 -32 -205 -41 -87 -8 -89 -6 -98 116 -5 62 -2
104 10 159 9 41 19 95 22 120 3 25 11 52 19 60 7 8 18 35 24 60 6 25 12 52 15
60 2 8 18 44 36 80 26 52 33 81 37 145 4 79 4 80 -29 116 -19 20 -41 50 -50
67 -13 23 -26 31 -57 37 -33 5 -47 2 -88 -23 -79 -48 -118 -58 -151 -42 -35
18 -72 60 -73 81 0 9 6 22 14 28 8 7 18 27 22 44 8 39 31 82 65 123 14 17 45
61 68 97 25 38 48 64 55 61 7 -3 23 3 35 13 29 24 19 57 -15 49 -20 -5 -22 -3
-18 16 3 13 7 30 8 38 5 31 36 78 68 102 41 31 132 78 152 78 8 0 16 5 18 11
2 7 26 13 53 14 28 1 69 8 92 15 40 12 43 12 61 -10 l19 -24 29 27 c16 15 32
27 36 27 5 0 8 13 8 30 0 25 5 31 33 39 45 13 79 13 134 0z m-637 -906 c-1 -5
-13 -23 -29 -41 -27 -32 -28 -32 -60 -16 l-32 16 23 18 c31 24 99 40 98 23z
m1744 -75 c9 -17 16 -41 16 -52 0 -12 8 -33 17 -46 10 -14 16 -27 15 -30 -5
-8 7 -69 23 -120 8 -25 17 -81 21 -125 3 -44 8 -93 10 -110 1 -16 6 -61 9
-100 3 -38 15 -101 25 -140 41 -154 56 -355 38 -520 -5 -44 -11 -172 -13 -285
-5 -216 -11 -294 -26 -322 -26 -48 -120 -59 -162 -20 -13 12 -30 22 -39 22
-14 0 -38 38 -38 60 0 5 18 14 41 20 45 12 56 29 39 60 -9 16 -19 21 -43 18
-27 -2 -33 1 -35 20 -2 13 1 29 8 37 18 21 25 314 10 398 -7 40 -17 77 -22 84
-6 8 -2 16 14 24 30 16 37 27 33 53 -2 12 -6 74 -9 138 -3 65 -10 137 -15 160
-10 49 -23 153 -25 213 -1 23 -5 46 -9 52 -4 6 -12 46 -18 89 -9 64 -8 82 5
108 18 39 28 65 32 91 1 11 8 40 14 65 6 25 14 65 17 89 3 35 36 101 49 101 1
0 10 -14 18 -32z m-1681 -34 c-6 -16 -29 -19 -38 -4 -4 6 -1 17 5 26 15 18 42
0 33 -22z m-181 -54 c50 -27 102 -76 94 -89 -12 -19 -22 -13 -84 49 -33 33
-64 60 -70 60 -5 0 -13 7 -16 16 -6 15 -5 15 16 0 13 -9 39 -25 60 -36z m-120
-61 c40 -40 99 -95 131 -123 57 -49 59 -52 52 -90 -3 -22 -10 -45 -14 -51 -7
-8 -16 -73 -25 -175 -1 -14 -7 -35 -14 -46 -6 -12 -8 -24 -5 -28 4 -3 7 -48 9
-99 4 -175 9 -182 116 -173 71 6 78 5 78 -12 0 -10 -4 -22 -9 -27 -5 -6 -11
-37 -12 -70 -1 -33 -6 -67 -10 -75 -30 -66 -52 -196 -50 -306 1 -47 -24 -64
-79 -54 -96 19 -130 9 -164 -48 -9 -15 59 -82 83 -82 22 0 117 -45 126 -60 6
-10 -10 -11 -71 -5 -43 4 -87 11 -96 16 -12 6 -18 6 -18 0 0 -5 -8 -10 -17
-10 -45 1 -144 -9 -150 -14 -13 -14 -38 55 -35 96 3 35 9 47 34 62 41 28 55
60 56 135 2 188 21 364 47 423 40 97 46 117 41 135 -8 24 -31 35 -57 27 -16
-5 -26 -24 -33 -59 -6 -28 -29 -106 -47 -159 -22 -61 -33 -169 -31 -301 0 -44
-2 -85 -6 -90 -11 -18 -39 93 -37 148 1 28 3 92 4 141 3 97 15 184 36 255 7
25 16 56 19 70 3 14 19 33 36 42 43 24 40 57 -11 102 -22 20 -52 42 -66 49
-22 10 -28 8 -45 -13 -14 -17 -18 -32 -13 -50 19 -74 -4 -211 -37 -218 -14 -3
-108 65 -108 78 0 4 -9 17 -19 29 -18 20 -18 26 -6 60 7 21 18 69 24 108 6 38
20 92 32 119 20 44 23 46 30 26 11 -30 44 -28 66 4 10 14 31 40 46 57 24 28
67 137 67 171 0 27 54 156 66 156 7 0 46 -32 86 -71z m-212 -1 c-10 -35 -21
-79 -24 -98 -3 -19 -22 -57 -41 -84 -32 -46 -35 -47 -35 -23 0 15 6 44 14 64
8 21 17 56 19 78 6 51 15 75 40 103 38 41 46 28 27 -40z m1685 -810 c12 -54
89 -117 204 -167 76 -34 99 -34 108 -1 11 42 19 17 23 -72 7 -169 -6 -415 -23
-436 -7 -8 -36 -12 -92 -11 -64 1 -88 -3 -109 -16 -20 -13 -44 -18 -87 -16
-41 1 -85 -6 -143 -24 -46 -14 -94 -27 -107 -29 -44 -4 -144 -29 -156 -39 -9
-6 -15 -4 -19 7 -8 20 -28 21 -44 1 -8 -9 -21 -13 -34 -10 -12 3 -38 10 -58
15 -21 6 -55 15 -75 21 -21 5 -49 12 -63 13 -14 2 -32 6 -40 10 -8 3 -44 12
-80 20 -36 8 -83 21 -105 30 -22 9 -49 21 -60 25 -11 5 -47 16 -80 26 -33 10
-73 24 -89 32 -27 14 -28 17 -22 61 12 77 17 135 18 177 0 22 6 65 14 96 8 31
14 78 14 104 0 42 2 46 23 44 34 -4 68 10 114 48 39 31 46 33 95 28 29 -3 87
-7 128 -9 87 -4 160 -23 178 -45 7 -8 12 -38 11 -66 0 -27 4 -66 10 -85 6 -19
11 -58 11 -87 0 -59 9 -88 39 -122 12 -13 21 -29 21 -36 0 -15 43 -35 75 -35
26 0 39 14 41 45 1 11 4 47 8 80 4 33 6 96 5 140 -4 111 -3 155 5 209 7 45 8
46 49 53 23 3 44 5 45 4 2 -1 9 4 15 13 14 17 51 22 88 12 16 -5 43 -2 70 8
61 21 67 20 74 -16z m-1045 -33 c-7 -8 -16 -12 -21 -9 -13 8 -1 24 18 24 13 0
13 -3 3 -15z m607 -187 c2 -147 1 -151 -12 -103 -18 65 -20 241 -2 248 6 3 12
6 12 6 0 1 1 -68 2 -151z m-662 -526 c11 -2 25 -8 30 -12 6 -4 28 -11 50 -14
46 -8 138 -38 145 -47 3 -3 33 -9 66 -13 34 -4 81 -16 104 -27 23 -11 58 -23
76 -26 38 -6 40 -11 20 -38 -12 -17 -18 -18 -40 -7 -14 6 -26 16 -26 22 0 5
-9 10 -19 10 -11 0 -23 5 -26 10 -3 6 -17 10 -30 10 -13 0 -26 4 -29 9 -3 4
-29 12 -58 16 -74 11 -75 11 -153 30 -137 33 -155 38 -155 44 0 3 -3 17 -7 30
-5 21 -4 23 13 17 10 -5 28 -11 39 -14z m-229 -61 c5 1 20 -1 34 -5 24 -7 25
-11 26 -79 0 -70 7 -125 20 -178 8 -35 -9 -44 -46 -25 -17 9 -43 23 -59 31
-16 9 -34 22 -41 30 -7 8 -16 13 -20 10 -19 -12 -60 19 -71 54 -20 60 -28 155
-14 157 6 0 17 4 25 7 25 11 84 13 111 4 14 -4 30 -7 35 -6z m1643 -16 c-2 -2
-35 -6 -73 -9 -67 -6 -129 -21 -152 -38 -6 -4 -14 -5 -18 -1 -9 9 -77 4 -91
-7 -9 -7 -47 -15 -124 -26 -19 -2 -38 -7 -43 -10 -13 -8 -168 -14 -191 -8 -9
3 -15 9 -12 14 8 13 135 39 200 41 17 1 55 10 85 20 69 22 138 31 159 20 10
-6 31 -4 56 5 22 8 51 12 65 9 14 -2 50 -1 80 3 47 6 72 1 59 -13z m-1434 -91
c11 -4 40 -10 65 -15 25 -4 68 -12 96 -18 28 -5 66 -8 85 -7 23 2 63 -11 124
-41 145 -69 132 -34 129 -348 -2 -149 -6 -290 -9 -314 -3 -24 -8 -119 -10
-213 -2 -93 -7 -185 -11 -204 -4 -20 -8 -99 -9 -177 -2 -78 -5 -176 -7 -217
-4 -74 -4 -74 -39 -88 -30 -13 -101 -16 -280 -12 -23 0 -27 6 -37 53 -6 28
-11 59 -11 67 -2 28 -8 65 -14 80 -8 22 -18 122 -22 225 -2 50 -7 115 -10 145
-4 30 -7 71 -7 90 0 19 -4 42 -9 51 -8 15 -20 99 -35 249 -8 80 -8 79 1 111 4
16 2 30 -4 33 -6 4 -11 22 -11 41 0 39 -20 96 -27 78 -3 -7 -12 -13 -20 -13
-14 0 -14 3 2 20 10 11 16 23 13 26 -4 3 -2 20 3 37 6 18 13 43 17 57 9 37 6
158 -6 173 -5 6 -12 43 -15 81 -6 67 -6 68 16 62 12 -4 31 -9 42 -12z m1359
-58 c13 -48 -6 -531 -25 -641 -5 -33 -11 -71 -13 -85 -2 -14 -6 -36 -9 -50 -3
-14 -11 -65 -17 -115 -16 -122 -39 -245 -52 -275 -6 -14 -12 -78 -14 -143 -2
-65 -8 -166 -14 -225 -11 -116 -19 -132 -71 -132 -15 0 -31 -5 -34 -10 -8 -13
-105 -11 -122 2 -7 5 -20 7 -30 4 -25 -8 -94 17 -105 38 -5 10 -7 24 -4 31 4
12 -14 290 -29 450 -3 22 -7 135 -10 250 -3 116 -9 242 -13 282 -5 39 -7 105
-5 145 5 148 4 318 -2 328 -13 21 7 49 43 61 20 6 42 16 48 21 7 5 47 13 89
17 42 5 82 14 88 20 6 6 31 11 57 11 25 1 83 9 129 19 106 22 108 22 115 -3z
m-764 -86 c0 -5 -4 -10 -10 -10 -5 0 -10 5 -10 10 0 6 5 10 10 10 6 0 10 -4
10 -10z m76 -15 c14 -13 26 -35 26 -47 0 -13 0 -81 0 -153 0 -71 1 -155 3
-185 2 -30 7 -172 10 -315 3 -142 9 -262 13 -265 8 -5 12 -67 17 -265 2 -49 6
-98 10 -109 9 -22 -6 -51 -26 -51 -8 0 -24 -4 -37 -9 -16 -5 -29 -3 -40 7 -9
8 -32 13 -50 12 -17 -2 -35 2 -39 8 -10 16 -3 458 7 477 4 8 8 78 8 156 0 128
7 218 18 235 5 8 5 108 0 224 -2 50 0 113 3 140 4 28 4 61 1 75 -8 29 17 90
36 90 7 0 25 -11 40 -25z m1030 -41 c18 -70 25 -155 15 -190 -6 -24 -14 -30
-47 -35 -21 -4 -44 -5 -50 -2 -25 9 -11 236 18 270 23 29 50 11 64 -43z m-6
-479 c0 -14 -4 -25 -10 -25 -11 0 -14 33 -3 43 11 11 13 8 13 -18z m3295 -959
c19 -14 17 -15 -27 -16 -49 0 -61 13 -36 38 12 12 26 7 63 -22z m-6187 -15
c31 -27 28 -31 -20 -28 -60 4 -65 36 -8 46 3 0 15 -8 28 -18z m2996 -4 c14
-13 43 -32 66 -42 22 -10 40 -21 40 -26 0 -12 -59 -29 -65 -18 -4 5 -30 9 -60
9 -30 0 -57 5 -60 10 -3 6 -19 10 -34 10 -16 0 -41 6 -56 14 l-28 15 38 15
c21 9 46 16 56 16 10 0 20 3 23 8 10 17 56 11 80 -11z m1086 -4 c31 -27 24
-35 -22 -28 -52 9 -54 10 -38 30 16 20 35 19 60 -2z m880 3 c0 -15 -90 -36
-123 -28 -31 8 -12 27 34 33 77 10 89 10 89 -5z m167 -52 c20 -23 38 -34 48
-30 9 3 15 0 15 -10 0 -12 -8 -15 -36 -11 -43 6 -90 47 -81 71 9 23 17 20 54
-20z m-7630 -24 l26 -20 -46 0 c-45 0 -64 11 -52 30 10 16 45 11 72 -10z
m9073 -37 c0 -7 -34 -14 -95 -18 -100 -8 -127 -3 -81 14 14 6 26 15 26 19 0 5
17 16 37 24 35 13 41 12 75 -7 21 -11 38 -25 38 -32z m-7997 -28 c15 -4 27
-13 27 -21 0 -17 -4 -17 -52 -4 -40 11 -62 39 -63 79 -1 23 1 22 30 -12 17
-19 43 -39 58 -42z m4061 54 c20 -12 33 -25 30 -30 -8 -14 -67 -11 -105 5
l-34 14 35 15 c19 9 36 16 37 16 1 1 18 -8 37 -20z m-2284 -19 c38 -20 49 -33
32 -43 -6 -5 -147 -11 -182 -8 -14 1 87 71 103 71 4 0 26 -9 47 -20z m264 11
c3 -5 -5 -8 -19 -7 -14 0 -25 4 -25 9 0 10 38 9 44 -2z m1221 0 c5 -10 -12
-25 -30 -26 -16 -2 -35 16 -29 26 7 12 51 12 59 0z m2603 -21 c75 -37 47 -53
-83 -48 l-80 3 40 25 c75 46 70 45 123 20z m252 10 c13 -9 13 -10 0 -10 -8 0
-22 5 -30 10 -13 9 -13 10 0 10 8 0 22 -5 30 -10z m-5250 -30 c0 -5 -4 -10
-10 -10 -5 0 -10 5 -10 10 0 6 5 10 10 10 6 0 10 -4 10 -10z m1738 -6 c40 -6
40 -14 1 -43 -35 -26 -97 -34 -154 -20 -22 6 -53 11 -69 12 -16 1 -31 7 -33
13 -3 8 10 8 48 1 50 -10 52 -9 79 20 29 31 34 32 128 17z m2202 8 c0 -11
-114 -37 -128 -28 -5 3 -30 2 -55 -3 -41 -7 -79 0 -66 13 15 15 249 31 249 18z
m-3900 -37 l23 -25 -30 0 c-30 0 -50 21 -37 41 9 14 19 11 44 -16z m4065 -21
c14 -22 22 -25 51 -21 24 4 40 0 56 -13 34 -27 16 -35 -49 -21 -87 19 -87 19
-105 48 -33 58 9 64 47 7z m1490 36 c4 -6 -8 -10 -30 -10 -22 0 -34 4 -30 10
3 6 17 10 30 10 13 0 27 -4 30 -10z m555 2 c0 -18 -97 -89 -117 -86 -7 1 -29
2 -48 3 -32 1 -35 4 -35 30 0 24 5 30 33 36 17 5 56 9 85 10 29 1 55 5 59 8 9
10 23 9 23 -1z m-7707 -63 c-14 -14 -193 -23 -193 -10 0 6 5 11 12 11 6 0 21
8 32 19 12 10 35 23 51 28 25 8 36 6 68 -15 21 -14 34 -29 30 -33z m8335 22
c4 -11 -6 -12 -49 -6 -74 10 -81 21 -12 20 38 0 58 -4 61 -14z m-6650 -21 c28
-26 28 -30 -2 -30 -32 0 -63 29 -44 41 19 12 22 11 46 -11z m-2615 -41 c5 -17
12 -20 44 -18 45 2 69 -7 77 -28 5 -13 0 -15 -36 -10 -94 12 -108 19 -108 53
0 29 16 32 23 3z m1878 -5 c9 -24 -4 -50 -20 -40 -15 10 -14 69 1 64 6 -2 14
-13 19 -24z m7174 16 c4 -6 -7 -10 -24 -10 -17 0 -31 5 -31 10 0 6 11 10 24
10 14 0 28 -4 31 -10z m-5775 -35 c13 -16 10 -17 -40 -11 -30 3 -56 5 -57 6
-2 0 -3 5 -3 10 0 6 9 10 19 10 11 0 23 5 26 10 7 12 35 -1 55 -25z m3212 -17
c-6 -6 -20 -7 -33 -2 l-24 8 25 6 c30 8 46 2 32 -12z m3035 13 c7 -1 17 -10
24 -22 10 -20 9 -21 -21 -14 -17 4 -42 8 -54 9 -13 2 -29 7 -36 11 -18 11 16
25 50 20 14 -2 30 -4 37 -4z m-3636 -16 c51 -11 23 -19 -62 -17 -104 2 -145
14 -74 22 54 6 89 5 136 -5z m-655 -7 c4 -5 3 -8 -3 -8 -5 0 -21 -10 -35 -22
-40 -37 -72 -50 -119 -46 -42 3 -44 5 -44 33 1 17 4 30 8 29 3 -1 26 4 50 10
50 13 132 15 143 4z m2117 -7 c9 -1 17 -6 17 -12 0 -6 -27 -10 -67 -11 -278
-3 -274 -3 -283 -19 -8 -14 -17 -14 -71 -4 -80 14 -93 37 -20 34 28 -2 56 2
61 7 7 7 194 9 363 5z m-3635 -56 c17 -4 32 -11 32 -15 0 -15 -50 -17 -80 -2
-35 17 -87 6 -82 -18 2 -10 -7 -11 -40 -5 -24 4 -53 9 -65 10 -12 2 -27 7 -34
11 -16 10 28 26 51 19 9 -3 28 -1 41 4 26 10 125 8 177 -4z m-2933 -16 c4 -5
-4 -9 -17 -9 -26 -1 -134 -8 -193 -14 -22 -2 -51 1 -64 6 -36 13 -81 1 -81
-22 0 -18 -3 -18 -47 -5 -25 8 -50 12 -55 9 -4 -3 -17 1 -28 9 -21 14 -21 14
2 20 12 4 32 4 44 1 13 -3 30 -1 40 4 22 12 392 14 399 1z m1155 -129 c0 -5
-6 -10 -14 -10 -8 0 -21 -3 -30 -6 -9 -3 -16 -1 -16 4 0 9 9 13 53 21 4 0 7
-3 7 -9z m7720 -51 c0 -20 -4 -29 -12 -27 -7 3 -12 14 -11 26 1 31 2 32 13 32
6 0 10 -14 10 -31z m-4094 -14 c-11 -8 -29 -15 -40 -15 -21 1 -21 1 -2 15 11
8 29 15 40 15 21 -1 21 -1 2 -15z m-203 -2 c-7 -2 -19 -2 -25 0 -7 3 -2 5 12
5 14 0 19 -2 13 -5z"/>
<path d="M7538 8696 c-17 -39 -4 -58 39 -54 47 5 64 29 39 57 -26 29 -64 27
-78 -3z"/>
<path d="M7203 5880 c-31 -12 -30 -50 2 -80 21 -20 65 -91 65 -106 0 -2 -18 6
-40 18 -42 25 -62 21 -84 -16 -9 -14 -7 -21 7 -30 35 -21 145 -134 160 -162 9
-16 32 -45 51 -64 l37 -35 24 30 c28 35 31 57 9 76 -11 9 -14 22 -10 42 4 21
-4 50 -29 103 -19 41 -39 74 -45 74 -5 0 -10 6 -10 14 0 7 -13 30 -30 51 -16
21 -30 45 -30 54 0 36 -32 49 -77 31z"/>
<path d="M7880 5867 c-27 -22 -102 -117 -104 -132 -1 -8 -6 -18 -10 -22 -30
-30 -69 -174 -56 -208 11 -28 35 -33 47 -10 8 13 72 26 188 39 83 9 181 27
208 39 24 10 27 17 25 47 -2 28 -7 35 -23 33 -17 -1 -49 -8 -65 -13 -3 -1 -32
-3 -65 -5 -129 -7 -136 -6 -116 19 7 8 30 17 51 21 57 10 61 33 16 82 -14 15
-24 19 -32 12 -8 -7 -14 -7 -18 0 -4 5 -2 12 4 16 17 10 11 50 -10 73 -24 25
-21 25 -40 9z"/>
</g>
</svg>
