<?xml version="1.0" standalone="no"?>
<!DOCTYPE svg PUBLIC "-//W3C//DTD SVG 20010904//EN"
 "http://www.w3.org/TR/2001/REC-SVG-20010904/DTD/svg10.dtd">
<svg version="1.0" xmlns="http://www.w3.org/2000/svg"
 width="1500.000000pt" height="1500.000000pt" viewBox="0 0 1500.000000 1500.000000"
 preserveAspectRatio="xMidYMid meet">

<g transform="translate(0.000000,1500.000000) scale(0.100000,-0.100000)"
fill="#000000" stroke="none">
<path d="M0 7500 l0 -7500 7500 0 7500 0 0 7500 0 7500 -7500 0 -7500 0 0
-7500z m12340 0 l0 -4840 -4840 0 -4840 0 0 4840 0 4840 4840 0 4840 0 0
-4840z"/>
<path d="M7168 9050 c-9 -6 -63 -9 -120 -9 -122 3 -167 -1 -174 -13 -3 -5 -21
-6 -40 -2 -33 6 -43 -3 -25 -21 15 -15 16 -168 2 -194 -7 -12 -10 -30 -6 -39
3 -9 8 -53 11 -97 3 -44 9 -105 13 -136 4 -31 3 -67 -2 -80 -9 -24 -3 -189 13
-369 4 -52 9 -221 9 -375 1 -154 4 -293 6 -310 15 -115 18 -154 20 -270 2 -71
7 -204 11 -295 4 -91 8 -177 8 -192 1 -14 5 -30 9 -35 5 -4 97 -6 205 -5 126
2 215 -1 247 -8 28 -6 115 -13 195 -15 80 -1 152 -5 160 -7 8 -3 30 -10 47
-16 19 -6 81 -8 150 -5 133 5 193 4 204 -3 4 -2 19 6 34 18 22 19 27 33 31 88
2 36 7 90 10 120 5 49 17 540 14 615 0 17 -2 156 -4 310 -2 154 -6 303 -9 330
-4 28 -2 77 2 110 8 54 -2 388 -14 490 -18 160 -38 273 -52 304 -10 20 -16 44
-15 54 2 9 -2 17 -9 17 -6 0 -17 7 -24 16 -9 14 -29 17 -96 16 -265 -3 -317
-3 -344 3 -57 11 -449 15 -467 5z m556 -265 c22 -9 72 -43 112 -76 77 -62 89
-86 85 -161 -2 -43 10 -71 47 -110 21 -23 35 -62 62 -173 8 -32 -3 -57 -32
-75 -17 -10 -35 -17 -39 -14 -4 2 -10 0 -14 -5 -3 -6 -12 -8 -19 -5 -8 3 -17
1 -21 -5 -3 -6 -13 -11 -22 -11 -18 0 -53 -28 -53 -42 0 -4 35 -8 79 -8 64 0
83 -4 105 -21 14 -11 26 -29 26 -40 0 -22 0 -22 -37 -8 -36 14 -198 14 -268
-1 -36 -7 -61 -19 -73 -34 -28 -36 -73 -55 -122 -52 -51 3 -73 11 -114 39 -31
22 -119 31 -148 16 -12 -7 -18 -6 -18 2 0 6 -9 9 -20 6 -11 -3 -23 -1 -26 5
-4 6 -25 8 -50 4 -53 -7 -114 16 -114 43 0 22 63 51 110 51 60 0 41 29 -47 71
-47 22 -52 28 -66 79 -8 30 -21 82 -28 116 -12 60 -12 61 24 133 21 41 37 80
37 87 0 22 61 125 70 119 5 -3 11 3 14 12 8 25 105 65 250 102 67 18 70 18
170 -4 55 -13 119 -30 140 -40z m-118 -952 c33 -36 35 -40 29 -93 -3 -30 -15
-81 -26 -114 -12 -36 -16 -63 -11 -70 5 -6 12 -26 15 -44 6 -28 3 -34 -19 -42
-14 -6 -41 -10 -60 -10 -42 0 -56 26 -42 80 6 19 9 42 9 50 -1 26 -19 123 -32
171 -11 42 -10 48 7 65 21 21 62 42 82 43 7 1 29 -16 48 -36z m-363 9 c62 -2
77 -6 77 -24 0 -14 -123 -5 -165 11 -22 9 -26 14 -15 21 8 5 21 5 29 1 9 -4
42 -8 74 -9z m195 -56 c1 -16 -4 -27 -16 -30 -10 -4 -26 -28 -37 -59 -11 -32
-35 -69 -64 -98 -25 -26 -66 -68 -90 -95 -53 -58 -74 -59 -141 -8 -52 40 -73
81 -90 178 -12 66 -12 69 11 90 25 23 59 24 59 2 0 -8 14 -16 31 -20 53 -10
164 -7 177 6 6 6 17 13 24 14 56 8 101 28 105 45 7 26 28 9 31 -25z m430 26
c13 -1 21 -6 17 -11 -3 -6 -29 -8 -58 -7 -82 5 -83 6 -70 14 10 6 53 8 111 4z
m229 -96 c1 -87 -2 -105 -24 -150 -20 -42 -34 -55 -76 -76 -29 -13 -59 -26
-67 -27 -22 -3 -114 58 -100 67 16 10 -5 24 -25 16 -17 -6 -23 2 -69 87 -21
37 -32 67 -26 67 6 0 8 5 5 10 -12 20 15 38 48 33 114 -19 247 11 262 57 5 17
14 20 38 18 l32 -3 2 -99z m-683 -142 c6 -17 8 -74 3 -74 -8 0 -67 32 -71 38
-6 10 15 37 34 45 24 9 27 8 34 -9z m280 -14 c31 -11 33 -29 7 -58 -27 -32
-51 -28 -51 7 0 28 8 61 15 61 2 0 15 -4 29 -10z m150 -131 c20 -17 39 -28 44
-25 16 10 82 -60 82 -86 0 -14 -3 -28 -7 -32 -4 -3 -8 -13 -9 -20 -8 -54 -30
-68 -72 -47 -40 21 -69 30 -102 35 -19 3 -55 12 -79 21 -24 8 -54 13 -65 10
-12 -3 -38 -11 -58 -17 -30 -9 -47 -8 -78 2 -29 10 -46 10 -63 3 -27 -13 -107
-37 -125 -38 -7 0 -16 -5 -20 -10 -4 -6 -17 -15 -28 -22 -34 -19 -98 31 -110
84 -2 12 32 49 97 103 52 43 86 40 169 -15 37 -25 73 -52 80 -60 25 -30 66
-18 137 42 37 32 70 60 73 63 15 18 57 40 77 40 12 0 38 -14 57 -31z m-116
-225 c28 -4 52 -10 52 -15 0 -4 -17 -21 -37 -38 -32 -26 -43 -30 -72 -25 -38
7 -91 8 -161 1 -26 -3 -51 0 -59 7 -11 8 -15 8 -18 -1 -7 -20 -18 -16 -52 19
-17 18 -27 36 -22 41 4 4 39 11 77 13 38 3 71 8 74 11 6 6 135 -2 218 -13z
m-312 -170 c43 -39 46 -39 105 -19 30 11 57 14 84 9 62 -12 95 -7 120 16 20
18 31 21 75 16 58 -7 70 -12 70 -30 0 -7 7 -26 15 -43 12 -24 13 -37 4 -62 -7
-20 -16 -30 -24 -27 -8 2 -16 -2 -19 -10 -3 -8 -15 -14 -26 -14 -11 0 -20 -4
-20 -8 0 -19 -44 -28 -86 -19 -39 9 -42 12 -38 36 5 25 4 26 -43 26 -42 0 -48
-3 -45 -20 2 -16 1 -17 -7 -6 -14 21 -79 23 -86 2 -5 -16 -25 -20 -105 -20
-28 0 -49 5 -56 14 -6 8 -18 15 -27 15 -24 0 -57 49 -57 85 0 37 24 91 47 104
23 13 76 -7 119 -45z"/>
</g>
</svg>
