<?xml version="1.0" standalone="no"?>
<!DOCTYPE svg PUBLIC "-//W3C//DTD SVG 20010904//EN"
 "http://www.w3.org/TR/2001/REC-SVG-20010904/DTD/svg10.dtd">
<svg version="1.0" xmlns="http://www.w3.org/2000/svg"
 width="1500.000000pt" height="1500.000000pt" viewBox="0 0 1500.000000 1500.000000"
 preserveAspectRatio="xMidYMid meet">

<g transform="translate(0.000000,1500.000000) scale(0.100000,-0.100000)"
fill="#000000" stroke="none">
<path d="M0 7500 l0 -7500 7500 0 7500 0 0 7500 0 7500 -7500 0 -7500 0 0
-7500z m12340 0 l0 -4840 -4840 0 -4840 0 0 4840 0 4840 4840 0 4840 0 0
-4840z"/>
<path d="M7200 8610 c-14 -4 -37 -5 -51 -3 -19 4 -34 -2 -48 -16 -12 -12 -28
-21 -36 -21 -42 0 -99 -27 -123 -58 -22 -29 -24 -37 -13 -54 11 -18 9 -24 -14
-48 -25 -27 -26 -29 -11 -52 20 -30 109 -77 162 -85 21 -3 48 -14 59 -23 11
-10 35 -25 53 -34 31 -16 34 -22 34 -66 0 -56 -2 -61 -24 -60 -97 8 -133 -18
-125 -90 4 -39 13 -52 61 -97 31 -29 56 -55 56 -59 0 -11 -74 37 -88 57 -9 13
-20 18 -33 14 -10 -4 -19 -2 -19 4 0 5 -17 15 -37 21 -34 9 -40 8 -56 -12 -10
-12 -28 -22 -39 -23 -27 -2 -59 -44 -55 -72 3 -13 -1 -23 -8 -23 -6 0 -22 -11
-35 -25 -21 -23 -23 -29 -13 -71 8 -36 8 -52 -3 -73 -18 -33 -18 -71 0 -96 7
-11 12 -36 11 -55 -2 -19 0 -53 4 -75 5 -31 12 -40 31 -45 15 -4 26 -14 26
-25 1 -11 2 -28 3 -38 1 -10 16 -27 35 -38 19 -11 36 -28 39 -38 5 -21 109
-101 131 -101 8 0 32 -11 52 -25 42 -29 50 -30 84 -10 36 20 38 19 46 -22 7
-43 28 -71 62 -84 12 -5 22 -17 22 -28 0 -11 14 -31 32 -46 24 -20 39 -26 62
-22 59 10 91 20 115 36 l23 15 -31 28 c-17 15 -42 28 -56 28 -26 0 -30 7 -17
27 5 8 13 8 31 -1 20 -11 32 -10 74 5 62 23 68 28 61 56 -5 19 -14 22 -62 25
-43 2 -58 7 -60 19 -2 13 8 18 47 23 37 5 53 13 65 31 34 52 9 83 -46 54 -25
-14 -31 -8 -22 25 5 21 9 24 25 15 24 -12 52 2 75 37 20 30 31 22 36 -26 2
-26 8 -35 20 -34 10 1 23 -12 33 -32 20 -43 46 -57 115 -61 150 -8 187 -22
256 -95 46 -48 63 -59 92 -61 48 -3 50 15 4 41 -29 16 -42 32 -52 64 -8 24
-22 57 -31 75 -10 17 -23 49 -28 70 -17 60 -78 129 -129 144 -43 12 -43 12
-76 -23 -20 -21 -46 -37 -65 -40 -17 -2 -31 -3 -31 -1 0 2 5 24 11 49 9 34 23
54 60 85 54 45 65 74 24 67 -23 -5 -25 -2 -25 29 0 21 5 33 13 32 28 -4 46 3
90 32 51 34 54 40 32 63 -17 17 -20 42 -4 51 5 4 14 17 20 28 5 12 16 32 24
43 14 19 14 23 1 37 -9 8 -18 35 -21 59 -7 46 -34 119 -49 129 -5 4 -6 18 -2
32 4 16 1 29 -9 37 -12 10 -20 7 -42 -19 -31 -35 -38 -37 -80 -16 -21 10 -38
31 -52 65 -11 27 -21 53 -21 59 0 23 -28 9 -56 -29 -16 -22 -37 -40 -48 -40
-14 0 -17 -5 -12 -25 6 -23 4 -25 -19 -19 -38 9 -57 -11 -49 -53 5 -26 2 -37
-10 -46 -16 -12 -16 -14 2 -38 21 -25 32 -95 19 -116 -4 -6 2 -34 12 -61 l20
-50 -37 -4 c-42 -6 -56 3 -143 88 -31 30 -62 69 -69 87 -6 17 -15 39 -20 48
-11 21 6 39 37 39 12 0 27 9 34 21 14 27 3 39 -70 76 -56 29 -67 48 -50 87 9
19 18 21 87 20 75 -1 134 18 153 49 4 5 31 12 60 14 62 5 113 30 117 59 2 11
-8 30 -23 44 -29 27 -32 40 -9 40 42 0 -22 109 -73 124 -11 4 -28 17 -37 30
-23 37 -105 59 -221 62 -55 1 -109 4 -120 7 -11 2 -31 1 -45 -3z m79 -46 c5
-5 11 -20 13 -34 3 -23 0 -25 -41 -25 -27 -1 -52 6 -66 17 -13 10 -28 18 -33
18 -13 0 -25 17 -19 28 7 10 136 7 146 -4z m225 -21 c33 -15 42 -39 11 -26 -9
3 -27 -2 -41 -12 -20 -13 -32 -14 -55 -6 -16 5 -38 8 -49 6 -24 -5 -51 20 -44
40 11 28 117 28 178 -2z m-361 -38 c37 -15 37 -15 20 -41 -14 -21 -22 -25 -47
-20 -17 4 -56 9 -86 13 -69 7 -91 30 -47 50 35 16 120 15 160 -2z m485 -45
c25 -24 28 -40 8 -40 -8 0 -16 -4 -18 -9 -4 -14 -90 10 -105 29 -19 23 -16 28
20 33 65 8 74 7 95 -13z m-175 -23 c34 -22 34 -28 -6 -48 -29 -14 -41 -15 -94
-4 -34 7 -82 10 -108 8 -37 -5 -48 -2 -60 13 -12 17 -10 21 18 36 45 24 211
21 250 -5z m-309 -60 c17 -27 -20 -57 -71 -57 -40 0 -115 28 -127 48 -7 11 23
54 33 48 4 -3 21 -2 37 3 33 9 113 -17 128 -42z m450 -12 c20 -8 36 -13 36 -9
0 3 14 -4 30 -16 17 -12 30 -25 30 -29 0 -4 -25 -14 -56 -21 -53 -13 -58 -12
-100 11 -25 13 -52 32 -61 41 -14 16 -13 18 13 23 16 4 34 8 39 10 20 7 33 5
69 -10z m-174 -48 c30 -14 63 -34 73 -45 18 -20 18 -21 -14 -38 -54 -28 -268
-6 -310 32 -19 17 -19 18 0 35 28 26 110 49 156 44 22 -2 65 -15 95 -28z
m-151 -169 c-1 -24 0 -49 2 -57 2 -9 -4 -17 -15 -19 -16 -3 -18 0 -13 19 4 13
7 41 7 62 0 20 5 37 10 37 6 0 10 -18 9 -42z m511 -70 c0 -9 5 -20 10 -23 16
-10 12 -35 -6 -35 -8 0 -29 13 -45 29 -29 29 -29 30 -11 60 l17 31 17 -23 c10
-12 18 -30 18 -39z m-589 -37 c20 -16 21 -21 10 -35 -8 -9 -12 -32 -9 -56 2
-22 1 -40 -3 -40 -3 0 -24 17 -47 38 -40 37 -49 61 -36 96 8 22 57 20 85 -3z
m469 0 c0 -5 -9 -19 -20 -32 -14 -17 -20 -20 -20 -9 -1 8 -3 23 -5 33 -2 12 3
17 21 17 13 0 24 -4 24 -9z m261 -34 c-8 -8 -14 -7 -23 2 -11 10 -9 15 7 27
18 13 20 13 23 -2 2 -9 -1 -21 -7 -27z m-563 18 c3 -3 -5 -13 -19 -22 -13 -9
-41 -34 -61 -56 -39 -41 -58 -42 -58 -2 0 38 19 71 48 82 27 11 78 10 90 -2z
m342 -29 c0 -27 -17 -43 -30 -30 -10 11 6 54 20 54 5 0 10 -11 10 -24z m95 -6
c6 0 -7 -8 -28 -17 -40 -16 -53 -13 -44 11 4 10 16 13 34 11 15 -2 33 -4 38
-5z m90 -20 c10 -11 21 -17 26 -15 14 9 19 -12 6 -27 -14 -18 -64 -32 -70 -21
-2 5 -7 25 -11 46 -6 32 -4 37 12 37 10 0 27 -9 37 -20z m110 -92 c5 -55 4
-58 -31 -92 -21 -20 -44 -36 -51 -36 -8 0 -28 -9 -44 -21 -31 -22 -55 -20 -66
6 -10 29 15 64 82 112 36 25 70 59 77 74 17 38 27 25 33 -43z m-983 -8 c19
-36 25 -140 9 -140 -12 0 -53 98 -59 143 -4 34 -3 39 14 35 10 -1 27 -19 36
-38z m325 -17 c3 -13 13 -23 23 -23 16 0 141 -127 163 -165 17 -30 -7 -13 -93
68 -89 82 -130 135 -130 164 1 17 2 16 16 -2 8 -11 17 -30 21 -42z m428 37
c22 -11 48 -19 58 -20 24 0 21 -14 -6 -29 -29 -16 -62 -3 -101 38 -26 27 -27
31 -10 31 10 -1 37 -9 59 -20z m-825 -86 c5 -21 10 -48 10 -59 0 -18 -2 -18
-21 5 -29 36 -41 71 -34 99 6 22 8 23 21 9 9 -8 20 -33 24 -54z m801 17 c35
-20 36 -21 25 -55 -13 -44 -29 -43 -73 5 -23 26 -33 46 -33 69 0 32 0 32 23
16 12 -9 38 -25 58 -35z m-463 14 c7 -14 40 -51 74 -83 137 -126 138 -128 131
-164 -3 -18 -7 -34 -8 -36 -1 -1 -19 5 -39 13 -28 12 -42 27 -57 59 -10 24
-26 49 -34 56 -8 7 -15 17 -15 22 0 13 -71 88 -84 88 -13 0 -46 31 -46 42 0 5
8 7 19 3 12 -3 21 0 25 10 8 22 21 18 34 -10z m-188 -17 c0 -18 3 -58 7 -88 6
-51 5 -54 -10 -41 -13 10 -17 31 -17 87 0 43 4 74 10 74 6 0 10 -15 10 -32z
m84 -52 c5 -22 -17 -96 -29 -96 -3 0 -5 27 -5 60 0 45 4 60 14 60 8 0 17 -11
20 -24z m-261 -50 c29 -47 33 -61 17 -71 -20 -12 -100 53 -100 81 0 13 27 33
45 34 6 0 22 -20 38 -44z m760 30 c4 -10 1 -13 -9 -9 -7 3 -14 9 -14 14 0 14
17 10 23 -5z m-388 -54 c4 -11 -12 -34 -56 -75 -41 -39 -58 -62 -50 -67 7 -4
11 -13 9 -21 -3 -15 16 -16 128 -3 53 5 62 4 68 -11 3 -10 5 -19 4 -21 -2 -1
-30 -4 -63 -5 -80 -2 -145 -18 -145 -35 0 -8 5 -14 11 -14 8 0 8 -5 -1 -15 -7
-8 -10 -25 -6 -38 5 -20 2 -23 -22 -22 -16 0 -26 -5 -24 -12 4 -21 -15 -14
-21 7 -4 14 -14 20 -35 20 -37 0 -105 49 -120 86 -25 64 -20 104 20 165 14 20
25 24 50 22 18 -2 50 -4 71 -5 26 0 37 -5 33 -13 -4 -12 12 -35 25 -35 3 0 9
18 13 39 3 22 18 53 32 70 24 29 27 30 49 15 13 -8 26 -23 30 -32z m655 14
c-20 -19 -60 -30 -60 -17 0 13 30 30 55 31 17 0 17 -2 5 -14z m-137 -22 c34
-18 48 -34 41 -46 -6 -9 -35 2 -94 36 l-45 26 33 0 c18 0 47 -7 65 -16z m-103
-28 c30 -9 46 -20 49 -32 2 -10 12 -30 22 -43 11 -13 19 -36 19 -50 0 -26 -32
-96 -52 -116 -8 -7 -9 -6 -5 1 9 16 -48 130 -68 138 -9 3 -15 11 -14 18 4 31
-2 48 -16 48 -9 0 -19 8 -22 18 -4 9 -11 20 -17 24 -18 13 56 8 104 -6z m-780
-71 c0 -16 -22 -35 -41 -35 -9 0 -28 9 -43 21 -25 19 -25 22 -11 49 l15 29 40
-26 c22 -15 40 -32 40 -38z m420 41 c0 -8 -5 -18 -10 -21 -8 -5 -7 -11 0 -20
9 -11 7 -15 -12 -19 -41 -9 -98 -12 -98 -6 0 12 55 59 80 69 35 14 40 13 40
-3z m200 -57 c0 -6 -4 -7 -10 -4 -5 3 -10 11 -10 16 0 6 5 7 10 4 6 -3 10 -11
10 -16z m-92 -45 c18 -8 32 -17 32 -19 0 -9 -45 6 -59 20 -19 19 -12 19 27 -1z
m-560 -11 c13 -3 28 -17 33 -31 8 -20 5 -29 -12 -49 -13 -12 -28 -23 -35 -23
-19 0 -34 33 -34 74 0 37 6 41 48 29z m697 -23 c3 -5 1 -10 -4 -10 -6 0 -11 5
-11 10 0 6 2 10 4 10 3 0 8 -4 11 -10z m-60 -20 c3 -6 -1 -7 -9 -4 -18 7 -21
14 -7 14 6 0 13 -4 16 -10z m165 -36 c7 -19 10 -38 7 -41 -6 -5 -37 62 -37 79
0 20 19 -4 30 -38z m-234 -1 c10 -16 28 -38 42 -49 40 -36 21 -49 -21 -15 -24
18 -45 27 -54 24 -13 -5 -15 -2 -10 11 4 10 7 26 7 37 0 27 17 23 36 -8z m-86
-1 c0 -13 -12 -22 -22 -16 -10 6 -1 24 13 24 5 0 9 -4 9 -8z m-50 -12 c0 -5
-2 -10 -4 -10 -3 0 -8 5 -11 10 -3 6 -1 10 4 10 6 0 11 -4 11 -10z m330 -11
c0 -6 -7 -17 -15 -25 -8 -9 -15 -12 -15 -8 0 5 -5 3 -12 -4 -18 -18 -28 -15
-28 8 0 15 7 20 25 20 14 0 25 5 25 10 0 6 5 10 10 10 6 0 10 -5 10 -11z
m-705 -68 c-17 -34 -30 -39 -39 -15 -10 26 4 64 25 64 10 0 20 6 20 13 1 6 4
2 6 -10 2 -12 -3 -35 -12 -52z m407 20 c11 -1 15 -6 12 -15 -6 -15 -68 -16
-82 -2 -9 10 17 25 37 21 9 -2 24 -4 33 -4z m68 -3 c0 -28 22 -88 37 -103 18
-19 21 -61 4 -78 -17 -17 -79 58 -76 93 5 51 17 100 26 100 5 0 9 -6 9 -12z
m594 -30 c33 -27 74 -93 64 -104 -2 -1 -24 17 -48 41 -31 30 -57 47 -82 51
-40 7 -45 13 -26 32 20 20 52 13 92 -20z m-389 2 c-10 -11 -23 -20 -28 -20 -6
0 -2 9 8 20 10 11 23 20 28 20 6 0 2 -9 -8 -20z m-507 -2 c5 -7 13 -29 17 -48
4 -19 22 -57 41 -85 31 -47 32 -50 14 -59 -10 -5 -25 -6 -33 -3 -20 8 -77 130
-77 165 0 41 17 55 38 30z m635 -11 c4 3 7 2 7 -3 -1 -13 -30 -49 -31 -38 -7
47 -6 54 6 44 6 -5 15 -7 18 -3z m-749 -59 c8 -53 3 -59 -25 -25 -21 25 -24
58 -7 75 17 17 25 5 32 -50z m51 20 c14 -81 16 -110 7 -104 -6 3 -13 18 -16
33 -18 75 -23 103 -18 108 13 12 20 2 27 -37z m157 -4 c50 -53 63 -77 55 -98
-11 -29 -37 -4 -72 66 -48 97 -47 101 17 32z m278 25 c0 -5 -4 -9 -10 -9 -5 0
-10 7 -10 16 0 8 5 12 10 9 6 -3 10 -10 10 -16z m-190 1 c0 -5 6 -10 14 -10
20 0 31 -19 17 -33 -7 -7 -12 -6 -17 7 -3 9 -18 23 -33 31 -25 14 -25 14 -3
15 12 0 22 -4 22 -10z m604 -12 c22 -6 47 -16 55 -22 7 -5 20 -11 28 -12 16
-3 35 -22 71 -73 l24 -32 -32 16 c-17 9 -70 23 -118 31 -121 20 -129 22 -146
40 -24 23 -19 41 12 52 37 14 58 14 106 0z m-564 -112 c6 -18 27 -52 46 -75
44 -51 25 -54 -26 -3 -26 26 -39 48 -42 75 -5 46 7 48 22 3z m250 20 c0 -7
-50 -13 -55 -7 -2 4 10 8 26 9 16 1 29 1 29 -2z m-176 -41 c14 -14 20 -27 15
-31 -13 -7 -49 24 -49 43 0 18 6 17 34 -12z m-84 -83 c33 -49 34 -52 17 -52
-25 0 -55 33 -62 67 -9 43 11 36 45 -15z m250 -4 c0 -11 -47 -21 -59 -13 -21
13 -10 22 24 21 19 0 35 -4 35 -8z m-106 -104 c23 -9 20 -19 -9 -32 -35 -16
-60 -15 -76 4 -10 13 -10 17 2 25 16 10 60 12 83 3z"/>
<path d="M7700 7133 c-59 -41 -59 -64 3 -80 23 -7 51 -19 62 -27 19 -14 18
-15 -15 -6 -75 21 -150 1 -150 -39 0 -9 -5 -22 -11 -28 -18 -18 -2 -62 24 -68
13 -4 35 -1 51 4 30 12 76 14 100 5 12 -5 8 -16 -24 -58 -49 -65 -52 -99 -10
-121 16 -8 42 -15 58 -15 16 0 41 -9 55 -21 26 -20 27 -20 51 -2 18 13 27 31
31 63 4 25 7 52 9 60 3 21 36 -43 36 -70 0 -11 11 -32 25 -46 28 -27 64 -25
100 6 11 10 31 21 45 25 34 10 40 23 28 56 -9 27 -63 82 -103 105 -18 10 -18
11 2 16 11 3 42 -5 69 -18 49 -23 49 -23 68 -4 20 19 20 20 -2 49 -12 17 -22
34 -22 39 0 31 -116 61 -163 43 -22 -9 -27 -8 -27 4 0 9 11 20 25 25 32 12 33
44 2 64 -12 9 -42 22 -67 31 -42 15 -46 15 -72 -5 -34 -25 -36 -25 -57 1 -23
29 -87 35 -121 12z m45 -33 c3 -5 12 -7 20 -4 18 7 67 -29 89 -67 23 -39 1
-40 -36 -1 -14 16 -45 34 -67 42 -40 13 -48 20 -34 33 9 10 21 9 28 -3z m232
-36 c4 -13 -30 -54 -46 -54 -6 0 -11 13 -11 29 0 16 -3 37 -6 46 -6 14 -3 15
27 3 18 -8 34 -19 36 -24z m-244 -78 c11 11 66 -27 67 -47 0 -3 -24 -4 -54 -1
-30 2 -69 -1 -87 -7 -41 -14 -44 -10 -25 27 16 32 48 44 77 30 9 -4 19 -5 22
-2z m232 -61 c0 -26 -50 -29 -95 -7 -41 20 -41 33 3 48 26 10 37 9 62 -5 17
-10 30 -25 30 -36z m149 35 c14 -5 26 -16 26 -23 0 -11 -16 -14 -67 -12 -43 2
-68 7 -67 14 1 6 2 16 3 21 1 13 72 13 105 0z m-228 -119 c10 -23 13 -49 8
-74 -6 -36 -8 -38 -33 -31 -14 4 -46 8 -70 9 -25 0 -46 6 -48 12 -6 16 12 48
53 93 42 46 68 44 90 -9z m148 13 c21 -8 54 -32 72 -52 34 -37 45 -68 22 -59
-7 2 -22 -4 -33 -14 -11 -9 -32 -21 -47 -24 -25 -6 -27 -4 -34 30 -3 20 -22
57 -40 81 -19 24 -34 45 -34 47 0 9 62 3 94 -9z"/>
</g>
</svg>
