<?xml version="1.0" standalone="no"?>
<!DOCTYPE svg PUBLIC "-//W3C//DTD SVG 20010904//EN"
 "http://www.w3.org/TR/2001/REC-SVG-20010904/DTD/svg10.dtd">
<svg version="1.0" xmlns="http://www.w3.org/2000/svg"
 width="1500.000000pt" height="1500.000000pt" viewBox="0 0 1500.000000 1500.000000"
 preserveAspectRatio="xMidYMid meet">

<g transform="translate(0.000000,1500.000000) scale(0.100000,-0.100000)"
fill="#000000" stroke="none">
<path d="M0 7500 l0 -7500 7500 0 7500 0 0 7500 0 7500 -7500 0 -7500 0 0
-7500z m12340 0 l0 -4840 -3345 0 c-1840 0 -3345 2 -3345 6 0 3 11 22 25 42
22 32 25 48 25 119 l0 82 27 -2 c24 -2 28 3 40 46 8 26 18 47 23 47 5 0 17
-15 26 -32 9 -18 23 -41 32 -51 9 -10 17 -27 19 -38 7 -43 33 -80 56 -77 17 2
21 9 20 28 -1 14 -5 72 -8 130 -2 58 -9 116 -14 130 -8 22 -12 45 -25 167 -2
17 -12 46 -21 65 -10 18 -21 40 -25 48 -4 8 -18 21 -31 27 -33 18 -49 -6 -44
-63 5 -50 -5 -56 -30 -16 -9 15 -30 41 -46 57 -16 17 -43 47 -60 68 -17 20
-37 37 -45 37 -8 0 -14 5 -14 10 0 6 -9 10 -20 10 -19 0 -20 -5 -15 -49 4 -35
1 -52 -9 -60 -19 -16 -72 -32 -124 -37 -36 -4 -47 0 -62 18 -11 13 -19 29 -20
36 0 15 -40 16 -40 1 0 -6 8 -25 18 -42 9 -18 18 -34 19 -36 1 -2 42 -5 90 -7
74 -3 98 -9 149 -35 53 -26 72 -30 150 -32 l89 -2 10 33 c9 31 31 45 32 20 1
-7 11 -39 22 -70 24 -66 28 -129 13 -208 -5 -30 -8 -65 -6 -77 3 -18 0 -23
-16 -23 -12 0 -19 4 -16 9 7 10 -63 131 -76 131 -5 0 -6 5 -2 11 3 6 3 14 -2
18 -5 3 -15 18 -21 33 -8 16 -23 30 -40 34 -15 4 -36 15 -47 25 -34 33 -112
52 -158 41 -22 -6 -47 -8 -55 -5 -18 7 -33 -13 -33 -45 0 -22 56 -85 111 -125
65 -47 72 -55 75 -85 3 -27 1 -32 -18 -32 -11 0 -36 12 -55 26 -19 15 -41 23
-50 20 -11 -4 -14 -2 -10 9 7 16 -41 55 -67 55 -9 0 -16 5 -16 10 0 6 -7 10
-15 10 -8 0 -15 4 -15 9 0 5 -10 13 -22 17 -13 3 -30 12 -38 19 -9 8 -31 12
-55 9 -105 -10 -235 -14 -235 -6 0 4 14 18 31 31 30 22 30 23 26 99 -3 66 -8
85 -37 132 -19 30 -45 66 -57 80 -13 14 -23 28 -23 32 0 5 -6 8 -12 8 -7 1
-29 22 -48 47 -19 26 -45 57 -57 70 -13 13 -23 26 -23 29 0 7 -120 118 -149
136 -34 22 -67 47 -93 70 -17 14 -19 21 -10 30 7 7 12 22 12 34 0 31 21 45 56
35 19 -5 30 -15 32 -29 2 -12 9 -22 15 -22 31 1 35 17 36 140 1 69 2 148 3
175 3 69 -12 183 -28 222 -8 18 -25 38 -39 45 l-25 14 32 39 c24 28 32 47 29
68 -1 17 2 39 7 51 6 12 34 69 62 129 28 59 58 107 65 107 8 0 23 14 35 31 12
16 36 45 52 62 16 18 36 46 45 62 38 74 85 87 125 35 13 -17 34 -45 48 -62 21
-26 26 -46 30 -115 3 -45 2 -97 -3 -115 -4 -18 -12 -58 -17 -88 -13 -66 -29
-110 -41 -110 -5 0 -9 -15 -9 -33 0 -19 -7 -47 -15 -64 -8 -16 -17 -47 -20
-68 -6 -52 -45 -208 -55 -220 -4 -5 -11 -26 -14 -45 -12 -58 -59 -174 -75
-184 -5 -3 -9 -23 -8 -43 0 -47 25 -83 132 -190 46 -45 81 -84 79 -86 -11 -10
40 -99 64 -112 40 -22 66 -47 79 -78 7 -15 17 -27 23 -27 5 0 10 -8 10 -17 0
-12 3 -14 11 -6 12 12 -46 103 -110 172 -23 24 -41 48 -41 53 0 5 -14 23 -30
41 -17 18 -58 65 -90 105 -61 74 -73 109 -51 150 5 9 12 49 16 87 3 39 13 84
20 100 7 17 17 46 21 65 8 42 51 173 70 215 20 46 62 180 69 222 4 21 13 56
20 78 8 22 18 100 22 173 7 116 6 136 -9 165 -10 17 -20 40 -24 49 -3 10 -14
18 -23 18 -10 0 -30 13 -46 29 -15 17 -37 31 -48 33 -31 5 -31 23 1 59 25 28
36 33 67 31 34 -3 44 3 100 58 35 33 68 60 74 60 5 0 36 22 69 49 61 51 280
164 342 176 19 4 40 12 47 17 28 23 18 -15 -27 -92 -112 -196 -119 -221 -106
-378 3 -34 -14 -62 -38 -62 -31 0 -106 -109 -124 -180 -11 -43 -10 -47 24 -97
20 -28 46 -59 60 -68 29 -19 30 -34 5 -77 -40 -71 -72 -111 -104 -128 -33 -18
-34 -18 -50 1 -9 10 -20 37 -23 59 -7 44 -7 44 -35 30 -11 -7 -19 -21 -19 -38
0 -15 -7 -54 -16 -87 -27 -110 -27 -118 1 -150 26 -31 122 -190 179 -297 14
-27 27 -38 53 -43 18 -3 38 -3 44 1 13 8 5 56 -21 134 -10 30 -28 85 -40 122
-12 36 -20 79 -18 95 3 25 8 28 41 31 39 3 42 -1 37 -57 -1 -14 10 -36 28 -55
16 -17 58 -74 94 -126 104 -153 142 -200 161 -200 29 0 42 60 17 80 -5 4 -29
75 -36 105 -1 6 -14 45 -28 88 -14 43 -28 86 -29 95 -2 9 -9 36 -16 59 -9 32
-9 48 0 64 11 21 11 21 30 -10 12 -19 24 -29 33 -25 23 9 42 -7 84 -72 38 -59
57 -103 66 -154 6 -36 46 -102 60 -97 22 7 18 82 -19 337 -3 19 -8 63 -12 98
-5 58 -9 65 -42 89 -64 47 -65 51 -21 94 92 89 107 192 46 323 -18 41 -31 78
-27 83 4 4 18 33 30 63 42 102 61 123 132 143 35 11 98 32 139 48 91 34 102
37 210 44 138 10 144 11 167 23 12 7 28 12 36 12 8 0 74 -49 147 -110 72 -60
137 -110 144 -110 7 0 29 -11 49 -24 19 -13 70 -36 114 -51 43 -15 83 -31 88
-35 40 -31 245 -53 497 -53 l156 1 -13 -39 c-12 -33 -38 -88 -67 -139 -30 -55
-32 -61 -17 -75 24 -24 54 -6 103 61 69 94 94 108 179 105 39 -1 78 -7 87 -14
16 -11 14 -16 -22 -58 l-40 -45 -4 -139 c-2 -77 -6 -151 -9 -165 -16 -80 -16
-86 0 -100 26 -22 45 -2 76 80 26 72 95 214 121 253 28 41 84 97 97 97 10 0
12 -12 7 -54 -7 -51 12 -147 43 -221 13 -31 41 -126 41 -140 0 -16 45 -36 57
-24 5 5 6 32 3 61 -3 29 1 80 7 113 7 33 13 78 13 99 0 24 6 43 16 51 15 10
14 15 -5 51 -20 36 -20 40 -4 51 9 7 25 13 34 13 10 0 30 18 46 39 l29 39 34
-19 c66 -35 143 -21 174 32 14 24 24 29 56 29 21 0 42 -4 45 -10 3 -5 36 -10
72 -10 68 0 121 23 180 78 22 21 28 21 81 12 112 -21 151 -12 196 43 32 39 38
42 74 39 86 -8 146 28 195 118 13 24 22 30 35 25 30 -13 76 -13 115 -1 31 9
93 51 182 124 6 4 24 14 42 21 17 7 39 21 49 32 9 10 26 19 36 19 11 0 31 9
45 20 14 11 32 20 39 20 8 0 23 9 33 19 11 11 42 35 68 53 172 119 317 237
386 312 70 77 276 322 353 421 30 38 123 223 139 275 4 14 13 35 21 47 8 12
23 48 35 80 11 32 29 76 39 98 9 22 23 58 29 80 7 22 16 49 21 60 20 43 52
152 56 183 1 18 5 36 8 41 14 23 44 287 44 381 -1 58 2 186 6 285 8 190 5 212
-44 400 -24 95 -68 233 -81 258 -5 10 -8 21 -5 25 7 13 -14 134 -30 168 -10
20 -24 34 -34 34 -10 0 -49 35 -86 77 -38 42 -84 92 -103 111 l-33 34 6 126
c8 137 -3 204 -46 293 -25 53 -82 122 -103 125 -24 4 -30 -16 -30 -96 0 -73
-1 -75 -25 -76 -14 0 -37 10 -52 24 -14 13 -31 21 -36 18 -5 -3 -29 20 -53 52
-24 31 -46 59 -49 62 -8 8 -64 82 -88 116 l-21 31 24 97 c34 139 30 153 -71
249 -45 43 -106 95 -135 115 -30 20 -64 47 -77 60 -18 17 -27 20 -41 12 -32
-16 -31 -64 1 -111 51 -77 48 -121 -8 -127 -16 -1 -39 -8 -50 -13 -17 -9 -34
-6 -80 14 -82 35 -95 40 -127 44 -15 2 -49 15 -75 28 -26 12 -63 26 -82 29
-19 4 -63 14 -97 24 -52 14 -64 21 -77 49 -12 25 -23 33 -53 39 -48 9 -53 16
-53 85 0 90 -24 111 -165 145 -38 9 -77 22 -87 27 -19 13 -17 53 8 125 10 31
13 62 9 97 -8 64 -10 66 -61 89 -41 18 -42 18 -90 -3 -64 -29 -81 -45 -114
-111 -22 -44 -29 -74 -34 -155 -3 -55 -9 -123 -13 -152 l-6 -51 -46 -7 c-25
-4 -71 -9 -101 -11 -52 -3 -86 -10 -256 -49 -84 -20 -101 -14 -138 50 -50 84
-61 89 -204 89 -129 1 -232 -15 -253 -40 -16 -19 7 -54 35 -54 46 0 67 -52 35
-86 -11 -12 -23 -34 -28 -50 -6 -26 -15 -31 -87 -50 -89 -23 -91 -23 -195 -69
-42 -19 -87 -36 -100 -39 -13 -2 -46 -12 -72 -21 -45 -15 -50 -15 -80 1 -75
40 -130 66 -150 71 -12 2 -32 7 -44 10 -22 5 -153 -33 -153 -45 0 -4 -15 -14
-32 -21 -40 -18 -135 -106 -154 -142 -19 -39 -1 -52 52 -38 21 6 44 14 49 18
23 16 75 -3 75 -28 0 -33 -50 -108 -118 -177 -42 -43 -43 -44 -71 -29 -43 22
-179 164 -234 244 -24 36 -68 61 -107 61 -79 0 -81 -53 -5 -147 58 -73 112
-169 119 -215 1 -9 7 -22 13 -29 5 -8 13 -26 17 -42 12 -52 -75 -107 -114 -72
-11 10 -37 18 -57 19 -37 1 -38 0 -36 -32 1 -30 0 -32 -15 -19 -61 52 -77 63
-105 74 -51 19 -79 15 -126 -17 -30 -19 -49 -26 -56 -20 -7 6 -20 38 -30 72
-38 134 -71 211 -101 242 -17 17 -43 50 -59 73 -24 38 -28 53 -31 150 -5 115
-8 128 -61 239 -18 39 -33 76 -33 83 0 6 -9 37 -19 68 -17 51 -31 116 -36 164
0 9 -14 54 -30 100 -28 82 -30 85 -78 109 -28 14 -53 25 -56 25 -3 0 -12 4
-18 8 -20 13 -112 5 -135 -11 -17 -13 -20 -22 -15 -62 15 -123 74 -278 139
-362 29 -37 73 -155 84 -228 10 -61 -12 -87 -79 -95 -43 -6 -62 -3 -93 13 -45
23 -134 114 -134 136 0 9 -9 20 -21 27 -29 15 -179 12 -196 -5 -11 -10 -11
-95 -1 -129 13 -43 117 -146 179 -178 21 -10 43 -24 51 -31 21 -20 94 -53 183
-84 65 -22 91 -38 140 -84 33 -31 87 -78 119 -105 66 -55 92 -102 102 -186 6
-51 4 -57 -27 -99 -53 -69 -110 -93 -231 -96 -77 -2 -111 1 -147 15 -70 27
-130 2 -131 -55 0 -37 37 -107 77 -146 55 -52 116 -59 216 -23 41 14 90 28
108 30 19 3 46 7 62 11 26 5 40 -10 15 -18 -25 -9 10 -57 59 -82 60 -30 101
-93 83 -126 -9 -17 -18 -20 -43 -17 -60 9 -92 27 -127 72 -38 48 -52 57 -75
49 -9 -4 -13 -14 -9 -28 15 -60 31 -202 24 -210 -5 -5 -38 -1 -77 9 -139 36
-215 29 -286 -27 -52 -42 -117 -131 -117 -163 0 -29 15 -32 56 -10 37 19 98
19 113 1 16 -19 5 -106 -22 -176 -11 -30 -43 -83 -69 -117 -26 -34 -48 -65
-48 -69 0 -3 -16 -25 -35 -48 -19 -24 -35 -46 -35 -50 0 -4 -10 -20 -22 -37
l-22 -30 -107 2 c-87 1 -114 -2 -150 -19 -50 -22 -137 -105 -145 -139 -4 -13
-11 -23 -17 -23 -6 0 -8 -3 -5 -6 4 -3 -3 -25 -13 -50 -11 -24 -17 -49 -14
-54 9 -14 46 -12 78 5 43 22 95 29 112 15 26 -21 18 -83 -16 -139 -34 -53 -39
-57 -55 -41 -7 7 -20 -3 -40 -30 -36 -51 -123 -162 -169 -216 -19 -23 -40 -53
-46 -68 -8 -16 -32 -36 -65 -51 -61 -29 -72 -30 -111 -11 -52 26 -102 37 -138
30 -19 -3 -35 -10 -35 -14 0 -4 -11 -12 -25 -18 -31 -14 -34 -52 -4 -52 19 0
19 -1 -5 -33 -14 -18 -33 -49 -41 -68 -9 -18 -27 -52 -40 -74 -27 -43 -34
-115 -12 -115 7 0 18 9 24 19 7 11 29 25 50 30 51 14 79 -4 85 -56 5 -36 -13
-90 -33 -104 -15 -9 -78 -142 -73 -151 3 -4 1 -8 -4 -8 -10 0 -73 -98 -76
-119 -2 -8 -10 -19 -20 -26 -10 -7 -17 -17 -16 -22 1 -9 -53 -22 -110 -27 -53
-5 -135 -24 -173 -40 -37 -15 -70 -62 -142 -204 -34 -66 -36 -75 -23 -89 14
-13 19 -13 49 3 63 33 121 7 117 -52 -1 -18 4 -39 11 -48 11 -13 8 -21 -17
-53 -16 -21 -39 -66 -51 -101 -12 -35 -42 -103 -66 -151 -25 -49 -45 -92 -45
-95 0 -4 -13 -21 -30 -37 -22 -22 -44 -32 -86 -39 -31 -5 -68 -17 -83 -26 -34
-22 -81 -66 -81 -76 0 -4 -11 -31 -24 -59 -14 -27 -24 -62 -24 -78 1 -15 -11
-57 -26 -93 -14 -37 -26 -71 -26 -76 0 -23 30 -18 56 9 34 36 84 39 113 8 18
-19 18 -24 5 -55 -8 -18 -14 -48 -14 -66 0 -18 -7 -42 -15 -52 -8 -11 -15 -31
-15 -44 0 -29 -68 -238 -87 -268 -7 -12 -16 -38 -18 -59 -9 -67 -36 -157 -55
-184 -20 -28 -41 -163 -29 -183 4 -6 4 -19 0 -27 -4 -9 -6 -119 -5 -246 1
-213 3 -238 28 -338 15 -59 31 -118 35 -131 5 -12 12 -40 16 -62 4 -21 8 -44
9 -51 1 -7 5 -16 9 -19 4 -4 7 -15 7 -24 0 -9 11 -39 25 -66 14 -27 25 -54 25
-60 0 -6 13 -35 28 -66 20 -38 27 -65 24 -87 -3 -23 4 -43 26 -78 17 -27 35
-60 41 -75 l11 -28 -495 0 -495 0 0 4840 0 4840 4840 0 4840 0 0 -4840z
m-3008 3146 c17 -38 -14 -183 -54 -251 -6 -11 -12 -36 -14 -55 -1 -19 -11 -69
-23 -110 -12 -41 -23 -92 -26 -113 -3 -21 -6 -41 -7 -45 -1 -4 2 -23 6 -42 21
-90 78 -136 154 -125 25 4 62 15 82 25 47 25 119 97 126 126 3 13 12 24 20 24
8 0 14 4 14 9 0 21 40 18 61 -6 33 -35 29 -103 -8 -148 -40 -48 -166 -128
-253 -161 -41 -15 -97 -44 -125 -64 -27 -19 -63 -42 -78 -50 -16 -8 -43 -30
-60 -50 -68 -77 -87 -100 -87 -105 0 -2 -20 -26 -45 -52 -27 -28 -50 -63 -56
-87 -12 -43 -14 -169 -4 -186 3 -5 27 -24 52 -41 68 -47 280 -80 317 -50 8 7
19 10 24 7 4 -2 21 6 36 19 34 29 43 26 52 -22 6 -34 4 -39 -32 -70 -21 -18
-44 -33 -51 -33 -6 0 -13 -5 -15 -10 -5 -16 -174 -32 -248 -24 -36 4 -89 15
-118 25 -69 24 -197 27 -238 6 -16 -8 -48 -18 -71 -22 -24 -4 -45 -10 -48 -15
-3 -4 -22 -6 -44 -3 -25 4 -60 -2 -99 -15 -33 -12 -72 -23 -87 -26 -75 -14
-121 -20 -133 -17 -9 1 -12 -5 -10 -16 3 -10 -3 -34 -13 -53 -9 -19 -20 -65
-24 -103 -10 -101 11 -155 100 -252 56 -61 169 -82 330 -60 28 4 61 8 75 10
45 6 75 22 136 74 34 28 64 48 68 44 12 -12 6 -40 -14 -58 -11 -10 -20 -23
-20 -30 0 -17 -49 -59 -99 -84 -26 -13 -68 -23 -105 -26 -33 -2 -68 -6 -76 -9
-16 -6 -177 -2 -336 9 l-90 6 -62 -45 c-64 -47 -109 -60 -136 -37 -8 7 -20 10
-26 6 -5 -3 -13 1 -16 9 -3 9 -12 16 -20 16 -16 0 -13 27 12 95 7 22 13 65 12
95 0 30 2 90 4 134 3 43 2 95 -3 114 -7 34 0 51 23 52 5 0 20 -31 23 -50 0 -3
6 -15 14 -28 9 -18 19 -22 44 -20 43 4 55 33 61 150 6 104 12 139 31 178 73
142 72 226 -1 305 -24 25 -44 49 -44 52 0 12 -124 153 -134 153 -13 0 -69 60
-62 67 2 3 53 -19 113 -48 59 -29 118 -53 131 -53 76 2 78 4 168 91 149 147
194 178 194 138 0 -8 -5 -15 -11 -15 -25 0 -109 -106 -109 -137 0 -15 -24 -62
-56 -109 -58 -85 -63 -102 -52 -180 13 -88 22 -121 43 -170 l22 -51 74 -12
c76 -13 89 -12 174 13 76 22 115 38 168 71 38 24 47 35 47 58 0 15 7 38 15 51
9 13 15 36 15 52 -1 24 15 120 36 224 3 14 5 39 5 55 -1 58 8 72 68 109 64 41
82 69 86 138 3 54 44 235 75 333 5 17 12 68 15 115 3 47 8 108 10 135 3 28 7
76 10 108 6 82 41 140 92 153 73 18 92 16 105 -10z m-3541 -27 c72 -33 76 -39
88 -109 11 -60 40 -176 56 -220 7 -19 23 -69 35 -110 12 -41 28 -82 35 -90 26
-32 48 -127 52 -223 3 -84 8 -105 28 -138 14 -21 25 -42 25 -47 0 -5 12 -19
26 -33 35 -33 75 -102 81 -141 3 -18 12 -51 20 -73 8 -22 20 -56 26 -75 21
-65 79 -165 118 -201 53 -51 117 -78 207 -87 84 -10 119 -4 197 33 50 24 82
60 106 120 6 17 16 39 21 51 12 26 -11 111 -55 204 -17 36 -32 70 -33 77 -5
27 -51 109 -84 147 -38 45 -64 86 -57 92 6 6 67 -17 67 -25 0 -4 17 -25 38
-47 20 -22 49 -56 64 -76 78 -102 175 -173 227 -165 16 3 72 25 123 50 108 52
128 60 128 47 0 -20 -70 -79 -147 -124 -46 -27 -88 -55 -94 -62 -6 -8 -17 -14
-24 -14 -7 0 -23 -14 -36 -31 -13 -18 -35 -42 -48 -55 -20 -20 -23 -33 -22
-81 1 -65 6 -96 21 -133 32 -82 51 -195 45 -265 -6 -67 -5 -74 18 -101 23 -26
27 -27 52 -16 15 7 29 21 32 32 6 22 14 25 29 10 8 -8 8 -23 1 -49 -9 -31 -6
-55 18 -142 28 -100 69 -203 95 -234 11 -13 9 -20 -10 -40 -14 -15 -20 -30
-16 -41 5 -13 4 -14 -7 -6 -19 16 -57 3 -57 -19 0 -28 -12 -24 -72 24 -78 63
-98 74 -158 85 -100 20 -130 22 -173 13 -23 -6 -64 -12 -92 -15 -27 -4 -90
-13 -140 -22 -173 -29 -158 -29 -198 6 -20 17 -50 56 -66 86 -39 72 -25 77 71
30 98 -48 159 -59 271 -51 51 3 107 7 126 9 18 1 45 12 60 25 14 12 42 32 61
44 59 38 80 80 95 194 2 12 8 30 13 39 12 22 -2 73 -34 128 -14 22 -31 55 -39
71 -28 62 -50 67 -313 66 l-237 0 -25 24 c-42 41 -98 55 -176 45 -38 -5 -91
-16 -118 -24 -27 -8 -53 -13 -57 -10 -4 2 -34 -5 -66 -16 -75 -25 -209 -32
-241 -12 -24 16 -54 64 -59 97 -6 34 24 47 66 28 20 -8 47 -16 61 -18 14 -1
35 -5 47 -9 12 -4 63 0 114 8 73 12 102 22 140 48 27 18 49 37 49 41 0 5 9 16
21 26 24 19 43 100 34 146 -19 92 -57 174 -82 175 -6 0 -13 4 -15 9 -1 5 -31
32 -65 60 -34 28 -63 61 -65 73 -4 30 -85 87 -125 87 -46 1 -137 39 -226 93
-43 26 -82 48 -86 48 -5 0 -28 18 -53 40 -50 43 -71 84 -66 125 3 25 6 27 65
30 53 3 63 1 68 -15 5 -16 130 -140 141 -140 2 0 24 -9 48 -21 35 -16 49 -18
65 -10 11 6 33 11 50 11 39 0 91 60 91 107 0 80 -54 247 -99 303 -54 68 -106
197 -117 292 -6 44 -4 49 17 57 13 5 26 10 28 10 3 1 35 -13 72 -30z m3649
-279 c34 -11 70 -20 80 -20 28 0 37 -20 44 -99 5 -59 4 -72 -6 -64 -13 9 -78
29 -166 53 -39 10 -43 14 -37 33 15 47 16 76 6 96 -15 27 -3 27 79 1z m-1030
-75 c26 -6 90 -72 90 -93 0 -5 -10 -12 -22 -15 -13 -2 -50 -12 -83 -21 -97
-26 -145 -30 -145 -12 0 8 4 17 9 20 14 9 2 68 -19 91 -25 26 -25 32 -2 38 22
5 135 0 172 -8z m642 -101 c-2 -10 -7 -23 -12 -29 -8 -11 -26 -103 -35 -180
-6 -49 -27 -132 -47 -187 -5 -14 -29 -39 -51 -55 -42 -28 -80 -68 -83 -87 -1
-6 -9 -28 -18 -48 -9 -21 -20 -94 -26 -174 -8 -106 -16 -148 -32 -181 l-22
-43 -61 0 c-34 0 -83 -6 -109 -14 -41 -13 -48 -12 -59 1 -38 48 -77 83 -101
89 -35 8 -39 3 -40 -48 -2 -72 -22 -55 -36 29 -7 43 -12 86 -12 97 1 10 23 53
50 95 28 42 62 104 77 139 15 34 31 62 35 62 4 0 25 17 48 38 63 58 53 112
-20 112 -33 0 -98 -33 -127 -64 -14 -14 -30 -26 -37 -26 -7 0 -24 -16 -37 -35
-13 -19 -41 -53 -62 -76 -35 -38 -40 -40 -79 -34 -22 4 -77 27 -120 52 -88 50
-140 62 -187 43 -28 -12 -30 -16 -24 -49 7 -38 13 -48 54 -95 25 -28 26 -28 4
-22 -62 19 -71 17 -88 -17 -12 -26 -13 -40 -5 -61 22 -59 16 -66 -51 -65 -72
2 -95 18 -118 80 -9 25 -26 49 -40 55 -12 6 -28 17 -34 23 -14 14 -119 14
-167 0 -39 -12 -68 -48 -55 -69 4 -6 18 -15 31 -20 23 -9 65 -77 92 -150 10
-27 10 -41 1 -65 -19 -47 -59 -85 -90 -85 -24 0 -81 37 -101 65 -10 14 -77 10
-120 -8 -47 -20 -49 -45 -8 -75 43 -32 39 -52 -11 -52 -63 0 -75 12 -93 89
-22 96 -20 116 13 165 27 39 90 96 106 96 4 0 21 10 38 23 18 12 54 32 80 44
54 25 96 70 115 121 10 30 10 38 -4 54 -10 10 -23 18 -31 18 -7 0 -13 5 -13
10 0 6 6 10 14 10 7 0 19 7 27 16 7 9 48 36 91 61 43 25 84 50 91 57 18 18
103 65 124 69 19 4 67 24 148 61 109 51 309 107 480 135 33 6 74 13 90 17 17
3 57 9 90 14 33 4 77 14 98 23 20 9 37 14 37 12 0 -3 12 0 28 7 49 20 284 54
362 52 39 0 45 -3 42 -20z m301 -9 c40 -13 83 -26 97 -27 31 -5 80 -36 80 -53
0 -20 -99 -99 -138 -111 -61 -18 -94 -5 -119 46 -19 37 -22 55 -17 100 7 55
11 70 20 70 3 0 38 -11 77 -25z m1153 -167 c28 -29 59 -58 69 -64 15 -8 18
-22 16 -85 -1 -40 -6 -89 -12 -107 l-11 -33 -60 62 c-33 33 -83 74 -110 91
-45 28 -54 43 -25 43 7 0 22 20 35 45 17 33 22 55 17 83 -5 34 -4 37 12 28 10
-5 41 -33 69 -63z m-628 -8 c20 -1 55 -8 77 -16 22 -8 59 -17 82 -19 38 -5 89
-23 168 -60 17 -7 53 -23 80 -35 57 -25 166 -103 211 -152 17 -18 68 -82 114
-143 46 -60 98 -126 117 -145 47 -50 113 -137 113 -151 0 -6 6 -9 13 -6 12 4
41 -31 57 -70 5 -13 14 -23 19 -23 5 0 29 -30 54 -67 25 -38 52 -77 61 -88 36
-45 66 -92 82 -127 9 -21 20 -38 25 -38 5 0 9 -6 9 -14 0 -7 11 -34 25 -61 16
-28 23 -55 19 -67 -13 -41 -4 -146 16 -204 33 -90 41 -107 73 -136 27 -26 29
-31 23 -80 -4 -29 -3 -66 2 -83 4 -16 5 -48 2 -69 -4 -32 -7 -37 -17 -25 -6 8
-14 26 -18 41 -8 31 -39 45 -60 28 -9 -7 -15 -29 -15 -51 0 -47 -31 -133 -65
-179 -14 -19 -23 -41 -20 -49 10 -34 15 -79 19 -151 2 -41 2 -63 -1 -49 -4 29
-34 44 -51 27 -10 -10 -7 -66 5 -98 15 -38 11 -55 -24 -100 -21 -27 -51 -67
-67 -89 -16 -22 -43 -45 -60 -52 -17 -7 -44 -25 -61 -40 -32 -30 -85 -55 -133
-64 -23 -4 -38 1 -61 20 -26 23 -30 34 -33 83 -5 87 -24 82 -134 -30 -116
-118 -128 -149 -92 -242 38 -100 -5 -156 -166 -217 -75 -27 -146 -68 -146 -82
0 -16 -106 -87 -140 -94 -23 -4 -31 0 -45 21 -15 22 -16 33 -6 72 13 50 72
118 127 147 17 9 43 34 59 57 15 22 34 44 40 48 7 4 42 41 79 82 89 99 143
190 196 325 4 11 15 36 23 55 8 19 18 46 22 60 4 14 18 48 31 77 22 48 30 82
55 233 15 89 13 325 -4 419 -12 65 -22 90 -43 112 -15 16 -33 29 -38 29 -6 1
-20 12 -31 27 -44 56 -142 146 -180 164 -22 10 -67 39 -100 64 -33 25 -75 50
-95 56 -19 6 -56 29 -82 50 -26 22 -51 39 -56 39 -5 0 -39 29 -75 64 -36 35
-80 69 -96 76 -17 7 -31 16 -31 20 0 14 -113 80 -137 80 -12 0 -24 8 -27 18
-3 10 -18 23 -33 30 -16 7 -46 23 -68 34 -44 24 -82 31 -90 17 -4 -5 -22 -1
-43 10 -58 29 -139 44 -205 38 -33 -3 -63 -9 -66 -14 -3 -5 -14 -12 -24 -16
-14 -5 -21 1 -31 25 -28 65 1 144 83 223 23 21 41 44 41 51 0 14 59 76 120
126 25 20 83 55 130 78 216 106 232 115 283 171 29 31 65 75 80 98 l29 42 35
-21 c19 -11 51 -20 71 -20z m-2458 -55 c19 -4 59 -18 89 -31 45 -20 52 -26 41
-39 -7 -8 -17 -15 -22 -15 -6 0 -47 -22 -92 -49 -44 -27 -98 -58 -119 -70 -36
-20 -37 -20 -27 -2 19 36 11 59 -32 90 -23 17 -48 31 -55 31 -24 0 -13 17 30
46 23 16 45 33 48 38 9 12 82 24 94 15 6 -4 26 -10 45 -14z m88 -496 c25 -8
40 -26 68 -79 48 -92 67 -103 168 -102 75 1 83 3 104 28 21 24 23 34 17 81 -6
52 -6 53 17 45 22 -8 77 -100 78 -130 0 -7 11 -30 24 -51 26 -40 78 -62 132
-56 23 2 25 0 21 -24 -3 -14 -22 -61 -42 -105 -21 -43 -37 -88 -36 -100 2 -56
-1 -181 -5 -186 -3 -2 -21 15 -41 38 -30 37 -40 42 -62 37 -51 -13 -62 -32
-54 -94 4 -31 6 -87 6 -126 -1 -76 -43 -296 -65 -342 -14 -30 -35 -33 -30 -4
4 28 -74 109 -118 122 -21 7 -46 9 -54 6 -20 -8 -21 -37 -1 -63 26 -34 19 -49
-25 -52 -33 -2 -40 1 -40 16 0 10 5 23 11 29 6 6 8 21 4 33 -6 20 -12 22 -53
16 -56 -8 -70 -20 -91 -82 -9 -26 -22 -49 -29 -52 -25 -8 -114 103 -141 178
-7 19 -17 44 -22 55 -27 63 -56 174 -51 200 13 75 8 107 -20 128 -33 25 -70
17 -86 -18 -13 -29 -36 -24 -27 5 9 28 9 132 0 159 -6 19 -4 23 8 18 24 -9
125 10 142 27 17 17 19 54 5 92 -16 40 -4 42 34 5 40 -39 109 -61 151 -50 36
10 57 36 92 109 l26 54 -19 56 c-10 30 -31 80 -46 111 -15 31 -28 62 -28 68 0
14 38 14 78 0z m3531 -74 c21 -40 25 -63 29 -172 3 -91 1 -124 -7 -119 -6 4
-11 13 -11 21 0 7 -12 27 -26 44 -37 44 -104 144 -104 155 0 5 3 7 6 3 4 -3
19 0 35 9 28 14 44 48 41 87 -2 29 12 19 37 -28z m-3009 16 c0 -5 18 -27 40
-49 56 -55 53 -73 -10 -63 -22 3 -61 121 -41 121 6 0 11 -4 11 -9z m-1160 -61
c0 -16 -5 -41 -12 -55 l-11 -25 -28 26 -28 27 27 27 c36 37 52 37 52 0z m-319
-20 c24 -21 39 -39 33 -40 -6 0 -17 7 -25 16 -16 19 -65 45 -104 55 -28 7 -28
7 11 8 35 1 48 -5 85 -39z m-151 -68 c0 -21 -26 2 -33 29 -5 20 -5 20 14 3 10
-9 19 -24 19 -32z m110 -4 c26 -34 61 -100 57 -104 -5 -6 -111 42 -109 49 1 4
2 25 2 47 0 50 17 52 50 8z m175 -34 c-17 -13 -75 -20 -75 -10 0 16 14 36 25
36 7 0 18 7 25 15 11 14 15 13 28 -6 14 -20 14 -23 -3 -35z m88 -24 c-3 -11
-9 -20 -15 -20 -5 0 -4 8 1 19 6 10 7 22 3 26 -4 5 -2 5 5 2 6 -4 9 -16 6 -27z
m2493 -5 c10 -8 14 -15 8 -15 -5 0 -19 7 -30 15 -10 8 -14 15 -8 15 5 0 19 -7
30 -15z m-811 -35 c19 -37 19 -43 -2 -36 -10 3 -33 7 -50 8 -39 3 -40 4 -10
33 30 31 44 30 62 -5z m165 1 c0 -5 -15 -12 -32 -16 -18 -4 -42 -9 -53 -11
-11 -3 -4 4 15 15 37 22 70 27 70 12z m895 -41 c3 -5 1 -10 -4 -10 -6 0 -11 5
-11 10 0 6 2 10 4 10 3 0 8 -4 11 -10z m154 -91 c78 -42 181 -127 181 -149 0
-25 -89 -17 -110 10 -12 16 -121 91 -169 116 l-53 29 29 12 c34 14 73 9 122
-18z m-3401 -52 c32 -30 27 -73 -8 -69 -14 2 -38 16 -55 32 -40 37 -65 48 -99
44 -47 -5 -19 10 32 17 62 9 102 1 130 -24z m2697 -7 c144 -33 340 -28 416 10
23 12 47 17 69 13 46 -7 200 -110 200 -133 0 -13 14 -23 48 -35 72 -24 163
-83 236 -152 37 -35 71 -63 77 -63 41 0 248 -175 279 -235 8 -17 33 -48 56
-70 62 -61 135 -155 154 -200 26 -59 15 -238 -20 -320 -4 -11 -34 -90 -65
-175 -67 -182 -137 -310 -209 -379 -28 -28 -106 -104 -172 -170 -115 -113
-161 -148 -206 -156 -11 -2 -37 -20 -59 -40 -22 -20 -62 -49 -89 -66 -49 -30
-70 -65 -70 -116 0 -17 -16 -35 -62 -68 -70 -50 -118 -89 -187 -151 -55 -50
-93 -70 -157 -85 -27 -6 -58 -13 -69 -16 -55 -14 -66 -15 -87 -9 -30 7 -58 58
-65 116 -7 62 9 96 52 114 35 15 44 36 26 64 -7 11 -25 12 -97 3 -49 -6 -99
-8 -111 -5 -12 3 -45 -2 -73 -11 -47 -16 -53 -21 -76 -73 -14 -32 -30 -81 -36
-110 -14 -68 -40 -95 -119 -120 -70 -23 -276 -35 -256 -15 14 13 -14 32 -36
24 -51 -18 -141 14 -165 60 -8 14 -11 44 -9 73 5 56 36 92 89 103 16 3 32 13
36 21 7 19 -45 62 -73 60 -24 -1 -133 11 -157 18 -29 9 -21 24 12 24 31 0 37
9 19 27 -6 6 -13 26 -15 44 -3 19 -9 49 -14 67 -7 27 -5 34 11 42 18 10 18 20
13 204 -8 233 0 331 24 320 10 -3 28 -9 42 -12 14 -2 33 -11 42 -20 15 -12 30
-13 100 -4 123 16 151 23 177 43 13 11 30 19 38 19 7 0 33 10 56 22 89 45 236
69 358 58 41 -4 88 24 89 52 0 22 -6 25 -60 33 -51 8 -74 13 -77 15 -3 3 -7 4
-53 13 -105 21 -152 19 -229 -9 -42 -15 -96 -42 -121 -59 -45 -32 -107 -58
-119 -51 -3 2 -44 7 -91 10 -46 4 -86 8 -88 11 -6 5 56 13 100 13 49 0 81 21
113 76 15 25 35 48 45 51 28 9 104 107 120 154 10 32 24 48 61 71 55 33 98 95
106 149 12 89 36 124 111 157 29 13 62 34 72 46 24 29 52 110 45 129 -3 9 11
31 35 54 22 21 40 44 40 51 0 6 6 17 14 23 30 25 28 60 -5 107 -29 43 -34 45
-65 40 -29 -6 -35 -3 -48 21 -8 16 -17 47 -21 68 -18 103 -48 164 -95 191 -16
10 -30 22 -30 25 0 7 26 19 53 25 4 1 8 2 10 4 1 1 15 4 32 6 16 3 32 8 35 10
3 3 16 3 30 0 14 -3 66 -15 115 -26z m-322 -57 c-9 -61 -25 -88 -53 -88 -24 0
-25 3 -26 57 -2 54 -1 57 25 61 61 9 60 10 54 -30z m-1804 13 c7 -5 20 -23 28
-40 8 -17 23 -47 34 -66 16 -28 19 -53 18 -122 l-2 -88 -56 -60 c-31 -33 -63
-60 -72 -60 -8 0 -20 -5 -27 -12 -6 -6 -20 -13 -29 -15 -90 -15 -214 -19 -263
-8 -19 4 -60 22 -90 40 -66 40 -107 50 -145 35 -25 -10 -27 -14 -22 -49 l5
-39 -42 5 c-75 10 -103 30 -135 97 -31 64 -51 178 -26 143 18 -26 163 -25 193
2 41 35 52 69 37 111 -15 43 -11 52 19 45 34 -8 86 30 86 62 l0 28 238 0 c130
0 243 -4 251 -9z m1663 -76 c-4 -88 3 -99 71 -106 61 -7 96 9 103 45 4 17 15
38 25 47 18 16 19 15 29 -12 6 -15 10 -40 9 -54 -3 -32 6 -63 37 -123 14 -26
24 -57 22 -69 -4 -29 -70 -73 -114 -76 -19 -2 -44 -6 -57 -11 -42 -15 -183 0
-247 27 -27 11 -100 79 -100 92 0 5 16 4 36 -2 44 -12 64 3 70 53 5 41 7 42
42 35 20 -5 34 -18 45 -41 9 -20 24 -35 34 -36 10 0 39 -2 64 -5 41 -4 47 -2
57 21 13 28 12 29 -46 39 -21 4 -49 21 -75 48 l-42 43 -90 -3 c-49 -2 -95 -8
-102 -14 -8 -6 -16 -8 -19 -5 -10 10 7 92 24 112 20 24 64 45 95 46 12 0 38 6
57 14 19 7 44 12 55 11 18 -1 20 -7 17 -76z m1449 -63 c35 -24 41 -40 15 -45
-17 -4 -98 52 -89 62 12 12 40 6 74 -17z m-1669 -94 c12 -15 13 -22 2 -42 -12
-23 -12 -23 -23 -3 -13 24 -15 62 -3 62 5 0 16 -8 24 -17z m1794 6 c3 -6 22
-17 40 -25 18 -8 65 -34 103 -59 38 -25 72 -45 76 -45 3 0 31 -24 61 -53 l55
-53 -27 -27 c-28 -28 -64 -36 -64 -14 -1 23 -240 239 -278 251 -22 7 -27 17
-15 29 10 11 41 8 49 -4z m1266 -110 c2 -39 0 -73 -3 -75 -8 -5 -31 125 -24
136 15 24 24 5 27 -61z m-5520 -10 l39 -10 -40 -48 c-22 -26 -47 -54 -56 -61
-8 -7 -12 -16 -9 -21 3 -5 -6 -23 -19 -39 l-25 -30 -7 40 c-7 40 -42 77 -90
94 -18 6 -16 9 15 29 19 11 48 32 64 45 31 25 41 25 128 1z m159 -44 c2 -26 4
-29 26 -65 15 -24 39 -43 78 -60 58 -26 57 -24 79 -120 10 -47 59 -97 126
-131 36 -19 67 -35 69 -36 2 -1 -17 -23 -43 -48 -25 -25 -46 -50 -46 -55 0 -5
-8 -11 -18 -15 -11 -3 -24 -18 -31 -33 -7 -15 -29 -51 -49 -80 -26 -38 -36
-65 -37 -95 -2 -61 -1 -57 -50 -122 -25 -33 -45 -65 -45 -72 0 -7 -9 -17 -20
-23 -11 -6 -20 -21 -20 -33 0 -12 -8 -38 -19 -57 -29 -55 -35 -80 -18 -80 8 0
18 10 22 23 7 21 8 21 12 -6 4 -23 7 -26 19 -16 11 9 14 8 14 -3 0 -18 -43
-144 -62 -184 -17 -35 -22 -94 -8 -94 5 0 10 7 10 15 0 8 7 16 15 16 32 3 36
4 46 19 7 11 8 5 3 -20 -3 -19 -10 -39 -14 -45 -4 -5 -11 -44 -15 -85 -4 -45
-13 -82 -22 -92 -9 -10 -13 -18 -9 -18 10 0 -23 -49 -62 -94 -19 -21 -41 -52
-49 -70 -15 -33 -25 -50 -60 -107 -13 -20 -23 -43 -23 -51 0 -8 -10 -26 -22
-40 -13 -13 -45 -50 -71 -81 -54 -63 -73 -72 -62 -29 10 34 10 73 1 142 -8 62
-16 74 -61 95 -25 13 -34 25 -44 64 -21 81 -73 87 -241 25 -142 -53 -241 -122
-413 -289 -139 -135 -166 -169 -163 -202 4 -35 19 -40 34 -11 20 38 59 88 84
107 13 10 63 57 112 105 48 47 92 86 97 86 4 0 16 8 26 18 70 71 265 163 355
168 l47 2 29 -56 c17 -34 39 -62 54 -70 40 -19 55 -98 39 -192 -7 -38 -16 -72
-21 -75 -4 -3 -16 -40 -25 -82 -10 -43 -33 -107 -51 -142 -19 -35 -34 -71 -34
-81 0 -9 -7 -25 -15 -36 -8 -10 -15 -31 -15 -45 0 -15 -7 -40 -15 -55 -8 -16
-15 -39 -15 -50 0 -12 -8 -28 -17 -35 -9 -8 -29 -42 -45 -77 -40 -89 -28 -103
47 -52 24 17 46 30 50 30 4 0 12 6 20 13 7 8 39 22 72 32 32 10 69 25 83 35
14 9 55 29 92 44 65 27 97 51 102 78 8 38 21 78 42 123 61 136 74 169 74 191
0 13 8 28 18 34 12 8 13 13 5 16 -10 4 -9 11 2 28 8 12 12 26 8 29 -11 12 -51
8 -56 -5 -4 -9 -6 -7 -6 3 -2 42 54 79 126 83 43 3 46 -81 4 -116 -36 -31 -41
-46 -24 -85 7 -18 13 -48 13 -68 0 -30 3 -35 24 -35 30 0 93 58 98 90 3 24 4
24 22 -10 10 -19 20 -58 23 -87 3 -44 1 -53 -16 -62 -11 -6 -33 -8 -49 -5 -25
5 -31 2 -37 -15 -3 -12 -10 -21 -14 -21 -14 0 -22 -63 -10 -71 8 -4 8 -12 1
-24 -9 -17 -10 -17 -22 4 -7 13 -9 38 -5 60 5 29 2 41 -14 55 -19 17 -20 17
-34 -6 -9 -12 -21 -36 -28 -53 -7 -16 -29 -55 -49 -85 -19 -30 -44 -80 -54
-111 -25 -76 -30 -82 -63 -84 -94 -5 -331 -113 -410 -186 -24 -21 -47 -39 -53
-39 -5 0 -18 -7 -27 -15 -93 -82 -141 -115 -166 -115 -35 0 -87 49 -87 82 0
38 42 112 73 126 38 18 56 58 56 126 0 31 5 63 11 71 19 23 44 77 59 125 7 25
17 53 22 62 5 10 9 25 9 33 0 9 7 29 15 45 12 24 38 111 87 290 19 70 19 92 2
88 -21 -4 -60 -114 -90 -254 -7 -34 -21 -81 -32 -105 -11 -24 -25 -64 -32 -89
-7 -25 -15 -49 -18 -55 -4 -5 -7 -15 -8 -20 -3 -19 -90 -189 -122 -239 -18
-28 -32 -54 -32 -59 0 -4 -12 -24 -26 -42 -14 -19 -25 -35 -24 -37 3 -7 -20
-57 -29 -62 -6 -4 -27 -36 -47 -71 -48 -86 -145 -174 -251 -226 -46 -22 -83
-47 -83 -54 0 -8 5 -25 11 -39 9 -20 8 -33 -8 -68 -23 -49 -63 -176 -63 -199
0 -8 -7 -24 -15 -35 -8 -12 -16 -33 -19 -47 -2 -15 -9 -41 -15 -59 -31 -96
-41 -137 -46 -178 -3 -25 -9 -54 -14 -65 -5 -11 -12 -37 -16 -57 -3 -21 -9
-38 -14 -38 -4 0 -8 -17 -8 -39 0 -21 -8 -61 -16 -87 -8 -27 -21 -74 -27 -104
-7 -30 -15 -62 -18 -70 -7 -20 -9 -28 -16 -70 -5 -35 -20 -104 -30 -148 -2
-12 -7 -26 -11 -31 -3 -5 -5 -54 -4 -108 2 -194 2 -219 -4 -263 -3 -25 -10
-58 -15 -75 -13 -45 16 -170 67 -284 50 -113 98 -236 106 -269 3 -17 11 -34
16 -37 33 -21 -15 -25 -271 -25 l-280 0 -21 33 c-13 21 -18 42 -15 62 27 155
21 173 -133 360 -28 33 -50 68 -50 78 -1 9 -5 17 -11 17 -11 0 -49 79 -75 155
-9 28 -21 58 -26 67 -15 30 -38 206 -39 307 -1 76 2 92 23 122 9 14 17 36 16
50 -1 30 -1 234 0 271 1 15 -3 29 -9 33 -13 8 -13 42 0 47 10 3 12 15 30 178
6 58 16 123 22 145 5 22 11 49 13 60 1 11 6 36 9 55 4 19 9 46 11 60 2 14 15
59 28 100 14 41 30 98 36 125 7 28 20 68 31 90 10 22 30 77 45 122 15 45 33
84 41 87 8 3 26 29 40 58 14 29 43 86 64 126 22 40 45 92 51 115 6 23 18 56
26 72 9 17 20 39 26 50 48 93 83 154 119 207 24 35 65 106 91 158 27 52 55
102 63 111 8 8 14 19 14 24 0 4 17 31 38 59 37 51 53 81 90 166 11 25 29 55
41 67 12 12 20 26 19 30 -3 18 23 63 37 63 8 0 15 6 15 13 0 29 65 135 106
175 25 23 42 47 39 52 -4 6 -3 9 2 8 17 -6 125 141 173 235 7 15 40 58 72 95
32 37 58 70 58 74 0 3 20 16 45 28 35 17 52 35 82 87 63 108 100 165 159 243
23 30 85 120 139 200 54 80 122 175 151 212 30 37 54 71 54 76 0 5 7 16 16 23
9 8 26 28 38 45 27 40 165 211 203 251 15 16 43 46 62 67 35 38 60 46 62 21z
m5433 -120 c4 -14 6 -27 7 -30 0 -3 6 -22 13 -43 13 -35 34 -133 52 -232 9
-54 11 -211 3 -250 -5 -20 -11 -119 -13 -222 -3 -102 -10 -219 -16 -260 -13
-88 -46 -233 -61 -268 -22 -48 -29 -66 -55 -150 -14 -47 -34 -101 -44 -120 -9
-19 -22 -46 -28 -60 -5 -14 -17 -41 -25 -60 -9 -19 -25 -56 -36 -83 -11 -26
-26 -47 -33 -48 -31 -1 -71 -8 -75 -13 -13 -13 12 -27 38 -22 17 3 29 1 29 -5
0 -6 -4 -8 -9 -4 -5 3 -12 1 -15 -4 -3 -5 -21 -12 -41 -15 -19 -4 -37 -12 -41
-18 -8 -13 14 -28 44 -28 12 0 22 -2 22 -4 0 -10 -62 -97 -103 -142 -23 -27
-64 -78 -91 -114 -78 -105 -261 -288 -399 -398 -70 -56 -131 -102 -136 -102
-4 0 -17 -9 -28 -20 -12 -11 -69 -44 -128 -75 -102 -53 -108 -54 -150 -45 -40
9 -51 7 -109 -20 -35 -17 -69 -37 -75 -44 -12 -15 -51 -10 -51 6 0 5 -5 6 -11
2 -6 -3 -28 -7 -48 -8 -21 -1 -69 -19 -109 -39 -39 -20 -74 -32 -77 -28 -2 5
-19 11 -37 14 -35 5 -141 -31 -190 -65 -14 -10 -31 -18 -36 -18 -6 0 -18 -7
-27 -17 -9 -9 -35 -18 -58 -20 -23 -2 -69 -12 -102 -23 -87 -28 -135 -35 -135
-20 0 6 -9 24 -19 39 l-20 27 42 46 c23 26 71 70 107 99 36 29 67 57 69 62 2
5 11 17 21 27 10 10 41 49 70 87 29 37 89 104 134 148 102 101 162 183 228
315 28 58 68 132 89 165 21 33 39 69 41 80 5 31 -45 32 -90 2 -88 -58 -200
-95 -321 -108 -52 -6 -102 -14 -111 -19 -10 -5 -42 -14 -71 -19 -59 -10 -129
-32 -199 -61 -25 -11 -94 -33 -155 -50 -60 -17 -118 -36 -129 -41 -42 -24
-182 -79 -198 -79 -10 0 -53 9 -96 21 -89 24 -215 22 -267 -5 -17 -9 -35 -16
-41 -16 -11 0 -51 -39 -46 -46 3 -5 -6 -6 -16 -2 -4 2 -18 16 -32 31 l-25 29
25 -3 c47 -4 80 1 80 12 0 7 8 18 18 25 16 13 16 13 0 14 -10 0 -18 5 -18 11
0 6 -6 9 -14 6 -13 -5 -36 10 -36 24 0 4 7 6 16 5 30 -2 25 21 -6 27 -16 4
-30 13 -30 21 0 7 -36 51 -80 97 -44 45 -78 84 -77 86 2 2 17 -3 33 -11 78
-37 105 -47 174 -61 122 -26 167 -29 330 -27 166 2 503 18 585 28 28 3 59 6
69 5 17 0 71 10 186 33 136 28 250 63 298 92 31 19 61 34 67 34 5 0 21 10 35
23 25 22 150 87 169 87 5 0 30 18 56 40 50 43 116 84 155 95 14 4 39 21 55 36
61 59 123 100 232 155 62 31 118 63 124 70 6 8 15 14 19 14 17 0 158 86 205
125 28 23 68 54 90 68 71 48 251 218 325 307 44 53 130 190 130 207 0 5 13 24
28 43 30 37 85 120 119 181 19 34 20 50 18 260 -2 150 1 233 9 252 14 34 22
34 30 2z m-953 -37 c22 -59 49 -143 49 -155 0 -25 -19 -13 -49 30 -16 23 -41
55 -55 71 -31 34 -32 44 -8 53 9 4 21 12 25 20 13 21 24 15 38 -19z m-4122
-87 c30 -16 53 -19 133 -15 53 2 109 9 125 16 15 6 53 14 83 18 30 5 79 11
107 15 58 8 157 -8 208 -33 50 -25 106 -75 100 -89 -2 -8 3 -17 11 -20 13 -5
15 -15 10 -53 -5 -37 -3 -49 8 -53 17 -7 31 7 45 46 8 20 18 27 38 29 16 0 35
1 43 2 8 1 20 12 27 25 6 14 19 26 28 27 22 3 46 24 39 35 -3 5 1 9 9 9 27 0
53 -44 55 -93 4 -63 40 -118 90 -134 l37 -11 -33 -1 c-18 -1 -41 3 -51 9 -26
14 -131 22 -131 10 0 -13 -36 -13 -62 1 -25 14 -35 4 -17 -18 13 -15 12 -16
-6 -9 -11 5 -31 12 -45 16 -41 13 -123 53 -157 78 -31 22 -33 22 -33 4 0 -17
-3 -18 -35 -8 -19 6 -35 14 -35 18 0 5 -7 8 -16 8 -10 0 -14 -6 -10 -15 7 -20
4 -19 -39 6 -20 12 -38 20 -40 18 -12 -12 32 -69 68 -89 23 -13 56 -33 72 -46
17 -12 40 -25 52 -28 20 -6 22 -12 17 -54 -3 -26 -7 -52 -9 -59 -2 -6 0 -26 5
-43 6 -20 5 -28 -2 -24 -5 4 -27 1 -49 -6 -49 -16 -88 -2 -129 49 -41 49 -40
77 4 85 37 7 53 31 35 52 -8 10 -26 12 -68 8 -51 -6 -60 -4 -89 21 -18 15 -32
33 -32 41 0 20 -47 122 -64 139 -17 18 -42 19 -52 4 -18 -29 -247 11 -309 54
-57 40 -77 93 -48 127 17 19 18 19 46 -15 16 -20 46 -44 66 -54z m2451 20
c-11 -27 -61 -61 -89 -61 -28 0 -90 -73 -106 -123 -8 -29 -20 -68 -26 -87 -24
-75 -85 -113 -177 -108 -39 2 -65 -2 -76 -11 -25 -21 -1 -41 50 -41 51 0 53
-6 23 -67 -31 -65 -72 -101 -122 -108 -23 -4 -47 -6 -52 -5 -20 4 -34 0 -49
-15 -25 -26 -9 -44 42 -47 43 -3 45 -4 25 -15 -11 -7 -45 -15 -75 -19 -29 -3
-68 -10 -87 -15 -19 -4 -37 -7 -39 -4 -2 2 -1 20 2 40 5 24 12 35 24 35 10 0
38 13 63 28 42 27 46 33 56 89 7 39 8 75 2 99 -22 98 -11 128 59 159 17 8 32
19 32 25 0 6 16 18 35 27 38 18 44 45 11 51 -34 7 -42 23 -36 71 7 61 28 64
63 12 30 -45 51 -54 123 -49 42 3 49 6 52 25 4 24 -24 44 -54 39 -32 -6 -61
11 -78 45 -9 18 -16 33 -16 33 0 1 69 1 152 2 100 0 174 5 213 15 33 8 62 14
64 12 2 -1 -2 -16 -9 -32z m-535 19 c16 -7 13 -9 -17 -9 -21 -1 -38 4 -38 9 0
12 27 12 55 0z m-64 -75 c39 -21 38 -51 -1 -59 -36 -7 -50 -34 -27 -51 11 -8
31 -10 57 -5 22 4 40 4 40 -1 0 -13 -36 -29 -64 -29 -14 0 -29 -6 -33 -14 -14
-23 -54 -40 -63 -26 -5 9 -9 9 -14 1 -4 -6 -17 -11 -29 -11 -12 -1 -39 -7 -59
-14 -23 -8 -40 -10 -46 -4 -6 6 -17 6 -30 -1 -25 -13 -59 -14 -64 -2 -3 9 -88
-15 -116 -33 -7 -4 -16 -5 -20 -1 -4 3 1 11 11 16 27 15 64 80 71 125 8 45 25
76 32 57 3 -7 18 -9 40 -6 18 3 40 1 47 -5 11 -10 92 -8 123 3 11 3 25 -19 38
-57 7 -22 46 -24 46 -3 0 8 -4 24 -10 35 -5 11 -14 28 -19 38 -10 21 3 59 32
90 l22 24 3 -26 c2 -17 14 -32 33 -41z m-653 -13 c27 -25 166 1 178 33 4 8 10
15 14 15 9 0 24 -67 21 -94 -5 -40 -39 -102 -62 -112 -13 -6 -37 -17 -52 -25
-22 -10 -32 -10 -47 -1 -11 7 -31 12 -44 12 -64 0 -101 87 -76 179 12 47 10
47 68 -7z m-1104 -130 c3 -5 -10 -24 -29 -42 l-35 -34 17 42 c15 39 35 53 47
34z m160 -23 c14 -11 37 -45 52 -77 33 -72 49 -89 85 -97 22 -5 29 -12 29 -31
0 -30 -29 -33 -54 -5 -21 23 -101 37 -121 21 -19 -16 -8 -39 37 -79 30 -26 78
-95 78 -113 0 -2 -38 -4 -84 -4 -81 -2 -163 -20 -216 -49 -38 -20 -133 -55
-151 -55 -29 0 -41 -25 -21 -42 15 -14 28 -14 125 1 59 10 107 15 107 13 0 -2
6 1 14 7 15 13 132 -1 148 -17 5 -5 0 -20 -12 -34 -11 -15 -20 -31 -20 -37 0
-6 -3 -11 -7 -11 -5 0 -13 -10 -19 -23 -6 -12 -21 -42 -34 -67 -54 -106 -70
-141 -115 -255 -26 -65 -51 -126 -56 -135 -45 -85 -62 -139 -49 -155 6 -7 -1
-63 -21 -161 -35 -168 -39 -294 -14 -415 8 -39 15 -84 15 -100 0 -16 4 -29 9
-29 5 0 11 -15 15 -32 3 -18 7 -37 9 -43 15 -49 22 -67 43 -113 27 -59 28 -62
15 -62 -11 0 -101 124 -101 139 0 6 5 11 10 11 15 0 12 26 -5 40 -8 7 -18 34
-21 61 -7 52 -21 71 -35 48 -11 -19 -18 -9 -35 52 -16 60 -21 296 -7 326 10
20 9 41 -1 126 -4 32 -10 56 -13 53 -4 -3 -10 -52 -14 -108 -4 -56 -12 -113
-18 -127 -5 -14 -15 -48 -21 -74 -7 -26 -16 -45 -19 -41 -3 3 -6 9 -6 12 0 4
-4 12 -8 19 -14 22 -15 151 -1 209 15 63 17 134 5 174 -7 23 -9 21 -19 -20
l-12 -45 5 55 c10 105 22 148 64 230 59 112 113 270 94 270 -11 0 -41 -60 -68
-133 -17 -46 -35 -70 -35 -47 0 14 36 149 50 184 5 15 10 41 10 57 0 37 -31
40 -50 5 -7 -13 -21 -27 -31 -29 -58 -15 15 232 87 295 17 15 37 41 44 58 7
16 16 30 20 30 4 0 10 8 13 18 2 9 8 26 12 37 5 16 5 17 -4 5 -5 -8 -13 -11
-17 -7 -9 8 8 42 41 83 24 29 24 29 19 4 l-6 -25 21 24 c12 13 21 20 21 16 0
-16 30 19 54 60 20 36 21 45 9 49 -12 5 -8 14 16 45 17 21 31 43 31 48 0 35
94 44 134 12z m4676 -9 c0 -5 6 -10 14 -10 26 0 26 -17 0 -102 -36 -116 -58
-170 -69 -171 -6 -1 -14 27 -18 63 -8 61 -7 70 22 133 17 37 31 74 31 82 0 8
5 15 10 15 6 0 10 -4 10 -10z m-4217 -61 c21 -10 44 -19 53 -19 8 0 13 -4 10
-9 -3 -5 4 -9 17 -8 12 0 48 -4 79 -10 31 -5 62 -7 68 -3 6 4 36 3 68 -1 34
-5 58 -4 60 1 6 16 92 11 122 -6 17 -11 28 -25 28 -40 0 -22 -3 -23 -52 -18
-28 3 -89 5 -136 5 -80 1 -164 15 -206 37 -11 5 -35 15 -54 22 -79 28 -97 36
-125 58 l-30 23 30 -6 c17 -3 47 -15 68 -26z m512 -19 c3 -5 2 -10 -4 -10 -5
0 -13 5 -16 10 -3 6 -2 10 4 10 5 0 13 -4 16 -10z m535 5 c0 -6 -49 -28 -65
-30 -5 0 -35 -9 -65 -18 -105 -32 -270 -42 -254 -15 3 5 20 18 36 28 23 14 37
16 63 9 32 -9 65 -5 190 20 48 10 95 13 95 6z m-456 -65 c10 0 21 -12 27 -30
7 -20 18 -31 32 -32 12 0 27 -2 34 -2 7 -1 25 -14 41 -29 33 -32 84 -49 121
-40 29 6 81 57 81 79 0 20 9 17 31 -10 11 -14 28 -28 39 -31 25 -8 26 -21 3
-29 -11 -5 -22 -1 -30 11 -29 42 -35 46 -45 29 -5 -9 -7 -20 -3 -25 3 -5 1
-21 -5 -36 -9 -23 -14 -26 -38 -20 -49 12 -112 16 -112 7 0 -11 68 -42 98 -45
19 -1 22 -5 17 -22 -4 -11 -8 -31 -10 -45 -2 -14 -4 -26 -4 -28 -1 -1 -15 13
-32 32 -22 26 -41 37 -72 41 -52 8 -92 56 -82 98 8 31 -23 52 -64 44 -36 -7
-46 1 -48 41 0 18 -9 43 -20 55 -18 22 -18 22 3 5 11 -10 28 -18 38 -18z
m-1279 -9 c-16 -32 -35 -49 -35 -31 0 15 31 60 41 60 5 0 3 -13 -6 -29z m1741
2 c0 -16 3 -41 8 -58 l8 -30 -24 21 c-13 12 -33 27 -45 33 -31 16 -29 28 7 36
16 4 32 11 35 16 10 15 12 11 11 -18z m-972 -20 l35 -16 -30 -35 c-22 -25 -29
-42 -27 -64 3 -32 18 -43 124 -88 55 -24 74 -50 74 -101 0 -39 -13 -30 -40 25
-18 37 -32 50 -86 77 -35 18 -71 40 -79 49 -29 32 -40 170 -14 170 4 0 24 -7
43 -17z m796 -33 c-6 -11 -20 -20 -30 -20 -11 0 -23 0 -27 0 -20 0 -5 25 15
26 12 1 25 4 29 8 14 14 23 5 13 -14z m-632 -14 c7 -4 10 -11 7 -15 -2 -5 7
-19 21 -32 18 -17 35 -23 62 -21 29 1 33 0 17 -7 -30 -14 -93 -13 -102 2 -8
12 -9 17 -12 40 -1 7 -8 4 -17 -8 -9 -12 -13 -31 -10 -47 l5 -27 -47 17 c-53
20 -61 38 -38 86 15 32 17 33 59 26 23 -3 48 -10 55 -14z m147 -6 c4 -6 -10
-10 -35 -10 -25 0 -39 4 -35 10 3 6 19 10 35 10 16 0 32 -4 35 -10z m-2170
-124 c-42 -64 -78 -116 -80 -116 -3 0 -11 16 -19 35 -20 46 -38 52 -110 33
-34 -9 -63 -15 -65 -13 -4 4 33 60 63 94 12 13 39 35 61 49 34 22 52 26 123
27 45 1 85 5 89 8 3 4 8 5 11 3 2 -3 -31 -57 -73 -120z m2279 118 c12 -4 13
-11 6 -24 -14 -26 -4 -30 68 -30 81 0 76 -9 -9 -17 -59 -5 -84 -17 -73 -34 2
-4 34 -5 70 -2 62 5 114 -7 114 -27 0 -15 -48 -32 -65 -23 -11 7 -30 5 -57 -4
-44 -15 -73 -11 -82 12 -11 29 -114 8 -146 -29 -18 -23 -35 -20 -49 10 -15 33
-8 42 37 50 52 9 74 23 70 42 -2 11 9 25 32 38 19 11 34 26 33 32 -3 13 25 16
51 6z m577 -77 c-10 -27 -56 -67 -76 -67 -7 0 -27 -16 -45 -36 -37 -43 -47
-38 -32 14 14 47 35 67 87 84 24 8 44 22 50 35 13 31 28 3 16 -30z m-1371 -12
c0 -23 -16 -17 -28 10 -11 24 -10 25 8 15 11 -6 20 -17 20 -25z m127 -49 c40
-14 53 -25 82 -71 18 -30 40 -60 48 -67 11 -8 54 -13 127 -14 61 -1 112 -2
114 -3 13 -5 -33 -32 -58 -34 -56 -7 -267 53 -310 88 -8 6 -36 22 -62 34 -45
21 -47 24 -41 54 8 46 21 60 39 43 7 -8 35 -22 61 -30z m226 -36 c4 0 24 -7
45 -15 48 -21 28 -35 -49 -35 -41 0 -60 5 -71 18 -26 30 -30 54 -11 72 17 17
19 16 48 -11 17 -16 34 -29 38 -29z m740 -28 c18 -16 18 -17 -2 -33 -24 -20
-15 -34 44 -70 22 -13 46 -29 53 -36 7 -7 21 -13 31 -13 9 0 22 -5 27 -10 15
-15 184 -39 248 -35 39 2 75 13 126 39 39 20 80 41 91 46 10 6 28 15 39 20 31
16 115 25 106 12 -3 -6 -21 -14 -39 -17 -17 -4 -50 -16 -71 -26 -22 -11 -46
-19 -54 -19 -7 0 -32 -13 -55 -28 -55 -37 -107 -50 -203 -48 -76 2 -118 11
-234 54 -101 38 -169 55 -187 47 -35 -15 -97 -5 -115 18 -17 21 -16 23 10 49
15 15 41 29 57 31 19 2 34 11 40 25 8 19 15 21 40 16 16 -3 38 -13 48 -22z
m-1134 -10 c18 -7 51 -24 72 -38 21 -13 44 -24 51 -24 8 0 30 -12 51 -26 21
-14 46 -27 55 -29 9 -3 46 -13 82 -23 43 -12 96 -18 155 -18 88 1 92 2 135 36
25 19 54 40 64 46 28 15 31 34 7 34 -39 0 -16 35 30 46 58 14 92 16 99 5 4 -7
22 -15 41 -17 19 -3 42 -15 51 -27 14 -19 15 -25 4 -42 -8 -11 -24 -20 -37
-21 -13 -1 -39 -2 -56 -3 -22 -1 -33 -6 -33 -15 0 -11 -11 -14 -46 -12 -25 1
-47 -1 -50 -6 -3 -5 -24 -18 -47 -30 -84 -44 -107 -49 -211 -43 -105 6 -151
20 -185 54 -12 12 -28 21 -36 21 -8 0 -35 13 -60 29 -61 38 -175 78 -247 86
-61 7 -76 21 -30 28 48 8 106 4 141 -11z m86 -141 c125 -62 121 -56 72 -103
-23 -22 -55 -51 -71 -65 -16 -13 -31 -36 -32 -50 -2 -13 -7 -30 -12 -36 -15
-19 -34 -122 -27 -149 5 -21 -2 -33 -48 -74 -102 -92 -140 -202 -103 -298 16
-42 16 -47 -1 -78 -57 -108 -74 -219 -42 -285 15 -30 18 -47 11 -60 -24 -44
-44 -157 -39 -214 10 -98 43 -143 106 -144 27 0 35 -4 32 -15 -25 -99 -21
-149 20 -231 34 -69 59 -82 169 -84 83 -2 85 -2 83 -26 -2 -43 30 -138 61
-177 43 -54 90 -85 148 -97 18 -4 44 -14 57 -22 16 -10 37 -14 65 -10 38 6 44
3 69 -28 25 -32 104 -67 177 -78 80 -13 110 -21 110 -29 0 -5 -3 -7 -7 -5 -5
3 -35 8 -68 11 -33 4 -78 9 -100 11 -22 3 -60 7 -85 9 -25 3 -64 11 -87 20
-26 9 -43 11 -43 5 0 -6 -5 -7 -10 -4 -6 4 -8 11 -5 16 4 5 0 10 -7 11 -29 3
-34 4 -58 18 -14 7 -27 13 -30 13 -9 -1 -55 21 -60 29 -3 4 -21 14 -41 22 -30
13 -80 50 -221 169 -20 17 -36 35 -35 41 1 5 -6 12 -16 14 -10 2 -35 22 -55
45 -21 23 -61 67 -91 99 -72 77 -101 122 -108 166 -3 20 -12 41 -19 45 -27 16
-88 180 -109 292 -7 39 -18 95 -25 125 -11 54 -14 217 -5 275 3 17 8 46 11 65
3 19 8 46 10 60 10 57 36 169 54 230 10 36 22 76 25 90 4 14 13 35 21 46 7 12
23 50 34 85 12 34 33 85 48 113 14 28 27 53 27 56 6 21 32 66 89 155 56 86 44
85 161 26z m1025 -45 c-1 -21 -1 -21 -15 -2 -19 25 -19 37 0 30 8 -4 15 -16
15 -28z m-340 0 c0 -15 -14 -35 -21 -30 -15 9 -10 34 6 34 8 0 15 -2 15 -4z
m409 -28 c-7 -13 -11 -23 -10 -23 1 0 -2 -11 -7 -25 -5 -14 -12 -46 -16 -72
-7 -46 -26 -68 -26 -30 0 9 -9 31 -19 49 l-20 31 23 15 c13 9 29 29 36 46 8
19 20 31 32 31 16 0 17 -3 7 -22z m-449 -54 c0 -6 6 -14 14 -17 11 -4 11 -14
2 -51 -7 -25 -14 -48 -17 -51 -4 -3 -18 21 -33 54 -14 32 -33 64 -41 71 -21
17 -19 25 8 37 18 9 26 7 45 -10 12 -11 22 -26 22 -33z m111 42 c22 13 80 11
95 -4 13 -13 17 -12 33 2 13 12 20 13 29 4 8 -8 15 -8 27 2 14 12 18 11 26 -1
6 -9 4 -18 -6 -25 -8 -6 -15 -20 -15 -30 0 -10 -4 -26 -10 -34 -7 -12 -12 -12
-29 4 -15 13 -24 16 -33 9 -7 -6 -33 -11 -56 -12 -24 0 -48 -3 -52 -6 -11 -7
-21 10 -30 49 -4 17 -12 30 -18 29 -13 -3 -16 10 -5 20 3 4 12 2 19 -4 7 -6
18 -7 25 -3z m398 -13 c-11 -28 -14 -254 -4 -305 3 -15 1 -30 -5 -33 -6 -4
-10 5 -10 19 0 14 -5 28 -11 32 -20 12 -32 -14 -35 -76 -2 -33 -8 -69 -13 -78
-4 -9 -6 -38 -4 -64 3 -38 1 -47 -10 -43 -30 12 -42 -77 -18 -139 8 -19 8 -33
2 -39 -5 -5 -7 -22 -4 -37 3 -15 1 -30 -5 -34 -12 -7 -25 108 -27 246 -2 92 0
110 16 127 10 11 24 40 30 65 6 25 16 46 21 46 5 0 8 28 7 63 -2 55 31 242 46
268 4 5 13 9 20 9 12 0 12 -5 4 -27z m-613 -50 c9 -21 20 -46 25 -55 12 -24 2
-27 -56 -18 -46 7 -79 18 -209 68 l-48 19 94 1 c51 0 105 5 118 11 45 18 60
13 76 -26z m-350 -10 c51 -38 143 -82 189 -90 22 -3 57 -15 77 -25 20 -11 63
-21 95 -23 55 -4 58 -5 55 -29 -3 -28 39 -114 68 -141 14 -13 18 -25 13 -44
-8 -33 -20 -41 -54 -34 -15 3 -35 1 -45 -5 -23 -11 -221 8 -310 31 -32 8 -83
20 -111 27 -63 14 -159 64 -173 90 -15 29 -12 64 11 126 22 58 50 92 104 125
38 24 40 24 81 -8z m3688 -87 c22 -10 45 -14 63 -10 33 8 31 5 -57 -63 -129
-99 -162 -123 -172 -123 -7 0 -9 38 -7 108 l4 108 39 47 39 48 28 -49 c18 -32
40 -55 63 -66z m-3135 -2 c15 -12 60 -12 78 -1 6 4 18 4 26 1 8 -3 18 0 22 6
5 8 11 8 19 0 20 -16 73 -1 81 24 7 21 7 21 14 1 3 -11 19 -44 33 -74 30 -58
31 -53 -21 -151 -20 -36 -48 -48 -43 -17 2 13 -4 17 -24 17 -20 0 -25 4 -20
16 6 17 -15 44 -35 44 -7 0 -23 10 -35 21 l-23 21 -20 -43 c-12 -24 -30 -50
-40 -56 -17 -11 -23 -6 -55 34 -20 26 -36 51 -36 57 0 6 10 43 22 83 20 63 24
69 33 50 5 -12 16 -27 24 -33z m163 -252 c10 -7 18 -20 18 -28 0 -8 11 -25 24
-37 21 -20 23 -29 21 -107 -1 -47 2 -101 8 -120 6 -24 6 -35 -2 -38 -29 -10
12 -279 50 -333 10 -15 19 -32 19 -39 0 -7 9 -25 21 -42 21 -28 21 -30 3 -43
-16 -12 -17 -17 -6 -34 14 -24 15 -31 4 -31 -5 0 -15 11 -22 25 -10 18 -19 23
-35 19 -16 -4 -30 4 -53 31 -43 48 -41 67 3 25 19 -19 35 -31 35 -28 0 15 -82
166 -102 188 -13 13 -23 27 -24 30 -3 21 -30 60 -39 56 -17 -6 -42 51 -55 126
-6 34 -15 77 -20 93 -15 50 -15 216 0 225 7 4 9 13 6 19 -4 6 -3 11 2 11 6 0
12 -7 16 -15 9 -26 27 -17 20 10 -4 17 -2 25 7 26 8 1 21 2 29 3 8 2 22 3 32
4 11 1 15 9 12 25 -2 12 -1 16 2 7 4 -8 15 -21 26 -28z m-3112 13 c30 -8 70
-15 88 -15 17 0 32 -3 32 -6 0 -8 -104 -134 -156 -188 -5 -6 -13 -19 -17 -30
-7 -17 -9 -16 -28 8 -20 26 -80 58 -103 55 -34 -4 -36 2 -15 44 31 61 67 106
103 128 37 23 28 22 96 4z m2204 -4 c3 -5 18 -12 33 -16 16 -3 35 -13 44 -21
8 -7 58 -23 110 -34 52 -11 103 -22 114 -26 11 -3 45 -8 75 -10 30 -3 75 -9
100 -13 25 -4 61 -7 80 -7 46 1 72 -30 75 -92 4 -67 -11 -151 -31 -173 -20
-23 -96 -26 -113 -6 -8 11 -35 13 -108 10 -54 -3 -120 0 -148 5 -27 6 -72 15
-100 20 -27 5 -99 22 -160 37 -138 34 -150 45 -141 130 7 67 36 116 100 171
40 34 60 41 70 25z m707 -158 c5 -210 13 -265 51 -338 49 -95 56 -113 62 -170
4 -34 13 -65 21 -71 8 -6 15 -25 15 -41 0 -50 12 -94 24 -90 6 2 9 15 8 28 -5
32 12 14 26 -28 7 -22 8 -33 1 -33 -6 0 -9 -6 -6 -12 2 -7 11 -12 19 -10 9 1
18 -5 22 -13 9 -24 28 -7 21 18 l-6 22 18 -21 c10 -12 25 -31 33 -43 20 -29
144 -91 189 -95 20 -2 46 -8 58 -15 14 -7 24 -8 28 -1 3 5 14 10 24 10 10 0
24 7 31 15 25 31 147 49 202 31 19 -7 51 -13 70 -14 19 -1 47 -6 62 -12 40
-15 103 -13 109 4 3 8 20 17 38 21 18 4 46 16 63 26 36 22 74 39 96 44 59 13
182 50 217 65 24 10 64 22 90 26 50 8 58 10 71 14 4 1 12 3 17 4 18 4 69 18
130 37 33 11 92 21 131 23 55 3 85 11 142 39 66 33 92 36 58 8 -7 -6 -24 -42
-36 -79 -12 -37 -26 -69 -30 -72 -4 -3 -15 -21 -25 -40 -26 -51 -62 -97 -132
-169 -35 -35 -63 -70 -63 -77 0 -7 -8 -19 -18 -26 -10 -7 -28 -29 -39 -48 -12
-20 -33 -46 -47 -59 -14 -14 -26 -30 -26 -37 0 -7 -4 -14 -9 -16 -6 -1 -65
-55 -131 -118 -141 -133 -149 -139 -162 -116 -5 9 -38 29 -74 46 -35 16 -64
31 -64 33 0 3 16 24 35 47 34 41 57 84 85 160 7 19 18 49 25 65 7 17 16 44 19
60 9 40 138 175 196 204 50 25 110 78 110 97 0 25 -33 33 -62 16 -16 -9 -28
-19 -28 -23 0 -4 -17 -17 -37 -30 -85 -50 -225 -209 -238 -269 -11 -51 -23
-70 -41 -63 -8 3 -22 -2 -32 -10 -28 -26 -125 -73 -188 -92 -73 -22 -103 -47
-84 -69 16 -20 44 -20 78 -1 34 18 130 60 159 69 11 4 27 13 33 21 14 17 30
20 30 4 0 -5 -24 -43 -54 -83 -50 -68 -58 -74 -95 -78 -23 -2 -41 0 -41 5 0 4
-4 6 -9 3 -5 -3 -11 0 -14 8 -4 9 -18 13 -39 12 -18 -2 -41 -4 -50 -5 -10 0
-25 -12 -34 -25 -14 -23 -14 -28 1 -60 10 -20 33 -51 52 -70 34 -32 34 -34 14
-41 -11 -3 -21 -12 -21 -18 0 -17 -70 -79 -83 -74 -7 2 -13 13 -15 25 -2 12
-5 22 -6 22 -2 0 -33 11 -69 24 -37 13 -90 27 -119 31 -29 4 -64 15 -78 25
-36 25 -87 40 -135 40 -59 0 -103 17 -151 59 -27 23 -66 43 -110 57 -55 16
-70 25 -72 42 -2 16 -10 22 -28 22 -15 0 -24 6 -24 15 0 9 -8 19 -17 23 -14 5
-66 37 -112 69 -2 1 1 8 7 15 22 28 -11 124 -65 188 -25 31 -27 40 -28 124 -1
71 -6 102 -23 140 -18 38 -20 52 -10 63 6 8 12 24 14 36 1 12 5 43 9 70 5 29
4 47 -2 47 -6 0 -8 12 -5 26 2 14 -1 43 -8 64 -11 34 -11 40 6 58 23 24 43 89
48 153 1 25 6 50 9 55 3 5 -1 32 -8 59 -8 34 -9 54 -3 63 18 22 28 13 29 -25z
m2367 -105 l28 -56 -26 -15 c-14 -8 -38 -27 -55 -41 -16 -14 -34 -26 -38 -26
-7 0 -91 -36 -110 -47 -5 -3 -5 10 -2 29 3 18 7 41 9 50 1 10 31 45 67 78 35
33 71 67 78 75 18 17 14 21 49 -47z m-3923 28 c-14 -21 -45 -43 -45 -32 0 8
45 56 53 56 4 0 0 -11 -8 -24z m-15 -85 c17 -7 30 -19 30 -26 0 -26 -20 -65
-32 -65 -19 0 -39 -36 -32 -57 5 -15 4 -16 -5 -3 -10 13 -12 13 -20 0 -8 -12
-13 -12 -30 4 -11 10 -18 26 -16 37 2 10 -1 19 -7 19 -7 0 -2 9 10 21 12 11
20 24 17 30 -4 5 7 25 22 46 18 23 29 31 31 22 1 -8 16 -20 32 -28z m1994 -32
c-10 -16 -24 -9 -24 12 0 18 2 19 15 9 8 -7 12 -16 9 -21z m-1099 -54 c28 -8
70 -17 95 -20 25 -4 60 -11 78 -17 18 -5 72 -12 120 -14 48 -2 119 -7 158 -10
70 -6 71 -7 84 -42 7 -19 15 -71 17 -114 l5 -78 -28 -1 c-82 -4 -189 2 -273
17 -101 17 -222 28 -286 25 -51 -1 -194 26 -212 40 -34 29 -2 167 52 226 l29
30 55 -14 c31 -8 79 -20 106 -28z m1214 -1 l31 -7 -27 -35 c-23 -31 -27 -44
-26 -103 1 -37 6 -76 12 -88 7 -12 9 -21 5 -21 -17 0 -84 35 -84 43 0 6 -16
29 -35 53 -36 43 -46 66 -21 45 17 -14 31 2 22 24 -3 8 -2 15 3 15 5 0 12 12
16 27 13 53 32 61 104 47z m883 -33 c4 -1 3 -13 -2 -27 -16 -42 -11 -101 12
-149 12 -24 20 -46 17 -49 -2 -2 -62 -7 -132 -10 -100 -4 -127 -3 -119 7 12
14 29 75 37 132 12 78 53 107 140 100 22 -2 43 -4 47 -4z m668 -4 c0 -7 -9
-19 -21 -27 -11 -8 -27 -27 -35 -42 -8 -16 -21 -28 -30 -28 -8 0 -29 -7 -46
-16 -48 -25 -30 1 47 66 73 62 85 68 85 47z m-3638 -52 c-2 -14 -10 -25 -17
-25 -8 0 -21 -3 -31 -7 -26 -10 -4 25 27 42 13 7 25 13 25 14 1 1 -1 -10 -4
-24z m-169 -73 c-26 -23 -144 -193 -155 -223 -4 -10 -19 -16 -38 -17 -31 -1
-32 1 -26 30 3 17 13 45 21 61 8 17 15 34 15 38 0 4 42 49 92 100 l93 91 12
-28 c11 -26 10 -31 -14 -52z m2044 63 c0 -8 -4 -12 -9 -9 -4 3 -8 9 -8 15 0 5
4 9 8 9 5 0 9 -7 9 -15z m13 -55 c0 -5 -2 -10 -4 -10 -3 0 -8 5 -11 10 -3 6
-1 10 4 10 6 0 11 -4 11 -10z m-2002 -32 c-6 -15 -14 -28 -20 -28 -6 0 -7 7
-4 16 3 9 6 21 6 28 0 7 6 13 14 13 11 0 12 -6 4 -29z m-48 -87 c0 -29 28 -47
51 -33 10 7 26 12 35 12 15 0 15 -2 3 -17 -16 -20 -49 -88 -49 -103 0 -5 -16
-43 -35 -84 -19 -42 -40 -94 -47 -117 -13 -40 -17 -43 -123 -94 -162 -77 -214
-99 -221 -92 -9 9 19 67 32 67 7 0 19 11 27 24 9 13 22 29 29 37 8 8 32 43 55
79 47 73 57 85 101 119 32 26 52 60 52 91 0 11 9 24 21 30 13 7 18 17 15 27
-7 18 34 84 46 77 4 -3 8 -13 8 -23z m270 -46 c0 -27 -15 -41 -25 -25 -10 16
4 62 15 55 6 -3 10 -17 10 -30z m855 -2 c44 -7 98 -16 119 -19 21 -2 42 -7 47
-9 4 -3 53 -6 110 -6 115 -1 147 -15 170 -73 6 -17 18 -45 25 -63 9 -21 12
-46 8 -72 l-6 -41 -142 1 c-156 0 -212 -3 -221 -13 -4 -3 -19 -3 -33 1 -15 4
-92 9 -172 10 -195 2 -232 6 -248 28 -18 24 -11 184 11 236 l16 38 118 -2 c65
-1 154 -8 198 -16z m-2727 -116 c-17 -29 -40 -70 -51 -92 -11 -22 -30 -54 -43
-72 -13 -17 -24 -37 -24 -43 0 -16 -39 -70 -51 -70 -5 0 -9 10 -9 23 0 13 -15
38 -35 57 -29 28 -42 34 -75 33 -42 -2 -50 6 -25 27 8 7 15 18 15 25 0 19 61
105 85 121 24 15 97 32 174 40 24 2 46 6 49 9 3 2 8 2 13 -1 4 -2 -6 -28 -23
-57z m1372 -22 c13 -15 -1 -43 -70 -137 -42 -59 -58 -62 -29 -7 11 23 23 53
25 66 5 26 45 93 55 93 4 0 12 -7 19 -15z m603 -150 c-3 -8 0 -15 6 -15 23 0
26 -2 34 -22 4 -13 13 -18 22 -14 10 4 20 -3 27 -19 8 -17 17 -24 28 -20 13 4
23 -5 38 -35 l20 -41 -37 -15 c-20 -8 -81 -36 -136 -63 -55 -27 -101 -48 -102
-47 0 0 -4 24 -7 51 -3 28 -8 64 -12 81 -4 23 1 45 20 82 15 29 22 52 16 52
-5 0 -10 6 -10 14 0 9 16 18 43 24 48 10 58 7 50 -13z m1808 8 c13 -16 12 -17
-3 -4 -10 7 -18 15 -18 17 0 8 8 3 21 -13z m-996 -69 c73 -8 61 -8 174 5 95
12 155 7 180 -13 8 -6 25 -9 40 -7 46 6 143 -131 113 -161 -6 -6 -23 -10 -39
-10 -15 0 -43 -8 -61 -19 -18 -10 -48 -19 -66 -19 -19 0 -51 -6 -73 -14 -68
-24 -373 -35 -478 -17 -34 5 -43 12 -58 45 -10 21 -21 68 -24 105 -7 95 2 104
113 111 49 4 96 5 104 4 8 -1 42 -6 75 -10z m-998 -86 c8 -48 9 -96 3 -147 -9
-85 -3 -101 40 -101 19 0 33 8 44 25 16 24 101 69 248 131 35 14 69 31 76 37
9 7 21 0 47 -29 19 -21 35 -43 35 -47 0 -8 81 -98 114 -126 39 -33 58 -53 54
-57 -10 -10 -121 -25 -204 -28 -56 -2 -102 -10 -120 -19 -37 -19 -194 -67
-253 -77 -25 -4 -50 -16 -58 -26 -16 -21 -64 -120 -87 -177 l-15 -37 -41 21
c-38 20 -48 21 -118 12 -43 -6 -80 -9 -84 -7 -3 2 -5 42 -4 89 2 60 7 89 18
102 9 10 19 29 23 43 4 14 24 54 45 90 21 36 51 90 68 120 16 30 38 71 49 90
10 19 25 54 33 78 7 24 17 45 21 48 5 3 16 21 25 40 9 19 19 32 23 29 3 -4 11
-38 18 -77z m1471 -180 c7 -7 12 -9 12 -4 0 4 10 0 22 -8 12 -9 30 -16 39 -16
23 0 99 -57 99 -75 0 -8 -10 -19 -21 -26 -12 -6 -37 -26 -55 -44 -18 -18 -48
-36 -66 -40 -18 -4 -44 -15 -58 -25 -14 -9 -59 -30 -100 -45 -41 -16 -80 -33
-87 -38 -8 -6 -24 -2 -45 11 -18 11 -44 23 -57 27 -13 4 -47 23 -77 44 -58 39
-84 84 -84 146 0 33 2 35 33 36 119 2 342 32 377 50 41 22 52 23 68 7z m349
-190 c79 -38 116 -73 103 -98 -12 -22 -102 -99 -151 -128 -20 -12 -50 -22 -68
-22 -17 0 -31 -5 -31 -11 0 -5 -3 -8 -7 -6 -5 3 -35 8 -68 11 -33 3 -73 8 -89
11 -34 7 -108 47 -134 73 -19 19 -19 20 27 39 25 11 73 28 105 38 61 17 146
68 146 86 0 6 10 19 23 29 27 23 60 18 144 -22z m842 -1 l31 -13 -20 -22 c-12
-12 -23 -22 -25 -22 -6 0 -65 58 -65 65 0 10 48 5 79 -8z m1341 -12 c-18 -22
-130 -75 -157 -75 -13 0 -23 5 -23 10 0 15 99 60 130 60 14 0 32 5 40 10 21
14 24 12 10 -5z m-1176 -45 c64 -31 102 -60 76 -60 -7 0 -25 -12 -40 -27 -57
-58 -96 -90 -116 -97 -11 -3 -44 -28 -73 -54 -52 -47 -53 -50 -47 -89 7 -41
-6 -64 -41 -69 -20 -3 -51 -33 -58 -55 -10 -31 -22 -22 -35 25 -13 48 -49 91
-57 69 -3 -7 -11 -13 -19 -13 -8 0 -17 -13 -20 -30 -5 -23 -12 -30 -30 -30
-14 0 -35 -13 -50 -30 -29 -32 -46 -31 -40 3 3 12 5 25 5 30 1 4 11 7 24 7 13
0 33 14 50 34 29 38 31 44 18 65 -11 17 -51 -2 -51 -24 0 -8 -8 -19 -17 -24
-16 -8 -18 -5 -17 22 1 27 5 32 26 32 16 1 45 19 78 48 29 26 62 48 74 49 11
0 33 2 49 3 15 1 29 4 30 6 41 60 201 239 213 239 2 0 33 -14 68 -30z m921
-12 c-11 -38 -52 -95 -87 -121 -39 -30 -83 -43 -92 -28 -6 10 49 91 67 99 4 2
26 19 48 38 48 40 74 45 64 12z m-4705 -79 c0 -6 -11 -25 -25 -43 -14 -18 -25
-39 -25 -46 0 -22 -41 -60 -64 -60 -40 0 -66 12 -66 31 0 10 5 21 10 24 6 3
19 26 30 50 11 25 34 60 51 79 l30 35 30 -30 c16 -16 29 -34 29 -40z m4500 51
c0 -6 -4 -18 -9 -28 -6 -9 -24 -47 -41 -83 -28 -59 -37 -69 -75 -83 -44 -17
-125 -13 -125 6 0 6 9 21 20 35 11 14 20 31 20 38 0 17 84 79 141 104 50 22
69 25 69 11z m-1414 -21 c24 -6 44 -15 44 -20 0 -12 -40 -37 -75 -45 -34 -8
-131 -58 -157 -81 -10 -9 -18 -25 -18 -36 0 -19 -1 -19 -18 -4 -10 10 -25 17
-33 17 -9 0 -23 6 -33 13 -16 12 -16 16 -5 25 8 7 42 35 77 63 34 28 62 55 62
59 0 8 31 14 88 18 13 1 43 -3 68 -9z m-4394 -56 c4 -21 -13 -93 -35 -145 -9
-21 -14 -38 -12 -38 2 0 -2 -18 -10 -41 -8 -23 -13 -45 -10 -49 10 -16 -25
-19 -67 -6 -24 7 -56 11 -72 9 -24 -3 -27 -1 -21 14 4 10 8 25 10 33 9 41 39
118 56 142 11 14 19 30 19 35 0 5 19 18 43 30 72 37 94 41 99 16z m5246 5 c7
-7 12 -25 12 -40 0 -26 -2 -28 -42 -27 -24 1 -54 4 -67 8 -24 7 -24 7 14 39
42 34 64 39 83 20z m-630 -33 l49 -25 -42 -46 c-42 -45 -43 -46 -101 -43 -105
5 -111 10 -64 57 17 17 30 34 30 38 0 17 35 44 56 44 12 0 45 -11 72 -25z
m863 -57 c-43 -71 -50 -80 -91 -110 -23 -18 -45 -26 -65 -24 -60 6 -125 18
-125 25 0 16 60 71 85 77 15 4 30 17 35 30 7 18 19 24 57 29 26 3 66 12 88 19
22 7 42 12 44 10 2 -2 -11 -27 -28 -56z m-1130 -42 c-30 -44 -107 -106 -131
-106 -7 0 -9 8 -4 23 12 41 44 75 75 82 16 4 42 18 56 31 38 35 40 22 4 -30z
m792 17 c15 -3 27 -6 27 -8 0 -12 -40 -79 -67 -113 -33 -40 -38 -43 -82 -41
-64 3 -66 4 -69 52 -2 39 1 44 35 67 64 42 97 58 113 53 8 -2 27 -7 43 -10z
m-4046 -32 c7 -11 29 -22 52 -26 22 -3 42 -13 45 -21 3 -8 2 -14 -2 -14 -4 0
-27 -19 -52 -41 -86 -78 -129 -100 -185 -97 -49 3 -50 3 -51 38 -1 19 2 41 7
50 4 8 10 22 12 31 3 9 28 25 56 35 28 10 61 28 73 41 26 28 30 28 45 4z
m2963 4 c17 -21 8 -27 -24 -19 -21 5 -24 9 -15 20 15 18 24 18 39 -1z m-1908
-44 c17 -16 17 -19 -1 -66 -10 -28 -27 -88 -37 -135 -10 -47 -22 -88 -27 -91
-5 -4 -4 -9 2 -13 23 -14 10 -25 -24 -19 l-34 6 4 -49 c3 -27 7 -82 9 -121 l4
-73 -31 -8 c-29 -7 -38 -3 -94 42 -65 54 -72 66 -48 86 8 7 15 22 15 34 0 12
4 26 8 32 18 21 31 85 36 184 8 133 16 189 28 196 17 11 111 21 143 16 17 -2
38 -12 47 -21z m2358 -29 c0 -2 -8 -14 -18 -27 -17 -21 -20 -22 -45 -8 -16 8
-46 15 -68 16 -36 1 -38 3 -22 15 12 9 41 12 85 10 38 -2 68 -5 68 -6z m-2615
-64 c-9 -63 -14 -123 -14 -155 -1 -28 -5 -33 -24 -33 -33 0 -60 37 -65 92 -4
45 -2 50 36 88 50 50 72 53 67 8z m348 -78 c-1 -67 -31 -140 -68 -164 l-27
-18 7 69 c4 37 12 78 16 91 5 13 9 32 9 43 0 11 7 36 16 57 l15 37 17 -30 c10
-18 16 -51 15 -85z m2487 7 c0 -7 9 -31 21 -52 17 -34 19 -51 14 -114 -4 -41
-10 -84 -15 -95 -7 -20 -7 -20 -18 1 -6 11 -9 23 -7 25 3 3 -2 25 -10 49 -9
24 -16 62 -17 84 -1 58 12 126 23 119 5 -3 9 -11 9 -17z m-234 -57 c-8 -65
-49 -173 -84 -218 l-21 -27 9 35 c6 19 12 59 16 89 5 45 29 107 68 169 15 24
18 10 12 -48z m-3591 20 c3 -5 30 -10 60 -10 l54 0 -23 -42 c-13 -24 -38 -85
-57 -136 -43 -119 -79 -164 -134 -166 -40 -1 -40 -1 -37 34 4 42 41 181 52
195 4 6 11 25 15 42 3 18 11 36 16 39 6 3 14 17 19 30 10 25 24 31 35 14z
m975 -130 c0 -5 -4 -10 -10 -10 -5 0 -10 5 -10 10 0 6 5 10 10 10 6 0 10 -4
10 -10z m217 -66 c-3 -3 -12 -4 -19 -1 -8 3 -5 6 6 6 11 1 17 -2 13 -5z m84
-84 c41 -44 48 -58 59 -118 20 -111 22 -145 11 -137 -6 3 -11 11 -11 16 0 6
-20 37 -45 69 -31 40 -44 66 -41 82 2 13 -1 29 -6 36 -6 6 -7 12 -4 12 4 0 3
8 -2 18 -14 26 -23 72 -15 72 4 0 28 -23 54 -50z m-359 -80 c0 -11 1 -25 2
-30 1 -6 -18 -22 -41 -36 -36 -21 -43 -22 -43 -9 0 9 13 30 30 48 16 18 30 35
30 40 0 17 20 5 22 -13z m172 -139 c3 -20 20 -78 36 -129 39 -119 36 -144 -9
-72 -57 92 -94 145 -109 154 -12 7 -12 10 -1 17 11 6 11 12 0 32 -7 14 -10 30
-7 36 4 6 -2 23 -13 37 -12 15 -21 41 -21 58 l1 31 58 -64 c42 -45 61 -74 65
-100z m-311 9 c25 -47 45 -87 45 -90 1 -5 5 -20 22 -70 5 -14 12 -41 15 -60
l6 -35 -30 45 c-17 25 -31 48 -31 52 0 4 -22 44 -50 90 -50 82 -55 102 -44
146 8 30 14 24 67 -78z m-853 69 c0 -5 -11 -35 -25 -65 -14 -30 -25 -60 -25
-66 0 -21 -24 -78 -33 -78 -25 0 -47 23 -47 50 0 27 27 146 37 163 7 11 93 8
93 -4z m94 -61 c16 -35 19 -63 18 -220 -1 -99 -4 -183 -7 -188 -3 -5 -20 -4
-38 1 -17 5 -37 9 -44 9 -18 0 -52 -72 -59 -122 l-6 -43 72 -50 c87 -60 187
-156 297 -283 85 -98 130 -176 138 -237 3 -30 1 -37 -18 -44 l-21 -8 21 -14
c22 -13 22 -14 -18 -51 -53 -50 -50 -73 11 -74 25 0 73 -4 108 -8 39 -5 67 -4
75 2 32 27 79 21 165 -20 47 -22 95 -49 106 -60 11 -10 27 -16 35 -13 9 3 12
3 9 -1 -4 -3 2 -15 13 -27 18 -19 18 -22 3 -45 -15 -22 -15 -29 1 -86 10 -33
19 -82 21 -108 l4 -48 -530 0 -529 0 -15 28 c-8 15 -30 74 -50 131 -20 57 -42
117 -50 135 -85 191 -84 181 -72 501 8 229 11 264 25 278 6 6 11 19 11 29 0 9
14 44 30 76 17 33 30 64 30 70 0 6 15 46 34 89 19 43 40 97 47 121 7 24 18 46
25 50 7 4 24 45 38 92 26 90 52 157 68 177 15 18 31 6 52 -39z m-1148 -358
c-4 -135 -18 -180 -70 -229 l-24 -22 -5 33 c-7 37 -1 222 9 283 3 22 18 55 32
74 l25 34 18 -24 c16 -21 18 -40 15 -149z m918 135 c-3 -14 -1 -31 5 -39 12
-14 4 -40 -40 -131 -10 -22 -21 -55 -25 -73 -4 -17 -11 -32 -16 -32 -13 0 -1
70 29 170 14 47 27 95 30 108 3 12 9 22 14 22 5 0 7 -11 3 -25z m-961 -495 c7
-103 32 -239 52 -286 9 -22 18 -48 21 -59 2 -11 8 -29 13 -40 38 -79 53 -125
57 -178 9 -126 16 -161 42 -206 15 -25 34 -58 42 -72 8 -15 39 -58 67 -95 29
-38 53 -73 53 -77 0 -4 -25 -7 -56 -5 -55 3 -56 3 -69 42 -8 22 -12 43 -10 46
2 4 -6 27 -19 51 -13 24 -27 55 -31 69 -4 14 -20 52 -35 85 -57 119 -134 362
-165 521 -18 92 -15 238 6 272 19 31 26 16 32 -68z m2181 -289 c21 -41 27 -79
15 -87 -6 -3 -26 2 -45 12 -28 15 -32 22 -27 42 3 14 7 34 8 46 3 27 2 26 20
19 9 -3 22 -17 29 -32z m-104 -46 c0 -12 -19 -12 -23 0 -4 9 -1 12 9 8 7 -3
14 -7 14 -8z m69 -173 c15 -11 29 -36 36 -65 l12 -47 -35 0 c-27 0 -47 11 -91
47 -66 56 -71 62 -64 81 8 19 109 8 142 -16z m103 -42 c13 -6 29 -23 36 -37
22 -47 12 -133 -15 -133 -11 0 -13 5 -8 18 9 19 8 29 -1 84 -4 24 -13 39 -25
43 -10 4 -19 13 -19 21 0 17 2 17 32 4z m-1989 -102 c67 -88 92 -145 84 -195
-4 -19 -8 -37 -10 -40 -8 -7 -57 20 -57 32 0 7 -9 20 -20 30 -11 10 -17 21
-15 25 3 4 -2 13 -10 20 -8 7 -13 16 -10 20 3 4 -2 13 -10 20 -13 11 -31 91
-28 128 3 48 12 43 76 -40z m1968 0 c1 -7 0 -17 -1 -23 -2 -5 -4 -56 -6 -113
-3 -72 -9 -110 -20 -127 -9 -13 -15 -26 -15 -29 0 -3 -7 -22 -16 -41 -12 -24
-23 -35 -38 -35 -24 0 -21 -11 -41 177 -6 59 6 74 30 38 34 -52 56 -24 56 74
0 36 5 60 17 73 19 21 33 23 34 6z"/>
<path d="M9220 9490 c0 -5 6 -10 14 -10 8 0 18 5 21 10 3 6 -3 10 -14 10 -12
0 -21 -4 -21 -10z"/>
<path d="M9193 9436 c4 -10 7 -20 7 -22 0 -2 12 -4 26 -4 18 0 28 -6 31 -21 4
-16 11 -19 27 -14 44 14 75 17 92 7 13 -7 1 -11 -49 -16 -69 -8 -86 -18 -68
-39 13 -16 71 -21 71 -6 0 7 16 9 43 7 l42 -3 0 40 c-1 22 -5 40 -10 41 -6 0
-23 7 -40 14 -16 7 -50 14 -75 16 -25 1 -58 6 -74 10 -25 6 -28 5 -23 -10z"/>
<path d="M10680 9021 c0 -18 9 -40 20 -51 11 -11 20 -29 20 -39 0 -11 5 -23
10 -26 6 -3 10 -25 11 -48 1 -36 6 -47 40 -76 28 -24 44 -31 56 -25 26 11 37
11 50 1 9 -6 15 -4 19 8 5 12 -2 25 -25 42 -31 24 -41 58 -20 65 16 5 -7 48
-25 48 -8 0 -16 7 -20 15 -8 22 -26 19 -26 -4 0 -11 -4 -22 -10 -26 -13 -8
-42 52 -35 74 3 11 -3 25 -17 38 -41 36 -48 37 -48 4z m145 -201 c3 -5 1 -10
-4 -10 -6 0 -11 5 -11 10 0 6 2 10 4 10 3 0 8 -4 11 -10z"/>
<path d="M10680 7865 c-7 -8 -18 -15 -24 -14 -31 4 -36 -3 -36 -47 0 -33 5
-51 18 -60 14 -10 15 -15 5 -25 -7 -7 -13 -22 -13 -34 0 -24 22 -75 32 -75 11
0 20 39 13 60 -3 11 -2 20 3 20 5 0 12 -9 15 -20 3 -12 11 -18 19 -15 11 5 14
21 11 73 -3 37 -5 81 -6 99 -3 42 -19 59 -37 38z m-13 -47 c-3 -8 -6 -5 -6 6
-1 11 2 17 5 13 3 -3 4 -12 1 -19z m33 -63 c0 -8 -4 -15 -10 -15 -5 0 -10 7
-10 15 0 8 5 15 10 15 6 0 10 -7 10 -15z"/>
<path d="M7690 9106 c-49 -10 -55 -14 -58 -39 -2 -15 1 -28 7 -28 6 -1 16 -3
21 -4 6 -1 15 -3 20 -4 6 0 10 -5 10 -11 0 -5 -15 -10 -34 -10 -43 0 -56 -18
-28 -40 24 -20 93 -20 117 0 8 7 15 27 15 45 0 51 33 53 68 4 28 -40 56 -51
121 -46 73 5 63 63 -11 65 -31 1 -48 8 -61 24 -10 13 -24 31 -32 40 -16 19
-72 21 -155 4z"/>
<path d="M7332 8853 c-61 -4 -63 -5 -60 -30 2 -14 12 -31 23 -37 36 -20 49
-52 16 -41 -21 6 -46 -18 -38 -39 3 -7 19 -18 35 -24 25 -8 35 -7 61 11 25 18
31 29 31 60 0 20 5 37 11 37 6 0 34 -25 62 -55 46 -47 57 -54 96 -57 50 -3 68
14 57 56 -6 25 -9 27 -49 21 l-42 -6 -28 50 c-16 28 -29 51 -30 52 -15 4 -96
5 -145 2z"/>
<path d="M7595 8596 c-57 -10 -60 -12 -60 -41 0 -23 5 -30 24 -35 40 -9 36
-28 -8 -40 -29 -8 -41 -16 -41 -29 0 -23 19 -31 74 -31 64 0 87 33 74 105 -5
32 30 31 45 -2 34 -77 78 -105 142 -89 21 5 25 12 25 41 l0 35 -40 -6 c-37 -6
-40 -5 -50 22 -6 16 -23 41 -38 57 -29 30 -49 32 -147 13z"/>
<path d="M6483 8648 c-31 -15 -29 -35 7 -68 38 -35 38 -43 1 -35 -25 5 -33 2
-47 -19 -23 -36 -5 -55 49 -54 84 1 128 50 93 103 -16 25 -16 25 12 25 31 0
52 -16 52 -40 0 -46 122 -89 151 -54 18 22 0 47 -42 56 -19 3 -41 17 -49 29
-41 62 -44 64 -127 66 -43 2 -88 -2 -100 -9z"/>
<path d="M5642 7448 c-7 -7 -12 -20 -12 -29 0 -10 -9 -21 -20 -24 -25 -8 -27
-45 -2 -45 9 0 22 4 29 8 20 12 41 62 36 83 -6 22 -14 24 -31 7z"/>
<path d="M5517 7388 c-59 -62 -51 -85 15 -40 30 21 44 38 46 55 3 42 -10 38
-61 -15z"/>
<path d="M5616 7287 c-25 -20 -27 -26 -17 -45 15 -29 29 -28 57 6 44 50 13 81
-40 39z"/>
<path d="M4722 5538 c-7 -7 -12 -31 -12 -54 0 -47 -20 -70 -55 -66 -28 4 -85
-43 -85 -69 0 -26 29 -24 61 4 24 20 29 27 29 42 0 3 9 -4 20 -15 26 -26 25
-36 -7 -64 -18 -15 -24 -28 -20 -40 6 -16 8 -16 36 0 16 10 34 28 40 41 14 30
14 66 1 58 -14 -9 -12 2 4 28 8 12 17 44 19 71 7 69 -4 91 -31 64z"/>
<path d="M3813 4320 c-17 -7 -21 -15 -17 -40 3 -17 0 -46 -6 -65 -6 -18 -13
-45 -16 -60 -7 -42 25 -28 41 17 11 34 30 159 23 157 -2 0 -13 -4 -25 -9z"/>
<path d="M3715 4251 c5 -30 1 -49 -15 -82 -20 -39 -21 -44 -6 -54 20 -15 20
-44 0 -73 -19 -27 -11 -41 14 -26 19 12 33 58 38 124 9 131 6 150 -22 150 -13
0 -14 -8 -9 -39z"/>
<path d="M10770 6850 c-19 -22 -40 -38 -46 -36 -5 2 -19 -9 -29 -24 -11 -16
-27 -31 -37 -33 -34 -9 -9 -37 33 -37 21 0 39 -4 39 -10 0 -19 30 -10 61 17
19 17 28 34 26 45 -4 12 1 18 13 18 29 0 42 24 24 46 -11 13 -17 15 -20 7 -9
-20 -23 -15 -19 5 7 41 -11 41 -45 2z m21 -74 c-14 -17 -49 -27 -56 -16 -3 5
7 13 22 18 39 15 47 14 34 -2z"/>
<path d="M10680 6830 c0 -5 5 -10 11 -10 5 0 7 5 4 10 -3 6 -8 10 -11 10 -2 0
-4 -4 -4 -10z"/>
<path d="M9980 5922 c0 -10 -58 -35 -90 -39 -39 -5 -50 -11 -50 -26 0 -9 15
-14 46 -16 26 0 50 -4 55 -7 17 -10 9 -24 -14 -24 -13 0 -32 -9 -41 -19 -17
-18 -16 -19 2 -25 27 -9 99 21 105 43 3 12 18 21 40 25 20 4 39 11 43 17 9 15
-16 41 -30 30 -6 -4 -26 -11 -45 -13 l-34 -5 27 20 c21 15 24 22 15 33 -12 15
-29 19 -29 6z"/>
<path d="M6945 7910 c-7 -11 2 -30 13 -30 4 0 8 9 9 20 2 21 -11 27 -22 10z"/>
<path d="M6477 7012 c-36 -40 -48 -133 -21 -163 12 -13 13 -22 5 -38 -6 -11
-11 -31 -11 -46 0 -21 -4 -25 -22 -20 -36 8 -47 -6 -49 -64 -2 -43 1 -56 16
-67 27 -20 39 -3 38 54 -1 26 1 37 4 25 6 -29 38 -30 53 -4 5 11 10 35 10 53
0 19 11 49 26 71 30 44 29 73 -3 69 -15 -2 -22 4 -27 23 -7 27 8 65 25 65 17
0 6 55 -12 58 -8 1 -23 -6 -32 -16z"/>
<path d="M7925 5880 c-8 -13 3 -30 20 -30 17 0 28 -17 21 -29 -5 -8 -75 22
-119 52 -21 15 -37 -4 -30 -34 5 -17 2 -18 -21 -9 -35 13 -36 13 -36 -5 0 -29
38 -55 80 -55 22 0 40 4 40 9 0 11 89 19 93 8 1 -5 18 -9 37 -10 41 -2 49 22
13 38 -30 13 -29 25 1 25 29 0 43 17 27 33 -13 13 -118 19 -126 7z"/>
<path d="M7906 5754 c-4 -9 -5 -17 -4 -18 68 -34 80 -37 104 -21 13 8 24 17
24 20 0 3 -101 35 -113 35 -3 0 -8 -7 -11 -16z"/>
</g>
</svg>
