<?xml version="1.0" standalone="no"?>
<!DOCTYPE svg PUBLIC "-//W3C//DTD SVG 20010904//EN"
 "http://www.w3.org/TR/2001/REC-SVG-20010904/DTD/svg10.dtd">
<svg version="1.0" xmlns="http://www.w3.org/2000/svg"
 width="1500.000000pt" height="1500.000000pt" viewBox="0 0 1500.000000 1500.000000"
 preserveAspectRatio="xMidYMid meet">

<g transform="translate(0.000000,1500.000000) scale(0.100000,-0.100000)"
fill="#000000" stroke="none">
<path d="M0 7500 l0 -7500 7500 0 7500 0 0 7500 0 7500 -7500 0 -7500 0 0
-7500z m12340 0 l0 -4840 -4840 0 -4840 0 0 4840 0 4840 4840 0 4840 0 0
-4840z"/>
<path d="M7360 9054 c-64 -8 -80 -14 -80 -32 0 -14 -7 -17 -32 -16 -41 3 -66
8 -73 16 -3 3 -31 -8 -63 -23 -31 -15 -78 -37 -104 -48 -27 -11 -48 -25 -48
-31 0 -5 -6 -10 -14 -10 -8 0 -16 -3 -18 -7 -1 -5 -29 -21 -60 -37 -32 -16
-58 -33 -58 -38 0 -4 -6 -8 -13 -8 -8 0 -24 -11 -37 -25 -13 -14 -29 -25 -36
-25 -15 0 -76 -75 -99 -123 -9 -20 -39 -61 -66 -89 -27 -29 -49 -54 -49 -57 0
-3 -9 -23 -20 -45 -10 -23 -21 -53 -24 -68 -2 -14 -9 -35 -14 -45 -7 -12 -7
-25 -2 -34 12 -18 1 -120 -15 -139 -22 -26 -105 -199 -105 -218 0 -9 -6 -27
-14 -38 -11 -15 -12 -36 -6 -94 10 -88 3 -175 -16 -191 -8 -6 -14 -25 -14 -41
0 -16 -7 -45 -15 -65 -14 -33 -14 -38 1 -54 10 -11 17 -41 19 -81 7 -108 16
-157 40 -205 20 -42 23 -45 29 -25 4 12 4 26 1 32 -3 5 -3 10 0 10 14 0 41
-36 66 -89 l27 -56 13 28 c9 20 15 24 21 15 6 -9 10 -7 14 10 4 12 10 22 14
22 4 0 32 -21 61 -47 87 -77 162 -127 203 -135 26 -5 35 5 16 17 -6 4 -5 13 2
25 9 14 9 22 -2 35 -8 9 -15 24 -16 33 -2 8 -8 19 -16 23 -7 4 -9 11 -5 16 5
4 19 1 32 -7 95 -60 116 -71 125 -65 8 5 6 14 -5 31 -8 13 -11 24 -5 24 5 0
10 -4 10 -10 0 -5 7 -10 15 -10 23 0 18 17 -17 61 -17 21 -29 41 -26 45 3 3
16 -11 28 -30 12 -20 28 -36 36 -36 7 0 23 -14 36 -30 14 -20 25 -27 32 -20 6
6 3 17 -11 32 -12 13 -26 35 -32 51 -6 15 -17 27 -26 27 -8 0 -14 3 -13 8 1 4
-6 19 -15 33 -10 15 -29 80 -42 145 -14 66 -28 126 -31 134 -9 21 -16 374 -9
437 6 49 8 51 26 40 15 -9 23 -9 39 1 29 18 38 15 55 -19 13 -25 20 -29 38
-23 12 5 44 7 71 6 27 -1 56 4 64 11 8 7 27 12 41 13 15 0 32 3 38 7 18 11 4
37 -21 37 -12 0 -49 13 -83 30 -47 23 -71 29 -104 26 -24 -2 -45 -5 -46 -6 -2
-1 -7 -3 -12 -4 -5 0 -13 -4 -17 -8 -4 -5 -25 -8 -46 -8 l-38 0 0 43 c0 23 -3
51 -6 62 -4 15 0 21 13 21 10 1 55 3 99 7 45 3 84 3 88 0 3 -3 22 -7 43 -8 21
-1 57 -5 79 -9 49 -9 63 4 44 40 -15 27 -29 33 -85 35 -77 3 -76 -1 -45 98 15
48 35 101 44 117 17 29 17 29 10 -26 -4 -30 -10 -65 -15 -78 -5 -13 -9 -30 -9
-39 0 -12 3 -13 15 -3 16 13 35 6 35 -13 0 -18 58 -50 76 -43 11 4 13 13 8 28
-15 47 -8 98 14 98 9 0 9 -1 19 -119 l8 -83 28 42 c15 23 27 52 27 63 0 12 4
28 8 35 11 17 31 -49 33 -112 2 -37 6 -46 18 -44 10 2 15 12 13 25 -2 14 4 26
17 33 18 9 20 18 17 80 -2 39 -1 70 3 70 13 0 32 -104 25 -138 -4 -20 -3 -32
4 -32 16 0 35 39 28 56 -8 21 5 17 35 -12 24 -23 29 -24 48 -12 11 7 21 21 21
30 0 25 12 22 32 -7 17 -23 17 -24 -3 -30 -11 -4 -23 -4 -27 -1 -7 8 -62 -44
-62 -59 0 -21 62 -32 100 -18 19 6 52 12 72 12 20 1 39 5 43 10 6 10 111 7
145 -4 11 -4 20 -11 20 -17 0 -6 12 -32 27 -57 32 -55 39 -108 16 -133 -15
-17 -15 -19 2 -38 15 -16 17 -32 12 -108 -3 -48 -15 -112 -25 -143 -11 -29
-23 -71 -27 -92 -3 -21 -15 -53 -25 -70 -32 -53 -33 -55 -12 -82 22 -28 29
-24 47 29 6 16 15 31 21 33 13 4 0 -97 -14 -106 -4 -3 -14 -22 -22 -41 -7 -19
-19 -42 -26 -50 -7 -8 -23 -40 -37 -70 -13 -30 -31 -61 -40 -69 -10 -7 -17
-19 -17 -25 0 -32 -98 -96 -146 -96 -15 0 -32 -7 -38 -15 -17 -23 -150 -47
-236 -43 -57 3 -88 11 -132 32 -31 16 -64 26 -72 23 -21 -8 -20 -36 2 -43 9
-3 33 -14 52 -23 65 -33 127 -44 203 -37 106 10 122 13 145 25 29 15 52 14 46
-3 -3 -8 -18 -16 -35 -20 -25 -5 -29 -10 -29 -41 0 -35 23 -51 33 -22 2 6 8 8
13 4 4 -4 -4 -19 -19 -33 -29 -27 -31 -32 -19 -52 11 -16 75 5 69 23 -3 6 -1
18 4 26 7 11 9 11 9 -3 0 -11 8 -18 20 -18 12 0 20 -6 19 -12 -5 -26 14 -104
34 -140 20 -36 37 -49 37 -28 0 5 26 35 58 67 31 32 63 67 69 78 11 18 12 17
6 -9 -4 -20 -3 -27 6 -22 6 4 11 13 11 20 0 7 14 25 32 42 31 29 30 22 -4 -28
-11 -16 -15 -28 -10 -28 11 0 52 44 66 71 6 12 18 24 26 26 13 4 13 3 0 -6
-23 -16 -4 -24 29 -13 16 6 39 8 49 5 14 -3 22 1 26 15 4 11 26 36 50 56 24
19 51 51 60 71 20 42 29 45 20 8 l-6 -28 16 22 c14 18 15 30 7 58 -5 19 -6 37
-1 40 9 5 19 -27 21 -65 1 -20 4 -17 14 15 11 36 15 40 44 40 26 0 31 3 29 20
-3 21 -32 55 -47 55 -15 0 -24 41 -12 53 6 6 11 26 11 44 0 52 21 134 47 187
17 33 25 68 27 110 1 33 6 67 10 75 9 15 12 29 23 121 3 30 13 65 21 78 9 14
12 34 9 52 -4 16 -2 32 4 35 6 4 3 19 -9 39 -10 17 -22 44 -26 60 -7 30 -82
185 -108 226 -9 14 -22 45 -28 70 -6 25 -17 54 -24 65 -7 11 -25 51 -40 89
-15 38 -40 87 -55 110 -15 23 -42 66 -59 97 -66 116 -357 339 -444 339 -10 0
-21 6 -24 14 -3 8 -38 24 -77 36 -40 12 -80 26 -89 31 -22 11 -84 18 -128 13z
m-204 -217 c21 8 17 -6 -15 -61 l-29 -49 3 49 c3 78 4 79 16 67 6 -6 18 -9 25
-6z m94 -103 c0 -11 6 -13 21 -9 13 5 25 2 29 -6 7 -10 11 -10 23 0 12 10 17
9 24 -2 13 -23 78 -31 97 -11 9 8 14 20 11 25 -11 17 12 9 30 -11 l19 -21 11
21 c12 22 12 21 38 -9 18 -22 34 -31 56 -31 18 0 38 -9 49 -21 18 -19 20 -19
37 -3 13 13 16 27 11 58 l-6 41 20 -25 c84 -104 81 -102 114 -97 17 2 39 1 48
-4 21 -11 58 -63 63 -89 2 -11 7 -25 10 -30 6 -10 -31 -49 -47 -50 -4 0 -17
27 -29 60 -12 33 -27 60 -33 60 -7 0 -22 -18 -35 -40 -22 -40 -41 -52 -41 -27
0 16 -51 86 -63 87 -4 0 -15 -13 -25 -30 l-18 -29 -20 32 c-17 29 -19 30 -22
11 -4 -29 -50 -38 -76 -16 -15 13 -18 14 -12 2 4 -8 -2 -3 -14 13 -12 15 -26
27 -32 27 -7 0 -7 -4 -1 -12 6 -7 13 -26 17 -43 l6 -30 -21 25 c-12 14 -28 34
-35 45 -13 17 -16 18 -25 5 -5 -8 -8 -27 -6 -42 2 -16 0 -28 -5 -28 -4 0 -8
18 -8 39 0 44 -13 59 -35 41 -7 -6 -22 -10 -32 -8 -16 3 -18 -4 -16 -64 1 -38
-2 -68 -7 -68 -6 0 -10 20 -10 45 0 33 -4 45 -15 45 -8 0 -17 14 -21 36 -4 24
-13 38 -26 42 -17 4 -19 11 -14 41 3 20 3 46 0 59 -7 26 -34 30 -34 5 0 -14
-2 -15 -9 -4 -8 12 -6 33 5 70 5 16 54 -52 54 -75z m-191 44 c0 -13 -3 -17 -6
-10 -2 6 -11 12 -19 12 -9 0 -12 5 -9 10 12 19 35 10 34 -12z m-379 -264 c0
-19 -4 -25 -15 -20 -10 3 -15 -1 -15 -11 0 -9 -3 -13 -6 -10 -9 8 16 67 27 67
5 0 9 -12 9 -26z m349 -100 c-23 -43 -53 -94 -66 -112 -29 -38 -28 -42 9 -35
19 4 31 15 42 43 18 45 39 63 33 28 -2 -12 -12 -46 -22 -74 -16 -45 -22 -51
-48 -52 -15 0 -35 -6 -42 -12 -8 -7 -18 -9 -22 -7 -5 3 -25 -3 -46 -13 -20
-10 -39 -14 -42 -9 -14 22 9 77 51 119 24 24 44 48 44 52 0 4 5 8 11 8 7 0 5
-10 -5 -25 -18 -28 -21 -45 -6 -45 6 0 10 5 10 11 0 6 18 34 40 61 22 28 40
56 40 63 0 7 7 18 15 25 8 7 15 22 15 35 0 26 10 39 22 27 5 -5 -10 -44 -33
-88z m-197 -39 c-35 -29 -42 -31 -42 -10 0 8 9 15 19 15 11 0 23 5 26 10 3 6
11 10 16 10 6 0 -3 -11 -19 -25z m1402 -103 c28 -45 28 -74 0 -34 -18 27 -34
20 -34 -14 0 -18 22 -47 75 -100 41 -41 75 -77 75 -79 0 -3 -6 -5 -14 -5 -8 0
-16 -5 -18 -11 -2 -6 -14 -2 -30 10 -15 12 -33 18 -42 15 -17 -6 -20 6 -18 56
3 51 -26 68 -79 46 -13 -6 -17 3 -22 55 -3 34 -1 73 4 85 5 14 5 34 -1 48 -24
64 51 12 104 -72z m-350 -4 c9 -17 16 -40 16 -51 0 -11 3 -17 8 -13 7 7 8 12
11 38 1 12 12 5 13 -9 1 -4 5 -23 9 -41 7 -31 -6 -55 -20 -35 -7 12 -51 36
-69 39 -26 4 -27 15 -3 33 19 14 22 24 17 45 -9 35 -1 33 18 -6z m-64 -3 c0
-14 -4 -25 -10 -25 -11 0 -14 33 -3 43 11 11 13 8 13 -18z m-35 -53 c-11 -11
-22 11 -17 35 l5 28 8 -29 c5 -17 7 -32 4 -34z m-59 8 c0 -14 -7 -20 -24 -20
l-24 0 23 20 c13 10 24 19 24 20 1 0 1 -9 1 -20z m-1096 -74 c0 -3 -4 -8 -10
-11 -5 -3 -10 -1 -10 4 0 6 5 11 10 11 6 0 10 -2 10 -4z m-12 -183 c14 -41 4
-49 -21 -17 -13 17 -26 24 -38 21 -29 -8 -23 10 9 26 31 16 35 13 50 -30z
m455 27 c10 0 16 -4 13 -8 -3 -5 -22 -8 -43 -6 -21 2 -42 3 -48 4 -5 0 -3 5 5
10 8 6 24 8 35 5 11 -2 28 -5 38 -5z m-479 -122 c-9 -14 -34 12 -34 36 1 21 1
21 20 -3 11 -12 17 -27 14 -33z m-31 -28 c19 -1 20 -2 6 -13 -9 -7 -15 -20
-13 -29 1 -11 -3 -15 -12 -11 -8 3 -14 16 -14 28 0 13 -3 25 -7 28 -5 2 -2 2
5 0 8 -1 23 -3 35 -3z m99 -25 c10 -4 13 -18 11 -42 -4 -53 -22 -66 -21 -15 0
22 -3 45 -6 51 -8 12 -4 14 16 6z m1575 -162 c-3 -10 -5 -2 -5 17 0 19 2 27 5
18 2 -10 2 -26 0 -35z m-1558 -15 c5 -18 12 -52 15 -76 3 -24 8 -47 11 -51 7
-12 -19 -31 -31 -23 -17 12 -41 56 -46 85 -5 23 -3 27 13 22 26 -9 36 21 15
44 -9 10 -13 21 -9 24 13 14 22 6 32 -25z m1453 -275 c-3 -16 -7 -22 -10 -15
-4 13 4 42 11 42 2 0 2 -12 -1 -27z m25 -50 c-3 -10 -5 -4 -5 12 0 17 2 24 5
18 2 -7 2 -21 0 -30z m-1489 -238 c-7 -8 -48 35 -48 49 0 6 12 -2 27 -16 15
-15 24 -30 21 -33z m87 -83 c-6 -7 -35 18 -35 31 0 5 9 2 20 -8 11 -10 18 -20
15 -23z m1319 -111 c-10 -17 -22 -31 -27 -31 -8 0 -6 4 23 47 21 33 25 19 4
-16z m-271 -38 c-3 -10 -19 -36 -35 -57 l-28 -40 0 51 c0 46 3 52 23 56 43 8
46 7 40 -10z m-25 -182 c-15 -24 -28 -27 -28 -6 0 13 31 38 38 30 2 -2 -3 -12
-10 -24z"/>
<path d="M7015 8108 c-33 -4 -70 -13 -83 -20 -22 -11 -22 -13 -5 -19 10 -4 49
-5 86 -2 77 6 120 -7 154 -46 17 -19 25 -23 34 -14 19 19 -24 67 -78 89 -39
16 -59 18 -108 12z"/>
<path d="M7738 8084 c-3 -2 -29 -8 -59 -14 -37 -7 -60 -18 -76 -37 -13 -14
-23 -30 -23 -34 0 -18 19 -17 40 1 29 26 77 35 173 35 57 -1 77 3 77 12 0 8
-12 18 -27 25 -29 11 -98 19 -105 12z"/>
<path d="M7660 7994 c-28 -13 -60 -24 -71 -24 -10 0 -23 -9 -29 -20 -15 -28
15 -41 60 -25 30 10 39 10 60 -5 14 -9 50 -20 81 -23 52 -5 58 -3 69 18 8 14
29 28 56 35 50 14 61 25 44 44 -8 11 -17 12 -39 3 -22 -8 -41 -7 -82 5 -73 21
-88 20 -149 -8z m70 -34 c0 -5 -4 -10 -9 -10 -6 0 -13 5 -16 10 -3 6 1 10 9
10 9 0 16 -4 16 -10z m60 0 c0 -5 -11 -9 -25 -8 -14 1 -25 6 -25 10 0 4 11 8
25 8 14 0 25 -4 25 -10z"/>
<path d="M7244 7757 c-8 -22 14 -94 31 -101 22 -8 29 13 10 34 -10 11 -14 26
-11 38 8 24 -21 53 -30 29z"/>
<path d="M7529 7758 c0 -1 -1 -25 -2 -51 -2 -38 0 -47 13 -45 19 4 22 89 3 96
-7 2 -13 2 -14 0z"/>
<path d="M7310 7719 c0 -27 22 -49 50 -49 39 0 38 15 -2 40 -37 23 -48 25 -48
9z"/>
<path d="M7471 7711 c-26 -20 -23 -36 8 -44 26 -6 45 16 36 43 -8 24 -13 25
-44 1z"/>
<path d="M7304 7485 c-27 -14 -54 -25 -61 -25 -27 0 -45 -70 -18 -70 8 0 15
-3 15 -7 0 -5 10 -8 23 -9 12 0 95 -3 184 -7 140 -6 162 -4 167 9 9 23 9 23
-34 40 -22 9 -40 20 -40 25 0 15 -93 55 -134 58 -22 1 -42 4 -46 6 -3 2 -29
-7 -56 -20z m177 -46 c41 -21 18 -30 -75 -28 -100 2 -126 8 -104 26 7 6 22 13
33 16 28 8 123 -1 146 -14z"/>
<path d="M7315 7259 c-10 -15 20 -38 54 -41 106 -8 141 -1 141 28 0 11 -12 14
-57 13 -32 -1 -74 2 -94 6 -25 5 -39 3 -44 -6z"/>
<path d="M7021 6913 c1 -65 -2 -134 -5 -153 -8 -56 -10 -139 -3 -147 26 -26
50 114 51 295 0 101 -6 121 -36 122 -4 0 -7 -53 -7 -117z"/>
</g>
</svg>
