<?xml version="1.0" standalone="no"?>
<!DOCTYPE svg PUBLIC "-//W3C//DTD SVG 20010904//EN"
 "http://www.w3.org/TR/2001/REC-SVG-20010904/DTD/svg10.dtd">
<svg version="1.0" xmlns="http://www.w3.org/2000/svg"
 width="1500.000000pt" height="1500.000000pt" viewBox="0 0 1500.000000 1500.000000"
 preserveAspectRatio="xMidYMid meet">

<g transform="translate(0.000000,1500.000000) scale(0.100000,-0.100000)"
fill="#000000" stroke="none">
<path d="M0 7500 l0 -7500 7500 0 7500 0 0 7500 0 7500 -7500 0 -7500 0 0
-7500z m12340 0 l0 -4840 -4840 0 -4840 0 0 4840 0 4840 4840 0 4840 0 0
-4840z"/>
<path d="M5079 11571 c11 -7 11 -9 0 -14 -11 -4 -12 -7 -1 -18 7 -8 12 -9 12
-2 0 6 3 18 6 27 4 11 0 16 -12 16 -15 0 -16 -2 -5 -9z"/>
<path d="M5897 10007 c-10 -16 -12 -29 -5 -47 10 -24 17 -268 22 -700 5 -405
5 -465 5 -480 -1 -8 2 -60 5 -115 3 -55 8 -273 11 -485 5 -378 12 -848 20
-1365 16 -1008 18 -1227 10 -1287 -4 -34 17 -52 51 -44 21 6 25 4 21 -8 -3 -8
0 -19 6 -25 8 -6 310 -12 827 -16 1097 -9 1264 -12 1485 -30 28 -2 84 -7 125
-10 41 -3 106 -7 143 -10 120 -10 281 -15 300 -9 9 3 17 12 17 20 0 16 26 19
147 15 25 -1 36 -8 48 -31 13 -25 18 -28 29 -18 8 7 12 17 9 21 -3 5 3 17 13
28 14 16 15 23 6 45 -7 14 -12 57 -12 97 -1 81 0 151 1 170 0 6 -2 223 -4 481
-4 377 -8 470 -19 477 -8 5 -9 9 -2 9 9 0 11 163 8 638 -2 350 -5 639 -5 642
-2 17 -9 1128 -9 1370 1 162 1 304 0 315 0 11 0 56 1 100 1 44 3 100 3 124 1
55 -22 75 -54 46 -18 -17 -21 -17 -33 -2 -11 14 -62 15 -472 14 -253 -1 -478
1 -500 4 -36 6 -277 12 -1050 25 -137 2 -266 4 -285 3 -19 -1 -53 -1 -75 -1
-703 16 -745 19 -745 42 0 19 -30 17 -43 -3z m2013 -362 c-7 -8 -17 -15 -23
-15 -6 0 -2 7 9 15 25 19 30 19 14 0z m-110 -129 c0 -3 -4 -8 -10 -11 -5 -3
-10 -1 -10 4 0 6 5 11 10 11 6 0 10 -2 10 -4z m544 -474 c3 -5 -1 -9 -9 -9 -8
0 -12 4 -9 9 3 4 7 8 9 8 2 0 6 -4 9 -8z m-619 -133 c75 -3 145 -23 145 -41 0
-4 10 -8 21 -8 12 0 36 -9 55 -20 21 -13 35 -17 39 -10 3 6 11 8 16 4 5 -3 7
-9 4 -14 -7 -12 44 -42 58 -34 7 4 9 4 5 -1 -10 -10 39 -48 52 -40 6 3 13 -2
17 -12 4 -10 28 -39 55 -66 60 -60 80 -104 82 -189 1 -36 8 -73 14 -81 10 -12
10 -16 -2 -20 -10 -4 -12 -15 -6 -45 5 -29 2 -49 -10 -74 -9 -19 -14 -40 -12
-47 2 -7 -1 -16 -7 -20 -6 -4 -18 -46 -26 -94 -8 -47 -24 -104 -35 -125 -11
-22 -23 -48 -25 -58 -21 -89 -98 -267 -131 -305 -8 -8 -14 -24 -14 -34 0 -26
-50 -112 -96 -164 -52 -59 -77 -84 -169 -166 -130 -116 -139 -124 -180 -163
-105 -99 -164 -144 -251 -195 -43 -25 -55 -27 -99 -21 -27 3 -61 11 -75 16
-14 5 -36 12 -50 14 -14 3 -45 14 -69 25 -24 11 -49 18 -56 15 -13 -5 -82 15
-122 35 -11 6 -26 8 -32 5 -6 -4 -11 -2 -11 4 0 6 -8 14 -17 17 -21 8 -48 29
-89 70 -18 17 -34 29 -37 27 -10 -10 -19 60 -22 167 -2 59 -6 113 -10 119 -8
13 -8 199 1 229 6 19 4 22 -6 16 -10 -6 -12 -4 -6 11 5 10 9 44 11 74 2 30 8
67 14 82 6 15 8 35 5 43 -4 9 -1 15 8 15 18 0 52 65 43 81 -5 7 -4 10 3 5 11
-7 38 31 28 41 -2 3 4 15 16 27 20 20 44 74 40 88 -1 3 13 2 31 -4 17 -6 49
-13 70 -15 42 -6 45 2 26 69 -7 26 -19 43 -39 53 -42 22 -62 67 -37 86 4 3 3
26 -2 52 -7 41 -6 47 9 47 10 0 31 -7 46 -15 36 -18 74 -19 74 -2 0 7 -16 29
-36 50 l-36 37 31 17 c17 10 31 21 31 25 0 4 41 42 92 83 89 74 149 148 140
173 -2 6 4 12 13 12 10 0 13 -4 9 -12 -5 -8 3 -6 16 3 14 9 25 26 24 37 0 12
3 19 8 16 4 -3 8 -13 8 -22 0 -10 3 -13 8 -7 4 6 23 18 42 29 19 10 63 33 98
52 37 20 77 34 97 34 19 0 35 5 35 11 0 8 12 10 35 6 19 -3 37 -1 41 4 3 5 8
7 12 5 4 -2 43 -6 87 -7z m378 -133 c4 -10 1 -13 -8 -9 -8 3 -12 9 -9 14 7 12
11 11 17 -5z m762 4 c3 -6 -1 -7 -9 -4 -18 7 -21 14 -7 14 6 0 13 -4 16 -10z
m-345 -44 c0 -2 -8 -10 -17 -17 -16 -13 -17 -12 -4 4 13 16 21 21 21 13z
m-1788 -305 c13 -5 34 -12 48 -15 l25 -5 -9 -75 c-9 -70 -11 -73 -30 -62 -11
6 -26 17 -34 24 -25 23 -38 13 -32 -28 3 -22 47 -57 86 -70 29 -10 34 -15 28
-33 -7 -24 -22 -37 -42 -37 -7 0 -10 -4 -7 -10 3 -5 1 -10 -6 -10 -6 0 -9 -8
-6 -20 3 -11 2 -20 -3 -20 -4 0 -13 -15 -20 -32 -7 -18 -24 -48 -37 -66 -22
-30 -29 -33 -71 -31 -26 2 -50 7 -53 12 -4 5 -26 11 -50 14 -60 6 -70 10 -63
26 6 16 -21 47 -41 47 -11 0 -11 6 -2 29 10 26 8 32 -14 50 -13 11 -18 20 -11
21 17 0 15 35 -3 70 l-16 30 36 0 c52 0 58 24 19 77 -16 22 -9 25 28 9 26 -12
40 3 36 35 -5 34 -4 35 29 9 29 -23 47 -15 57 25 6 23 26 36 26 16 0 -5 9 -11
21 -14 15 -4 23 0 26 13 3 11 16 21 32 23 14 2 27 5 28 6 1 0 12 -3 25 -8z
m73 -191 c3 -6 -1 -7 -9 -4 -18 7 -21 14 -7 14 6 0 13 -4 16 -10z m1755 -270
c0 -5 -2 -10 -4 -10 -3 0 -8 5 -11 10 -3 6 -1 10 4 10 6 0 11 -4 11 -10z m195
-80 c-3 -5 -11 -10 -16 -10 -6 0 -7 5 -4 10 3 6 11 10 16 10 6 0 7 -4 4 -10z
m-608 -596 c-3 -3 -12 -4 -19 -1 -8 3 -5 6 6 6 11 1 17 -2 13 -5z m-682 -364
c-3 -5 -12 -10 -18 -10 -7 0 -6 4 3 10 19 12 23 12 15 0z m125 -144 c0 -3 -4
-8 -10 -11 -5 -3 -10 -1 -10 4 0 6 5 11 10 11 6 0 10 -2 10 -4z m-1035 -166
c-3 -5 -1 -10 6 -10 7 0 10 -3 6 -6 -9 -9 -28 6 -22 17 4 5 8 9 11 9 3 0 2 -4
-1 -10z m500 -570 c3 -5 1 -10 -4 -10 -6 0 -11 5 -11 10 0 6 2 10 4 10 3 0 8
-4 11 -10z m-205 -220 c0 -5 -5 -10 -11 -10 -5 0 -7 5 -4 10 3 6 8 10 11 10 2
0 4 -4 4 -10z m1787 -206 c-3 -3 -12 -4 -19 -1 -8 3 -5 6 6 6 11 1 17 -2 13
-5z m30 -200 c-3 -3 -12 -4 -19 -1 -8 3 -5 6 6 6 11 1 17 -2 13 -5z"/>
<path d="M7297 8241 c10 -16 19 -28 22 -26 2 2 10 -2 18 -10 9 -9 21 -12 36
-7 29 10 123 6 156 -7 14 -5 46 -12 71 -15 43 -5 118 -27 143 -43 7 -4 27 -13
45 -19 28 -10 32 -9 32 5 0 34 -113 96 -195 107 -27 3 -66 8 -85 9 -19 2 -46
6 -60 8 -14 2 -56 7 -95 11 -38 4 -78 10 -87 12 -17 5 -17 4 -1 -25z"/>
<path d="M7035 8124 c-12 -18 -13 -24 -4 -20 8 4 -4 -10 -27 -31 -40 -37 -77
-61 -162 -104 -24 -12 -46 -28 -49 -35 -3 -8 -10 -11 -15 -8 -7 4 -9 -6 -6
-28 3 -26 0 -34 -9 -31 -10 4 -11 -3 -6 -28 3 -19 10 -37 15 -40 6 -3 9 -9 9
-13 -1 -3 2 -5 7 -3 4 1 7 18 8 37 0 19 2 40 2 46 3 20 43 58 64 61 27 4 58
31 58 50 0 8 4 12 9 9 13 -8 95 48 119 82 23 31 29 67 13 76 -5 3 -17 -6 -26
-20z"/>
<path d="M7265 8097 c-39 -13 -40 -14 -25 -32 7 -8 9 -15 5 -15 -4 0 -14 8
-21 18 -10 13 -15 14 -25 5 -9 -9 -7 -17 12 -37 24 -26 59 -35 59 -15 0 5 4 7
10 4 5 -3 7 0 4 8 -3 8 0 18 7 23 8 5 10 3 4 -6 -5 -8 -3 -11 6 -8 8 3 28 -1
46 -9 30 -12 32 -12 26 4 -6 17 -5 17 14 0 14 -12 30 -16 49 -12 16 3 24 3 18
0 -6 -3 -9 -16 -7 -30 5 -22 3 -23 -34 -18 -32 4 -40 2 -40 -11 0 -9 9 -23 19
-33 14 -13 23 -14 41 -5 12 6 71 12 131 14 88 3 110 7 121 21 7 9 22 17 33 17
28 0 39 20 18 32 -10 5 -45 11 -79 12 -34 1 -78 9 -97 18 -69 33 -150 55 -190
51 -22 -2 -48 0 -57 5 -11 6 -30 5 -48 -1z"/>
<path d="M6863 7769 c-1 -12 1 -18 4 -15 4 3 15 -1 25 -11 14 -13 18 -13 18
-2 -1 17 -24 49 -36 49 -6 0 -10 -10 -11 -21z"/>
<path d="M6708 7552 c-34 -7 -17 -21 40 -32 56 -12 127 -28 147 -34 6 -2 24
-7 40 -11 17 -4 32 -11 35 -14 10 -13 85 -30 92 -23 5 5 0 15 -9 24 -29 24
-199 78 -268 84 -22 2 -44 5 -50 7 -5 2 -18 2 -27 -1z"/>
<path d="M6730 7415 c0 -11 68 -35 99 -35 29 0 49 14 34 23 -14 8 -133 19
-133 12z"/>
</g>
</svg>
