<?xml version="1.0" standalone="no"?>
<!DOCTYPE svg PUBLIC "-//W3C//DTD SVG 20010904//EN"
 "http://www.w3.org/TR/2001/REC-SVG-20010904/DTD/svg10.dtd">
<svg version="1.0" xmlns="http://www.w3.org/2000/svg"
 width="1500.000000pt" height="1500.000000pt" viewBox="0 0 1500.000000 1500.000000"
 preserveAspectRatio="xMidYMid meet">

<g transform="translate(0.000000,1500.000000) scale(0.100000,-0.100000)"
fill="#000000" stroke="none">
<path d="M0 7500 l0 -7500 7500 0 7500 0 0 7500 0 7500 -7500 0 -7500 0 0
-7500z m12340 0 l0 -4840 -4840 0 -4840 0 0 4840 0 4840 4840 0 4840 0 0
-4840z"/>
<path d="M7460 10519 c-33 -18 -70 -69 -70 -95 0 -6 7 -18 16 -25 14 -11 16
-10 14 6 -5 44 2 60 42 97 47 43 47 44 -2 17z"/>
<path d="M7390 10368 c-1 -26 -23 -61 -33 -51 -4 3 -7 1 -7 -5 0 -14 6 -14 35
-3 14 6 25 2 38 -12 9 -11 17 -25 17 -31 -1 -19 -24 -43 -37 -39 -25 9 -13
-24 12 -35 36 -17 45 -15 45 8 0 11 -4 20 -10 20 -5 0 -10 5 -10 10 0 7 6 7
20 0 10 -6 17 -16 15 -23 -4 -8 8 -12 39 -11 43 2 44 1 51 -34 8 -45 40 -71
87 -72 41 0 54 19 43 63 -12 45 46 115 95 117 l25 1 -25 10 c-29 12 -72 -9
-103 -48 -10 -13 -24 -23 -31 -23 -16 0 -53 35 -81 74 -36 52 -63 73 -99 80
-20 4 -40 4 -45 1 -5 -3 -17 2 -25 11 -15 14 -16 13 -16 -8z m110 -88 c0 -14
-23 -25 -28 -12 -2 7 -11 12 -19 12 -13 0 -13 3 -3 15 9 11 17 12 31 4 10 -5
19 -14 19 -19z m78 -44 c3 -36 2 -38 -12 -27 -9 8 -16 9 -16 4 0 -6 -11 -8
-25 -5 -29 5 -32 27 -8 54 28 32 57 19 61 -26z m68 -79 c-3 -18 -16 -37 -27
-37 -14 0 -11 48 4 53 16 6 26 0 23 -16z"/>
<path d="M6907 10338 c-9 -5 -17 -6 -17 -2 0 4 -9 -1 -20 -11 -25 -23 -26 -50
-2 -67 30 -21 34 -36 17 -61 -12 -18 -22 -23 -45 -19 -21 3 -32 0 -36 -12 -3
-9 -11 -13 -18 -10 -6 3 -2 -2 9 -11 19 -15 20 -15 27 7 3 13 6 18 7 12 1 -6
10 -21 20 -33 11 -13 22 -28 24 -34 6 -18 27 2 27 26 0 15 3 18 8 9 5 -7 16
-10 25 -6 9 3 15 10 12 14 -3 5 5 18 17 29 12 12 16 22 10 22 -7 1 -16 2 -22
3 -23 3 -13 22 17 31 48 16 50 24 5 18 -36 -5 -40 -3 -44 21 -3 14 -2 23 2 21
8 -5 20 18 20 40 0 18 -23 25 -43 13z m3 -42 c0 -2 -7 -9 -15 -16 -13 -11 -14
-10 -9 4 5 14 24 23 24 12z"/>
<path d="M7269 10302 c-3 -18 4 -59 13 -75 9 -17 6 -18 -26 -14 -20 3 -43 10
-51 17 -8 7 -41 14 -72 16 -32 3 -61 8 -66 13 -11 11 -37 3 -37 -10 0 -5 9 -9
20 -9 12 0 30 -9 42 -20 12 -10 24 -17 28 -15 13 8 30 -21 28 -46 -3 -21 1
-24 29 -25 34 0 63 -19 63 -39 0 -22 -39 -61 -48 -48 -10 15 -60 24 -68 12 -3
-5 -9 -7 -14 -4 -13 8 -42 -44 -35 -65 3 -10 12 -23 20 -30 19 -16 38 -3 26
17 -4 9 -6 24 -4 34 6 23 55 26 73 4 7 -8 9 -15 5 -15 -4 0 -2 -7 5 -15 17
-20 32 -19 29 3 -4 41 -1 43 37 27 20 -8 40 -12 45 -9 5 3 10 -3 11 -13 0 -10
2 -22 3 -28 2 -5 3 -19 4 -29 1 -16 4 -17 13 -8 16 16 58 15 59 0 1 -7 0 -21
-1 -31 -1 -13 4 -18 17 -16 34 6 43 -9 25 -41 -9 -17 -20 -30 -24 -30 -13 0
-40 49 -33 60 7 11 -22 27 -31 17 -3 -3 0 -16 7 -29 7 -12 12 -29 10 -37 -1
-8 3 -18 11 -22 10 -7 9 -9 -4 -9 -10 0 -18 7 -18 15 0 17 -30 35 -59 35 -29
0 -29 45 -1 53 28 7 25 20 -7 34 -42 17 -77 10 -81 -15 -4 -25 -28 -28 -56 -7
-27 20 -36 19 -36 -5 0 -10 -10 -28 -22 -40 -16 -15 -21 -30 -20 -56 2 -30 0
-35 -13 -30 -9 3 -19 6 -21 6 -2 0 -4 6 -4 13 0 8 -9 22 -21 33 -11 10 -25 26
-30 35 -7 15 -3 16 36 14 52 -2 74 14 51 38 -8 8 -12 17 -9 21 4 3 1 6 -5 6
-6 0 -37 26 -69 57 -54 54 -83 72 -83 52 0 -5 7 -9 15 -9 17 0 20 -16 5 -25
-18 -11 0 -25 24 -19 19 4 26 -1 40 -29 20 -44 21 -42 -11 -63 -26 -16 -27
-16 -14 0 13 15 13 19 0 27 -20 12 -32 7 -46 -22 -12 -21 -10 -26 11 -45 14
-12 31 -24 38 -26 7 -3 14 -20 15 -39 1 -19 2 -37 2 -41 1 -5 8 -8 16 -8 12 0
15 -10 12 -42 -5 -71 -23 -86 -52 -42 -13 21 -14 31 -6 56 10 28 7 37 -26 87
-20 31 -41 58 -46 60 -28 11 -44 42 -45 86 -1 37 2 46 13 41 8 -3 17 -1 20 4
3 5 13 7 23 4 9 -2 -1 4 -23 15 -24 12 -42 16 -46 10 -7 -13 -36 -2 -43 17 -6
14 -36 20 -36 6 0 -11 -64 -9 -72 3 -5 6 -12 4 -19 -5 -8 -11 -12 -12 -16 -2
-2 6 -11 12 -19 12 -7 0 -21 12 -31 28 -23 36 -50 62 -57 55 -3 -4 -6 -1 -6 5
0 6 -12 12 -27 14 -19 2 -29 10 -33 28 -8 33 -44 33 -55 0 -12 -39 11 -59 72
-62 46 -2 58 -7 61 -21 3 -15 -1 -17 -22 -11 -19 5 -26 2 -26 -9 0 -8 5 -17
11 -19 14 -5 -24 -78 -58 -114 -13 -13 -23 -32 -23 -44 0 -11 -6 -20 -14 -20
-16 0 -29 51 -16 64 5 5 6 14 3 22 -4 10 -9 10 -23 2 -9 -6 -25 -8 -34 -5 -20
8 -21 46 -1 53 8 4 15 12 15 20 0 23 -37 16 -58 -11 -17 -21 -18 -31 -10 -72
5 -27 12 -55 15 -63 4 -8 6 -17 5 -20 0 -3 8 -17 19 -30 15 -20 18 -21 12 -5
-6 17 -5 18 9 7 11 -9 18 -10 23 -2 3 5 1 10 -4 10 -6 0 -11 4 -11 9 0 5 11 4
25 -2 31 -15 31 -22 0 -53 -29 -29 -31 -41 -8 -66 10 -11 12 -18 4 -18 -14 0
-36 -47 -40 -87 0 -7 -10 -13 -21 -13 -17 0 -20 7 -20 39 0 34 3 40 28 46 18
5 22 9 12 12 -8 3 -20 12 -27 20 -10 13 -14 10 -28 -18 -24 -45 -28 -84 -14
-111 7 -13 13 -31 14 -40 1 -15 -1 -15 -18 -3 -13 9 -27 11 -42 5 -20 -8 -25
-4 -39 24 -16 33 -40 51 -56 41 -4 -3 -10 2 -14 10 -3 8 -15 15 -26 15 -15 0
-20 -7 -20 -25 0 -23 16 -31 52 -27 3 1 11 -5 17 -12 13 -16 4 -46 -14 -46 -6
0 -19 -8 -28 -18 -22 -24 -6 -61 40 -92 18 -12 33 -26 33 -31 0 -5 18 -9 41
-9 54 0 69 -17 62 -67 -3 -23 0 -58 7 -79 7 -21 14 -60 16 -86 2 -27 6 -53 9
-58 3 -5 0 -22 -8 -37 -8 -15 -13 -32 -12 -38 2 -5 6 -22 9 -37 5 -20 13 -28
27 -28 16 0 19 4 14 21 -4 12 -8 32 -10 45 -3 31 24 32 70 4 30 -19 35 -19 49
-5 8 9 13 22 9 31 -5 12 -7 12 -19 -3 -12 -16 -15 -16 -23 -3 -6 8 -16 15 -23
16 -32 2 -36 5 -34 22 0 9 6 20 11 24 6 4 -1 8 -15 8 -22 1 -23 2 -7 11 9 5
17 18 17 29 0 13 5 17 20 13 15 -4 19 -2 14 10 -3 8 -1 18 5 21 5 4 12 -3 16
-14 7 -22 32 -50 45 -50 4 0 7 21 6 46 -1 33 3 48 14 54 34 18 53 -18 58 -106
2 -27 8 -34 40 -47 20 -8 39 -11 40 -6 10 25 17 3 13 -42 -2 -37 1 -55 14 -69
9 -10 13 -20 8 -23 -13 -8 -52 37 -56 64 -3 15 -11 24 -23 24 -10 1 -25 5 -33
9 -10 7 -11 3 -5 -15 4 -13 8 -32 8 -41 0 -9 3 -15 7 -12 4 2 9 1 11 -3 1 -5
17 -18 35 -30 32 -23 97 -31 107 -15 3 5 15 8 28 7 13 -1 31 5 41 13 18 16 23
52 7 52 -5 0 -10 9 -10 20 0 11 -4 20 -10 20 -5 0 -7 7 -4 15 4 8 12 15 20 15
10 0 13 7 8 25 -5 21 -3 25 16 25 15 0 20 5 18 18 -4 24 19 52 43 52 22 0 23
4 9 31 -8 14 -15 17 -27 10 -16 -9 -49 6 -80 35 -14 13 3 24 38 24 21 0 54 44
44 59 -5 10 49 51 68 51 10 0 9 -68 -2 -74 -5 -4 -12 0 -14 6 -4 10 -8 9 -16
-2 -17 -24 -13 -49 14 -76 14 -14 25 -29 25 -34 0 -6 5 -10 10 -10 6 0 10 6
10 13 0 7 6 21 13 31 12 16 14 16 35 -4 13 -13 22 -33 22 -51 0 -26 -3 -29
-20 -24 -18 6 -25 -3 -21 -27 0 -5 -4 -8 -10 -8 -5 0 -7 -5 -3 -11 4 -8 9 -8
17 0 6 6 16 11 21 11 19 -1 -27 -30 -46 -30 -10 0 -18 7 -18 16 0 11 -8 14
-32 12 -32 -3 -33 -4 -30 -44 2 -34 -1 -42 -23 -54 -14 -7 -25 -20 -25 -27 0
-8 5 -11 11 -7 12 7 11 -3 -8 -98 -4 -22 4 -36 46 -81 44 -47 55 -53 82 -49
29 4 31 3 24 -19 -4 -13 -13 -31 -20 -39 -15 -17 -45 -126 -45 -164 0 -30 -14
-96 -41 -187 -10 -36 -19 -77 -19 -92 0 -14 -4 -28 -9 -31 -5 -3 -12 -20 -15
-38 -4 -18 -13 -42 -21 -52 -15 -20 -15 -20 -30 0 -8 10 -15 34 -16 52 -2 36
-2 37 -13 72 -13 43 -30 74 -58 105 -16 17 -28 33 -28 38 0 4 -7 7 -16 7 -8 0
-22 6 -29 14 -8 7 -27 12 -42 10 -33 -4 -30 -16 -37 157 -3 69 -7 147 -11 173
-3 27 -8 89 -10 139 -3 50 -8 93 -11 96 -3 4 -14 -4 -24 -17 -19 -23 -21 -78
-5 -192 2 -19 7 -93 10 -165 3 -71 8 -149 11 -172 5 -41 5 -41 -26 -39 -16 1
-30 -1 -30 -6 0 -4 -6 -8 -12 -8 -22 -1 -65 -43 -86 -85 -13 -27 -20 -59 -20
-99 1 -70 11 -105 67 -241 25 -60 31 -77 31 -91 0 -8 9 -33 19 -57 11 -23 22
-55 26 -72 3 -16 10 -48 16 -70 16 -62 16 -106 3 -170 -6 -33 -10 -63 -7 -68
2 -4 -5 -19 -16 -33 -13 -17 -21 -41 -21 -65 0 -37 -2 -39 -42 -49 -24 -6 -68
-17 -98 -25 -30 -8 -84 -22 -120 -31 -36 -9 -71 -21 -79 -27 -7 -6 -32 -12
-55 -14 -22 -1 -52 -4 -66 -6 -71 -14 -175 -27 -260 -33 -52 -3 -106 -11 -120
-17 -30 -12 -59 -16 -122 -17 -26 0 -49 -4 -53 -10 -4 -6 -11 -8 -16 -5 -5 4
-9 2 -9 -4 0 -5 -8 -10 -17 -10 -10 0 -36 -5 -58 -11 -22 -6 -60 -16 -85 -21
-45 -9 -71 -15 -80 -20 -3 -1 -9 -3 -15 -4 -5 -1 -21 -6 -35 -12 -96 -40 -139
-55 -170 -59 -19 -2 -39 -10 -45 -17 -5 -6 -19 -13 -30 -14 -42 -4 -80 -15
-86 -25 -4 -6 -11 -8 -17 -4 -6 3 -17 -1 -26 -10 -9 -8 -26 -16 -38 -17 -13 0
-25 -4 -28 -7 -3 -3 -23 -14 -45 -25 -22 -11 -54 -30 -71 -42 -17 -13 -34 -23
-39 -23 -14 0 -144 -142 -179 -195 -18 -27 -43 -59 -56 -70 -34 -30 -77 -134
-115 -279 -32 -125 -68 -225 -86 -236 -10 -7 -35 -76 -43 -117 -3 -15 -12 -50
-20 -77 -9 -27 -16 -71 -16 -98 0 -41 3 -48 18 -46 26 5 50 46 50 89 1 21 8
51 16 66 8 16 41 107 72 203 31 96 60 180 64 185 3 6 7 19 7 31 3 55 60 174
111 229 10 11 30 39 45 62 34 53 244 266 256 259 5 -3 19 3 31 14 13 11 30 20
40 20 9 0 20 4 26 9 5 6 20 12 34 15 14 3 39 9 55 12 17 4 35 10 41 15 6 5 53
22 105 39 52 16 102 34 111 40 9 5 45 14 79 19 34 6 65 14 68 18 3 5 24 10 46
11 22 2 46 9 53 14 7 6 29 13 50 15 56 6 66 8 77 15 16 10 120 27 141 24 10
-2 23 -1 29 2 5 3 31 7 56 8 26 1 62 4 80 8 19 3 59 8 90 11 56 6 56 6 73 -29
9 -19 16 -38 16 -43 0 -4 9 -19 20 -33 11 -14 20 -33 20 -42 0 -10 4 -18 8
-18 8 0 61 -109 112 -230 53 -125 111 -237 139 -267 26 -29 41 -56 47 -88 3
-19 87 -190 106 -217 11 -16 16 -28 12 -28 -4 0 1 -9 11 -20 18 -20 39 -52 51
-80 49 -113 65 -139 93 -156 17 -10 31 -21 31 -24 0 -3 25 -32 55 -65 30 -33
55 -63 55 -67 0 -10 144 -98 161 -98 8 0 23 -7 33 -15 10 -8 22 -12 26 -10 5
3 21 -2 36 -10 16 -8 40 -15 53 -15 13 0 38 -8 55 -19 28 -17 62 -25 149 -37
15 -2 36 -8 46 -13 10 -6 21 -8 24 -5 3 3 14 1 25 -5 42 -23 164 -35 209 -21
16 5 54 13 85 19 90 16 137 54 185 149 1 2 14 -9 30 -25 15 -16 46 -41 68 -57
22 -16 60 -48 85 -72 117 -111 142 -134 146 -134 3 0 15 -10 27 -23 39 -40
124 -86 165 -89 6 -1 12 -4 12 -8 0 -15 113 -30 288 -40 101 -6 187 -11 190
-12 40 -10 154 54 200 111 26 33 122 217 122 234 0 4 16 40 35 80 19 39 41
105 49 146 9 40 22 84 31 97 8 13 24 47 36 76 11 29 33 80 49 113 41 85 66
163 95 290 20 84 19 118 -4 132 -12 8 -18 21 -16 35 19 127 13 178 -20 178 -8
0 -15 5 -15 10 0 16 -31 11 -80 -12 -43 -20 -59 -22 -105 -13 -11 2 -26 4 -32
4 -22 2 -14 20 15 35 18 9 46 12 85 9 67 -6 107 2 107 20 0 14 39 50 57 53 7
1 16 -3 20 -10 5 -7 46 -32 93 -56 47 -23 97 -51 112 -61 14 -11 31 -19 36
-19 27 0 221 -192 265 -263 30 -46 68 -132 73 -163 3 -18 32 -82 91 -198 30
-60 75 -163 99 -230 25 -67 54 -140 65 -164 10 -24 17 -48 13 -53 -8 -14 38
-119 54 -119 6 0 12 -4 12 -10 0 -16 26 -11 43 8 15 16 15 21 2 46 -8 16 -15
40 -15 54 0 27 -47 132 -60 132 -5 0 -31 65 -36 90 -1 7 -17 48 -94 240 -117
290 -190 430 -264 505 -17 17 -46 47 -64 68 -18 20 -39 37 -47 37 -7 0 -22 11
-33 25 -11 14 -23 25 -27 25 -4 0 -24 14 -45 30 -21 17 -43 30 -49 30 -6 0
-11 5 -11 10 0 6 -7 10 -17 10 -9 0 -30 10 -47 23 -17 12 -61 37 -98 56 l-68
33 20 38 c49 96 55 196 20 312 -16 54 -22 98 -22 173 0 55 -4 122 -9 149 -11
60 -118 276 -169 343 -21 27 -34 33 -84 39 -39 5 -51 2 -91 -26 -38 -26 -66
-35 -139 -46 -50 -8 -116 -23 -146 -33 -30 -10 -58 -17 -62 -14 -15 8 -8 49
24 154 30 99 32 114 35 294 2 105 4 215 6 245 3 49 -5 119 -18 160 -5 17 55
86 64 73 3 -5 19 -14 34 -21 15 -6 30 -19 33 -27 8 -21 33 -19 53 4 24 27 58
35 76 17 20 -19 19 -29 -4 -50 -14 -13 -21 -14 -26 -6 -6 9 -10 9 -16 -1 -11
-19 10 -29 35 -18 30 14 66 70 66 102 0 14 5 38 12 53 10 21 10 28 -2 38 -9 6
-15 26 -14 46 1 20 -6 44 -16 55 -10 11 -23 49 -30 85 -6 36 -16 71 -22 77
-16 19 -30 5 -18 -18 6 -10 7 -19 3 -19 -4 0 -2 -5 5 -12 14 -14 16 -38 2 -38
-5 0 -16 16 -24 35 -8 19 -18 35 -21 35 -3 0 -3 -4 0 -10 3 -5 2 -17 -3 -26
-8 -14 -10 -11 -14 15 -2 17 -2 31 1 31 11 0 30 51 25 65 -3 7 4 23 16 35 17
17 19 24 9 36 -16 19 -29 103 -17 110 4 3 5 17 2 32 -8 32 -39 74 -48 65 -3
-3 -6 -1 -6 5 0 7 -4 12 -9 12 -6 0 1 -19 14 -42 27 -47 32 -88 12 -88 -8 0
-19 10 -25 23 -6 12 -23 36 -37 53 -23 28 -24 34 -11 46 17 18 7 82 -18 106
-22 23 -31 7 -19 -32 9 -29 8 -37 -6 -50 -10 -9 -21 -16 -24 -16 -12 0 -7 56
6 69 18 18 -17 42 -53 34 -20 -3 -37 2 -59 18 -25 18 -33 20 -46 9 -15 -13
-16 -11 -6 39 1 2 8 -2 16 -9 13 -11 19 -9 37 9 13 15 29 21 43 19 18 -4 21
-1 17 14 -6 25 20 24 36 -2 10 -16 16 -18 39 -9 18 6 29 7 31 1 2 -6 12 -21
23 -33 15 -18 20 -35 17 -69 -2 -25 0 -46 5 -47 4 -2 7 -2 7 0 0 1 6 22 13 47
16 57 12 90 -13 90 -10 0 -20 7 -24 15 -3 8 -12 15 -21 15 -8 0 -15 5 -15 10
0 6 -4 10 -9 10 -5 0 -22 5 -38 11 -15 7 -41 13 -57 14 -32 2 -94 63 -115 113
-7 16 -28 38 -46 48 -27 14 -32 21 -23 31 8 10 8 17 -1 26 -12 12 -34 16 -108
17 -24 0 -43 5 -43 10 0 4 -12 22 -26 39 -18 21 -35 31 -54 31 -16 0 -33 6
-37 14 -4 7 -18 18 -31 25 -19 10 -26 8 -48 -14 -14 -14 -30 -22 -37 -18 -7 4
-28 8 -47 10 -19 2 -41 5 -47 8 -21 7 -15 35 7 35 11 0 20 5 20 10 0 19 18 10
24 -12 4 -18 8 -20 18 -10 15 15 21 52 9 52 -6 0 -21 -4 -35 -9 -17 -7 -26 -7
-29 2 -3 9 -10 9 -27 -1 -28 -17 -38 -7 -21 20 10 15 10 26 1 48 -16 39 -48
53 -114 49 -31 -2 -57 -1 -59 3 -1 4 -8 3 -16 -2 -12 -7 -12 -12 -3 -23 13
-15 65 -21 56 -6 -3 5 7 4 21 -1 15 -6 39 -10 55 -10 34 0 47 -26 20 -40 -14
-8 -37 -6 -82 5 -87 21 -108 24 -108 12 0 -5 -21 -7 -54 -3 -49 5 -54 4 -60
-16 -3 -12 -4 -22 -3 -23 1 0 26 -15 54 -32 46 -28 54 -30 62 -16 8 15 11 14
32 -1 29 -20 39 -20 39 -2 0 22 49 26 69 5 11 -12 26 -17 43 -14 18 4 28 0 32
-12 8 -21 -20 -45 -43 -38 -60 18 -128 24 -160 14 -33 -11 -34 -12 -15 -26 10
-8 18 -19 16 -25 -2 -7 4 -6 13 2 13 11 18 11 24 1 5 -7 14 -13 22 -14 8 -2
25 -10 38 -19 21 -15 23 -19 10 -35 -8 -10 -20 -23 -28 -29 -10 -8 -11 -18 -4
-40 8 -25 6 -31 -17 -51 -15 -12 -27 -29 -27 -37 0 -18 13 -21 22 -6 3 6 28
10 55 10 58 0 70 14 70 83 0 43 -23 105 -44 119 -7 5 -5 13 7 25 16 16 17 16
17 -5 0 -13 6 -22 15 -22 8 0 15 7 15 15 0 8 5 15 10 15 6 0 10 -9 10 -19 0
-12 9 -21 25 -25 26 -7 32 -29 16 -55 -6 -9 -6 -22 0 -33 9 -17 11 -17 42 0
33 18 67 18 67 0 0 -5 -13 -15 -30 -21 -32 -12 -49 -37 -24 -37 8 0 12 -4 9
-10 -3 -5 -20 -7 -38 -5 -28 5 -32 3 -33 -19 -2 -27 46 -62 53 -38 3 6 11 12
19 12 12 0 19 19 15 43 0 4 6 7 15 7 11 0 13 -6 9 -20 -4 -13 6 -38 30 -75 35
-55 36 -56 79 -54 38 2 44 5 44 26 0 32 11 42 23 20 6 -11 17 -16 28 -12 11 3
28 -7 49 -30 l33 -34 -22 -22 -22 -22 -24 27 c-26 31 -64 40 -90 21 -15 -11
-15 -14 8 -37 31 -32 36 -68 10 -75 -11 -3 -25 -18 -31 -34 -7 -16 -18 -29
-25 -29 -8 0 -20 -3 -29 -6 -10 -4 -16 -1 -16 9 0 8 9 17 20 20 19 5 20 10 14
59 -4 29 -13 56 -20 60 -6 5 -10 17 -7 28 3 12 0 20 -7 20 -7 0 -18 8 -25 17
-11 15 -15 15 -29 4 -24 -20 -31 -6 -13 23 13 19 14 25 3 29 -22 9 -39 -36
-31 -82 7 -43 1 -48 -39 -32 -17 7 -17 8 -2 23 9 9 16 26 16 38 0 19 -4 21
-25 16 -25 -6 -26 -5 -24 39 2 35 -2 50 -19 67 -21 21 -21 21 -28 2 -3 -10 -8
-26 -12 -34 -3 -8 -6 -26 -7 -40 -3 -54 -6 -60 -20 -60 -8 0 -17 11 -21 24 -9
37 -39 59 -81 59 l-38 0 0 48 c0 38 4 50 20 59 19 9 19 10 -2 4 -21 -5 -23 -2
-23 30 0 20 5 36 10 36 6 0 10 11 10 25 0 14 5 25 12 25 28 0 -5 13 -38 15
-21 1 -40 8 -45 17 -13 24 -75 57 -89 48 -18 -11 -4 -76 23 -103 12 -12 31
-20 43 -19 18 3 20 -2 19 -35 -2 -46 -12 -66 -31 -59 -17 7 -39 -30 -23 -39 5
-4 15 -18 20 -32 5 -14 18 -27 29 -30 16 -4 19 -11 14 -27 -10 -33 -20 -39
-45 -24 -13 7 -26 16 -29 19 -14 19 -47 12 -68 -13 -30 -35 -25 -69 11 -86 15
-7 27 -19 27 -27 0 -23 -12 -45 -21 -39 -5 3 -9 0 -9 -5 0 -6 -5 -10 -12 -8
-7 1 -17 -8 -23 -20 -5 -13 -17 -23 -27 -23 -9 0 -29 -5 -43 -12 -24 -11 -25
-12 -9 -36 16 -24 16 -25 -4 -20 -13 4 -23 0 -26 -9 -5 -11 -2 -13 9 -9 10 3
27 -5 43 -21 16 -16 36 -26 48 -25 27 4 52 -24 36 -40 -8 -8 -15 -8 -25 0 -10
9 -16 9 -25 0 -9 -9 -19 -3 -43 25 -32 37 -32 37 -43 15 -7 -15 -22 -24 -41
-26 -17 -2 -40 -14 -52 -27 -23 -24 -63 -25 -63 -1 0 22 26 50 34 38 8 -13 36
-16 36 -4 0 4 -10 12 -22 17 -17 8 -25 24 -34 65 -6 34 -15 54 -23 52 -16 -3
-36 18 -45 46 -4 12 -13 22 -21 22 -17 0 -32 43 -16 48 6 2 9 8 5 13 -3 5 7 9
21 9 15 0 25 5 24 13 -4 29 2 47 15 47 22 0 36 -24 42 -71 3 -24 13 -50 22
-56 21 -17 25 -11 15 29 -12 44 -6 68 17 68 10 0 22 5 25 10 13 21 37 9 51
-25 16 -40 17 -40 48 -20 22 15 24 14 29 -5 6 -23 25 -27 33 -5 9 22 -21 45
-61 47 -27 1 -35 5 -35 20 0 10 -5 18 -11 18 -5 0 -7 5 -3 12 4 6 3 8 -4 4
-11 -7 -15 -4 -62 58 -35 46 -41 83 -11 66 11 -5 31 -10 46 -10 14 0 38 -6 53
-14 27 -14 28 -13 30 10 1 18 -5 27 -23 34 -14 5 -25 15 -25 21 0 26 -35 89
-52 95 -11 3 -23 17 -29 31 -6 16 -15 23 -24 19 -8 -3 -17 -1 -20 5 -4 5 -11
7 -16 4 -5 -4 -9 -2 -9 3 0 14 -62 72 -77 72 -17 0 -17 15 2 30 8 6 13 22 12
33 -1 13 4 23 13 23 8 1 21 2 29 3 11 1 11 4 2 15 -7 8 -10 29 -8 45 3 17 2
31 -2 31 -4 0 -13 15 -19 34 -11 31 -40 56 -43 38z m-52 -108 c4 -11 -46 -39
-54 -30 -3 2 -2 13 1 24 7 21 47 25 53 6z m99 -21 c-10 -10 -19 5 -10 18 6 11
8 11 12 0 2 -7 1 -15 -2 -18z m694 -93 c0 -5 -2 -10 -4 -10 -3 0 -8 5 -11 10
-3 6 -1 10 4 10 6 0 11 -4 11 -10z m-1383 -46 c15 -15 17 -34 3 -34 -5 0 -10
5 -10 11 0 23 -26 -10 -28 -36 -3 -39 -52 -100 -52 -64 0 6 -7 26 -16 45 -20
42 -14 60 28 77 41 17 59 17 75 1z m1653 -19 c-7 -9 -15 -13 -17 -11 -7 7 7
26 19 26 6 0 6 -6 -2 -15z m-1524 -36 c1 -8 2 -19 3 -26 1 -8 10 -7 32 4 26
13 33 13 40 2 10 -17 -8 -40 -27 -32 -19 7 -30 -25 -15 -49 15 -24 6 -38 -25
-38 -13 0 -24 -5 -24 -11 0 -6 7 -8 16 -5 13 5 15 2 10 -16 -3 -13 -6 -29 -6
-35 0 -7 -4 -13 -10 -13 -5 0 -10 13 -10 29 0 17 -4 33 -10 36 -5 3 -10 2 -10
-3 0 -6 -9 -8 -21 -5 -25 7 -43 -15 -27 -34 6 -7 8 -13 4 -13 -4 0 1 -11 10
-25 9 -13 13 -33 9 -44 -3 -10 -1 -22 5 -26 18 -11 11 -25 -12 -25 -23 0 -63
-20 -42 -20 7 0 14 -9 17 -19 6 -25 -20 -36 -41 -19 -37 30 -62 60 -62 73 0
19 10 19 38 -1 29 -20 39 -12 25 19 -6 13 -7 30 -3 37 10 16 2 41 -18 56 -16
11 -8 74 9 74 13 0 11 34 -2 47 -8 8 -6 18 6 36 19 30 37 38 56 26 8 -5 9 -9
3 -9 -6 0 -16 -11 -22 -25 -6 -14 -8 -25 -3 -25 5 0 11 10 14 22 4 12 9 19 13
16 10 -11 47 29 41 45 -3 9 2 13 16 12 12 -1 23 -8 23 -16z m1427 -2 c28 -20
1 -47 -40 -40 -29 5 -50 33 -35 47 10 11 58 6 75 -7z m140 -17 c-6 -24 -39
-45 -47 -31 -10 16 5 40 27 44 12 2 23 5 24 6 0 0 -1 -8 -4 -19z m64 -12 c1
-15 -2 -30 -7 -33 -6 -4 -10 -1 -10 4 0 6 -7 11 -15 11 -8 0 -15 8 -15 18 0
23 4 28 27 28 12 0 19 -9 20 -28z m-2037 -37 c0 -23 -20 1 -25 30 -4 23 -4 23
10 5 8 -11 15 -27 15 -35z m145 19 c10 -16 -16 -43 -28 -31 -11 11 -2 41 12
41 5 0 13 -5 16 -10z m1735 -13 c0 -4 5 -5 10 -2 6 3 10 2 10 -3 0 -6 6 -9 13
-9 25 2 107 -16 113 -24 3 -5 -3 -19 -12 -32 -15 -20 -22 -22 -41 -13 -13 6
-23 14 -23 19 0 4 -11 7 -25 7 -14 0 -33 4 -43 9 -9 6 -29 12 -45 16 -24 5
-26 8 -17 25 10 19 60 25 60 7z m-1710 -58 c0 -14 -6 -19 -17 -17 -19 4 -25
29 -9 40 15 10 26 0 26 -23z m728 -24 c1 -1 -4 -15 -13 -31 -8 -16 -15 -37
-15 -46 0 -26 -27 -22 -34 5 -8 29 -8 72 0 80 6 6 52 -1 62 -8z m-328 -50 c8
-10 11 -30 7 -56 -3 -23 -1 -53 4 -66 7 -20 4 -28 -18 -49 -18 -17 -30 -21
-37 -14 -5 5 -20 10 -32 10 -16 0 -21 5 -19 18 1 9 10 16 19 16 17 -2 23 32 6
38 -15 5 -21 49 -9 64 12 14 -17 48 -33 38 -6 -4 -8 1 -6 12 2 10 14 24 27 31
21 10 29 9 51 -7 15 -11 33 -26 40 -35z m199 11 c-14 -15 -22 0 -13 26 7 22 7
22 14 3 4 -11 4 -24 -1 -29z m41 2 c0 -9 -4 -20 -10 -23 -6 -4 -10 9 -10 32 0
28 3 34 10 23 5 -8 10 -23 10 -32z m1394 30 c11 1 27 -8 37 -19 16 -19 16 -22
1 -40 -20 -23 -26 -24 -19 -5 4 10 -4 18 -24 25 -16 5 -29 7 -29 3 0 -13 -20
23 -20 37 0 9 6 11 18 6 9 -4 26 -7 36 -7z m-2061 -49 c-13 -33 -1 -75 17 -64
11 7 46 -43 36 -52 -3 -3 -19 -6 -36 -5 -16 0 -30 -4 -30 -9 0 -5 -4 -9 -8 -9
-5 0 -7 23 -6 50 2 30 0 48 -6 45 -5 -3 -13 7 -16 22 -7 25 -8 25 -15 8 -7
-19 -8 -18 -8 3 -1 12 4 22 9 22 6 0 10 6 10 14 0 16 40 26 55 14 6 -5 5 -20
-2 -39z m810 -6 l-6 -36 40 5 c31 5 42 2 51 -12 9 -14 8 -21 -3 -30 -8 -7 -15
-18 -15 -25 0 -19 -30 -27 -36 -10 -3 8 -14 17 -23 20 -32 10 -50 105 -20 105
4 0 5 7 2 17 -4 10 -2 14 5 9 6 -4 8 -21 5 -43z m937 33 c0 -2 -8 -10 -17 -17
-16 -13 -17 -12 -4 4 13 16 21 21 21 13z m-1682 -38 c-3 -7 -13 -15 -24 -17
-16 -3 -17 -1 -5 13 16 19 34 21 29 4z m572 -13 c0 -14 13 -39 30 -57 17 -17
30 -35 30 -39 0 -5 4 -9 10 -9 18 0 60 -43 60 -62 0 -22 -18 -23 -42 -1 -10 9
-32 16 -49 15 -30 -1 -31 0 -25 34 6 29 4 34 -12 34 -29 0 -49 53 -32 86 17
31 30 31 30 -1z m1204 1 c7 -29 -1 -53 -27 -79 -19 -19 -20 -19 -15 -1 3 10 9
27 13 37 5 11 3 17 -7 17 -12 0 -16 25 -9 48 1 1 10 2 20 2 12 0 21 -9 25 -24z
m214 -1 c14 -17 30 -25 51 -25 36 0 39 -10 11 -35 -13 -11 -17 -22 -11 -29 5
-6 8 -28 8 -48 -1 -35 -4 -38 -29 -38 -40 0 -36 -32 7 -56 11 -6 21 -21 23
-33 3 -21 -12 -29 -23 -11 -3 6 -17 10 -30 10 -13 0 -27 5 -30 10 -5 8 -11 7
-21 -1 -17 -14 -19 1 -4 31 6 11 15 29 20 40 7 13 7 27 1 37 -5 11 -5 23 2 34
8 13 7 21 -6 33 -21 21 -27 20 -27 -4 0 -43 -49 -5 -57 44 -3 17 -2 17 21 3
24 -16 24 -16 22 18 -4 50 39 62 72 20z m-728 6 c0 -6 -4 -13 -10 -16 -5 -3
-10 1 -10 9 0 9 5 16 10 16 6 0 10 -4 10 -9z m-1025 -38 c4 -16 10 -36 15 -45
11 -20 -1 -31 -24 -22 -17 7 -18 11 -20 61 -1 41 21 44 29 6z m-185 8 c0 -5
-6 -14 -14 -20 -10 -9 -15 -8 -19 3 -3 8 -1 17 6 20 19 7 27 7 27 -3z m-202
-29 c2 -6 -11 -18 -27 -27 -19 -9 -31 -11 -31 -5 0 6 7 13 15 16 8 4 15 13 15
21 0 16 22 13 28 -5z m672 -2 c26 -26 25 -38 -2 -42 -30 -4 -34 -24 -6 -31 23
-6 38 -47 17 -47 -5 0 -9 -14 -9 -32 0 -33 -24 -68 -47 -68 -11 0 -11 5 1 29
9 16 18 48 22 71 6 34 4 42 -7 38 -8 -3 -13 -15 -11 -31 2 -19 -8 -39 -40 -74
-23 -26 -43 -49 -44 -51 -1 -2 -18 -4 -38 -6 -19 -1 -38 -4 -41 -8 -9 -8 -45
2 -45 14 0 5 -5 6 -11 2 -8 -4 -8 -9 0 -17 20 -20 13 -40 -11 -33 -13 4 -30 9
-38 10 -40 9 -59 20 -65 39 -12 35 -13 61 -5 76 5 9 2 21 -7 30 -14 13 -13 17
9 36 26 22 44 66 26 62 -6 -1 -13 4 -16 12 -3 10 0 12 12 8 10 -4 22 -7 27 -7
5 0 9 -16 9 -35 0 -29 4 -36 25 -41 20 -5 24 -11 19 -29 -13 -51 57 -101 105
-76 17 10 18 15 10 41 -18 49 -6 60 66 64 35 2 56 13 54 29 -4 35 2 87 11 87
6 0 19 -9 30 -20z m185 1 c3 -5 1 -12 -4 -15 -5 -3 -11 1 -15 9 -6 16 9 21 19
6z m638 -26 c29 -8 34 -28 16 -68 l-11 -24 -24 23 c-12 13 -32 24 -44 24 -23
0 -26 22 -5 43 15 16 20 16 68 2z m-1473 -49 c0 -19 -4 -23 -20 -19 -30 8 -25
43 7 43 7 0 13 -11 13 -24z m1310 -28 c0 -45 -8 -47 -43 -10 -36 37 -34 48 8
48 34 0 35 -1 35 -38z m470 7 c0 -8 -7 -15 -16 -15 -14 0 -14 3 -4 15 7 8 14
15 16 15 2 0 4 -7 4 -15z m-170 -54 c0 -12 -52 -33 -61 -24 -14 15 -14 50 1
68 13 16 16 16 37 -9 13 -15 23 -31 23 -35z m-204 34 c4 -8 3 -22 0 -30 -5
-14 -10 -13 -36 6 -16 13 -30 26 -30 31 0 15 60 9 66 -7z m-1433 -25 c5 -18
34 -27 70 -21 4 0 7 -20 7 -46 0 -46 0 -46 -19 -25 -11 14 -30 22 -50 22 -17
0 -31 5 -31 11 0 6 -6 9 -13 6 -10 -4 -13 2 -9 21 9 49 36 68 45 32z m800 11
c5 -1 7 -11 5 -23 -3 -24 -42 -38 -85 -30 -31 6 -29 28 2 36 14 4 25 10 25 15
0 4 10 7 23 5 12 -1 26 -3 30 -3z m1509 -55 c17 -18 17 -20 -3 -47 -18 -26
-19 -30 -4 -58 19 -38 19 -38 -5 -44 -11 -3 -18 -1 -14 4 3 5 -1 9 -10 9 -8 0
-16 -6 -19 -12 -3 -8 -9 -3 -16 12 l-11 25 3 -28 c5 -35 -24 -55 -44 -31 -9
11 -9 18 -1 26 7 7 12 23 12 36 0 18 4 22 19 17 16 -5 19 -1 16 21 -1 14 4 38
11 53 8 14 14 34 14 45 0 16 2 17 18 5 9 -8 25 -22 34 -33z m-2432 24 c0 -5 7
-10 15 -10 17 0 20 -26 4 -35 -6 -4 -13 2 -16 14 -3 12 -9 21 -14 21 -5 0 -9
5 -9 10 0 6 5 10 10 10 6 0 10 -4 10 -10z m268 -15 c27 -31 47 -34 32 -5 -13
25 6 36 45 26 33 -8 67 -73 45 -86 -8 -5 -18 -7 -22 -4 -4 3 0 -9 10 -25 11
-21 22 -29 34 -25 9 2 19 0 23 -6 4 -6 15 -8 26 -5 23 7 25 -9 7 -48 -7 -15
-20 -27 -29 -27 -24 0 -29 -10 -17 -36 8 -18 8 -27 -3 -40 -7 -9 -12 -29 -11
-44 3 -37 -36 -81 -64 -74 -12 3 -28 19 -38 35 -14 24 -15 33 -5 45 7 9 21 13
31 11 10 -3 18 -1 18 5 0 5 10 18 22 28 20 16 21 21 10 44 -7 15 -12 42 -12
60 0 18 -3 36 -7 40 -5 4 -8 13 -8 19 0 19 -80 15 -80 -3 -2 -45 -64 -82 -78
-46 -4 11 -14 12 -41 6 -19 -4 -37 -6 -39 -4 -2 3 -10 -2 -17 -11 -7 -8 -18
-15 -26 -15 -7 0 -18 -8 -23 -17 -9 -16 -10 -15 -11 8 0 14 3 29 7 33 4 4 8
16 8 28 0 11 9 26 20 32 11 6 24 16 28 21 5 6 6 0 2 -12 -5 -18 -2 -21 17 -16
13 3 30 7 38 11 8 3 22 6 30 7 8 1 28 5 43 9 34 10 34 45 0 61 -16 8 -19 15
-12 28 13 23 21 21 47 -8z m1659 17 c21 -13 -8 -58 -35 -54 -22 3 -28 -15 -23
-69 2 -21 -17 -28 -52 -22 -27 5 -35 17 -19 27 5 3 8 29 7 58 -2 52 -2 53 26
53 16 0 29 -4 29 -10 0 -5 8 -2 17 8 19 19 31 21 50 9z m-1988 -27 c13 -14 28
-25 33 -25 6 0 8 -9 5 -20 -3 -10 0 -21 7 -24 6 -2 3 -5 -6 -5 -10 -1 -18 4
-18 9 0 6 -11 10 -25 10 -25 0 -65 27 -65 44 0 8 30 35 40 36 3 0 16 -12 29
-25z m1703 -10 c3 -16 0 -22 -11 -21 -8 0 -17 -7 -19 -16 -2 -13 3 -18 18 -18
18 0 20 -4 14 -22 -9 -30 -16 -36 -21 -20 -6 17 -33 -4 -33 -25 0 -18 -69 -12
-81 8 -9 16 -1 32 12 23 18 -11 59 45 59 81 0 31 3 34 29 33 22 -1 30 -7 33
-23z m549 -2 c8 -10 9 -14 2 -10 -6 4 -14 3 -18 -3 -3 -5 -15 -10 -26 -10 -10
0 -19 -4 -19 -9 0 -5 -7 -12 -16 -15 -12 -5 -14 -1 -8 17 3 12 11 28 16 35 15
17 53 15 69 -5z m-1275 -36 c-1 -25 5 -52 14 -61 14 -18 23 -46 14 -46 -3 0
-20 7 -39 14 -33 14 -35 14 -35 -3 0 -18 -18 -31 -42 -31 -6 0 -8 13 -6 28 4
27 2 29 -29 27 -45 -2 -41 9 15 38 26 13 53 36 60 51 7 14 21 26 31 26 15 0
18 -8 17 -43z m620 -2 c-19 -28 -36 -33 -36 -9 0 18 43 57 48 43 2 -5 -3 -21
-12 -34z m218 20 c-7 -16 -24 -21 -24 -6 0 8 7 13 27 20 1 1 0 -6 -3 -14z
m-910 -10 c-4 -8 -10 -12 -15 -9 -11 6 -2 24 11 24 5 0 7 -7 4 -15z m598 -9
c-3 -17 18 -18 30 -1 13 19 19 -3 7 -29 -9 -19 -10 -35 -2 -61 6 -19 7 -35 3
-35 -10 0 -24 19 -26 35 0 6 -2 16 -2 23 -1 6 -9 12 -17 12 -10 0 -15 -10 -15
-30 0 -21 -5 -30 -17 -31 -10 -1 -25 -2 -33 -3 -8 0 -23 9 -34 22 -18 23 -18
23 8 45 14 13 26 27 26 31 0 5 8 17 17 26 23 21 59 19 55 -4z m1053 -4 c0 -18
-20 -15 -23 4 -3 10 1 15 10 12 7 -3 13 -10 13 -16z m-2425 -27 c-10 -12 -15
-13 -21 -3 -11 17 11 42 24 29 7 -7 6 -15 -3 -26z m674 26 c3 -5 -1 -11 -9
-15 -15 -6 -29 7 -18 18 9 9 21 8 27 -3z m266 -10 c0 -6 -4 -13 -10 -16 -5 -3
-10 1 -10 9 0 9 5 16 10 16 6 0 10 -4 10 -9z m724 -33 c15 -82 64 -128 85 -82
6 14 19 24 30 24 11 0 28 9 38 19 15 16 27 19 60 14 36 -5 42 -9 47 -37 5 -23
2 -34 -10 -43 -24 -17 -34 -7 -27 27 7 36 -12 40 -47 10 -13 -11 -27 -20 -32
-20 -15 0 -8 -60 12 -100 23 -45 40 -52 40 -16 0 15 12 34 31 50 38 32 43 32
57 2 12 -26 11 -28 -75 -94 -12 -9 -22 -23 -23 -29 0 -7 -2 -13 -4 -13 -2 0
-11 -3 -19 -6 -8 -3 -30 9 -52 29 -42 39 -72 39 -81 0 -5 -18 -9 -21 -15 -11
-5 7 -16 13 -26 13 -14 0 -17 8 -16 29 3 39 16 51 40 35 44 -27 71 21 38 68
-21 30 -47 19 -74 -33 -13 -24 -28 -44 -32 -44 -10 0 -7 29 4 46 8 13 -8 28
-40 38 -15 5 -25 1 -37 -16 -14 -20 -14 -23 4 -40 11 -10 20 -25 20 -33 0 -7
6 -20 14 -27 11 -11 11 -17 1 -31 -18 -25 -46 -11 -43 21 3 22 -1 27 -22 29
-36 3 -72 -6 -65 -17 3 -5 1 -12 -5 -15 -6 -4 -9 -1 -8 6 2 7 -3 14 -9 15 -7
1 -17 2 -22 3 -4 0 -11 17 -14 37 -4 20 -16 47 -28 60 -27 29 -14 31 21 4 14
-11 32 -20 40 -19 12 0 11 2 -2 10 -24 13 -23 29 2 29 22 0 28 -28 9 -47 -7
-7 -5 -15 7 -27 26 -27 39 -13 41 45 2 71 1 69 16 64 43 -15 124 -21 136 -9
13 13 8 37 -10 41 -25 7 -24 27 3 53 29 27 34 26 42 -12z m454 3 c3 -16 -1
-22 -10 -19 -7 3 -15 15 -16 27 -3 16 1 22 10 19 7 -3 15 -15 16 -27z m302 -6
c7 -8 21 -15 31 -15 23 0 34 -17 20 -34 -8 -9 -22 -11 -44 -7 -27 6 -32 12
-35 39 -3 34 8 41 28 17z m-420 -3 c0 -4 -9 -13 -20 -20 -22 -13 -27 -3 -8 16
14 14 28 16 28 4z m206 -42 c-6 -31 -42 -89 -64 -103 -9 -6 -6 -16 12 -40 13
-18 26 -41 27 -51 5 -25 21 -27 25 -3 3 25 9 30 39 30 27 0 33 15 13 35 -17
17 3 34 44 39 17 2 35 7 38 12 8 14 90 -11 90 -26 0 -8 -8 -16 -17 -19 -10 -3
-25 -9 -34 -14 -11 -6 -21 -3 -31 7 -19 19 -53 4 -63 -28 -10 -32 10 -46 34
-25 14 13 28 16 50 11 21 -4 31 -3 31 5 0 7 7 10 16 6 27 -10 74 21 74 50 0
20 3 24 13 17 13 -11 67 -27 80 -25 10 3 9 -6 -4 -30 -9 -17 -8 -23 5 -30 27
-15 19 -52 -20 -87 -19 -18 -36 -31 -38 -29 -23 37 -30 62 -18 65 20 7 14 29
-12 43 -29 15 -51 9 -65 -19 -11 -20 0 -39 35 -59 9 -5 12 -15 8 -27 -7 -17
-8 -17 -20 0 -12 16 -18 17 -39 7 -33 -15 -32 -15 -45 7 -7 15 -6 23 6 35 8 9
14 24 12 33 -3 15 -6 14 -25 -6 -16 -17 -20 -29 -14 -45 5 -11 7 -29 6 -38 -2
-10 1 -20 6 -23 16 -11 -13 -51 -57 -79 -25 -16 -46 -27 -47 -25 -25 36 -38
63 -35 77 1 9 -3 26 -9 38 -10 17 -8 22 8 33 18 10 21 9 26 -8 3 -11 14 -23
24 -26 15 -5 17 -10 9 -24 -11 -22 -4 -32 18 -24 25 8 42 34 42 60 0 23 -10
27 -58 23 -13 -1 -21 4 -20 10 4 16 -41 23 -58 9 -8 -6 -14 -20 -14 -31 0 -16
-5 -19 -22 -14 -13 3 -28 6 -35 6 -6 0 -13 17 -15 38 -2 30 -7 37 -23 35 -11
-1 -26 0 -33 2 -20 7 4 45 29 45 23 0 38 29 20 40 -7 4 -13 13 -14 21 -2 8 -6
20 -11 27 -13 21 0 39 33 45 28 6 31 9 25 33 -6 22 -4 26 9 21 8 -3 21 1 27 9
20 24 33 16 26 -16z m-1521 -3 c18 -15 24 -28 20 -40 -9 -22 -22 -22 -65 1
-53 27 -50 55 7 61 7 0 24 -9 38 -22z m271 -15 c1 -31 1 -31 -27 -16 -34 17
-34 18 -13 39 23 23 39 14 40 -23z m1138 22 c9 -22 8 -24 -9 -18 -8 4 -15 12
-15 20 0 19 16 18 24 -2z m-56 -21 c6 -15 12 -54 12 -87 l-1 -61 -17 28 c-9
15 -26 27 -38 27 -17 0 -20 5 -18 28 4 44 9 59 23 76 18 22 24 20 39 -11z
m503 -22 c24 -27 24 -30 7 -34 -10 -3 -18 -1 -18 5 0 5 -24 8 -57 5 -68 -5
-93 0 -93 19 0 18 32 32 38 16 5 -16 31 -15 62 3 33 19 32 19 61 -14z m-2477
1 c2 -4 -4 -13 -15 -20 -15 -10 -19 -10 -19 1 0 24 23 36 34 19z m216 -37 c0
-6 -9 -17 -20 -25 -14 -10 -16 -16 -7 -22 8 -5 7 -8 -5 -8 -10 0 -18 7 -18 15
0 8 -3 15 -7 16 -22 2 -45 8 -50 12 -10 10 8 46 25 49 22 4 82 -23 82 -37z
m318 6 c-2 -9 -11 -17 -21 -19 -21 -4 -35 27 -17 38 19 12 42 0 38 -19z m180
-4 c4 -29 -9 -35 -27 -13 -13 16 -4 49 13 43 6 -2 12 -16 14 -30z m-668 9 c0
-7 -7 -19 -15 -26 -13 -11 -15 -8 -15 14 0 16 5 26 15 26 8 0 15 -6 15 -14z
m776 -27 c28 -14 57 -66 51 -90 -8 -31 11 -33 64 -6 27 13 49 20 49 15 0 -4 7
-8 15 -8 9 0 19 -8 22 -17 4 -10 14 -23 24 -30 11 -8 15 -21 12 -38 -7 -33
-15 -31 -33 7 -20 43 -51 53 -85 27 -14 -12 -24 -28 -23 -36 2 -9 -3 -18 -9
-20 -7 -3 -13 0 -13 6 0 6 -13 11 -30 11 -37 0 -54 27 -35 54 11 14 11 21 2
31 -7 7 -15 11 -20 8 -4 -2 -14 11 -22 30 -8 19 -21 37 -30 40 -8 4 -15 15
-15 26 0 18 3 19 28 11 15 -6 36 -15 48 -21z m-831 -7 c3 -8 1 -20 -5 -26 -12
-12 -32 5 -37 33 -2 14 2 18 17 14 10 -3 21 -12 25 -21z m711 -28 c0 -23 -25
-56 -37 -48 -5 3 -9 1 -9 -5 0 -33 55 -21 64 14 4 14 11 25 17 25 7 0 9 -9 5
-22 -21 -72 -18 -158 6 -158 6 0 8 11 6 25 -7 37 8 40 46 11 19 -14 36 -22 40
-19 3 4 6 1 6 -5 0 -7 11 -12 24 -12 14 0 27 -4 30 -9 3 -5 14 -11 23 -13 14
-4 18 2 19 24 1 37 13 48 41 38 15 -6 20 -15 16 -29 -3 -12 -11 -21 -19 -21
-33 0 -36 -84 -4 -107 13 -9 20 -26 20 -47 0 -30 15 -56 32 -56 13 0 9 63 -6
92 -8 16 -17 44 -20 63 -5 29 -3 35 12 35 19 0 42 -18 42 -32 0 -4 -7 -8 -16
-8 -8 0 -12 -4 -9 -10 11 -17 43 -11 41 8 0 9 -3 19 -6 22 -3 3 -13 17 -22 32
-21 31 -7 41 30 22 35 -18 84 1 53 20 -11 7 -3 46 9 46 5 0 15 3 24 6 12 5 16
0 16 -21 0 -20 -4 -26 -15 -22 -8 4 -17 2 -20 -3 -7 -11 32 -33 45 -25 6 3 10
2 10 -3 0 -5 10 -13 22 -19 22 -9 21 -11 -19 -36 -23 -14 -44 -31 -48 -37 -7
-12 32 -49 53 -50 14 0 16 -26 2 -35 -15 -9 -12 -35 3 -35 8 0 22 9 31 19 23
26 13 81 -14 81 -40 0 -32 32 13 49 35 14 34 35 -2 51 -21 8 -27 17 -24 31 6
23 26 24 57 3 23 -14 25 -14 31 7 6 17 2 27 -15 41 -12 10 -28 18 -35 18 -7 0
-15 6 -18 14 -6 14 -30 16 -43 3 -13 -13 -25 -7 -33 16 -6 16 -4 23 8 28 8 3
18 15 21 27 6 27 28 15 33 -18 4 -26 47 -43 47 -19 0 7 11 2 25 -11 14 -13 25
-32 25 -42 0 -10 4 -18 9 -18 4 0 6 -11 3 -25 -3 -18 0 -25 12 -25 9 0 16 -4
16 -10 0 -5 7 -10 15 -10 20 0 19 39 -1 68 -14 21 -14 23 13 32 15 6 36 15 46
20 13 8 17 7 17 -5 0 -8 -6 -15 -14 -15 -26 0 -27 -18 -5 -59 22 -43 41 -51
79 -37 10 4 22 -4 33 -24 10 -16 24 -30 31 -30 8 0 19 -7 26 -15 10 -13 11
-18 1 -28 -10 -9 -15 -8 -25 6 -15 20 -62 23 -69 5 -3 -7 -6 -3 -6 10 -1 16
-7 22 -24 22 -13 0 -32 6 -42 14 -21 15 -55 10 -55 -9 0 -6 -13 -24 -30 -38
-20 -18 -30 -37 -30 -55 0 -38 10 -48 53 -56 43 -8 48 -29 16 -70 -18 -22 -22
-24 -35 -12 -8 8 -14 18 -14 23 0 11 -37 34 -61 38 -21 4 -26 -19 -7 -31 7 -5
8 -3 3 6 -5 8 -3 11 6 8 8 -3 13 -12 11 -19 -2 -8 0 -11 4 -7 10 11 33 -23 34
-48 0 -13 -10 -25 -25 -32 -25 -12 -55 -7 -55 9 0 5 -6 9 -14 9 -8 0 -24 12
-35 26 -21 26 -27 21 -15 -10 3 -9 13 -16 21 -16 13 0 13 -3 3 -15 -8 -10 -18
-12 -28 -6 -8 5 -23 6 -32 4 -12 -3 -20 2 -25 16 -3 12 -13 21 -21 21 -8 0
-13 3 -13 8 5 30 -3 35 -22 12 -18 -22 -21 -22 -17 -5 3 18 -2 20 -63 19 -65
-1 -66 -1 -61 24 3 17 1 23 -7 18 -6 -4 -11 -14 -11 -22 0 -17 -52 -12 -58 6
-2 5 -8 8 -13 4 -5 -3 -9 1 -9 9 0 18 57 40 65 26 4 -5 13 -9 21 -9 18 0 19
54 0 69 -8 7 -12 21 -8 33 3 15 1 19 -9 16 -19 -7 -53 32 -39 46 19 19 10 23
-30 16 -22 -4 -42 -5 -45 -2 -3 3 -13 7 -22 8 -8 2 -28 8 -43 14 -25 10 -28
16 -23 45 4 27 1 35 -16 45 -12 6 -30 8 -40 5 -26 -8 -34 21 -15 51 10 14 14
36 12 54 -4 29 -4 30 31 27 27 -3 36 -9 37 -23z m-340 7 c-3 -5 1 -11 9 -15
17 -6 20 -37 4 -53 -11 -11 -56 -6 -65 9 -12 19 6 57 29 61 12 2 23 5 25 6 2
0 1 -3 -2 -8z m742 -58 c4 -29 -25 -37 -39 -11 -9 16 -8 22 2 29 20 12 34 6
37 -18z m-776 -71 c12 -23 14 -33 6 -38 -7 -4 -14 -2 -16 4 -5 17 -22 15 -22
-3 0 -8 -5 -15 -11 -15 -5 0 -7 -6 -3 -12 5 -10 4 -10 -6 -1 -17 15 -16 63 1
74 8 5 10 9 6 9 -5 0 -5 5 -2 11 10 16 27 6 47 -29z m1628 -22 c8 0 5 -58 -3
-66 -11 -12 -66 10 -70 28 -4 13 -13 19 -29 18 -13 -1 -33 -2 -46 -1 -22 1
-22 2 10 35 43 44 66 47 100 14 16 -16 33 -28 38 -28z m-366 15 c24 -22 36
-40 33 -49 -5 -14 -11 -13 -43 6 -34 20 -57 54 -47 71 7 12 16 8 57 -28z m112
-1 c24 -24 34 -42 31 -55 -6 -21 8 -24 47 -9 33 12 35 -4 3 -24 -18 -12 -23
-26 -25 -63 -1 -25 -7 -50 -13 -54 -13 -8 -96 18 -105 33 -10 16 2 22 61 27
21 2 -19 27 -67 41 -55 17 -83 46 -31 34 15 -4 33 -11 39 -15 6 -5 19 -3 29 5
16 12 17 16 6 30 -17 20 -32 86 -20 86 5 0 26 -16 45 -36z m-1026 -13 c0 -30
-25 -55 -49 -48 -25 6 -41 -17 -23 -35 6 -6 8 -24 5 -39 -3 -18 -1 -29 6 -29
6 0 11 5 11 12 0 16 37 -19 61 -59 17 -27 19 -36 9 -48 -18 -22 -28 -18 -32
12 -2 17 -10 29 -20 31 -13 2 -16 -1 -12 -12 3 -9 2 -16 -4 -16 -18 0 -31 26
-25 50 l6 23 -21 -21 c-23 -23 -42 -29 -42 -12 0 6 -12 15 -26 20 -21 8 -25
15 -22 35 6 31 -17 34 -25 4 -8 -29 1 -46 24 -52 17 -5 19 -9 9 -26 -7 -15 -8
-27 0 -40 18 -34 11 -44 -15 -20 -13 13 -25 28 -25 32 0 5 -7 16 -16 24 -11
11 -14 26 -9 47 3 17 7 45 9 61 2 17 4 33 5 37 1 4 11 8 23 10 13 2 29 15 36
31 11 23 18 27 35 22 55 -17 70 -18 65 -4 -6 18 21 38 44 31 10 -2 18 -12 18
-21z m1350 -4 c0 -31 -14 -57 -31 -57 -4 0 -6 19 -4 43 4 51 2 47 20 47 10 0
15 -10 15 -33z m-1699 -91 c-20 -36 -81 -25 -81 14 0 16 5 18 29 14 17 -4 32
-1 36 6 5 8 10 9 18 1 7 -7 7 -18 -2 -35z m1792 35 c14 -1 16 -5 7 -20 -14
-27 -47 -36 -65 -17 -25 25 -19 45 13 41 15 -2 35 -4 45 -4z m411 -52 c8 7 15
5 23 -8 9 -15 6 -21 -19 -36 -29 -17 -30 -17 -19 2 9 18 7 20 -17 15 -15 -3
-24 -1 -20 3 12 13 -15 34 -29 23 -17 -14 -16 -34 3 -63 14 -22 14 -27 -1 -58
-19 -40 -6 -93 20 -83 16 6 20 -11 9 -38 -5 -14 -9 -13 -32 2 -37 23 -42 32
-32 58 7 16 4 26 -10 39 -11 10 -17 22 -14 26 3 5 -2 12 -10 15 -9 3 -16 16
-16 27 0 48 -4 59 -27 68 -30 11 -32 46 -2 44 11 -1 24 -6 27 -12 11 -16 46
-12 60 8 7 10 28 19 50 21 35 3 37 2 40 -30 3 -25 6 -31 16 -23z m-504 22 c0
-41 -21 -79 -47 -84 -24 -4 -25 -3 -19 32 3 20 13 42 23 48 9 7 13 13 7 13 -5
0 -2 4 6 9 18 12 30 5 30 -18z m-120 -22 c0 -13 -12 -21 -41 -29 -48 -13 -56
-9 -41 24 17 38 82 42 82 5z m-1212 6 c-2 -5 10 -22 25 -38 16 -15 25 -32 22
-37 -3 -6 3 -10 13 -10 21 0 34 -20 24 -37 -9 -13 -52 2 -52 18 0 6 -11 20
-25 31 -14 11 -25 28 -25 38 0 10 -9 20 -21 23 -12 3 -19 9 -16 14 7 12 57 10
55 -2z m102 -32 c0 9 3 17 8 17 12 0 83 -62 78 -68 -3 -3 -1 -10 4 -17 7 -8 5
-12 -5 -12 -8 0 -15 4 -15 9 0 4 -3 7 -7 6 -5 -1 -18 3 -30 10 -20 11 -23 10
-23 -3 0 -14 -2 -14 -13 -3 -22 21 -35 52 -29 67 4 12 8 11 18 -4 13 -17 14
-17 14 -2z m1512 -25 c-8 -8 -15 -9 -22 -2 -6 6 -8 19 -4 28 6 16 8 16 22 2
13 -12 14 -18 4 -28z m-854 4 c55 -7 38 -25 -35 -35 -12 -2 -26 -6 -29 -10
-12 -12 -32 -8 -38 8 -8 22 4 47 20 41 8 -3 14 -1 14 5 0 7 7 8 18 4 9 -5 32
-10 50 -13z m123 -14 c12 0 15 -6 11 -23 -4 -23 -6 -24 -32 -10 -36 19 -50 50
-17 39 12 -4 29 -7 38 -6z m476 -17 c-4 -24 -2 -29 11 -24 10 3 22 12 29 20
14 18 33 9 33 -17 0 -12 -6 -17 -17 -16 -10 2 -28 -1 -40 -7 -12 -5 -33 -7
-46 -3 -20 5 -24 10 -19 28 5 23 29 47 45 48 5 0 6 -13 4 -29z m511 15 c-7 -8
-15 -12 -17 -11 -5 6 10 25 20 25 5 0 4 -6 -3 -14z m-281 -20 c-4 -13 -65 -32
-73 -23 -3 3 0 13 7 21 15 17 71 18 66 2z m358 -8 c10 -45 10 -73 0 -78 -5 -3
-12 6 -13 20 -2 14 -8 29 -13 35 -14 15 -11 45 6 45 8 0 17 -10 20 -22z m-816
-11 c17 -1 21 -6 17 -20 -3 -14 3 -22 25 -30 43 -17 35 -27 -17 -22 -57 5 -62
10 -39 35 19 21 19 21 -10 10 -16 -6 -34 -9 -42 -6 -7 3 -13 1 -13 -5 0 -6 -5
-7 -12 -3 -7 5 0 17 22 37 22 20 35 25 40 18 4 -7 17 -13 29 -14z m710 2 c28
-23 31 -68 6 -105 -17 -26 -35 -32 -36 -11 -1 28 -10 103 -13 120 -5 23 13 21
43 -4z m-903 -16 c-8 -20 42 -72 53 -55 11 19 41 3 40 -22 0 -11 -3 -15 -6 -8
-7 17 -23 15 -23 -3 0 -8 11 -17 25 -21 34 -8 31 -32 -6 -48 -17 -7 -30 -17
-29 -22 1 -5 -3 -10 -9 -12 -6 -2 -12 7 -12 20 -1 15 -3 17 -6 7 -2 -9 -14
-19 -27 -21 -21 -4 -23 -1 -22 34 0 28 -4 42 -16 49 -10 5 -19 8 -21 7 -2 -2
-11 3 -21 11 -9 8 -19 11 -23 8 -3 -4 8 -14 26 -24 34 -20 39 -34 17 -52 -10
-8 -16 -9 -21 -1 -3 5 -15 10 -26 10 -10 0 -18 6 -16 13 1 6 -5 12 -13 12 -9
0 -16 -10 -17 -25 0 -14 -1 -31 -2 -37 -2 -25 -40 -14 -47 13 -5 19 -12 24
-25 21 -14 -4 -19 0 -19 14 0 43 46 100 64 81 4 -3 13 -7 21 -8 22 -3 18 24
-5 36 -28 15 -25 27 10 35 19 4 41 1 61 -9 42 -21 56 -20 71 3 13 22 33 17 24
-6z m254 2 c-12 -15 -30 -12 -30 6 0 5 10 9 21 9 18 0 19 -2 9 -15z m484 -33
c2 -10 3 -33 1 -52 -2 -19 -4 -41 -4 -47 -2 -24 -21 -13 -21 12 0 14 -9 30
-20 37 -24 16 -26 54 -3 66 21 12 41 5 47 -16z m-134 -7 c0 -6 10 -17 23 -23
18 -9 19 -11 4 -11 -10 -1 -16 -5 -12 -10 3 -5 -10 -8 -29 -6 -29 2 -36 -1
-39 -19 -3 -19 -4 -19 -15 7 -14 34 -32 35 -32 2 0 -27 -14 -34 -23 -11 -6 14
39 71 54 71 5 0 13 5 19 11 14 14 50 6 50 -11z m-300 11 c0 -3 -4 -8 -10 -11
-5 -3 -10 -1 -10 4 0 6 5 11 10 11 6 0 10 -2 10 -4z m55 -6 c4 -6 16 -10 28
-8 20 3 22 -1 22 -52 l0 -55 -43 -1 c-32 -1 -45 4 -52 17 -14 24 -12 40 3 38
27 -3 37 2 37 21 0 11 -7 20 -15 20 -9 0 -12 6 -9 15 7 17 20 19 29 5z m115
-11 c0 -6 -4 -7 -10 -4 -5 3 -10 11 -10 16 0 6 5 7 10 4 6 -3 10 -11 10 -16z
m497 -68 l-10 -26 -7 30 c-3 17 -2 44 4 60 l10 30 7 -34 c4 -19 3 -46 -4 -60z
m-1934 54 c24 -17 15 -49 -19 -71 -16 -11 -24 -26 -24 -46 0 -46 -21 -121 -40
-143 -17 -19 -23 -45 -35 -135 -3 -19 -7 -46 -10 -60 -3 -14 -8 -51 -11 -83
-3 -31 -11 -81 -18 -111 -12 -52 -19 -143 -20 -258 0 -31 -4 -54 -7 -52 -4 2
-12 -19 -18 -46 -14 -64 -14 -80 0 -80 8 0 9 -11 4 -32 -4 -18 -9 -61 -11 -95
-1 -34 -7 -70 -12 -80 -5 -10 -9 -58 -8 -106 1 -60 -3 -92 -11 -99 -7 -6 -13
-28 -13 -50 0 -31 4 -41 19 -45 12 -3 28 -26 41 -56 12 -29 39 -72 59 -97 21
-25 44 -56 51 -69 12 -23 68 -76 79 -76 9 1 42 -26 94 -77 26 -27 57 -48 68
-48 10 0 19 -6 19 -14 0 -8 9 -18 20 -21 11 -3 20 -11 20 -16 0 -5 9 -9 21 -9
13 0 23 -10 31 -30 8 -24 15 -29 29 -25 18 6 19 0 19 -70 0 -50 -5 -87 -16
-107 -9 -17 -13 -40 -10 -52 4 -11 11 -73 16 -136 5 -63 15 -133 23 -155 8
-22 17 -64 21 -94 7 -57 38 -119 84 -166 16 -17 35 -47 43 -67 12 -35 11 -39
-7 -55 -29 -26 -76 -58 -99 -68 -41 -16 -237 -4 -262 17 -7 6 -13 7 -13 3 0
-4 -6 -3 -12 3 -7 5 -39 24 -70 41 -72 39 -158 94 -180 115 -10 9 -21 16 -24
16 -3 0 -11 6 -18 13 -7 6 -28 26 -47 43 -19 17 -48 47 -66 67 -18 19 -38 39
-46 44 -7 4 -29 30 -48 58 -18 27 -40 56 -46 63 -7 7 -13 19 -13 27 0 7 -4 15
-9 17 -5 2 -58 98 -116 213 -59 116 -118 224 -131 242 -13 17 -24 35 -24 39 0
4 -11 22 -25 40 -14 18 -25 38 -25 44 0 7 -6 24 -14 38 -56 104 -126 275 -126
307 0 27 36 56 73 60 12 2 42 9 67 16 25 7 51 14 59 15 8 2 25 5 38 9 35 8 30
-19 -22 -121 -28 -55 -45 -101 -45 -123 0 -20 -9 -49 -20 -66 -11 -16 -20 -36
-20 -44 0 -21 25 3 54 54 14 23 32 45 40 48 7 3 26 38 42 79 15 40 34 83 42
94 7 12 15 35 18 50 3 16 13 52 23 79 32 87 42 118 60 183 9 35 19 61 23 57 3
-3 18 5 33 19 16 15 40 26 54 26 39 0 49 11 52 54 3 33 0 40 -18 47 -18 6 -25
4 -33 -11 -6 -11 -20 -20 -31 -20 -29 0 -79 31 -79 50 0 8 -9 30 -20 48 -11
18 -20 38 -20 45 0 6 -16 54 -35 106 -40 108 -39 101 -22 101 15 0 36 -23 62
-68 14 -23 25 -30 44 -28 34 2 46 -11 55 -57 6 -31 10 -36 21 -27 7 6 16 29
20 51 4 21 10 39 14 39 3 0 6 42 6 93 -1 112 -19 157 -64 157 -46 0 -97 -70
-86 -118 3 -16 17 -32 32 -39 32 -16 41 -10 19 12 -21 21 -13 34 18 28 32 -6
37 -22 20 -62 -11 -27 -17 -31 -36 -25 -33 10 -70 43 -101 89 -23 36 -25 48
-20 95 3 30 9 60 13 65 4 6 10 27 13 48 6 47 15 58 28 34 6 -9 14 -15 19 -12
11 7 7 -12 -13 -59 -20 -45 -18 -51 15 -40 13 4 26 9 31 10 4 1 9 3 12 4 6 3
22 7 34 9 17 2 20 31 6 64 -16 38 -29 51 -82 78 -36 19 -37 19 -78 -1 -27 -13
-47 -32 -58 -55 -19 -40 -22 -96 -7 -111 15 -15 30 -73 21 -79 -16 -9 -34 52
-38 130 -4 87 2 101 59 137 29 19 138 19 174 0 10 -6 27 -13 36 -16 10 -3 20
-20 24 -43 3 -21 12 -47 19 -58 12 -19 29 -82 24 -87 -5 -6 23 -50 28 -45 3 3
20 -3 39 -13 46 -26 83 -11 84 33 0 10 13 52 29 92 17 41 35 100 40 132 6 32
13 69 16 83 3 14 10 63 16 110 7 55 20 99 35 126 13 22 24 48 24 58 0 21 28
76 38 76 4 0 15 -7 25 -15z m1417 -40 c0 -8 -4 -15 -10 -15 -5 0 -10 7 -10 15
0 8 5 15 10 15 6 0 10 -7 10 -15z m580 -3 c0 -5 -7 -17 -16 -28 -14 -17 -15
-17 -10 -1 3 10 6 23 6 28 0 5 5 9 10 9 6 0 10 -4 10 -8z m-850 -22 c0 -11
-29 -40 -41 -40 -14 0 -11 14 8 37 17 20 33 22 33 3z m90 -44 c-8 -11 -29 -16
-59 -16 l-46 1 39 35 38 36 21 -20 c17 -18 18 -23 7 -36z m-366 -5 c3 -5 -1
-14 -10 -21 -11 -10 -18 -10 -27 -1 -9 9 -9 14 3 21 19 12 27 12 34 1z m706
-71 c0 -11 -4 -20 -10 -20 -5 0 -10 9 -10 20 0 11 5 20 10 20 6 0 10 -9 10
-20z m-42 -48 c4 -25 -19 -30 -37 -9 -8 10 -7 17 1 25 17 17 32 10 36 -16z
m-168 -20 c0 -5 -11 -14 -25 -20 -24 -11 -25 -10 -15 8 10 20 40 28 40 12z
m-592 -21 c6 -1 12 -8 12 -17 0 -8 4 -12 10 -9 6 3 7 -1 4 -9 -7 -18 -24 -22
-24 -6 0 6 -10 10 -23 10 -12 0 -28 9 -34 19 -11 18 -10 19 15 16 15 -2 33 -4
40 -4z m90 -33 c-2 -6 -10 -14 -16 -16 -7 -2 -10 2 -6 12 7 18 28 22 22 4z
m327 -4 c14 -9 25 -23 25 -30 0 -21 -31 -30 -44 -13 -6 8 -20 19 -31 25 -10 6
-20 15 -22 20 -5 16 47 15 72 -2z m-125 -6 c-1 -16 -39 -63 -45 -56 -3 3 -2
19 1 36 5 22 12 32 25 32 11 0 19 -6 19 -12z m260 -13 c0 -25 -14 -33 -25 -15
-4 6 -15 8 -26 5 -13 -4 -19 -2 -19 9 0 13 17 20 58 25 7 0 12 -10 12 -24z
m-400 -5 c0 -5 -4 -10 -10 -10 -5 0 -10 5 -10 10 0 6 5 10 10 10 6 0 10 -4 10
-10z m623 -36 c16 -6 12 -38 -6 -61 -14 -19 -30 -16 -23 3 5 14 4 15 -8 5 -8
-7 -19 -10 -24 -7 -6 3 -13 -5 -16 -18 -5 -21 -14 -26 -54 -31 -26 -4 -59 -16
-74 -26 -27 -19 -28 -19 -28 -1 0 23 19 42 42 42 10 0 18 5 18 10 0 6 11 10
24 10 36 0 67 15 101 48 17 16 31 30 32 31 1 1 8 -2 16 -5z m-434 -46 c1 -5
-8 -8 -19 -8 -23 0 -24 4 -8 33 11 21 11 21 19 2 4 -11 8 -23 8 -27z m41 16
c0 -8 -6 -14 -14 -14 -9 0 -12 7 -9 20 6 22 23 18 23 -6z m-185 6 c3 -5 1 -10
-4 -10 -6 0 -11 5 -11 10 0 6 2 10 4 10 3 0 8 -4 11 -10z m-524 -35 c21 -4 39
-11 39 -17 0 -6 9 -8 20 -5 11 3 20 1 20 -4 0 -5 7 -9 15 -9 8 0 15 -7 15 -16
0 -10 -6 -14 -15 -11 -8 4 -17 2 -21 -4 -3 -6 -10 -6 -17 -1 -7 5 -36 15 -65
22 -28 6 -54 16 -57 20 -3 5 -21 7 -40 4 -35 -4 -57 12 -35 26 13 8 76 6 141
-5z m149 -65 c0 -5 -4 -10 -10 -10 -5 0 -10 5 -10 10 0 6 5 10 10 10 6 0 10
-4 10 -10z m70 -64 c0 -3 -4 -8 -10 -11 -5 -3 -10 -1 -10 4 0 6 5 11 10 11 6
0 10 -2 10 -4z m-221 -254 c39 -3 49 -7 37 -14 -9 -5 -16 -21 -16 -36 0 -15
-5 -34 -10 -42 -8 -12 -10 -11 -10 8 0 12 -6 22 -13 22 -23 0 -82 35 -81 48 1
6 2 17 3 23 0 7 8 8 19 4 9 -4 41 -10 71 -13z m239 -96 c24 -15 50 -25 57 -22
8 3 15 1 17 -4 2 -5 19 -11 38 -13 19 -3 47 -10 63 -16 15 -6 27 -8 27 -5 0 4
7 1 15 -6 8 -7 22 -10 30 -6 8 3 15 2 15 -2 0 -12 95 -42 134 -42 21 0 46 -5
57 -11 22 -11 51 -17 149 -28 36 -4 76 -13 89 -20 13 -7 36 -10 52 -7 20 4 31
1 38 -11 8 -15 10 -15 26 1 12 12 21 14 29 6 7 -5 15 -8 17 -6 3 3 31 6 64 7
33 1 66 6 73 12 7 5 15 7 18 4 3 -3 22 0 42 7 21 7 54 13 75 14 20 1 46 6 56
12 11 5 35 10 55 10 19 0 50 9 68 19 50 29 95 35 121 18 12 -8 36 -40 52 -72
17 -32 39 -74 49 -94 27 -51 47 -127 51 -191 5 -87 14 -160 29 -230 8 -36 12
-68 10 -72 -3 -4 -25 -10 -49 -14 -25 -3 -48 -10 -51 -15 -3 -5 -18 -9 -33 -9
-50 0 -93 -12 -99 -29 -3 -9 -20 -28 -36 -44 l-31 -27 28 -21 c15 -11 25 -24
22 -28 -9 -15 32 -8 130 21 55 17 105 38 112 47 26 35 20 -1 -16 -109 -37
-111 -39 -115 -67 -116 -43 -1 -104 -15 -104 -24 0 -4 -11 -11 -25 -14 -14 -4
-49 -24 -78 -46 -28 -22 -55 -40 -59 -40 -16 0 -8 -38 9 -44 35 -14 214 -25
259 -17 55 11 60 4 46 -71 -6 -29 -11 -84 -11 -123 -1 -38 -3 -77 -6 -86 -3
-10 -2 -20 3 -23 11 -6 3 -64 -9 -72 -5 -3 -9 -14 -9 -25 0 -11 -9 -38 -20
-60 -12 -22 -18 -44 -15 -49 3 -5 0 -12 -6 -15 -9 -6 -50 -87 -53 -105 -1 -3
-13 -30 -28 -60 -24 -51 -39 -90 -44 -115 -4 -22 -57 -171 -64 -180 -4 -5 -13
-28 -20 -50 -18 -59 -98 -216 -123 -243 -54 -57 -70 -61 -276 -66 -106 -3
-200 -1 -209 4 -9 5 -55 18 -102 30 -47 12 -86 25 -88 31 -2 5 -10 9 -17 9 -8
0 -18 6 -22 13 -4 7 -23 23 -41 36 -19 13 -44 33 -56 45 -145 139 -240 221
-249 214 -2 -2 -28 20 -58 49 -30 28 -65 61 -79 73 -14 11 -67 62 -117 111
-91 88 -94 93 -117 172 -13 45 -30 107 -37 137 -14 61 -17 340 -5 465 4 44 9
137 12 207 5 146 9 202 23 313 6 44 16 123 22 175 6 52 22 137 35 188 13 51
24 101 24 111 0 18 20 68 39 101 5 8 26 49 47 91 20 42 42 76 48 75 6 -1 31
-14 54 -30z m712 -21 c10 -12 9 -18 -5 -31 -14 -15 -18 -15 -26 -3 -23 37 3
67 31 34z m70 -17 c0 -9 -16 -18 -39 -23 -14 -2 -18 1 -14 15 3 11 13 17 29
16 13 0 24 -4 24 -8z m-2492 -711 c6 -7 25 -49 42 -92 16 -44 39 -98 49 -120
11 -22 37 -79 59 -126 21 -47 59 -117 84 -155 39 -61 108 -194 108 -210 0 -3
11 -20 24 -37 13 -18 36 -58 52 -89 15 -32 32 -58 36 -58 4 0 19 -25 33 -55
42 -88 187 -275 214 -275 4 0 31 -23 61 -51 30 -28 64 -55 75 -60 27 -12 150
-90 172 -109 25 -21 105 -48 198 -67 17 -4 71 -6 120 -6 79 1 97 4 145 30 79
41 110 63 110 79 0 12 5 11 25 -2 14 -9 25 -25 25 -35 0 -35 -34 -89 -69 -110
-73 -43 -214 -63 -277 -39 -15 6 -52 13 -82 15 -30 3 -60 9 -66 14 -15 12 -98
31 -108 25 -4 -3 -8 -1 -8 4 0 6 -12 13 -27 17 -16 3 -46 14 -68 24 -85 38
-100 45 -105 46 -29 7 -49 18 -45 25 6 10 -64 80 -80 80 -6 0 -19 11 -29 25
-10 13 -23 22 -29 18 -5 -3 -7 -2 -4 4 4 6 -28 46 -71 89 -42 44 -86 97 -97
119 -11 22 -23 41 -27 43 -6 3 -105 201 -171 342 -12 25 -35 68 -52 95 -29 47
-43 75 -45 93 -1 4 -7 14 -15 22 -7 8 -27 45 -44 81 -18 37 -35 70 -38 73 -4
4 -8 14 -9 22 -2 14 -32 76 -115 238 -29 56 -28 73 4 79 12 2 25 5 28 6 4 0
11 -5 17 -12z"/>
<path d="M6851 9804 c0 -11 3 -14 6 -6 3 7 2 16 -1 19 -3 4 -6 -2 -5 -13z"/>
<path d="M8556 9705 c4 -8 13 -15 21 -15 12 0 12 2 -1 15 -8 8 -17 15 -20 15
-3 0 -3 -7 0 -15z"/>
<path d="M6340 9390 c0 -5 7 -10 16 -10 8 0 12 5 9 10 -3 6 -10 10 -16 10 -5
0 -9 -4 -9 -10z"/>
<path d="M8860 9223 c0 -25 15 -38 25 -22 4 6 0 18 -9 27 -15 15 -16 15 -16
-5z"/>
<path d="M7299 9012 c10 -19 15 -21 27 -11 18 15 18 23 0 16 -7 -3 -19 0 -26
6 -10 10 -10 7 -1 -11z"/>
<path d="M7497 8933 c-6 -16 -19 -33 -27 -40 -13 -10 -12 -15 9 -37 31 -33 43
-33 31 0 -11 29 -15 28 50 8 12 -4 20 -2 20 5 0 7 -4 10 -9 7 -5 -3 -21 4 -35
15 -26 20 -31 47 -11 61 6 5 5 8 -3 8 -7 0 -18 -12 -25 -27z"/>
<path d="M7520 8809 c0 -5 5 -7 10 -4 6 3 10 1 10 -4 0 -6 4 -11 10 -11 5 0 7
7 4 15 -7 17 -34 21 -34 4z"/>
<path d="M8830 8934 c0 -8 5 -12 10 -9 6 4 8 11 5 16 -9 14 -15 11 -15 -7z"/>
<path d="M7926 7164 c-3 -8 -10 -13 -15 -10 -5 4 -23 -10 -40 -31 -45 -55 -32
-68 76 -78 48 -4 135 -8 193 -9 79 -1 129 -9 204 -29 54 -15 117 -26 140 -26
22 1 55 -1 72 -5 28 -6 32 -4 43 23 9 21 10 35 3 48 -10 17 -11 17 -18 0 -6
-16 -8 -16 -18 -2 -6 9 -26 18 -44 20 -18 2 -39 11 -48 20 -20 19 -68 20 -84
0 -20 -25 -45 -17 -58 18 -12 30 -14 31 -26 14 -14 -18 -15 -18 -35 0 -12 9
-21 23 -21 30 0 16 -41 27 -80 21 -17 -3 -30 0 -30 6 0 6 -5 4 -10 -4 -7 -10
-10 -11 -10 -2 0 16 -69 10 -80 -8 -5 -8 -9 -7 -13 4 -9 22 -92 22 -101 0z"/>
<path d="M8041 6921 c-41 -26 33 -48 184 -55 152 -7 199 -18 245 -55 46 -36
50 -37 50 -11 0 11 -4 20 -10 20 -5 0 -10 8 -10 18 0 19 -51 48 -100 56 -14 3
-25 5 -25 6 0 1 -13 3 -30 5 -16 2 -53 6 -81 9 -29 4 -63 2 -78 -3 -16 -7 -27
-7 -31 -1 -4 6 -26 8 -50 6 -24 -2 -46 0 -47 5 -2 5 -9 5 -17 0z"/>
<path d="M9186 6870 c-32 -4 -61 -12 -65 -17 -3 -4 -18 -16 -33 -26 -68 -43
-4 -60 67 -19 24 15 58 24 93 26 56 3 78 19 51 37 -16 10 -29 10 -113 -1z"/>
<path d="M8243 6822 c-7 -4 -49 -7 -93 -7 -44 1 -80 -1 -80 -5 0 -3 -16 -4
-35 -2 -29 3 -35 1 -35 -15 0 -31 29 -62 83 -90 29 -14 74 -37 100 -50 49 -25
145 -33 207 -18 14 3 54 7 89 10 36 2 69 9 74 14 5 5 0 25 -14 49 -25 43 -84
80 -133 84 -14 1 -26 8 -26 14 0 13 -24 13 -36 1 -12 -12 -24 -8 -24 9 0 12
-3 14 -13 6 -8 -7 -18 -7 -27 -2 -18 12 -22 12 -37 2z m257 -120 c0 -9 -6 -12
-15 -8 -8 3 -30 -3 -48 -13 -17 -10 -38 -16 -46 -13 -7 2 -17 -2 -22 -9 -6
-10 -9 -11 -9 -1 0 6 -7 12 -15 12 -8 0 -15 3 -15 6 0 11 28 33 34 27 3 -3 9
7 12 24 l6 30 59 -20 c34 -12 59 -27 59 -35z"/>
<path d="M8917 6779 c-22 -13 -23 -66 -1 -97 23 -34 34 -18 30 44 -5 64 -6 66
-29 53z"/>
<path d="M9005 6418 c-4 -11 2 -32 16 -55 26 -41 27 -97 4 -124 -8 -8 -15 -23
-15 -32 0 -9 -11 -24 -25 -33 -14 -9 -25 -20 -25 -25 0 -12 36 -12 58 0 9 5
25 12 35 15 9 3 17 15 17 26 0 11 7 32 16 45 15 23 15 37 0 95 -3 8 -5 18 -5
21 -1 4 -16 24 -35 45 -29 33 -36 36 -41 22z"/>
<path d="M8798 6213 c-21 -5 -24 -32 -5 -37 6 -2 29 -9 50 -16 47 -14 62 -3
38 27 -19 23 -54 34 -83 26z"/>
<path d="M8825 5933 c-35 -8 -200 -55 -209 -61 -5 -3 -25 -6 -44 -8 -44 -4
-60 -25 -29 -38 23 -9 49 -13 133 -19 28 -3 56 -7 61 -10 17 -11 107 -20 176
-18 69 1 115 15 152 45 20 16 20 17 -12 44 -47 40 -174 77 -228 65z m105 -68
c13 -14 21 -27 18 -30 -11 -11 -105 -11 -153 1 -39 9 -46 13 -30 19 11 4 29
11 40 15 64 27 96 26 125 -5z"/>
<path d="M8920 5642 c0 -14 -74 -28 -115 -21 -30 5 -42 3 -52 -10 -7 -10 -8
-20 -2 -26 14 -14 156 -10 174 5 17 14 21 60 5 60 -5 0 -10 -4 -10 -8z"/>
<path d="M7010 10171 c0 -6 4 -13 10 -16 6 -3 7 1 4 9 -7 18 -14 21 -14 7z"/>
<path d="M6749 10160 c-1 -8 -1 -19 0 -24 1 -5 -3 -12 -10 -16 -7 -5 -7 -10
-2 -13 15 -9 33 37 22 54 -7 12 -9 12 -10 -1z"/>
<path d="M6965 10130 c3 -5 8 -10 11 -10 2 0 4 5 4 10 0 6 -5 10 -11 10 -5 0
-7 -4 -4 -10z"/>
<path d="M6990 10120 c0 -5 9 -14 20 -20 16 -8 18 -8 14 4 -6 17 -34 30 -34
16z"/>
<path d="M7393 10093 c2 -16 6 -35 9 -43 3 -8 9 -23 12 -32 3 -10 10 -18 16
-18 6 0 4 14 -5 36 -8 20 -15 47 -15 60 0 13 -4 24 -10 24 -5 0 -8 -12 -7 -27z"/>
<path d="M7473 10098 c-2 -19 1 -20 59 -22 39 -1 48 10 26 32 -14 14 -32 16
-24 3 3 -5 -8 -6 -27 -1 -28 6 -33 4 -34 -12z"/>
<path d="M6890 10080 c0 -5 5 -10 10 -10 6 0 10 5 10 10 0 6 -4 10 -10 10 -5
0 -10 -4 -10 -10z"/>
<path d="M7601 10032 c-11 -4 -9 -8 6 -21 28 -22 42 -128 19 -137 -21 -8 -20
-26 2 -55 20 -27 16 -89 -5 -97 -7 -2 -13 1 -13 7 0 6 -9 11 -20 11 -26 0 -25
-12 3 -38 29 -28 29 -28 65 6 20 18 32 42 37 71 6 38 5 43 -14 48 -26 7 -28
23 -2 23 20 0 51 25 51 40 0 5 -12 8 -27 7 -24 -2 -28 2 -28 23 -1 63 -40 123
-74 112z"/>
<path d="M7554 10012 c-8 -11 -25 -17 -57 -17 -46 0 -66 -16 -30 -23 10 -2 27
-12 38 -23 31 -28 69 -29 73 -1 2 14 -2 22 -12 22 -16 0 -11 29 7 41 5 4 5 9
0 12 -5 3 -14 -2 -19 -11z"/>
<path d="M7559 9869 c-6 -28 -3 -49 7 -49 19 0 24 27 8 40 -8 7 -14 11 -15 9z"/>
<path d="M7570 9775 c0 -8 2 -15 4 -15 2 0 6 7 10 15 3 8 1 15 -4 15 -6 0 -10
-7 -10 -15z"/>
<path d="M7577 9514 c-3 -4 -22 -8 -41 -9 -19 -1 -48 -8 -66 -15 -27 -11 -30
-16 -24 -39 4 -14 8 -46 9 -69 3 -52 15 -67 38 -49 17 11 17 15 2 49 -19 47
-19 77 0 83 8 3 23 8 33 12 9 3 28 7 42 8 15 0 26 8 28 18 3 17 -9 23 -21 11z"/>
<path d="M7420 9365 c0 -8 4 -15 10 -15 5 0 7 7 4 15 -4 8 -8 15 -10 15 -2 0
-4 -7 -4 -15z"/>
<path d="M3860 6860 c0 -5 5 -10 11 -10 5 0 7 5 4 10 -3 6 -8 10 -11 10 -2 0
-4 -4 -4 -10z"/>
</g>
</svg>
