<?xml version="1.0" standalone="no"?>
<!DOCTYPE svg PUBLIC "-//W3C//DTD SVG 20010904//EN"
 "http://www.w3.org/TR/2001/REC-SVG-20010904/DTD/svg10.dtd">
<svg version="1.0" xmlns="http://www.w3.org/2000/svg"
 width="1500.000000pt" height="1500.000000pt" viewBox="0 0 1500.000000 1500.000000"
 preserveAspectRatio="xMidYMid meet">

<g transform="translate(0.000000,1500.000000) scale(0.100000,-0.100000)"
fill="#000000" stroke="none">
<path d="M0 7500 l0 -7500 7500 0 7500 0 0 7500 0 7500 -7500 0 -7500 0 0
-7500z m12340 298 l0 -4541 -25 23 c-22 21 -35 24 -105 24 -49 1 -84 -3 -88
-10 -5 -7 -49 -10 -132 -8 -69 1 -139 3 -157 3 -23 1 -31 5 -27 14 9 25 -554
8 -595 -18 -6 -3 -40 1 -76 10 -39 9 -73 12 -83 7 -9 -5 -70 -10 -136 -11 -65
-2 -137 -8 -160 -15 -27 -8 -53 -9 -76 -4 -52 13 -90 29 -86 37 6 10 -253 7
-289 -3 -16 -5 -35 -13 -41 -18 -22 -17 -88 -15 -138 5 -64 24 -160 19 -229
-11 -61 -27 -112 -20 -130 16 -6 15 -23 29 -37 33 -38 10 -321 0 -352 -13 -15
-5 -35 -8 -43 -4 -9 3 -57 -8 -107 -25 -82 -28 -98 -30 -167 -24 -42 4 -84 11
-93 16 -30 16 -120 30 -132 20 -15 -12 -163 -13 -171 -1 -3 5 -24 7 -48 4 -23
-3 -89 -6 -147 -7 -58 -1 -109 -5 -115 -8 -5 -4 -54 -10 -108 -13 -55 -4 -104
-9 -111 -12 -15 -6 -53 116 -61 191 -3 28 -6 56 -7 63 -1 6 -5 12 -10 12 -12
0 -10 37 8 136 9 49 19 114 23 144 l6 55 38 3 c32 3 39 8 51 37 10 23 13 54 9
97 -11 126 -6 181 24 258 20 53 22 277 4 495 -6 72 -13 193 -16 270 -3 77 -9
194 -14 260 -20 241 -18 597 4 865 2 25 4 83 5 129 1 46 8 104 16 130 15 47
17 63 31 211 17 181 4 333 -35 394 -6 11 -10 27 -16 71 -1 11 -5 27 -8 35 -3
8 -11 39 -18 68 -10 45 -10 56 3 70 23 26 24 49 2 65 -19 15 -19 15 2 34 11
10 29 41 39 68 28 75 80 171 91 168 6 -2 33 29 60 69 63 92 85 175 78 298 -3
47 -7 132 -9 190 -4 113 -10 168 -27 242 -6 25 -9 54 -8 65 2 10 -3 59 -10
108 -25 181 -59 297 -103 350 -39 47 -149 150 -169 157 -10 4 -19 14 -19 21 0
25 -66 82 -136 119 -86 44 -115 51 -139 34 -16 -11 -21 -10 -41 7 -19 16 -21
23 -11 40 23 40 38 58 91 105 20 18 36 39 36 47 0 8 7 15 15 15 17 0 19 18 6
39 -7 10 -3 24 10 42 11 15 19 44 19 65 0 48 -45 169 -77 207 -12 16 -23 32
-23 36 0 4 -11 14 -25 21 -14 7 -40 36 -58 64 -173 262 -211 306 -286 332 -21
7 -92 21 -158 30 -65 9 -122 20 -128 25 -5 5 -25 9 -45 9 -31 0 -42 -8 -95
-70 -59 -68 -110 -111 -150 -124 -35 -11 -74 -86 -80 -155 -3 -35 -11 -73 -17
-85 -20 -38 -19 -83 8 -203 19 -87 26 -140 24 -203 -6 -188 -2 -227 30 -294
25 -54 44 -75 108 -113 62 -38 82 -41 89 -12 4 14 12 19 24 16 11 -3 23 2 28
11 8 14 13 15 30 5 28 -18 32 -17 63 12 15 14 30 21 33 15 3 -6 17 -10 31 -10
18 0 24 5 24 22 0 17 3 19 12 10 17 -17 -14 -44 -77 -67 -53 -19 -95 -37 -212
-92 -40 -18 -77 -33 -82 -33 -20 0 -73 -55 -96 -99 -13 -26 -28 -73 -34 -104
-17 -93 -16 -93 -116 -11 -156 129 -186 146 -242 141 -26 -2 -55 -6 -63 -9
-41 -14 -112 -28 -120 -23 -5 3 -11 1 -15 -4 -3 -6 -12 -8 -19 -5 -7 3 -19 -3
-27 -12 -12 -15 -6 -24 56 -80 39 -35 73 -64 78 -64 4 0 7 -15 7 -34 0 -27 8
-40 42 -67 79 -64 87 -74 149 -194 l62 -120 3 -135 c2 -74 6 -146 9 -160 13
-65 23 -229 16 -268 -5 -23 -5 -44 -1 -47 4 -2 7 -18 8 -35 1 -38 29 -84 99
-164 30 -33 65 -82 78 -107 17 -32 32 -49 50 -53 25 -6 26 -10 20 -49 -3 -23
-15 -78 -26 -123 -26 -109 -27 -111 -35 -414 -9 -330 -9 -342 0 -415 4 -33 9
-73 11 -88 2 -15 6 -38 9 -50 2 -12 8 -44 12 -72 3 -27 8 -53 10 -57 7 -11 24
-157 30 -253 3 -49 9 -103 14 -120 5 -16 11 -58 15 -92 3 -34 15 -108 26 -165
11 -57 20 -127 20 -155 0 -29 4 -55 9 -58 5 -3 5 -18 0 -34 -4 -16 -6 -61 -3
-101 3 -47 0 -76 -8 -86 -8 -10 -8 -14 0 -14 6 0 11 -5 11 -12 0 -6 8 -21 18
-32 38 -43 51 -141 77 -551 8 -137 19 -271 23 -297 6 -34 5 -51 -4 -60 -7 -7
-16 -39 -19 -71 -8 -80 12 -113 72 -122 39 -6 43 -9 43 -35 0 -16 7 -55 14
-87 8 -32 17 -84 21 -115 5 -54 4 -58 -25 -80 -30 -24 -30 -24 -16 -60 9 -20
16 -49 16 -65 0 -15 0 -52 1 -81 0 -47 -2 -53 -18 -48 -16 5 -55 6 -153 5 -14
-1 -68 1 -120 4 -83 4 -139 1 -345 -17 -22 -2 -60 -11 -85 -21 -25 -9 -52 -18
-60 -20 -8 -1 -27 -5 -42 -9 -31 -9 -159 7 -241 29 -39 11 -62 13 -70 7 -7 -6
-69 -11 -137 -11 -104 0 -134 -3 -174 -20 -26 -12 -68 -21 -93 -21 -33 0 -44
-3 -40 -13 7 -18 -91 -6 -103 13 -6 9 -23 11 -61 7 -79 -7 -223 23 -267 56
-18 14 -299 13 -417 -2 -128 -16 -140 -16 -200 -3 -27 5 -56 7 -65 2 -8 -4
-70 -8 -137 -9 -81 0 -134 -5 -156 -15 -29 -12 -42 -12 -83 -1 -64 17 -85 26
-80 34 2 3 -57 6 -132 6 -116 -1 -144 -4 -182 -21 -52 -24 -90 -23 -154 1 -59
23 -174 17 -231 -12 -55 -28 -110 -21 -130 17 -9 17 -25 29 -42 33 -45 9 -327
-4 -340 -15 -7 -6 -26 -8 -42 -5 -17 4 -50 -2 -82 -13 -30 -11 -55 -20 -56
-20 -2 0 -3 2054 -3 4565 l0 4565 4840 0 4840 0 0 -4542z m-4985 2439 c50 -7
108 -23 130 -34 60 -32 116 -92 152 -164 18 -35 44 -79 58 -98 14 -19 25 -39
25 -45 0 -5 32 -39 70 -75 73 -69 110 -137 110 -205 0 -27 -1 -28 -13 -12 -12
16 -14 16 -27 2 -10 -13 -11 -24 -1 -55 13 -45 14 -66 1 -33 -18 44 -46 24
-42 -31 2 -14 -1 -15 -18 -5 -28 18 -50 -4 -32 -32 17 -28 15 -40 -9 -40 -17
0 -20 -4 -15 -24 3 -14 2 -28 -4 -31 -5 -3 -10 1 -10 9 0 8 -10 23 -22 33 -17
13 -22 27 -20 53 l2 35 -30 -35 -30 -35 1 30 c1 17 -3 41 -9 55 l-10 25 -12
-30 c-7 -16 -13 -51 -14 -77 -1 -47 -16 -82 -16 -38 0 19 -3 21 -12 12 -17
-17 -24 -15 -25 9 -4 43 -43 51 -43 9 0 -14 -5 -18 -16 -13 -14 5 -15 1 -9
-26 7 -31 6 -32 -20 -25 -22 5 -26 3 -25 -12 1 -11 1 -32 0 -49 l-2 -30 -9 31
c-5 17 -16 37 -24 44 -17 14 -18 9 -15 -47 1 -27 -2 -33 -19 -33 -12 0 -21 -4
-21 -10 0 -5 5 -10 10 -10 6 0 10 -10 10 -22 -1 -20 -4 -17 -24 15 -32 51 -32
52 -56 29 -14 -13 -18 -22 -11 -27 6 -3 11 -12 11 -18 0 -7 -11 0 -24 14 -26
30 -75 46 -87 28 -4 -7 -2 -23 4 -36 16 -35 3 -37 -42 -7 -47 30 -72 23 -52
-14 6 -11 11 -28 11 -37 0 -14 -4 -13 -27 5 -22 17 -29 19 -38 8 -28 -36 -83
-7 -114 61 -13 29 -16 64 -13 186 1 109 -2 170 -14 225 -9 41 -17 80 -19 85
-16 74 -16 96 -5 157 9 54 9 72 0 83 -10 12 -7 23 16 56 15 22 40 47 56 55 15
8 28 19 28 23 0 5 11 13 24 18 13 4 48 29 78 55 103 91 98 88 158 83 30 -2 96
-10 145 -18z m309 -919 c31 9 36 8 36 -6 0 -21 34 -78 67 -114 l25 -27 -48
-55 c-55 -64 -107 -87 -201 -88 -65 0 -100 11 -155 49 -43 29 -47 44 -17 74
11 11 25 33 30 49 6 15 15 27 22 27 33 -1 46 5 52 23 4 13 14 19 30 18 28 -3
75 20 94 46 10 13 16 15 21 6 5 -9 17 -9 44 -2z m276 -158 c19 -15 50 -35 68
-46 18 -10 33 -27 33 -39 7 -106 8 -213 3 -273 l-6 -73 -76 5 c-43 2 -85 5
-95 5 -16 1 -17 9 -12 89 9 140 9 222 0 300 l-8 73 29 -7 c16 -4 45 -19 64
-34z m-121 -198 c1 -96 -4 -145 -24 -247 -8 -37 -52 -108 -98 -155 -70 -73
-104 -137 -128 -240 -7 -30 -14 -57 -14 -60 -10 -40 -15 -102 -20 -235 -7
-237 -24 -315 -79 -370 -22 -22 -28 -25 -22 -10 30 72 30 75 18 87 -9 9 -17 7
-34 -12 -13 -14 -23 -31 -24 -40 -3 -43 -5 -50 -13 -50 -5 0 -8 11 -5 24 2 14
-1 28 -7 32 -16 9 -41 -26 -34 -46 4 -8 -12 2 -34 24 -21 21 -44 35 -50 32
-17 -11 -13 -30 9 -43 20 -13 55 -71 47 -79 -9 -10 -140 -5 -150 5 -17 17 -15
97 4 153 17 47 18 75 14 253 -3 115 -11 221 -18 248 -11 41 -32 69 -132 174
-65 68 -139 138 -165 155 l-47 31 18 66 c11 36 26 91 34 121 29 106 39 114
265 219 47 22 107 46 133 53 46 12 48 11 120 -27 66 -37 78 -40 147 -39 107 0
183 25 228 75 32 35 38 38 48 24 8 -10 13 -59 13 -123z m353 0 c76 -81 96
-120 112 -212 14 -84 19 -108 26 -135 5 -16 11 -77 15 -135 3 -58 12 -154 20
-215 8 -60 17 -150 20 -198 3 -49 8 -93 11 -99 4 -5 6 -42 6 -82 -2 -142 -68
-216 -233 -260 l-47 -12 -5 60 c-5 49 -1 71 19 118 13 32 25 70 27 85 2 24 65
164 128 285 23 44 23 59 5 135 -8 32 -17 106 -20 164 -4 59 -16 142 -27 185
-12 44 -26 97 -31 119 -13 49 -24 63 -39 48 -9 -9 -7 -29 5 -80 22 -92 33
-161 61 -380 3 -23 9 -63 14 -88 8 -43 5 -52 -36 -133 -46 -92 -73 -129 -73
-102 0 8 5 47 11 85 23 147 7 361 -33 438 -23 44 -26 108 -20 370 2 124 4 125
84 39z m-1612 -163 c19 -17 52 -46 72 -64 37 -32 38 -33 23 -61 -8 -16 -15
-34 -15 -41 0 -7 -5 -24 -12 -38 -13 -28 -55 -35 -64 -10 -4 8 -12 15 -20 15
-8 0 -14 5 -14 10 0 6 -6 10 -14 10 -22 0 -207 163 -196 174 4 4 21 10 37 12
15 2 44 8 63 13 69 18 103 13 140 -20z m1390 -119 c87 -14 95 -17 82 -33 -8
-10 -5 -26 13 -62 13 -28 25 -64 25 -80 0 -17 4 -35 9 -40 5 -6 12 -20 16 -32
6 -23 6 -23 -24 -6 -17 11 -26 22 -22 28 5 5 6 30 2 55 l-6 45 -55 1 c-30 1
-75 5 -98 9 -41 7 -46 6 -68 -21 -13 -16 -23 -41 -24 -55 0 -25 -3 -27 -57
-32 -67 -5 -77 -1 -45 20 12 9 22 22 22 29 0 8 4 14 9 14 12 0 61 72 87 127
22 48 27 49 134 33z m-1230 -30 c8 -15 7 -25 -4 -42 -27 -44 -29 -85 -5 -127
20 -37 21 -44 11 -97 -7 -32 -12 -92 -12 -134 0 -43 -5 -102 -10 -131 -6 -30
-11 -121 -11 -203 1 -82 -1 -147 -3 -145 -11 12 -20 135 -21 289 -1 176 -5
207 -45 295 -9 22 -20 50 -24 62 -4 12 -20 33 -35 46 -16 13 -36 38 -45 55 -9
17 -43 52 -77 77 -33 26 -58 50 -55 53 3 3 14 -2 23 -10 10 -8 33 -21 52 -28
18 -7 48 -29 66 -47 38 -39 90 -52 118 -29 10 8 20 31 23 53 4 41 22 83 35 83
5 0 13 -9 19 -20z m45 -54 c-11 -37 -13 -51 -15 -76 -1 -24 -1 -24 -15 -6 -19
25 -19 51 1 81 9 14 12 30 8 37 -5 9 -2 9 10 -1 11 -10 15 -22 11 -35z m229
-223 c124 -136 131 -153 136 -318 7 -221 5 -257 -19 -322 -13 -34 -21 -70 -17
-79 4 -12 2 -15 -9 -10 -8 3 -15 1 -15 -3 0 -5 5 -11 11 -13 7 -2 13 -29 16
-60 3 -43 0 -57 -12 -61 -8 -4 -15 -12 -15 -20 0 -19 -102 -6 -165 22 -51 23
-144 110 -170 161 -10 19 -14 43 -10 63 3 18 7 107 10 199 2 93 6 171 8 175 3
5 8 56 11 115 8 118 8 117 29 203 8 33 18 72 21 88 l6 27 39 -26 c21 -14 86
-77 145 -141z m911 79 c-3 -3 -11 0 -18 7 -9 10 -8 11 6 5 10 -3 15 -9 12 -12z
m60 -2 c3 -5 -1 -10 -9 -10 -8 0 -18 5 -21 10 -3 6 1 10 9 10 8 0 18 -4 21
-10z m-241 -75 c-11 -58 -10 -67 8 -78 12 -8 23 -8 41 2 14 7 30 10 36 7 17
-11 49 3 56 25 4 12 -2 30 -15 49 l-21 30 29 0 c32 0 114 -14 173 -30 32 -9
40 -16 49 -48 5 -20 10 -59 10 -86 l0 -48 -24 15 c-12 9 -56 25 -96 38 -58 17
-88 21 -151 16 -100 -7 -133 -29 -148 -102 -10 -46 -54 -293 -67 -375 -3 -19
-13 -43 -21 -52 -11 -12 -13 -25 -8 -45 5 -15 7 -40 6 -55 -5 -56 45 -93 68
-50 10 20 8 127 -3 153 -7 16 18 173 53 341 16 79 45 147 57 135 3 -3 19 -1
37 3 50 11 150 -5 219 -34 34 -15 36 -19 40 -68 6 -67 1 -444 -6 -478 -3 -14
-7 -46 -10 -72 -5 -47 -20 -87 -40 -100 -15 -11 -96 -10 -153 1 -26 6 -84 13
-128 16 -226 16 -220 14 -210 90 3 27 15 77 25 110 24 76 39 170 45 288 9 161
9 160 28 163 25 3 24 2 32 54 11 75 47 194 64 208 25 20 32 14 25 -23z m386
-211 c0 -8 -4 -12 -10 -9 -5 3 -10 10 -10 16 0 5 5 9 10 9 6 0 10 -7 10 -16z
m-1213 -699 c35 -14 77 -25 94 -25 30 0 31 -1 25 -32 -3 -18 -17 -43 -31 -55
-24 -21 -27 -21 -67 -7 -31 11 -50 26 -68 55 -13 22 -42 58 -64 80 -52 55
-107 139 -100 151 4 6 39 -24 78 -66 58 -62 83 -81 133 -101z m1323 127 c0 -5
-16 -31 -35 -58 -19 -27 -35 -56 -35 -66 0 -27 -11 -48 -26 -48 -9 0 -12 8 -8
28 4 19 -1 41 -15 66 -23 40 -21 56 8 56 9 0 21 4 27 9 5 5 23 11 39 14 17 2
33 5 38 6 4 0 7 -3 7 -7z m-790 -6 c0 -3 -4 -8 -10 -11 -5 -3 -10 -1 -10 4 0
6 5 11 10 11 6 0 10 -2 10 -4z m-2 -62 c22 -5 34 -14 41 -34 12 -37 42 -52 91
-46 33 3 41 0 55 -21 9 -14 15 -26 13 -28 -2 -2 -78 -6 -170 -9 l-166 -5 -7
55 c-8 66 2 81 53 87 20 2 42 4 48 5 6 1 25 -1 42 -4z m-233 -68 l0 -64 -62 1
c-50 2 -63 5 -63 18 0 10 13 20 33 25 22 7 33 17 35 32 2 12 8 22 13 22 5 0 9
7 9 15 0 8 8 15 18 15 14 0 17 -10 17 -64z m555 -42 c-58 -18 -60 -17 -60 4 0
14 8 16 52 13 l53 -4 -45 -13z m310 16 c0 -5 -2 -10 -4 -10 -3 0 -8 5 -11 10
-3 6 -1 10 4 10 6 0 11 -4 11 -10z m-9 -152 c10 -26 19 -49 19 -51 0 -6 -87
-34 -133 -42 -52 -10 -68 -27 -56 -62 11 -38 60 -255 63 -287 4 -37 42 -62
119 -82 51 -12 71 -14 80 -5 6 6 17 11 24 11 16 0 17 -86 2 -170 -5 -30 -12
-71 -16 -90 -3 -19 -9 -40 -14 -46 -14 -17 -19 -149 -22 -564 -2 -416 8 -811
23 -895 14 -72 32 -304 33 -410 1 -184 -33 -437 -69 -510 -19 -39 -20 -40 -74
-42 -60 -2 -178 23 -196 41 -12 11 -23 160 -30 401 -2 66 -4 127 -5 135 -3 44
-41 348 -45 363 -3 9 -1 17 4 17 5 0 12 -9 15 -20 10 -39 23 -19 22 33 -1 55
-3 65 -40 192 -13 44 -26 97 -30 119 -3 21 -7 42 -10 46 -3 5 -8 41 -11 82 -4
40 -10 75 -15 76 -5 2 -9 12 -9 23 0 10 -4 19 -10 19 -5 0 -10 -5 -10 -12 0
-6 -2 -9 -5 -6 -6 6 -9 20 -19 83 -21 142 -23 170 -30 390 -4 151 16 277 55
343 l25 41 43 -20 c53 -23 148 -49 155 -41 13 13 4 29 -21 38 l-28 10 40 8
c23 4 47 16 56 29 l17 22 -102 -2 c-139 -3 -139 -3 -119 55 9 26 20 56 25 67
23 54 41 199 34 285 -10 126 -43 277 -62 284 -21 8 -18 -62 7 -185 35 -175 15
-304 -76 -489 -55 -110 -108 -333 -120 -505 -2 -27 -6 -90 -10 -140 -3 -49
-11 -110 -16 -135 -6 -25 -12 -121 -14 -215 -2 -93 -7 -195 -12 -225 -4 -30
-8 -98 -7 -150 0 -109 13 -417 18 -441 2 -9 0 -113 -5 -230 -15 -377 -17 -402
-34 -418 -11 -11 -49 -17 -142 -22 -70 -4 -132 -5 -139 -2 -21 8 -41 152 -49
358 -3 77 -9 156 -14 175 -4 19 -9 64 -10 100 -1 36 -9 110 -16 164 -8 55 -15
141 -15 192 0 90 -17 188 -45 262 -7 20 -16 64 -20 97 -11 102 -13 118 -24
180 -14 81 -44 301 -56 410 -7 60 -56 380 -61 397 -7 24 -7 194 1 328 4 63 8
180 9 260 2 120 6 154 24 199 12 29 24 84 28 122 4 38 11 66 16 63 16 -10 62
15 83 46 13 20 25 28 35 23 45 -20 417 -25 595 -8 28 3 85 7 127 9 134 8 197
18 210 33 10 12 14 8 26 -24 8 -21 22 -59 33 -85z m59 -150 c8 -24 17 -48 21
-53 19 -25 53 -200 45 -230 -3 -11 -13 -29 -22 -41 -16 -19 -21 -20 -69 -9
-87 21 -90 24 -114 129 -12 53 -22 98 -23 101 0 2 -6 27 -13 55 -7 27 -10 52
-7 54 4 2 33 7 65 11 31 4 60 11 63 16 3 5 13 9 23 9 12 0 22 -13 31 -42z
m-535 -1389 c3 -13 8 -40 10 -59 25 -172 43 -247 64 -275 11 -14 31 -98 31
-131 0 -15 6 -43 12 -62 11 -29 10 -35 -3 -43 -13 -6 -15 -19 -12 -51 3 -24 9
-47 13 -53 8 -11 30 -120 36 -180 13 -129 16 -162 15 -175 -1 -8 -3 -40 -5
-70 -2 -30 0 -62 5 -71 27 -51 43 -464 19 -508 -14 -27 -5 -112 17 -154 11
-22 15 -76 16 -220 l2 -192 -34 -3 c-52 -4 -59 -14 -50 -74 4 -29 10 -65 13
-79 6 -29 8 -28 -97 -29 -77 -1 -87 3 -87 33 0 12 -11 45 -24 72 -22 49 -28
102 -28 255 0 146 1 148 33 181 29 30 31 36 26 82 -4 27 -13 57 -21 66 -16 18
-16 91 0 286 10 116 10 483 0 650 -11 179 -11 234 -2 275 5 19 10 116 11 215
2 150 8 241 21 288 1 4 2 19 3 34 1 30 9 27 16 -8z m185 -653 c0 -26 -6 -18
-14 19 -5 22 -4 26 4 15 5 -8 10 -24 10 -34z m120 -1079 c25 -4 78 -11 119
-16 58 -8 81 -7 106 4 40 16 53 6 47 -36 -6 -42 -34 -53 -132 -52 -97 2 -199
9 -205 14 -7 7 -22 109 -17 114 3 3 12 -1 21 -9 9 -8 36 -16 61 -19z m-582
-73 c76 3 151 6 167 8 26 3 30 -1 33 -24 2 -20 -5 -33 -32 -55 -44 -34 -72
-42 -111 -31 -16 5 -61 10 -100 12 -96 3 -129 20 -133 69 -3 37 -2 38 18 27
15 -8 65 -10 158 -6z m669 -78 c40 -1 75 -5 79 -9 7 -6 -17 -167 -38 -253 -8
-33 -16 -43 -42 -52 -18 -7 -51 -12 -74 -12 -39 0 -41 2 -46 33 -3 17 -7 94
-10 171 l-4 138 32 -8 c17 -4 63 -8 103 -8z m-631 -67 c4 -7 25 -10 58 -6 l51
5 -2 -151 c-1 -84 -2 -155 -2 -158 -2 -14 -72 -26 -111 -19 -22 4 -42 9 -45
11 -2 2 -6 31 -9 64 -6 51 -21 145 -40 243 -5 20 -1 22 44 22 27 0 52 -5 56
-11z m699 -374 c3 -27 19 -91 35 -141 21 -67 27 -99 21 -120 -5 -16 -14 -28
-21 -26 -7 1 -27 -2 -45 -8 -52 -17 -87 -18 -119 -2 -39 19 -191 17 -292 -4
-30 -6 -32 -5 -36 31 -5 42 6 53 30 31 20 -17 35 -11 46 19 6 15 9 17 16 6 12
-21 43 -5 35 18 -3 11 -1 22 5 26 5 3 10 0 10 -8 0 -21 23 -37 39 -28 7 5 11
17 9 27 -2 11 9 29 26 45 26 23 30 34 35 100 l6 74 35 -3 c19 -2 60 4 90 11
30 8 58 12 62 8 3 -3 9 -28 13 -56z m-788 13 c-3 -8 -6 -5 -6 6 -1 11 2 17 5
13 3 -3 4 -12 1 -19z m539 -46 c4 -19 2 -24 -5 -17 -6 6 -13 26 -16 45 -5 29
-4 32 5 17 6 -10 14 -30 16 -45z m-308 13 c6 -14 16 -53 22 -88 5 -34 14 -78
20 -97 5 -19 10 -51 10 -70 0 -29 -6 -39 -37 -60 -24 -16 -52 -25 -82 -26 -25
-1 -58 -5 -73 -9 -20 -5 -38 -1 -63 14 -20 12 -51 21 -70 21 -32 0 -65 21 -65
41 0 5 6 9 13 9 8 0 32 18 54 40 38 38 39 43 38 97 -2 49 2 62 24 90 24 30 31
33 81 33 30 0 66 7 80 14 35 19 35 19 48 -9z m3912 -121 c-58 -18 -69 -18 -44
1 10 8 35 14 54 14 l35 0 -45 -15z m830 -12 c8 -3 -10 -9 -40 -12 -62 -8 -65
-7 -56 15 4 12 14 15 43 10 21 -4 45 -9 53 -13z m-3314 -3 c24 -6 44 -15 44
-20 0 -5 -3 -9 -7 -10 -5 0 -15 -2 -23 -4 -82 -17 -90 -17 -96 -1 -9 24 3 31
22 15 15 -12 16 -11 10 9 -8 26 -9 26 50 11z m451 -3 c17 -17 -50 -32 -214
-49 -46 -5 -31 9 19 17 23 4 47 11 53 16 27 22 125 34 142 16z m1768 1 c51
-13 51 -22 -1 -31 -16 -3 -41 -8 -56 -12 -22 -4 -28 -2 -28 11 0 15 19 44 30
44 3 1 27 -5 55 -12z m439 1 l20 -11 -21 -8 c-59 -22 -247 -44 -237 -28 3 5
16 9 28 9 13 0 51 10 84 23 72 27 98 30 126 15z m-1916 -22 c-43 -22 -50 -23
-85 -10 l-38 13 50 1 c28 0 57 5 65 10 8 5 24 10 35 9 13 0 3 -9 -27 -23z
m2248 16 c-12 -20 -82 -34 -116 -24 l-35 10 30 2 c17 1 36 2 43 1 6 -1 20 3
30 8 21 12 55 14 48 3z m-1037 -22 c79 -14 80 -21 4 -24 -12 -1 -25 -4 -29 -8
-11 -12 -34 -9 -34 4 0 6 -8 20 -17 31 -17 20 -17 20 2 13 11 -4 44 -12 74
-16z m-2184 -5 c27 -9 33 -14 18 -15 -12 0 -25 -4 -28 -10 -3 -5 -11 -10 -17
-10 -6 0 -8 3 -5 7 4 3 0 15 -10 25 -19 22 -11 22 42 3z m-3787 -10 c-3 -3
-16 -8 -29 -11 -78 -18 -74 -18 -58 -1 8 10 30 16 53 17 22 0 37 -2 34 -5z
m-2090 -21 c12 -4 22 -10 22 -14 0 -11 -148 -45 -157 -37 -11 12 15 31 60 44
54 14 48 14 75 7z m352 -2 c0 -8 -32 -26 -55 -31 -5 -2 -15 -7 -20 -11 -7 -5
-28 -3 -50 5 l-40 14 46 1 c26 0 62 7 80 15 41 17 39 17 39 7z m1440 -6 c44
-14 44 -14 19 -24 -51 -20 -99 -23 -106 -7 -8 21 6 33 17 15 5 -8 12 -11 16
-7 4 3 1 13 -6 22 -16 19 -2 20 60 1z m449 -2 c9 -8 -7 -14 -77 -28 -91 -20
-184 -28 -177 -15 4 5 17 9 29 9 13 0 52 11 87 25 45 17 75 23 99 19 19 -3 37
-8 39 -10z m1111 -8 l45 -14 -58 -17 c-62 -18 -87 -15 -87 10 0 18 12 19 28 3
9 -9 12 -9 12 0 0 7 -4 12 -10 12 -5 0 -10 5 -10 10 0 14 26 12 80 -4z m438
-1 c3 -3 3 -8 -1 -11 -6 -7 -79 -24 -122 -29 -114 -14 -139 -15 -125 -5 8 5
26 10 38 10 22 0 39 6 112 38 24 11 86 9 98 -3z m317 -8 c-61 -35 -72 -37
-107 -22 l-33 14 40 1 c22 0 58 7 80 15 58 21 66 18 20 -8z m-2585 -8 c57 -11
62 -13 37 -20 -16 -4 -35 -5 -42 -3 -7 3 -16 1 -20 -5 -9 -16 -35 -13 -35 3 0
8 -10 22 -22 31 -21 15 -21 16 -3 11 11 -2 49 -10 85 -17z m4058 -12 c-12 -4
-55 -10 -97 -13 -42 -3 -88 -7 -103 -9 -16 -2 -28 1 -31 9 -4 10 10 13 56 15
34 1 69 4 77 6 8 2 32 7 54 9 21 3 41 7 44 11 3 3 9 0 13 -7 5 -8 1 -16 -13
-21z m-2484 -1 c54 -7 55 -13 4 -21 -24 -3 -51 -9 -61 -12 -13 -3 -20 2 -24
16 -3 12 -9 21 -14 21 -5 0 -9 4 -9 9 0 6 13 6 33 0 17 -4 49 -11 71 -13z
m-389 -26 c-3 -5 -11 -10 -16 -10 -6 0 -7 5 -4 10 3 6 11 10 16 10 6 0 7 -4 4
-10z m3988 -47 c-7 -2 -19 -2 -25 0 -7 3 -2 5 12 5 14 0 19 -2 13 -5z m74 1
c-3 -3 -12 -4 -19 -1 -8 3 -5 6 6 6 11 1 17 -2 13 -5z m-1136 -20 c7 -8 26
-21 42 -27 25 -11 15 -12 -79 -14 l-108 -3 34 22 c30 18 70 34 91 37 4 1 12
-6 20 -15z m1318 -13 c11 -7 11 -10 0 -17 -19 -12 -158 -14 -165 -3 -3 5 5 10
18 10 44 2 80 8 86 13 8 9 45 7 61 -3z m-6796 -38 c-7 -2 -19 -2 -25 0 -7 3
-2 5 12 5 14 0 19 -2 13 -5z m77 3 c0 -9 -30 -14 -35 -6 -4 6 3 10 14 10 12 0
21 -2 21 -4z m3710 -15 c0 -4 -11 -6 -25 -3 -14 2 -25 6 -25 8 0 2 11 4 25 4
14 0 25 -4 25 -9z m60 5 c0 -9 -30 -14 -35 -6 -4 6 3 10 14 10 12 0 21 -2 21
-4z m-3597 -20 c28 -21 4 -30 -85 -33 -86 -2 -106 12 -30 22 26 3 54 10 62 15
21 12 32 11 53 -4z m3794 -32 c-11 -11 -175 -15 -182 -5 -3 7 3 11 17 12 48 2
78 8 95 18 12 6 26 5 46 -6 16 -8 27 -17 24 -19z"/>
<path d="M7040 7145 c-6 -8 -18 -58 -26 -112 -7 -54 -16 -109 -19 -123 -3 -14
-8 -50 -11 -81 l-7 -56 69 -47 c37 -27 75 -51 84 -54 8 -2 43 -18 78 -33 35
-16 68 -29 73 -29 25 0 158 67 189 95 19 18 41 34 49 37 11 3 13 40 13 188
l-1 185 -26 23 c-19 16 -33 21 -48 16 -24 -8 -384 -7 -397 1 -4 3 -13 -2 -20
-10z m438 -50 c2 -2 3 -75 3 -162 -2 -182 9 -163 -124 -234 l-79 -42 -42 21
c-22 11 -52 23 -66 27 -14 4 -51 26 -84 49 l-58 41 6 70 c6 61 11 97 32 212 4
20 11 22 82 25 82 3 325 -2 330 -7z"/>
<path d="M7095 6419 c-4 -11 -5 -22 -3 -23 65 -44 173 -57 294 -35 60 11 78
18 84 34 4 11 6 22 5 25 -2 3 -38 2 -82 -1 -96 -7 -252 0 -275 12 -13 7 -18 4
-23 -12z"/>
<path d="M7208 5292 c-57 -7 -89 -24 -70 -36 5 -3 47 -1 92 5 80 11 147 9 183
-6 12 -5 17 -2 17 8 0 9 -4 18 -8 21 -15 9 -157 14 -214 8z"/>
<path d="M7985 5293 c-65 -4 -95 -20 -57 -29 23 -7 31 -24 11 -24 -12 0 -38
-29 -39 -42 0 -5 8 -8 18 -8 16 -1 16 -1 0 -11 -29 -17 -20 -29 17 -25 21 3
33 1 29 -5 -3 -5 -10 -7 -15 -4 -5 4 -17 1 -26 -4 -21 -12 -20 -12 27 -16 19
-2 41 2 48 7 7 6 29 8 51 4 45 -7 63 8 35 29 -18 14 -18 14 4 15 28 0 29 26 2
33 -11 3 -19 11 -18 18 2 7 -10 16 -27 20 -28 6 -27 7 12 8 44 1 65 17 42 32
-8 5 -23 8 -34 7 -11 -1 -47 -3 -80 -5z m30 -103 c-4 -6 -20 -10 -36 -10 -39
0 -30 14 10 17 18 1 29 -2 26 -7z"/>
<path d="M7255 5252 c-54 -5 -75 -12 -75 -27 0 -11 11 -13 53 -10 49 5 50 4
17 -6 -19 -6 -41 -15 -47 -21 -20 -16 -4 -31 26 -25 15 3 33 2 41 -3 9 -6 2
-10 -26 -15 -63 -11 -74 -15 -74 -31 0 -17 3 -17 74 1 32 9 73 13 91 9 19 -3
35 -1 39 5 4 6 16 11 27 11 25 0 25 17 0 25 -11 3 -18 12 -15 20 3 7 0 16 -6
20 -8 5 -8 11 1 21 6 8 9 18 5 21 -7 7 -79 10 -131 5z m98 -69 c-7 -2 -19 -2
-25 0 -7 3 -2 5 12 5 14 0 19 -2 13 -5z"/>
<path d="M11060 3240 c0 -5 5 -10 10 -10 6 0 10 5 10 10 0 6 -4 10 -10 10 -5
0 -10 -4 -10 -10z"/>
</g>
</svg>
