<?xml version="1.0" standalone="no"?>
<!DOCTYPE svg PUBLIC "-//W3C//DTD SVG 20010904//EN"
 "http://www.w3.org/TR/2001/REC-SVG-20010904/DTD/svg10.dtd">
<svg version="1.0" xmlns="http://www.w3.org/2000/svg"
 width="1500.000000pt" height="1500.000000pt" viewBox="0 0 1500.000000 1500.000000"
 preserveAspectRatio="xMidYMid meet">

<g transform="translate(0.000000,1500.000000) scale(0.100000,-0.100000)"
fill="#000000" stroke="none">
<path d="M0 7500 l0 -7500 7500 0 7500 0 0 7500 0 7500 -7500 0 -7500 0 0
-7500z m12340 0 l0 -4840 -4840 0 -4840 0 0 4840 0 4840 4840 0 4840 0 0
-4840z"/>
<path d="M7346 10728 c-23 -24 -51 -56 -63 -73 -14 -20 -30 -30 -49 -30 -16
-1 -33 -10 -38 -20 -6 -10 -26 -32 -43 -48 -18 -16 -33 -37 -33 -46 0 -10 -7
-32 -16 -50 -21 -42 -28 -89 -15 -105 8 -9 5 -25 -10 -56 -18 -38 -26 -72 -34
-150 -1 -14 6 -54 16 -90 17 -63 17 -86 -2 -74 -16 9 -83 -52 -106 -98 -48
-96 -63 -138 -57 -162 5 -22 0 -28 -43 -50 -93 -50 -184 -116 -177 -128 3 -4
1 -8 -5 -8 -21 0 -221 -216 -221 -239 0 -5 -6 -14 -13 -18 -7 -4 -21 -19 -30
-32 -8 -13 -42 -51 -75 -85 -86 -89 -112 -170 -92 -286 6 -36 13 -78 15 -95 6
-43 25 -123 41 -174 8 -25 14 -60 14 -79 0 -39 28 -92 48 -92 18 0 8 -77 -18
-135 -10 -22 -24 -58 -31 -80 -22 -71 -74 -169 -107 -203 -18 -18 -32 -41 -32
-52 0 -11 -6 -34 -14 -52 -8 -18 -23 -53 -34 -78 -36 -84 -36 -88 -2 -120 17
-16 33 -35 34 -42 9 -44 21 -76 37 -100 11 -14 19 -31 19 -37 0 -6 14 -18 30
-26 27 -14 45 -14 131 -5 56 6 103 9 106 7 6 -6 5 -23 -2 -160 -4 -64 -4 -129
-1 -143 l7 -26 117 6 c64 3 122 2 128 -2 7 -4 14 -25 17 -47 29 -216 50 -339
73 -428 20 -78 22 -87 35 -172 6 -38 13 -81 15 -95 3 -14 7 -36 8 -50 11 -90
19 -136 27 -146 6 -7 2 -18 -11 -29 -11 -10 -20 -24 -20 -32 0 -7 -8 -13 -18
-13 -18 0 -52 -33 -52 -50 0 -6 -6 -10 -12 -10 -24 -1 -73 -56 -101 -114 -27
-55 -29 -63 -23 -150 5 -63 12 -99 24 -116 33 -46 55 -105 68 -177 7 -40 20
-87 29 -105 22 -47 81 -107 113 -114 15 -4 29 -10 32 -14 3 -3 29 -11 59 -18
46 -11 57 -10 77 3 13 9 24 21 24 27 0 6 9 21 20 33 27 29 33 55 31 140 -2 70
-30 181 -56 221 -7 12 -17 37 -20 58 -7 34 -6 36 19 36 20 0 53 24 124 87 53
48 100 92 103 97 10 16 20 107 24 216 6 145 16 268 31 390 4 30 8 69 9 85 4
53 16 95 27 89 6 -4 5 2 -1 15 -7 12 -9 26 -6 31 3 5 8 58 10 117 8 206 26
268 41 145 9 -79 9 -76 16 -87 14 -24 28 -141 32 -295 3 -91 8 -178 10 -195
11 -72 30 -315 29 -365 -5 -148 -4 -324 1 -410 3 -52 9 -149 12 -215 3 -66 7
-167 10 -225 3 -58 5 -116 5 -129 -1 -14 4 -28 9 -31 22 -14 27 -181 13 -441
-8 -142 -9 -147 -45 -218 -42 -81 -49 -138 -20 -163 15 -14 130 -50 157 -50
140 1 225 23 225 61 0 45 -44 192 -60 201 -14 8 -17 20 -13 72 2 35 8 88 13
118 5 36 4 62 -3 75 -6 11 -10 25 -8 30 2 6 5 33 6 60 3 69 13 120 36 185 11
30 22 64 24 75 1 11 11 56 20 100 14 62 15 86 7 110 -9 23 -8 47 3 100 9 39
18 126 21 195 3 69 10 139 15 156 6 20 5 57 -3 110 -17 104 -15 193 6 285 9
41 21 92 26 114 5 22 12 74 15 115 3 41 12 111 20 155 19 105 23 139 31 265 3
58 7 106 9 108 9 10 81 -14 106 -35 39 -33 63 -27 66 17 1 19 7 72 13 118 6
46 8 92 5 103 -8 24 -7 24 52 -5 158 -78 202 -96 219 -89 26 9 34 23 34 57 0
16 10 66 22 109 19 74 20 88 9 171 -6 50 -14 114 -17 141 -11 95 -39 179 -72
218 -9 10 -17 26 -18 35 -2 9 -12 80 -23 157 -11 77 -22 169 -26 205 -3 36
-11 77 -17 93 -18 47 0 57 111 57 53 0 143 -5 201 -11 97 -10 109 -9 156 9 38
15 60 19 86 13 52 -12 60 -20 56 -54 l-3 -32 63 3 c67 3 62 7 67 -61 3 -48 55
-77 55 -31 0 11 16 14 68 15 100 0 146 11 150 33 3 11 -3 25 -12 32 -15 10
-16 20 -5 78 6 37 9 81 6 99 -3 17 -7 41 -9 52 -2 14 2 19 13 17 9 -1 31 13
48 33 33 37 32 54 -1 91 -13 14 -16 24 -9 29 24 14 11 53 -23 74 -51 32 -200
78 -291 90 -122 17 -188 33 -214 53 -14 10 -40 18 -63 18 -25 0 -50 8 -65 20
-31 24 -41 25 -80 5 -29 -15 -38 -16 -115 -15 -53 1 -92 21 -96 48 -4 25 -54
77 -84 87 -10 4 -25 2 -34 -3 -28 -15 -56 19 -65 80 -11 67 -28 108 -45 108
-24 0 -29 24 -31 150 -2 134 -5 166 -16 176 -4 4 -7 17 -7 29 0 14 -18 39 -45
64 -46 42 -46 48 0 31 41 -15 155 -24 155 -12 0 6 -14 14 -31 17 -18 4 -48 14
-68 22 -32 14 -34 16 -18 28 22 16 22 25 -2 25 -11 0 -22 4 -26 9 -3 5 -19 12
-35 16 -25 6 -30 11 -30 38 0 17 7 38 16 48 14 16 24 76 28 170 0 20 7 43 14
52 20 23 11 50 -21 65 -39 19 -63 58 -47 77 16 19 5 34 -22 27 -17 -4 -20 -2
-15 12 4 10 7 22 7 27 0 9 48 34 61 31 4 -1 9 12 12 28 11 50 -44 152 -129
242 -24 26 -44 51 -44 56 0 5 -12 12 -27 15 -78 16 -123 32 -123 44 0 8 -11
13 -27 13 -29 0 -260 47 -274 55 -4 3 -11 1 -14 -5 -5 -8 -11 -7 -21 1 -11 9
-18 9 -26 1 -18 -18 -68 -15 -68 3 0 26 -21 17 -64 -27z m551 -400 c-3 -8 -6
-5 -6 6 -1 11 2 17 5 13 3 -3 4 -12 1 -19z m147 -72 c-2 -47 28 -110 65 -132
39 -23 44 -38 21 -59 -18 -16 -18 -20 -5 -46 8 -15 15 -30 15 -31 0 -2 -24 -4
-52 -4 -29 0 -61 -4 -70 -8 -13 -6 -18 -4 -18 8 0 24 -15 19 -30 -9 -13 -24
-40 -35 -40 -16 0 5 -22 45 -48 88 -54 87 -63 107 -67 143 -1 14 -6 37 -10 50
-5 17 6 8 35 -27 23 -29 47 -53 53 -54 52 -5 97 -3 97 5 0 4 11 5 24 2 32 -8
41 8 22 35 -8 12 -12 28 -9 36 3 8 0 13 -8 11 -7 -2 -14 6 -16 17 -3 15 -2 16
5 7 7 -11 10 -11 15 2 11 28 22 17 21 -18z m-64 10 c0 -2 -15 -6 -34 -8 -19
-2 -32 0 -30 4 5 8 64 12 64 4z m-87 -13 c-7 -2 -21 -2 -30 0 -10 3 -4 5 12 5
17 0 24 -2 18 -5z m-781 -308 c11 -14 26 -25 34 -25 8 0 14 -4 14 -8 0 -14 48
-32 88 -32 34 -1 40 -6 71 -54 22 -35 50 -63 82 -82 30 -17 49 -35 49 -46 0
-21 2 -22 60 -4 37 11 83 18 190 28 3 0 20 -3 38 -7 62 -14 87 -79 49 -124 -8
-9 -16 -23 -19 -31 -3 -8 -26 -41 -52 -72 -33 -40 -55 -58 -78 -63 -53 -11
-78 -33 -103 -89 -23 -53 -39 -66 -75 -66 -23 0 -83 -26 -123 -53 -28 -19 -28
-19 -67 7 -65 43 -142 183 -175 316 -24 98 -56 147 -106 162 -44 13 -50 35
-24 84 8 16 15 36 15 44 0 23 39 82 74 112 17 15 33 27 35 28 2 0 12 -11 23
-25z m943 -55 c51 0 75 -14 57 -32 -6 -6 -12 -25 -12 -40 0 -33 -9 -35 -40 -8
-12 11 -32 22 -43 26 -21 7 -26 11 -60 51 l-18 21 38 -9 c21 -5 56 -9 78 -9z
m-134 -196 c15 -7 38 -14 51 -14 31 0 178 -87 178 -105 0 -8 6 -18 13 -22 38
-25 46 -85 34 -276 -4 -83 2 -100 43 -120 20 -10 26 -21 28 -59 3 -45 1 -48
-25 -53 -40 -9 -73 -23 -113 -49 -19 -13 -48 -31 -64 -40 -21 -13 -25 -20 -16
-26 15 -9 39 -2 127 41 68 33 127 43 143 24 13 -16 -5 -39 -55 -67 -86 -49
-105 -64 -102 -78 4 -23 31 -14 135 46 109 63 135 64 164 1 24 -50 47 -59 147
-59 84 -1 97 1 134 17 22 9 42 -8 34 -29 -4 -9 -18 -21 -32 -26 -14 -5 -25
-15 -25 -21 0 -11 16 -9 53 6 12 5 17 2 17 -9 0 -24 19 -19 29 8 16 41 57 47
103 15 17 -12 44 -23 62 -25 17 -1 63 -5 101 -8 90 -8 167 -25 180 -40 6 -7
36 -23 68 -36 31 -13 57 -27 57 -31 0 -12 -38 -21 -60 -14 -15 5 -21 0 -25
-18 -6 -23 -41 -47 -69 -47 -17 0 -29 -27 -15 -35 16 -10 71 5 109 30 25 15
45 21 68 17 36 -5 45 -13 36 -35 -6 -16 -54 -41 -54 -28 0 10 -61 8 -79 -3
-19 -12 -12 -26 13 -26 22 0 25 -5 31 -55 4 -30 11 -58 16 -61 5 -3 6 -16 3
-29 -3 -12 -1 -26 5 -30 6 -3 9 -11 5 -16 -3 -6 -11 -3 -18 7 -10 13 -17 14
-34 5 -25 -13 -25 -15 -13 -57 5 -17 5 -37 1 -43 -4 -8 -10 4 -14 27 -3 23
-13 48 -22 57 -13 13 -14 21 -6 39 7 16 7 27 1 33 -13 13 -87 0 -129 -22 -17
-9 -40 -13 -50 -10 -19 6 -19 8 -4 37 21 41 11 98 -17 98 -14 0 -19 -6 -18
-22 4 -42 -1 -56 -25 -72 -24 -15 -25 -15 -25 22 0 60 -7 87 -22 87 -9 0 -15
-14 -17 -42 -3 -34 -6 -41 -20 -36 -9 3 -25 15 -34 27 -24 30 -44 10 -27 -28
20 -43 2 -51 -114 -51 -56 1 -131 2 -167 4 -36 3 -150 3 -255 2 -240 -3 -265
1 -342 52 -65 43 -62 39 -198 292 -57 105 -89 148 -145 195 -27 23 -48 46 -45
50 8 13 -13 22 -35 15 -26 -8 -26 -37 0 -60 24 -21 26 -48 5 -65 -8 -7 -15
-20 -15 -30 0 -14 8 -16 53 -13 33 2 58 -1 67 -9 18 -16 86 -117 119 -178 13
-25 28 -46 32 -48 5 -2 9 -9 9 -15 0 -25 54 -114 90 -148 90 -86 120 -94 341
-93 l96 1 1 -46 c0 -25 5 -82 11 -125 6 -44 9 -81 7 -83 -2 -2 0 -19 5 -36 4
-18 11 -57 14 -87 3 -30 10 -72 15 -93 8 -38 8 -39 -18 -32 -15 4 -49 20 -75
36 -47 29 -67 30 -67 5 0 -12 100 -86 116 -86 16 0 81 -37 96 -55 9 -11 22
-45 28 -75 14 -69 33 -271 25 -278 -3 -3 -23 9 -44 26 -22 18 -45 32 -52 32
-6 0 -26 9 -44 20 -30 18 -129 49 -231 70 -22 5 -51 13 -65 18 -51 20 -308 96
-359 106 -91 18 -208 51 -227 63 -13 9 -56 17 -95 20 -40 3 -104 13 -143 24
-38 10 -101 19 -140 19 -38 0 -90 5 -115 11 -69 16 -84 18 -238 25 -96 4 -147
3 -155 -5 -8 -6 -40 -10 -73 -10 -32 1 -77 -4 -99 -9 -37 -10 -86 -13 -232
-15 -29 -1 -57 3 -63 9 -21 21 60 214 89 214 5 0 19 -15 32 -34 17 -25 27 -32
38 -26 9 5 24 11 34 14 10 3 15 10 12 16 -4 6 -9 8 -13 6 -10 -6 -34 14 -54
43 -13 18 -14 29 -6 50 74 183 136 369 128 383 -1 2 4 17 10 33 7 17 16 53 20
80 20 117 66 286 83 303 13 12 16 10 26 -20 6 -19 8 -43 5 -53 -6 -15 -3 -17
17 -12 19 5 27 1 40 -21 18 -33 97 -75 199 -108 41 -14 89 -31 105 -38 58 -26
73 -28 83 -9 12 23 5 43 -12 37 -8 -3 -30 6 -50 20 -20 13 -54 27 -76 31 -22
4 -40 11 -40 16 0 6 -4 8 -9 4 -11 -6 -54 11 -92 37 -14 9 -29 15 -32 12 -3
-3 -18 12 -33 33 -16 21 -37 47 -46 57 -19 20 -23 38 -12 49 4 3 8 26 9 49 12
197 32 279 79 317 21 17 76 114 76 133 0 9 9 27 21 42 11 14 17 26 12 26 -33
-1 -55 -17 -74 -57 -12 -24 -38 -65 -58 -91 -66 -84 -95 -143 -97 -194 -1 -27
-2 -66 -3 -89 -1 -32 -4 -40 -16 -35 -9 3 -15 0 -15 -9 0 -8 8 -15 17 -15 14
0 11 -7 -14 -31 -36 -37 -49 -33 -63 22 -8 28 -16 39 -27 37 -21 -4 -23 -40
-6 -105 12 -45 11 -62 -3 -130 -8 -43 -19 -82 -24 -87 -9 -9 -24 18 -34 64 -8
36 -22 54 -36 45 -14 -9 -6 -50 18 -85 20 -30 42 -98 37 -114 -3 -6 -7 -24 -9
-40 -7 -40 -16 -45 -16 -8 0 16 -5 32 -10 34 -11 3 -44 124 -60 223 -5 33 -12
71 -16 85 -22 101 12 202 99 291 35 35 78 86 96 113 71 103 298 326 333 326 9
0 20 5 23 10 14 22 81 48 110 43 47 -9 61 -28 90 -121 37 -120 46 -143 67
-174 11 -16 16 -28 11 -28 -4 0 -3 -4 3 -8 6 -4 25 -29 44 -57 49 -74 115
-126 152 -120 9 2 32 15 50 29 19 14 54 28 78 32 55 8 70 16 143 71 60 47 157
158 243 280 20 28 27 88 14 114 -6 10 -9 23 -6 27 8 13 48 11 77 -4z m1322
-1364 c-4 -4 -24 -10 -43 -14 -31 -5 -33 -4 -17 8 18 14 75 20 60 6z m-4 -84
c-1 -25 -3 -26 -6 -8 -3 15 -10 22 -19 18 -8 -3 -14 -2 -14 3 0 12 8 18 25 18
10 0 15 -10 14 -31z m-2324 -512 c44 -3 87 -10 96 -14 8 -5 61 -11 116 -14 56
-3 114 -11 130 -17 30 -12 44 -14 135 -23 32 -3 99 -19 150 -35 86 -27 237
-65 300 -75 14 -2 35 -9 45 -14 10 -6 21 -11 25 -11 4 -1 13 -3 20 -5 7 -2 31
-8 53 -14 22 -6 81 -22 130 -37 50 -15 97 -28 105 -30 8 -2 28 -8 43 -14 16
-6 37 -11 47 -11 11 0 65 -28 120 -62 l101 -61 -7 -66 c-3 -36 -9 -70 -12 -75
-9 -16 -69 2 -173 52 -57 27 -129 58 -159 67 -30 10 -89 31 -130 47 -41 16
-82 31 -90 33 -8 2 -35 10 -60 18 -25 8 -74 20 -110 27 -60 12 -133 34 -250
76 -76 27 -184 52 -251 58 -35 3 -86 12 -114 20 -27 8 -77 15 -110 15 -33 0
-103 4 -155 9 -135 12 -431 5 -523 -11 -43 -8 -80 -10 -83 -6 -3 5 -13 9 -23
9 -24 0 -58 39 -66 77 -9 42 11 52 119 57 47 3 93 9 103 14 10 5 54 10 97 11
44 2 89 7 100 11 21 8 129 6 281 -6z m27 -215 l86 -12 0 -46 c0 -25 -4 -66 -9
-91 -20 -99 -21 -96 23 -125 47 -31 45 -40 -8 -26 -22 5 -58 8 -81 6 -24 -2
-60 1 -80 7 -43 13 -79 15 -241 17 l-114 1 2 118 c2 64 -1 127 -5 139 l-7 22
173 0 c96 1 213 -4 261 -10z m243 -24 c32 -8 78 -15 100 -15 38 0 227 -44 250
-58 5 -4 15 -7 20 -8 6 -1 48 -16 95 -32 47 -17 103 -33 125 -36 57 -6 153
-32 206 -55 46 -19 81 -33 89 -36 127 -38 150 -47 143 -58 -4 -7 -8 -43 -9
-82 -2 -38 -7 -83 -13 -98 -10 -25 -13 -27 -33 -15 -13 6 -32 13 -42 15 -58
10 -103 35 -159 90 -92 88 -119 98 -190 68 -55 -23 -119 -19 -173 10 -26 14
-67 27 -90 29 -24 3 -48 7 -53 11 -6 3 -35 10 -65 16 -31 5 -68 16 -83 24 -54
28 -127 39 -179 26 -66 -17 -70 -10 -54 95 9 63 9 89 1 97 -16 16 -14 25 7 30
19 5 20 5 107 -18z m90 -325 c-3 -6 -21 -17 -38 -26 l-32 -15 28 25 c28 26 54
35 42 16z m350 -70 c16 -16 26 -30 22 -30 -8 0 -57 46 -57 54 0 11 5 7 35 -24z
m-505 -14 c0 -3 -4 -8 -10 -11 -5 -3 -10 -1 -10 4 0 6 5 11 10 11 6 0 10 -2
10 -4z m780 -11 c-7 -8 -20 -15 -29 -15 -13 1 -13 3 3 15 26 19 42 19 26 0z
m-175 -35 c3 -5 1 -10 -4 -10 -6 0 -11 5 -11 10 0 6 2 10 4 10 3 0 8 -4 11
-10z m109 -9 c-5 -5 -22 -13 -39 -16 -30 -7 -30 -7 5 13 34 19 53 21 34 3z
m-890 -940 c3 -4 19 -11 35 -14 39 -8 111 -77 111 -107 0 -34 -22 -100 -33
-100 -5 0 -7 12 -4 27 3 18 -1 36 -14 52 -10 13 -19 31 -19 40 0 21 -66 86
-100 100 -24 9 -24 10 -3 10 12 1 24 -3 27 -8z m792 -23 c-29 -16 -84 -18 -96
-3 -10 12 -1 14 51 14 49 -1 59 -3 45 -11z m-816 -38 c0 -5 -4 -10 -9 -10 -6
0 -13 5 -16 10 -3 6 1 10 9 10 9 0 16 -4 16 -10z m-76 -53 c51 -50 67 -81 71
-139 2 -29 6 -62 9 -73 2 -11 5 -23 5 -27 1 -4 7 -13 14 -20 7 -7 20 -25 30
-40 10 -16 23 -28 30 -28 7 0 24 -14 37 -32 19 -26 24 -47 28 -122 4 -80 2
-94 -16 -115 l-19 -25 -63 19 c-66 20 -119 63 -138 112 -6 15 -23 75 -37 133
-15 58 -37 125 -50 150 -42 83 -41 182 3 233 21 24 55 15 96 -26z m928 34 c16
-6 5 -8 -40 -9 -34 0 -64 3 -67 7 -6 11 79 13 107 2z m12 -49 c3 -5 -1 -9 -9
-9 -8 0 -12 4 -9 9 3 4 7 8 9 8 2 0 6 -4 9 -8z m-795 -36 c-1 -6 0 -18 4 -26
3 -8 8 -40 11 -70 l5 -55 -17 30 c-9 17 -17 53 -18 81 0 27 -4 57 -9 65 -8 12
-6 12 8 0 10 -7 16 -19 16 -25z m791 -36 c-8 -5 -35 -10 -60 -10 -59 0 -35 16
28 18 34 2 43 0 32 -8z m19 -779 c24 -13 27 -27 7 -34 -13 -5 -24 -54 -41
-189 -3 -26 -10 -50 -14 -53 -5 -2 -29 2 -54 11 -55 19 -57 25 -55 177 l1 108
67 -4 c37 -3 77 -10 89 -16z m-10 -337 c2 -2 -2 -49 -8 -106 -6 -57 -11 -110
-12 -119 0 -9 11 -28 25 -42 18 -18 26 -37 26 -60 0 -30 -4 -35 -27 -40 -49
-9 -224 15 -223 32 1 3 14 31 30 61 17 30 30 69 30 87 0 17 5 35 10 38 10 6 8
51 -6 127 -5 23 -2 27 23 31 27 4 124 -2 132 -9z m-182 -410 c-3 -3 -12 -4
-19 -1 -8 3 -5 6 6 6 11 1 17 -2 13 -5z m229 -16 c-9 -5 -54 -11 -100 -13 -64
-4 -86 -2 -95 9 -10 12 0 13 63 11 41 -2 87 0 103 4 33 10 53 2 29 -11z"/>
<path d="M8020 8272 c0 -7 5 -12 10 -12 6 0 10 -6 10 -12 0 -7 16 -24 36 -38
19 -14 52 -38 72 -53 75 -58 84 -60 130 -27 22 17 47 42 56 55 16 25 16 28 -5
62 l-22 36 -19 -23 c-10 -12 -18 -28 -18 -35 0 -7 -14 -18 -31 -24 -27 -9 -38
-7 -87 21 -32 17 -63 35 -69 40 -7 6 -19 8 -27 5 -7 -3 -19 0 -25 6 -8 8 -11
8 -11 -1z"/>
<path d="M7640 4601 c0 -6 4 -13 10 -16 6 -3 7 1 4 9 -7 18 -14 21 -14 7z"/>
</g>
</svg>
