<?xml version="1.0" standalone="no"?>
<!DOCTYPE svg PUBLIC "-//W3C//DTD SVG 20010904//EN"
 "http://www.w3.org/TR/2001/REC-SVG-20010904/DTD/svg10.dtd">
<svg version="1.0" xmlns="http://www.w3.org/2000/svg"
 width="1500.000000pt" height="1500.000000pt" viewBox="0 0 1500.000000 1500.000000"
 preserveAspectRatio="xMidYMid meet">

<g transform="translate(0.000000,1500.000000) scale(0.100000,-0.100000)"
fill="#000000" stroke="none">
<path d="M0 7500 l0 -7500 7500 0 7500 0 0 7500 0 7500 -7500 0 -7500 0 0
-7500z m12340 0 l0 -4840 -4840 0 -4840 0 0 4840 0 4840 4840 0 4840 0 0
-4840z"/>
<path d="M7460 8981 c0 -6 -9 -11 -20 -11 -16 0 -18 -4 -11 -22 4 -12 14 -24
22 -26 8 -3 11 -1 7 3 -4 5 -3 14 3 22 6 7 8 13 3 13 -5 0 -3 4 5 9 9 6 10 11
2 15 -6 4 -11 2 -11 -3z"/>
<path d="M7586 8961 c-3 -4 -17 -6 -31 -3 -24 4 -35 -11 -15 -23 15 -9 57 5
57 21 0 16 -4 18 -11 5z"/>
<path d="M7625 8940 c5 -16 2 -20 -19 -20 -26 0 -46 -24 -46 -54 0 -27 19 -18
34 17 8 17 15 25 15 16 1 -20 27 -43 34 -32 3 5 2 15 -3 23 -4 7 -4 23 0 36 7
16 5 24 -6 28 -12 4 -14 1 -9 -14z"/>
<path d="M7815 8890 c-3 -5 -1 -10 4 -10 6 0 11 5 11 10 0 6 -2 10 -4 10 -3 0
-8 -4 -11 -10z"/>
<path d="M7925 8880 c3 -5 8 -10 11 -10 2 0 4 5 4 10 0 6 -5 10 -11 10 -5 0
-7 -4 -4 -10z"/>
<path d="M7905 8861 c-3 -5 -1 -12 5 -16 5 -3 10 1 10 9 0 18 -6 21 -15 7z"/>
<path d="M7864 8844 c2 -10 8 -20 14 -22 6 -2 9 5 8 14 -2 10 -8 20 -14 22 -6
2 -9 -5 -8 -14z"/>
<path d="M7921 8809 c11 -22 29 -25 29 -5 0 7 -9 16 -20 19 -17 4 -18 2 -9
-14z"/>
<path d="M7060 8809 c0 -5 5 -7 10 -4 6 3 10 8 10 11 0 2 -4 4 -10 4 -5 0 -10
-5 -10 -11z"/>
<path d="M7966 8783 c-12 -12 -6 -22 9 -17 9 4 15 0 15 -9 0 -9 5 -19 10 -22
6 -3 10 3 10 14 0 21 -32 46 -44 34z"/>
<path d="M7930 8738 c0 -15 23 -20 36 -7 11 12 9 14 -11 14 -14 0 -25 -3 -25
-7z"/>
<path d="M7690 8715 c0 -8 7 -15 15 -15 8 0 15 7 15 15 0 8 -7 15 -15 15 -8 0
-15 -7 -15 -15z"/>
<path d="M8197 8624 c3 -8 11 -14 18 -14 7 0 15 -7 19 -15 3 -9 0 -15 -8 -15
-8 0 -16 5 -18 11 -2 6 -4 -8 -5 -31 -2 -34 2 -43 17 -47 23 -6 26 -23 8 -42
-10 -11 -10 -13 0 -7 7 4 12 2 12 -6 1 -8 5 -7 14 5 11 14 16 15 22 6 5 -9 10
-6 15 9 10 28 29 29 29 2 0 -21 15 -27 25 -10 7 11 8 54 2 84 -4 23 -27 34
-27 14 0 -7 -4 -19 -9 -27 -8 -13 -12 -13 -26 -1 -16 13 -16 14 0 20 16 6 16
7 1 22 -9 9 -16 21 -16 26 0 11 -25 23 -57 27 -15 2 -20 -1 -16 -11z m53 -88
c0 -3 -4 -8 -10 -11 -5 -3 -10 -1 -10 4 0 6 5 11 10 11 6 0 10 -2 10 -4z"/>
<path d="M7840 8617 c0 -27 14 -36 34 -21 21 15 16 26 -14 31 -11 2 -20 -3
-20 -10z"/>
<path d="M7944 8614 c3 -9 6 -18 6 -20 0 -2 4 -4 8 -4 4 0 8 9 9 20 1 12 -4
20 -14 20 -10 0 -13 -6 -9 -16z"/>
<path d="M6827 8603 c-13 -12 -7 -33 8 -33 8 0 15 9 15 20 0 20 -11 26 -23 13z"/>
<path d="M8105 8540 c-3 -5 -1 -10 4 -10 6 0 11 5 11 10 0 6 -2 10 -4 10 -3 0
-8 -4 -11 -10z"/>
<path d="M7865 8520 c-3 -6 1 -7 9 -4 18 7 21 14 7 14 -6 0 -13 -4 -16 -10z"/>
<path d="M8180 8516 c0 -2 8 -10 18 -17 15 -13 16 -12 3 4 -13 16 -21 21 -21
13z"/>
<path d="M8140 8490 c0 -5 5 -10 10 -10 6 0 10 5 10 10 0 6 -4 10 -10 10 -5 0
-10 -4 -10 -10z"/>
<path d="M8360 8470 c0 -5 4 -10 9 -10 6 0 13 5 16 10 3 6 -1 10 -9 10 -9 0
-16 -4 -16 -10z"/>
<path d="M7740 8453 c-14 -7 -19 -13 -12 -13 6 0 12 -4 12 -10 0 -14 -28 -12
-33 3 -2 6 -8 9 -12 5 -4 -4 -3 -13 1 -20 5 -7 10 -22 11 -32 2 -11 8 -25 13
-31 5 -7 6 -16 2 -20 -4 -4 8 2 26 15 39 29 43 52 8 46 l-25 -4 20 35 c11 19
19 36 17 37 -2 2 -14 -3 -28 -11z"/>
<path d="M7990 8421 c0 -6 5 -13 10 -16 6 -3 10 1 10 9 0 9 -4 16 -10 16 -5 0
-10 -4 -10 -9z"/>
<path d="M6781 8398 c-5 -13 -7 -27 -4 -31 6 -11 33 12 33 29 0 24 -20 26 -29
2z"/>
<path d="M7320 8395 c0 -15 -16 -20 -60 -16 -18 1 -21 -1 -11 -8 22 -15 81
-11 81 5 0 8 5 14 11 14 5 0 7 5 4 10 -9 15 -25 12 -25 -5z"/>
<path d="M8091 8381 c-11 -7 -9 -11 8 -20 18 -10 21 -9 21 9 0 22 -7 25 -29
11z"/>
<path d="M7067 8374 c-8 -8 1 -24 14 -24 5 0 9 7 9 15 0 15 -12 20 -23 9z"/>
<path d="M7056 8331 c-3 -4 -19 -11 -36 -14 -49 -10 -34 -34 18 -28 6 1 12 -3
12 -9 0 -5 -7 -10 -15 -10 -9 0 -12 -6 -9 -15 8 -21 27 -19 42 5 9 14 9 26 3
39 -7 12 -6 22 1 29 9 9 9 12 1 12 -7 0 -14 -4 -17 -9z"/>
<path d="M7200 8286 c0 -2 7 -9 15 -16 13 -11 14 -10 9 4 -5 14 -24 23 -24 12z"/>
<path d="M6845 8270 c-3 -5 -1 -10 4 -10 6 0 11 5 11 10 0 6 -2 10 -4 10 -3 0
-8 -4 -11 -10z"/>
<path d="M7106 8261 c-14 -5 -16 -10 -8 -15 7 -4 19 0 28 8 17 17 11 19 -20 7z"/>
<path d="M8282 8213 c2 -9 14 -18 28 -20 19 -2 22 -1 10 7 -8 5 -10 10 -5 10
12 0 -16 20 -28 20 -5 0 -7 -7 -5 -17z"/>
<path d="M6820 8210 c0 -5 7 -10 16 -10 8 0 12 5 9 10 -3 6 -10 10 -16 10 -5
0 -9 -4 -9 -10z"/>
<path d="M7845 8210 c-8 -13 -1 -24 14 -19 6 3 7 10 2 18 -6 10 -10 10 -16 1z"/>
<path d="M8287 8174 c-7 -8 3 -34 13 -34 9 0 8 26 -1 35 -3 3 -8 2 -12 -1z"/>
<path d="M8505 8140 c-3 -5 -15 -10 -27 -10 -19 0 -19 -2 -5 -22 8 -13 17 -22
21 -20 10 4 5 17 -6 14 -5 -1 -6 2 -3 8 4 6 14 9 23 5 9 -3 13 -3 9 1 -4 4 -2
13 4 21 8 9 8 13 1 13 -6 0 -14 -4 -17 -10z"/>
<path d="M7307 8094 c-13 -13 -140 -22 -158 -11 -14 9 -25 6 -56 -16 -89 -63
-88 -62 -74 -93 10 -22 14 -25 22 -13 5 7 9 11 9 6 0 -4 10 -1 23 7 38 26 122
26 195 0 l65 -22 38 37 c31 29 38 43 36 69 -2 37 -29 51 -54 30 -13 -10 -17
-10 -20 0 -5 13 -16 16 -26 6z"/>
<path d="M7827 8062 c-12 -2 -16 -9 -12 -23 4 -10 2 -19 -3 -19 -16 0 -23 -31
-12 -45 12 -14 94 -23 272 -30 91 -3 107 -2 112 12 10 24 -40 60 -94 68 -25 4
-78 9 -119 11 -46 2 -78 9 -82 16 -9 13 -31 17 -62 10z"/>
<path d="M8412 8025 c-12 -26 -36 -36 -26 -10 4 8 1 15 -5 15 -6 0 -11 -3 -12
-7 0 -5 -2 -16 -4 -26 -2 -9 5 -22 16 -27 26 -15 24 -27 -7 -34 -19 -5 -24
-11 -20 -23 4 -9 1 -20 -6 -25 -9 -5 -4 -8 15 -8 17 0 27 5 27 14 0 8 8 17 18
19 16 4 16 5 0 6 -16 1 -16 3 3 22 14 14 17 24 10 33 -12 14 -3 30 22 39 21 8
18 31 -5 35 -8 1 -20 -9 -26 -23z"/>
<path d="M6807 7994 c-8 -8 1 -24 12 -24 4 0 8 7 8 15 0 16 -9 20 -20 9z"/>
<path d="M6880 7982 c0 -10 6 -24 12 -30 10 -10 10 -15 -2 -22 -12 -8 -10 -10
8 -10 30 0 41 29 18 46 -10 7 -15 17 -11 23 3 6 -1 11 -9 11 -9 0 -16 -8 -16
-18z"/>
<path d="M7105 7962 c-33 -4 -57 -20 -50 -32 2 -4 40 -7 82 -8 85 0 122 -13
157 -56 12 -15 36 -28 56 -32 31 -5 33 -4 18 9 -15 12 -15 15 -2 29 13 13 13
16 1 27 -8 6 -25 14 -37 16 -13 2 -48 13 -79 23 -68 23 -106 30 -146 24z"/>
<path d="M8490 7943 c0 -12 5 -25 10 -28 13 -8 13 15 0 35 -8 12 -10 11 -10
-7z"/>
<path d="M6797 7906 c-4 -10 -5 -21 -2 -24 9 -9 17 6 13 25 -3 17 -4 17 -11
-1z"/>
<path d="M7845 7889 c-67 -43 -84 -69 -45 -69 11 0 20 4 20 9 0 5 18 18 41 30
35 19 52 21 140 16 54 -2 99 -1 99 3 -1 29 -23 37 -112 40 -90 3 -95 1 -143
-29z"/>
<path d="M6859 7886 c12 -14 11 -16 -8 -16 -11 0 -21 -4 -21 -8 0 -17 13 -20
36 -10 29 13 28 41 -1 47 -17 3 -18 1 -6 -13z"/>
<path d="M7000 7870 c0 -4 11 -17 25 -30 20 -19 31 -22 66 -16 30 5 45 3 50
-6 5 -8 33 -14 71 -16 35 -1 76 -4 92 -5 16 -1 31 3 33 9 4 11 -56 45 -104 58
-30 9 -233 14 -233 6z"/>
<path d="M8494 7849 c1 -7 12 -14 25 -16 14 -2 20 1 16 8 -4 6 -13 8 -20 5 -8
-3 -16 -1 -19 5 -2 5 -3 4 -2 -2z"/>
<path d="M7891 7824 c-11 -8 -21 -13 -21 -10 0 2 -15 -9 -34 -26 -28 -25 -33
-35 -30 -66 6 -69 21 -119 48 -168 46 -81 62 -159 71 -339 3 -66 9 -160 12
-210 10 -125 7 -181 -11 -207 -9 -12 -16 -28 -16 -35 0 -20 34 -15 48 7 7 11
18 20 26 20 16 0 46 32 46 49 0 6 -11 16 -24 21 -21 8 -24 16 -29 82 -4 40 -8
143 -11 228 -5 204 -30 335 -75 399 -22 31 -29 54 -40 122 l-8 51 34 15 c27
11 42 12 69 3 18 -6 44 -8 56 -4 13 4 45 8 73 8 39 1 50 5 53 19 2 10 -4 19
-15 23 -10 3 -27 10 -38 17 -32 17 -159 18 -184 1z"/>
<path d="M8510 7759 c0 -5 5 -7 10 -4 6 3 10 8 10 11 0 2 -4 4 -10 4 -5 0 -10
-5 -10 -11z"/>
<path d="M8580 7761 c0 -6 4 -12 8 -15 5 -3 9 1 9 9 0 8 -4 15 -9 15 -4 0 -8
-4 -8 -9z"/>
<path d="M8703 7703 c-13 -5 -18 -55 -6 -66 8 -9 32 24 33 45 0 20 -10 27 -27
21z"/>
<path d="M8587 7645 c3 -8 9 -12 14 -9 12 7 11 11 -5 17 -10 4 -13 1 -9 -8z"/>
<path d="M6450 7580 c0 -5 5 -10 10 -10 6 0 10 5 10 10 0 6 -4 10 -10 10 -5 0
-10 -4 -10 -10z"/>
<path d="M7455 7553 c-14 -21 -16 -34 -9 -61 5 -20 14 -37 20 -39 17 -6 26 27
13 43 -8 10 -8 22 0 45 13 38 13 39 2 39 -5 0 -17 -12 -26 -27z"/>
<path d="M7725 7570 c-3 -5 -1 -19 5 -31 9 -16 9 -24 -1 -33 -9 -8 -11 -7 -6
7 5 12 1 17 -11 17 -27 0 -72 -23 -72 -37 0 -6 -4 -15 -10 -18 -12 -7 -59 16
-59 30 -1 6 -5 23 -11 39 l-10 29 -29 -32 c-34 -38 -31 -56 13 -75 54 -24 79
-26 98 -9 20 18 19 20 23 -57 1 -25 5 -62 9 -83 6 -25 4 -42 -4 -52 -14 -17
-7 -31 20 -38 39 -10 52 53 26 128 -24 73 -27 103 -9 121 15 14 17 14 25 0 8
-14 11 -14 33 0 29 19 36 74 10 74 -8 0 -15 7 -15 15 0 17 -16 20 -25 5z"/>
<path d="M8706 7515 c4 -9 11 -14 16 -13 15 5 11 23 -6 26 -11 2 -14 -2 -10
-13z"/>
<path d="M8337 7513 c-12 -12 -7 -22 8 -17 8 4 15 10 15 15 0 11 -14 12 -23 2z"/>
<path d="M8760 7490 c0 -5 5 -10 10 -10 6 0 10 5 10 10 0 6 -4 10 -10 10 -5 0
-10 -4 -10 -10z"/>
<path d="M8220 7465 c0 -14 0 -28 -1 -32 -1 -13 16 -14 33 -1 14 12 14 15 -8
36 l-24 23 0 -26z"/>
<path d="M6538 7464 c-6 -5 20 -64 28 -64 3 0 2 5 -1 10 -3 6 -2 10 3 10 5 0
10 11 10 25 0 23 -25 35 -40 19z"/>
<path d="M8330 7431 c-9 -18 -8 -22 7 -28 10 -3 22 -8 27 -11 9 -5 -2 39 -14
52 -5 4 -13 -1 -20 -13z"/>
<path d="M8515 7359 c-11 -17 1 -21 15 -4 8 9 8 15 2 15 -6 0 -14 -5 -17 -11z"/>
<path d="M6480 7325 c0 -9 7 -18 16 -22 20 -7 38 18 21 29 -20 13 -37 9 -37
-7z"/>
<path d="M8515 7309 c-4 -6 -5 -13 -2 -16 7 -7 27 6 27 18 0 12 -17 12 -25 -2z"/>
<path d="M8657 7313 c-12 -12 -7 -22 8 -17 8 4 15 10 15 15 0 11 -14 12 -23 2z"/>
<path d="M6560 7299 c0 -5 5 -7 10 -4 6 3 10 8 10 11 0 2 -4 4 -10 4 -5 0 -10
-5 -10 -11z"/>
<path d="M8295 7283 c-20 -51 -16 -97 7 -88 8 3 14 25 15 55 1 50 -9 65 -22
33z"/>
<path d="M8680 7264 c0 -8 5 -12 10 -9 6 4 8 11 5 16 -9 14 -15 11 -15 -7z"/>
<path d="M8637 7263 c-4 -3 -7 -15 -7 -26 0 -16 3 -17 15 -7 8 7 15 19 15 26
0 15 -12 19 -23 7z"/>
<path d="M8670 7220 c0 -5 5 -10 11 -10 5 0 7 5 4 10 -3 6 -8 10 -11 10 -2 0
-4 -4 -4 -10z"/>
<path d="M8616 7202 c-3 -6 -1 -14 5 -17 15 -10 25 3 12 16 -7 7 -13 7 -17 1z"/>
<path d="M7330 7185 c0 -4 6 -18 14 -33 17 -35 18 -107 2 -212 -7 -47 -12
-105 -12 -130 1 -35 -4 -49 -21 -62 -11 -10 -26 -18 -32 -18 -6 0 -11 -8 -11
-18 0 -16 22 -25 128 -49 31 -7 30 31 -2 52 -20 13 -24 24 -25 77 -1 34 -3 64
-6 66 -2 3 0 13 6 23 10 20 12 33 25 157 5 53 12 76 25 85 21 15 13 33 -26 53
-27 14 -65 19 -65 9z"/>
<path d="M8671 7137 c-8 -10 -7 -14 4 -14 8 0 15 6 15 14 0 7 -2 13 -4 13 -2
0 -9 -6 -15 -13z"/>
<path d="M8696 7121 c-22 -25 -14 -40 18 -34 24 5 29 24 10 43 -7 7 -16 4 -28
-9z"/>
<path d="M6567 7063 c-10 -9 -9 -23 2 -23 5 0 11 7 15 15 5 15 -5 20 -17 8z"/>
<path d="M6946 7055 c-4 -10 1 -15 16 -15 17 0 18 2 8 15 -7 8 -14 15 -15 15
-2 0 -5 -7 -9 -15z"/>
<path d="M6940 7005 c0 -9 5 -15 11 -13 6 2 11 8 11 13 0 5 -5 11 -11 13 -6 2
-11 -4 -11 -13z"/>
<path d="M8481 6981 c-17 -11 -10 -46 9 -46 17 0 26 33 13 46 -4 4 -14 4 -22
0z"/>
<path d="M6828 6923 c-35 -5 -37 -23 -3 -23 14 0 25 -4 25 -10 0 -5 7 -10 15
-10 8 0 15 -4 15 -10 0 -10 -14 -14 -37 -11 -17 2 -16 -10 3 -37 16 -24 46
-30 43 -9 -3 27 1 48 10 43 16 -10 -1 36 -21 56 -10 10 -19 17 -20 17 -2 -1
-15 -4 -30 -6z"/>
<path d="M6940 6820 c0 -5 5 -10 11 -10 5 0 7 5 4 10 -3 6 -8 10 -11 10 -2 0
-4 -4 -4 -10z"/>
<path d="M6937 6739 c7 -7 15 -10 18 -7 3 3 -2 9 -12 12 -14 6 -15 5 -6 -5z"/>
</g>
</svg>
