<?xml version="1.0" standalone="no"?>
<!DOCTYPE svg PUBLIC "-//W3C//DTD SVG 20010904//EN"
 "http://www.w3.org/TR/2001/REC-SVG-20010904/DTD/svg10.dtd">
<svg version="1.0" xmlns="http://www.w3.org/2000/svg"
 width="1500.000000pt" height="1500.000000pt" viewBox="0 0 1500.000000 1500.000000"
 preserveAspectRatio="xMidYMid meet">

<g transform="translate(0.000000,1500.000000) scale(0.100000,-0.100000)"
fill="#000000" stroke="none">
<path d="M0 7500 l0 -7500 7500 0 7500 0 0 7500 0 7500 -7500 0 -7500 0 0
-7500z m12340 0 l0 -4840 -4840 0 -4840 0 0 4840 0 4840 4840 0 4840 0 0
-4840z"/>
<path d="M7586 9758 c-20 -16 -40 -26 -46 -23 -6 4 -8 10 -6 14 3 4 -9 7 -26
7 -24 0 -42 -10 -75 -44 -23 -25 -43 -48 -43 -52 0 -4 -9 -10 -19 -13 -11 -2
-21 -15 -23 -28 -2 -16 -9 -23 -20 -21 -15 2 -32 -13 -33 -30 0 -14 -46 -68
-58 -68 -25 0 -69 -57 -67 -86 3 -45 2 -48 -30 -62 -50 -23 -71 -93 -43 -147
17 -33 22 -79 13 -118 -7 -32 -5 -40 19 -63 14 -14 27 -38 28 -51 5 -58 87
-99 127 -64 10 9 22 27 27 40 7 17 14 21 27 15 9 -4 34 -6 55 -5 20 1 37 -3
37 -9 0 -5 -4 -10 -9 -10 -5 0 -14 -13 -21 -29 -6 -16 -19 -31 -28 -34 -9 -3
-26 -8 -36 -13 -13 -5 -17 -4 -12 4 4 7 -2 8 -23 2 -16 -4 -32 -6 -34 -3 -3 3
-29 -17 -58 -44 -178 -163 -159 -138 -207 -263 l-30 -75 24 -20 c24 -19 25
-24 25 -168 1 -82 5 -162 9 -178 5 -16 12 -82 15 -147 3 -64 11 -122 16 -128
12 -15 10 -169 -3 -204 -5 -13 -13 -72 -19 -130 -5 -58 -12 -118 -14 -135 -13
-79 -17 -347 -6 -430 10 -85 33 -172 52 -205 5 -8 18 -34 29 -57 25 -52 57
-54 52 -3 -3 21 0 30 7 26 6 -4 11 -16 11 -26 0 -10 4 -21 10 -25 5 -3 7 -12
3 -20 -3 -9 0 -28 5 -43 6 -15 14 -47 17 -71 4 -24 17 -84 31 -135 14 -50 32
-125 40 -166 8 -40 21 -101 29 -135 15 -60 14 -149 -2 -230 -10 -45 -9 -164 1
-240 13 -100 17 -141 21 -180 2 -22 9 -69 15 -105 6 -36 13 -81 14 -100 4 -37
11 -72 27 -130 25 -91 36 -291 25 -449 -2 -35 0 -76 4 -92 10 -33 -5 -107 -27
-131 -14 -15 -13 -19 10 -40 77 -72 185 -89 271 -43 53 28 67 30 117 12 54
-19 157 -15 207 7 40 18 55 36 30 36 -6 0 -4 6 7 14 15 11 17 21 11 67 -4 30
-8 62 -8 72 1 9 -3 17 -9 17 -5 0 -9 -14 -9 -32 0 -40 -17 -26 -21 17 -4 56 1
106 10 100 14 -8 20 7 26 66 4 30 8 65 9 80 2 14 -3 44 -11 68 -8 24 -12 49
-9 56 2 7 2 15 -1 18 -9 10 -11 347 -1 347 5 0 2 10 -6 22 -18 25 -21 58 -6
58 5 0 9 3 9 8 -4 22 2 42 11 37 6 -3 10 1 10 9 0 8 -5 18 -11 21 -7 5 -6 12
4 23 22 27 29 42 18 42 -5 0 -12 -8 -14 -17 -3 -10 -4 40 -4 110 1 71 5 131
10 134 4 2 4 10 -1 16 -16 20 -10 47 10 47 20 0 22 30 4 58 -5 8 -9 74 -9 148
-1 108 -3 131 -14 122 -10 -8 -13 -6 -13 10 0 15 5 20 14 16 11 -4 17 5 21 33
4 21 9 50 11 66 3 16 1 27 -5 27 -10 0 -13 -13 -15 -67 -1 -13 -5 -23 -11 -23
-12 0 -12 0 -2 68 4 28 12 52 17 52 6 0 10 -6 11 -12 1 -31 21 43 25 97 10
107 10 135 1 135 -4 0 -2 7 7 15 8 9 18 31 22 50 8 42 17 49 44 35 16 -9 24
-7 43 12 74 73 83 128 78 463 -2 88 -2 207 -1 265 2 140 2 148 -9 131 -5 -7
-7 -21 -6 -30 1 -9 0 -10 -2 -3 -3 6 -9 12 -14 12 -12 0 -11 12 2 47 8 22 12
24 19 13 6 -8 10 -13 10 -10 1 3 3 64 6 135 3 79 11 147 20 172 9 24 13 51 10
60 -3 10 -8 52 -12 93 -3 41 -7 98 -9 125 -2 28 -7 91 -9 140 -9 155 -18 219
-32 243 -8 12 -12 22 -9 22 10 0 -33 99 -53 120 -12 13 -19 27 -16 32 3 4 1 8
-5 8 -5 0 -22 22 -37 50 -15 27 -31 47 -35 44 -5 -3 -9 0 -9 7 0 14 -55 69
-70 69 -5 0 -10 -7 -10 -16 0 -12 -10 -7 -37 17 -45 38 -68 84 -50 96 30 19
61 33 74 33 8 0 28 9 44 21 17 12 42 24 57 28 15 4 36 22 47 39 11 18 31 35
45 38 38 10 57 31 56 62 -1 15 4 39 11 54 23 47 16 82 -21 116 -19 17 -37 44
-41 60 -3 16 -21 45 -39 64 -18 19 -41 48 -50 64 -26 44 -105 94 -148 94 -27
0 -42 7 -56 25 -11 14 -27 25 -36 25 -8 0 -25 13 -37 30 -12 16 -26 27 -31 24
-4 -3 -8 -1 -8 5 0 10 -90 47 -134 55 -16 3 -35 -5 -60 -26z m231 -705 c-4 -3
-2 -12 4 -20 9 -9 8 -13 0 -13 -6 0 -11 2 -11 4 0 2 -3 11 -6 20 -4 10 -1 16
7 16 7 0 9 -3 6 -7z m-287 -93 c0 -5 -5 -10 -11 -10 -5 0 -7 5 -4 10 3 6 8 10
11 10 2 0 4 -4 4 -10z m375 -50 c3 -5 1 -10 -4 -10 -6 0 -11 5 -11 10 0 6 2
10 4 10 3 0 8 -4 11 -10z m205 -1151 c0 -5 -4 -9 -8 -9 -5 0 -9 7 -9 15 0 8 4
12 9 9 4 -3 8 -9 8 -15z m-460 -229 c0 -5 -2 -10 -4 -10 -3 0 -8 5 -11 10 -3
6 -1 10 4 10 6 0 11 -4 11 -10z m370 -81 c0 -5 -7 -9 -15 -9 -8 0 -15 7 -15
15 0 9 6 12 15 9 8 -4 15 -10 15 -15z m227 -121 c-3 -7 -5 -2 -5 12 0 14 2 19
5 13 2 -7 2 -19 0 -25z m5 -71 c-9 -18 -21 9 -15 33 l7 25 6 -25 c4 -14 5 -29
2 -33z m-2 -53 c0 -8 -5 -12 -10 -9 -6 4 -8 11 -5 16 9 14 15 11 15 -7z m-5
-411 c-4 -10 -7 -26 -7 -35 0 -10 -4 -20 -10 -24 -9 -6 -9 6 2 74 0 1 5 2 11
2 7 0 8 -7 4 -17z m-125 -92 c0 -11 -4 -23 -10 -26 -6 -4 -10 5 -10 19 0 14 5
26 10 26 6 0 10 -9 10 -19z m-471 -284 c0 -48 5 -107 15 -182 3 -16 7 -70 11
-120 4 -49 10 -103 15 -120 5 -16 11 -52 14 -80 3 -27 8 -63 10 -80 13 -89 20
-175 30 -360 3 -49 8 -110 12 -135 3 -25 8 -85 10 -135 3 -82 14 -175 29 -247
3 -16 7 -40 9 -55 3 -16 8 -41 11 -58 4 -16 7 -34 7 -40 -1 -5 -2 -39 -3 -75
-2 -70 -21 -133 -51 -166 -10 -11 -18 -25 -18 -31 0 -6 -12 -22 -26 -36 -20
-20 -25 -34 -22 -57 3 -17 1 -33 -4 -36 -4 -3 -8 10 -9 28 -1 66 -10 114 -27
138 -9 14 -18 39 -20 55 -2 23 0 26 8 15 8 -12 10 -9 10 13 0 20 -4 26 -12 21
-10 -6 -10 -5 -2 7 14 17 -12 93 -28 83 -14 -9 -28 16 -28 51 0 23 3 27 10 15
6 -10 10 -11 10 -2 0 24 -1 27 -14 24 -9 -1 -13 13 -13 51 0 30 -4 60 -9 68
-12 20 -15 37 -15 102 0 32 5 65 12 73 8 10 8 14 0 14 -18 0 -13 91 7 113 16
19 16 20 0 14 -15 -5 -16 0 -11 41 3 26 9 52 14 58 5 6 6 13 4 16 -12 12 -14
52 -3 66 7 8 8 16 2 20 -11 8 -12 122 -1 122 4 0 7 7 7 15 0 8 -3 15 -7 15
-13 0 -12 54 0 69 9 12 9 13 0 7 -9 -5 -12 1 -9 24 2 17 -1 33 -6 36 -5 3 -7
12 -4 20 3 8 1 14 -4 14 -9 0 -5 88 4 97 3 3 1 14 -5 25 -8 15 -7 22 6 32 16
12 16 13 0 29 -9 9 -12 17 -7 17 5 0 7 19 5 43 -4 31 -1 46 10 56 15 12 13 40
-4 51 -5 3 -2 28 6 54 18 58 18 69 5 61 -6 -3 -7 1 -4 9 3 9 11 16 16 16 6 0
8 20 5 50 -3 28 -2 50 1 50 9 0 32 50 32 68 0 7 4 10 10 7 5 -3 10 -29 9 -58z
m51 -22 c0 -12 -19 -12 -23 0 -4 9 -1 12 9 8 7 -3 14 -7 14 -8z m351 -56 c-10
-23 -10 -23 -10 7 -1 17 2 34 7 38 11 12 14 -18 3 -45z m-471 -213 c0 -3 -4
-8 -10 -11 -5 -3 -10 -1 -10 4 0 6 5 11 10 11 6 0 10 -2 10 -4z m150 -62 c0
-8 -4 -14 -10 -14 -5 0 -10 9 -10 21 0 11 5 17 10 14 6 -3 10 -13 10 -21z
m285 -11 c-2 -10 -4 -22 -4 -27 -2 -16 -15 4 -16 24 -1 11 4 20 11 20 7 0 11
-8 9 -17z m-273 -79 c2 -19 0 -37 -4 -40 -4 -3 -8 6 -8 20 0 14 -4 27 -10 31
-5 3 -7 12 -4 20 9 23 21 9 26 -31z m274 -19 c1 -8 -2 -15 -7 -15 -5 0 -9 10
-9 22 0 23 12 17 16 -7z m-273 -50 c-3 -9 -8 -14 -10 -11 -3 3 -2 9 2 15 9 16
15 13 8 -4z m60 -590 c-7 -21 -13 -19 -13 6 0 11 4 18 10 14 5 -3 7 -12 3 -20z
m16 -175 c23 -186 23 -186 10 -173 -13 13 -15 25 -22 138 -3 39 -6 75 -7 80
-1 6 -2 19 -1 29 2 38 10 9 20 -74z m-387 -86 c-6 -35 -12 -29 -12 14 0 23 3
32 9 24 4 -7 6 -24 3 -38z m428 -174 c0 -5 -7 -7 -15 -4 -8 4 -12 10 -9 15 6
11 24 2 24 -11z m160 -420 c0 -5 -2 -10 -4 -10 -3 0 -8 5 -11 10 -3 6 -1 10 4
10 6 0 11 -4 11 -10z m-30 -62 c0 -4 -4 -8 -9 -8 -5 0 -17 -3 -27 -7 -16 -6
-17 -5 -4 8 15 17 40 21 40 7z"/>
<path d="M8040 5763 c0 -5 5 -15 10 -23 8 -12 10 -11 10 8 0 12 -4 22 -10 22
-5 0 -10 -3 -10 -7z"/>
<path d="M8042 5630 c0 -14 2 -19 5 -12 2 6 2 18 0 25 -3 6 -5 1 -5 -13z"/>
<path d="M8041 5544 c0 -11 3 -14 6 -6 3 7 2 16 -1 19 -3 4 -6 -2 -5 -13z"/>
</g>
</svg>
