<?xml version="1.0" standalone="no"?>
<!DOCTYPE svg PUBLIC "-//W3C//DTD SVG 20010904//EN"
 "http://www.w3.org/TR/2001/REC-SVG-20010904/DTD/svg10.dtd">
<svg version="1.0" xmlns="http://www.w3.org/2000/svg"
 width="1500.000000pt" height="1500.000000pt" viewBox="0 0 1500.000000 1500.000000"
 preserveAspectRatio="xMidYMid meet">

<g transform="translate(0.000000,1500.000000) scale(0.100000,-0.100000)"
fill="#000000" stroke="none">
<path d="M0 7500 l0 -7500 7500 0 7500 0 0 7500 0 7500 -7500 0 -7500 0 0
-7500z m12340 0 l0 -4840 -4840 0 -4840 0 0 2247 c1 1396 5 2242 10 2233 6 -9
10 -10 10 -3 0 6 -5 15 -10 18 -13 8 -11 173 1 181 5 3 9 11 9 17 0 7 -4 6
-10 -3 -7 -11 -10 2 -10 43 0 33 4 56 9 53 10 -7 9 20 -2 30 -14 14 -7 63 11
74 16 11 16 11 0 6 -13 -4 -18 0 -18 15 0 11 5 17 10 14 6 -3 10 -1 10 4 0 6
-5 11 -11 11 -8 0 -7 6 2 17 10 11 10 14 2 9 -18 -10 -17 195 0 206 9 6 8 8
-1 8 -11 0 -13 187 -11 1023 1 562 5 1032 10 1044 4 12 5 24 1 27 -4 2 -9 84
-10 181 -2 141 0 175 10 169 10 -6 10 -5 2 7 -16 20 -16 152 -1 142 9 -5 9 -3
1 8 -14 16 -17 749 -4 749 14 0 19 40 6 53 -18 18 -22 227 -4 227 8 0 9 3 3 8
-12 8 -13 32 -2 50 5 6 4 12 -1 12 -5 0 -9 29 -9 65 0 36 2 65 4 65 2 0 13 -5
24 -10 10 -6 19 -7 19 -2 0 15 -28 34 -40 27 -6 -3 -10 3 -10 15 0 12 5 18 10
15 6 -3 10 1 10 10 0 12 5 15 18 10 13 -5 14 -3 5 6 -6 6 -9 19 -5 28 5 14 3
14 -10 3 -14 -11 -16 -10 -13 5 1 10 8 17 16 15 9 -2 10 0 1 10 -12 15 -11 35
2 56 4 7 5 20 2 28 -3 9 -1 12 4 9 6 -3 10 1 10 9 0 9 -6 16 -12 17 -10 0 -10
2 -1 5 15 7 5 34 -12 34 -7 0 -16 7 -19 16 -5 13 -3 14 7 6 16 -14 32 -3 40
26 4 17 2 22 -8 18 -7 -2 -19 2 -25 10 -10 11 -10 14 0 14 7 0 10 7 6 15 -3 9
0 15 9 15 8 0 15 8 16 18 0 9 2 25 4 35 4 19 -21 24 -28 5 -2 -7 -4 -1 -4 15
0 15 4 30 10 34 6 3 7 1 3 -5 -4 -7 -1 -12 6 -12 9 0 13 20 14 75 0 67 -2 75
-18 75 -11 0 -16 4 -13 10 4 7 1645 10 4831 10 l4824 0 0 -4840z m-9650 4780
c0 -5 -2 -10 -4 -10 -3 0 -8 5 -11 10 -3 6 -1 10 4 10 6 0 11 -4 11 -10z m3
-277 c-7 -2 -19 -2 -25 0 -7 3 -2 5 12 5 14 0 19 -2 13 -5z m-26 -795 c-3 -8
-6 -5 -6 6 -1 11 2 17 5 13 3 -3 4 -12 1 -19z"/>
<path d="M2696 12055 c-3 -8 -1 -15 3 -15 5 0 11 7 15 15 3 8 1 15 -3 15 -5 0
-11 -7 -15 -15z"/>
<path d="M2693 11835 c0 -8 4 -15 9 -15 4 0 8 7 8 15 0 8 -4 15 -8 15 -5 0 -9
-7 -9 -15z"/>
<path d="M2671 11408 c-1 -20 14 -24 25 -6 4 6 3 8 -4 4 -5 -3 -13 0 -15 6 -3
8 -6 6 -6 -4z"/>
<path d="M2677 11369 c7 -7 15 -10 18 -7 3 3 -2 9 -12 12 -14 6 -15 5 -6 -5z"/>
<path d="M2707 10083 c-6 -34 6 -65 16 -39 4 9 1 16 -5 16 -7 0 -7 4 0 13 6 7
7 19 3 26 -6 9 -10 4 -14 -16z"/>
<path d="M2711 9994 c0 -11 3 -14 6 -6 3 7 2 16 -1 19 -3 4 -6 -2 -5 -13z"/>
<path d="M2711 9934 c0 -11 3 -14 6 -6 3 7 2 16 -1 19 -3 4 -6 -2 -5 -13z"/>
<path d="M2705 9810 c-11 -18 -14 -71 -4 -64 6 3 8 12 5 20 -3 8 -2 14 2 14 4
0 8 9 8 20 0 22 -2 24 -11 10z"/>
<path d="M2690 9726 c0 -2 7 -6 15 -10 8 -3 15 -1 15 4 0 6 -7 10 -15 10 -8 0
-15 -2 -15 -4z"/>
<path d="M2700 9671 c0 -6 4 -13 10 -16 6 -3 7 1 4 9 -7 18 -14 21 -14 7z"/>
<path d="M2690 9520 c0 -5 5 -10 11 -10 5 0 7 5 4 10 -3 6 -8 10 -11 10 -2 0
-4 -4 -4 -10z"/>
<path d="M2697 9493 c-2 -5 -1 -21 3 -38 l6 -30 5 33 c5 30 -4 53 -14 35z"/>
<path d="M9415 9450 c-3 -5 -1 -10 4 -10 6 0 11 5 11 10 0 6 -2 10 -4 10 -3 0
-8 -4 -11 -10z"/>
<path d="M7765 9400 c-3 -5 -1 -10 4 -10 6 0 11 5 11 10 0 6 -2 10 -4 10 -3 0
-8 -4 -11 -10z"/>
<path d="M8070 9275 c0 -8 4 -15 9 -15 5 0 11 7 15 15 3 9 0 15 -9 15 -8 0
-15 -7 -15 -15z"/>
<path d="M7830 9220 c-9 -6 -10 -10 -3 -10 6 0 15 5 18 10 8 12 4 12 -15 0z"/>
<path d="M8196 9214 c-4 -10 -1 -14 6 -12 15 5 23 28 10 28 -5 0 -13 -7 -16
-16z"/>
<path d="M8390 9200 c0 -5 5 -10 10 -10 6 0 10 5 10 10 0 6 -4 10 -10 10 -5 0
-10 -4 -10 -10z"/>
<path d="M8120 9175 c0 -8 5 -15 10 -15 6 0 10 7 10 15 0 8 -4 15 -10 15 -5 0
-10 -7 -10 -15z"/>
<path d="M8155 9160 c3 -5 11 -10 16 -10 6 0 7 5 4 10 -3 6 -11 10 -16 10 -6
0 -7 -4 -4 -10z"/>
<path d="M7380 9140 c0 -5 5 -10 10 -10 6 0 10 5 10 10 0 6 -4 10 -10 10 -5 0
-10 -4 -10 -10z"/>
<path d="M8066 9082 l-17 -33 28 7 c35 8 40 13 27 22 -6 4 -13 14 -16 22 -3
10 -10 5 -22 -18z"/>
<path d="M8317 9104 c-8 -8 1 -24 13 -24 4 0 10 7 14 15 5 15 -14 21 -27 9z"/>
<path d="M7356 9061 c-4 -5 -2 -12 3 -15 5 -4 12 -2 15 3 4 5 2 12 -3 15 -5 4
-12 2 -15 -3z"/>
<path d="M7925 9060 c-3 -5 1 -10 9 -10 9 0 16 5 16 10 0 6 -4 10 -9 10 -6 0
-13 -4 -16 -10z"/>
<path d="M8157 9047 c-13 -15 -20 -18 -23 -9 -7 15 -24 6 -24 -14 0 -23 49
-17 70 8 17 21 18 38 2 38 -4 -1 -15 -11 -25 -23z"/>
<path d="M8366 9061 c-4 -7 -5 -15 -2 -18 9 -9 19 4 14 18 -4 11 -6 11 -12 0z"/>
<path d="M7530 9046 c0 -8 5 -18 10 -21 6 -3 10 1 10 9 0 8 -4 18 -10 21 -5 3
-10 -1 -10 -9z"/>
<path d="M7445 9040 c-3 -5 -1 -10 4 -10 6 0 11 5 11 10 0 6 -2 10 -4 10 -3 0
-8 -4 -11 -10z"/>
<path d="M7121 9024 c0 -11 3 -14 6 -6 3 7 2 16 -1 19 -3 4 -6 -2 -5 -13z"/>
<path d="M7980 9031 c0 -6 5 -13 10 -16 6 -3 10 1 10 9 0 9 -4 16 -10 16 -5 0
-10 -4 -10 -9z"/>
<path d="M7050 9009 c0 -5 5 -7 10 -4 6 3 10 8 10 11 0 2 -4 4 -10 4 -5 0 -10
-5 -10 -11z"/>
<path d="M7810 9010 c0 -10 39 -34 46 -27 3 2 2 12 -2 21 -7 17 -44 23 -44 6z"/>
<path d="M8010 8996 c0 -9 5 -16 10 -16 6 0 10 4 10 9 0 6 -4 13 -10 16 -5 3
-10 -1 -10 -9z"/>
<path d="M8290 8995 c0 -8 5 -15 10 -15 6 0 10 7 10 15 0 8 -4 15 -10 15 -5 0
-10 -7 -10 -15z"/>
<path d="M7690 8990 c0 -5 7 -10 15 -10 8 0 15 5 15 10 0 6 -7 10 -15 10 -8 0
-15 -4 -15 -10z"/>
<path d="M7746 8985 c-9 -23 -8 -25 9 -25 17 0 19 9 6 28 -7 11 -10 10 -15 -3z"/>
<path d="M7785 8989 c-10 -15 3 -25 16 -12 7 7 7 13 1 17 -6 3 -14 1 -17 -5z"/>
<path d="M7155 8980 c-3 -5 -1 -10 4 -10 6 0 11 5 11 10 0 6 -2 10 -4 10 -3 0
-8 -4 -11 -10z"/>
<path d="M7101 8971 c-8 -5 -9 -11 -3 -15 5 -3 12 1 16 9 6 17 6 18 -13 6z"/>
<path d="M7913 8958 c-2 -5 -3 -8 -1 -9 27 -6 39 -5 48 6 8 10 5 13 -16 11
-14 0 -28 -4 -31 -8z"/>
<path d="M7044 8935 c3 -9 6 -19 6 -21 0 -2 6 -4 14 -4 26 0 26 17 -1 29 -22
10 -25 10 -19 -4z"/>
<path d="M8040 8934 c0 -8 5 -12 10 -9 6 3 10 10 10 16 0 5 -4 9 -10 9 -5 0
-10 -7 -10 -16z"/>
<path d="M7311 8904 c-35 -7 -90 -29 -123 -49 -33 -19 -65 -35 -72 -35 -7 0
-23 -11 -36 -25 -13 -14 -29 -25 -36 -25 -6 0 -17 -7 -24 -15 -7 -8 -16 -12
-21 -10 -10 7 -62 -42 -126 -120 -37 -45 -57 -84 -82 -155 -18 -52 -37 -104
-41 -115 -77 -195 -67 -487 20 -594 23 -27 27 -38 19 -53 -5 -10 -16 -18 -24
-18 -15 0 -19 -14 -15 -64 1 -21 -5 -35 -22 -48 -19 -15 -20 -18 -5 -18 9 0
17 -4 17 -10 0 -5 -7 -7 -15 -4 -8 4 -15 2 -16 -2 -1 -16 -7 -39 -14 -56 -4
-10 -3 -18 1 -19 5 0 17 -2 27 -4 18 -3 23 10 7 20 -14 9 -13 48 2 43 23 -8
31 -94 11 -129 -14 -23 -13 -29 5 -70 41 -90 70 -237 73 -367 1 -45 6 -85 11
-88 4 -3 15 -21 22 -39 15 -36 87 -95 116 -95 9 0 20 -3 23 -6 4 -4 30 -17 60
-28 66 -28 177 -97 177 -112 0 -11 36 -26 72 -29 9 -1 24 -5 33 -9 9 -3 40 0
68 8 76 21 181 30 205 17 43 -23 124 -11 162 25 29 26 131 74 159 74 31 0 106
36 134 64 14 14 30 26 34 26 17 1 46 54 58 107 8 36 11 82 7 127 -7 66 -7 230
-1 302 2 23 11 35 37 50 24 13 39 31 48 59 18 54 17 75 -6 135 -24 60 -24 60
-7 60 23 0 48 36 45 66 -1 17 9 46 24 69 52 82 61 134 63 343 1 105 -1 192 -5
192 -5 0 -13 24 -20 53 -25 109 -134 297 -172 297 -6 0 -40 24 -76 52 -80 64
-255 161 -309 171 -10 2 -25 7 -33 10 -27 10 -114 29 -154 34 -22 2 -47 8 -55
12 -25 13 -160 10 -230 -5z m296 -69 c59 -14 122 -32 138 -39 17 -8 51 -22 77
-31 49 -17 172 -89 250 -146 26 -19 68 -49 93 -67 33 -24 45 -38 40 -50 -3 -9
-3 -13 1 -9 18 17 65 -102 80 -199 4 -27 11 -60 16 -74 6 -14 9 -74 9 -135 -1
-95 -4 -114 -22 -138 -23 -31 -28 -48 -36 -127 -6 -61 -49 -164 -64 -154 -6 3
-9 25 -8 48 1 22 -2 49 -6 58 -4 11 5 41 25 82 35 72 34 118 -2 167 -30 40
-39 98 -24 144 19 54 10 63 -28 26 -26 -26 -31 -39 -32 -85 -1 -53 8 -81 46
-145 l21 -33 -36 -72 -35 -71 15 -90 c11 -69 19 -93 35 -104 11 -7 20 -22 20
-33 0 -10 6 -31 14 -47 14 -25 13 -31 -10 -69 -17 -29 -39 -48 -69 -62 -24
-11 -47 -24 -50 -30 -11 -18 -22 -11 -28 18 -6 29 -90 97 -108 87 -15 -10 -10
-34 11 -47 13 -8 20 -24 20 -43 0 -53 -11 -75 -36 -75 -12 0 -26 -5 -30 -11
-4 -7 -16 -2 -33 13 -26 25 -48 28 -88 14 -14 -4 -31 -1 -46 9 -22 14 -29 14
-67 1 -33 -11 -47 -12 -61 -3 -14 9 -27 8 -55 -2 -26 -9 -39 -10 -47 -2 -16
16 -59 14 -85 -5 -12 -8 -26 -13 -31 -10 -5 3 -25 8 -46 11 -28 3 -50 -3 -93
-26 -58 -31 -57 -31 -83 14 -5 9 -17 17 -26 17 -11 0 -13 4 -5 13 5 6 13 28
17 47 4 19 13 45 21 57 8 12 14 29 14 38 0 14 -6 13 -41 -7 -23 -13 -53 -37
-68 -55 l-25 -32 -41 21 c-22 11 -52 27 -67 34 -14 8 -33 14 -42 14 -8 0 -31
8 -51 17 -26 13 -35 22 -32 35 3 10 1 20 -3 23 -5 3 -6 15 -4 28 3 12 9 38 13
57 5 19 18 54 30 76 12 23 24 52 28 65 10 42 5 118 -9 129 -3 3 -9 17 -13 31
-5 19 0 32 20 53 40 44 51 113 29 197 -11 42 -23 69 -31 69 -21 0 -25 -21 -15
-81 10 -62 3 -90 -40 -163 -30 -51 -34 -101 -13 -150 6 -14 5 -17 -3 -12 -10
6 -30 62 -36 101 -1 6 -4 15 -8 20 -15 26 6 285 23 285 5 0 6 7 3 15 -8 20 22
94 73 184 24 42 43 82 43 90 0 19 74 115 78 101 6 -17 22 0 22 24 0 12 15 37
35 56 29 28 37 31 50 20 13 -11 15 -9 15 9 0 24 54 63 77 54 8 -3 24 4 36 15
12 11 34 24 49 27 15 4 29 14 32 22 4 9 14 13 24 11 10 -3 38 -2 62 2 79 13
116 11 227 -15z m-691 -1467 c11 -8 29 -82 39 -163 12 -99 34 -159 78 -204 48
-51 93 -74 119 -60 12 6 25 6 40 -2 12 -6 44 -12 72 -11 28 0 56 -5 63 -10 22
-18 63 -19 70 -3 5 14 9 13 28 -5 28 -26 56 -20 79 15 20 30 40 32 63 5 21
-24 60 -26 84 -4 14 13 20 13 38 2 17 -10 25 -11 42 0 18 11 23 11 34 -5 11
-14 16 -16 26 -5 14 13 59 16 97 6 13 -4 22 -15 23 -28 1 -17 2 -17 6 -3 3 12
15 17 43 17 33 0 38 -3 34 -17 -5 -15 -4 -16 5 -3 6 8 11 23 11 33 0 10 4 16
8 13 5 -3 9 0 10 7 4 42 19 124 25 134 4 7 0 43 -9 80 -15 65 -15 70 3 102 10
19 29 38 42 43 23 8 23 7 15 -24 -5 -18 -9 -121 -9 -229 l0 -197 -39 -36 c-22
-20 -48 -36 -58 -36 -10 0 -29 -7 -42 -15 -13 -9 -28 -15 -32 -14 -22 5 -138
-59 -191 -105 -18 -15 -31 -17 -80 -12 -151 17 -173 18 -208 6 -20 -7 -49 -13
-63 -15 -15 -1 -31 -3 -37 -5 -13 -4 -67 22 -125 60 -25 16 -63 39 -85 51 -22
12 -47 27 -55 34 -8 7 -39 21 -68 31 -30 9 -66 27 -82 40 -35 30 -65 91 -52
107 5 7 15 71 21 142 12 122 6 223 -15 279 -6 15 11 17 32 4z m-75 -42 c0 -6
2 -18 3 -26 12 -58 16 -129 8 -134 -5 -3 -9 0 -9 7 -1 28 -14 124 -19 142 -17
61 -17 62 0 41 9 -11 16 -25 17 -30z m632 -129 c19 -29 4 -52 -35 -55 -23 -1
-28 2 -28 20 0 21 26 58 40 58 4 0 14 -10 23 -23z m383 6 c7 -10 14 -30 14
-45 0 -25 -4 -28 -30 -28 -37 0 -47 20 -30 60 14 34 27 38 46 13z m-721 -22
c-3 -12 -11 -19 -16 -16 -5 4 -5 14 2 26 13 26 23 18 14 -10z m105 -6 c0 -24
-5 -35 -14 -35 -10 0 -13 8 -10 27 10 53 24 58 24 8z m109 3 c13 -35 13 -33
-15 -42 -18 -5 -22 -2 -27 21 -5 27 7 53 23 53 5 0 13 -14 19 -32z m290 6 c20
-21 22 -27 10 -35 -32 -20 -119 -2 -119 25 0 40 74 47 109 10z m106 -4 c19
-36 13 -50 -20 -50 -18 0 -25 7 -30 30 -12 56 24 70 50 20z m175 -15 c0 -14
-2 -25 -4 -25 -2 0 -6 11 -8 25 -3 14 -1 25 3 25 5 0 9 -11 9 -25z m-674 -102
c1 -10 5 -27 9 -38 8 -20 8 -20 -14 0 -13 11 -27 28 -32 37 -8 15 -6 18 14 18
15 0 23 -6 23 -17z m132 -35 c2 -37 0 -48 -11 -48 -18 0 -41 34 -51 73 -6 27
-5 28 26 25 32 -3 33 -5 36 -50z m-218 32 c0 -5 -2 -10 -4 -10 -3 0 -8 5 -11
10 -3 6 -1 10 4 10 6 0 11 -4 11 -10z m329 -66 c-6 -8 -21 -13 -33 -13 -17 1
-17 2 -3 6 21 5 21 21 1 48 -14 19 -13 20 13 25 25 5 28 2 31 -23 2 -16 -2
-35 -9 -43z m147 66 c20 0 17 -34 -4 -60 l-19 -23 -21 21 c-35 35 -24 79 16
66 8 -2 20 -4 28 -4z m114 -19 c0 -26 -16 -43 -35 -39 -10 1 -18 6 -17 11 1 4
2 15 2 26 0 13 7 19 25 19 16 0 25 -6 25 -17z m113 13 c9 -9 -4 -35 -14 -28
-5 3 -9 12 -9 20 0 14 12 19 23 8z"/>
<path d="M7870 8699 c0 -5 5 -7 10 -4 6 3 10 8 10 11 0 2 -4 4 -10 4 -5 0 -10
-5 -10 -11z"/>
<path d="M7020 8650 c0 -19 3 -21 12 -12 9 9 9 15 0 24 -9 9 -12 7 -12 -12z"/>
<path d="M7041 8604 c0 -11 3 -14 6 -6 3 7 2 16 -1 19 -3 4 -6 -2 -5 -13z"/>
<path d="M7665 8580 c-3 -5 -1 -10 4 -10 6 0 11 5 11 10 0 6 -2 10 -4 10 -3 0
-8 -4 -11 -10z"/>
<path d="M7127 8563 c-12 -11 -8 -23 8 -23 8 0 15 7 15 15 0 16 -12 20 -23 8z"/>
<path d="M7040 8391 c0 -6 4 -12 9 -15 14 -9 10 -57 -5 -63 -21 -8 -17 -23 6
-23 12 0 20 -7 21 -17 0 -15 2 -15 9 2 13 29 12 35 -6 35 -13 0 -12 6 6 35
l22 35 -27 10 c-32 12 -35 12 -35 1z"/>
<path d="M7000 8346 c0 -9 5 -16 10 -16 6 0 10 4 10 9 0 6 -4 13 -10 16 -5 3
-10 -1 -10 -9z"/>
<path d="M7625 8060 c3 -5 8 -10 11 -10 2 0 4 5 4 10 0 6 -5 10 -11 10 -5 0
-7 -4 -4 -10z"/>
<path d="M6790 7990 c0 -5 5 -10 11 -10 5 0 7 5 4 10 -3 6 -8 10 -11 10 -2 0
-4 -4 -4 -10z"/>
<path d="M7086 7945 c-11 -8 -27 -15 -36 -15 -9 0 -27 -11 -40 -25 -13 -14
-28 -25 -33 -25 -5 0 -21 -9 -37 -20 -26 -19 -27 -23 -24 -87 2 -37 -2 -73 -8
-80 -7 -9 -3 -21 16 -43 14 -17 29 -31 33 -31 21 -2 81 -40 87 -54 4 -13 18
-16 58 -14 29 1 66 -2 81 -6 31 -8 113 10 138 32 8 7 19 13 23 13 18 0 44 39
50 75 18 100 13 148 -21 183 -10 10 -25 28 -34 39 -11 14 -47 28 -105 42 -49
12 -98 23 -109 26 -11 3 -29 -2 -39 -10z"/>
<path d="M7790 7895 c-58 -12 -113 -26 -122 -30 -10 -4 -23 -26 -29 -49 -12
-44 -6 -154 10 -184 20 -37 83 -74 168 -99 82 -24 88 -25 117 -10 17 9 43 19
59 23 15 3 27 10 27 15 0 5 6 9 13 9 8 0 22 9 32 20 15 17 18 37 17 131 -1
124 -9 146 -64 171 -56 26 -116 27 -228 3z"/>
<path d="M7465 7617 c-65 -108 -76 -130 -71 -143 6 -15 36 -18 72 -8 24 6 44
60 52 137 3 41 2 47 -14 47 -11 0 -28 -15 -39 -33z"/>
<path d="M7546 7625 c-11 -30 -7 -132 7 -143 21 -18 95 -40 108 -32 20 13 1
72 -44 129 -47 60 -61 70 -71 46z"/>
<path d="M6927 8886 c-3 -7 0 -19 6 -25 8 -8 7 -11 -6 -11 -21 0 -21 -7 -3
-26 22 -21 26 -17 26 25 0 41 -14 62 -23 37z"/>
<path d="M8248 8879 c-10 -10 -18 -26 -18 -34 0 -8 -4 -15 -10 -15 -5 0 3 -12
17 -26 19 -19 32 -24 49 -20 29 8 32 36 4 43 -22 6 -28 39 -8 45 12 4 3 29
-10 27 -4 0 -15 -9 -24 -20z"/>
<path d="M8362 8888 c6 -18 25 -20 31 -3 5 10 0 15 -14 15 -12 0 -19 -5 -17
-12z"/>
<path d="M7935 8870 c3 -5 8 -10 11 -10 2 0 4 5 4 10 0 6 -5 10 -11 10 -5 0
-7 -4 -4 -10z"/>
<path d="M9600 8860 c0 -5 5 -10 11 -10 5 0 7 5 4 10 -3 6 -8 10 -11 10 -2 0
-4 -4 -4 -10z"/>
<path d="M7070 8820 c0 -5 5 -10 10 -10 6 0 10 5 10 10 0 6 -4 10 -10 10 -5 0
-10 -4 -10 -10z"/>
<path d="M7020 8800 c0 -5 5 -10 10 -10 6 0 10 5 10 10 0 6 -4 10 -10 10 -5 0
-10 -4 -10 -10z"/>
<path d="M8020 8800 c0 -5 7 -7 15 -4 8 4 15 8 15 10 0 2 -7 4 -15 4 -8 0 -15
-4 -15 -10z"/>
<path d="M8320 8780 c0 -5 7 -10 15 -10 8 0 15 5 15 10 0 6 -7 10 -15 10 -8 0
-15 -4 -15 -10z"/>
<path d="M8352 8756 c-17 -28 -18 -35 -6 -40 8 -3 14 -1 14 5 0 6 6 9 13 6 6
-2 11 -14 9 -27 -2 -14 0 -20 7 -15 12 7 5 83 -9 98 -4 5 -17 -7 -28 -27z"/>
<path d="M8250 8725 c0 -8 5 -15 10 -15 6 0 10 7 10 15 0 8 -4 15 -10 15 -5 0
-10 -7 -10 -15z"/>
<path d="M8300 8689 c0 -15 5 -19 15 -15 9 3 15 0 15 -9 0 -20 16 -19 24 1 4
9 5 18 4 18 -2 1 -15 7 -30 14 -25 10 -28 10 -28 -9z"/>
<path d="M8148 8682 c-16 -17 -15 -18 12 -31 33 -14 64 -5 36 11 -9 5 -16 16
-16 23 0 19 -11 18 -32 -3z"/>
<path d="M8240 8680 c0 -5 5 -10 10 -10 6 0 10 5 10 10 0 6 -4 10 -10 10 -5 0
-10 -4 -10 -10z"/>
<path d="M2688 8660 c-3 -8 -1 -27 3 -42 4 -16 3 -30 -2 -33 -11 -7 -12 -45
-1 -45 4 0 8 8 9 18 0 9 3 27 6 39 7 27 -7 85 -15 63z"/>
<path d="M8435 8647 c-4 -10 -5 -21 -1 -24 10 -10 18 4 13 24 -4 17 -4 17 -12
0z"/>
<path d="M8420 8532 c-20 -7 -40 -28 -40 -41 0 -14 -6 -14 -31 -1 -26 14 -25
-4 2 -31 20 -20 22 -20 40 -3 10 9 21 26 25 38 4 11 12 24 18 28 14 9 5 17
-14 10z"/>
<path d="M2685 8520 c3 -5 8 -10 11 -10 2 0 4 5 4 10 0 6 -5 10 -11 10 -5 0
-7 -4 -4 -10z"/>
<path d="M6700 8470 c0 -5 5 -10 10 -10 6 0 10 5 10 10 0 6 -4 10 -10 10 -5 0
-10 -4 -10 -10z"/>
<path d="M6672 8408 c2 -6 10 -14 16 -16 7 -2 10 2 6 12 -7 18 -28 22 -22 4z"/>
<path d="M8397 8372 c-8 -15 9 -47 26 -48 9 -1 17 2 17 7 0 13 -39 50 -43 41z"/>
<path d="M6620 8306 c0 -8 5 -18 10 -21 6 -3 10 1 10 9 0 8 -4 18 -10 21 -5 3
-10 -1 -10 -9z"/>
<path d="M8695 8240 c-3 -5 -1 -10 4 -10 6 0 11 5 11 10 0 6 -2 10 -4 10 -3 0
-8 -4 -11 -10z"/>
<path d="M8622 8186 c1 -10 8 -17 13 -17 15 1 12 24 -3 29 -9 3 -13 -2 -10
-12z"/>
<path d="M8715 8159 c-10 -15 3 -25 16 -12 7 7 7 13 1 17 -6 3 -14 1 -17 -5z"/>
<path d="M8610 8140 c-12 -7 -12 -12 -3 -21 10 -10 14 -9 19 5 8 22 2 27 -16
16z"/>
<path d="M8757 8113 c-4 -3 -7 -17 -7 -30 0 -12 -5 -23 -11 -23 -6 0 -9 9 -6
20 3 11 2 20 -2 20 -13 0 -30 -38 -25 -57 4 -15 12 -18 35 -15 34 5 45 18 30
35 -6 8 -6 18 -1 27 16 25 6 43 -13 23z"/>
<path d="M8825 8110 c-3 -5 -1 -10 4 -10 6 0 11 5 11 10 0 6 -2 10 -4 10 -3 0
-8 -4 -11 -10z"/>
<path d="M8850 8090 c0 -5 5 -10 10 -10 6 0 10 5 10 10 0 6 -4 10 -10 10 -5 0
-10 -4 -10 -10z"/>
<path d="M8640 8054 c-13 -23 -13 -28 0 -38 8 -6 15 -17 16 -23 2 -29 5 -32
19 -27 8 4 15 10 15 15 0 4 -6 6 -14 3 -10 -4 -13 4 -10 31 1 23 -1 33 -8 29
-7 -4 -8 -2 -4 4 4 6 14 8 23 5 11 -4 14 -2 11 8 -8 24 -34 21 -48 -7z"/>
<path d="M2675 8041 c-3 -5 -1 -12 5 -16 5 -3 10 1 10 9 0 18 -6 21 -15 7z"/>
<path d="M8815 8039 c-11 -17 1 -21 15 -4 8 9 8 15 2 15 -6 0 -14 -5 -17 -11z"/>
<path d="M8867 8024 c-4 -4 -4 -11 -1 -15 8 -14 31 -10 38 6 5 15 -24 22 -37
9z"/>
<path d="M8447 7993 c-4 -3 -7 -11 -7 -17 0 -6 5 -5 12 2 6 6 9 14 7 17 -3 3
-9 2 -12 -2z"/>
<path d="M8515 7990 c-3 -5 -1 -10 4 -10 6 0 11 5 11 10 0 6 -2 10 -4 10 -3 0
-8 -4 -11 -10z"/>
<path d="M8840 7952 c0 -17 6 -33 13 -35 9 -4 9 -7 -1 -14 -24 -18 25 -112 50
-97 4 3 0 17 -9 31 -19 29 -22 41 -26 97 -4 47 -27 62 -27 18z"/>
<path d="M8910 7966 c0 -9 7 -16 16 -16 9 0 14 5 12 12 -6 18 -28 21 -28 4z"/>
<path d="M8500 7940 c-8 -5 -11 -12 -7 -16 4 -4 15 0 24 9 18 18 8 23 -17 7z"/>
<path d="M8710 7940 c-12 -7 -10 -9 8 -7 12 0 22 5 22 9 0 11 -12 10 -30 -2z"/>
<path d="M2680 7906 c0 -8 4 -17 8 -20 4 -2 8 4 8 15 0 10 -4 19 -8 19 -4 0
-8 -6 -8 -14z"/>
<path d="M8675 7900 c-3 -5 -1 -10 4 -10 6 0 11 5 11 10 0 6 -2 10 -4 10 -3 0
-8 -4 -11 -10z"/>
<path d="M8745 7903 c-19 -5 -35 -20 -35 -34 0 -15 65 8 68 24 4 17 1 18 -33
10z"/>
<path d="M8950 7892 c0 -27 10 -33 28 -16 13 14 13 17 1 25 -21 13 -29 11 -29
-9z"/>
<path d="M8429 7883 c-2 -31 3 -58 12 -69 5 -6 7 -27 4 -47 -6 -36 8 -60 19
-32 3 8 12 12 21 9 10 -4 15 0 15 11 0 9 -4 14 -9 10 -17 -10 -21 11 -6 31 21
27 18 35 -9 28 -27 -6 -43 20 -25 42 11 14 5 34 -12 34 -5 0 -10 -8 -10 -17z"/>
<path d="M8481 7891 c-7 -5 -12 -14 -9 -21 2 -7 10 -4 22 9 19 21 12 28 -13
12z"/>
<path d="M8520 7890 c0 -5 5 -10 10 -10 6 0 10 5 10 10 0 6 -4 10 -10 10 -5 0
-10 -4 -10 -10z"/>
<path d="M8920 7889 c0 -5 5 -7 10 -4 6 3 10 8 10 11 0 2 -4 4 -10 4 -5 0 -10
-5 -10 -11z"/>
<path d="M8830 7804 c0 -8 5 -12 10 -9 6 4 8 11 5 16 -9 14 -15 11 -15 -7z"/>
<path d="M8955 7810 c3 -5 8 -10 11 -10 2 0 4 5 4 10 0 6 -5 10 -11 10 -5 0
-7 -4 -4 -10z"/>
<path d="M9039 7820 c0 -3 -2 -15 -5 -27 -2 -13 1 -23 6 -23 16 0 24 30 11 43
-6 6 -11 9 -12 7z"/>
<path d="M8595 7801 c-3 -5 -1 -12 5 -16 5 -3 10 1 10 9 0 18 -6 21 -15 7z"/>
<path d="M8866 7784 c-4 -9 -4 -19 -1 -22 2 -3 7 3 11 12 4 9 4 19 1 22 -2 3
-7 -3 -11 -12z"/>
<path d="M8730 7770 c0 -23 -2 -23 38 -9 18 6 29 15 26 20 -4 6 -11 6 -19 -1
-9 -8 -15 -8 -20 0 -10 17 -25 11 -25 -10z"/>
<path d="M8728 7733 c-10 -2 -18 -10 -18 -16 0 -15 54 -67 69 -67 17 0 13 17
-5 24 -9 4 -14 13 -10 21 6 16 -2 46 -13 44 -3 -1 -14 -3 -23 -6z"/>
<path d="M8440 7702 c0 -4 4 -13 9 -21 8 -12 14 -13 37 -3 14 7 24 16 20 19
-9 9 -66 14 -66 5z"/>
<path d="M8837 7693 c-4 -3 -7 -20 -7 -37 0 -37 14 -64 24 -47 10 16 23 14 44
-9 15 -16 21 -18 30 -8 18 22 -12 52 -43 44 -21 -5 -27 -2 -35 20 -6 14 -8 30
-4 35 6 10 0 12 -9 2z"/>
<path d="M8960 7675 c0 -8 6 -15 14 -15 22 0 28 17 10 24 -22 9 -24 8 -24 -9z"/>
<path d="M8885 7670 c-3 -5 -2 -10 4 -10 5 0 13 5 16 10 3 6 2 10 -4 10 -5 0
-13 -4 -16 -10z"/>
<path d="M8795 7630 c-3 -5 1 -10 9 -10 9 0 16 5 16 10 0 6 -4 10 -9 10 -6 0
-13 -4 -16 -10z"/>
<path d="M8958 7569 c-10 -16 -14 -29 -10 -29 12 1 43 48 34 54 -4 2 -15 -9
-24 -25z"/>
<path d="M8810 7570 c0 -5 -7 -10 -15 -10 -20 0 -19 -7 5 -32 16 -17 23 -19
32 -10 9 9 8 12 -5 12 -9 0 -17 7 -17 15 0 8 5 15 10 15 6 0 10 5 10 10 0 6
-4 10 -10 10 -5 0 -10 -4 -10 -10z"/>
<path d="M8850 7565 c0 -8 4 -15 9 -15 5 0 11 7 15 15 3 9 0 15 -9 15 -8 0
-15 -7 -15 -15z"/>
<path d="M9045 7549 c-10 -15 3 -25 16 -12 7 7 7 13 1 17 -6 3 -14 1 -17 -5z"/>
<path d="M8895 7529 c-3 -9 -2 -26 3 -39 l9 -24 7 29 c8 30 -9 60 -19 34z"/>
<path d="M8980 7525 c-7 -8 -9 -15 -6 -15 4 0 14 7 22 15 9 8 11 15 6 15 -5 0
-15 -7 -22 -15z"/>
<path d="M8853 7469 c-1 -18 1 -29 4 -25 10 10 15 56 6 56 -4 0 -9 -14 -10
-31z"/>
<path d="M8675 7460 c-3 -5 -1 -10 4 -10 6 0 11 5 11 10 0 6 -2 10 -4 10 -3 0
-8 -4 -11 -10z"/>
<path d="M8715 7460 c-6 -9 24 -50 37 -50 4 0 6 10 5 23 -2 31 -29 49 -42 27z"/>
<path d="M8805 7281 c-6 -11 9 -23 19 -14 9 9 7 23 -3 23 -6 0 -12 -4 -16 -9z"/>
<path d="M10154 6968 c6 -39 22 -73 30 -60 4 6 2 20 -4 31 -6 11 -9 25 -8 32
2 6 -2 13 -9 16 -7 3 -11 -4 -9 -19z"/>
<path d="M9940 6900 c0 -5 5 -10 11 -10 5 0 7 5 4 10 -3 6 -8 10 -11 10 -2 0
-4 -4 -4 -10z"/>
<path d="M6370 6880 c0 -5 5 -10 10 -10 6 0 10 5 10 10 0 6 -4 10 -10 10 -5 0
-10 -4 -10 -10z"/>
<path d="M10404 6724 c-18 -14 -18 -15 4 -4 12 6 22 13 22 15 0 8 -5 6 -26
-11z"/>
<path d="M10456 6710 c6 -8 10 -25 8 -37 -3 -16 0 -21 10 -17 17 7 10 39 -13
56 -14 11 -14 11 -5 -2z"/>
<path d="M7020 6680 c0 -5 5 -10 10 -10 6 0 10 5 10 10 0 6 -4 10 -10 10 -5 0
-10 -4 -10 -10z"/>
<path d="M7060 6651 c0 -6 5 -13 10 -16 6 -3 10 1 10 9 0 9 -4 16 -10 16 -5 0
-10 -4 -10 -9z"/>
<path d="M6990 6540 c0 -5 5 -10 10 -10 6 0 10 5 10 10 0 6 -4 10 -10 10 -5 0
-10 -4 -10 -10z"/>
<path d="M8560 6485 c0 -8 2 -15 4 -15 2 0 6 7 10 15 3 8 1 15 -4 15 -6 0 -10
-7 -10 -15z"/>
</g>
</svg>
