<?xml version="1.0" standalone="no"?>
<!DOCTYPE svg PUBLIC "-//W3C//DTD SVG 20010904//EN"
 "http://www.w3.org/TR/2001/REC-SVG-20010904/DTD/svg10.dtd">
<svg version="1.0" xmlns="http://www.w3.org/2000/svg"
 width="1500.000000pt" height="1500.000000pt" viewBox="0 0 1500.000000 1500.000000"
 preserveAspectRatio="xMidYMid meet">
<metadata>
Created by potrace 1.16, written by Peter Selinger 2001-2019
</metadata>
<g transform="translate(0.000000,1500.000000) scale(0.100000,-0.100000)"
fill="#000000" stroke="none">
<path d="M0 7500 l0 -7500 7500 0 7500 0 0 7500 0 7500 -7500 0 -7500 0 0
-7500z m12340 0 l0 -4840 -4840 0 -4840 0 0 4840 0 4840 4840 0 4840 0 0
-4840z"/>
<path d="M7603 9803 c-30 -6 -81 -68 -95 -115 -6 -21 -12 -38 -13 -38 -1 0
-20 9 -43 20 -22 11 -50 20 -61 20 -11 0 -30 4 -43 9 -13 5 -53 12 -88 16 -36
4 -68 9 -72 11 -3 2 -14 -3 -22 -12 -9 -8 -16 -12 -16 -8 0 3 -7 1 -15 -6 -10
-9 -15 -9 -15 -1 0 19 -22 12 -27 -9 -3 -11 -10 -20 -15 -20 -5 0 -6 5 -3 10
3 6 -4 10 -17 10 -17 0 -33 -15 -60 -58 -21 -32 -38 -65 -38 -73 0 -8 -5 -20
-12 -27 -7 -7 -17 -33 -24 -59 -12 -46 -11 -70 2 -145 6 -36 -6 -52 -21 -28
-15 25 -22 7 -8 -21 13 -27 14 -35 3 -53 -19 -30 -21 -163 -4 -205 18 -42 18
-51 -1 -51 -26 0 -34 -32 -19 -75 7 -22 14 -41 14 -41 0 -1 16 -9 35 -18 19
-9 35 -21 35 -27 0 -6 -4 -7 -10 -4 -5 3 -10 1 -10 -5 0 -7 -6 -26 -14 -43 -7
-18 -21 -52 -31 -77 -10 -25 -24 -60 -32 -78 -8 -18 -17 -50 -20 -70 -3 -20
-14 -44 -23 -52 -25 -21 -49 -141 -45 -225 8 -168 17 -236 34 -253 10 -10 19
-36 20 -62 2 -25 7 -52 12 -62 5 -9 9 -32 9 -50 0 -19 7 -43 15 -54 8 -10 15
-26 15 -35 1 -55 101 -207 143 -216 35 -7 34 -13 -9 -43 -114 -77 -329 -337
-308 -371 4 -8 3 -9 -5 -5 -12 8 -50 -65 -51 -98 0 -20 14 -69 33 -116 5 -14
11 -37 13 -52 2 -16 9 -58 15 -95 6 -38 12 -79 13 -93 4 -40 5 -42 19 -34 8 6
8 3 -2 -9 -7 -10 -10 -24 -6 -34 4 -10 9 -47 11 -83 5 -92 14 -171 20 -181 6
-10 8 -22 19 -94 4 -27 13 -62 21 -77 8 -15 15 -31 15 -35 1 -5 3 -12 4 -18 2
-5 15 -57 30 -115 15 -58 33 -121 40 -140 7 -20 16 -53 19 -74 4 -21 8 -42 11
-46 7 -12 14 -75 16 -144 1 -34 6 -67 12 -75 6 -7 12 -18 14 -25 1 -6 5 -23 8
-39 3 -15 0 -37 -6 -48 -6 -12 -14 -60 -19 -107 -7 -79 -31 -151 -69 -212 -87
-138 -127 -239 -100 -255 5 -4 9 -15 9 -26 0 -14 7 -19 24 -19 14 0 27 4 31 9
3 6 30 22 61 37 31 15 58 33 61 41 3 7 9 13 15 13 5 0 24 11 42 25 18 14 37
25 41 25 5 0 30 18 56 40 26 22 51 40 54 40 6 0 83 62 138 111 10 9 29 31 42
50 23 30 24 34 9 56 -8 13 -14 32 -13 41 3 33 -1 52 -11 52 -5 0 -10 -7 -10
-16 0 -22 -8 -17 -76 56 l-62 65 -7 140 c-4 77 -7 170 -6 207 1 37 -3 105 -8
150 -12 94 -23 239 -22 281 2 33 -26 38 -31 5 -4 -30 16 -376 22 -385 1 -2 3
-13 3 -25 1 -19 -7 -25 -53 -36 -106 -26 -131 -14 -156 73 -10 35 -23 61 -28
58 -5 -3 -6 -1 -2 6 4 6 3 26 -3 44 -5 17 -14 52 -19 77 -6 25 -19 80 -30 122
-21 79 -27 113 -38 228 -3 36 -12 92 -21 125 -8 33 -15 77 -14 98 1 27 -2 37
-10 32 -8 -6 -8 -2 0 12 6 11 8 22 6 25 -2 2 -7 24 -10 48 -3 25 -10 59 -16
77 -5 17 -9 38 -8 45 1 7 0 20 -3 28 -31 85 -38 112 -38 153 0 52 4 63 58 147
75 118 88 136 127 179 46 51 48 53 134 121 59 46 74 54 94 51 4 -1 10 6 13 14
4 8 10 15 15 15 6 0 5 -8 -1 -19 -9 -17 -5 -20 30 -26 21 -4 48 -4 59 0 14 4
24 0 33 -14 8 -13 23 -21 40 -21 33 0 33 1 7 -57 -19 -41 -19 -51 -8 -90 13
-49 46 -96 59 -88 5 3 43 6 84 7 49 0 73 4 69 11 -4 6 -1 7 7 2 8 -5 18 -1 26
9 17 24 31 13 45 -34 7 -22 15 -37 20 -35 4 3 10 1 14 -5 3 -5 1 -10 -4 -10
-6 0 -11 -7 -11 -16 0 -9 -9 -27 -20 -41 -11 -14 -20 -32 -20 -40 0 -8 -11
-35 -25 -60 -16 -28 -23 -53 -20 -66 4 -15 3 -18 -3 -9 -7 10 -19 -4 -47 -55
-21 -37 -48 -81 -59 -96 -18 -24 -18 -29 -6 -37 10 -6 19 -5 26 3 24 24 83
144 76 152 -4 5 -2 5 4 2 22 -13 53 37 97 153 26 71 38 86 49 66 6 -11 24 -14
84 -10 66 3 75 2 70 -12 -3 -9 1 -31 10 -49 25 -53 17 -64 -66 -91 -41 -14
-79 -30 -85 -35 -5 -5 -16 -9 -24 -9 -8 0 -64 -50 -123 -110 -60 -61 -113
-108 -118 -105 -6 3 -10 1 -10 -6 0 -9 -3 -9 -14 0 -11 9 -15 6 -18 -16 -3
-16 -9 -36 -13 -45 -10 -24 48 -80 73 -71 26 10 94 82 87 92 -7 13 -37 2 -69
-26 -27 -24 -56 -30 -56 -14 0 10 19 26 31 26 12 0 174 158 171 167 -1 4 3 8
9 8 6 0 25 11 42 24 51 38 210 96 224 82 6 -6 -80 -45 -141 -66 -25 -8 -36
-17 -32 -26 3 -7 0 -16 -6 -20 -7 -4 -8 -3 -4 4 9 15 -5 15 -25 -1 -9 -7 -14
-18 -11 -26 3 -10 0 -12 -11 -8 -15 6 -47 -25 -47 -44 0 -15 46 6 63 28 10 12
53 39 95 59 42 20 90 42 106 50 16 8 35 14 43 14 15 0 18 51 4 78 -6 9 -13 34
-16 55 -3 21 -13 41 -21 44 -11 4 -12 8 -4 13 8 5 8 11 -2 21 -7 8 -15 21 -17
29 -2 8 -8 31 -13 50 -5 19 -11 49 -14 65 -5 29 -4 30 38 33 24 1 49 9 57 17
20 19 6 86 -20 92 -10 3 -19 10 -19 16 0 6 -3 7 -6 4 -4 -4 -1 -13 6 -22 7 -8
8 -15 2 -15 -14 0 -21 22 -15 51 3 18 15 29 39 38 19 7 35 19 35 27 1 8 2 20
3 26 1 12 65 26 129 30 27 1 37 13 16 20 -6 2 1 24 17 52 15 26 29 67 31 90 3
22 14 86 25 141 11 55 20 106 20 113 3 38 30 -9 74 -130 17 -48 44 -65 44 -28
0 11 -5 20 -12 20 -6 0 -9 3 -5 6 3 4 0 19 -8 35 -8 15 -15 35 -15 44 0 9 -11
31 -25 49 -14 18 -25 38 -25 45 0 7 -4 10 -8 7 -8 -5 3 131 14 174 11 41 13
169 3 176 -5 3 -7 10 -3 15 3 6 -1 18 -10 28 -20 23 -37 79 -26 86 4 3 27 -19
49 -47 22 -29 45 -58 51 -65 5 -7 10 -15 10 -18 0 -4 11 -31 25 -61 14 -30 25
-57 25 -59 0 -3 15 -38 34 -78 19 -39 42 -108 52 -152 9 -44 20 -85 25 -91 11
-14 24 -227 14 -251 -4 -10 -6 -58 -6 -108 2 -112 -14 -174 -63 -247 -36 -54
-40 -78 -13 -78 13 0 78 130 97 195 7 22 19 48 28 57 13 16 13 18 -1 24 -9 3
-13 11 -11 19 5 12 10 89 13 198 1 31 5 46 12 42 6 -4 8 -13 5 -21 -8 -22 16
-27 48 -10 24 12 31 12 54 0 15 -8 30 -14 34 -14 12 0 -14 75 -54 157 -8 15
-8 33 -1 55 8 26 6 41 -7 68 -10 19 -30 85 -44 145 -15 61 -35 135 -46 166
-11 31 -21 67 -24 80 -2 13 -12 47 -21 74 -10 28 -19 76 -20 107 -2 45 -9 66
-29 93 -15 19 -24 35 -20 35 4 0 0 8 -8 18 -9 9 -25 37 -37 62 -11 25 -48 74
-81 110 -33 36 -60 70 -60 76 0 6 -7 17 -15 24 -8 7 -14 18 -13 24 4 22 -14
71 -34 94 -21 21 -45 31 -34 13 3 -5 -2 -15 -11 -22 -15 -12 -16 -12 -10 5 6
14 4 17 -10 12 -16 -5 -16 -4 -2 6 15 10 14 15 -12 41 -17 16 -28 32 -25 35 6
5 -20 44 -53 78 -11 12 -18 24 -15 27 3 3 1 13 -5 24 -21 37 -40 90 -56 153
-9 36 -19 74 -22 85 -3 11 -8 40 -13 65 -4 25 -12 56 -17 70 -12 28 -70 83
-91 87 -8 1 -21 8 -30 16 -26 24 -73 32 -83 16 -6 -10 -9 -11 -9 -1 0 6 -3 11
-7 11 -5 -1 -18 -4 -30 -6z m110 -48 c52 -22 109 -104 135 -195 22 -78 35
-133 32 -138 -1 -2 5 -13 13 -25 7 -12 17 -34 21 -50 3 -15 22 -52 41 -82 19
-30 35 -57 35 -61 0 -4 8 -16 17 -27 17 -18 17 -19 -12 -16 -17 2 -32 6 -35 9
-3 4 -23 17 -45 30 -22 13 -42 26 -45 29 -3 4 -26 16 -52 29 -27 13 -48 29
-48 35 -1 18 -90 111 -91 95 -2 -25 -17 47 -18 90 0 23 -4 42 -9 42 -4 0 -13
13 -20 30 -8 16 -31 51 -53 77 -21 26 -39 50 -39 54 0 3 10 21 23 40 17 26 32
35 62 40 22 3 43 7 46 8 4 0 23 -6 42 -14z m-379 -86 c86 -19 132 -47 197
-117 82 -89 109 -146 102 -221 -3 -37 -11 -63 -24 -77 -10 -11 -16 -24 -12
-27 3 -4 -2 -7 -13 -7 -31 0 -90 -46 -105 -82 l-14 -33 -5 30 c-6 32 8 110 25
135 28 43 -18 160 -68 174 -36 10 -41 7 -66 -29 -13 -19 -31 -35 -40 -35 -14
1 -14 2 2 14 9 7 17 20 17 28 0 8 11 20 25 26 14 6 25 16 25 22 0 13 -6 13
-31 -1 -15 -7 -24 -7 -35 2 -8 6 -14 8 -14 4 0 -4 -6 -3 -13 3 -8 7 -18 7 -27
2 -8 -6 -22 -10 -29 -10 -12 0 -12 3 -3 12 18 18 15 28 -9 28 -12 0 -23 -8
-26 -20 -3 -11 -9 -20 -14 -20 -14 0 2 104 19 118 24 18 1 38 -27 23 -16 -9
-21 -9 -21 0 0 6 -9 9 -20 6 -11 -3 -20 -2 -20 3 0 13 -33 21 -44 10 -12 -12
-26 -13 -26 -2 0 10 63 39 95 45 51 9 153 7 199 -4z m-241 -119 c-3 -10 5 -25
20 -36 35 -28 38 -67 11 -147 -13 -39 -24 -81 -24 -94 0 -13 -7 -38 -16 -55
-11 -22 -15 -48 -12 -85 3 -29 4 -53 3 -53 -17 0 -106 50 -127 71 -33 32 -36
54 -9 68 10 6 24 24 31 40 13 33 31 34 23 1 -8 -29 25 -26 62 5 29 24 29 25
11 40 -11 8 -37 15 -58 15 -31 0 -38 4 -38 19 0 11 -4 23 -10 26 -17 11 -11
54 16 113 35 80 40 87 52 87 6 0 13 3 16 6 4 3 17 4 30 2 17 -4 22 -10 19 -23z
m133 -156 c4 -40 13 -56 25 -48 6 3 4 -4 -4 -17 -8 -13 -15 -40 -15 -60 -1
-21 -2 -41 -3 -45 -5 -28 4 -54 26 -78 35 -38 44 -33 33 18 -6 28 -6 57 0 78
5 19 7 49 5 68 -3 29 -2 32 7 18 17 -27 28 -22 50 22 11 22 25 40 31 40 7 0 5
-9 -4 -24 -17 -25 -8 -49 22 -58 7 -2 -2 -12 -23 -23 -20 -11 -36 -23 -36 -28
0 -4 4 -6 8 -3 5 3 6 -8 4 -25 -4 -27 -2 -29 26 -29 37 0 43 -7 31 -38 -8 -20
-15 -23 -46 -20 -22 2 -38 -2 -40 -9 -3 -7 2 -13 9 -13 8 0 25 -11 38 -25 l23
-25 -24 -1 c-13 -1 -30 -1 -36 0 -7 1 -13 -2 -13 -6 0 -4 -28 -7 -63 -5 -34 1
-70 3 -79 3 -14 0 -18 8 -17 32 1 18 -3 49 -9 69 -5 20 -6 40 -2 45 4 4 13 35
20 68 19 88 41 158 47 151 4 -3 8 -18 9 -32z m512 -144 c52 -12 185 -91 230
-137 18 -18 35 -33 37 -33 8 0 68 -59 84 -83 9 -13 41 -52 71 -86 30 -35 59
-69 63 -77 4 -8 13 -14 20 -14 19 0 58 -55 110 -154 28 -53 46 -99 43 -110 -3
-11 4 -47 16 -80 11 -34 21 -65 22 -71 1 -5 5 -15 8 -21 4 -6 12 -39 17 -73 6
-35 15 -69 21 -76 6 -7 17 -46 26 -86 8 -40 17 -76 20 -80 2 -4 0 -10 -6 -14
-16 -10 -12 -81 5 -95 12 -10 15 -10 15 4 0 9 5 16 10 16 6 0 10 -7 10 -15 0
-9 7 -18 15 -21 25 -10 17 -25 -9 -18 -13 3 -27 1 -30 -5 -4 -6 -19 -11 -34
-11 -26 0 -28 4 -62 125 -19 69 -37 125 -41 125 -6 0 -18 33 -25 70 -10 58
-68 154 -134 222 -81 83 -93 101 -112 161 -10 34 -26 72 -33 84 -19 28 -19 33
0 33 8 0 15 9 15 20 0 11 -5 20 -11 20 -14 0 -127 78 -164 113 -16 15 -76 67
-132 114 -133 111 -138 132 -17 71 36 -18 88 -45 117 -59 29 -15 54 -24 57
-22 3 3 -1 8 -7 10 -7 3 -13 10 -13 16 -1 10 -128 101 -198 142 -9 6 -19 13
-22 16 -12 13 -39 17 -43 6 -3 -8 -10 -6 -25 6 -19 18 -19 20 -4 48 19 32 26
33 90 19z m-104 -105 c27 -22 44 -65 26 -65 -18 0 -70 -43 -70 -58 0 -8 6 -12
15 -8 8 3 15 1 15 -4 0 -15 17 -12 34 5 8 8 17 15 20 15 11 0 5 -34 -12 -73
l-17 -38 -50 47 c-49 45 -105 81 -105 67 0 -4 -5 -2 -11 4 -15 15 31 94 67
113 37 21 59 20 88 -5z m-631 -64 c73 -40 120 -54 170 -53 32 1 36 -21 11 -57
-9 -13 -27 -51 -39 -85 l-22 -61 -52 1 c-67 2 -135 28 -155 59 -23 34 -20 42
15 50 29 6 31 10 25 38 -4 17 -11 34 -17 37 -5 4 -12 20 -15 36 -2 16 -7 35
-9 42 -5 14 2 32 11 32 3 0 37 -18 77 -39z m430 -75 c38 -4 126 -56 171 -102
48 -47 136 -195 136 -228 0 -14 22 -75 36 -101 10 -18 23 -70 29 -121 2 -11 8
-45 14 -75 6 -30 9 -98 7 -152 -3 -83 -7 -101 -25 -121 -11 -12 -25 -44 -30
-70 -5 -26 -13 -52 -19 -58 -6 -6 -8 -17 -5 -24 3 -8 0 -14 -6 -14 -10 0 -12
21 -15 158 0 23 -4 42 -8 42 -5 0 -4 8 1 18 12 22 2 154 -11 146 -6 -4 -7 3
-3 17 15 47 5 152 -20 207 -13 29 -24 55 -24 57 -2 18 -53 104 -66 108 -20 8
-19 -1 5 -50 11 -22 31 -76 46 -119 26 -79 31 -127 39 -369 2 -66 8 -147 14
-180 24 -127 26 -115 -19 -115 -31 0 -40 -4 -41 -17 0 -11 -3 -13 -6 -5 -6 16
-44 15 -69 -3 -12 -8 -24 -12 -27 -9 -8 9 -27 -32 -19 -41 4 -5 2 -5 -4 -2 -6
4 -20 0 -30 -8 -23 -17 -34 -19 -34 -5 0 6 7 10 15 10 8 0 15 4 15 9 0 19 -23
71 -31 71 -5 0 -9 13 -9 29 0 17 -4 33 -10 36 -5 3 -10 20 -10 36 0 17 -5 39
-10 49 -6 10 -12 34 -14 52 -2 18 -8 32 -13 31 -5 -1 -9 8 -8 20 3 29 -5 48
-16 41 -5 -3 -6 2 -3 10 3 9 1 16 -6 16 -6 0 -8 5 -5 10 9 14 -8 13 -23 -2 -9
-9 -12 -9 -12 0 0 6 7 15 16 20 16 9 16 12 1 42 -9 18 -14 36 -11 41 3 5 -1 9
-8 9 -10 0 -10 2 1 9 9 6 10 11 2 15 -6 4 -9 12 -6 17 4 5 1 9 -4 9 -6 0 -10
10 -10 23 1 12 -15 71 -35 131 -20 59 -36 115 -36 123 0 8 -8 28 -17 46 -10
18 -18 39 -20 47 -1 8 -5 35 -10 60 -8 40 -5 55 25 125 18 44 38 85 43 92 17
20 48 21 192 9z m452 -129 c66 -51 68 -53 113 -96 23 -23 42 -50 42 -59 0 -10
14 -45 30 -79 17 -34 34 -84 40 -111 5 -26 15 -61 23 -78 29 -56 59 -214 42
-214 -3 0 -27 16 -52 35 -70 54 -141 85 -203 88 -30 2 -55 8 -56 13 0 5 -3 23
-7 39 -4 17 -12 66 -18 110 -16 125 -18 135 -25 146 -3 6 -13 8 -21 5 -9 -4
-19 6 -29 32 -28 70 -74 160 -87 171 -11 9 -9 20 12 64 l26 53 65 -44 c36 -25
83 -59 105 -75z m-876 -122 c6 -25 13 -45 16 -45 2 0 13 10 25 22 11 12 31 23
44 25 22 3 25 -1 33 -49 5 -29 5 -75 1 -103 -3 -27 -7 -83 -7 -122 -1 -40 -5
-73 -11 -73 -5 0 -32 5 -61 11 -46 10 -56 9 -100 -12 -55 -25 -73 -19 -56 21
5 14 12 34 14 45 1 11 10 53 18 92 8 40 12 79 9 86 -2 7 7 38 21 68 13 30 25
62 25 72 0 31 17 9 29 -38z m202 -230 c5 -22 20 -71 33 -110 34 -102 49 -162
44 -177 -3 -8 -32 14 -77 59 -40 40 -70 77 -67 82 5 8 17 120 17 161 0 8 3 26
5 40 5 24 6 24 20 5 8 -11 19 -38 25 -60z m-154 -163 c8 -5 15 -44 18 -101 6
-99 10 -114 28 -108 7 2 18 -2 25 -10 21 -20 35 -5 27 31 -3 17 -9 52 -12 78
-3 30 -9 46 -16 41 -6 -3 -7 -1 -3 5 11 18 21 15 53 -15 17 -16 52 -48 78 -72
44 -41 48 -47 50 -96 2 -52 1 -53 -28 -59 -16 -3 -43 -6 -59 -6 -22 0 -29 -4
-26 -17 2 -12 14 -17 43 -17 61 -1 109 -44 125 -113 8 -30 17 -56 22 -59 4 -3
8 -14 8 -24 0 -20 -34 -24 -58 -7 -7 6 -15 7 -18 4 -8 -7 -94 30 -116 50 -16
14 -18 14 -24 0 -3 -9 3 -24 13 -34 27 -27 116 -63 156 -63 55 0 96 -18 92
-40 -2 -12 6 -27 21 -39 16 -13 24 -29 24 -50 0 -26 -6 -34 -35 -48 -44 -21
-45 -33 -1 -33 47 0 72 10 54 21 -10 7 -10 9 3 9 20 0 51 34 42 45 -5 4 0 5
10 2 10 -4 23 -7 29 -7 6 0 6 -6 -2 -15 -10 -12 -9 -15 5 -15 10 0 33 -13 52
-30 18 -16 43 -30 53 -30 11 0 20 -4 20 -8 0 -5 17 -18 38 -30 70 -41 69 -40
47 -55 -19 -14 -18 -16 10 -52 17 -20 34 -43 39 -50 6 -8 5 -24 -4 -44 -7 -18
-16 -28 -19 -23 -3 5 -34 13 -68 17 -53 6 -62 4 -71 -12 -10 -17 -11 -17 -26
2 -8 11 -16 17 -16 13 0 -4 -10 -4 -22 1 -13 4 -36 11 -52 15 -25 6 -28 5 -17
-7 10 -12 8 -15 -13 -13 -17 1 -21 4 -15 12 6 8 4 14 -6 18 -8 3 -15 12 -15
20 0 15 -21 26 -49 26 -10 0 -23 12 -29 26 -7 15 -17 22 -24 18 -8 -5 -9 -2
-4 12 5 10 9 24 9 31 0 7 4 10 9 7 5 -3 6 -10 3 -15 -10 -15 8 -10 34 10 42
32 10 52 -46 29 -15 -6 -30 -12 -33 -13 -3 -1 -13 -5 -23 -10 -10 -4 -21 -5
-24 -2 -3 4 -14 2 -24 -4 -15 -8 -17 -6 -12 8 5 12 2 15 -10 10 -13 -5 -17 -1
-17 18 0 13 -4 27 -10 30 -5 3 -10 2 -10 -3 0 -11 -72 -11 -80 0 -9 12 -64 16
-77 6 -14 -11 -36 -1 -27 13 3 5 -8 14 -25 20 -23 8 -40 28 -72 85 -22 42 -44
87 -49 102 -4 15 -12 26 -19 24 -6 -1 -11 5 -11 14 0 8 5 12 10 9 15 -9 12 17
-4 40 -7 11 -13 22 -13 25 0 7 -14 99 -18 118 -3 10 -9 34 -14 54 -5 20 -6 40
-2 44 3 4 -2 4 -11 1 -10 -4 -18 -2 -18 3 0 6 4 10 8 10 9 0 31 47 53 113 17
49 29 47 30 -5 1 -24 2 -49 3 -57 2 -20 25 -26 32 -8 3 9 17 13 40 11 18 -1
34 2 34 7 0 5 8 9 19 9 20 0 45 23 35 33 -3 3 -8 38 -10 77 -4 75 -9 94 -25
84 -6 -4 -9 -32 -6 -69 3 -34 1 -69 -4 -76 -9 -14 -13 39 -9 111 2 43 20 59
47 42z m968 -66 c59 -27 111 -69 135 -108 14 -23 15 -38 8 -81 -4 -28 -13 -81
-18 -117 -12 -72 -14 -84 -30 -150 -6 -25 -15 -76 -20 -115 -14 -101 -14 -102
-33 -123 -9 -10 -17 -23 -17 -28 0 -5 -9 -17 -20 -27 -11 -9 -20 -13 -20 -7 0
5 -21 7 -50 4 -50 -6 -51 -5 -99 44 -27 28 -51 56 -54 64 -3 9 -8 10 -16 3
-19 -19 6 -76 56 -127 l46 -47 -24 -20 c-27 -23 -47 -28 -30 -7 8 10 8 16 -2
25 -8 6 -17 9 -20 6 -4 -3 -5 -2 -2 1 7 10 -15 45 -25 39 -5 -3 -17 6 -26 20
-9 14 -24 25 -34 25 -10 0 -32 14 -49 30 -33 34 -89 60 -110 52 -8 -3 -11 0
-7 7 5 7 -1 11 -13 11 -15 0 -21 6 -21 21 0 11 -5 30 -11 41 -9 17 -6 25 22
54 32 33 35 34 115 34 93 0 107 9 108 68 1 20 7 43 14 51 11 12 11 15 0 22 -8
6 -9 9 -2 9 12 0 24 41 27 91 1 14 7 26 13 26 17 0 74 46 74 59 0 7 -5 48 -11
90 -10 63 -9 78 2 85 20 14 85 2 144 -25z m-246 -1083 c13 -49 4 -72 -28 -74
-10 0 -11 -2 -3 -6 19 -7 14 -19 -9 -20 -14 -1 -19 3 -15 13 4 10 -2 14 -19
14 -17 0 -25 -6 -25 -17 -1 -17 -1 -17 -14 -1 -7 10 -17 14 -21 10 -5 -4 -5
-2 -1 5 3 7 -3 32 -15 57 -11 25 -18 50 -14 56 4 6 37 10 79 9 l72 -1 13 -45z
m-646 -1532 c9 -9 26 -140 27 -208 0 -49 -2 -52 -29 -58 -60 -13 -112 -14
-116 -2 -4 13 -13 77 -21 142 -6 55 -14 104 -20 120 -4 9 5 15 28 18 40 5 120
-3 131 -12z m-32 -309 l61 10 45 -44 c75 -72 75 -70 -13 -154 -101 -95 -284
-243 -284 -229 0 4 -13 -2 -29 -11 -17 -10 -28 -21 -25 -26 3 -4 0 -8 -6 -8
-15 0 -3 39 20 65 54 60 120 226 120 303 0 54 10 82 29 83 10 0 11 2 3 6 -6 2
-9 9 -6 15 4 7 10 5 15 -4 7 -12 19 -13 70 -6z m203 -188 c3 -9 6 -22 6 -29 0
-13 -117 -112 -160 -135 -14 -7 -37 -26 -52 -42 -14 -15 -32 -28 -40 -28 -7 0
-26 -13 -41 -30 -16 -16 -33 -30 -37 -30 -5 0 -38 -21 -74 -46 -36 -25 -70
-43 -76 -39 -15 9 -12 35 3 35 12 0 49 26 151 103 16 12 65 51 108 87 44 36
91 71 104 78 13 7 24 17 24 23 0 5 7 9 15 9 8 0 21 14 30 30 17 33 30 38 39
14z"/>
<path d="M8166 8765 c-3 -9 -3 -21 0 -27 3 -5 7 -22 9 -36 9 -75 69 -200 111
-226 13 -9 24 -25 24 -36 0 -26 17 -26 25 1 4 12 1 27 -8 37 -8 9 -20 35 -27
57 -13 40 -104 223 -119 238 -5 5 -11 1 -15 -8z"/>
</g>
</svg>
