<?xml version="1.0" standalone="no"?>
<!DOCTYPE svg PUBLIC "-//W3C//DTD SVG 20010904//EN"
 "http://www.w3.org/TR/2001/REC-SVG-20010904/DTD/svg10.dtd">
<svg version="1.0" xmlns="http://www.w3.org/2000/svg"
 width="1500.000000pt" height="1500.000000pt" viewBox="0 0 1500.000000 1500.000000"
 preserveAspectRatio="xMidYMid meet">
<metadata>
Created by potrace 1.16, written by Peter Selinger 2001-2019
</metadata>
<g transform="translate(0.000000,1500.000000) scale(0.100000,-0.100000)"
fill="#000000" stroke="none">
<path d="M0 7500 l0 -7500 7500 0 7500 0 0 7500 0 7500 -7500 0 -7500 0 0
-7500z m12340 0 l0 -4840 -4840 0 -4840 0 0 4840 0 4840 4840 0 4840 0 0
-4840z"/>
<path d="M7635 9633 c-37 -8 -130 -46 -156 -64 -25 -18 -103 -152 -93 -162 3
-2 -11 -18 -31 -35 -47 -42 -88 -133 -87 -195 1 -49 36 -128 73 -164 10 -10
28 -26 38 -37 14 -13 28 -16 45 -12 14 3 28 2 31 -4 3 -5 11 -10 16 -10 6 0 8
4 5 8 -3 5 1 9 9 9 8 0 13 -4 12 -8 -1 -5 18 -22 42 -38 37 -24 48 -28 67 -19
17 8 27 8 39 -2 8 -7 21 -10 30 -7 8 4 17 2 20 -3 9 -14 45 -12 45 1 0 8 16 9
53 5 126 -17 126 -17 147 4 11 11 25 20 30 20 19 0 10 33 -24 84 -23 35 -35
67 -39 103 -7 65 8 124 28 116 17 -6 19 5 6 26 -5 7 -14 10 -20 7 -6 -4 -11
-1 -11 6 -1 7 -7 2 -15 -12 -18 -32 -20 -136 -2 -143 9 -4 9 -7 0 -14 -9 -7
-9 -18 2 -50 33 -95 23 -125 -39 -128 -20 0 -36 2 -36 6 0 12 -33 20 -102 25
-50 3 -68 1 -68 -9 0 -7 -3 -8 -8 -2 -11 16 -84 49 -110 50 -13 0 -27 7 -32
14 -4 8 -15 11 -24 8 -10 -4 -23 1 -33 13 -12 13 -21 16 -33 10 -38 -20 -133
126 -111 169 7 12 7 21 0 28 -6 6 -2 16 11 28 11 10 20 26 20 36 0 10 13 27
30 39 16 12 36 35 44 53 8 18 26 58 40 90 16 37 30 56 37 52 6 -4 23 1 37 12
63 46 103 56 229 56 61 0 62 0 125 -58 35 -32 65 -63 67 -69 6 -20 56 -91 68
-99 14 -9 17 -94 5 -115 -5 -7 -16 -10 -25 -6 -12 4 -17 1 -17 -11 0 -11 5
-15 16 -11 8 3 12 2 9 -4 -3 -6 5 -10 19 -10 30 0 40 26 40 107 0 40 -5 58
-21 75 -11 13 -32 46 -46 73 -28 56 -114 140 -164 161 -30 13 -143 17 -188 7z"/>
<path d="M7460 8931 c0 -5 6 -12 13 -14 6 -3 0 -6 -14 -6 -35 -1 -129 -48
-129 -64 0 -21 -35 -48 -52 -42 -20 8 -141 -41 -163 -65 -27 -30 -12 -50 36
-50 32 0 39 -3 32 -12 -6 -7 -13 -25 -17 -40 -3 -14 -16 -39 -29 -55 -16 -19
-24 -43 -26 -78 -2 -27 -4 -52 -7 -54 -2 -2 10 -21 27 -42 l29 -38 -21 -38
c-19 -32 -22 -55 -23 -153 -1 -106 1 -119 26 -165 14 -27 40 -63 56 -78 l30
-29 -18 -31 c-11 -19 -19 -50 -18 -76 0 -24 -4 -46 -10 -50 -6 -3 -12 -18 -14
-31 -2 -14 -12 -40 -22 -59 -12 -22 -16 -46 -13 -68 4 -24 2 -33 -9 -33 -8 0
-15 -8 -16 -17 0 -10 -2 -23 -2 -30 -1 -6 -5 -15 -9 -19 -4 -4 -7 -20 -7 -36
0 -30 17 -37 38 -16 9 9 12 6 12 -15 0 -24 -3 -26 -28 -21 l-29 6 13 -99 c8
-54 13 -156 13 -227 -1 -119 -3 -132 -25 -168 -21 -32 -26 -57 -31 -141 -6
-97 -8 -104 -40 -143 -35 -44 -42 -83 -21 -129 10 -21 8 -28 -10 -48 -24 -26
-48 -86 -55 -139 -5 -31 -37 -97 -92 -186 -35 -56 -61 -111 -65 -137 -4 -23
-11 -31 -30 -33 -39 -6 -56 -27 -75 -99 l-18 -66 26 -19 c14 -11 30 -20 34
-20 4 -1 13 -8 19 -16 6 -8 24 -14 40 -14 16 0 55 -16 88 -35 32 -18 61 -32
63 -29 3 2 30 -4 61 -15 31 -11 61 -18 67 -15 5 2 23 29 39 60 23 43 26 58 17
69 -8 11 -7 20 7 38 27 36 58 92 206 374 17 33 43 78 58 100 26 41 158 340
158 358 0 6 8 29 19 51 19 42 41 113 62 199 13 56 24 60 33 13 6 -29 51 -124
146 -306 10 -19 26 -57 36 -83 9 -26 23 -51 30 -55 6 -4 13 -25 15 -47 2 -22
11 -60 22 -85 10 -25 20 -75 21 -115 2 -52 10 -83 30 -122 14 -29 24 -53 21
-53 -2 0 0 -12 6 -27 21 -54 28 -127 15 -148 -30 -48 10 -162 55 -157 13 1 67
4 119 5 63 2 105 8 125 18 17 9 55 19 87 22 31 3 65 10 77 16 20 11 20 11 1
78 -11 40 -27 75 -40 85 -14 11 -24 34 -28 65 -5 33 -12 48 -22 48 -8 0 -15 5
-16 10 0 6 -3 36 -8 67 -4 31 -9 79 -11 105 -3 26 -7 64 -9 83 -3 19 -8 71
-12 115 -3 44 -13 98 -21 120 -8 22 -19 56 -24 75 -14 48 -26 84 -55 160 -14
36 -32 85 -40 110 -21 59 -31 69 -43 39 -10 -23 -10 -23 -10 6 -1 19 7 37 19
48 19 16 28 43 13 35 -57 -27 -62 -33 -65 -62 -3 -30 -3 -30 -15 -9 -15 25 -7
53 14 53 8 0 12 4 8 9 -3 5 -1 13 5 16 8 5 7 11 -1 21 -8 10 -8 14 0 14 6 0
11 5 11 10 0 6 -7 10 -15 10 -14 0 -20 -17 -16 -47 3 -18 -17 -16 -36 3 -17
17 -16 19 30 45 23 13 22 29 -3 29 -24 0 -25 4 -5 34 l16 23 -40 -7 c-22 -4
-39 -4 -36 0 2 3 -2 19 -10 34 -11 20 -12 33 -5 47 8 13 7 19 0 19 -6 0 -13
-7 -17 -16 -4 -12 -7 -13 -14 -3 -6 10 -10 9 -15 -5 -5 -12 -1 -22 10 -28 15
-8 16 -12 4 -26 -18 -21 -17 -48 1 -44 7 1 19 -5 26 -15 11 -15 15 -15 29 -4
22 18 26 12 14 -19 -6 -15 -12 -20 -15 -12 -3 6 -9 12 -14 12 -5 0 0 -17 11
-37 12 -22 16 -39 10 -41 -5 -2 -10 -17 -10 -33 0 -22 5 -29 20 -29 11 0 20
-6 20 -13 0 -7 7 -22 15 -33 15 -19 15 -19 31 1 16 20 16 20 9 -3 -5 -17 0
-29 19 -47 14 -13 26 -33 26 -43 0 -32 41 -152 50 -147 5 3 8 -5 7 -17 -2 -29
23 -119 32 -114 4 3 7 -4 7 -15 0 -10 -6 -19 -13 -19 -14 0 -14 -1 12 -102 7
-27 9 -49 6 -49 -3 -1 -16 -3 -29 -4 -36 -4 -39 -15 -4 -15 26 0 36 7 52 33
l20 32 1 -35 c0 -19 3 -79 5 -132 2 -58 0 -98 -5 -98 -5 0 -11 10 -13 23 -2
12 -6 20 -9 17 -4 -3 -15 2 -25 11 -11 8 -31 16 -46 17 -22 1 -26 -2 -23 -18
2 -11 7 -25 11 -32 4 -7 3 -8 -4 -4 -7 4 -12 2 -12 -4 0 -5 14 -19 30 -29 l31
-18 -23 -16 c-23 -16 -22 -16 18 -16 29 -1 44 4 48 15 3 8 10 12 16 9 7 -4 7
-12 0 -25 -5 -10 -10 -28 -10 -40 0 -13 -4 -19 -11 -14 -8 4 -10 -14 -7 -62
l3 -69 -30 -6 c-16 -4 -44 -7 -61 -8 -30 -1 -32 1 -37 42 -3 23 -8 51 -10 62
-3 11 -12 54 -21 95 -9 41 -31 118 -49 170 -38 109 -45 180 -22 212 20 29 19
45 -2 50 -10 3 -25 18 -33 34 -8 16 -22 40 -31 54 -18 28 -18 27 -58 175 -16
60 -27 113 -25 117 3 4 0 17 -7 30 -11 21 -12 21 -25 3 -12 -17 -14 -17 -14
-2 0 9 -4 17 -8 17 -4 0 -14 20 -21 44 -7 25 -19 47 -28 50 -8 3 -11 11 -7 17
4 7 -6 36 -22 65 l-29 53 28 79 c28 81 35 146 17 157 -26 16 -74 -42 -72 -87
1 -20 -60 -38 -66 -19 -5 14 -42 15 -42 1 0 -5 8 -10 18 -11 14 0 14 -2 -3 -8
-27 -11 -33 -6 -27 24 2 15 0 25 -7 25 -6 0 -11 -8 -11 -17 0 -13 -3 -14 -12
-5 -7 7 -24 12 -38 12 -46 0 -72 -49 -27 -51 l22 0 -22 -9 c-23 -9 -22 -35 1
-53 6 -5 1 -6 -11 -2 -28 8 -51 -28 -32 -51 8 -9 8 -14 1 -14 -6 0 -10 -13 -9
-29 1 -19 6 -26 12 -21 13 10 29 1 37 -21 3 -8 27 -20 52 -26 39 -9 44 -8 35
3 -6 8 -18 14 -25 14 -20 0 -17 18 4 22 12 3 6 9 -21 21 -33 14 -37 19 -28 36
15 27 14 34 -4 27 -18 -7 -47 3 -40 14 3 5 14 6 25 3 14 -4 20 0 20 11 0 14 3
14 23 4 30 -17 38 -30 31 -50 -4 -13 0 -18 13 -18 11 0 25 -6 32 -12 11 -11
11 -9 2 9 -6 12 -16 24 -23 27 -7 3 1 4 17 1 19 -4 25 -2 17 3 -10 7 -10 11 1
21 16 13 47 5 48 -13 0 -6 4 -2 9 9 l9 20 0 -20 c0 -11 -4 -27 -9 -35 -6 -10
-10 -11 -10 -2 0 6 -7 12 -15 12 -8 0 -15 -8 -15 -18 0 -10 -5 -23 -12 -30 -9
-9 -9 -12 2 -12 13 0 13 -2 0 -10 -13 -8 -13 -10 -1 -10 11 0 10 -4 -4 -13
-11 -9 -15 -19 -10 -27 5 -8 4 -11 -3 -6 -19 11 -25 -34 -8 -53 18 -20 13 -46
-10 -55 -9 -3 -14 1 -14 14 0 22 -26 53 -53 63 -14 5 -15 3 -5 -13 7 -10 15
-17 19 -14 4 2 9 -2 12 -10 3 -8 -1 -17 -9 -20 -9 -3 -12 -10 -9 -16 4 -6 11
-8 16 -4 6 3 5 -3 -3 -15 -11 -18 -15 -19 -23 -7 -6 8 -24 16 -40 18 -24 2
-29 8 -29 30 0 14 5 32 11 40 6 7 14 25 18 39 6 23 3 27 -19 33 -33 8 -40 5
-41 -17 -1 -13 3 -16 19 -11 19 6 19 6 3 -11 -16 -15 -20 -16 -41 -1 -21 13
-26 13 -36 1 -10 -12 -8 -16 12 -24 28 -11 55 -47 60 -82 3 -24 36 -35 49 -16
4 5 9 -3 13 -17 3 -14 13 -26 21 -26 8 0 15 -7 15 -16 0 -14 3 -14 15 -4 21
17 19 5 -2 -16 -10 -10 -18 -20 -18 -23 -1 -3 -6 -16 -13 -27 -6 -12 -9 -24
-6 -26 2 -3 0 -16 -5 -30 -5 -14 -12 -40 -14 -58 -3 -18 -17 -44 -30 -59 -13
-14 -35 -48 -48 -75 -26 -53 -53 -78 -76 -69 -13 5 -13 2 1 -19 16 -24 16 -26
-4 -31 -20 -5 -28 -27 -10 -27 6 0 10 -4 10 -9 0 -5 -11 -8 -25 -7 -18 1 -24
5 -19 16 3 8 6 19 7 25 1 5 9 15 17 22 10 8 11 12 3 13 -7 0 -10 7 -7 15 9 23
-12 18 -40 -10 -14 -14 -23 -31 -20 -39 3 -8 1 -17 -5 -21 -6 -3 -11 -11 -11
-17 0 -7 6 -6 15 2 13 10 15 9 15 -9 0 -17 4 -21 19 -16 32 10 35 -14 7 -54
-14 -20 -26 -42 -26 -49 0 -7 -4 -12 -9 -12 -5 0 -14 -13 -20 -30 -8 -24 -7
-30 5 -30 7 0 14 -5 14 -10 0 -7 -6 -8 -16 -2 -9 5 -26 7 -38 4 -17 -4 -19 -3
-10 9 14 18 -7 73 -32 83 -15 6 -15 8 1 32 11 18 13 24 4 19 -38 -22 -39 -26
-17 -64 l22 -38 -23 -31 -22 -31 21 -18 c37 -30 40 -55 14 -86 -13 -16 -24
-35 -24 -43 0 -7 -11 -21 -25 -30 -17 -11 -25 -25 -25 -46 0 -16 -7 -40 -16
-53 -9 -13 -13 -29 -9 -35 9 -14 -1 -13 -35 5 -17 9 -30 11 -30 5 0 -5 -4 -10
-10 -10 -15 0 -12 16 5 34 8 8 18 30 21 48 l5 33 -28 -31 c-37 -41 -64 -55
-85 -43 -18 10 -20 4 38 108 13 24 24 48 24 52 0 4 19 40 43 81 61 103 76 147
76 220 0 84 8 120 30 138 20 16 33 77 19 86 -15 9 -9 34 7 28 8 -4 15 -1 15 4
0 6 19 12 42 14 47 3 61 23 25 37 -29 11 -29 32 2 91 14 27 24 68 27 109 2 36
13 91 23 121 10 30 16 64 14 75 -13 56 -15 95 -16 273 -2 166 0 195 14 205 12
9 14 19 8 41 -9 34 -4 46 19 46 12 0 13 -3 4 -12 -21 -21 -13 -26 26 -18 55
11 83 25 120 59 18 17 38 31 43 31 5 0 9 6 7 13 -1 6 8 32 20 56 25 52 25 51
12 51 -6 0 -15 -11 -20 -25 -15 -40 -41 -75 -52 -69 -5 3 -1 12 8 19 9 6 25
32 34 56 16 39 21 44 53 47 37 3 77 -11 77 -28 0 -5 14 -33 32 -62 25 -42 32
-65 33 -108 0 -43 7 -66 30 -102 24 -38 32 -45 46 -37 10 5 19 19 21 31 2 12
9 23 17 26 10 3 11 -3 6 -29 -4 -19 -8 -38 -9 -44 0 -5 17 -12 38 -15 47 -6
56 -22 21 -38 -30 -14 -34 -51 -7 -75 17 -16 22 -16 73 2 30 10 61 21 70 25
12 5 18 0 23 -19 8 -30 1 -46 -18 -39 -9 3 -13 -5 -13 -25 0 -23 5 -31 21 -33
12 -2 19 -7 16 -13 -3 -5 -9 -9 -13 -7 -5 1 -6 -2 -3 -7 4 -5 0 -12 -6 -14 -7
-3 -1 -6 14 -6 24 -1 58 21 58 37 0 12 -15 27 -27 28 -32 3 -36 7 -13 13 30 8
42 48 22 78 -13 21 -12 25 12 54 15 18 26 41 25 53 -1 12 4 40 11 64 12 39 12
45 -6 70 -11 15 -29 64 -39 110 -13 57 -24 86 -37 93 -10 5 -18 16 -18 23 0 7
-13 32 -30 54 -16 23 -30 44 -30 47 0 3 11 5 25 5 32 0 103 31 109 47 3 7 -5
34 -18 60 -41 83 -48 99 -45 114 1 8 -1 37 -5 64 -10 75 -15 114 -21 185 -9
104 -13 117 -60 211 -70 139 -149 262 -162 252 -2 -2 -4 -3 -5 -2 -13 4 -48
10 -70 12 -16 1 -28 6 -28 10 0 5 -3 6 -7 4 -5 -3 -19 0 -33 6 -14 5 -31 11
-39 13 -8 1 -17 6 -20 11 -11 15 -87 63 -99 63 -7 0 -12 -4 -12 -9z m108 -101
c24 -17 64 -35 88 -39 25 -5 47 -9 49 -10 3 0 16 -1 30 -1 28 0 52 -23 79 -77
11 -21 34 -58 51 -83 58 -83 85 -169 88 -271 1 -63 -2 -93 -10 -96 -6 -2 -14
6 -18 19 -4 13 -17 37 -30 53 -12 17 -33 58 -46 93 -25 66 -55 106 -101 135
-16 10 -28 24 -28 32 0 7 -35 45 -78 83 -80 70 -166 119 -228 129 -41 7 -39
20 7 51 43 30 87 24 147 -18z m-279 -193 c20 -46 60 -85 95 -92 12 -2 39 -7
61 -10 l40 -7 -37 -19 c-24 -12 -46 -36 -64 -69 -15 -27 -30 -47 -34 -45 -4 3
-13 -2 -20 -10 -10 -12 -9 -16 3 -21 12 -4 14 -17 10 -64 -5 -53 -3 -61 19
-82 34 -31 52 -90 53 -168 0 -57 3 -66 23 -76 54 -27 104 -98 56 -80 -7 3 -16
1 -19 -4 -3 -5 -19 -8 -35 -7 -26 2 -29 5 -24 31 2 15 2 37 -2 48 -6 19 -6 19
-21 -2 -8 -12 -13 -32 -10 -46 2 -13 0 -24 -4 -24 -5 0 -9 8 -9 18 0 10 -16
33 -35 52 l-36 35 3 -32 c1 -18 8 -35 14 -37 7 -3 17 -14 23 -24 21 -38 -58 2
-101 51 -44 53 -43 49 -53 177 -4 52 -11 112 -17 132 -8 28 -8 41 2 52 18 23
44 4 77 -56 62 -115 72 -43 11 80 -6 12 -18 22 -25 22 -8 0 -11 4 -8 10 9 15
-15 52 -30 47 -8 -4 -13 3 -14 16 -1 12 -3 40 -4 62 -2 22 3 54 11 70 13 28
73 114 80 115 1 0 11 -20 21 -43z m406 -109 c42 -16 57 -29 47 -42 -5 -6 -8
-15 -7 -21 1 -5 7 -48 13 -95 29 -200 30 -217 10 -229 -10 -6 -28 -11 -40 -11
-39 0 -68 -12 -68 -26 0 -15 60 -12 137 8 61 15 73 7 73 -49 0 -50 22 -137 40
-159 6 -6 29 -47 51 -91 21 -43 45 -82 52 -88 12 -9 43 -114 36 -118 -2 -1
-18 -10 -36 -19 -17 -10 -42 -18 -56 -18 -28 0 -41 -22 -24 -39 6 -6 42 -11
79 -11 76 0 87 -11 30 -29 -46 -16 -109 -9 -125 13 -7 9 -23 17 -35 19 -32 5
-84 47 -102 83 -8 16 -23 39 -33 51 -22 25 -36 48 -65 108 -11 22 -32 57 -48
77 -16 20 -39 54 -52 75 -13 21 -44 51 -68 67 -44 27 -45 30 -39 66 4 23 1 50
-8 71 -8 19 -17 52 -21 74 -4 21 -14 52 -22 67 -14 27 -13 31 31 92 25 36 49
66 54 68 11 4 23 68 12 68 -10 0 -40 -35 -75 -87 -28 -42 -56 -61 -37 -25 5 9
10 22 11 27 11 50 38 77 95 95 51 16 55 18 85 35 25 14 50 13 105 -7z m-401
-726 c3 -5 -9 -49 -26 -98 -17 -49 -32 -107 -33 -129 -2 -22 -4 -40 -5 -40 -1
0 -3 -9 -6 -20 -22 -107 -24 -270 -6 -442 12 -112 12 -125 -4 -155 -12 -21
-18 -58 -19 -104 -2 -62 -6 -77 -36 -122 -47 -72 -69 -70 -70 6 -2 145 1 166
30 197 39 42 83 122 71 130 -5 3 -8 43 -7 88 2 68 -1 82 -13 79 -11 -2 -10 2
4 12 10 9 15 20 10 27 -28 46 23 476 62 520 8 8 14 25 14 37 0 21 23 31 34 14z
m437 -794 c7 -24 26 -69 41 -101 16 -31 28 -61 28 -65 0 -4 8 -12 18 -18 9 -6
30 -51 46 -100 25 -75 73 -211 84 -236 2 -5 -8 -8 -22 -8 -14 0 -26 5 -26 10
0 6 -7 10 -15 10 -8 0 -15 8 -15 18 0 9 -14 41 -30 71 -17 30 -30 59 -30 64 0
6 -11 25 -25 43 -14 18 -25 38 -25 44 0 6 -9 23 -20 38 -11 15 -34 69 -51 119
l-32 92 18 41 c21 47 35 42 56 -22z m-667 -418 c8 0 13 -20 14 -62 1 -55 -2
-66 -25 -90 -24 -26 -26 -33 -25 -124 1 -83 -2 -103 -23 -144 -14 -27 -30 -52
-36 -56 -6 -3 -22 -30 -35 -58 -13 -28 -30 -62 -38 -76 -7 -14 -22 -44 -32
-68 -18 -43 -35 -50 -62 -24 -16 15 -7 85 15 119 9 13 12 23 9 23 -5 0 23 57
59 118 59 101 85 155 85 176 0 42 25 92 59 116 l30 23 -22 41 c-32 60 -32 104
0 92 8 -3 20 -6 27 -6z m909 -184 c-6 -28 13 -159 26 -184 16 -29 51 -136 55
-167 3 -16 13 -61 23 -100 24 -92 23 -99 -9 -103 -25 -3 -27 0 -38 55 -6 32
-21 90 -32 128 -12 39 -23 81 -24 94 -2 13 -5 25 -8 28 -3 3 -1 16 4 29 6 16
5 32 -4 51 -59 121 -69 165 -38 182 31 19 50 13 45 -13z m-1240 -506 c-4 -13
1 -22 13 -27 10 -4 31 -20 48 -35 16 -16 35 -27 42 -24 6 2 20 -1 30 -9 11 -7
46 -20 79 -30 50 -14 97 -32 113 -41 11 -6 -26 -44 -43 -44 -34 0 -225 70
-245 90 -12 12 -51 30 -65 30 -18 0 -18 7 -4 51 17 48 43 81 32 39z m1645 -52
c23 -47 24 -67 5 -66 -27 2 -97 -13 -109 -23 -6 -5 -25 -5 -45 1 -43 13 -52
13 -44 0 3 -5 1 -10 -4 -10 -6 0 -11 5 -11 10 0 6 -15 4 -36 -5 -67 -28 -114
-15 -114 30 0 19 9 22 103 33 56 7 122 15 147 18 25 3 54 12 65 19 27 19 30
18 43 -7z"/>
<path d="M6628 5626 c-10 -7 -27 -34 -38 -61 -11 -27 -32 -60 -47 -74 -31 -31
-77 -120 -93 -181 -12 -43 -11 -45 17 -68 15 -13 57 -38 93 -55 78 -37 139
-78 140 -93 0 -13 78 -48 105 -46 11 0 36 3 55 6 19 3 70 7 113 9 42 2 80 7
83 10 4 3 3 30 0 59 l-7 53 -72 27 c-40 14 -80 29 -89 32 -17 5 -82 99 -104
151 -14 34 -8 51 37 103 27 30 28 34 14 55 -9 14 -34 28 -62 35 -60 16 -103
35 -103 44 0 12 -23 9 -42 -6z"/>
<path d="M8351 5576 c-17 -18 -39 -27 -80 -32 -31 -3 -60 -9 -64 -11 -4 -3 1
-20 13 -40 20 -34 34 -80 49 -158 10 -54 51 -167 67 -184 11 -12 22 -11 76 3
35 10 81 21 103 26 70 14 155 39 185 55 16 9 42 17 57 19 24 3 92 24 101 31 2
2 -6 22 -17 46 -11 24 -22 51 -24 60 -4 13 -28 17 -139 21 -171 7 -208 21
-236 86 -11 26 -22 59 -26 75 -8 34 -35 35 -65 3z"/>
</g>
</svg>
